<svg width="216" height="65" viewBox="0 0 216 65" fill="none" xmlns="http://www.w3.org/2000/svg">
<g filter="url(#filter0_d_1710_19231)">
<rect y="0.707642" width="212.011" height="59.8619" rx="9.97699" fill="#D0F9D5" shape-rendering="crispEdges"/>
<g clip-path="url(#clip0_1710_19231)">
<path d="M44.8963 30.6386C44.8963 34.6077 43.3196 38.4142 40.513 41.2208C37.7064 44.0273 33.8999 45.6041 29.9308 45.6041C25.9617 45.6041 22.1552 44.0273 19.3486 41.2208C16.542 38.4142 14.9653 34.6077 14.9653 30.6386C14.9653 26.6695 16.542 22.863 19.3486 20.0564C22.1552 17.2498 25.9617 15.6731 29.9308 15.6731C33.8999 15.6731 37.7064 17.2498 40.513 20.0564C43.3196 22.863 44.8963 26.6695 44.8963 30.6386ZM37.4697 24.9704C37.336 24.8372 37.1769 24.7324 37.0019 24.6621C36.8268 24.5919 36.6394 24.5576 36.4508 24.5615C36.2621 24.5653 36.0763 24.6072 35.9042 24.6845C35.7321 24.7618 35.5774 24.8731 35.4493 25.0116L28.9524 33.2893L25.0371 29.3721C24.7711 29.1243 24.4194 28.9894 24.0559 28.9958C23.6924 29.0022 23.3456 29.1494 23.0886 29.4065C22.8315 29.6636 22.6843 30.0104 22.6778 30.3738C22.6714 30.7373 22.8063 31.0891 23.0542 31.355L28.004 36.3067C28.1374 36.4399 28.2961 36.5447 28.4709 36.6151C28.6457 36.6855 28.8328 36.72 29.0212 36.7165C29.2096 36.713 29.3953 36.6716 29.5673 36.5948C29.7394 36.518 29.8942 36.4073 30.0225 36.2693L37.4902 26.9346C37.7448 26.6699 37.8855 26.3159 37.882 25.9487C37.8785 25.5814 37.7311 25.2302 37.4715 24.9704H37.4697Z" fill="#198754"/>
</g>
<rect x="59.8618" y="20.6616" width="134.689" height="6.23562" rx="2.49425" fill="#0C614A"/>
<rect x="59.8618" y="34.3799" width="96.0285" height="6.23562" rx="2.49425" fill="#6FDB93"/>
</g>
<defs>
<filter id="filter0_d_1710_19231" x="0" y="0.707642" width="215.752" height="63.6033" filterUnits="userSpaceOnUse" color-interpolation-filters="sRGB">
<feFlood flood-opacity="0" result="BackgroundImageFix"/>
<feColorMatrix in="SourceAlpha" type="matrix" values="0 0 0 0 0 0 0 0 0 0 0 0 0 0 0 0 0 0 127 0" result="hardAlpha"/>
<feOffset dx="3.74137" dy="3.74137"/>
<feComposite in2="hardAlpha" operator="out"/>
<feColorMatrix type="matrix" values="0 0 0 0 0 0 0 0 0 0.713726 0 0 0 0 0.478431 0 0 0 1 0"/>
<feBlend mode="normal" in2="BackgroundImageFix" result="effect1_dropShadow_1710_19231"/>
<feBlend mode="normal" in="SourceGraphic" in2="effect1_dropShadow_1710_19231" result="shape"/>
</filter>
<clipPath id="clip0_1710_19231">
<rect width="29.931" height="29.931" fill="white" transform="translate(14.9653 15.6731)"/>
</clipPath>
</defs>
</svg>
