<svg width="32" height="32" viewBox="0 0 32 32" fill="none" xmlns="http://www.w3.org/2000/svg">
<path d="M13.2735 7.43844C13.7958 6.8898 14.424 6.45292 15.1201 6.15427C15.8163 5.85561 16.5658 5.70141 17.3233 5.70099C18.3303 5.70455 19.318 5.97702 20.1844 6.49023C21.0508 7.00344 21.7644 7.73877 22.2514 8.62017C23.1277 8.22926 24.0768 8.02791 25.0364 8.02931C26.0076 8.02693 26.9685 8.22823 27.8571 8.62021C28.7457 9.0122 29.5422 9.58615 30.1952 10.305C30.8482 11.0239 31.3433 11.8717 31.6484 12.7937C31.9534 13.7158 32.0618 14.6915 31.9664 15.6581C31.8711 16.6246 31.5741 17.5603 31.0947 18.4049C30.6153 19.2496 29.9641 19.9843 29.1831 20.5617C28.4022 21.139 27.5088 21.5462 26.5608 21.757C25.6127 21.9677 24.631 21.9773 23.679 21.7852C23.0496 22.9047 22.0161 23.7414 20.79 24.1237C19.5639 24.5061 18.238 24.4053 17.0837 23.842C16.6315 24.8986 15.873 25.7955 14.9061 26.4167C13.9391 27.038 12.8082 27.3552 11.6592 27.3273C10.5102 27.2995 9.39598 26.9279 8.46028 26.2605C7.52458 25.5931 6.81039 24.6606 6.4099 23.5833C6.04972 23.6596 5.68258 23.6981 5.31441 23.6983C4.13856 23.6802 3.00079 23.2785 2.07415 22.5544C1.14752 21.8303 0.482713 20.8234 0.18085 19.6868C-0.121012 18.5502 -0.0434162 17.3462 0.401838 16.2577C0.847091 15.1693 1.63564 14.256 2.64755 13.6569C2.0486 12.2668 1.97861 10.7057 2.45077 9.26765C2.92292 7.82958 3.90463 6.61379 5.21098 5.8493C6.51733 5.08481 8.05813 4.82439 9.54316 5.1171C11.0282 5.4098 12.3549 6.23542 13.2735 7.43844Z" fill="#0F9BD7"/>
</svg>
