<svg width="32" height="32" viewBox="0 0 32 32" fill="none" xmlns="http://www.w3.org/2000/svg">
<path d="M2.18182 28.0062H7.27273V15.6426L0 10.188V25.8244C0 27.0317 0.978182 28.0062 2.18182 28.0062Z" fill="#4285F4"/>
<path d="M24.7271 28.0062H29.8181C31.0253 28.0062 31.9999 27.028 31.9999 25.8244V10.188L24.7271 15.6426" fill="#34A853"/>
<path d="M24.7271 6.18801V15.6426L31.9999 10.188V7.27892C31.9999 4.58073 28.9199 3.04255 26.7635 4.66073" fill="#FBBC04"/>
<path d="M7.27271 15.6425V6.18799L15.9999 12.7335L24.7272 6.18799V15.6425L15.9999 22.188" fill="#EA4335"/>
<path d="M0 7.27892V10.188L7.27273 15.6426V6.18801L5.23636 4.66073C3.07636 3.04255 0 4.58073 0 7.27892Z" fill="#C5221F"/>
</svg>
