<svg width="32" height="32" viewBox="0 0 32 32" fill="none" xmlns="http://www.w3.org/2000/svg">
<g clip-path="url(#clip0_823_17705)">
<mask id="mask0_823_17705" style="mask-type:luminance" maskUnits="userSpaceOnUse" x="0" y="0" width="32" height="32">
<path d="M32 0H0V32H32V0Z" fill="white"/>
</mask>
<g mask="url(#mask0_823_17705)">
<path d="M18.8618 17.2997C18.8618 17.2997 25.7204 13.4565 25.8387 13.5156C25.1831 10.9547 23.5395 8.75777 21.2678 7.40584C18.9961 6.05391 16.2814 5.65707 13.7178 6.30219C11.306 6.91112 9.21449 8.4111 7.86426 10.5002C7.92338 10.5002 18.8618 17.2997 18.8618 17.2997Z" fill="#0364B8"/>
<path d="M12.1808 11.6826C10.9172 10.909 9.46443 10.4998 7.98286 10.5001H7.8646C5.74806 10.5328 3.73104 11.4042 2.25657 12.923C0.782108 14.4419 -0.0292178 16.4838 0.000804492 18.6004C0.026529 20.2044 0.51969 21.7661 1.41984 23.094L12.4173 21.9706L18.8621 15.7623L12.1808 11.6826Z" fill="#0F78D4"/>
<path d="M25.8983 13.5155H25.4844C24.6086 13.5091 23.7417 13.6905 22.942 14.0477L18.9214 15.7032L23.2967 20.5516L31.2197 23.0349C31.6265 22.2824 31.8805 21.4569 31.9669 20.6058C32.0533 19.7548 31.9704 18.895 31.7231 18.0761C31.4758 17.2573 31.0689 16.4954 30.5259 15.8344C29.9828 15.1735 29.3143 14.6265 28.559 14.2251C27.7267 13.8178 26.8229 13.5768 25.8983 13.5155Z" fill="#1490DF"/>
<path d="M25.4841 19.6647L23.8286 18.6595L20.0445 16.4127L18.862 15.7032L15.8465 17.004L9.99299 19.4873L7.33231 20.5516L1.41968 23.0349C2.15904 24.0903 3.14109 24.9527 4.28321 25.5495C5.42532 26.1462 6.69407 26.4599 7.9827 26.4642H25.425C26.6003 26.4576 27.7523 26.136 28.761 25.5329C29.7698 24.9297 30.5983 24.0671 31.1603 23.0349L25.4841 19.6647Z" fill="#28A8EA"/>
</g>
</g>
<defs>
<clipPath id="clip0_823_17705">
<rect width="32" height="32" fill="white"/>
</clipPath>
</defs>
</svg>
