<svg width="32" height="32" viewBox="0 0 32 32" fill="none" xmlns="http://www.w3.org/2000/svg">
<path d="M22.1091 20.8448V12.9576C22.1091 12.7685 22.1829 12.5872 22.3144 12.4535C22.4458 12.3198 22.624 12.2447 22.8099 12.2447H30.6608C30.8367 12.2447 31.0108 12.28 31.1733 12.3484C31.3358 12.4169 31.4834 12.5172 31.6077 12.6437C31.7321 12.7702 31.8307 12.9204 31.898 13.0857C31.9653 13.2509 32 13.4281 32 13.607V20.8448C32 22.1741 31.4809 23.4489 30.5568 24.3889C29.6328 25.3288 28.3796 25.8568 27.0728 25.8568H27.0363C25.7295 25.8568 24.4763 25.3288 23.5522 24.3889C22.6282 23.4489 22.1091 22.1741 22.1091 20.8448Z" fill="#5059C9"/>
<path d="M27.0545 10.4692C28.8218 10.4692 30.2545 9.0119 30.2545 7.21418C30.2545 5.41645 28.8218 3.95911 27.0545 3.95911C25.2872 3.95911 23.8545 5.41645 23.8545 7.21418C23.8545 9.0119 25.2872 10.4692 27.0545 10.4692Z" fill="#5059C9"/>
<path d="M26.6793 26.2247C26.613 26.2218 26.545 26.2176 26.4753 26.2121C26.5429 26.2178 26.6109 26.222 26.6793 26.2247Z" fill="#5059C9"/>
<path d="M16.873 10.4693C19.4437 10.4693 21.5276 8.34952 21.5276 5.73465C21.5276 3.11977 19.4437 1 16.873 1C14.3024 1 12.2185 3.11977 12.2185 5.73465C12.2185 8.34952 14.3024 10.4693 16.873 10.4693Z" fill="#7B83EB"/>
<path d="M24.2424 12.2448H10.6667C10.3086 12.2428 9.9644 12.3856 9.7098 12.6417C9.45521 12.8978 9.31107 13.2464 9.30908 13.6106V21.8052C9.33272 23.9868 10.2013 26.071 11.7263 27.6052C13.2513 29.1395 15.3097 30 17.4545 30C19.5994 30 21.6578 29.1395 23.1828 27.6052C24.7078 26.071 25.5764 23.9868 25.6 21.8052V13.6106C25.598 13.2464 25.4539 12.8978 25.1993 12.6417C24.9447 12.3856 24.6005 12.2428 24.2424 12.2448Z" fill="#7B83EB"/>
<path opacity="0.2" d="M16.8727 12.2448V24.4779C16.874 24.5574 16.8662 24.6368 16.8495 24.7145C16.7966 25.0347 16.6335 25.3254 16.3895 25.5346C16.1454 25.7438 15.8362 25.8581 15.5171 25.8569H10.3796C10.2667 25.6652 10.1638 25.4677 10.0713 25.2651C9.97812 25.0697 9.89659 24.8744 9.82102 24.6732C9.48104 23.7558 9.30758 22.7832 9.30909 21.8028V13.6119C9.30951 13.4315 9.34495 13.253 9.41337 13.0865C9.48179 12.9201 9.58185 12.769 9.7078 12.642C9.83376 12.5149 9.98313 12.4145 10.1474 12.3463C10.3116 12.2782 10.4874 12.2436 10.6648 12.2448H16.8727Z" fill="black"/>
<path opacity="0.2" d="M16.8729 8.88915V10.4693C16.6785 10.4694 16.4842 10.4576 16.2911 10.4337C15.4695 10.3275 14.6904 10.0007 14.034 9.48686C13.3776 8.97306 12.8674 8.2908 12.5559 7.51013H15.5172C15.6954 7.50982 15.8718 7.54527 16.0364 7.61446C16.201 7.68365 16.3506 7.78521 16.4765 7.91333C16.6025 8.04145 16.7023 8.19359 16.7704 8.36105C16.8384 8.5285 16.8732 8.70796 16.8729 8.88915Z" fill="black"/>
<path opacity="0.1" d="M17.4546 12.2448V23.2942C17.4498 23.8154 17.2441 24.3139 16.8818 24.6824C16.5195 25.051 16.0294 25.2602 15.5171 25.2651H10.0713C9.97812 25.0697 9.89659 24.8744 9.82102 24.6732C9.48104 23.7558 9.30758 22.7832 9.30909 21.8028V13.6119C9.30951 13.4315 9.34495 13.253 9.41337 13.0865C9.48179 12.9201 9.58185 12.769 9.7078 12.642C9.83376 12.5149 9.98313 12.4145 10.1474 12.3463C10.3116 12.2782 10.4874 12.2436 10.6648 12.2448H17.4546Z" fill="black"/>
<path opacity="0.1" d="M17.4547 8.88912V10.4337C17.0682 10.4811 16.6775 10.4811 16.291 10.4337C15.4694 10.3274 14.6904 10.0006 14.0339 9.48683C13.3775 8.97303 12.8673 8.29077 12.5558 7.5101C12.4796 7.31713 12.4155 7.11946 12.3638 6.91827H15.5172C16.0305 6.9201 16.5223 7.12832 16.8852 7.49754C17.2482 7.86675 17.4529 8.36698 17.4547 8.88912Z" fill="black"/>
<path opacity="0.2" d="M16.8727 12.2448V23.2942C16.8731 23.4754 16.8382 23.6549 16.7702 23.8223C16.7022 23.9898 16.6023 24.1419 16.4764 24.27C16.3504 24.3981 16.2008 24.4997 16.0362 24.5689C15.8716 24.6381 15.6952 24.6735 15.5171 24.6732H9.82104C9.48105 23.7558 9.30759 22.7832 9.30909 21.8028V13.6119C9.30951 13.4315 9.34495 13.253 9.41337 13.0865C9.48179 12.9201 9.58185 12.769 9.7078 12.642C9.83376 12.5149 9.98313 12.4145 10.1474 12.3463C10.3116 12.2782 10.4874 12.2436 10.6648 12.2448H16.8727Z" fill="black"/>
<path opacity="0.2" d="M16.8729 8.88915V10.4693C16.6785 10.4694 16.4842 10.4576 16.2911 10.4337C15.4695 10.3275 14.6904 10.0007 14.034 9.48686C13.3776 8.97306 12.8674 8.2908 12.5559 7.51013H15.5172C15.6954 7.50982 15.8718 7.54527 16.0364 7.61446C16.201 7.68365 16.3506 7.78521 16.4765 7.91333C16.6025 8.04145 16.7023 8.19359 16.7704 8.36105C16.8384 8.5285 16.8732 8.70796 16.8729 8.88915Z" fill="black"/>
<path opacity="0.1" d="M16.2911 8.88915V10.4337C15.4694 10.3275 14.6904 10.0007 14.034 9.48686C13.3776 8.97306 12.8674 8.2908 12.5559 7.51013H14.9354C15.1135 7.50982 15.29 7.54527 15.4546 7.61446C15.6192 7.68365 15.7688 7.78521 15.8947 7.91333C16.0207 8.04145 16.1205 8.19359 16.1885 8.36105C16.2566 8.5285 16.2914 8.70796 16.2911 8.88915Z" fill="black"/>
<path opacity="0.1" d="M10.6648 12.2448H16.2909V23.2942C16.2912 23.4754 16.2564 23.6549 16.1884 23.8223C16.1203 23.9898 16.0205 24.1419 15.8945 24.27C15.7686 24.3981 15.619 24.4997 15.4544 24.5689C15.2898 24.6381 15.1134 24.6735 14.9352 24.6732H9.82104C9.48105 23.7558 9.30759 22.7832 9.30909 21.8028V13.6119C9.30951 13.4315 9.34495 13.253 9.41337 13.0865C9.48179 12.9201 9.58185 12.769 9.7078 12.642C9.83376 12.5149 9.98313 12.4145 10.1474 12.3463C10.3116 12.2782 10.4874 12.2436 10.6648 12.2448Z" fill="black"/>
<path d="M14.9333 7.51013H1.35757C0.607806 7.51013 0 8.1284 0 8.89107V22.7005C0 23.4631 0.607806 24.0814 1.35757 24.0814H14.9333C15.6831 24.0814 16.2909 23.4631 16.2909 22.7005V8.89107C16.2909 8.1284 15.6831 7.51013 14.9333 7.51013Z" fill="#4B53BC"/>
<path d="M11.6413 12.557H8.98556V20.2674H7.29336V12.557H4.64966V11.0611H11.6413V12.557Z" fill="white"/>
</svg>
