<svg width="32" height="32" viewBox="0 0 32 32" fill="none" xmlns="http://www.w3.org/2000/svg">
<g clip-path="url(#clip0_823_17699)">
<mask id="mask0_823_17699" style="mask-type:luminance" maskUnits="userSpaceOnUse" x="0" y="0" width="32" height="32">
<path d="M32 0H0V32H32V0Z" fill="white"/>
</mask>
<g mask="url(#mask0_823_17699)">
<path d="M24.4221 7.57812H7.57837V24.4219H24.4221V7.57812Z" fill="white"/>
<path d="M24.4226 32L32.0007 24.4219H24.4226V32Z" fill="#F72A25"/>
<path d="M32.0007 7.57812H24.4226V24.4219H32.0007V7.57812Z" fill="#FBBC04"/>
<path d="M24.4221 24.4219H7.57837V32H24.4221V24.4219Z" fill="#34A853"/>
<path d="M0 24.4219V29.474C0 30.8698 1.13021 32 2.52604 32H7.57813V24.4219H0Z" fill="#188038"/>
<path d="M32.0007 7.57813V2.52604C32.0007 1.13021 30.8705 0 29.4747 0H24.4226V7.57813H32.0007Z" fill="#1967D2"/>
<path d="M24.4219 0H2.52604C1.13021 0 0 1.13021 0 2.52604V24.4219H7.57812V7.57812H24.4193V0H24.4219Z" fill="#4285F4"/>
<path d="M11.0331 20.6432C10.4029 20.2187 9.96794 19.5964 9.73096 18.776L11.1919 18.1745C11.3247 18.6797 11.5565 19.0703 11.8872 19.349C12.2154 19.6276 12.6164 19.763 13.0826 19.763C13.5617 19.763 13.9706 19.6172 14.3143 19.3281C14.6581 19.0365 14.83 18.6667 14.83 18.2187C14.83 17.7604 14.6477 17.3854 14.2857 17.0937C13.9237 16.8021 13.468 16.6589 12.9263 16.6589H12.0826V15.2135H12.8404C13.3065 15.2135 13.7024 15.0885 14.0227 14.8333C14.343 14.5807 14.5018 14.2344 14.5018 13.7943C14.5018 13.4036 14.3586 13.0911 14.0721 12.8568C13.7857 12.6224 13.4237 12.5052 12.9836 12.5052C12.5539 12.5052 12.2128 12.6198 11.9602 12.849C11.7076 13.0781 11.5175 13.3698 11.4081 13.6927L9.96273 13.0911C10.1555 12.5469 10.507 12.0677 11.0227 11.6536C11.5383 11.2396 12.1971 11.0312 12.9966 11.0312C13.5878 11.0312 14.1216 11.1458 14.593 11.375C15.0643 11.6042 15.4341 11.9219 15.7024 12.3255C15.9706 12.7318 16.1034 13.1875 16.1034 13.6927C16.1034 14.2083 15.9784 14.6432 15.731 15.0026C15.4836 15.3594 15.1763 15.6354 14.8143 15.8255V15.9115C15.2805 16.1042 15.6893 16.4219 15.9888 16.8281C16.2935 17.2396 16.4471 17.7292 16.4471 18.3021C16.4471 18.875 16.3013 19.3854 16.0122 19.8333C15.7206 20.2813 15.3195 20.6354 14.8091 20.8932C14.2987 21.151 13.7232 21.2812 13.0852 21.2812C12.3456 21.2812 11.6633 21.0703 11.0331 20.6432ZM20.007 13.3932L18.4029 14.5521L17.6008 13.3359L20.4784 11.2604H21.5826V21.0521H20.007V13.3932Z" fill="#1A73E8"/>
</g>
</g>
<defs>
<clipPath id="clip0_823_17699">
<rect width="32" height="32" fill="white"/>
</clipPath>
</defs>
</svg>
