<svg width="32" height="32" viewBox="0 0 32 32" fill="none" xmlns="http://www.w3.org/2000/svg">
<path fill-rule="evenodd" clip-rule="evenodd" d="M16 1C7.16 1 0 8.11169 0 16.8921C0 23.9243 4.58 29.8639 10.94 31.9696C11.74 32.1087 12.04 31.6319 12.04 31.2148C12.04 30.8373 12.02 29.5858 12.02 28.2549C8 28.9899 6.96 27.2815 6.64 26.3876C6.46 25.9307 5.68 24.5202 5 24.1428C4.44 23.8448 3.64 23.1098 4.98 23.09C6.24 23.0701 7.14 24.2421 7.44 24.7189C8.88 27.1226 11.18 26.4472 12.1 26.03C12.24 24.997 12.66 24.3017 13.12 23.9044C9.56 23.5071 5.84 22.1364 5.84 16.0577C5.84 14.3295 6.46 12.8992 7.48 11.7867C7.32 11.3894 6.76 9.7605 7.64 7.57534C7.64 7.57534 8.98 7.15817 12.04 9.20427C13.32 8.8467 14.68 8.66792 16.04 8.66792C17.4 8.66792 18.76 8.8467 20.04 9.20427C23.1 7.13831 24.44 7.57534 24.44 7.57534C25.32 9.7605 24.76 11.3894 24.6 11.7867C25.62 12.8992 26.24 14.3096 26.24 16.0577C26.24 22.1563 22.5 23.5071 18.94 23.9044C19.52 24.401 20.02 25.3546 20.02 26.8445C20.02 28.97 20 30.6784 20 31.2148C20 31.6319 20.3 32.1286 21.1 31.9696C27.42 29.8639 32 23.9044 32 16.8921C32 8.11169 24.84 1 16 1Z" fill="#1B1F23"/>
</svg>
