<svg width="32" height="32" viewBox="0 0 32 32" fill="none" xmlns="http://www.w3.org/2000/svg">
<g clip-path="url(#clip0_823_17709)">
<mask id="mask0_823_17709" style="mask-type:luminance" maskUnits="userSpaceOnUse" x="0" y="0" width="32" height="32">
<path d="M32 0H0V32H32V0Z" fill="white"/>
</mask>
<g mask="url(#mask0_823_17709)">
<path d="M16 32C24.8365 32 32 24.8365 32 16C32 7.16347 24.8365 0 16 0C7.16346 0 0 7.16347 0 16C0 24.8365 7.16346 32 16 32Z" fill="#4A8CFF"/>
<path d="M5.56152 21.0128V13.4938C5.56819 11.7935 6.95694 10.425 8.65057 10.4319H19.6108C19.9224 10.4319 20.1731 10.6826 20.1731 10.9875V18.5066C20.1664 20.2069 18.7776 21.5753 17.0843 21.5684H6.12401C5.81246 21.5684 5.56152 21.3177 5.56152 21.0128ZM20.8706 18.0797L25.3957 21.3852C25.7887 21.7104 26.0933 21.6292 26.0933 21.0398V10.9603C26.0933 10.2896 25.7206 10.3708 25.3957 10.6148L20.8706 13.9137V18.0797Z" fill="white"/>
</g>
</g>
<defs>
<clipPath id="clip0_823_17709">
<rect width="32" height="32" fill="white"/>
</clipPath>
</defs>
</svg>
