<svg width="32" height="32" viewBox="0 0 32 32" fill="none" xmlns="http://www.w3.org/2000/svg">
<g clip-path="url(#clip0_823_17703)">
<mask id="mask0_823_17703" style="mask-type:luminance" maskUnits="userSpaceOnUse" x="0" y="0" width="32" height="32">
<path d="M32 0H0V32H32V0Z" fill="white"/>
</mask>
<g mask="url(#mask0_823_17703)">
<path d="M19.7819 3H8.9019C8.20372 3 7.56372 3.52892 7.56372 4.16363V9.34707L19.7819 18.0214L32 15.6941V9.34707L19.7819 3Z" fill="#21A366"/>
<path d="M30.6615 3H19.7815V9.34708H31.9997V4.21652C31.9997 3.58182 31.4178 3 30.6615 3Z" fill="#33C481"/>
<path d="M7.56372 9.34711V27.1718C7.56372 27.8065 8.14554 28.3883 8.84372 28.3883H30.6618C31.36 28.3883 32 27.8594 32 27.2247V22.0412L7.56372 9.34711Z" fill="#185C37"/>
<path d="M7.56372 9.34711H19.7819V15.6942H7.56372V9.34711Z" fill="#107C41"/>
<path opacity="0.1" d="M16.8728 9.50577V23.628C16.7564 24.2098 16.1746 24.6329 15.5346 24.6329H7.56372V8.28925H15.5346C16.2328 8.28925 16.8728 8.81817 16.8728 9.50577Z" fill="black"/>
<path opacity="0.1" d="M17.4546 9.50576V22.3586C17.4546 23.3106 16.5819 24.104 15.5346 24.104H7.56372V7.76031H15.5346C16.5819 7.76031 17.4546 8.5537 17.4546 9.50576Z" fill="black"/>
<path opacity="0.1" d="M16.8728 9.50577V22.3586C16.8728 22.9933 16.291 23.5751 15.5928 23.5751H7.56372V8.28925H15.5346C16.2328 8.28925 16.8728 8.81817 16.8728 9.50577Z" fill="black"/>
<path opacity="0.1" d="M16.291 9.50577V22.3586C16.291 22.9933 15.7092 23.5751 15.011 23.5751H7.56372V8.28925H14.9528C15.651 8.28925 16.291 8.81817 16.291 9.50577Z" fill="black"/>
<path d="M1.33818 8.28925H14.8945C15.5926 8.28925 16.2326 8.81817 16.2326 9.45288V21.8296C16.2326 22.4644 15.6508 23.0462 14.9527 23.0462H1.33818C0.639997 23.0991 0.0581815 22.623 0 22.0412V9.50577C0 8.87106 0.581815 8.28925 1.33818 8.28925Z" fill="#107C41"/>
<path d="M4.18896 19.714L7.03985 15.6941L4.42168 11.6743H6.51622L7.97076 14.2132C8.02894 14.3718 8.1453 14.5834 8.26166 14.7421C8.37803 14.5305 8.43621 14.3718 8.55257 14.1603L10.0653 11.6214H11.9853L9.30893 15.6412L12.0434 19.6611H10.0071L8.37804 16.8578C8.31985 16.752 8.26167 16.5933 8.20349 16.4875C8.14531 16.5933 8.08712 16.752 8.02894 16.8578L6.34167 19.6611L4.18896 19.714Z" fill="white"/>
<path d="M19.7815 15.6941H31.9997V22.0412H19.7815V15.6941Z" fill="#107C41"/>
</g>
</g>
<defs>
<clipPath id="clip0_823_17703">
<rect width="32" height="32" fill="white"/>
</clipPath>
</defs>
</svg>
