<svg width="32" height="32" viewBox="0 0 32 32" fill="none" xmlns="http://www.w3.org/2000/svg">
<g clip-path="url(#clip0_823_17707)">
<mask id="mask0_823_17707" style="mask-type:luminance" maskUnits="userSpaceOnUse" x="0" y="0" width="32" height="32">
<path d="M32 0H0V32H32V0Z" fill="white"/>
</mask>
<g mask="url(#mask0_823_17707)">
<path d="M6.74572 20.2291C6.74572 22.089 5.24372 23.5922 3.38531 23.5922C1.52691 23.5922 0.0249023 22.089 0.0249023 20.2291C0.0249023 18.3692 1.52691 16.866 3.38531 16.866H6.74572V20.2291Z" fill="#E01E5A"/>
<path d="M8.42627 20.2292C8.42627 18.3693 9.92826 16.8661 11.7866 16.8661C13.645 16.8661 15.147 18.3693 15.147 20.2292V28.6369C15.147 30.4968 13.645 32 11.7866 32C9.92826 32 8.42627 30.4968 8.42627 28.6369V20.2292Z" fill="#E01E5A"/>
<path d="M11.7867 6.72586C9.92826 6.72586 8.42627 5.22266 8.42627 3.36278C8.42627 1.50289 9.92826 -0.000305176 11.7867 -0.000305176C13.6451 -0.000305176 15.1471 1.50289 15.1471 3.36278V6.72586H11.7867Z" fill="#36C5F0"/>
<path d="M11.7866 8.43274C13.645 8.43274 15.147 9.93594 15.147 11.7958C15.147 13.6557 13.645 15.1589 11.7866 15.1589H3.36016C1.50175 15.1589 -0.000244141 13.6557 -0.000244141 11.7958C-0.000244141 9.93594 1.50175 8.43274 3.36016 8.43274H11.7866Z" fill="#36C5F0"/>
<path d="M25.2537 11.7958C25.2537 9.93587 26.7557 8.43268 28.6141 8.43268C30.4725 8.43268 31.9745 9.93587 31.9745 11.7958C31.9745 13.6556 30.4725 15.1588 28.6141 15.1588H25.2537V11.7958Z" fill="#2EB67D"/>
<path d="M23.5736 11.796C23.5736 13.6558 22.0716 15.159 20.2132 15.159C18.3548 15.159 16.8528 13.6558 16.8528 11.796V3.36278C16.8528 1.50289 18.3548 -0.000305176 20.2132 -0.000305176C22.0716 -0.000305176 23.5736 1.50289 23.5736 3.36278V11.796Z" fill="#2EB67D"/>
<path d="M20.2133 25.2735C22.0717 25.2735 23.5737 26.7767 23.5737 28.6366C23.5737 30.4965 22.0717 31.9997 20.2133 31.9997C18.3548 31.9997 16.8528 30.4965 16.8528 28.6366V25.2735H20.2133Z" fill="#ECB22E"/>
<path d="M20.2132 23.5922C18.3548 23.5922 16.8528 22.089 16.8528 20.2291C16.8528 18.3692 18.3548 16.866 20.2132 16.866H28.6397C30.4981 16.866 32.0001 18.3692 32.0001 20.2291C32.0001 22.089 30.4981 23.5922 28.6397 23.5922H20.2132Z" fill="#ECB22E"/>
</g>
</g>
<defs>
<clipPath id="clip0_823_17707">
<rect width="32" height="32" fill="white"/>
</clipPath>
</defs>
</svg>
