<svg width="120" height="48" viewBox="0 0 120 48" fill="none" xmlns="http://www.w3.org/2000/svg">
<g clip-path="url(#clip0_1125_20208)">
<path d="M84.5549 21.1087V33.7685H80.4766V19.1262L84.5549 21.1087Z" fill="#F37368"/>
<path d="M26.8354 31.4178L29.8942 34.08L42.7805 27.3678L41.4494 24.1674L26.8354 31.4178ZM80.4765 23.2611L90.8422 17.88L89.0863 14.8496L80.4765 19.1262V23.2611Z" fill="#F7A199"/>
<path d="M51.3053 20.1174V33.7684H47.3969V14.3115L51.3053 20.1174ZM26.8354 31.4178L29.8942 34.08L35.7851 19.3528L33.8875 14.3115L26.8354 31.4178Z" fill="#F37368"/>
<path d="M33.8875 14.3115H37.9091L45.3577 33.7684H41.2227L33.8875 14.3115ZM51.9 14.3115L60.4814 27.5943V33.7684L47.3968 14.3115H51.9ZM67.845 14.3115H71.895V33.7684H67.845V14.3115ZM80.4764 17.88H74.2457V14.3115H88.7747L90.8421 17.88H84.5548H80.4764Z" fill="#F04939"/>
<path d="M102.822 26.3765V33.7685H98.8005V26.3765" fill="#F7A199"/>
<path d="M105.598 14.3115L98.8005 26.3765H102.822L109.874 14.3115H105.598Z" fill="#F04939"/>
<path d="M98.8006 26.3765L91.7769 14.3115H96.195L100.925 22.5814L98.8006 26.3765Z" fill="#F37368"/>
<path d="M11.74 16.5773C11.74 19.2678 13.411 20.8822 16.753 21.7318L20.2932 22.5531C23.4652 23.2895 25.391 25.1021 25.391 28.0475C25.4194 29.322 24.9945 30.5681 24.2299 31.5877C24.2299 28.6423 22.7005 27.0563 19.047 26.0933L15.5635 25.3003C12.7596 24.6772 10.6072 23.1762 10.6072 19.9759C10.6072 18.758 11.0037 17.5402 11.74 16.5773Z" fill="#F04939"/>
<path d="M60.4814 26.6031V14.3115H64.3898V33.7684H60.4814V26.6031Z" fill="#F37368"/>
<path d="M22.0491 27.3111C23.5502 28.2741 24.2299 29.6335 24.2299 31.5877C22.9554 33.202 20.7746 34.08 18.1974 34.08C13.8642 34.08 10.7771 31.9276 10.1257 28.2174H14.289C14.8271 29.9167 16.2432 30.7097 18.1691 30.7097C20.4631 30.7381 22.0208 29.4919 22.0491 27.3111ZM13.9208 20.5706C12.5047 19.721 11.6834 18.1916 11.7401 16.5489C12.9579 14.9629 15.0537 14 17.6026 14C22.0491 14 24.5981 16.3507 25.2495 19.636H21.2278C20.7746 18.3332 19.6701 17.3136 17.6593 17.3136C15.4785 17.3419 14.0058 18.5881 13.9208 20.5706Z" fill="#F37368"/>
</g>
<defs>
<clipPath id="clip0_1125_20208">
<rect width="100" height="20.08" fill="white" transform="translate(10 14)"/>
</clipPath>
</defs>
</svg>
