<svg fill="none" height="400" viewBox="0 0 636 400" width="636" xmlns="http://www.w3.org/2000/svg" xmlns:xlink="http://www.w3.org/1999/xlink"><filter id="a" color-interpolation-filters="sRGB" filterUnits="userSpaceOnUse" height="336" width="572" x="32" y="36"><feFlood flood-opacity="0" result="BackgroundImageFix"/><feColorMatrix in="SourceAlpha" result="hardAlpha" type="matrix" values="0 0 0 0 0 0 0 0 0 0 0 0 0 0 0 0 0 0 127 0"/><feOffset dy="4"/><feGaussianBlur stdDeviation="4"/><feColorMatrix type="matrix" values="0 0 0 0 0.559444 0 0 0 0 0.559444 0 0 0 0 0.633333 0 0 0 0.16 0"/><feBlend in2="BackgroundImageFix" mode="normal" result="effect1_dropShadow_1850_2627"/><feBlend in="SourceGraphic" in2="effect1_dropShadow_1850_2627" mode="normal" result="shape"/></filter><linearGradient id="b"><stop offset="0" stop-color="#b4bed8"/><stop offset="1" stop-color="#c1c6d2" stop-opacity="0"/></linearGradient><linearGradient id="c" gradientUnits="userSpaceOnUse" x1="438.298" x2="438.298" xlink:href="#b" y1="65.3687" y2="169.358"/><linearGradient id="d" gradientUnits="userSpaceOnUse" x1="436.603" x2="436.603" xlink:href="#b" y1="200.38" y2="302.636"/><clipPath id="e"><path d="m334.386 79h207.824v117.466h-207.824z"/></clipPath><clipPath id="f"><path d="m334.386 204.372h207.824v117.466h-207.824z"/></clipPath><path d="m0 0h636v400h-636z" fill="#e3e9f1" fill-opacity=".5"/><g filter="url(#a)"><rect fill="#fff" height="320" rx="16" width="556" x="40" y="40"/></g><path d="m94.88 129.766 8.288-23.136h4.928l8.272 23.136h-4.656l-1.888-5.36h-8.32l-1.936 5.36zm7.664-9.44h6.16l-3.056-9.184zm25.922 9.76c-.821 0-1.531-.107-2.128-.32-.597-.214-1.104-.496-1.52-.848-.416-.363-.757-.763-1.024-1.2-.267-.438-.475-.886-.624-1.344l-.528 3.392h-3.392v-23.776h4.688v9.472c.203-.352.464-.683.784-.992.32-.31.693-.582 1.12-.816.427-.235.896-.416 1.408-.544.523-.139 1.077-.208 1.664-.208 2.059 0 3.669.741 4.832 2.224 1.173 1.482 1.76 3.573 1.76 6.272 0 1.749-.267 3.274-.8 4.576-.533 1.301-1.323 2.314-2.368 3.04-1.045.714-2.336 1.072-3.872 1.072zm-1.024-3.36c1.003 0 1.835-.411 2.496-1.232.672-.832 1.008-2.219 1.008-4.16 0-1.718-.32-2.987-.96-3.808-.629-.822-1.488-1.232-2.576-1.232-.779 0-1.424.186-1.936.56-.512.362-.896.917-1.152 1.664-.245.746-.373 1.685-.384 2.816 0 1.952.288 3.338.864 4.16.587.821 1.467 1.232 2.64 1.232zm18.287 3.36c-1.621 0-3.035-.347-4.24-1.04-1.195-.694-2.123-1.675-2.784-2.944-.651-1.27-.976-2.774-.976-4.512 0-1.739.325-3.259.976-4.56.661-1.302 1.589-2.315 2.784-3.04 1.205-.726 2.624-1.088 4.256-1.088s3.045.357 4.24 1.072c1.195.704 2.117 1.706 2.768 3.008.651 1.301.976 2.837.976 4.608 0 1.664-.32 3.136-.96 4.416-.629 1.269-1.541 2.266-2.736 2.992-1.184.725-2.619 1.088-4.304 1.088zm.016-3.472c.821 0 1.483-.24 1.984-.72s.864-1.11 1.088-1.888c.235-.79.352-1.648.352-2.576 0-.875-.107-1.702-.32-2.48-.203-.779-.555-1.408-1.056-1.888s-1.184-.72-2.048-.72c-.821 0-1.488.229-2 .688-.501.448-.869 1.061-1.104 1.84-.235.768-.352 1.621-.352 2.56 0 .864.107 1.696.32 2.496.213.789.571 1.434 1.072 1.936.501.501 1.189.752 2.064.752zm17.007 3.472c-.768 0-1.525-.118-2.272-.352-.736-.235-1.408-.582-2.016-1.04-.608-.459-1.098-1.024-1.472-1.696-.362-.672-.544-1.451-.544-2.336v-11.44h4.672v10.848c0 .768.251 1.397.752 1.888.502.49 1.238.736 2.208.736.918 0 1.643-.235 2.176-.704.544-.48.816-1.147.816-2v-10.768h4.624v16.544h-3.52l-.544-3.28c-.192.97-.554 1.717-1.088 2.24-.522.512-1.125.864-1.808 1.056-.672.202-1.333.304-1.984.304zm22.828-13.616h-3.68l.032 8.816c0 .405.048.709.144.912.107.192.267.32.48.384.224.053.507.08.848.08h2.224v2.88c-.213.096-.549.186-1.008.272-.448.085-1.077.128-1.888.128-1.451 0-2.576-.187-3.376-.56-.789-.374-1.339-.896-1.648-1.568s-.464-1.451-.464-2.336v-9.008h-2.688v-3.248h2.848l1.168-4.992h3.328v4.976h3.68zm16.329 13.616c-.768 0-1.526-.118-2.272-.352-.736-.235-1.408-.582-2.016-1.04-.608-.459-1.099-1.024-1.472-1.696-.363-.672-.544-1.451-.544-2.336v-11.44h4.672v10.848c0 .768.25 1.397.752 1.888.501.49 1.237.736 2.208.736.917 0 1.642-.235 2.176-.704.544-.48.816-1.147.816-2v-10.768h4.624v16.544h-3.52l-.544-3.28c-.192.97-.555 1.717-1.088 2.24-.523.512-1.126.864-1.808 1.056-.672.202-1.334.304-1.984.304zm19.291 0c-1.152 0-2.261-.187-3.328-.56-1.066-.384-1.968-.982-2.704-1.792-.736-.822-1.205-1.883-1.408-3.184h4.048c.139.586.39 1.05.752 1.392.374.341.795.586 1.264.736.47.138.918.208 1.344.208.896 0 1.616-.139 2.16-.416.555-.288.832-.726.832-1.312 0-.448-.165-.806-.496-1.072-.32-.267-.853-.47-1.6-.608l-2.912-.608c-1.461-.31-2.634-.832-3.52-1.568-.885-.747-1.338-1.803-1.36-3.168 0-.992.262-1.883.784-2.672.534-.79 1.318-1.414 2.352-1.872 1.035-.459 2.304-.688 3.808-.688 2.038 0 3.664.448 4.88 1.344 1.227.896 1.851 2.16 1.872 3.792h-3.904c-.117-.64-.437-1.131-.96-1.472-.512-.352-1.157-.528-1.936-.528-.81 0-1.477.144-2 .432-.522.288-.784.725-.784 1.312 0 .437.214.784.64 1.04.427.245 1.088.458 1.984.64l2.688.608c.928.224 1.68.533 2.256.928.587.384 1.04.805 1.36 1.264.32.458.539.922.656 1.392.128.458.192.874.192 1.248 0 1.098-.293 2.037-.88 2.816-.586.768-1.402 1.354-2.448 1.76-1.045.405-2.256.608-3.632.608z" fill="#475569"/><g stroke-linecap="round" stroke-width="4.51791"><path d="m95.1294 141.687h159.2566" stroke="#cbd5e1"/><path d="m95.1294 175.57h159.2566" stroke="#e2e8f0"/><path d="m95.1294 236.562h102.7826" stroke="#e2e8f0"/><path d="m95.1294 152.98h102.7826" stroke="#e2e8f0"/><path d="m95.1294 186.865h145.7026" stroke="#e2e8f0"/><path d="m95.1294 247.857h136.6666" stroke="#e2e8f0"/><path d="m95.1294 198.16h116.3356" stroke="#e2e8f0"/><path d="m95.1294 260.281h116.3356" stroke="#e2e8f0"/></g><rect fill="#8b3dff" height="18.0716" rx="4.51791" width="63.2507" x="94" y="284"/><path d="m95.1294 209.455h106.1706" stroke="#e2e8f0" stroke-linecap="round" stroke-width="4.51791"/><path d="m95.1294 271.576h106.1706" stroke="#e2e8f0" stroke-linecap="round" stroke-width="4.51791"/><g clip-path="url(#e)"><path d="m334.386 88.0358c0-4.9903 4.045-9.0358 9.036-9.0358h189.752c4.99 0 9.035 4.0455 9.035 9.0358v99.3942c0 4.99-4.045 9.036-9.035 9.036h-189.752c-4.991 0-9.036-4.046-9.036-9.036z" fill="#e2e8f0"/><path d="m417.484 102.489-83.098 66.869h207.823v-18.975l-35.769-26.438c-.542-.401-1.278-.413-1.832-.031l-37.369 25.715c-.633.436-1.488.352-2.024-.199l-45.612-46.813c-.568-.582-1.485-.638-2.119-.128z" fill="url(#c)"/><circle cx="475.006" cy="102.154" fill="#cbd5e1" r="12.989"/></g><g clip-path="url(#f)"><path d="m334.386 213.408c0-4.99 4.045-9.036 9.036-9.036h189.752c4.99 0 9.035 4.046 9.035 9.036v99.394c0 4.99-4.045 9.036-9.035 9.036h-189.752c-4.991 0-9.036-4.046-9.036-9.036z" fill="#e2e8f0"/><path d="m416.111 236.896-81.725 65.74h204.435v-18.659l-35.172-25.987c-.541-.4-1.277-.412-1.832-.031l-36.726 25.265c-.633.435-1.488.351-2.024-.199l-44.837-46.001c-.568-.582-1.485-.638-2.119-.128z" fill="url(#d)"/><ellipse cx="472.182" cy="236.562" fill="#cbd5e1" rx="12.4242" ry="12.989"/></g></svg>