<svg width="636" height="400" viewBox="0 0 636 400" fill="none" xmlns="http://www.w3.org/2000/svg">
<rect width="636" height="400" fill="#E3E9F1" fill-opacity="0.5"/>
<g filter="url(#filter0_d_2112_3179)">
<rect x="40" y="40" width="556" height="320" rx="16" fill="white"/>
</g>
<rect x="86.4173" y="148.417" width="132.691" height="151.766" rx="9.59712" fill="white" stroke="#E2E8F0" stroke-width="0.834532"/>
<path d="M86 158.014C86 152.484 90.4836 148 96.0144 148H209.511C215.042 148 219.525 152.484 219.525 158.014V214.763H86V158.014Z" fill="#E2E8F0"/>
<path d="M138.928 172.314L86 214.763H219.525V202.612L196.917 185.958C196.345 185.536 195.569 185.523 194.983 185.925L171.81 201.819C171.141 202.277 170.239 202.189 169.673 201.609L141.166 172.449C140.566 171.835 139.598 171.777 138.928 172.314Z" fill="url(#paint0_linear_2112_3179)"/>
<line x1="103.108" y1="257.741" x2="165.698" y2="257.741" stroke="#CBD5E1" stroke-width="4.17266" stroke-linecap="round"/>
<line x1="102.691" y1="269.842" x2="192.82" y2="269.842" stroke="#E2E8F0" stroke-width="3.33813" stroke-linecap="round"/>
<line x1="102.691" y1="279.856" x2="182.806" y2="279.856" stroke="#E2E8F0" stroke-width="3.33813" stroke-linecap="round"/>
<circle cx="176.13" cy="171.367" r="8.34532" fill="#CBD5E1"/>
<rect x="101" y="228" width="26.705" height="15.0216" rx="3.33813" fill="#B299FF"/>
<path d="M106.422 238V233.145H107.449V237.154H109.53V238H106.422ZM111.836 238.071C111.468 238.071 111.15 237.993 110.881 237.836C110.614 237.678 110.408 237.459 110.262 237.177C110.117 236.894 110.044 236.566 110.044 236.193C110.044 235.817 110.117 235.488 110.262 235.207C110.408 234.924 110.614 234.705 110.881 234.548C111.15 234.39 111.468 234.311 111.836 234.311C112.205 234.311 112.522 234.39 112.789 234.548C113.058 234.705 113.265 234.924 113.411 235.207C113.556 235.488 113.629 235.817 113.629 236.193C113.629 236.566 113.556 236.894 113.411 237.177C113.265 237.459 113.058 237.678 112.789 237.836C112.522 237.993 112.205 238.071 111.836 238.071ZM111.841 237.289C112.009 237.289 112.149 237.241 112.261 237.147C112.373 237.05 112.458 236.919 112.514 236.753C112.573 236.587 112.602 236.398 112.602 236.186C112.602 235.975 112.573 235.786 112.514 235.62C112.458 235.454 112.373 235.323 112.261 235.226C112.149 235.13 112.009 235.082 111.841 235.082C111.672 235.082 111.53 235.13 111.414 235.226C111.301 235.323 111.214 235.454 111.156 235.62C111.099 235.786 111.071 235.975 111.071 236.186C111.071 236.398 111.099 236.587 111.156 236.753C111.214 236.919 111.301 237.05 111.414 237.147C111.53 237.241 111.672 237.289 111.841 237.289ZM115.926 239.441C115.599 239.441 115.318 239.396 115.084 239.306C114.852 239.218 114.667 239.097 114.53 238.944C114.392 238.79 114.303 238.618 114.262 238.427L115.196 238.301C115.224 238.374 115.269 238.442 115.331 238.505C115.393 238.568 115.474 238.619 115.575 238.657C115.678 238.696 115.803 238.716 115.95 238.716C116.169 238.716 116.35 238.662 116.493 238.555C116.637 238.449 116.708 238.271 116.708 238.021V237.355H116.666C116.622 237.456 116.555 237.552 116.467 237.642C116.378 237.732 116.264 237.806 116.125 237.862C115.986 237.919 115.82 237.948 115.627 237.948C115.354 237.948 115.105 237.885 114.881 237.758C114.658 237.63 114.48 237.435 114.347 237.173C114.216 236.909 114.15 236.575 114.15 236.172C114.15 235.76 114.217 235.415 114.352 235.138C114.486 234.862 114.665 234.655 114.888 234.517C115.112 234.38 115.358 234.311 115.625 234.311C115.829 234.311 116 234.346 116.137 234.415C116.275 234.483 116.385 234.569 116.469 234.671C116.554 234.773 116.62 234.872 116.666 234.97H116.704V234.358H117.707V238.036C117.707 238.345 117.631 238.605 117.479 238.813C117.327 239.022 117.117 239.178 116.848 239.283C116.581 239.389 116.274 239.441 115.926 239.441ZM115.947 237.189C116.11 237.189 116.248 237.149 116.36 237.068C116.474 236.986 116.561 236.869 116.621 236.717C116.682 236.564 116.713 236.381 116.713 236.167C116.713 235.954 116.683 235.769 116.623 235.613C116.563 235.455 116.476 235.332 116.362 235.245C116.249 235.158 116.11 235.115 115.947 235.115C115.781 235.115 115.642 235.16 115.528 235.25C115.414 235.338 115.328 235.462 115.269 235.62C115.211 235.778 115.182 235.96 115.182 236.167C115.182 236.378 115.211 236.559 115.269 236.713C115.329 236.864 115.416 236.982 115.528 237.066C115.642 237.148 115.781 237.189 115.947 237.189ZM120.156 238.071C119.787 238.071 119.469 237.993 119.2 237.836C118.933 237.678 118.727 237.459 118.581 237.177C118.436 236.894 118.363 236.566 118.363 236.193C118.363 235.817 118.436 235.488 118.581 235.207C118.727 234.924 118.933 234.705 119.2 234.548C119.469 234.39 119.787 234.311 120.156 234.311C120.524 234.311 120.842 234.39 121.109 234.548C121.377 234.705 121.584 234.924 121.73 235.207C121.875 235.488 121.948 235.817 121.948 236.193C121.948 236.566 121.875 236.894 121.73 237.177C121.584 237.459 121.377 237.678 121.109 237.836C120.842 237.993 120.524 238.071 120.156 238.071ZM120.16 237.289C120.328 237.289 120.468 237.241 120.58 237.147C120.692 237.05 120.777 236.919 120.834 236.753C120.892 236.587 120.921 236.398 120.921 236.186C120.921 235.975 120.892 235.786 120.834 235.62C120.777 235.454 120.692 235.323 120.58 235.226C120.468 235.13 120.328 235.082 120.16 235.082C119.991 235.082 119.849 235.13 119.734 235.226C119.62 235.323 119.534 235.454 119.475 235.62C119.418 235.786 119.39 235.975 119.39 236.186C119.39 236.398 119.418 236.587 119.475 236.753C119.534 236.919 119.62 237.05 119.734 237.147C119.849 237.241 119.991 237.289 120.16 237.289Z" fill="#260B7A"/>
<g filter="url(#filter1_d_2112_3179)">
<rect x="251.943" y="148.417" width="132.691" height="151.766" rx="9.59712" fill="white" stroke="#E2E8F0" stroke-width="0.834532"/>
<path d="M251.525 158.014C251.525 152.484 256.009 148 261.54 148H375.036C380.567 148 385.051 152.484 385.051 158.014V214.763H251.525V158.014Z" fill="#E2E8F0"/>
<path d="M304.453 172.314L251.525 214.763H385.051V202.612L362.443 185.958C361.871 185.536 361.095 185.523 360.509 185.925L337.335 201.819C336.667 202.277 335.765 202.189 335.198 201.609L306.691 172.449C306.091 171.835 305.123 171.777 304.453 172.314Z" fill="url(#paint1_linear_2112_3179)"/>
<line x1="268.633" y1="257.741" x2="331.223" y2="257.741" stroke="#CBD5E1" stroke-width="4.17266" stroke-linecap="round"/>
<line x1="268.216" y1="269.842" x2="358.345" y2="269.842" stroke="#E2E8F0" stroke-width="3.33813" stroke-linecap="round"/>
<line x1="268.216" y1="279.856" x2="348.331" y2="279.856" stroke="#E2E8F0" stroke-width="3.33813" stroke-linecap="round"/>
<circle cx="341.655" cy="171.367" r="8.34532" fill="#CBD5E1"/>
<rect x="267" y="228" width="26.705" height="15.0216" rx="3.33813" fill="#6FDB93"/>
<path d="M272.422 238V233.145H273.449V237.154H275.53V238H272.422ZM277.836 238.071C277.468 238.071 277.15 237.993 276.881 237.836C276.614 237.678 276.408 237.459 276.262 237.177C276.117 236.894 276.044 236.566 276.044 236.193C276.044 235.817 276.117 235.488 276.262 235.207C276.408 234.924 276.614 234.705 276.881 234.548C277.15 234.39 277.468 234.311 277.836 234.311C278.205 234.311 278.522 234.39 278.789 234.548C279.058 234.705 279.265 234.924 279.411 235.207C279.556 235.488 279.629 235.817 279.629 236.193C279.629 236.566 279.556 236.894 279.411 237.177C279.265 237.459 279.058 237.678 278.789 237.836C278.522 237.993 278.205 238.071 277.836 238.071ZM277.841 237.289C278.009 237.289 278.149 237.241 278.261 237.147C278.373 237.05 278.458 236.919 278.514 236.753C278.573 236.587 278.602 236.398 278.602 236.186C278.602 235.975 278.573 235.786 278.514 235.62C278.458 235.454 278.373 235.323 278.261 235.226C278.149 235.13 278.009 235.082 277.841 235.082C277.672 235.082 277.53 235.13 277.414 235.226C277.301 235.323 277.214 235.454 277.156 235.62C277.099 235.786 277.071 235.975 277.071 236.186C277.071 236.398 277.099 236.587 277.156 236.753C277.214 236.919 277.301 237.05 277.414 237.147C277.53 237.241 277.672 237.289 277.841 237.289ZM281.926 239.441C281.599 239.441 281.318 239.396 281.084 239.306C280.852 239.218 280.667 239.097 280.53 238.944C280.392 238.79 280.303 238.618 280.262 238.427L281.196 238.301C281.224 238.374 281.269 238.442 281.331 238.505C281.393 238.568 281.474 238.619 281.575 238.657C281.678 238.696 281.803 238.716 281.95 238.716C282.169 238.716 282.35 238.662 282.493 238.555C282.637 238.449 282.708 238.271 282.708 238.021V237.355H282.666C282.622 237.456 282.555 237.552 282.467 237.642C282.378 237.732 282.264 237.806 282.125 237.862C281.986 237.919 281.82 237.948 281.627 237.948C281.354 237.948 281.105 237.885 280.881 237.758C280.658 237.63 280.48 237.435 280.347 237.173C280.216 236.909 280.15 236.575 280.15 236.172C280.15 235.76 280.217 235.415 280.352 235.138C280.486 234.862 280.665 234.655 280.888 234.517C281.112 234.38 281.358 234.311 281.625 234.311C281.829 234.311 282 234.346 282.137 234.415C282.275 234.483 282.385 234.569 282.469 234.671C282.554 234.773 282.62 234.872 282.666 234.97H282.704V234.358H283.707V238.036C283.707 238.345 283.631 238.605 283.479 238.813C283.327 239.022 283.117 239.178 282.848 239.283C282.581 239.389 282.274 239.441 281.926 239.441ZM281.947 237.189C282.11 237.189 282.248 237.149 282.36 237.068C282.474 236.986 282.561 236.869 282.621 236.717C282.682 236.564 282.713 236.381 282.713 236.167C282.713 235.954 282.683 235.769 282.623 235.613C282.563 235.455 282.476 235.332 282.362 235.245C282.249 235.158 282.11 235.115 281.947 235.115C281.781 235.115 281.642 235.16 281.528 235.25C281.414 235.338 281.328 235.462 281.269 235.62C281.211 235.778 281.182 235.96 281.182 236.167C281.182 236.378 281.211 236.559 281.269 236.713C281.329 236.864 281.416 236.982 281.528 237.066C281.642 237.148 281.781 237.189 281.947 237.189ZM286.156 238.071C285.787 238.071 285.469 237.993 285.2 237.836C284.933 237.678 284.727 237.459 284.581 237.177C284.436 236.894 284.363 236.566 284.363 236.193C284.363 235.817 284.436 235.488 284.581 235.207C284.727 234.924 284.933 234.705 285.2 234.548C285.469 234.39 285.787 234.311 286.156 234.311C286.524 234.311 286.842 234.39 287.109 234.548C287.377 234.705 287.584 234.924 287.73 235.207C287.875 235.488 287.948 235.817 287.948 236.193C287.948 236.566 287.875 236.894 287.73 237.177C287.584 237.459 287.377 237.678 287.109 237.836C286.842 237.993 286.524 238.071 286.156 238.071ZM286.16 237.289C286.328 237.289 286.468 237.241 286.58 237.147C286.692 237.05 286.777 236.919 286.834 236.753C286.892 236.587 286.921 236.398 286.921 236.186C286.921 235.975 286.892 235.786 286.834 235.62C286.777 235.454 286.692 235.323 286.58 235.226C286.468 235.13 286.328 235.082 286.16 235.082C285.991 235.082 285.849 235.13 285.734 235.226C285.62 235.323 285.534 235.454 285.475 235.62C285.418 235.786 285.39 235.975 285.39 236.186C285.39 236.398 285.418 236.587 285.475 236.753C285.534 236.919 285.62 237.05 285.734 237.147C285.849 237.241 285.991 237.289 286.16 237.289Z" fill="#04403C"/>
</g>
<rect x="417.468" y="148.417" width="132.691" height="151.766" rx="9.59712" fill="white" stroke="#E2E8F0" stroke-width="0.834532"/>
<path d="M417.051 158.014C417.051 152.484 421.534 148 427.065 148H540.562C546.092 148 550.576 152.484 550.576 158.014V214.763H417.051V158.014Z" fill="#E2E8F0"/>
<path d="M469.979 172.314L417.051 214.763H550.576V202.612L527.968 185.958C527.396 185.536 526.62 185.523 526.034 185.925L502.861 201.819C502.192 202.277 501.29 202.189 500.723 201.609L472.217 172.449C471.616 171.835 470.649 171.777 469.979 172.314Z" fill="url(#paint2_linear_2112_3179)"/>
<line x1="434.159" y1="257.741" x2="496.749" y2="257.741" stroke="#CBD5E1" stroke-width="4.17266" stroke-linecap="round"/>
<line x1="433.741" y1="269.842" x2="523.871" y2="269.842" stroke="#E2E8F0" stroke-width="3.33813" stroke-linecap="round"/>
<line x1="433.741" y1="279.856" x2="513.856" y2="279.856" stroke="#E2E8F0" stroke-width="3.33813" stroke-linecap="round"/>
<circle cx="507.18" cy="171.367" r="8.34532" fill="#CBD5E1"/>
<rect x="432" y="228" width="26.705" height="15.0216" rx="3.33813" fill="#FFE16A"/>
<path d="M437.422 238V233.145H438.449V237.154H440.53V238H437.422ZM442.836 238.071C442.468 238.071 442.15 237.993 441.881 237.836C441.614 237.678 441.408 237.459 441.262 237.177C441.117 236.894 441.044 236.566 441.044 236.193C441.044 235.817 441.117 235.488 441.262 235.207C441.408 234.924 441.614 234.705 441.881 234.548C442.15 234.39 442.468 234.311 442.836 234.311C443.205 234.311 443.522 234.39 443.789 234.548C444.058 234.705 444.265 234.924 444.411 235.207C444.556 235.488 444.629 235.817 444.629 236.193C444.629 236.566 444.556 236.894 444.411 237.177C444.265 237.459 444.058 237.678 443.789 237.836C443.522 237.993 443.205 238.071 442.836 238.071ZM442.841 237.289C443.009 237.289 443.149 237.241 443.261 237.147C443.373 237.05 443.458 236.919 443.514 236.753C443.573 236.587 443.602 236.398 443.602 236.186C443.602 235.975 443.573 235.786 443.514 235.62C443.458 235.454 443.373 235.323 443.261 235.226C443.149 235.13 443.009 235.082 442.841 235.082C442.672 235.082 442.53 235.13 442.414 235.226C442.301 235.323 442.214 235.454 442.156 235.62C442.099 235.786 442.071 235.975 442.071 236.186C442.071 236.398 442.099 236.587 442.156 236.753C442.214 236.919 442.301 237.05 442.414 237.147C442.53 237.241 442.672 237.289 442.841 237.289ZM446.926 239.441C446.599 239.441 446.318 239.396 446.084 239.306C445.852 239.218 445.667 239.097 445.53 238.944C445.392 238.79 445.303 238.618 445.262 238.427L446.196 238.301C446.224 238.374 446.269 238.442 446.331 238.505C446.393 238.568 446.474 238.619 446.575 238.657C446.678 238.696 446.803 238.716 446.95 238.716C447.169 238.716 447.35 238.662 447.493 238.555C447.637 238.449 447.708 238.271 447.708 238.021V237.355H447.666C447.622 237.456 447.555 237.552 447.467 237.642C447.378 237.732 447.264 237.806 447.125 237.862C446.986 237.919 446.82 237.948 446.627 237.948C446.354 237.948 446.105 237.885 445.881 237.758C445.658 237.63 445.48 237.435 445.347 237.173C445.216 236.909 445.15 236.575 445.15 236.172C445.15 235.76 445.217 235.415 445.352 235.138C445.486 234.862 445.665 234.655 445.888 234.517C446.112 234.38 446.358 234.311 446.625 234.311C446.829 234.311 447 234.346 447.137 234.415C447.275 234.483 447.385 234.569 447.469 234.671C447.554 234.773 447.62 234.872 447.666 234.97H447.704V234.358H448.707V238.036C448.707 238.345 448.631 238.605 448.479 238.813C448.327 239.022 448.117 239.178 447.848 239.283C447.581 239.389 447.274 239.441 446.926 239.441ZM446.947 237.189C447.11 237.189 447.248 237.149 447.36 237.068C447.474 236.986 447.561 236.869 447.621 236.717C447.682 236.564 447.713 236.381 447.713 236.167C447.713 235.954 447.683 235.769 447.623 235.613C447.563 235.455 447.476 235.332 447.362 235.245C447.249 235.158 447.11 235.115 446.947 235.115C446.781 235.115 446.642 235.16 446.528 235.25C446.414 235.338 446.328 235.462 446.269 235.62C446.211 235.778 446.182 235.96 446.182 236.167C446.182 236.378 446.211 236.559 446.269 236.713C446.329 236.864 446.416 236.982 446.528 237.066C446.642 237.148 446.781 237.189 446.947 237.189ZM451.156 238.071C450.787 238.071 450.469 237.993 450.2 237.836C449.933 237.678 449.727 237.459 449.581 237.177C449.436 236.894 449.363 236.566 449.363 236.193C449.363 235.817 449.436 235.488 449.581 235.207C449.727 234.924 449.933 234.705 450.2 234.548C450.469 234.39 450.787 234.311 451.156 234.311C451.524 234.311 451.842 234.39 452.109 234.548C452.377 234.705 452.584 234.924 452.73 235.207C452.875 235.488 452.948 235.817 452.948 236.193C452.948 236.566 452.875 236.894 452.73 237.177C452.584 237.459 452.377 237.678 452.109 237.836C451.842 237.993 451.524 238.071 451.156 238.071ZM451.16 237.289C451.328 237.289 451.468 237.241 451.58 237.147C451.692 237.05 451.777 236.919 451.834 236.753C451.892 236.587 451.921 236.398 451.921 236.186C451.921 235.975 451.892 235.786 451.834 235.62C451.777 235.454 451.692 235.323 451.58 235.226C451.468 235.13 451.328 235.082 451.16 235.082C450.991 235.082 450.849 235.13 450.734 235.226C450.62 235.323 450.534 235.454 450.475 235.62C450.418 235.786 450.39 235.975 450.39 236.186C450.39 236.398 450.418 236.587 450.475 236.753C450.534 236.919 450.62 237.05 450.734 237.147C450.849 237.241 450.991 237.289 451.16 237.289Z" fill="#7A4F01"/>
<path d="M243.016 87.544C244.755 87.544 246.301 87.896 247.656 88.6C249.021 89.2933 250.12 90.2427 250.952 91.448C251.795 92.6533 252.291 94.0133 252.44 95.528H247.544C247.395 94.728 247.123 94.0187 246.728 93.4C246.333 92.7707 245.816 92.28 245.176 91.928C244.536 91.5653 243.768 91.384 242.872 91.384C241.795 91.384 240.867 91.6453 240.088 92.168C239.309 92.6907 238.712 93.5333 238.296 94.696C237.88 95.8587 237.672 97.3947 237.672 99.304C237.672 102.184 238.131 104.269 239.048 105.56C239.976 106.84 241.251 107.48 242.872 107.48C243.768 107.48 244.536 107.277 245.176 106.872C245.816 106.456 246.333 105.912 246.728 105.24C247.123 104.557 247.395 103.811 247.544 103H252.44C252.301 104.099 252.035 105.149 251.64 106.152C251.245 107.144 250.685 108.029 249.96 108.808C249.235 109.587 248.301 110.2 247.16 110.648C246.019 111.096 244.637 111.32 243.016 111.32C240.861 111.32 239 110.819 237.432 109.816C235.864 108.813 234.653 107.405 233.8 105.592C232.957 103.779 232.536 101.661 232.536 99.24C232.536 96.808 232.957 94.7227 233.8 92.984C234.643 91.2347 235.848 89.8907 237.416 88.952C238.984 88.0133 240.851 87.544 243.016 87.544ZM260.331 111.32C259.275 111.32 258.326 111.123 257.483 110.728C256.641 110.333 255.974 109.763 255.483 109.016C254.993 108.259 254.747 107.341 254.747 106.264C254.747 104.451 255.425 103.075 256.779 102.136C258.134 101.187 260.273 100.696 263.195 100.664L265.259 100.632V99.64C265.259 98.8827 265.035 98.3013 264.587 97.896C264.15 97.48 263.467 97.2773 262.539 97.288C261.857 97.2987 261.206 97.4587 260.587 97.768C259.979 98.0773 259.563 98.616 259.339 99.384H255.451C255.515 98.1893 255.862 97.208 256.491 96.44C257.121 95.6613 257.974 95.0853 259.051 94.712C260.139 94.328 261.371 94.136 262.747 94.136C264.443 94.136 265.803 94.3493 266.827 94.776C267.851 95.192 268.593 95.7947 269.051 96.584C269.51 97.3627 269.739 98.2907 269.739 99.368V111H265.835L265.451 108.152C264.886 109.347 264.177 110.173 263.323 110.632C262.481 111.091 261.483 111.32 260.331 111.32ZM261.899 108.248C262.326 108.248 262.737 108.173 263.131 108.024C263.537 107.864 263.894 107.656 264.203 107.4C264.523 107.133 264.779 106.835 264.971 106.504C265.163 106.173 265.259 105.832 265.259 105.48V103.032L263.579 103.064C262.801 103.075 262.075 103.171 261.403 103.352C260.731 103.523 260.187 103.805 259.771 104.2C259.366 104.595 259.163 105.128 259.163 105.8C259.163 106.568 259.43 107.171 259.963 107.608C260.497 108.035 261.142 108.248 261.899 108.248ZM280.232 111.32C279.08 111.32 277.97 111.133 276.904 110.76C275.837 110.376 274.936 109.779 274.2 108.968C273.464 108.147 272.994 107.085 272.792 105.784H276.84C276.978 106.371 277.229 106.835 277.592 107.176C277.965 107.517 278.386 107.763 278.856 107.912C279.325 108.051 279.773 108.12 280.2 108.12C281.096 108.12 281.816 107.981 282.36 107.704C282.914 107.416 283.192 106.979 283.192 106.392C283.192 105.944 283.026 105.587 282.696 105.32C282.376 105.053 281.842 104.851 281.095 104.712L278.184 104.104C276.722 103.795 275.549 103.272 274.664 102.536C273.778 101.789 273.325 100.733 273.304 99.368C273.304 98.376 273.565 97.4853 274.088 96.696C274.621 95.9067 275.405 95.2827 276.44 94.824C277.474 94.3653 278.744 94.136 280.248 94.136C282.285 94.136 283.912 94.584 285.128 95.48C286.354 96.376 286.978 97.64 287 99.272H283.096C282.978 98.632 282.658 98.1413 282.136 97.8C281.624 97.448 280.978 97.272 280.2 97.272C279.389 97.272 278.722 97.416 278.2 97.704C277.677 97.992 277.416 98.4293 277.416 99.016C277.416 99.4533 277.629 99.8 278.056 100.056C278.482 100.301 279.144 100.515 280.04 100.696L282.728 101.304C283.656 101.528 284.408 101.837 284.984 102.232C285.57 102.616 286.024 103.037 286.344 103.496C286.664 103.955 286.882 104.419 287 104.888C287.128 105.347 287.192 105.763 287.192 106.136C287.192 107.235 286.898 108.173 286.312 108.952C285.725 109.72 284.909 110.307 283.864 110.712C282.818 111.117 281.608 111.32 280.232 111.32ZM294.309 103.8C294.298 104.643 294.431 105.379 294.709 106.008C294.986 106.627 295.386 107.107 295.909 107.448C296.442 107.779 297.082 107.944 297.829 107.944C298.629 107.944 299.327 107.773 299.925 107.432C300.533 107.091 300.954 106.531 301.189 105.752H305.397C305.215 106.925 304.746 107.928 303.989 108.76C303.242 109.592 302.335 110.227 301.269 110.664C300.202 111.101 299.093 111.32 297.941 111.32C296.309 111.32 294.869 110.979 293.621 110.296C292.383 109.603 291.418 108.627 290.725 107.368C290.031 106.109 289.685 104.627 289.685 102.92C289.685 101.267 289.999 99.7787 290.629 98.456C291.258 97.1227 292.17 96.072 293.365 95.304C294.57 94.5253 296.015 94.136 297.701 94.136C299.386 94.136 300.799 94.4933 301.941 95.208C303.093 95.912 303.957 96.8987 304.533 98.168C305.119 99.4267 305.413 100.883 305.413 102.536V103.8H294.309ZM294.293 101.016H301.045C301.045 100.355 300.922 99.7467 300.677 99.192C300.431 98.6373 300.058 98.2 299.557 97.88C299.066 97.56 298.447 97.4 297.701 97.4C296.975 97.4 296.357 97.576 295.845 97.928C295.343 98.2693 294.959 98.7173 294.693 99.272C294.426 99.8267 294.293 100.408 294.293 101.016ZM324.624 111.32C323.482 111.32 322.362 111.176 321.264 110.888C320.165 110.6 319.162 110.168 318.256 109.592C317.349 109.016 316.597 108.296 316 107.432C315.413 106.568 315.061 105.555 314.944 104.392H319.728C319.888 105.096 320.192 105.688 320.64 106.168C321.088 106.648 321.653 107.016 322.336 107.272C323.018 107.528 323.776 107.656 324.608 107.656C325.461 107.656 326.24 107.549 326.944 107.336C327.648 107.123 328.213 106.803 328.64 106.376C329.066 105.939 329.28 105.395 329.28 104.744C329.28 104.157 329.104 103.677 328.752 103.304C328.41 102.931 327.946 102.627 327.36 102.392C326.773 102.157 326.106 101.965 325.36 101.816L321.36 101C319.61 100.669 318.224 99.976 317.2 98.92C316.176 97.8533 315.648 96.4347 315.616 94.664C315.605 93.2133 315.989 91.96 316.768 90.904C317.557 89.8373 318.624 89.016 319.968 88.44C321.322 87.864 322.837 87.576 324.512 87.576C326.506 87.576 328.181 87.8907 329.536 88.52C330.901 89.1387 331.936 89.9813 332.64 91.048C333.354 92.104 333.722 93.2827 333.744 94.584H329.056C328.97 93.7733 328.725 93.128 328.32 92.648C327.914 92.168 327.392 91.8213 326.752 91.608C326.122 91.3947 325.402 91.288 324.592 91.288C323.973 91.288 323.408 91.3573 322.896 91.496C322.394 91.6347 321.968 91.832 321.616 92.088C321.264 92.3333 320.992 92.6267 320.8 92.968C320.608 93.3093 320.512 93.6933 320.512 94.12C320.512 94.792 320.736 95.336 321.184 95.752C321.632 96.168 322.469 96.5093 323.696 96.776L327.664 97.592C329.082 97.8693 330.208 98.28 331.04 98.824C331.882 99.368 332.512 99.9813 332.928 100.664C333.354 101.347 333.632 102.045 333.76 102.76C333.898 103.464 333.968 104.115 333.968 104.712C333.968 105.96 333.573 107.085 332.784 108.088C332.005 109.08 330.917 109.869 329.52 110.456C328.122 111.032 326.49 111.32 324.624 111.32ZM347.143 97.704H343.463L343.495 106.52C343.495 106.925 343.543 107.229 343.639 107.432C343.745 107.624 343.905 107.752 344.119 107.816C344.343 107.869 344.625 107.896 344.967 107.896H347.191V110.776C346.977 110.872 346.641 110.963 346.183 111.048C345.735 111.133 345.105 111.176 344.295 111.176C342.844 111.176 341.719 110.989 340.919 110.616C340.129 110.243 339.58 109.72 339.271 109.048C338.961 108.376 338.807 107.597 338.807 106.712V97.704H336.118V94.456H338.967L340.135 89.464H343.463V94.44H347.143V97.704ZM356.534 111.32C355.766 111.32 355.008 111.203 354.262 110.968C353.526 110.733 352.854 110.387 352.246 109.928C351.638 109.469 351.147 108.904 350.774 108.232C350.411 107.56 350.23 106.781 350.23 105.896V94.456H354.902V105.304C354.902 106.072 355.152 106.701 355.654 107.192C356.155 107.683 356.891 107.928 357.862 107.928C358.779 107.928 359.504 107.693 360.038 107.224C360.582 106.744 360.854 106.077 360.854 105.224V94.456H365.478V111H361.958L361.414 107.72C361.222 108.691 360.859 109.437 360.326 109.96C359.803 110.472 359.2 110.824 358.518 111.016C357.846 111.219 357.184 111.32 356.534 111.32ZM375.425 111.32C373.207 111.32 371.479 110.557 370.241 109.032C369.004 107.496 368.385 105.363 368.385 102.632C368.385 100.904 368.636 99.4053 369.137 98.136C369.639 96.8667 370.38 95.8853 371.361 95.192C372.343 94.488 373.543 94.136 374.961 94.136C375.559 94.136 376.113 94.2053 376.625 94.344C377.148 94.472 377.623 94.6533 378.049 94.888C378.476 95.1227 378.849 95.3947 379.169 95.704C379.489 96.0133 379.751 96.344 379.953 96.696V87.224H384.641V111H381.249L380.721 107.608C380.572 108.067 380.364 108.515 380.097 108.952C379.831 109.389 379.489 109.789 379.073 110.152C378.657 110.504 378.145 110.787 377.537 111C376.94 111.213 376.236 111.32 375.425 111.32ZM376.449 107.96C377.623 107.96 378.497 107.549 379.073 106.728C379.66 105.907 379.953 104.52 379.953 102.568C379.943 101.437 379.809 100.499 379.553 99.752C379.297 99.0053 378.913 98.4507 378.401 98.088C377.9 97.7147 377.26 97.528 376.481 97.528C375.468 97.528 374.625 97.9173 373.953 98.696C373.281 99.464 372.945 100.755 372.945 102.568C372.945 104.413 373.26 105.773 373.889 106.648C374.519 107.523 375.372 107.96 376.449 107.96ZM391.232 116.28C390.102 116.28 389.302 116.184 388.832 115.992C388.374 115.811 388.144 115.72 388.144 115.72V112.744L389.776 112.808C390.491 112.851 391.067 112.813 391.504 112.696C391.942 112.589 392.272 112.445 392.496 112.264C392.731 112.083 392.896 111.891 392.992 111.688C393.088 111.496 393.158 111.341 393.2 111.224L393.504 110.312L387.072 94.456H391.696L395.664 105.24L399.68 94.456H404.24L397.536 111.096C396.96 112.504 396.352 113.581 395.712 114.328C395.072 115.075 394.379 115.587 393.632 115.864C392.896 116.141 392.096 116.28 391.232 116.28Z" fill="#475569"/>
<defs>
<filter id="filter0_d_2112_3179" x="32" y="36" width="572" height="336" filterUnits="userSpaceOnUse" color-interpolation-filters="sRGB">
<feFlood flood-opacity="0" result="BackgroundImageFix"/>
<feColorMatrix in="SourceAlpha" type="matrix" values="0 0 0 0 0 0 0 0 0 0 0 0 0 0 0 0 0 0 127 0" result="hardAlpha"/>
<feOffset dy="4"/>
<feGaussianBlur stdDeviation="4"/>
<feColorMatrix type="matrix" values="0 0 0 0 0.559444 0 0 0 0 0.559444 0 0 0 0 0.633333 0 0 0 0.16 0"/>
<feBlend mode="normal" in2="BackgroundImageFix" result="effect1_dropShadow_2112_3179"/>
<feBlend mode="normal" in="SourceGraphic" in2="effect1_dropShadow_2112_3179" result="shape"/>
</filter>
<filter id="filter1_d_2112_3179" x="244.849" y="142.993" width="146.878" height="165.953" filterUnits="userSpaceOnUse" color-interpolation-filters="sRGB">
<feFlood flood-opacity="0" result="BackgroundImageFix"/>
<feColorMatrix in="SourceAlpha" type="matrix" values="0 0 0 0 0 0 0 0 0 0 0 0 0 0 0 0 0 0 127 0" result="hardAlpha"/>
<feOffset dy="1.66906"/>
<feGaussianBlur stdDeviation="3.33813"/>
<feColorMatrix type="matrix" values="0 0 0 0 0.559444 0 0 0 0 0.559444 0 0 0 0 0.633333 0 0 0 0.24 0"/>
<feBlend mode="normal" in2="BackgroundImageFix" result="effect1_dropShadow_2112_3179"/>
<feBlend mode="normal" in="SourceGraphic" in2="effect1_dropShadow_2112_3179" result="shape"/>
</filter>
<linearGradient id="paint0_linear_2112_3179" x1="152.763" y1="148.173" x2="152.763" y2="214.763" gradientUnits="userSpaceOnUse">
<stop stop-color="#B4BED8"/>
<stop offset="1" stop-color="#C1C6D2" stop-opacity="0"/>
</linearGradient>
<linearGradient id="paint1_linear_2112_3179" x1="318.288" y1="148.173" x2="318.288" y2="214.763" gradientUnits="userSpaceOnUse">
<stop stop-color="#B4BED8"/>
<stop offset="1" stop-color="#C1C6D2" stop-opacity="0"/>
</linearGradient>
<linearGradient id="paint2_linear_2112_3179" x1="483.813" y1="148.173" x2="483.813" y2="214.763" gradientUnits="userSpaceOnUse">
<stop stop-color="#B4BED8"/>
<stop offset="1" stop-color="#C1C6D2" stop-opacity="0"/>
</linearGradient>
</defs>
</svg>
