<svg fill="none" height="400" viewBox="0 0 636 400" width="636" xmlns="http://www.w3.org/2000/svg" xmlns:xlink="http://www.w3.org/1999/xlink"><filter id="a" color-interpolation-filters="sRGB" filterUnits="userSpaceOnUse" height="336" width="572" x="32" y="36"><feFlood flood-opacity="0" result="BackgroundImageFix"/><feColorMatrix in="SourceAlpha" result="hardAlpha" type="matrix" values="0 0 0 0 0 0 0 0 0 0 0 0 0 0 0 0 0 0 127 0"/><feOffset dy="4"/><feGaussianBlur stdDeviation="4"/><feColorMatrix type="matrix" values="0 0 0 0 0.559444 0 0 0 0 0.559444 0 0 0 0 0.633333 0 0 0 0.16 0"/><feBlend in2="BackgroundImageFix" mode="normal" result="effect1_dropShadow_1850_2449"/><feBlend in="SourceGraphic" in2="effect1_dropShadow_1850_2449" mode="normal" result="shape"/></filter><path d="m0 0h636v400h-636z" fill="#e3e9f1" fill-opacity=".5"/><g filter="url(#a)"><rect fill="#fff" height="320" rx="16" width="556" x="40" y="40"/></g><path d="m253.155 111.864h15.744l-.016 3.904h-11.024v5.808h9.552v3.824h-9.552v9.6h-4.704zm22.216 15.936c-.01.843.123 1.579.4 2.208.278.619.678 1.099 1.2 1.44.534.331 1.174.496 1.92.496.8 0 1.499-.171 2.096-.512.608-.341 1.03-.901 1.264-1.68h4.208c-.181 1.173-.65 2.176-1.408 3.008-.746.832-1.653 1.467-2.72 1.904-1.066.437-2.176.656-3.328.656-1.632 0-3.072-.341-4.32-1.024-1.237-.693-2.202-1.669-2.896-2.928-.693-1.259-1.04-2.741-1.04-4.448 0-1.653.315-3.141.944-4.464.63-1.333 1.542-2.384 2.736-3.152 1.206-.779 2.651-1.168 4.336-1.168 1.686 0 3.099.357 4.24 1.072 1.152.704 2.016 1.691 2.592 2.96.587 1.259.88 2.715.88 4.368v1.264zm-.016-2.784h6.752c0-.661-.122-1.269-.368-1.824-.245-.555-.618-.992-1.12-1.312-.49-.32-1.109-.48-1.856-.48-.725 0-1.344.176-1.856.528-.501.341-.885.789-1.152 1.344-.266.555-.4 1.136-.4 1.744zm19.07 10.304c-1.056 0-2.005-.197-2.848-.592s-1.509-.965-2-1.712c-.491-.757-.736-1.675-.736-2.752 0-1.813.677-3.189 2.032-4.128 1.355-.949 3.493-1.44 6.416-1.472l2.064-.032v-.992c0-.757-.224-1.339-.672-1.744-.437-.416-1.12-.619-2.048-.608-.683.011-1.333.171-1.952.48-.608.309-1.024.848-1.248 1.616h-3.888c.064-1.195.411-2.176 1.04-2.944.629-.779 1.483-1.355 2.56-1.728 1.088-.384 2.32-.576 3.696-.576 1.696 0 3.056.213 4.08.64 1.024.416 1.765 1.019 2.224 1.808.459.779.688 1.707.688 2.784v11.632h-3.904l-.384-2.848c-.565 1.195-1.275 2.021-2.128 2.48-.843.459-1.84.688-2.992.688zm1.568-3.072c.427 0 .837-.075 1.232-.224.405-.16.763-.368 1.072-.624.32-.267.576-.565.768-.896s.288-.672.288-1.024v-2.448l-1.68.032c-.779.011-1.504.107-2.176.288-.672.171-1.216.453-1.632.848-.405.395-.608.928-.608 1.6 0 .768.267 1.371.8 1.808.533.427 1.179.64 1.936.64zm21.337-10.544h-3.68l.032 8.816c0 .405.048.709.144.912.107.192.267.32.48.384.224.053.507.08.848.08h2.224v2.88c-.213.096-.549.187-1.008.272-.448.085-1.077.128-1.888.128-1.451 0-2.576-.187-3.376-.56-.789-.373-1.339-.896-1.648-1.568s-.464-1.451-.464-2.336v-9.008h-2.688v-3.248h2.848l1.168-4.992h3.328v4.976h3.68zm9.391 13.616c-.768 0-1.525-.117-2.272-.352-.736-.235-1.408-.581-2.016-1.04s-1.099-1.024-1.472-1.696c-.363-.672-.544-1.451-.544-2.336v-11.44h4.672v10.848c0 .768.251 1.397.752 1.888s1.237.736 2.208.736c.917 0 1.643-.235 2.176-.704.544-.48.816-1.147.816-2v-10.768h4.624v16.544h-3.52l-.544-3.28c-.192.971-.555 1.717-1.088 2.24-.523.512-1.125.864-1.808 1.056-.672.203-1.333.304-1.984.304zm12.841-.32v-16.544h4.497v3.92c.266-.843.64-1.579 1.12-2.208.49-.64 1.082-1.136 1.776-1.488.693-.363 1.477-.544 2.352-.544.149 0 .288.011.416.032.138.011.24.032.304.064v4.448c-.096-.043-.214-.069-.352-.08-.128-.011-.246-.021-.352-.032-.918-.075-1.702-.048-2.353.08-.65.128-1.178.347-1.583.656-.406.309-.699.688-.88 1.136-.182.448-.272.949-.272 1.504v9.056zm16.778-7.2c-.011.843.123 1.579.4 2.208.277.619.677 1.099 1.2 1.44.533.331 1.173.496 1.92.496.8 0 1.499-.171 2.096-.512.608-.341 1.029-.901 1.264-1.68h4.208c-.181 1.173-.651 2.176-1.408 3.008-.747.832-1.653 1.467-2.72 1.904s-2.176.656-3.328.656c-1.632 0-3.072-.341-4.32-1.024-1.237-.693-2.203-1.669-2.896-2.928s-1.04-2.741-1.04-4.448c0-1.653.315-3.141.944-4.464.629-1.333 1.541-2.384 2.736-3.152 1.205-.779 2.651-1.168 4.336-1.168s3.099.357 4.24 1.072c1.152.704 2.016 1.691 2.592 2.96.587 1.259.88 2.715.88 4.368v1.264zm-.016-2.784h6.752c0-.661-.123-1.269-.368-1.824s-.619-.992-1.12-1.312c-.491-.32-1.109-.48-1.856-.48-.725 0-1.344.176-1.856.528-.501.341-.885.789-1.152 1.344s-.4 1.136-.4 1.744zm20.876 10.304c-1.152 0-2.261-.187-3.328-.56-1.066-.384-1.968-.981-2.704-1.792-.736-.821-1.205-1.883-1.408-3.184h4.048c.139.587.39 1.051.752 1.392.374.341.795.587 1.264.736.47.139.918.208 1.344.208.896 0 1.616-.139 2.16-.416.555-.288.832-.725.832-1.312 0-.448-.165-.805-.496-1.072-.32-.267-.853-.469-1.6-.608l-2.912-.608c-1.461-.309-2.634-.832-3.52-1.568-.885-.747-1.338-1.803-1.36-3.168 0-.992.262-1.883.784-2.672.534-.789 1.318-1.413 2.352-1.872 1.035-.459 2.304-.688 3.808-.688 2.038 0 3.664.448 4.88 1.344 1.227.896 1.851 2.16 1.872 3.792h-3.904c-.117-.64-.437-1.131-.96-1.472-.512-.352-1.157-.528-1.936-.528-.81 0-1.477.144-2 .432-.522.288-.784.725-.784 1.312 0 .437.214.784.64 1.04.427.245 1.088.459 1.984.64l2.688.608c.928.224 1.68.533 2.256.928.587.384 1.04.805 1.36 1.264s.539.923.656 1.392c.128.459.192.875.192 1.248 0 1.099-.293 2.037-.88 2.816-.586.768-1.402 1.355-2.448 1.76-1.045.405-2.256.608-3.632.608z" fill="#475569"/><path d="m230.5 153h175" stroke="#cbd5e1" stroke-linecap="round" stroke-width="4"/><path d="m246 164h144" stroke="#e2e8f0" stroke-linecap="round" stroke-width="4"/><rect fill="#8b3dff" height="35.0003" rx="5.25005" width="35.0003" x="78" y="187"/><path d="m100.698 199.198c.246-.235.574-.365.915-.362.34.003.666.137.909.376.243.238.384.562.393.902s-.115.67-.345.921l-6.9824 8.733c-.1201.129-.265.233-.4261.305s-.335.111-.5115.114c-.1764.003-.3517-.029-.5153-.095-.1637-.066-.3123-.164-.4371-.289l-4.6306-4.631c-.1289-.12-.2323-.265-.3041-.426-.0717-.161-.1103-.334-.1134-.511-.0031-.176.0293-.351.0953-.514.066-.164.1643-.312.2889-.437.1247-.125.2731-.223.4365-.289.1635-.066.3385-.098.5148-.095.1762.003.35.042.511.113.161.072.3059.175.4261.304l3.6645 3.663 6.0774-7.744c.011-.013.023-.026.035-.038z" fill="#f2efff"/><g stroke-linecap="round" stroke-width="5.71429"><path d="m78 237.715h100" stroke="#cbd5e1"/><path d="m78 253.429 111.429 1.428" stroke="#e2e8f0"/><path d="m78 270.571h81.429" stroke="#e2e8f0"/><path d="m78 286.286h55.714" stroke="#e2e8f0"/></g><rect fill="#8b3dff" height="35" rx="5.25" width="35" x="262.286" y="187"/><path d="m284.983 199.198c.247-.235.575-.365.915-.362s.666.137.909.376c.243.238.384.561.393.902.009.34-.114.67-.344.921l-6.983 8.733c-.12.129-.265.233-.426.305s-.335.111-.511.114c-.177.003-.352-.029-.516-.095-.163-.066-.312-.164-.437-.289l-4.63-4.631c-.129-.12-.233-.265-.305-.426-.071-.161-.11-.335-.113-.511s.029-.351.095-.514c.066-.164.165-.312.289-.437.125-.125.273-.223.437-.289.163-.066.338-.098.515-.095.176.003.35.041.511.113s.305.175.426.304l3.664 3.663 6.078-7.744c.011-.013.022-.026.035-.038z" fill="#f2efff"/><path d="m262.286 237.714h100" stroke="#cbd5e1" stroke-linecap="round" stroke-width="5.71429"/><path d="m262.286 253.429 111.428 1.428" stroke="#e2e8f0" stroke-linecap="round" stroke-width="5.71429"/><path d="m262.286 270.571h81.428" stroke="#e2e8f0" stroke-linecap="round" stroke-width="5.71429"/><path d="m262.286 286.286h55.714" stroke="#e2e8f0" stroke-linecap="round" stroke-width="5.71429"/><rect fill="#8b3dff" height="35" rx="5.25" width="35" x="446.571" y="187"/><path d="m469.269 199.198c.246-.235.574-.365.915-.362.34.003.666.137.909.376.243.238.384.561.393.902.009.34-.115.67-.345.921l-6.982 8.733c-.12.129-.265.233-.426.305s-.335.111-.512.114c-.176.003-.351-.029-.515-.095s-.312-.164-.437-.289l-4.631-4.631c-.129-.12-.232-.265-.304-.426s-.11-.335-.113-.511.029-.351.095-.514c.066-.164.164-.312.289-.437s.273-.223.437-.289c.163-.066.338-.098.514-.095s.35.041.511.113.306.175.426.304l3.665 3.663 6.078-7.744c.011-.013.022-.026.035-.038z" fill="#f2efff"/><path d="m446.571 237.714h100" stroke="#cbd5e1" stroke-linecap="round" stroke-width="5.71429"/><path d="m446.571 253.429 111.429 1.428" stroke="#e2e8f0" stroke-linecap="round" stroke-width="5.71429"/><path d="m446.571 270.571h81.429" stroke="#e2e8f0" stroke-linecap="round" stroke-width="5.71429"/><path d="m446.571 286.286h55.715" stroke="#e2e8f0" stroke-linecap="round" stroke-width="5.71429"/></svg>