<svg fill="none" height="400" viewBox="0 0 636 400" width="636" xmlns="http://www.w3.org/2000/svg" xmlns:xlink="http://www.w3.org/1999/xlink"><filter id="a" color-interpolation-filters="sRGB" filterUnits="userSpaceOnUse" height="332" width="568" x="34" y="37"><feFlood flood-opacity="0" result="BackgroundImageFix"/><feColorMatrix in="SourceAlpha" result="hardAlpha" type="matrix" values="0 0 0 0 0 0 0 0 0 0 0 0 0 0 0 0 0 0 127 0"/><feOffset dy="3"/><feGaussianBlur stdDeviation="3"/><feColorMatrix type="matrix" values="0 0 0 0 0.0117647 0 0 0 0 0 0 0 0 0 0.278431 0 0 0 0.1 0"/><feBlend in2="BackgroundImageFix" mode="normal" result="effect1_dropShadow_1852_2835"/><feBlend in="SourceGraphic" in2="effect1_dropShadow_1852_2835" mode="normal" result="shape"/></filter><path d="m0 0h636v400h-636z" fill="#e3e9f1" fill-opacity=".5"/><g filter="url(#a)"><rect fill="#fff" height="320" rx="16" width="556" x="40" y="40"/></g><path d="m88.376 150.827h-10.128v9.936h-4.656v-23.136h4.656v9.28h10.128v-9.28h4.672v23.136h-4.672zm12.652 2.736c-.011.842.122 1.578.4 2.208.277.618.677 1.098 1.2 1.44.533.33 1.173.496 1.92.496.8 0 1.498-.171 2.096-.512.608-.342 1.029-.902 1.264-1.68h4.208c-.182 1.173-.651 2.176-1.408 3.008-.747.832-1.654 1.466-2.72 1.904-1.067.437-2.176.656-3.328.656-1.632 0-3.072-.342-4.32-1.024-1.2378-.694-2.2032-1.67-2.8965-2.928-.6933-1.259-1.04-2.742-1.04-4.448 0-1.654.3147-3.142.944-4.464.6293-1.334 1.5413-2.384 2.7365-3.152 1.205-.779 2.65-1.168 4.336-1.168 1.685 0 3.098.357 4.24 1.072 1.152.704 2.016 1.69 2.592 2.96.586 1.258.88 2.714.88 4.368v1.264zm-.016-2.784h6.752c0-.662-.123-1.27-.368-1.824-.246-.555-.619-.992-1.12-1.312-.491-.32-1.11-.48-1.856-.48-.726 0-1.344.176-1.856.528-.502.341-.886.789-1.152 1.344-.267.554-.4 1.136-.4 1.744zm14.363 9.984v-16.544h4.496v3.92c.267-.843.64-1.579 1.12-2.208.491-.64 1.083-1.136 1.776-1.488.693-.363 1.477-.544 2.352-.544.149 0 .288.01.416.032.139.01.24.032.304.064v4.448c-.096-.043-.213-.07-.352-.08-.128-.011-.245-.022-.352-.032-.917-.075-1.701-.048-2.352.08s-1.179.346-1.584.656c-.405.309-.699.688-.88 1.136s-.272.949-.272 1.504v9.056zm20.042.32c-1.622 0-3.035-.347-4.24-1.04-1.195-.694-2.123-1.675-2.784-2.944-.651-1.27-.976-2.774-.976-4.512 0-1.739.325-3.259.976-4.56.661-1.302 1.589-2.315 2.784-3.04 1.205-.726 2.624-1.088 4.256-1.088s3.045.357 4.24 1.072c1.194.704 2.117 1.706 2.768 3.008.65 1.301.976 2.837.976 4.608 0 1.664-.32 3.136-.96 4.416-.63 1.269-1.542 2.266-2.736 2.992-1.184.725-2.619 1.088-4.304 1.088zm.016-3.472c.821 0 1.482-.24 1.984-.72.501-.48.864-1.11 1.088-1.888.234-.79.352-1.648.352-2.576 0-.875-.107-1.702-.32-2.48-.203-.779-.555-1.408-1.056-1.888-.502-.48-1.184-.72-2.048-.72-.822 0-1.488.229-2 .688-.502.448-.87 1.061-1.104 1.84-.235.768-.352 1.621-.352 2.56 0 .864.106 1.696.32 2.496.213.789.57 1.434 1.072 1.936.501.501 1.189.752 2.064.752zm27.066 3.472c-1.142 0-2.262-.144-3.36-.432-1.099-.288-2.102-.72-3.008-1.296-.907-.576-1.659-1.296-2.256-2.16-.587-.864-.939-1.878-1.056-3.04h4.784c.16.704.464 1.296.912 1.776s1.013.848 1.696 1.104c.682.256 1.44.384 2.272.384.853 0 1.632-.107 2.336-.32.704-.214 1.269-.534 1.696-.96.426-.438.64-.982.64-1.632 0-.587-.176-1.067-.528-1.44-.342-.374-.806-.678-1.392-.912-.587-.235-1.254-.427-2-.576l-4-.816c-1.75-.331-3.136-1.024-4.16-2.08-1.024-1.067-1.552-2.486-1.584-4.256-.011-1.451.373-2.704 1.152-3.76.789-1.067 1.856-1.888 3.2-2.464 1.354-.576 2.869-.864 4.544-.864 1.994 0 3.669.314 5.024.944 1.365.618 2.4 1.461 3.104 2.528.714 1.056 1.082 2.234 1.104 3.536h-4.688c-.086-.811-.331-1.456-.736-1.936-.406-.48-.928-.827-1.568-1.04-.63-.214-1.35-.32-2.16-.32-.619 0-1.184.069-1.696.208-.502.138-.928.336-1.28.592-.352.245-.624.538-.816.88-.192.341-.288.725-.288 1.152 0 .672.224 1.216.672 1.632s1.285.757 2.512 1.024l3.968.816c1.418.277 2.544.688 3.376 1.232.842.544 1.472 1.157 1.888 1.84.426.682.704 1.381.832 2.096.138.704.208 1.354.208 1.952 0 1.248-.395 2.373-1.184 3.376-.779.992-1.867 1.781-3.264 2.368-1.398.576-3.03.864-4.896.864zm16.56-7.52c-.011.842.122 1.578.4 2.208.277.618.677 1.098 1.2 1.44.533.33 1.173.496 1.92.496.8 0 1.498-.171 2.096-.512.608-.342 1.029-.902 1.264-1.68h4.208c-.182 1.173-.651 2.176-1.408 3.008-.747.832-1.654 1.466-2.72 1.904-1.067.437-2.176.656-3.328.656-1.632 0-3.072-.342-4.32-1.024-1.238-.694-2.203-1.67-2.896-2.928-.694-1.259-1.04-2.742-1.04-4.448 0-1.654.314-3.142.944-4.464.629-1.334 1.541-2.384 2.736-3.152 1.205-.779 2.65-1.168 4.336-1.168 1.685 0 3.098.357 4.24 1.072 1.152.704 2.016 1.69 2.592 2.96.586 1.258.88 2.714.88 4.368v1.264zm-.016-2.784h6.752c0-.662-.123-1.27-.368-1.824-.246-.555-.619-.992-1.12-1.312-.491-.32-1.11-.48-1.856-.48-.726 0-1.344.176-1.856.528-.502.341-.886.789-1.152 1.344-.267.554-.4 1.136-.4 1.744zm21.451-6.88c1.387 0 2.582.282 3.584.848 1.014.565 1.808 1.328 2.384 2.288.587.96.923 2.032 1.008 3.216h-3.888c-.074-.438-.229-.87-.464-1.296-.234-.438-.565-.795-.992-1.072-.426-.288-.96-.432-1.6-.432-1.088 0-1.973.421-2.656 1.264-.672.832-1.008 2.101-1.008 3.808 0 1.61.331 2.89.992 3.84.662.938 1.584 1.408 2.768 1.408.63 0 1.152-.155 1.568-.464.427-.31.758-.678.992-1.104.235-.438.384-.843.448-1.216h3.792c-.074 1.141-.405 2.176-.992 3.104-.586.917-1.386 1.648-2.4 2.192-1.002.533-2.181.8-3.536.8-1.536 0-2.906-.342-4.112-1.024-1.205-.683-2.154-1.659-2.848-2.928-.682-1.28-1.024-2.806-1.024-4.576 0-1.707.331-3.211.992-4.512.662-1.302 1.59-2.315 2.784-3.04 1.206-.736 2.608-1.104 4.208-1.104zm19.742 3.568h-3.68l.032 8.816c0 .405.048.709.144.912.107.192.267.32.48.384.224.053.507.08.848.08h2.224v2.88c-.213.096-.549.186-1.008.272-.448.085-1.077.128-1.888.128-1.45 0-2.576-.187-3.376-.56-.789-.374-1.338-.896-1.648-1.568-.309-.672-.464-1.451-.464-2.336v-9.008h-2.688v-3.248h2.848l1.168-4.992h3.328v4.976h3.68zm8.156-3.248v16.544h-4.464v-16.544zm.048-6.576v4.208h-4.544v-4.208zm11.289 23.44c-1.621 0-3.035-.347-4.24-1.04-1.195-.694-2.123-1.675-2.784-2.944-.651-1.27-.976-2.774-.976-4.512 0-1.739.325-3.259.976-4.56.661-1.302 1.589-2.315 2.784-3.04 1.205-.726 2.624-1.088 4.256-1.088s3.045.357 4.24 1.072c1.195.704 2.117 1.706 2.768 3.008.651 1.301.976 2.837.976 4.608 0 1.664-.32 3.136-.96 4.416-.629 1.269-1.541 2.266-2.736 2.992-1.184.725-2.619 1.088-4.304 1.088zm.016-3.472c.821 0 1.483-.24 1.984-.72s.864-1.11 1.088-1.888c.235-.79.352-1.648.352-2.576 0-.875-.107-1.702-.32-2.48-.203-.779-.555-1.408-1.056-1.888s-1.184-.72-2.048-.72c-.821 0-1.488.229-2 .688-.501.448-.869 1.061-1.104 1.84-.235.768-.352 1.621-.352 2.56 0 .864.107 1.696.32 2.496.213.789.571 1.434 1.072 1.936.501.501 1.189.752 2.064.752zm11.099 3.152v-16.544h4.592v2.336c.256-.406.586-.795.992-1.168.416-.384.938-.699 1.568-.944.629-.246 1.376-.368 2.24-.368 1.013 0 1.957.197 2.832.592.885.394 1.6 1.018 2.144 1.872.544.842.816 1.946.816 3.312v10.912h-4.672v-10.336c0-.896-.267-1.568-.8-2.016-.534-.448-1.184-.672-1.952-.672-.512 0-1.008.09-1.488.272-.47.181-.854.453-1.152.816-.299.362-.448.81-.448 1.344v10.592z" fill="#475569"/><rect fill="#cbd5e1" height="8" rx="4" width="191" x="71" y="180.763"/><rect fill="#d3dbe4" height="8" rx="4" width="169" x="71" y="194.763"/><rect fill="#f1f5f9" height="8" rx="4" width="147" x="71" y="208.763"/><rect fill="#f8fafc" height="8" rx="4" width="115" x="71" y="222.763"/><rect fill="#8b3dff" height="20.4755" rx="5.11888" width="71.6643" x="71" y="246.763"/><rect fill="#f1f5f9" height="183" rx="15.3566" width="254.664" x="309.485" y="109"/></svg>