<svg fill="none" height="400" viewBox="0 0 636 400" width="636" xmlns="http://www.w3.org/2000/svg" xmlns:xlink="http://www.w3.org/1999/xlink"><filter id="a" color-interpolation-filters="sRGB" filterUnits="userSpaceOnUse" height="336" width="572" x="32" y="36"><feFlood flood-opacity="0" result="BackgroundImageFix"/><feColorMatrix in="SourceAlpha" result="hardAlpha" type="matrix" values="0 0 0 0 0 0 0 0 0 0 0 0 0 0 0 0 0 0 127 0"/><feOffset dy="4"/><feGaussianBlur stdDeviation="4"/><feColorMatrix type="matrix" values="0 0 0 0 0.559444 0 0 0 0 0.559444 0 0 0 0 0.633333 0 0 0 0.16 0"/><feBlend in2="BackgroundImageFix" mode="normal" result="effect1_dropShadow_1850_2728"/><feBlend in="SourceGraphic" in2="effect1_dropShadow_1850_2728" mode="normal" result="shape"/></filter><linearGradient id="b"><stop offset="0" stop-color="#b4bed8"/><stop offset="1" stop-color="#c1c6d2" stop-opacity="0"/></linearGradient><linearGradient id="c" gradientUnits="userSpaceOnUse" x1="156.14" x2="156.14" xlink:href="#b" y1="206.023" y2="288.814"/><linearGradient id="d" gradientUnits="userSpaceOnUse" x1="318" x2="318" xlink:href="#b" y1="206.023" y2="288.814"/><linearGradient id="e" gradientUnits="userSpaceOnUse" x1="479.86" x2="479.86" xlink:href="#b" y1="206.023" y2="288.814"/><path d="m0 0h636v400h-636z" fill="#e3e9f1" fill-opacity=".5"/><g filter="url(#a)"><rect fill="#fff" height="320" rx="16" width="556" x="40" y="40"/></g><path d="m255.592 80.864h4.704v19.184h10.048v3.952h-14.752zm24.793 23.456c-1.621 0-3.034-.347-4.24-1.04-1.194-.693-2.122-1.675-2.784-2.944-.65-1.2693-.976-2.7733-.976-4.512s.326-3.2587.976-4.56c.662-1.3013 1.59-2.3147 2.784-3.04 1.206-.7253 2.624-1.088 4.256-1.088s3.046.3573 4.24 1.072c1.195.704 2.118 1.7067 2.768 3.008.651 1.3013.976 2.8373.976 4.608 0 1.664-.32 3.136-.96 4.416-.629 1.269-1.541 2.267-2.736 2.992-1.184.725-2.618 1.088-4.304 1.088zm.016-3.472c.822 0 1.483-.24 1.984-.72.502-.48.864-1.1093 1.088-1.888.235-.7893.352-1.648.352-2.576 0-.8747-.106-1.7013-.32-2.48-.202-.7787-.554-1.408-1.056-1.888-.501-.48-1.184-.72-2.048-.72-.821 0-1.488.2293-2 .688-.501.448-.869 1.0613-1.104 1.84-.234.768-.352 1.6213-.352 2.56 0 .864.107 1.696.32 2.496.214.7893.571 1.4347 1.072 1.936.502.501 1.19.752 2.064.752zm18.187-13.712c1.387 0 2.581.2827 3.584.848 1.013.5653 1.808 1.328 2.384 2.288.587.96.923 2.032 1.008 3.216h-3.888c-.075-.4373-.229-.8693-.464-1.296-.235-.4373-.565-.7947-.992-1.072-.427-.288-.96-.432-1.6-.432-1.088 0-1.973.4213-2.656 1.264-.672.832-1.008 2.1013-1.008 3.808 0 1.6107.331 2.8907.992 3.84.661.939 1.584 1.408 2.768 1.408.629 0 1.152-.155 1.568-.464.427-.309.757-.6773.992-1.104.235-.4373.384-.8427.448-1.216h3.792c-.075 1.1413-.405 2.176-.992 3.104-.587.917-1.387 1.648-2.4 2.192-1.003.533-2.181.8-3.536.8-1.536 0-2.907-.341-4.112-1.024s-2.155-1.659-2.848-2.928c-.683-1.28-1.024-2.8053-1.024-4.576 0-1.7067.331-3.2107.992-4.512s1.589-2.3147 2.784-3.04c1.205-.736 2.608-1.104 4.208-1.104zm14.9 17.184c-1.056 0-2.006-.197-2.848-.592-.843-.395-1.51-.965-2-1.712-.491-.757-.736-1.675-.736-2.752 0-1.8133.677-3.1893 2.032-4.128 1.354-.9493 3.493-1.44 6.416-1.472l2.064-.032v-.992c0-.7573-.224-1.3387-.672-1.744-.438-.416-1.12-.6187-2.048-.608-.683.0107-1.334.1707-1.952.48-.608.3093-1.024.848-1.248 1.616h-3.888c.064-1.1947.41-2.176 1.04-2.944.629-.7787 1.482-1.3547 2.56-1.728 1.088-.384 2.32-.576 3.696-.576 1.696 0 3.056.2133 4.08.64 1.024.416 1.765 1.0187 2.224 1.808.458.7787.688 1.7067.688 2.784v11.632h-3.904l-.384-2.848c-.566 1.195-1.275 2.021-2.128 2.48-.843.459-1.84.688-2.992.688zm1.568-3.072c.426 0 .837-.075 1.232-.224.405-.16.762-.368 1.072-.624.32-.267.576-.5653.768-.896s.288-.672.288-1.024v-2.448l-1.68.032c-.779.0107-1.504.1067-2.176.288-.672.1707-1.216.4533-1.632.848-.406.3947-.608.928-.608 1.6 0 .768.266 1.371.8 1.808.533.427 1.178.64 1.936.64zm21.337-10.544h-3.68l.032 8.816c0 .4053.048.709.144.912.106.192.266.32.48.384.224.053.506.08.848.08h2.224v2.88c-.214.096-.55.187-1.008.272-.448.085-1.078.128-1.888.128-1.451 0-2.576-.187-3.376-.56-.79-.373-1.339-.896-1.648-1.568-.31-.672-.464-1.451-.464-2.336v-9.008h-2.689v-3.248h2.849l1.168-4.992h3.328v4.976h3.68zm8.155-3.248v16.544h-4.464v-16.544zm.048-6.576v4.208h-4.544v-4.208zm11.289 23.44c-1.621 0-3.034-.347-4.24-1.04-1.194-.693-2.122-1.675-2.784-2.944-.65-1.2693-.976-2.7733-.976-4.512s.326-3.2587.976-4.56c.662-1.3013 1.59-2.3147 2.784-3.04 1.206-.7253 2.624-1.088 4.256-1.088s3.046.3573 4.24 1.072c1.195.704 2.118 1.7067 2.768 3.008.651 1.3013.976 2.8373.976 4.608 0 1.664-.32 3.136-.96 4.416-.629 1.269-1.541 2.267-2.736 2.992-1.184.725-2.618 1.088-4.304 1.088zm.016-3.472c.822 0 1.483-.24 1.984-.72.502-.48.864-1.1093 1.088-1.888.235-.7893.352-1.648.352-2.576 0-.8747-.106-1.7013-.32-2.48-.202-.7787-.554-1.408-1.056-1.888-.501-.48-1.184-.72-2.048-.72-.821 0-1.488.2293-2 .688-.501.448-.869 1.0613-1.104 1.84-.234.768-.352 1.6213-.352 2.56 0 .864.107 1.696.32 2.496.214.7893.571 1.4347 1.072 1.936.502.501 1.19.752 2.064.752zm11.099 3.152v-16.544h4.592v2.336c.256-.4053.587-.7947.992-1.168.416-.384.939-.6987 1.568-.944s1.376-.368 2.24-.368c1.013 0 1.957.1973 2.832.592.885.3947 1.6 1.0187 2.144 1.872.544.8427.816 1.9467.816 3.312v10.912h-4.672v-10.336c0-.896-.267-1.568-.8-2.016s-1.184-.672-1.952-.672c-.512 0-1.008.0907-1.488.272-.469.1813-.853.4533-1.152.816s-.448.8107-.448 1.344v10.592z" fill="#475569"/><g stroke-linecap="round" stroke-width="6.7617"><path d="m88.6973 309.047h133.5347" stroke="#cbd5e1"/><path d="m88.6973 143.14h49.9067" stroke="#94a3b8"/><path d="m250.559 143.14h49.907" stroke="#94a3b8"/><path d="m415.116 143.14h49.907" stroke="#94a3b8"/><path d="m250.559 309.047h133.534" stroke="#cbd5e1"/><path d="m412.419 309.047h133.535" stroke="#cbd5e1"/><path d="m88.6973 326.582h86.3257" stroke="#e2e8f0"/><path d="m250.559 326.582h86.325" stroke="#e2e8f0"/><path d="m412.419 326.582h86.326" stroke="#e2e8f0"/></g><rect fill="#e2e8f0" height="133.535" rx="6.7617" transform="matrix(-1 0 0 1 226.279 155.279)" width="140.279"/><rect fill="#e2e8f0" height="133.535" rx="6.7617" transform="matrix(-1 0 0 1 388.14 155.279)" width="140.279"/><rect fill="#e2e8f0" height="133.535" rx="6.7617" transform="matrix(-1 0 0 1 550 155.279)" width="140.279"/><path d="m141.866 235.79-55.866 53.024h140.279v-15.107l-23.956-20.885c-.462-.403-1.146-.415-1.622-.028l-24.796 20.125c-.537.436-1.325.358-1.766-.175l-30.434-36.843c-.465-.563-1.31-.614-1.839-.111z" fill="url(#c)"/><path d="m303.726 235.79-55.866 53.024h140.279v-15.107l-23.956-20.885c-.461-.403-1.146-.415-1.622-.028l-24.795 20.125c-.538.436-1.326.358-1.766-.175l-30.435-36.843c-.465-.563-1.309-.614-1.839-.111z" fill="url(#d)"/><path d="m465.587 235.79-55.866 53.024h140.279v-15.107l-23.956-20.885c-.462-.403-1.147-.415-1.623-.028l-24.795 20.125c-.537.436-1.325.358-1.766-.175l-30.434-36.843c-.465-.563-1.31-.614-1.839-.111z" fill="url(#e)"/><circle cx="178.481" cy="245.236" fill="#cbd5e1" r="10.376"/><circle cx="340.342" cy="245.236" fill="#cbd5e1" r="10.376"/><circle cx="502.202" cy="245.236" fill="#cbd5e1" r="10.376"/></svg>