<svg fill="none" height="400" viewBox="0 0 636 400" width="636" xmlns="http://www.w3.org/2000/svg" xmlns:xlink="http://www.w3.org/1999/xlink"><filter id="a" color-interpolation-filters="sRGB" filterUnits="userSpaceOnUse" height="336" width="572" x="32" y="36"><feFlood flood-opacity="0" result="BackgroundImageFix"/><feColorMatrix in="SourceAlpha" result="hardAlpha" type="matrix" values="0 0 0 0 0 0 0 0 0 0 0 0 0 0 0 0 0 0 127 0"/><feOffset dy="4"/><feGaussianBlur stdDeviation="4"/><feColorMatrix type="matrix" values="0 0 0 0 0.559444 0 0 0 0 0.559444 0 0 0 0 0.633333 0 0 0 0.16 0"/><feBlend in2="BackgroundImageFix" mode="normal" result="effect1_dropShadow_1850_2479"/><feBlend in="SourceGraphic" in2="effect1_dropShadow_1850_2479" mode="normal" result="shape"/></filter><path d="m0 0h636v400h-636z" fill="#e3e9f1" fill-opacity=".5"/><g filter="url(#a)"><rect fill="#fff" height="320" rx="16" width="556" x="40" y="40"/></g><rect fill="#f1f5f9" height="153" rx="8" width="104" x="386" y="175"/><path d="m217.827 114.32c-1.141 0-2.261-.144-3.36-.432s-2.101-.72-3.008-1.296-1.659-1.296-2.256-2.16c-.587-.864-.939-1.877-1.056-3.04h4.784c.16.704.464 1.296.912 1.776s1.013.848 1.696 1.104 1.44.384 2.272.384c.853 0 1.632-.107 2.336-.32s1.269-.533 1.696-.96c.427-.437.64-.981.64-1.632 0-.587-.176-1.067-.528-1.44-.341-.373-.805-.677-1.392-.912s-1.253-.427-2-.576l-4-.816c-1.749-.331-3.136-1.024-4.16-2.08-1.024-1.067-1.552-2.4853-1.584-4.256-.011-1.4507.373-2.704 1.152-3.76.789-1.0667 1.856-1.888 3.2-2.464 1.355-.576 2.869-.864 4.544-.864 1.995 0 3.669.3147 5.024.944 1.365.6187 2.4 1.4613 3.104 2.528.715 1.056 1.083 2.2347 1.104 3.536h-4.688c-.085-.8107-.331-1.456-.736-1.936s-.928-.8267-1.568-1.04c-.629-.2133-1.349-.32-2.16-.32-.619 0-1.184.0693-1.696.208-.501.1387-.928.336-1.28.592-.352.2453-.624.5387-.816.88s-.288.7253-.288 1.152c0 .672.224 1.216.672 1.632s1.285.7573 2.512 1.024l3.968.816c1.419.277 2.544.688 3.376 1.232.843.544 1.472 1.157 1.888 1.84.427.683.704 1.381.832 2.096.139.704.208 1.355.208 1.952 0 1.248-.395 2.373-1.184 3.376-.779.992-1.867 1.781-3.264 2.368-1.397.576-3.029.864-4.896.864zm17.611-16.864v16.544h-4.464v-16.544zm.048-6.576v4.208h-4.544v-4.208zm4.28 23.12v-16.544h4.576v2.336c.501-.7253 1.173-1.3493 2.016-1.872.853-.5227 1.925-.784 3.216-.784.565 0 1.141.1013 1.728.304.586.2027 1.136.5013 1.648.896.522.384.944.8693 1.264 1.456.533-.7573 1.232-1.3867 2.096-1.888.874-.512 1.845-.768 2.912-.768.618 0 1.242.1013 1.872.304.64.2027 1.226.5333 1.76.992.533.4587.96 1.072 1.28 1.84.33.757.496 1.696.496 2.816v10.912h-4.672v-10.336c0-.661-.134-1.189-.4-1.584-.256-.405-.587-.693-.992-.864-.395-.181-.816-.272-1.264-.272-.416 0-.838.085-1.264.256-.427.16-.79.421-1.088.784-.299.363-.448.837-.448 1.424v10.592h-4.656v-10.752c0-.501-.134-.923-.4-1.264-.267-.341-.603-.597-1.008-.768-.395-.181-.8-.272-1.216-.272-.427 0-.854.091-1.28.272-.427.171-.784.443-1.072.816-.288.363-.432.821-.432 1.376v10.592zm28.656 5.152v-21.696h4.688l.016 2.384c.245-.3947.544-.752.896-1.072.363-.3307.763-.6187 1.2-.864s.912-.432 1.424-.56c.512-.1387 1.051-.208 1.616-.208 1.227 0 2.32.304 3.28.912.96.5973 1.712 1.5253 2.256 2.784.555 1.248.832 2.837.832 4.768 0 2.005-.299 3.653-.896 4.944-.587 1.28-1.397 2.229-2.432 2.848s-2.203.928-3.504.928c-.533 0-1.035-.075-1.504-.224-.469-.139-.907-.336-1.312-.592-.395-.256-.752-.549-1.072-.88-.309-.341-.581-.709-.816-1.104v7.632zm8.256-8.256c1.013 0 1.861-.421 2.544-1.264.693-.843 1.04-2.176 1.04-4 0-1.6-.331-2.848-.992-3.744-.651-.907-1.515-1.36-2.592-1.36-1.205 0-2.107.491-2.704 1.472-.587.971-.88 2.181-.88 3.632 0 .928.128 1.792.384 2.592.267.8.661 1.445 1.184 1.936.533.491 1.205.736 2.016.736zm16.336 3.392c-1.216 0-2.181-.144-2.896-.432-.714-.288-1.242-.667-1.584-1.136-.341-.48-.56-1.008-.656-1.584-.096-.587-.144-1.179-.144-1.776v-19.136h4.576v18.56c0 .608.128 1.104.384 1.488.267.373.763.603 1.488.688l.784.048v2.88c-.32.107-.645.197-.976.272-.33.085-.656.128-.976.128zm8.779-7.488c-.011.843.123 1.579.4 2.208.277.619.677 1.099 1.2 1.44.533.331 1.173.496 1.92.496.8 0 1.499-.171 2.096-.512.608-.341 1.029-.901 1.264-1.68h4.208c-.181 1.173-.651 2.176-1.408 3.008-.747.832-1.653 1.467-2.72 1.904s-2.176.656-3.328.656c-1.632 0-3.072-.341-4.32-1.024-1.237-.693-2.203-1.669-2.896-2.928s-1.04-2.741-1.04-4.448c0-1.653.315-3.141.944-4.464.629-1.333 1.541-2.384 2.736-3.152 1.205-.7787 2.651-1.168 4.336-1.168s3.099.3573 4.24 1.072c1.152.704 2.016 1.6907 2.592 2.96.587 1.259.88 2.715.88 4.368v1.264zm-.016-2.784h6.752c0-.661-.123-1.269-.368-1.824s-.619-.992-1.12-1.312c-.491-.32-1.109-.48-1.856-.48-.725 0-1.344.176-1.856.528-.501.341-.885.789-1.152 1.344s-.4 1.136-.4 1.744zm21.051 15.136v-21.696h4.688l.016 2.384c.245-.3947.544-.752.896-1.072.363-.3307.763-.6187 1.2-.864s.912-.432 1.424-.56c.512-.1387 1.051-.208 1.616-.208 1.227 0 2.32.304 3.28.912.96.5973 1.712 1.5253 2.256 2.784.555 1.248.832 2.837.832 4.768 0 2.005-.299 3.653-.896 4.944-.587 1.28-1.397 2.229-2.432 2.848s-2.203.928-3.504.928c-.533 0-1.035-.075-1.504-.224-.469-.139-.907-.336-1.312-.592-.395-.256-.752-.549-1.072-.88-.309-.341-.581-.709-.816-1.104v7.632zm8.256-8.256c1.013 0 1.861-.421 2.544-1.264.693-.843 1.04-2.176 1.04-4 0-1.6-.331-2.848-.992-3.744-.651-.907-1.515-1.36-2.592-1.36-1.205 0-2.107.491-2.704 1.472-.587.971-.88 2.181-.88 3.632 0 .928.128 1.792.384 2.592.267.8.661 1.445 1.184 1.936.533.491 1.205.736 2.016.736zm11.057 3.104v-16.544h4.496v3.92c.266-.843.64-1.5787 1.12-2.208.49-.64 1.082-1.136 1.776-1.488.693-.3627 1.477-.544 2.352-.544.149 0 .288.0107.416.032.138.0107.24.032.304.064v4.448c-.096-.043-.214-.069-.352-.08-.128-.011-.246-.021-.352-.032-.918-.075-1.702-.048-2.352.08-.651.128-1.179.347-1.584.656-.406.309-.699.688-.88 1.136-.182.448-.272.949-.272 1.504v9.056zm17.704-16.544v16.544h-4.464v-16.544zm.048-6.576v4.208h-4.544v-4.208zm11.273 6.256c1.387 0 2.581.2827 3.584.848 1.013.5653 1.808 1.328 2.384 2.288.587.96.923 2.032 1.008 3.216h-3.888c-.075-.437-.229-.869-.464-1.296-.235-.437-.565-.795-.992-1.072-.427-.288-.96-.432-1.6-.432-1.088 0-1.973.421-2.656 1.264-.672.832-1.008 2.101-1.008 3.808 0 1.611.331 2.891.992 3.84.661.939 1.584 1.408 2.768 1.408.629 0 1.152-.155 1.568-.464.427-.309.757-.677.992-1.104.235-.437.384-.843.448-1.216h3.792c-.075 1.141-.405 2.176-.992 3.104-.587.917-1.387 1.648-2.4 2.192-1.003.533-2.181.8-3.536.8-1.536 0-2.907-.341-4.112-1.024s-2.155-1.659-2.848-2.928c-.683-1.28-1.024-2.805-1.024-4.576 0-1.707.331-3.211.992-4.512.661-1.3013 1.589-2.3147 2.784-3.04 1.205-.736 2.608-1.104 4.208-1.104zm14.897.32v16.544h-4.464v-16.544zm.048-6.576v4.208h-4.544v-4.208zm4.28 23.12v-16.544h4.592v2.336c.256-.4053.586-.7947.992-1.168.416-.384.938-.6987 1.568-.944.629-.2453 1.376-.368 2.24-.368 1.013 0 1.957.1973 2.832.592.885.3947 1.6 1.0187 2.144 1.872.544.843.816 1.947.816 3.312v10.912h-4.672v-10.336c0-.896-.267-1.568-.8-2.016-.534-.448-1.184-.672-1.952-.672-.512 0-1.008.091-1.488.272-.47.181-.854.453-1.152.816-.299.363-.448.811-.448 1.344v10.592zm26.632 5.472c-2.944 0-5.184-.373-6.72-1.12-1.525-.747-2.288-1.728-2.288-2.944 0-.565.15-1.04.448-1.424.299-.384.646-.688 1.04-.912.406-.235.774-.411 1.104-.528.342-.128.55-.213.624-.256-.17-.096-.416-.235-.736-.416-.32-.192-.618-.448-.896-.768-.266-.331-.4-.757-.4-1.28 0-.587.278-1.131.832-1.632.566-.501 1.419-.848 2.56-1.04-1.088-.512-1.914-1.205-2.48-2.08-.565-.875-.848-1.771-.848-2.688 0-1.088.342-2.021 1.024-2.8.683-.7787 1.611-1.3707 2.784-1.776 1.184-.4053 2.523-.608 4.016-.608 1.142 0 2.075.1227 2.8.368.726.2347 1.398.544 2.016.928.246-.096.571-.2187.976-.368.406-.16.843-.3307 1.312-.512.47-.192.928-.3787 1.376-.56.448-.192.848-.3627 1.2-.512l-.016 3.616-2.864.464c.118.288.208.597.272.928s.096.603.096.816c0 .96-.282 1.856-.848 2.688-.554.832-1.392 1.504-2.512 2.016-1.109.512-2.485.768-4.128.768-.202 0-.474-.005-.816-.016-.33-.011-.602-.027-.816-.048-.629.032-1.061.112-1.296.24-.234.128-.352.277-.352.448 0 .256.24.427.72.512.48.075 1.206.144 2.176.208.342.021.816.048 1.424.08s1.28.075 2.016.128c2.027.139 3.536.64 4.528 1.504 1.003.853 1.504 1.931 1.504 3.232 0 1.547-.736 2.821-2.208 3.824-1.461 1.013-3.669 1.52-6.624 1.52zm.752-2.608c1.302 0 2.23-.16 2.784-.48.555-.32.832-.779.832-1.376 0-.501-.213-.907-.64-1.216-.426-.32-1.05-.507-1.872-.56l-3.792-.256c-.49-.021-.928.053-1.312.224-.373.171-.666.405-.88.704-.202.299-.304.619-.304.96 0 .693.422 1.2 1.264 1.52.843.32 2.15.48 3.92.48zm-.88-11.632c.886 0 1.595-.24 2.128-.72.544-.491.816-1.152.816-1.984 0-.864-.272-1.557-.816-2.08-.533-.5227-1.242-.784-2.128-.784-.874 0-1.589.2613-2.144.784-.544.523-.816 1.216-.816 2.08 0 .821.262 1.477.784 1.968.534.491 1.259.736 2.176.736z" fill="#475569"/><path d="m246.5 134h141" stroke="#cbd5e1" stroke-linecap="round" stroke-width="4"/><path d="m271.5 147h91" stroke="#e2e8f0" stroke-linecap="round" stroke-width="4"/><rect fill="#f1f5f9" height="153" rx="8" width="104" x="146" y="175"/><path d="m191.72 239.636v-16.363h1.048v16.363zm2.524-10.802c-.042-.469-.232-.833-.568-1.093-.333-.264-.808-.397-1.426-.397-.409 0-.75.054-1.023.16-.272.107-.477.254-.613.441-.137.184-.207.394-.211.633-.009.196.03.369.115.518.089.149.217.281.383.396.171.111.375.209.614.294s.507.16.805.224l1.125.256c.648.14 1.219.328 1.714.562.498.234.916.514 1.252.837.341.324.599.697.774 1.119s.264.895.268 1.419c-.004.827-.213 1.536-.626 2.129-.413.592-1.008 1.046-1.783 1.361-.772.316-1.703.473-2.794.473-1.095 0-2.05-.164-2.863-.492-.814-.328-1.447-.827-1.899-1.496s-.684-1.515-.697-2.537h3.03c.026.421.139.773.339 1.054.2.282.475.495.825.64.353.144.762.217 1.227.217.426 0 .788-.058 1.086-.173.303-.115.535-.275.697-.479.162-.205.245-.439.249-.703-.004-.247-.08-.458-.23-.633-.149-.179-.379-.332-.69-.46-.307-.132-.699-.254-1.176-.365l-1.368-.319c-1.134-.26-2.026-.68-2.678-1.259-.652-.584-.976-1.373-.972-2.366-.004-.809.213-1.519.652-2.128s1.046-1.085 1.822-1.426c.775-.34 1.66-.511 2.653-.511 1.014 0 1.894.173 2.639.518.75.341 1.332.82 1.746 1.438.413.618.624 1.334.632 2.148zm10.196 9.486c-1.142 0-2.127-.271-2.953-.812-.827-.546-1.464-1.328-1.912-2.346-.447-1.023-.669-2.252-.664-3.688.004-1.436.228-2.655.671-3.657.447-1.005 1.082-1.77 1.905-2.294.826-.529 1.811-.793 2.953-.793s2.126.264 2.953.793c.831.524 1.47 1.289 1.918 2.294.447 1.006.669 2.225.664 3.657 0 1.44-.223 2.672-.671 3.694-.447 1.023-1.084 1.805-1.911 2.346-.823.537-1.807.806-2.953.806zm0-2.589c.682 0 1.233-.347 1.655-1.042.422-.699.631-1.771.627-3.215 0-.946-.096-1.726-.288-2.34-.192-.618-.458-1.078-.799-1.38-.341-.303-.739-.454-1.195-.454-.678 0-1.225.343-1.643 1.029-.418.682-.628 1.73-.633 3.145-.004.959.088 1.753.275 2.384.192.631.46 1.102.805 1.413.346.306.744.46 1.196.46z" fill="#94a3b8"/><rect fill="#f1f5f9" height="162" rx="8" width="104" x="266" y="166"/><rect fill="#e2e8f0" height="8" rx="2" width="60" x="168" y="252"/><rect fill="#8b3dff" height="8" rx="2" width="60" x="288" y="252"/><rect fill="#e2e8f0" height="8" rx="2" width="60" x="408" y="252"/><rect fill="#e2e8f0" height="20" rx="3" width="20" x="188" y="191"/><path d="m159 289 78 1" stroke="#e2e8f0" stroke-linecap="round" stroke-width="4"/><path d="m170 299h57" stroke="#e2e8f0" stroke-linecap="round" stroke-width="4"/><path d="m163 279h70" stroke="#cbd5e1" stroke-linecap="round" stroke-width="4"/><rect fill="#cbd5e1" height="20" rx="3" width="20" x="308" y="186"/><rect fill="#e2e8f0" height="20" rx="3" width="20" x="428" y="191"/><g stroke-linecap="round" stroke-width="4"><path d="m279 286 78 1" stroke="#e2e8f0"/><path d="m399 286 78 1" stroke="#e2e8f0"/><path d="m290 296h57" stroke="#e2e8f0"/><path d="m410 296h57" stroke="#e2e8f0"/><path d="m299 305h39" stroke="#e2e8f0"/><path d="m283 276h70" stroke="#cbd5e1"/><path d="m403 276h70" stroke="#cbd5e1"/></g><path d="m305.84 239.636v-16.363h1.048v16.363zm2.525-10.802c-.043-.469-.233-.833-.569-1.093-.333-.264-.808-.397-1.426-.397-.409 0-.75.054-1.022.16-.273.107-.478.254-.614.441-.136.184-.207.394-.211.633-.009.196.03.369.115.518.09.149.217.281.384.396.17.111.375.209.613.294.239.085.507.16.806.224l1.125.256c.647.14 1.218.328 1.713.562.498.234.916.514 1.253.837.34.324.598.697.773 1.119s.264.895.268 1.419c-.004.827-.213 1.536-.626 2.129-.413.592-1.008 1.046-1.783 1.361-.772.316-1.703.473-2.794.473-1.095 0-2.049-.164-2.863-.492s-1.447-.827-1.899-1.496c-.451-.669-.684-1.515-.697-2.537h3.03c.026.421.139.773.339 1.054.2.282.475.495.825.64.353.144.762.217 1.227.217.426 0 .788-.058 1.087-.173.302-.115.534-.275.696-.479.162-.205.245-.439.25-.703-.005-.247-.081-.458-.231-.633-.149-.179-.379-.332-.69-.46-.307-.132-.699-.254-1.176-.365l-1.368-.319c-1.133-.26-2.026-.68-2.678-1.259-.652-.584-.976-1.373-.972-2.366-.004-.809.213-1.519.652-2.128s1.046-1.085 1.822-1.426c.776-.34 1.66-.511 2.653-.511 1.014 0 1.894.173 2.64.518.75.341 1.331.82 1.745 1.438.413.618.624 1.334.632 2.148zm4.621 6.993v-2.468l5.363-8.45h2.192v3.35h-1.272l-3.138 4.973v.102h7.766v2.493zm6.322 2.173v-2.928l.064-1.08v-9.083h2.959v13.091zm11.176-13.27c.716 0 1.4.117 2.052.352.652.23 1.234.598 1.745 1.106.512.502.914 1.165 1.208 1.987.294.823.441 1.826.441 3.011.005 1.091-.123 2.069-.383 2.934-.26.861-.633 1.594-1.119 2.199-.481.605-1.061 1.067-1.738 1.387-.678.315-1.434.473-2.27.473-.92 0-1.732-.177-2.435-.531-.699-.358-1.259-.839-1.681-1.444-.418-.605-.667-1.283-.748-2.033h3.113c.098.435.305.763.62.985.315.217.692.326 1.131.326.802 0 1.4-.348 1.797-1.042.396-.695.594-1.639.594-2.832h-.077c-.183.392-.443.729-.78 1.01-.332.281-.718.496-1.157.645-.438.15-.901.224-1.387.224-.784 0-1.476-.179-2.077-.537-.597-.358-1.065-.85-1.406-1.476-.337-.627-.507-1.343-.512-2.148-.004-.903.207-1.7.633-2.391.426-.694 1.021-1.235 1.784-1.623.762-.392 1.647-.586 2.652-.582zm.019 2.429c-.392 0-.741.092-1.048.275-.302.183-.541.43-.716.741-.174.312-.26.661-.255 1.049.004.388.091.737.262 1.048.174.311.411.558.709.741.303.184.648.275 1.036.275.289 0 .558-.053.805-.159.247-.107.462-.254.646-.441.183-.192.326-.414.428-.665.106-.252.158-.52.153-.806-.004-.379-.093-.724-.268-1.035s-.416-.558-.722-.742c-.303-.187-.646-.281-1.03-.281z" fill="#94a3b8"/><path d="m420.866 239.636v-16.363h1.048v16.363zm2.525-10.802c-.043-.469-.232-.833-.569-1.093-.332-.264-.807-.397-1.425-.397-.409 0-.75.054-1.023.16-.273.107-.477.254-.614.441-.136.184-.206.394-.211.633-.008.196.03.369.115.518.09.149.218.281.384.396.17.111.375.209.614.294.238.085.507.16.805.224l1.125.256c.648.14 1.219.328 1.713.562.499.234.916.514 1.253.837.341.324.599.697.773 1.119.175.422.265.895.269 1.419-.004.827-.213 1.536-.627 2.129-.413.592-1.007 1.046-1.783 1.361-.771.316-1.702.473-2.793.473-1.096 0-2.05-.164-2.864-.492s-1.447-.827-1.898-1.496c-.452-.669-.684-1.515-.697-2.537h3.03c.025.421.138.773.338 1.054.201.282.476.495.825.64.354.144.763.217 1.227.217.426 0 .789-.058 1.087-.173.303-.115.535-.275.697-.479.162-.205.245-.439.249-.703-.004-.247-.081-.458-.23-.633-.149-.179-.379-.332-.69-.46-.307-.132-.699-.254-1.177-.365l-1.368-.319c-1.133-.26-2.026-.68-2.678-1.259-.652-.584-.976-1.373-.971-2.366-.005-.809.213-1.519.652-2.128s1.046-1.085 1.821-1.426c.776-.34 1.66-.511 2.653-.511 1.014 0 1.894.173 2.64.518.75.341 1.332.82 1.745 1.438s.624 1.334.633 2.148zm10.834-3.925v13.091h-3.157v-10.138h-.077l-2.927 1.79v-2.736l3.228-2.007zm2.735 10.918v-2.468l5.363-8.45h2.192v3.35h-1.272l-3.138 4.973v.102h7.766v2.493zm6.321 2.173v-2.928l.064-1.08v-9.083h2.96v13.091zm11.177-13.27c.716 0 1.4.117 2.052.352.652.23 1.233.598 1.745 1.106.511.502.914 1.165 1.208 1.987.294.823.441 1.826.441 3.011.004 1.091-.124 2.069-.384 2.934-.26.861-.632 1.594-1.118 2.199-.482.605-1.061 1.067-1.739 1.387-.677.315-1.434.473-2.269.473-.92 0-1.732-.177-2.435-.531-.699-.358-1.26-.839-1.681-1.444-.418-.605-.667-1.283-.748-2.033h3.113c.098.435.304.763.62.985.315.217.692.326 1.131.326.801 0 1.4-.348 1.796-1.042.396-.695.595-1.639.595-2.832h-.077c-.183.392-.443.729-.78 1.01-.332.281-.718.496-1.157.645-.439.15-.901.224-1.387.224-.784 0-1.477-.179-2.077-.537-.597-.358-1.066-.85-1.407-1.476-.336-.627-.507-1.343-.511-2.148-.004-.903.207-1.7.633-2.391.426-.694 1.02-1.235 1.783-1.623.763-.392 1.647-.586 2.653-.582zm.019 2.429c-.392 0-.741.092-1.048.275-.303.183-.541.43-.716.741-.175.312-.26.661-.256 1.049s.092.737.262 1.048c.175.311.412.558.71.741.302.184.648.275 1.035.275.29 0 .559-.053.806-.159.247-.107.462-.254.645-.441.184-.192.326-.414.429-.665.106-.252.157-.52.153-.806-.004-.379-.094-.724-.268-1.035-.175-.311-.416-.558-.723-.742-.302-.187-.645-.281-1.029-.281z" fill="#94a3b8"/></svg>