<svg fill="none" height="400" viewBox="0 0 636 400" width="636" xmlns="http://www.w3.org/2000/svg" xmlns:xlink="http://www.w3.org/1999/xlink"><filter id="a" color-interpolation-filters="sRGB" filterUnits="userSpaceOnUse" height="336" width="572" x="32" y="36"><feFlood flood-opacity="0" result="BackgroundImageFix"/><feColorMatrix in="SourceAlpha" result="hardAlpha" type="matrix" values="0 0 0 0 0 0 0 0 0 0 0 0 0 0 0 0 0 0 127 0"/><feOffset dy="4"/><feGaussianBlur stdDeviation="4"/><feColorMatrix type="matrix" values="0 0 0 0 0.559444 0 0 0 0 0.559444 0 0 0 0 0.633333 0 0 0 0.16 0"/><feBlend in2="BackgroundImageFix" mode="normal" result="effect1_dropShadow_1850_2749"/><feBlend in="SourceGraphic" in2="effect1_dropShadow_1850_2749" mode="normal" result="shape"/></filter><path d="m0 0h636v400h-636z" fill="#e3e9f1" fill-opacity=".5"/><g filter="url(#a)"><rect fill="#fff" height="320" rx="16" width="556" x="40" y="40"/></g><path d="m238.376 101.064h-10.128v9.936h-4.656v-23.136h4.656v9.28h10.128v-9.28h4.672v23.136h-4.672zm15.916 10.256c-1.622 0-3.035-.347-4.24-1.04-1.195-.693-2.123-1.675-2.784-2.944-.651-1.269-.976-2.773-.976-4.512s.325-3.2587.976-4.56c.661-1.3013 1.589-2.3147 2.784-3.04 1.205-.7253 2.624-1.088 4.256-1.088s3.045.3573 4.24 1.072c1.194.704 2.117 1.7067 2.768 3.008.65 1.3013.976 2.837.976 4.608 0 1.664-.32 3.136-.96 4.416-.63 1.269-1.542 2.267-2.736 2.992-1.184.725-2.619 1.088-4.304 1.088zm.016-3.472c.821 0 1.482-.24 1.984-.72.501-.48.864-1.109 1.088-1.888.234-.789.352-1.648.352-2.576 0-.875-.107-1.701-.32-2.48-.203-.7787-.555-1.408-1.056-1.888-.502-.48-1.184-.72-2.048-.72-.822 0-1.488.2293-2 .688-.502.448-.87 1.0613-1.104 1.84-.235.768-.352 1.621-.352 2.56 0 .864.106 1.696.32 2.496.213.789.57 1.435 1.072 1.936.501.501 1.189.752 2.064.752zm33.227-13.392-5.44 16.544h-3.712l-3.088-10.016-3.072 10.016h-3.616l-5.36-16.544h4.128l3.168 10.256h.128l3.04-10.256h3.328l3.072 10.256h.128l3.072-10.256zm13.763 0v16.544h-4.464v-16.544zm.048-6.576v4.208h-4.544v-4.208zm14.265 9.824h-3.68l.032 8.816c0 .405.048.709.144.912.107.192.267.32.48.384.224.053.507.08.848.08h2.224v2.88c-.213.096-.549.187-1.008.272-.448.085-1.077.128-1.888.128-1.45 0-2.576-.187-3.376-.56-.789-.373-1.338-.896-1.648-1.568-.309-.672-.464-1.451-.464-2.336v-9.008h-2.688v-3.248h2.848l1.168-4.992h3.328v4.976h3.68zm32.955-3.248-5.44 16.544h-3.712l-3.088-10.016-3.072 10.016h-3.616l-5.36-16.544h4.128l3.168 10.256h.128l3.04-10.256h3.328l3.072 10.256h.128l3.072-10.256zm8.913 16.864c-1.621 0-3.035-.347-4.24-1.04-1.195-.693-2.123-1.675-2.784-2.944-.651-1.269-.976-2.773-.976-4.512s.325-3.2587.976-4.56c.661-1.3013 1.589-2.3147 2.784-3.04 1.205-.7253 2.624-1.088 4.256-1.088s3.045.3573 4.24 1.072c1.195.704 2.117 1.7067 2.768 3.008s.976 2.837.976 4.608c0 1.664-.32 3.136-.96 4.416-.629 1.269-1.541 2.267-2.736 2.992-1.184.725-2.619 1.088-4.304 1.088zm.016-3.472c.821 0 1.483-.24 1.984-.72s.864-1.109 1.088-1.888c.235-.789.352-1.648.352-2.576 0-.875-.107-1.701-.32-2.48-.203-.7787-.555-1.408-1.056-1.888s-1.184-.72-2.048-.72c-.821 0-1.488.2293-2 .688-.501.448-.869 1.0613-1.104 1.84-.235.768-.352 1.621-.352 2.56 0 .864.107 1.696.32 2.496.213.789.571 1.435 1.072 1.936s1.189.752 2.064.752zm11.099 3.152v-16.544h4.496v3.92c.266-.8427.64-1.5787 1.12-2.208.49-.64 1.082-1.136 1.776-1.488.693-.3627 1.477-.544 2.352-.544.149 0 .288.0107.416.032.138.0107.24.032.304.064v4.448c-.096-.0427-.214-.0693-.352-.08-.128-.0107-.246-.0213-.352-.032-.918-.0747-1.702-.048-2.352.08-.651.128-1.179.3467-1.584.656-.406.3093-.699.688-.88 1.136-.182.448-.272.949-.272 1.504v9.056zm28.984 0h-4.656l-4.464-7.136-2.192 2.336v4.8h-4.672v-23.776h4.672v14.096l6.08-6.864h5.024l-6.016 6.592zm8.56.32c-1.152 0-2.262-.187-3.328-.56-1.067-.384-1.968-.981-2.704-1.792-.736-.821-1.206-1.883-1.408-3.184h4.048c.138.587.389 1.051.752 1.392.373.341.794.587 1.264.736.469.139.917.208 1.344.208.896 0 1.616-.139 2.16-.416.554-.288.832-.725.832-1.312 0-.448-.166-.805-.496-1.072-.32-.267-.854-.469-1.6-.608l-2.912-.608c-1.462-.309-2.635-.832-3.52-1.568-.886-.747-1.339-1.803-1.36-3.168 0-.992.261-1.8827.784-2.672.533-.7893 1.317-1.4133 2.352-1.872 1.034-.4587 2.304-.688 3.808-.688 2.037 0 3.664.448 4.88 1.344 1.226.896 1.85 2.16 1.872 3.792h-3.904c-.118-.64-.438-1.1307-.96-1.472-.512-.352-1.158-.528-1.936-.528-.811 0-1.478.144-2 .432-.523.288-.784.7253-.784 1.312 0 .4373.213.784.64 1.04.426.245 1.088.459 1.984.64l2.688.608c.928.224 1.68.533 2.256.928.586.384 1.04.805 1.36 1.264s.538.923.656 1.392c.128.459.192.875.192 1.248 0 1.099-.294 2.037-.88 2.816-.587.768-1.403 1.355-2.448 1.76-1.046.405-2.256.608-3.632.608z" fill="#475569"/><path d="m81 228.242h124.485" stroke="#cbd5e1" stroke-linecap="round" stroke-width="6.00039"/><rect fill="#8b3dff" height="14.3636" rx="4.78788" width="46.6818" x="81" y="266.545"/><path d="m81 243.803h80.197" stroke="#e2e8f0" stroke-linecap="round" stroke-width="6.00039"/><circle cx="98.2511" cy="188.039" fill="#8b3dff" r="17.2511"/><path d="m97.4611 194.772v-10.37h-2.4706v-1.58c.7916 0 1.43-.073 1.9152-.22.4915-.154.8586-.371 1.1012-.651.2426-.288.3862-.629.4309-1.025h1.8572v13.846z" fill="#fff"/><path d="m255.484 228.242h124.485" stroke="#cbd5e1" stroke-linecap="round" stroke-width="6.00039"/><path d="m255.484 243.803h80.197" stroke="#e2e8f0" stroke-linecap="round" stroke-width="6.00039"/><circle cx="272.736" cy="188.039" fill="#8b3dff" r="17.2511"/><path d="m267.339 194.772v-1.378-.709c0-.702.131-1.309.393-1.819.261-.518.606-.964 1.034-1.341.434-.383.906-.718 1.417-1.006.517-.287 1.034-.558 1.551-.813.517-.256.99-.511 1.417-.767.434-.261.782-.552 1.044-.871s.393-.696.393-1.13c0-.555-.195-1.008-.584-1.36-.383-.351-.91-.526-1.58-.526-.696 0-1.287.201-1.772.603s-.785 1.009-.9 1.819h-2.672c.013-.881.217-1.679.613-2.394.402-.721 1.002-1.292 1.8-1.714.798-.421 1.801-.632 3.007-.632 1.034 0 1.925.176 2.672.527.753.351 1.334.84 1.743 1.465.408.626.613 1.357.613 2.193 0 .696-.128 1.296-.384 1.8-.255.505-.593.935-1.015 1.293-.421.357-.884.67-1.388.938-.504.269-1.009.517-1.513.747-.498.23-.958.466-1.379.709-.421.236-.76.504-1.015.804s-.383.661-.383 1.082v.125h7.057v2.355z" fill="#fff"/><rect fill="#8b3dff" height="14.3636" rx="4.78788" width="46.6818" x="255.484" y="266.545"/><path d="m429.97 228.242h124.485" stroke="#cbd5e1" stroke-linecap="round" stroke-width="6.00039"/><path d="m429.97 243.803h80.197" stroke="#e2e8f0" stroke-linecap="round" stroke-width="6.00039"/><circle cx="447.221" cy="188.039" fill="#8b3dff" r="17.2511"/><path d="m441.671 185.187c0-.996.233-1.822.699-2.48.472-.658 1.108-1.149 1.906-1.475.798-.332 1.685-.498 2.662-.498 1.034 0 1.953.134 2.758.403.81.268 1.449.676 1.915 1.225s.699 1.245.699 2.088c0 .683-.198 1.286-.594 1.81-.396.517-1.041.928-1.934 1.235.51.14.983.354 1.417.641.434.288.782.655 1.044 1.102.261.447.392.983.392 1.608 0 .677-.15 1.274-.45 1.791s-.715.951-1.245 1.302c-.529.351-1.142.613-1.838.786-.696.172-1.44.258-2.231.258-1.111-.006-2.059-.188-2.844-.546-.779-.364-1.379-.881-1.801-1.551-.415-.67-.628-1.468-.641-2.394h2.691c.134.785.44 1.353.919 1.705.479.351 1.047.526 1.704.526.575 0 1.067-.083 1.475-.249.415-.166.731-.396.948-.689.224-.3.335-.642.335-1.025 0-.396-.115-.737-.345-1.024-.223-.288-.536-.511-.938-.671-.402-.166-.862-.255-1.379-.268l-1.321-.048v-2.221l1.187-.067c.498-.019.932-.112 1.302-.278.371-.166.658-.386.862-.661.211-.281.316-.597.316-.948 0-.338-.105-.632-.316-.881-.21-.249-.501-.443-.871-.584-.37-.14-.795-.21-1.274-.21-.44 0-.846.073-1.216.22s-.673.389-.91.728c-.236.331-.373.778-.411 1.34z" fill="#fff"/><rect fill="#8b3dff" height="14.3636" rx="4.78788" width="46.6818" x="429.97" y="266.545"/></svg>