<svg fill="none" height="400" viewBox="0 0 636 400" width="636" xmlns="http://www.w3.org/2000/svg" xmlns:xlink="http://www.w3.org/1999/xlink"><filter id="a" color-interpolation-filters="sRGB" filterUnits="userSpaceOnUse" height="336" width="572" x="32" y="36"><feFlood flood-opacity="0" result="BackgroundImageFix"/><feColorMatrix in="SourceAlpha" result="hardAlpha" type="matrix" values="0 0 0 0 0 0 0 0 0 0 0 0 0 0 0 0 0 0 127 0"/><feOffset dy="4"/><feGaussianBlur stdDeviation="4"/><feColorMatrix type="matrix" values="0 0 0 0 0.559444 0 0 0 0 0.559444 0 0 0 0 0.633333 0 0 0 0.16 0"/><feBlend in2="BackgroundImageFix" mode="normal" result="effect1_dropShadow_1852_2918"/><feBlend in="SourceGraphic" in2="effect1_dropShadow_1852_2918" mode="normal" result="shape"/></filter><path d="m0 0h636v400h-636z" fill="#e3e9f1" fill-opacity=".5"/><g filter="url(#a)"><rect fill="#fff" height="320" rx="16" width="556" x="40" y="40"/></g><path d="m93.4091 110.364c0 2.538-.4811 4.697-1.4432 6.477-.9545 1.78-2.2576 3.14-3.9091 4.079-1.6439.932-3.4924 1.398-5.5454 1.398-2.0682 0-3.9243-.47-5.5682-1.409-1.644-.939-2.9432-2.299-3.8977-4.079-.9546-1.781-1.4319-3.936-1.4319-6.466 0-2.538.4773-4.697 1.4319-6.478.9545-1.78 2.2537-3.136 3.8977-4.0678 1.6439-.9394 3.5-1.4091 5.5682-1.4091 2.053 0 3.9015.4697 5.5454 1.4091 1.6515.9318 2.9546 2.2878 3.9091 4.0678.9621 1.781 1.4432 3.94 1.4432 6.478zm-4.9886 0c0-1.644-.2463-3.031-.7387-4.159-.4848-1.129-1.1704-1.985-2.0568-2.569-.8864-.583-1.9242-.875-3.1136-.875s-2.2273.292-3.1137.875c-.8863.584-1.5757 1.44-2.0682 2.569-.4848 1.128-.7272 2.515-.7272 4.159s.2424 3.03.7272 4.159c.4925 1.129 1.1819 1.985 2.0682 2.568.8864.583 1.9243.875 3.1137.875s2.2272-.292 3.1136-.875 1.572-1.439 2.0568-2.568c.4924-1.129.7387-2.515.7387-4.159zm19.7355 4.204v-10.023h4.841v17.455h-4.648v-3.17h-.181c-.394 1.022-1.05 1.844-1.966 2.465-.909.622-2.019.932-3.33.932-1.167 0-2.193-.265-3.0794-.795-.8863-.53-1.5795-1.284-2.0795-2.262-.4925-.977-.7425-2.147-.75-3.511v-11.114h4.8409v10.25c.008 1.031.284 1.845.83 2.444.545.598 1.276.897 2.193.897.583 0 1.128-.132 1.636-.397.508-.273.917-.675 1.227-1.205.319-.53.474-1.186.466-1.966zm8.713 7.432v-17.455h4.693v3.046h.182c.319-1.083.853-1.902 1.603-2.455.75-.56 1.613-.841 2.591-.841.242 0 .503.016.784.046.28.03.526.072.738.125v4.295c-.227-.068-.541-.128-.943-.181-.401-.053-.769-.08-1.102-.08-.712 0-1.349.155-1.909.466-.553.303-.993.727-1.318 1.273-.319.545-.478 1.174-.478 1.886v9.875zm19.705-19.216v-4.0567h19.114v4.0567h-7.126v19.216h-4.863v-19.216zm27.594 19.557c-1.796 0-3.341-.364-4.637-1.091-1.288-.735-2.28-1.773-2.977-3.114-.697-1.348-1.045-2.943-1.045-4.784 0-1.795.348-3.371 1.045-4.727s1.678-2.413 2.943-3.17c1.273-.758 2.765-1.137 4.477-1.137 1.152 0 2.224.186 3.216.557 1 .364 1.872.913 2.614 1.648.75.735 1.333 1.659 1.75 2.772.417 1.107.625 2.402.625 3.887v1.329h-14.739v-3h10.182c0-.697-.151-1.314-.454-1.852s-.724-.958-1.262-1.261c-.53-.311-1.147-.466-1.852-.466-.735 0-1.386.17-1.955.511-.56.334-1 .784-1.318 1.352-.318.561-.481 1.186-.488 1.875v2.853c0 .863.159 1.61.477 2.238.326.629.784 1.114 1.375 1.455s1.292.511 2.102.511c.538 0 1.03-.075 1.477-.227s.83-.379 1.148-.682.561-.674.727-1.113l4.478.295c-.228 1.076-.693 2.015-1.398 2.818-.697.796-1.599 1.417-2.705 1.864-1.098.439-2.367.659-3.806.659zm16.147-.011c-1.113 0-2.106-.194-2.977-.58-.871-.394-1.561-.973-2.068-1.739-.5-.772-.75-1.734-.75-2.886 0-.97.178-1.784.534-2.443s.841-1.19 1.455-1.591c.613-.402 1.31-.705 2.09-.909.788-.205 1.614-.349 2.478-.432 1.015-.106 1.833-.205 2.454-.295.621-.099 1.072-.243 1.353-.432.28-.19.42-.47.42-.841v-.068c0-.72-.227-1.277-.682-1.671-.447-.394-1.083-.591-1.909-.591-.871 0-1.564.193-2.079.58-.516.379-.857.856-1.023 1.432l-4.477-.364c.227-1.061.674-1.977 1.34-2.75.667-.78 1.527-1.379 2.58-1.795 1.061-.425 2.288-.637 3.682-.637.969 0 1.898.114 2.784.341.894.227 1.685.58 2.375 1.057.697.477 1.246 1.091 1.648 1.841.401.742.602 1.632.602 2.67v11.773h-4.591v-2.42h-.136c-.281.545-.656 1.026-1.125 1.443-.47.409-1.034.731-1.694.966-.659.227-1.42.341-2.284.341zm1.387-3.341c.712 0 1.341-.141 1.886-.421.546-.288.974-.674 1.284-1.159.311-.485.466-1.034.466-1.648v-1.852c-.151.099-.36.189-.625.273-.258.076-.549.148-.875.216-.326.06-.651.117-.977.17-.326.046-.621.087-.887.125-.568.084-1.064.216-1.488.398s-.754.428-.989.739c-.235.303-.352.681-.352 1.136 0 .659.239 1.163.716 1.511.485.341 1.098.512 1.841.512zm12.199 3.011v-17.455h4.613v3.08h.205c.363-1.023.969-1.83 1.818-2.42.848-.591 1.864-.887 3.045-.887 1.197 0 2.216.299 3.057.898.841.591 1.402 1.394 1.682 2.409h.182c.356-1 1-1.799 1.932-2.398.939-.606 2.049-.909 3.329-.909 1.629 0 2.951.519 3.966 1.557 1.023 1.03 1.534 2.492 1.534 4.386v11.739h-4.829v-10.784c0-.97-.258-1.697-.773-2.182s-1.159-.727-1.932-.727c-.879 0-1.564.28-2.057.841-.492.553-.738 1.284-.738 2.193v10.659h-4.694v-10.886c0-.856-.246-1.538-.738-2.046-.485-.507-1.125-.761-1.921-.761-.537 0-1.022.136-1.454.409-.424.265-.762.64-1.012 1.125-.25.477-.375 1.038-.375 1.682v10.477z" fill="#475569"/><path d="m72.5952 140.12h182.9688" stroke="#cbd5e1" stroke-linecap="round" stroke-width="5.1906"/><path d="m72.5952 153.096h118.0858" stroke="#e2e8f0" stroke-linecap="round" stroke-width="5.1906"/><rect fill="#e2e8f0" height="103.812" rx="5.1906" width="103.812" x="70" y="176"/><rect fill="#e2e8f0" height="103.812" rx="5.1906" width="103.812" x="201.062" y="176"/><rect fill="#e2e8f0" height="103.812" rx="5.1906" width="103.812" x="332.125" y="176"/><rect fill="#e2e8f0" height="103.812" rx="5.1906" width="103.812" x="463.188" y="176"/><rect fill="#cbd5e1" height="7.7859" rx="3.89295" width="76.5614" x="70" y="290.193"/><rect fill="#8b3dff" height="7.7859" rx="3.89295" width="76.5614" x="201.062" y="290.193"/><rect fill="#cbd5e1" height="7.7859" rx="3.89295" width="76.5614" x="332.125" y="290.193"/><rect fill="#cbd5e1" height="7.7859" rx="3.89295" width="76.5614" x="463.188" y="290.193"/><rect fill="#e2e8f0" height="5.1906" rx="2.5953" width="54.5013" x="70" y="303.17"/><rect fill="#e2e8f0" height="5.1906" rx="2.5953" width="54.5013" x="201.062" y="303.17"/><rect fill="#e2e8f0" height="5.1906" rx="2.5953" width="54.5013" x="332.125" y="303.17"/><rect fill="#e2e8f0" height="5.1906" rx="2.5953" width="54.5013" x="463.188" y="303.17"/><g fill="#cbd5e1"><circle cx="122.555" cy="210.388" r="17.5183"/><circle cx="253.617" cy="215.579" r="17.5183"/><circle cx="384.68" cy="210.388" r="17.5183"/><circle cx="515.743" cy="210.388" r="17.5183"/><path d="m158.24 279.812c0-9.636-3.828-27.961-10.642-34.775s-16.056-10.642-25.692-10.642-18.878 3.828-25.6922 10.642c-6.814 6.814-10.642 25.139-10.642 34.775h36.3342z"/><path d="m289.303 279.813c0-9.637-3.828-24.069-10.642-30.883s-16.056-10.642-25.693-10.642c-9.636 0-18.878 3.828-25.692 10.642s-10.642 21.246-10.642 30.883h36.334z"/><path d="m420.366 279.812c0-9.636-3.828-27.961-10.642-34.775s-16.056-10.642-25.693-10.642c-9.636 0-18.878 3.828-25.692 10.642s-10.642 25.139-10.642 34.775h36.334z"/><path d="m551.428 279.812c0-9.636-3.828-27.961-10.642-34.775s-16.056-10.642-25.692-10.642-18.878 3.828-25.692 10.642-10.642 25.139-10.642 34.775h36.334z"/></g></svg>