<svg width="150" height="150" viewBox="0 0 150 150" fill="none" xmlns="http://www.w3.org/2000/svg">
<path d="M51.4444 5.50841L27.7165 18.1757C25.7846 19.207 24.5781 21.2187 24.5781 23.4086V115.643C24.5781 117.74 25.6853 119.681 27.4902 120.749L72.3066 147.256C74.2643 148.414 76.7118 148.351 78.6069 147.093L100.012 132.885C103.591 130.51 103.537 125.237 99.911 122.935L62.923 99.4559C61.2086 98.3677 60.17 96.4782 60.17 94.4476V10.7414C60.17 6.26214 55.3958 3.39893 51.4444 5.50841Z" fill="black"/>
<path d="M116.702 58.4275L81.1101 36.1826C77.1591 33.7132 72.0342 36.5537 72.0342 41.2129V66.7514C72.0342 68.892 73.1875 70.8666 75.0521 71.9182L85.9806 78.0818C87.8452 79.1334 88.9986 81.108 88.9986 83.2487V95.3278C88.9986 97.2771 89.9563 99.1021 91.5605 100.21L110.188 113.069C114.123 115.785 119.49 112.968 119.49 108.187V63.4578C119.49 61.4126 118.436 59.5115 116.702 58.4275Z" fill="black"/>
</svg>
