<svg width="164" height="47" viewBox="0 0 164 47" fill="none" xmlns="http://www.w3.org/2000/svg">
<g clip-path="url(#clip0_1171_20561)">
<path d="M8.633 7.385C8.633 7.385 7.467 7.269 7.467 8.308V12.923H15.167V14.308C15.167 14.308 15.19 15 14.467 15H7.467V21H15.867C15.867 21 20.953 20.215 21 15V7.385H8.633ZM20.766 0H5.6C0.116 1.292 0 5.792 0 5.792V21H5.834V7.154C5.834 5.977 7 5.77 7 5.77H20.767V0H20.766ZM40.788 16.648C40.388 16.915 40.092 17.111 39.883 17.236C39.135 17.699 38.422 18.056 37.761 18.341C36.804 18.733 35.951 18.929 35.186 18.929C32.559 18.929 30.384 18.127 28.626 16.505C26.868 14.883 26 12.852 26 10.393C26 8.023 26.783 5.973 28.366 4.226C29.949 2.48 31.863 1.624 34.125 1.624C35.065 1.624 36.073 1.784 37.117 2.124C38.474 2.551 39.57 3.193 40.44 4.03L38.926 5.705C38.283 5.082 37.448 4.618 36.473 4.333C35.743 4.119 34.943 4.013 34.055 4.013C32.472 4.013 31.132 4.653 30.071 5.919C29.01 7.202 28.471 8.717 28.471 10.499C28.471 12.264 29.079 13.707 30.297 14.866C31.515 16.024 33.063 16.612 34.942 16.612C35.725 16.612 36.526 16.362 37.343 15.882C38.022 15.365 38.37 15.115 38.387 15.097V11.444H33.307L34.037 9.163H40.788V16.648ZM56.133 12.192C56.133 13.956 55.507 15.489 54.254 16.772C53.001 18.055 51.453 18.715 49.609 18.715C47.904 18.715 46.408 18.073 45.12 16.808C43.832 15.543 43.206 14.01 43.206 12.21C43.206 10.428 43.816 8.895 45.033 7.576C46.25 6.257 47.747 5.616 49.504 5.616C51.453 5.616 53.036 6.24 54.271 7.505C55.507 8.735 56.133 10.303 56.133 12.192ZM53.749 12.228C53.749 11.034 53.349 10.018 52.549 9.198C51.749 8.36 50.757 7.95 49.574 7.95C48.461 7.95 47.521 8.378 46.738 9.234C45.955 10.089 45.572 11.069 45.572 12.174C45.572 13.333 45.972 14.313 46.755 15.133C47.538 15.953 48.513 16.38 49.695 16.38C50.792 16.38 51.731 15.97 52.532 15.15C53.349 14.33 53.75 13.35 53.75 12.228H53.749ZM71.269 12.192C71.269 13.956 70.643 15.489 69.39 16.772C68.137 18.055 66.589 18.715 64.745 18.715C63.04 18.715 61.544 18.073 60.256 16.808C58.969 15.543 58.342 14.01 58.342 12.21C58.342 10.428 58.952 8.895 60.169 7.576C61.387 6.257 62.883 5.616 64.64 5.616C66.589 5.616 68.172 6.24 69.407 7.505C70.643 8.735 71.269 10.303 71.269 12.192ZM68.885 12.228C68.885 11.034 68.485 10.018 67.685 9.198C66.885 8.36 65.893 7.95 64.71 7.95C63.597 7.95 62.657 8.378 61.874 9.234C61.091 10.089 60.708 11.069 60.708 12.174C60.708 13.333 61.108 14.313 61.892 15.133C62.674 15.953 63.649 16.38 64.832 16.38C65.928 16.38 66.867 15.97 67.668 15.15C68.485 14.33 68.886 13.35 68.886 12.228H68.885ZM85.275 18.358L83.083 18.697V16.576L82.613 17.11C82.199 17.4978 81.7299 17.8223 81.221 18.073C80.474 18.4175 79.6606 18.594 78.838 18.59C77.133 18.59 75.671 17.966 74.488 16.7C73.305 15.434 72.714 13.938 72.714 12.192C72.714 10.392 73.305 8.842 74.471 7.558C75.637 6.274 77.063 5.633 78.768 5.633C79.743 5.633 80.595 5.793 81.308 6.114C81.813 6.346 82.248 6.649 82.613 7.024C82.735 7.184 82.857 7.362 82.979 7.522V1.962L85.309 1.623L85.275 18.358ZM83.222 12.352C83.222 11.105 82.804 10.053 81.952 9.198C81.1 8.324 80.142 7.897 79.047 7.897C77.829 7.897 76.855 8.307 76.107 9.127C75.41 9.91 75.045 10.873 75.045 11.996C75.045 13.261 75.41 14.312 76.141 15.132C76.871 15.952 77.794 16.362 78.925 16.362C80.038 16.362 81.013 15.988 81.883 15.222C82.77 14.437 83.223 13.475 83.223 12.352H83.222ZM97.575 4.28H91.051V8.717H96.113V10.998H91.051V18.341L88.511 18.715V1.98H97.07L97.575 4.28ZM102.812 2.978L101.246 4.956L99.75 2.978L101.333 1.018L102.812 2.978ZM102.342 18.358L100.011 18.679V6.293L102.342 5.937V18.359V18.358ZM112.868 5.812L111.772 8.342C111.628 8.32005 111.483 8.30835 111.337 8.307C111.111 8.307 110.885 8.325 110.658 8.36C110.431 8.395 110.188 8.485 109.928 8.61C109.441 8.824 109.023 9.287 108.658 9.982C108.254 10.7708 108.045 11.6448 108.048 12.531V18.341L105.718 18.715V6.293L107.875 5.901V8.485C108.153 8.039 108.449 7.594 108.727 7.131C109.127 6.667 109.597 6.329 110.119 6.132C110.397 6.026 110.902 5.936 111.667 5.865C112.398 5.812 112.816 5.776 112.868 5.812ZM130.23 18.358L127.899 18.697V10.196C127.899 9.411 127.725 8.841 127.377 8.485C127.029 8.128 126.507 7.95 125.828 7.95C125.011 7.95 124.384 8.289 123.967 8.966C123.688 9.429 123.532 9.928 123.532 10.427V18.34L121.201 18.768V10.249C121.201 9.501 121.027 8.93 120.696 8.539C120.348 8.146 119.896 7.95 119.304 7.95H119.078C118.26 7.95 117.668 8.289 117.303 8.984C117.025 9.501 116.886 10.16 116.886 10.962V18.34L114.468 18.768V6.293L116.642 5.919V7.505C116.886 7.13 117.129 6.827 117.356 6.614C117.982 6.026 118.713 5.74 119.53 5.74C120.452 5.74 121.13 5.883 121.6 6.186C122 6.436 122.383 6.934 122.766 7.647C123.566 6.382 124.697 5.74 126.194 5.74C127.62 5.74 128.682 6.186 129.377 7.095C129.952 7.843 130.23 8.948 130.23 10.392V18.358ZM140.88 14.598C140.88 15.738 140.48 16.683 139.68 17.414C138.88 18.162 137.87 18.519 136.652 18.519C135.73 18.519 134.912 18.305 134.164 17.877C133.416 17.45 132.86 16.968 132.494 16.398L134.13 14.937C134.251 15.115 134.356 15.257 134.46 15.364C135.07 15.988 135.8 16.309 136.652 16.309C137.244 16.309 137.714 16.149 138.044 15.846C138.392 15.543 138.549 15.115 138.549 14.562C138.549 13.939 138.149 13.511 137.349 13.279C135.765 12.798 134.912 12.531 134.791 12.477C134.06 12.103 133.538 11.711 133.207 11.265C132.842 10.748 132.651 10.071 132.651 9.198C132.651 8.128 133.051 7.238 133.834 6.525C134.617 5.812 135.556 5.473 136.634 5.473C137.453 5.473 138.218 5.651 138.914 6.026C139.61 6.4 140.114 6.792 140.41 7.256L139.018 8.77C138.809 8.56073 138.582 8.37001 138.34 8.2C137.783 7.808 137.244 7.612 136.74 7.612C136.252 7.612 135.852 7.719 135.539 7.932C135.173 8.2 134.982 8.592 134.982 9.109C134.982 9.608 135.156 9.982 135.522 10.214C135.835 10.41 136.496 10.624 137.54 10.855C138.583 11.105 139.384 11.533 139.958 12.139C140.602 12.78 140.88 13.582 140.88 14.598Z" fill="#3A7AF3"/>
</g>
<g clip-path="url(#clip1_1171_20561)">
<path d="M3.57314 46.5126C3.23539 46.6858 2.85214 46.3822 2.92039 45.9946L3.64664 41.8558L0.564015 38.9193C0.27614 38.6446 0.425765 38.1423 0.81164 38.0881L5.09739 37.4791L7.00839 33.6929C7.18077 33.3517 7.64714 33.3517 7.81952 33.6929L9.73052 37.4791L14.0163 38.0881C14.4021 38.1423 14.5518 38.6446 14.263 38.9193L11.1813 41.8558L11.9075 45.9946C11.9758 46.3822 11.5925 46.6858 11.2548 46.5126L7.41264 44.5386L3.57227 46.5126H3.57314Z" fill="#FFC107"/>
</g>
<g clip-path="url(#clip2_1171_20561)">
<path d="M19.5734 46.5126C19.2356 46.6858 18.8524 46.3822 18.9206 45.9946L19.6469 41.8558L16.5643 38.9193C16.2764 38.6446 16.426 38.1423 16.8119 38.0881L21.0976 37.4791L23.0086 33.6929C23.181 33.3517 23.6474 33.3517 23.8198 33.6929L25.7308 37.4791L30.0165 38.0881C30.4024 38.1423 30.552 38.6446 30.2633 38.9193L27.1815 41.8558L27.9078 45.9946C27.976 46.3822 27.5928 46.6858 27.255 46.5126L23.4129 44.5386L19.5725 46.5126H19.5734Z" fill="#FFC107"/>
</g>
<g clip-path="url(#clip3_1171_20561)">
<path d="M35.5734 46.5126C35.2356 46.6858 34.8524 46.3822 34.9206 45.9946L35.6469 41.8558L32.5643 38.9193C32.2764 38.6446 32.426 38.1423 32.8119 38.0881L37.0976 37.4791L39.0086 33.6929C39.181 33.3517 39.6474 33.3517 39.8198 33.6929L41.7308 37.4791L46.0165 38.0881C46.4024 38.1423 46.552 38.6446 46.2633 38.9193L43.1815 41.8558L43.9078 45.9946C43.976 46.3822 43.5928 46.6858 43.255 46.5126L39.4129 44.5386L35.5725 46.5126H35.5734Z" fill="#FFC107"/>
</g>
<g clip-path="url(#clip4_1171_20561)">
<path d="M51.5734 46.5126C51.2356 46.6858 50.8524 46.3822 50.9206 45.9946L51.6469 41.8558L48.5643 38.9193C48.2764 38.6446 48.426 38.1423 48.8119 38.0881L53.0976 37.4791L55.0086 33.6929C55.181 33.3517 55.6474 33.3517 55.8198 33.6929L57.7308 37.4791L62.0165 38.0881C62.4024 38.1423 62.552 38.6446 62.2633 38.9193L59.1815 41.8558L59.9078 45.9946C59.976 46.3822 59.5928 46.6858 59.255 46.5126L55.4129 44.5386L51.5725 46.5126H51.5734Z" fill="#FFC107"/>
</g>
<g clip-path="url(#clip5_1171_20561)">
<path d="M67.5734 46.5126C67.2356 46.6858 66.8524 46.3822 66.9206 45.9946L67.6469 41.8558L64.5643 38.9193C64.2764 38.6446 64.426 38.1423 64.8119 38.0881L69.0976 37.4791L71.0086 33.6929C71.181 33.3517 71.6474 33.3517 71.8198 33.6929L73.7308 37.4791L78.0165 38.0881C78.4024 38.1423 78.552 38.6446 78.2633 38.9193L75.1815 41.8558L75.9078 45.9946C75.976 46.3822 75.5928 46.6858 75.255 46.5126L71.4129 44.5386L67.5725 46.5126H67.5734Z" fill="#FFC107"/>
</g>
<path d="M95.9926 41.794L93.6266 45H92.0306L94.5646 41.64C94.2146 41.78 93.8506 41.85 93.5006 41.85C91.4006 41.85 89.9866 40.338 89.9866 38.322C89.9866 36.222 91.5826 34.696 93.6686 34.696C95.7686 34.696 97.3926 36.278 97.3926 38.336C97.3926 39.526 97.0286 40.38 95.9926 41.794ZM95.9926 38.322C95.9926 36.936 95.0406 35.928 93.6686 35.928C92.3246 35.928 91.3726 36.936 91.3726 38.322C91.3726 39.708 92.3246 40.688 93.6686 40.688C95.0406 40.688 95.9926 39.708 95.9926 38.322ZM104.347 45H102.975V34.878H106.797C108.967 34.878 110.255 36.026 110.255 37.916C110.255 39.316 109.555 40.324 108.295 40.73L110.353 45H108.827L106.937 40.996H104.347V45ZM104.347 36.11V39.778H106.811C108.085 39.778 108.813 39.092 108.813 37.93C108.813 36.754 108.057 36.11 106.797 36.11H104.347ZM118.309 45H112.135V34.878H118.309V36.138H113.507V39.302H117.833V40.52H113.507V43.726H118.309V45ZM123.112 45L119.262 34.878H120.732L123.196 41.346C123.42 41.92 123.616 42.494 123.826 43.25C124.064 42.452 124.302 41.78 124.47 41.332L126.92 34.878H128.348L124.54 45H123.112ZM131.035 34.878V45H129.663V34.878H131.035ZM139.569 45H133.395V34.878H139.569V36.138H134.767V39.302H139.093V40.52H134.767V43.726H139.569V45ZM143.601 45L140.591 34.878H142.019L143.867 41.066C144.007 41.598 144.147 42.13 144.287 42.9C144.455 42.088 144.609 41.598 144.763 41.066L146.681 34.878H148.165L150.069 41.066C150.237 41.612 150.377 42.144 150.531 42.9C150.699 42.046 150.839 41.528 150.979 41.08L152.841 34.878H154.241L151.189 45H149.873L147.423 36.992L144.945 45H143.601ZM154.983 37.608C154.983 35.872 156.383 34.696 158.469 34.696C160.401 34.696 161.647 35.774 161.759 37.524H160.373C160.303 36.516 159.589 35.928 158.455 35.928C157.181 35.928 156.355 36.572 156.355 37.566C156.355 38.378 156.817 38.868 157.769 39.092L159.435 39.484C161.087 39.862 161.927 40.758 161.927 42.186C161.927 44.006 160.513 45.168 158.357 45.168C156.299 45.168 154.927 44.09 154.843 42.354H156.243C156.271 43.32 157.083 43.936 158.357 43.936C159.701 43.936 160.555 43.306 160.555 42.298C160.555 41.5 160.121 40.996 159.155 40.772L157.489 40.394C155.837 40.016 154.983 39.064 154.983 37.608Z" fill="#475569"/>
<defs>
<clipPath id="clip0_1171_20561">
<rect width="141" height="21" fill="white"/>
</clipPath>
<clipPath id="clip1_1171_20561">
<rect width="14" height="14" fill="white" transform="translate(0.412598 33)"/>
</clipPath>
<clipPath id="clip2_1171_20561">
<rect width="14" height="14" fill="white" transform="translate(16.4126 33)"/>
</clipPath>
<clipPath id="clip3_1171_20561">
<rect width="14" height="14" fill="white" transform="translate(32.4126 33)"/>
</clipPath>
<clipPath id="clip4_1171_20561">
<rect width="14" height="14" fill="white" transform="translate(48.4126 33)"/>
</clipPath>
<clipPath id="clip5_1171_20561">
<rect width="14" height="14" fill="white" transform="translate(64.4126 33)"/>
</clipPath>
</defs>
</svg>
