<svg width="187" height="49" viewBox="0 0 187 49" fill="none" xmlns="http://www.w3.org/2000/svg">
<g clip-path="url(#clip0_1171_20562)">
<path d="M22.8098 0.197266H26.7971V25.1178H22.8098V0.197266ZM40.7526 17.1682C40.7526 20.982 37.5458 21.286 36.5919 21.286C34.2085 21.286 33.7749 19.0551 33.7749 17.7094V8.17184H29.7876V17.6895C29.7876 20.052 30.5292 22.0018 31.8291 23.3016C32.9774 24.4509 34.6979 25.0789 36.562 25.0789C37.8838 25.0789 39.7558 24.6673 40.7526 23.7572V25.1178H44.7399V8.17184H40.7526V17.1682ZM52.7145 2.19091H48.7272V8.17184H45.7367V12.1591H48.7272V25.1178H52.7145V12.1591H55.705V8.17184H52.7145V2.19091ZM68.2619 20.051C67.3937 20.8315 66.2474 21.2641 64.9894 21.2641C62.2162 21.2641 60.1797 19.2276 60.1797 16.4315C60.1797 13.6354 62.1514 11.6846 64.9894 11.6846C66.2254 11.6846 67.3937 12.0963 68.2839 12.8768L68.8889 13.3972L71.5774 10.7098L70.9045 10.1027C69.3225 8.67424 67.2222 7.8728 64.9884 7.8728C60.0043 7.8728 56.3848 11.4693 56.3848 16.4106C56.3848 21.3309 60.091 25.056 64.9884 25.056C67.2641 25.056 69.3863 24.2546 70.9484 22.8032L71.5983 22.1961L68.868 19.5107L68.2619 20.051ZM85.809 9.64913C84.6606 8.50079 83.3149 7.8728 81.4509 7.8728C80.1291 7.8728 78.6319 8.28448 77.635 9.19359V0.197266H73.6478V25.1178H77.635V15.7826C77.635 11.9687 80.3444 11.6657 81.2984 11.6657C83.6818 11.6657 83.616 13.8976 83.616 15.2413V25.1178H87.6033V15.2622C87.6033 12.8998 87.1098 10.95 85.809 9.64913" fill="#1E293B"/>
<path d="M64.8579 13.5925C65.6225 13.5925 66.3557 13.8963 66.8964 14.4369C67.437 14.9775 67.7407 15.7108 67.7407 16.4753C67.7407 17.2399 67.437 17.9732 66.8964 18.5138C66.3557 19.0544 65.6225 19.3581 64.8579 19.3581C64.0933 19.3581 63.3601 19.0544 62.8195 18.5138C62.2788 17.9732 61.9751 17.2399 61.9751 16.4753C61.9751 15.7108 62.2788 14.9775 62.8195 14.4369C63.3601 13.8963 64.0933 13.5925 64.8579 13.5925" fill="#FF3D2E"/>
<path d="M17.2276 18.8588C15.7115 20.4188 13.652 21.2641 11.4849 21.2641C7.0431 21.2641 3.8134 17.7752 3.8134 12.9865C3.8134 8.17581 7.0431 4.68693 11.4849 4.68693C13.6311 4.68693 15.6676 5.53124 17.2067 7.07033L17.8128 7.6774L20.4783 5.01189L19.8931 4.40483C17.6832 2.12909 14.6927 0.89502 11.4849 0.89502C4.9408 0.89502 0.0214844 6.09544 0.0214844 13.0074C0.0214844 19.8984 4.96273 25.0779 11.4849 25.0779C14.7146 25.0779 17.7051 23.8219 19.9151 21.5462L20.5002 20.9391L17.8566 18.2308L17.2276 18.8588Z" fill="#1E293B"/>
</g>
<path d="M2.548 42.803H1.176V32.681H4.998C7.168 32.681 8.456 33.829 8.456 35.719C8.456 37.119 7.756 38.127 6.496 38.533L8.554 42.803H7.028L5.138 38.799H2.548V42.803ZM2.548 33.913V37.581H5.012C6.286 37.581 7.014 36.895 7.014 35.733C7.014 34.557 6.258 33.913 4.998 33.913H2.548ZM16.5102 42.803H10.3362V32.681H16.5102V33.941H11.7082V37.105H16.0342V38.323H11.7082V41.529H16.5102V42.803ZM21.3123 42.803L17.4623 32.681H18.9323L21.3963 39.149C21.6203 39.723 21.8163 40.297 22.0263 41.053C22.2643 40.255 22.5023 39.583 22.6703 39.135L25.1203 32.681H26.5483L22.7403 42.803H21.3123ZM29.2355 32.681V42.803H27.8635V32.681H29.2355ZM37.7699 42.803H31.5959V32.681H37.7699V33.941H32.9679V37.105H37.2939V38.323H32.9679V41.529H37.7699V42.803ZM41.802 42.803L38.792 32.681H40.22L42.068 38.869C42.208 39.401 42.348 39.933 42.488 40.703C42.656 39.891 42.81 39.401 42.964 38.869L44.882 32.681H46.366L48.27 38.869C48.438 39.415 48.578 39.947 48.732 40.703C48.9 39.849 49.04 39.331 49.18 38.883L51.042 32.681H52.442L49.39 42.803H48.074L45.624 34.795L43.146 42.803H41.802ZM60.0004 42.803H53.8264V32.681H60.0004V33.941H55.1984V37.105H59.5244V38.323H55.1984V41.529H60.0004V42.803ZM65.3345 42.803H61.9885V32.681H65.2785C68.3025 32.681 70.3465 34.725 70.3465 37.749C70.3465 40.759 68.3305 42.803 65.3345 42.803ZM65.1805 33.941H63.3605V41.529H65.2365C67.4905 41.529 68.9185 40.073 68.9185 37.749C68.9185 35.397 67.4905 33.941 65.1805 33.941ZM85.0481 37.735C85.0481 40.815 83.0321 42.971 80.1621 42.971C77.3061 42.971 75.3181 40.815 75.3181 37.735C75.3181 34.669 77.3201 32.499 80.1761 32.499C83.0461 32.499 85.0481 34.655 85.0481 37.735ZM83.6061 37.735C83.6061 35.383 82.2341 33.829 80.1761 33.829C78.1181 33.829 76.7601 35.383 76.7601 37.735C76.7601 40.087 78.1181 41.655 80.1761 41.655C82.2341 41.655 83.6061 40.073 83.6061 37.735ZM88.175 42.803H86.803V32.681H88.175L93.355 40.507V32.681H94.727V42.803H93.355L88.175 34.977V42.803Z" fill="#475569"/>
<g clip-path="url(#clip1_1171_20562)">
<path d="M110.29 21.485C109.952 21.6582 109.569 21.3546 109.637 20.967L110.363 16.8282L107.281 13.8917C106.993 13.617 107.142 13.1147 107.528 13.0605L111.814 12.4515L113.725 8.66536C113.897 8.32411 114.364 8.32411 114.536 8.66536L116.447 12.4515L120.733 13.0605C121.119 13.1147 121.268 13.617 120.98 13.8917L117.898 16.8282L118.624 20.967C118.692 21.3546 118.309 21.6582 117.971 21.485L114.129 19.511L110.289 21.485H110.29Z" fill="#FF3D2E"/>
</g>
<g clip-path="url(#clip2_1171_20562)">
<path d="M125.975 21.485C125.638 21.6582 125.254 21.3546 125.323 20.967L126.049 16.8282L122.966 13.8917C122.678 13.617 122.828 13.1147 123.214 13.0605L127.5 12.4515L129.411 8.66536C129.583 8.32411 130.049 8.32411 130.222 8.66536L132.133 12.4515L136.419 13.0605C136.804 13.1147 136.954 13.617 136.665 13.8917L133.584 16.8282L134.31 20.967C134.378 21.3546 133.995 21.6582 133.657 21.485L129.815 19.511L125.975 21.485H125.975Z" fill="#FF3D2E"/>
</g>
<g clip-path="url(#clip3_1171_20562)">
<path d="M141.661 21.485C141.323 21.6582 140.94 21.3546 141.008 20.967L141.734 16.8282L138.651 13.8917C138.364 13.617 138.513 13.1147 138.899 13.0605L143.185 12.4515L145.096 8.66536C145.268 8.32411 145.735 8.32411 145.907 8.66536L147.818 12.4515L152.104 13.0605C152.49 13.1147 152.639 13.617 152.35 13.8917L149.269 16.8282L149.995 20.967C150.063 21.3546 149.68 21.6582 149.342 21.485L145.5 19.511L141.66 21.485H141.661Z" fill="#FF3D2E"/>
</g>
<g clip-path="url(#clip4_1171_20562)">
<path d="M157.345 21.485C157.008 21.6582 156.624 21.3546 156.693 20.967L157.419 16.8282L154.336 13.8917C154.048 13.617 154.198 13.1147 154.584 13.0605L158.87 12.4515L160.781 8.66536C160.953 8.32411 161.419 8.32411 161.592 8.66536L163.503 12.4515L167.788 13.0605C168.174 13.1147 168.324 13.617 168.035 13.8917L164.953 16.8282L165.68 20.967C165.748 21.3546 165.365 21.6582 165.027 21.485L161.185 19.511L157.344 21.485H157.345Z" fill="#FF3D2E"/>
</g>
<g clip-path="url(#clip5_1171_20562)">
<path d="M173.03 21.485C172.693 21.6582 172.309 21.3546 172.378 20.967L173.104 16.8282L170.021 13.8917C169.733 13.617 169.883 13.1147 170.269 13.0605L174.555 12.4515L176.466 8.66536C176.638 8.32411 177.104 8.32411 177.277 8.66536L179.188 12.4515L183.474 13.0605C183.859 13.1147 184.009 13.617 183.72 13.8917L180.639 16.8282L181.365 20.967C181.433 21.3546 181.05 21.6582 180.712 21.485L176.87 19.511L173.03 21.485H173.03Z" fill="#FF3D2E"/>
</g>
<path d="M108.088 44.251C106.016 44.251 104.672 42.935 104.672 40.919H106.03C106.03 42.221 106.828 43.019 108.116 43.019C109.488 43.019 110.37 42.109 110.37 40.737C110.37 39.435 109.544 38.469 108.13 38.469C107.276 38.469 106.492 38.875 106.03 39.449L104.868 39.155L106.1 33.961H111.168V35.221H107.094L106.422 37.909C106.954 37.503 107.626 37.293 108.382 37.293C110.44 37.293 111.77 38.735 111.77 40.681C111.77 42.781 110.272 44.251 108.088 44.251ZM113.903 44.251C113.357 44.251 112.895 43.803 112.895 43.271C112.895 42.725 113.357 42.277 113.903 42.277C114.435 42.277 114.897 42.725 114.897 43.271C114.897 43.803 114.435 44.251 113.903 44.251ZM115.952 39.029C115.952 35.893 117.576 33.765 120.124 33.765C122.658 33.765 124.282 35.893 124.282 39.029C124.282 42.179 122.728 44.265 120.124 44.265C117.506 44.265 115.952 42.179 115.952 39.029ZM117.31 39.029C117.31 41.521 118.346 43.033 120.124 43.033C121.902 43.033 122.924 41.521 122.924 39.029C122.924 36.509 121.902 34.997 120.124 34.997C118.346 34.997 117.31 36.509 117.31 39.029ZM131.349 44.083H129.977V33.961H133.799C135.969 33.961 137.257 35.109 137.257 36.999C137.257 38.399 136.557 39.407 135.297 39.813L137.355 44.083H135.829L133.939 40.079H131.349V44.083ZM131.349 35.193V38.861H133.813C135.087 38.861 135.815 38.175 135.815 37.013C135.815 35.837 135.059 35.193 133.799 35.193H131.349ZM139.557 44.083H138.129L141.825 33.961H143.351L147.061 44.083H145.619L144.709 41.563H140.453L139.557 44.083ZM142.413 36.145L140.873 40.373H144.303L142.749 36.145C142.679 35.949 142.609 35.711 142.581 35.557C142.553 35.697 142.483 35.935 142.413 36.145ZM146.51 35.221V33.961H153.972V35.221H150.934V44.083H149.562V35.221H146.51ZM156.724 33.961V44.083H155.352V33.961H156.724ZM160.456 44.083H159.084V33.961H160.456L165.636 41.787V33.961H167.008V44.083H165.636L160.456 36.257V44.083ZM173.705 35.081C171.521 35.081 170.205 36.691 170.205 39.085C170.205 41.535 171.633 42.949 173.719 42.949C175.441 42.949 176.827 42.067 176.827 40.023V39.729H173.439V38.511H178.115V44.097H176.967L176.869 42.725C176.323 43.607 175.091 44.251 173.607 44.251C170.737 44.251 168.763 42.179 168.763 39.057C168.763 35.977 170.751 33.793 173.733 33.793C175.945 33.793 177.667 35.067 178.003 37.013H176.547C176.169 35.725 175.049 35.081 173.705 35.081ZM179.483 36.691C179.483 34.955 180.883 33.779 182.969 33.779C184.901 33.779 186.147 34.857 186.259 36.607H184.873C184.803 35.599 184.089 35.011 182.955 35.011C181.681 35.011 180.855 35.655 180.855 36.649C180.855 37.461 181.317 37.951 182.269 38.175L183.935 38.567C185.587 38.945 186.427 39.841 186.427 41.269C186.427 43.089 185.013 44.251 182.857 44.251C180.799 44.251 179.427 43.173 179.343 41.437H180.743C180.771 42.403 181.583 43.019 182.857 43.019C184.201 43.019 185.055 42.389 185.055 41.381C185.055 40.583 184.621 40.079 183.655 39.855L181.989 39.477C180.337 39.099 179.483 38.147 179.483 36.691Z" fill="#475569"/>
<defs>
<clipPath id="clip0_1171_20562">
<rect width="87.625" height="24.9206" fill="white" transform="translate(0 0.197266)"/>
</clipPath>
<clipPath id="clip1_1171_20562">
<rect width="14" height="14" fill="white" transform="translate(107.13 7.97241)"/>
</clipPath>
<clipPath id="clip2_1171_20562">
<rect width="14" height="14" fill="white" transform="translate(122.815 7.97241)"/>
</clipPath>
<clipPath id="clip3_1171_20562">
<rect width="14" height="14" fill="white" transform="translate(138.5 7.97241)"/>
</clipPath>
<clipPath id="clip4_1171_20562">
<rect width="14" height="14" fill="white" transform="translate(154.185 7.97241)"/>
</clipPath>
<clipPath id="clip5_1171_20562">
<rect width="14" height="14" fill="white" transform="translate(169.87 7.97241)"/>
</clipPath>
</defs>
</svg>
