<svg width="216" height="65" viewBox="0 0 216 65" fill="none" xmlns="http://www.w3.org/2000/svg">
<g filter="url(#filter0_d_1710_19226)">
<rect y="0.891785" width="212.011" height="59.8619" rx="9.97699" fill="#FFF7CD" shape-rendering="crispEdges"/>
<g clip-path="url(#clip0_1710_19226)">
<path d="M44.8963 30.8227C44.8963 34.7918 43.3196 38.5983 40.513 41.4049C37.7064 44.2115 33.8999 45.7882 29.9308 45.7882C25.9617 45.7882 22.1552 44.2115 19.3486 41.4049C16.542 38.5983 14.9653 34.7918 14.9653 30.8227C14.9653 26.8536 16.542 23.0471 19.3486 20.2405C22.1552 17.434 25.9617 15.8572 29.9308 15.8572C33.8999 15.8572 37.7064 17.434 40.513 20.2405C43.3196 23.0471 44.8963 26.8536 44.8963 30.8227ZM37.4697 25.1545C37.336 25.0214 37.1769 24.9165 37.0019 24.8463C36.8268 24.776 36.6394 24.7418 36.4508 24.7456C36.2621 24.7495 36.0763 24.7913 35.9042 24.8686C35.7321 24.946 35.5774 25.0572 35.4493 25.1957L28.9524 33.4735L25.0371 29.5563C24.7711 29.3084 24.4194 29.1735 24.0559 29.1799C23.6924 29.1863 23.3456 29.3336 23.0886 29.5906C22.8315 29.8477 22.6843 30.1945 22.6778 30.558C22.6714 30.9214 22.8063 31.2732 23.0542 31.5392L28.004 36.4909C28.1374 36.624 28.2961 36.7289 28.4709 36.7993C28.6457 36.8697 28.8328 36.9042 29.0212 36.9007C29.2096 36.8972 29.3953 36.8558 29.5673 36.779C29.7394 36.7021 29.8942 36.5914 30.0225 36.4535L37.4902 27.1188C37.7448 26.8541 37.8855 26.5001 37.882 26.1328C37.8785 25.7656 37.7311 25.4143 37.4715 25.1545H37.4697Z" fill="#FFC107"/>
</g>
<rect x="59.8618" y="20.8458" width="134.689" height="6.23562" rx="2.49425" fill="#B78103"/>
<rect x="59.8618" y="34.5641" width="96.0285" height="6.23562" rx="2.49425" fill="#FFE16A"/>
</g>
<defs>
<filter id="filter0_d_1710_19226" x="0" y="0.891785" width="215.752" height="63.6033" filterUnits="userSpaceOnUse" color-interpolation-filters="sRGB">
<feFlood flood-opacity="0" result="BackgroundImageFix"/>
<feColorMatrix in="SourceAlpha" type="matrix" values="0 0 0 0 0 0 0 0 0 0 0 0 0 0 0 0 0 0 127 0" result="hardAlpha"/>
<feOffset dx="3.74137" dy="3.74137"/>
<feComposite in2="hardAlpha" operator="out"/>
<feColorMatrix type="matrix" values="0 0 0 0 1 0 0 0 0 0.756863 0 0 0 0 0.0431373 0 0 0 1 0"/>
<feBlend mode="normal" in2="BackgroundImageFix" result="effect1_dropShadow_1710_19226"/>
<feBlend mode="normal" in="SourceGraphic" in2="effect1_dropShadow_1710_19226" result="shape"/>
</filter>
<clipPath id="clip0_1710_19226">
<rect width="29.931" height="29.931" fill="white" transform="translate(14.9653 15.8572)"/>
</clipPath>
</defs>
</svg>
