<svg width="72" height="72" viewBox="0 0 72 72" fill="none" xmlns="http://www.w3.org/2000/svg">
<path d="M28.8525 14.9135L21.6525 18.7572C21.0663 19.0702 20.7002 19.6806 20.7002 20.3451V48.3327C20.7002 48.969 21.0362 49.5581 21.5838 49.882L35.1829 57.9254C35.777 58.2768 36.5196 58.2575 37.0947 57.8759L43.59 53.5647C44.6759 52.8439 44.6596 51.2437 43.5592 50.5453L32.3355 43.4209C31.8154 43.0907 31.5002 42.5173 31.5002 41.9012V16.5014C31.5002 15.1422 30.0515 14.2734 28.8525 14.9135Z" fill="#8B3DFF"/>
<path d="M48.6541 30.9712L37.8541 24.2212C36.6552 23.4719 35.1001 24.3339 35.1001 25.7476V33.497C35.1001 34.1466 35.4501 34.7458 36.0159 35.0649L39.332 36.9351C39.8978 37.2542 40.2478 37.8534 40.2478 38.503V42.1682C40.2478 42.7598 40.5384 43.3135 41.0252 43.6496L46.6775 47.5515C47.8715 48.3758 49.5001 47.5211 49.5001 46.0702V32.4976C49.5001 31.877 49.1804 31.3002 48.6541 30.9712Z" fill="#8B3DFF"/>
</svg>
