<svg fill="none" height="400" viewBox="0 0 636 400" width="636" xmlns="http://www.w3.org/2000/svg" xmlns:xlink="http://www.w3.org/1999/xlink"><filter id="a" color-interpolation-filters="sRGB" filterUnits="userSpaceOnUse" height="336" width="572" x="32" y="36"><feFlood flood-opacity="0" result="BackgroundImageFix"/><feColorMatrix in="SourceAlpha" result="hardAlpha" type="matrix" values="0 0 0 0 0 0 0 0 0 0 0 0 0 0 0 0 0 0 127 0"/><feOffset dy="4"/><feGaussianBlur stdDeviation="4"/><feColorMatrix type="matrix" values="0 0 0 0 0.559444 0 0 0 0 0.559444 0 0 0 0 0.633333 0 0 0 0.16 0"/><feBlend in2="BackgroundImageFix" mode="normal" result="effect1_dropShadow_1850_2589"/><feBlend in="SourceGraphic" in2="effect1_dropShadow_1850_2589" mode="normal" result="shape"/></filter><filter id="b" color-interpolation-filters="sRGB" filterUnits="userSpaceOnUse" height="190.149" width="169.139" x="234.589" y="156.472"><feFlood flood-opacity="0" result="BackgroundImageFix"/><feColorMatrix in="SourceAlpha" result="hardAlpha" type="matrix" values="0 0 0 0 0 0 0 0 0 0 0 0 0 0 0 0 0 0 127 0"/><feOffset dy="5.51539"/><feGaussianBlur stdDeviation="5.51539"/><feColorMatrix type="matrix" values="0 0 0 0 0.0117647 0 0 0 0 0 0 0 0 0 0.278431 0 0 0 0.1 0"/><feBlend in2="BackgroundImageFix" mode="normal" result="effect1_dropShadow_1850_2589"/><feBlend in="SourceGraphic" in2="effect1_dropShadow_1850_2589" mode="normal" result="shape"/></filter><linearGradient id="c"><stop offset="0" stop-color="#b4bed8"/><stop offset="1" stop-color="#c1c6d2" stop-opacity="0"/></linearGradient><linearGradient id="d" gradientUnits="userSpaceOnUse" x1="149.855" x2="149.855" xlink:href="#c" y1="162.178" y2="235.527"/><linearGradient id="e" gradientUnits="userSpaceOnUse" x1="488.462" x2="488.462" xlink:href="#c" y1="162.178" y2="235.527"/><linearGradient id="f" gradientUnits="userSpaceOnUse" x1="319.158" x2="319.158" xlink:href="#c" y1="162.178" y2="235.527"/><path d="m0 0h636v400h-636z" fill="#e3e9f1" fill-opacity=".5"/><g filter="url(#a)"><rect fill="#fff" height="320" rx="16" width="556" x="40" y="40"/></g><path d="m77.592 100v-23.136h8.384c3.0293 0 5.2747.5227 6.736 1.568 1.472 1.0347 2.208 2.5333 2.208 4.496 0 1.152-.2933 2.1547-.88 3.008-.5867.8427-1.632 1.5787-3.136 2.208.9707.2453 1.7547.576 2.352.992s1.056.88 1.376 1.392c.32.5013.5387 1.0293.656 1.584.1173.544.176 1.0827.176 1.616 0 2.1333-.7253 3.712-2.176 4.736s-3.76 1.536-6.928 1.536zm4.656-3.616h4.208c1.408 0 2.4693-.2827 3.184-.848.7253-.5653 1.088-1.3227 1.088-2.272 0-.6827-.176-1.2533-.528-1.712-.352-.4693-.832-.8213-1.44-1.056-.5973-.2347-1.28-.352-2.048-.352h-4.464zm0-9.952h4.464c.48 0 .9387-.0533 1.376-.16.448-.1173.8427-.2933 1.184-.528.352-.2347.6293-.5333.832-.896.2027-.3733.304-.8107.304-1.312 0-1.0027-.3787-1.76-1.136-2.272-.7467-.5227-1.7067-.784-2.88-.784h-4.144zm21.938 13.856c-1.216 0-2.181-.144-2.896-.432-.714-.288-1.242-.6667-1.5837-1.136-.3414-.48-.56-1.008-.656-1.584-.096-.5867-.1441-1.1787-.1441-1.776v-19.136h4.5758v18.56c0 .608.128 1.104.384 1.488.267.3733.763.6027 1.488.688l.784.048v2.88c-.32.1067-.645.197-.976.272-.33.085-.656.128-.976.128zm12.043.032c-1.621 0-3.035-.3467-4.24-1.04-1.195-.6933-2.123-1.6747-2.784-2.944-.651-1.2693-.976-2.7733-.976-4.512s.325-3.2587.976-4.56c.661-1.3013 1.589-2.3147 2.784-3.04 1.205-.7253 2.624-1.088 4.256-1.088s3.045.3573 4.24 1.072c1.195.704 2.117 1.7067 2.768 3.008s.976 2.8373.976 4.608c0 1.664-.32 3.136-.96 4.416-.629 1.2693-1.541 2.2667-2.736 2.992-1.184.7253-2.619 1.088-4.304 1.088zm.016-3.472c.821 0 1.483-.24 1.984-.72s.864-1.1093 1.088-1.888c.235-.7893.352-1.648.352-2.576 0-.8747-.107-1.7013-.32-2.48-.203-.7787-.555-1.408-1.056-1.888s-1.184-.72-2.048-.72c-.821 0-1.488.2293-2 .688-.501.448-.869 1.0613-1.104 1.84-.235.768-.352 1.6213-.352 2.56 0 .864.107 1.696.32 2.496.213.7893.571 1.4347 1.072 1.936s1.189.752 2.064.752zm18.544 8.624c-2.944 0-5.184-.373-6.72-1.12-1.525-.747-2.288-1.728-2.288-2.944 0-.565.149-1.04.448-1.424s.645-.688 1.04-.912c.405-.2347.773-.4107 1.104-.528.341-.128.549-.2133.624-.256-.171-.096-.416-.2347-.736-.416-.32-.192-.619-.448-.896-.768-.267-.3307-.4-.7573-.4-1.28 0-.5867.277-1.1307.832-1.632.565-.5013 1.419-.848 2.56-1.04-1.088-.512-1.915-1.2053-2.48-2.08s-.848-1.7707-.848-2.688c0-1.088.341-2.0213 1.024-2.8s1.611-1.3707 2.784-1.776c1.184-.4053 2.523-.608 4.016-.608 1.141 0 2.075.1227 2.8.368.725.2347 1.397.544 2.016.928.245-.096.571-.2187.976-.368.405-.16.843-.3307 1.312-.512.469-.192.928-.3787 1.376-.56.448-.192.848-.3627 1.2-.512l-.016 3.616-2.864.464c.117.288.208.5973.272.928s.096.6027.096.816c0 .96-.283 1.856-.848 2.688-.555.832-1.392 1.504-2.512 2.016-1.109.512-2.485.768-4.128.768-.203 0-.475-.0053-.816-.016-.331-.0107-.603-.0267-.816-.048-.629.032-1.061.112-1.296.24s-.352.2773-.352.448c0 .256.24.4267.72.512.48.0747 1.205.144 2.176.208.341.0213.816.048 1.424.08s1.28.0747 2.016.128c2.027.1387 3.536.64 4.528 1.504 1.003.8533 1.504 1.9307 1.504 3.232 0 1.547-.736 2.821-2.208 3.824-1.461 1.013-3.669 1.52-6.624 1.52zm.752-2.608c1.301 0 2.229-.16 2.784-.48s.832-.779.832-1.376c0-.501-.213-.907-.64-1.216-.427-.32-1.051-.5067-1.872-.56l-3.792-.256c-.491-.0213-.928.0533-1.312.224-.373.1707-.667.4053-.88.704-.203.299-.304.619-.304.96 0 .693.421 1.2 1.264 1.52s2.149.48 3.92.48zm-.88-11.632c.885 0 1.595-.24 2.128-.72.544-.4907.816-1.152.816-1.984 0-.864-.272-1.5573-.816-2.08-.533-.5227-1.243-.784-2.128-.784-.875 0-1.589.2613-2.144.784-.544.5227-.816 1.216-.816 2.08 0 .8213.261 1.4773.784 1.968.533.4907 1.259.736 2.176.736z" fill="#475569"/><path d="m76.3162 119.017h185.5868" stroke="#cbd5e1" stroke-linecap="round" stroke-width="5.26486"/><path d="m76.3162 132.179h119.7758" stroke="#e2e8f0" stroke-linecap="round" stroke-width="5.26486"/><rect fill="#fff" height="167.169" rx="10.5712" stroke="#e2e8f0" stroke-width=".919231" width="146.158" x="76.7758" y="162.447"/><path d="m76.3162 173.018c0-6.092 4.9386-11.031 11.0307-11.031h125.0151c6.093 0 11.031 4.939 11.031 11.031v62.508h-147.0768z" fill="#e2e8f0"/><path d="m134.616 188.769-58.2998 46.758h147.0768v-13.384l-24.902-18.345c-.63-.464-1.485-.479-2.131-.036l-25.525 17.507c-.736.505-1.73.407-2.354-.231l-31.4-32.12c-.661-.676-1.727-.74-2.465-.149z" fill="url(#d)"/><g stroke-linecap="round"><path d="m100.676 257.128h68.942" stroke="#cbd5e1" stroke-width="4.59616"/><path d="m100.216 270.456h99.277" stroke="#e2e8f0" stroke-width="3.67692"/><path d="m100.216 281.488h88.247" stroke="#e2e8f0" stroke-width="3.67692"/></g><circle cx="175.593" cy="187.726" fill="#cbd5e1" r="9.19231"/><circle cx="197.655" cy="305.387" fill="#e2e8f0" r="7.35385"/><circle cx="197.655" cy="303.549" fill="#94a3b8" r="1.83846"/><path d="m201.332 308.145c0-.362-.095-.72-.28-1.055s-.456-.639-.797-.895c-.342-.256-.747-.459-1.193-.597-.446-.139-.924-.21-1.407-.21s-.961.071-1.407.21c-.446.138-.852.341-1.193.597-.342.256-.612.56-.797.895s-.28.693-.28 1.055h3.677z" fill="#94a3b8"/><rect fill="#fff" height="167.169" rx="10.5712" stroke="#e2e8f0" stroke-width=".919231" width="146.158" x="415.383" y="162.447"/><path d="m414.923 173.018c0-6.092 4.939-11.031 11.031-11.031h125.015c6.092 0 11.031 4.939 11.031 11.031v62.508h-147.077z" fill="#e2e8f0"/><path d="m473.223 188.769-58.3 46.758h147.077v-13.384l-24.902-18.345c-.63-.464-1.485-.479-2.131-.036l-25.525 17.507c-.736.505-1.73.407-2.354-.231l-31.4-32.12c-.661-.676-1.727-.74-2.465-.149z" fill="url(#e)"/><path d="m439.283 257.128h68.942" stroke="#cbd5e1" stroke-linecap="round" stroke-width="4.59616"/><path d="m438.823 270.456h99.277" stroke="#e2e8f0" stroke-linecap="round" stroke-width="3.67692"/><path d="m438.823 281.488h88.246" stroke="#e2e8f0" stroke-linecap="round" stroke-width="3.67692"/><circle cx="514.2" cy="187.726" fill="#cbd5e1" r="9.19231"/><circle cx="536.261" cy="305.387" fill="#e2e8f0" r="7.35385"/><circle cx="536.261" cy="303.549" fill="#94a3b8" r="1.83846"/><path d="m539.939 308.145c0-.362-.096-.72-.28-1.055-.185-.335-.456-.639-.797-.895-.342-.256-.747-.459-1.193-.597-.446-.139-.924-.21-1.407-.21s-.961.071-1.407.21c-.447.138-.852.341-1.193.597-.342.256-.613.56-.797.895-.185.335-.28.693-.28 1.055h3.677z" fill="#94a3b8"/><g filter="url(#b)"><rect fill="#fff" height="167.169" rx="10.5712" stroke="#e2e8f0" stroke-width=".919231" width="146.158" x="246.079" y="162.447"/><path d="m245.62 173.018c0-6.092 4.938-11.031 11.03-11.031h125.016c6.092 0 11.031 4.939 11.031 11.031v62.508h-147.077z" fill="#e2e8f0"/><path d="m303.919 188.769-58.299 46.758h147.077v-13.384l-24.903-18.345c-.63-.464-1.485-.479-2.13-.036l-25.525 17.507c-.737.505-1.73.407-2.355-.231l-31.4-32.12c-.661-.676-1.727-.74-2.465-.149z" fill="url(#f)"/><g stroke-linecap="round"><path d="m269.979 257.128h68.943" stroke="#8b3dff" stroke-width="4.59616"/><path d="m269.52 270.456h99.277" stroke="#e2e8f0" stroke-width="3.67692"/><path d="m269.52 281.488h88.246" stroke="#e2e8f0" stroke-width="3.67692"/></g><circle cx="344.897" cy="187.726" fill="#cbd5e1" r="9.19231"/><circle cx="366.958" cy="305.387" fill="#e2e8f0" r="7.35385"/><circle cx="366.958" cy="303.549" fill="#94a3b8" r="1.83846"/><path d="m370.635 308.145c0-.362-.095-.72-.28-1.055-.184-.335-.455-.639-.797-.895-.341-.256-.747-.459-1.193-.597-.446-.139-.924-.21-1.407-.21s-.961.071-1.407.21c-.446.138-.851.341-1.193.597-.341.256-.612.56-.797.895s-.28.693-.28 1.055h3.677z" fill="#94a3b8"/></g></svg>