<svg fill="none" height="400" viewBox="0 0 636 400" width="636" xmlns="http://www.w3.org/2000/svg" xmlns:xlink="http://www.w3.org/1999/xlink"><filter id="a" color-interpolation-filters="sRGB" filterUnits="userSpaceOnUse" height="332" width="568" x="34" y="37"><feFlood flood-opacity="0" result="BackgroundImageFix"/><feColorMatrix in="SourceAlpha" result="hardAlpha" type="matrix" values="0 0 0 0 0 0 0 0 0 0 0 0 0 0 0 0 0 0 127 0"/><feOffset dy="3"/><feGaussianBlur stdDeviation="3"/><feColorMatrix type="matrix" values="0 0 0 0 0.0117647 0 0 0 0 0 0 0 0 0 0.278431 0 0 0 0.1 0"/><feBlend in2="BackgroundImageFix" mode="normal" result="effect1_dropShadow_1850_2437"/><feBlend in="SourceGraphic" in2="effect1_dropShadow_1850_2437" mode="normal" result="shape"/></filter><path d="m0 0h636v400h-636z" fill="#e3e9f1" fill-opacity=".5"/><g filter="url(#a)"><rect fill="#fff" height="320" rx="16" width="556" x="40" y="40"/></g><path d="m274.269 120h86.693" stroke="#e2e8f0" stroke-linecap="round" stroke-width="5.65385"/><path d="m221.053 147.544c1.739 0 3.286.352 4.64 1.056 1.366.693 2.464 1.643 3.296 2.848.843 1.205 1.339 2.565 1.488 4.08h-4.896c-.149-.8-.421-1.509-.816-2.128-.394-.629-.912-1.12-1.552-1.472-.64-.363-1.408-.544-2.304-.544-1.077 0-2.005.261-2.784.784-.778.523-1.376 1.365-1.792 2.528s-.624 2.699-.624 4.608c0 2.88.459 4.965 1.376 6.256.928 1.28 2.203 1.92 3.824 1.92.896 0 1.664-.203 2.304-.608.64-.416 1.158-.96 1.552-1.632.395-.683.667-1.429.816-2.24h4.896c-.138 1.099-.405 2.149-.8 3.152-.394.992-.954 1.877-1.68 2.656-.725.779-1.658 1.392-2.8 1.84-1.141.448-2.522.672-4.144.672-2.154 0-4.016-.501-5.584-1.504s-2.778-2.411-3.632-4.224c-.842-1.813-1.264-3.931-1.264-6.352 0-2.432.422-4.517 1.264-6.256.843-1.749 2.048-3.093 3.616-4.032s3.435-1.408 5.6-1.408zm17.316 23.776c-1.056 0-2.006-.197-2.848-.592-.843-.395-1.51-.965-2-1.712-.491-.757-.736-1.675-.736-2.752 0-1.813.677-3.189 2.032-4.128 1.354-.949 3.493-1.44 6.416-1.472l2.064-.032v-.992c0-.757-.224-1.339-.672-1.744-.438-.416-1.12-.619-2.048-.608-.683.011-1.334.171-1.952.48-.608.309-1.024.848-1.248 1.616h-3.888c.064-1.195.41-2.176 1.04-2.944.629-.779 1.482-1.355 2.56-1.728 1.088-.384 2.32-.576 3.696-.576 1.696 0 3.056.213 4.08.64 1.024.416 1.765 1.019 2.224 1.808.458.779.688 1.707.688 2.784v11.632h-3.904l-.384-2.848c-.566 1.195-1.275 2.021-2.128 2.48-.843.459-1.84.688-2.992.688zm1.568-3.072c.426 0 .837-.075 1.232-.224.405-.16.762-.368 1.072-.624.32-.267.576-.565.768-.896s.288-.672.288-1.024v-2.448l-1.68.032c-.779.011-1.504.107-2.176.288-.672.171-1.216.453-1.632.848-.406.395-.608.928-.608 1.6 0 .768.266 1.371.8 1.808.533.427 1.178.64 1.936.64zm17.255 3.04c-1.216 0-2.181-.144-2.896-.432-.714-.288-1.242-.667-1.584-1.136-.341-.48-.56-1.008-.656-1.584-.096-.587-.144-1.179-.144-1.776v-19.136h4.576v18.56c0 .608.128 1.104.384 1.488.267.373.763.603 1.488.688l.784.048v2.88c-.32.107-.645.197-.976.272-.33.085-.656.128-.976.128zm9.938 0c-1.216 0-2.181-.144-2.896-.432s-1.243-.667-1.584-1.136c-.341-.48-.56-1.008-.656-1.584-.096-.587-.144-1.179-.144-1.776v-19.136h4.576v18.56c0 .608.128 1.104.384 1.488.267.373.763.603 1.488.688l.784.048v2.88c-.32.107-.645.197-.976.272-.331.085-.656.128-.976.128zm21.894-13.584h-3.68l.032 8.816c0 .405.048.709.144.912.106.192.266.32.48.384.224.053.506.08.848.08h2.224v2.88c-.214.096-.55.187-1.008.272-.448.085-1.078.128-1.888.128-1.451 0-2.576-.187-3.376-.56-.79-.373-1.339-.896-1.648-1.568-.31-.672-.464-1.451-.464-2.336v-9.008h-2.688v-3.248h2.848l1.168-4.992h3.328v4.976h3.68zm10.024 13.616c-1.622 0-3.035-.347-4.24-1.04-1.195-.693-2.123-1.675-2.784-2.944-.651-1.269-.976-2.773-.976-4.512s.325-3.259.976-4.56c.661-1.301 1.589-2.315 2.784-3.04 1.205-.725 2.624-1.088 4.256-1.088s3.045.357 4.24 1.072c1.194.704 2.117 1.707 2.768 3.008.65 1.301.976 2.837.976 4.608 0 1.664-.32 3.136-.96 4.416-.63 1.269-1.542 2.267-2.736 2.992-1.184.725-2.619 1.088-4.304 1.088zm.016-3.472c.821 0 1.482-.24 1.984-.72.501-.48.864-1.109 1.088-1.888.234-.789.352-1.648.352-2.576 0-.875-.107-1.701-.32-2.48-.203-.779-.555-1.408-1.056-1.888-.502-.48-1.184-.72-2.048-.72-.822 0-1.488.229-2 .688-.502.448-.87 1.061-1.104 1.84-.235.768-.352 1.621-.352 2.56 0 .864.106 1.696.32 2.496.213.789.57 1.435 1.072 1.936.501.501 1.189.752 2.064.752zm22.586 3.472c-1.056 0-2.005-.197-2.848-.592s-1.509-.965-2-1.712c-.491-.757-.736-1.675-.736-2.752 0-1.813.677-3.189 2.032-4.128 1.355-.949 3.493-1.44 6.416-1.472l2.064-.032v-.992c0-.757-.224-1.339-.672-1.744-.437-.416-1.12-.619-2.048-.608-.683.011-1.333.171-1.952.48-.608.309-1.024.848-1.248 1.616h-3.888c.064-1.195.411-2.176 1.04-2.944.629-.779 1.483-1.355 2.56-1.728 1.088-.384 2.32-.576 3.696-.576 1.696 0 3.056.213 4.08.64 1.024.416 1.765 1.019 2.224 1.808.459.779.688 1.707.688 2.784v11.632h-3.904l-.384-2.848c-.565 1.195-1.275 2.021-2.128 2.48-.843.459-1.84.688-2.992.688zm1.568-3.072c.427 0 .837-.075 1.232-.224.405-.16.763-.368 1.072-.624.32-.267.576-.565.768-.896s.288-.672.288-1.024v-2.448l-1.68.032c-.779.011-1.504.107-2.176.288-.672.171-1.216.453-1.632.848-.405.395-.608.928-.608 1.6 0 .768.267 1.371.8 1.808.533.427 1.179.64 1.936.64zm19.064-14.112c1.386 0 2.581.283 3.584.848 1.013.565 1.808 1.328 2.384 2.288.586.96.922 2.032 1.008 3.216h-3.888c-.075-.437-.23-.869-.464-1.296-.235-.437-.566-.795-.992-1.072-.427-.288-.96-.432-1.6-.432-1.088 0-1.974.421-2.656 1.264-.672.832-1.008 2.101-1.008 3.808 0 1.611.33 2.891.992 3.84.661.939 1.584 1.408 2.768 1.408.629 0 1.152-.155 1.568-.464.426-.309.757-.677.992-1.104.234-.437.384-.843.448-1.216h3.792c-.075 1.141-.406 2.176-.992 3.104-.587.917-1.387 1.648-2.4 2.192-1.003.533-2.182.8-3.536.8-1.536 0-2.907-.341-4.112-1.024-1.206-.683-2.155-1.659-2.848-2.928-.683-1.28-1.024-2.805-1.024-4.576 0-1.707.33-3.211.992-4.512.661-1.301 1.589-2.315 2.784-3.04 1.205-.736 2.608-1.104 4.208-1.104zm19.742 3.568h-3.68l.032 8.816c0 .405.048.709.144.912.106.192.266.32.48.384.224.053.506.08.848.08h2.224v2.88c-.214.096-.55.187-1.008.272-.448.085-1.078.128-1.888.128-1.451 0-2.576-.187-3.376-.56-.79-.373-1.339-.896-1.648-1.568-.31-.672-.464-1.451-.464-2.336v-9.008h-2.688v-3.248h2.848l1.168-4.992h3.328v4.976h3.68zm8.155-3.248v16.544h-4.464v-16.544zm.048-6.576v4.208h-4.544v-4.208zm11.289 23.44c-1.621 0-3.034-.347-4.24-1.04-1.194-.693-2.122-1.675-2.784-2.944-.65-1.269-.976-2.773-.976-4.512s.326-3.259.976-4.56c.662-1.301 1.59-2.315 2.784-3.04 1.206-.725 2.624-1.088 4.256-1.088s3.046.357 4.24 1.072c1.195.704 2.118 1.707 2.768 3.008.651 1.301.976 2.837.976 4.608 0 1.664-.32 3.136-.96 4.416-.629 1.269-1.541 2.267-2.736 2.992-1.184.725-2.618 1.088-4.304 1.088zm.016-3.472c.822 0 1.483-.24 1.984-.72.502-.48.864-1.109 1.088-1.888.235-.789.352-1.648.352-2.576 0-.875-.106-1.701-.32-2.48-.202-.779-.554-1.408-1.056-1.888-.501-.48-1.184-.72-2.048-.72-.821 0-1.488.229-2 .688-.501.448-.869 1.061-1.104 1.84-.234.768-.352 1.621-.352 2.56 0 .864.107 1.696.32 2.496.214.789.571 1.435 1.072 1.936.502.501 1.19.752 2.064.752zm11.099 3.152v-16.544h4.592v2.336c.256-.405.587-.795.992-1.168.416-.384.939-.699 1.568-.944s1.376-.368 2.24-.368c1.013 0 1.957.197 2.832.592.885.395 1.6 1.019 2.144 1.872.544.843.816 1.947.816 3.312v10.912h-4.672v-10.336c0-.896-.267-1.568-.8-2.016s-1.184-.672-1.952-.672c-.512 0-1.008.091-1.488.272-.469.181-.853.453-1.152.816s-.448.811-.448 1.344v10.592zm25.325.32c-1.152 0-2.261-.187-3.328-.56-1.066-.384-1.968-.981-2.704-1.792-.736-.821-1.205-1.883-1.408-3.184h4.048c.139.587.39 1.051.752 1.392.374.341.795.587 1.264.736.47.139.918.208 1.344.208.896 0 1.616-.139 2.16-.416.555-.288.832-.725.832-1.312 0-.448-.165-.805-.496-1.072-.32-.267-.853-.469-1.6-.608l-2.912-.608c-1.461-.309-2.634-.832-3.52-1.568-.885-.747-1.338-1.803-1.36-3.168 0-.992.262-1.883.784-2.672.534-.789 1.318-1.413 2.352-1.872 1.035-.459 2.304-.688 3.808-.688 2.038 0 3.664.448 4.88 1.344 1.227.896 1.851 2.16 1.872 3.792h-3.904c-.117-.64-.437-1.131-.96-1.472-.512-.352-1.157-.528-1.936-.528-.81 0-1.477.144-2 .432-.522.288-.784.725-.784 1.312 0 .437.214.784.64 1.04.427.245 1.088.459 1.984.64l2.688.608c.928.224 1.68.533 2.256.928.587.384 1.04.805 1.36 1.264s.539.923.656 1.392c.128.459.192.875.192 1.248 0 1.099-.293 2.037-.88 2.816-.586.768-1.402 1.355-2.448 1.76-1.045.405-2.256.608-3.632.608z" fill="#475569"/><g stroke-linecap="round" stroke-width="7.53846"><path d="m99 198h437.231" stroke="#cbd5e1"/><path d="m146.115 214h343" stroke="#e2e8f0"/><path d="m155.539 230h324.153" stroke="#e2e8f0"/></g><rect fill="#e2e8f0" height="30.1538" rx="7.53846" width="75.3846" x="238.461" y="250"/><rect fill="#8b3dff" height="30.1538" rx="7.53846" width="75.3846" x="321.385" y="250"/></svg>