<svg fill="none" height="400" viewBox="0 0 636 400" width="636" xmlns="http://www.w3.org/2000/svg" xmlns:xlink="http://www.w3.org/1999/xlink"><filter id="a" color-interpolation-filters="sRGB" filterUnits="userSpaceOnUse" height="336" width="572" x="32" y="36"><feFlood flood-opacity="0" result="BackgroundImageFix"/><feColorMatrix in="SourceAlpha" result="hardAlpha" type="matrix" values="0 0 0 0 0 0 0 0 0 0 0 0 0 0 0 0 0 0 127 0"/><feOffset dy="4"/><feGaussianBlur stdDeviation="4"/><feColorMatrix type="matrix" values="0 0 0 0 0.559444 0 0 0 0 0.559444 0 0 0 0 0.633333 0 0 0 0.16 0"/><feBlend in2="BackgroundImageFix" mode="normal" result="effect1_dropShadow_1850_2699"/><feBlend in="SourceGraphic" in2="effect1_dropShadow_1850_2699" mode="normal" result="shape"/></filter><linearGradient id="b"><stop offset="0" stop-color="#b4bed8"/><stop offset="1" stop-color="#c1c6d2" stop-opacity="0"/></linearGradient><linearGradient id="c" gradientUnits="userSpaceOnUse" x1="424.26" x2="424.26" xlink:href="#b" y1="140.595" y2="255.98"/><linearGradient id="d" gradientUnits="userSpaceOnUse" x1="217.593" x2="217.593" xlink:href="#b" y1="140.595" y2="255.98"/><path d="m0 0h636v400h-636z" fill="#e3e9f1" fill-opacity=".5"/><g filter="url(#a)"><rect fill="#fff" height="320" rx="16" width="556" x="40" y="40"/></g><path d="m295.28 121.32c-1.141 0-2.261-.144-3.36-.432s-2.101-.72-3.008-1.296-1.659-1.296-2.256-2.16c-.587-.864-.939-1.877-1.056-3.04h4.784c.16.704.464 1.296.912 1.776s1.013.848 1.696 1.104 1.44.384 2.272.384c.853 0 1.632-.107 2.336-.32s1.269-.533 1.696-.96c.427-.437.64-.981.64-1.632 0-.587-.176-1.067-.528-1.44-.341-.373-.805-.677-1.392-.912s-1.253-.427-2-.576l-4-.816c-1.749-.331-3.136-1.024-4.16-2.08-1.024-1.067-1.552-2.485-1.584-4.256-.011-1.451.373-2.704 1.152-3.76.789-1.0667 1.856-1.888 3.2-2.464 1.355-.576 2.869-.864 4.544-.864 1.995 0 3.669.3147 5.024.944 1.365.6187 2.4 1.4613 3.104 2.528.715 1.056 1.083 2.235 1.104 3.536h-4.688c-.085-.811-.331-1.456-.736-1.936s-.928-.827-1.568-1.04c-.629-.213-1.349-.32-2.16-.32-.619 0-1.184.069-1.696.208-.501.139-.928.336-1.28.592-.352.245-.624.539-.816.88s-.288.725-.288 1.152c0 .672.224 1.216.672 1.632s1.285.757 2.512 1.024l3.968.816c1.419.277 2.544.688 3.376 1.232.843.544 1.472 1.157 1.888 1.84.427.683.704 1.381.832 2.096.139.704.208 1.355.208 1.952 0 1.248-.395 2.373-1.184 3.376-.779.992-1.867 1.781-3.264 2.368-1.397.576-3.029.864-4.896.864zm18.188-.032c-1.216 0-2.182-.144-2.896-.432-.715-.288-1.243-.667-1.584-1.136-.342-.48-.56-1.008-.656-1.584-.096-.587-.144-1.179-.144-1.776v-19.136h4.576v18.56c0 .608.128 1.104.384 1.488.266.373.762.603 1.487.688l.785.048v2.88c-.32.107-.646.197-.976.272-.331.085-.656.128-.976.128zm9.705-16.832v16.544h-4.464v-16.544zm.048-6.576v4.208h-4.544v-4.208zm10.329 23.44c-2.218 0-3.946-.763-5.184-2.288-1.237-1.536-1.856-3.669-1.856-6.4 0-1.728.251-3.227.752-4.496.502-1.269 1.243-2.251 2.224-2.944.982-.704 2.182-1.056 3.6-1.056.598 0 1.152.069 1.664.208.523.128.998.309 1.424.544.427.235.8.507 1.12.816s.582.64.784.992v-9.472h4.688v23.776h-3.392l-.528-3.392c-.149.459-.357.907-.624 1.344-.266.437-.608.837-1.024 1.2-.416.352-.928.635-1.536.848-.597.213-1.301.32-2.112.32zm1.024-3.36c1.174 0 2.048-.411 2.624-1.232.587-.821.88-2.208.88-4.16-.01-1.131-.144-2.069-.4-2.816s-.64-1.301-1.152-1.664c-.501-.373-1.141-.56-1.92-.56-1.013 0-1.856.389-2.528 1.168-.672.768-1.008 2.059-1.008 3.872 0 1.845.315 3.205.944 4.08.63.875 1.483 1.312 2.56 1.312zm16.047-4.16c-.01.843.123 1.579.4 2.208.278.619.678 1.099 1.2 1.44.534.331 1.174.496 1.92.496.8 0 1.499-.171 2.096-.512.608-.341 1.03-.901 1.264-1.68h4.208c-.181 1.173-.65 2.176-1.408 3.008-.746.832-1.653 1.467-2.72 1.904-1.066.437-2.176.656-3.328.656-1.632 0-3.072-.341-4.32-1.024-1.237-.693-2.202-1.669-2.896-2.928-.693-1.259-1.04-2.741-1.04-4.448 0-1.653.315-3.141.944-4.464.63-1.333 1.542-2.384 2.736-3.152 1.206-.779 2.651-1.168 4.336-1.168 1.686 0 3.099.357 4.24 1.072 1.152.704 2.016 1.691 2.592 2.96.587 1.259.88 2.715.88 4.368v1.264zm-.016-2.784h6.752c0-.661-.122-1.269-.368-1.824-.245-.555-.618-.992-1.12-1.312-.49-.32-1.109-.48-1.856-.48-.725 0-1.344.176-1.856.528-.501.341-.885.789-1.152 1.344-.266.555-.4 1.136-.4 1.744zm14.364 9.984v-16.544h4.496v3.92c.266-.843.64-1.579 1.12-2.208.49-.64 1.082-1.136 1.776-1.488.693-.363 1.477-.544 2.352-.544.149 0 .288.011.416.032.138.011.24.032.304.064v4.448c-.096-.043-.214-.069-.352-.08-.128-.011-.246-.021-.352-.032-.918-.075-1.702-.048-2.352.08-.651.128-1.179.347-1.584.656-.406.309-.699.688-.88 1.136-.182.448-.272.949-.272 1.504v9.056z" fill="#475569"/><rect fill="#e2e8f0" height="113" rx="5.01299" transform="matrix(-1 0 0 1 517 153)" width="185"/><path d="m405.285 182.183-73.765 73.797h185.48v-21.055l-31.589-29.027c-.652-.6-1.649-.617-2.322-.041l-32.589 27.88c-.757.648-1.901.534-2.515-.25l-40.085-51.147c-.648-.826-1.873-.9-2.615-.157z" fill="url(#c)"/><circle cx="459.977" cy="188.932" fill="#cbd5e1" r="14.4123"/><rect fill="#e2e8f0" height="113" rx="5.01299" transform="matrix(-1 0 0 1 309.854 153)" width="185"/><path d="m198.618 182.183-73.765 73.797h185.481v-21.055l-31.589-29.027c-.653-.6-1.65-.617-2.323-.041l-32.588 27.88c-.757.648-1.901.534-2.516-.25l-40.084-51.147c-.648-.826-1.873-.9-2.616-.157z" fill="url(#d)"/><circle cx="253.311" cy="188.932" fill="#cbd5e1" r="14.4123"/><circle cx="300.354" cy="296.507" fill="#e2e8f0" r="6.5"/><circle cx="317.687" cy="296.507" fill="#8b3dff" r="6.5"/><circle cx="335.021" cy="296.507" fill="#e2e8f0" r="6.5"/></svg>