<svg fill="none" height="400" viewBox="0 0 636 400" width="636" xmlns="http://www.w3.org/2000/svg" xmlns:xlink="http://www.w3.org/1999/xlink"><filter id="a" color-interpolation-filters="sRGB" filterUnits="userSpaceOnUse" height="332" width="568" x="34" y="37"><feFlood flood-opacity="0" result="BackgroundImageFix"/><feColorMatrix in="SourceAlpha" result="hardAlpha" type="matrix" values="0 0 0 0 0 0 0 0 0 0 0 0 0 0 0 0 0 0 127 0"/><feOffset dy="3"/><feGaussianBlur stdDeviation="3"/><feColorMatrix type="matrix" values="0 0 0 0 0.0117647 0 0 0 0 0 0 0 0 0 0.278431 0 0 0 0.1 0"/><feBlend in2="BackgroundImageFix" mode="normal" result="effect1_dropShadow_1850_2420"/><feBlend in="SourceGraphic" in2="effect1_dropShadow_1850_2420" mode="normal" result="shape"/></filter><path d="m0 0h636v400h-636z" fill="#e3e9f1" fill-opacity=".5"/><g filter="url(#a)"><rect fill="#fff" height="320" rx="16" width="556" x="40" y="40"/></g><path d="m293.172 94h58.568" stroke="#e2e8f0" stroke-linecap="round" stroke-width="3.81963"/><path d="m244.38 138.32c-2.187 0-4.08-.475-5.68-1.424-1.589-.96-2.821-2.32-3.696-4.08-.864-1.771-1.296-3.883-1.296-6.336 0-2.464.437-4.587 1.312-6.368.885-1.781 2.128-3.152 3.728-4.112 1.6-.971 3.477-1.456 5.632-1.456 2.144 0 4.011.48 5.6 1.44s2.816 2.331 3.68 4.112c.875 1.781 1.312 3.909 1.312 6.384 0 2.443-.432 4.549-1.296 6.32-.853 1.771-2.075 3.136-3.664 4.096-1.589.949-3.467 1.424-5.632 1.424zm0-3.84c1.131 0 2.107-.267 2.928-.8.832-.544 1.472-1.397 1.92-2.56.448-1.173.672-2.699.672-4.576 0-1.931-.229-3.493-.688-4.688-.448-1.195-1.088-2.069-1.92-2.624-.821-.565-1.792-.848-2.912-.848s-2.096.283-2.928.848c-.832.555-1.477 1.435-1.936 2.64-.459 1.195-.688 2.752-.688 4.672 0 1.888.229 3.413.688 4.576s1.104 2.016 1.936 2.56c.832.533 1.808.8 2.928.8zm20.232 3.84c-.768 0-1.526-.117-2.272-.352-.736-.235-1.408-.581-2.016-1.04s-1.099-1.024-1.472-1.696c-.363-.672-.544-1.451-.544-2.336v-11.44h4.672v10.848c0 .768.25 1.397.752 1.888.501.491 1.237.736 2.208.736.917 0 1.642-.235 2.176-.704.544-.48.816-1.147.816-2v-10.768h4.624v16.544h-3.52l-.544-3.28c-.192.971-.555 1.717-1.088 2.24-.523.512-1.126.864-1.808 1.056-.672.203-1.334.304-1.984.304zm12.841-.32v-16.544h4.496v3.92c.267-.843.64-1.579 1.12-2.208.491-.64 1.083-1.136 1.776-1.488.693-.363 1.477-.544 2.352-.544.149 0 .288.011.416.032.139.011.24.032.304.064v4.448c-.096-.043-.213-.069-.352-.08-.128-.011-.245-.021-.352-.032-.917-.075-1.701-.048-2.352.08s-1.179.347-1.584.656-.699.688-.88 1.136-.272.949-.272 1.504v9.056zm29.797-23.456c1.739 0 3.286.352 4.64 1.056 1.366.693 2.464 1.643 3.296 2.848.843 1.205 1.339 2.565 1.488 4.08h-4.896c-.149-.8-.421-1.509-.816-2.128-.394-.629-.912-1.12-1.552-1.472-.64-.363-1.408-.544-2.304-.544-1.077 0-2.005.261-2.784.784-.778.523-1.376 1.365-1.792 2.528s-.624 2.699-.624 4.608c0 2.88.459 4.965 1.376 6.256.928 1.28 2.203 1.92 3.824 1.92.896 0 1.664-.203 2.304-.608.64-.416 1.158-.96 1.552-1.632.395-.683.667-1.429.816-2.24h4.896c-.138 1.099-.405 2.149-.8 3.152-.394.992-.954 1.877-1.68 2.656-.725.779-1.658 1.392-2.8 1.84-1.141.448-2.522.672-4.144.672-2.154 0-4.016-.501-5.584-1.504s-2.778-2.411-3.632-4.224c-.842-1.813-1.264-3.931-1.264-6.352 0-2.432.422-4.517 1.264-6.256.843-1.749 2.048-3.093 3.616-4.032s3.435-1.408 5.6-1.408zm18.233 23.744c-1.216 0-2.181-.144-2.896-.432s-1.243-.667-1.584-1.136c-.341-.48-.56-1.008-.656-1.584-.096-.587-.144-1.179-.144-1.776v-19.136h4.576v18.56c0 .608.128 1.104.384 1.488.267.373.763.603 1.488.688l.784.048v2.88c-.32.107-.645.197-.976.272-.331.085-.656.128-.976.128zm9.705-16.832v16.544h-4.464v-16.544zm.048-6.576v4.208h-4.544v-4.208zm8.026 15.92c-.011.843.123 1.579.4 2.208.277.619.677 1.099 1.2 1.44.533.331 1.173.496 1.92.496.8 0 1.499-.171 2.096-.512.608-.341 1.029-.901 1.264-1.68h4.208c-.181 1.173-.651 2.176-1.408 3.008-.747.832-1.653 1.467-2.72 1.904s-2.176.656-3.328.656c-1.632 0-3.072-.341-4.32-1.024-1.237-.693-2.203-1.669-2.896-2.928s-1.04-2.741-1.04-4.448c0-1.653.315-3.141.944-4.464.629-1.333 1.541-2.384 2.736-3.152 1.205-.779 2.651-1.168 4.336-1.168s3.099.357 4.24 1.072c1.152.704 2.016 1.691 2.592 2.96.587 1.259.88 2.715.88 4.368v1.264zm-.016-2.784h6.752c0-.661-.123-1.269-.368-1.824s-.619-.992-1.12-1.312c-.491-.32-1.109-.48-1.856-.48-.725 0-1.344.176-1.856.528-.501.341-.885.789-1.152 1.344s-.4 1.136-.4 1.744zm14.363 9.984v-16.544h4.592v2.336c.256-.405.587-.795.992-1.168.416-.384.939-.699 1.568-.944.63-.245 1.376-.368 2.24-.368 1.014 0 1.958.197 2.832.592.886.395 1.6 1.019 2.144 1.872.544.843.816 1.947.816 3.312v10.912h-4.672v-10.336c0-.896-.266-1.568-.8-2.016-.533-.448-1.184-.672-1.952-.672-.512 0-1.008.091-1.488.272-.469.181-.853.453-1.152.816-.298.363-.448.811-.448 1.344v10.592zm28.33-13.296h-3.68l.032 8.816c0 .405.048.709.144.912.107.192.267.32.48.384.224.053.507.08.848.08h2.224v2.88c-.213.096-.549.187-1.008.272-.448.085-1.077.128-1.888.128-1.45 0-2.576-.187-3.376-.56-.789-.373-1.338-.896-1.648-1.568-.309-.672-.464-1.451-.464-2.336v-9.008h-2.688v-3.248h2.848l1.168-4.992h3.328v4.976h3.68zm9.871 13.616c-1.152 0-2.262-.187-3.328-.56-1.067-.384-1.968-.981-2.704-1.792-.736-.821-1.206-1.883-1.408-3.184h4.048c.138.587.389 1.051.752 1.392.373.341.794.587 1.264.736.469.139.917.208 1.344.208.896 0 1.616-.139 2.16-.416.554-.288.832-.725.832-1.312 0-.448-.166-.805-.496-1.072-.32-.267-.854-.469-1.6-.608l-2.912-.608c-1.462-.309-2.635-.832-3.52-1.568-.886-.747-1.339-1.803-1.36-3.168 0-.992.261-1.883.784-2.672.533-.789 1.317-1.413 2.352-1.872 1.034-.459 2.304-.688 3.808-.688 2.037 0 3.664.448 4.88 1.344 1.226.896 1.85 2.16 1.872 3.792h-3.904c-.118-.64-.438-1.131-.96-1.472-.512-.352-1.158-.528-1.936-.528-.811 0-1.478.144-2 .432-.523.288-.784.725-.784 1.312 0 .437.213.784.64 1.04.426.245 1.088.459 1.984.64l2.688.608c.928.224 1.68.533 2.256.928.586.384 1.04.805 1.36 1.264s.538.923.656 1.392c.128.459.192.875.192 1.248 0 1.099-.294 2.037-.88 2.816-.587.768-1.403 1.355-2.448 1.76-1.046.405-2.256.608-3.632.608z" fill="#475569"/><path d="m238.424 152.567h158.268" stroke="#cbd5e1" stroke-linecap="round" stroke-width="5.09284"/><path d="m252.43 162.753h129.814" stroke="#e2e8f0" stroke-linecap="round" stroke-width="5.09284"/><g fill="#e2e8f0"><rect height="33.1034" rx="5.09284" width="94.2175" x="78" y="197.66"/><rect height="33.1034" rx="5.09284" width="94.2175" x="206.594" y="197.66"/><rect height="33.1034" rx="5.09284" width="94.2175" x="335.188" y="197.66"/><rect height="33.1034" rx="5.09284" width="94.2175" x="463.782" y="197.66"/><rect height="33.1034" rx="5.09284" width="94.2175" x="78" y="250.764"/><rect height="33.1034" rx="5.09284" width="94.2175" x="206.594" y="250.764"/></g><rect fill="#8b3dff" height="33.1034" rx="5.09284" width="94.2175" x="335.188" y="250.764"/><rect fill="#e2e8f0" height="33.1034" rx="5.09284" width="94.2175" x="463.782" y="250.764"/></svg>