<svg fill="none" height="400" viewBox="0 0 636 400" width="636" xmlns="http://www.w3.org/2000/svg" xmlns:xlink="http://www.w3.org/1999/xlink"><filter id="a" color-interpolation-filters="sRGB" filterUnits="userSpaceOnUse" height="336" width="572" x="32" y="36"><feFlood flood-opacity="0" result="BackgroundImageFix"/><feColorMatrix in="SourceAlpha" result="hardAlpha" type="matrix" values="0 0 0 0 0 0 0 0 0 0 0 0 0 0 0 0 0 0 127 0"/><feOffset dy="4"/><feGaussianBlur stdDeviation="4"/><feColorMatrix type="matrix" values="0 0 0 0 0.559444 0 0 0 0 0.559444 0 0 0 0 0.633333 0 0 0 0.16 0"/><feBlend in2="BackgroundImageFix" mode="normal" result="effect1_dropShadow_1850_2773"/><feBlend in="SourceGraphic" in2="effect1_dropShadow_1850_2773" mode="normal" result="shape"/></filter><mask id="b" fill="#fff"><path d="m421.977 244.586c.174 0 .341.069.465.192.123.124.192.291.192.465v3.943h3.943c.174 0 .341.069.464.192s.193.29.193.465c0 .174-.07.341-.193.464-.123.124-.29.193-.464.193h-3.943v3.942c0 .175-.069.342-.192.465-.124.123-.291.192-.465.192s-.341-.069-.465-.192c-.123-.123-.192-.29-.192-.465v-3.942h-3.943c-.174 0-.341-.069-.464-.193-.124-.123-.193-.29-.193-.464 0-.175.069-.342.193-.465.123-.123.29-.192.464-.192h3.943v-3.943c0-.174.069-.341.192-.465.124-.123.291-.192.465-.192z" fill="#fff"/></mask><mask id="c" fill="#fff"><path d="m421.977 274.812c.174 0 .341.07.465.193.123.123.192.29.192.465v3.942h3.943c.174 0 .341.069.464.193.123.123.193.29.193.464s-.07.342-.193.465-.29.192-.464.192h-3.943v3.943c0 .174-.069.341-.192.464-.124.124-.291.193-.465.193s-.341-.069-.465-.193c-.123-.123-.192-.29-.192-.464v-3.943h-3.943c-.174 0-.341-.069-.464-.192-.124-.123-.193-.291-.193-.465s.069-.341.193-.464c.123-.124.29-.193.464-.193h3.943v-3.942c0-.175.069-.342.192-.465.124-.123.291-.193.465-.193z" fill="#fff"/></mask><mask id="d" fill="#fff"><path d="m421.977 305.038c.174 0 .341.069.465.193.123.123.192.29.192.464v3.943h3.943c.174 0 .341.069.464.192s.193.291.193.465-.07.341-.193.464c-.123.124-.29.193-.464.193h-3.943v3.942c0 .175-.069.342-.192.465-.124.123-.291.192-.465.192s-.341-.069-.465-.192c-.123-.123-.192-.29-.192-.465v-3.942h-3.943c-.174 0-.341-.069-.464-.193-.124-.123-.193-.29-.193-.464s.069-.342.193-.465c.123-.123.29-.192.464-.192h3.943v-3.943c0-.174.069-.341.192-.464.124-.124.291-.193.465-.193z" fill="#fff"/></mask><path d="m0 0h636v400h-636z" fill="#e3e9f1" fill-opacity=".5"/><g filter="url(#a)"><rect fill="#fff" height="320" rx="16" width="556" x="40" y="40"/></g><path d="m421.977 192.02c.174 0 .341.069.465.192.123.123.192.29.192.465v3.942h3.943c.174 0 .341.069.464.193.123.123.193.29.193.464 0 .175-.07.342-.193.465s-.29.192-.464.192h-3.943v3.943c0 .174-.069.341-.192.464-.124.124-.291.193-.465.193s-.341-.069-.465-.193c-.123-.123-.192-.29-.192-.464v-3.943h-3.943c-.174 0-.341-.069-.464-.192-.124-.123-.193-.29-.193-.465 0-.174.069-.341.193-.464.123-.124.29-.193.464-.193h3.943v-3.942c0-.175.069-.342.192-.465.124-.123.291-.192.465-.192z" fill="#8b3dff"/><g fill="#cbd5e1"><path d="m421.977 244.586c.174 0 .341.069.465.192.123.124.192.291.192.465v3.943h3.943c.174 0 .341.069.464.192s.193.29.193.465c0 .174-.07.341-.193.464-.123.124-.29.193-.464.193h-3.943v3.942c0 .175-.069.342-.192.465-.124.123-.291.192-.465.192s-.341-.069-.465-.192c-.123-.123-.192-.29-.192-.465v-3.942h-3.943c-.174 0-.341-.069-.464-.193-.124-.123-.193-.29-.193-.464 0-.175.069-.342.193-.465.123-.123.29-.192.464-.192h3.943v-3.943c0-.174.069-.341.192-.465.124-.123.291-.192.465-.192z"/><path d="m421.977 244.586v1.314zm.657 4.6h-1.314v1.314h1.314zm0 1.314v-1.314h-1.314v1.314zm-1.314 0h1.314v-1.314h-1.314zm-4.6-.657h1.314zm4.6-.657v1.314h1.314v-1.314zm.657-3.286c-.174 0-.341-.069-.465-.192l1.859-1.859c-.37-.37-.871-.577-1.394-.577zm-.465-.192c-.123-.124-.192-.291-.192-.465h2.628c0-.523-.208-1.024-.577-1.394zm-.192-.465v3.943h2.628v-3.943zm1.314 5.257h3.943v-2.629h-3.943zm3.943 0c-.175 0-.342-.069-.465-.193l1.858-1.858c-.369-.37-.871-.578-1.393-.578zm-.465-.193c-.123-.123-.193-.29-.193-.464h2.629c0-.523-.208-1.025-.578-1.394zm-.193-.464c0-.175.07-.342.193-.465l1.858 1.859c.37-.37.578-.872.578-1.394zm.193-.465c.123-.123.29-.192.465-.192v2.628c.522 0 1.024-.208 1.393-.577zm.465-.192h-3.943v2.628h3.943zm-5.257 1.314v3.942h2.628v-3.942zm0 3.942c0-.174.069-.341.192-.464l1.859 1.858c.37-.37.577-.871.577-1.394zm.192-.464c.124-.124.291-.193.465-.193v2.629c.523 0 1.024-.208 1.394-.578zm.465-.193c.174 0 .341.069.465.193l-1.859 1.858c.37.37.871.578 1.394.578zm.465.193c.123.123.192.29.192.464h-2.628c0 .523.207 1.024.577 1.394zm.192.464v-3.942h-2.628v3.942zm-1.314-5.256h-3.943v2.628h3.943zm-3.943 0c.175 0 .342.069.465.192l-1.859 1.859c.37.369.871.577 1.394.577zm.465.192c.123.123.192.29.192.465h-2.628c0 .522.208 1.024.577 1.394zm.192.465c0 .174-.069.341-.192.464l-1.859-1.858c-.369.369-.577.871-.577 1.394zm-.192.464c-.123.124-.29.193-.465.193v-2.629c-.523 0-1.024.208-1.394.578zm-.465.193h3.943v-2.629h-3.943zm5.257-1.314v-3.943h-2.628v3.943zm0-3.943c0 .174-.069.341-.192.465l-1.859-1.859c-.37.37-.577.871-.577 1.394zm-.192.465c-.124.123-.291.192-.465.192v-2.628c-.523 0-1.024.207-1.394.577z" mask="url(#b)"/><path d="m421.977 274.812c.174 0 .341.07.465.193.123.123.192.29.192.465v3.942h3.943c.174 0 .341.069.464.193.123.123.193.29.193.464s-.07.342-.193.465-.29.192-.464.192h-3.943v3.943c0 .174-.069.341-.192.464-.124.124-.291.193-.465.193s-.341-.069-.465-.193c-.123-.123-.192-.29-.192-.464v-3.943h-3.943c-.174 0-.341-.069-.464-.192-.124-.123-.193-.291-.193-.465s.069-.341.193-.464c.123-.124.29-.193.464-.193h3.943v-3.942c0-.175.069-.342.192-.465.124-.123.291-.193.465-.193z"/><path d="m421.977 274.812v1.315zm.657 4.6h-1.314v1.314h1.314zm0 1.314v-1.314h-1.314v1.314zm-1.314 0h1.314v-1.314h-1.314zm-4.6-.657h1.314zm4.6-.657v1.314h1.314v-1.314zm.657-3.285c-.174 0-.341-.07-.465-.193l1.859-1.858c-.37-.37-.871-.578-1.394-.578zm-.465-.193c-.123-.123-.192-.29-.192-.464h2.628c0-.523-.208-1.025-.577-1.394zm-.192-.464v3.942h2.628v-3.942zm1.314 5.256h3.943v-2.628h-3.943zm3.943 0c-.175 0-.342-.069-.465-.192l1.858-1.859c-.369-.369-.871-.577-1.393-.577zm-.465-.192c-.123-.123-.193-.291-.193-.465h2.629c0-.523-.208-1.024-.578-1.394zm-.193-.465c0-.174.07-.341.193-.464l1.858 1.858c.37-.37.578-.871.578-1.394zm.193-.464c.123-.124.29-.193.465-.193v2.628c.522 0 1.024-.207 1.393-.577zm.465-.193h-3.943v2.628h3.943zm-5.257 1.314v3.943h2.628v-3.943zm0 3.943c0-.174.069-.342.192-.465l1.859 1.859c.37-.37.577-.871.577-1.394zm.192-.465c.124-.123.291-.192.465-.192v2.628c.523 0 1.024-.208 1.394-.577zm.465-.192c.174 0 .341.069.465.192l-1.859 1.859c.37.369.871.577 1.394.577zm.465.192c.123.123.192.291.192.465h-2.628c0 .523.207 1.024.577 1.394zm.192.465v-3.943h-2.628v3.943zm-1.314-5.257h-3.943v2.628h3.943zm-3.943 0c.175 0 .342.069.465.193l-1.859 1.858c.37.37.871.577 1.394.577zm.465.193c.123.123.192.29.192.464h-2.628c0 .523.208 1.024.577 1.394zm.192.464c0 .174-.069.342-.192.465l-1.859-1.859c-.369.37-.577.871-.577 1.394zm-.192.465c-.123.123-.29.192-.465.192v-2.628c-.523 0-1.024.208-1.394.577zm-.465.192h3.943v-2.628h-3.943zm5.257-1.314v-3.942h-2.628v3.942zm0-3.942c0 .174-.069.341-.192.464l-1.859-1.858c-.37.369-.577.871-.577 1.394zm-.192.464c-.124.123-.291.193-.465.193v-2.629c-.523 0-1.024.208-1.394.578z" mask="url(#c)"/><path d="m421.977 305.038c.174 0 .341.069.465.193.123.123.192.29.192.464v3.943h3.943c.174 0 .341.069.464.192s.193.291.193.465-.07.341-.193.464c-.123.124-.29.193-.464.193h-3.943v3.942c0 .175-.069.342-.192.465-.124.123-.291.192-.465.192s-.341-.069-.465-.192c-.123-.123-.192-.29-.192-.465v-3.942h-3.943c-.174 0-.341-.069-.464-.193-.124-.123-.193-.29-.193-.464s.069-.342.193-.465c.123-.123.29-.192.464-.192h3.943v-3.943c0-.174.069-.341.192-.464.124-.124.291-.193.465-.193z"/><path d="m421.977 305.038v1.314zm.657 4.6h-1.314v1.314h1.314zm0 1.314v-1.314h-1.314v1.314zm-1.314 0h1.314v-1.314h-1.314zm-4.6-.657h1.314zm4.6-.657v1.314h1.314v-1.314zm.657-3.286c-.174 0-.341-.069-.465-.192l1.859-1.859c-.37-.369-.871-.577-1.394-.577zm-.465-.192c-.123-.123-.192-.291-.192-.465h2.628c0-.523-.208-1.024-.577-1.394zm-.192-.465v3.943h2.628v-3.943zm1.314 5.257h3.943v-2.628h-3.943zm3.943 0c-.175 0-.342-.069-.465-.193l1.858-1.858c-.369-.37-.871-.577-1.393-.577zm-.465-.193c-.123-.123-.193-.29-.193-.464h2.629c0-.523-.208-1.024-.578-1.394zm-.193-.464c0-.174.07-.342.193-.465l1.858 1.859c.37-.37.578-.871.578-1.394zm.193-.465c.123-.123.29-.192.465-.192v2.628c.522 0 1.024-.208 1.393-.577zm.465-.192h-3.943v2.628h3.943zm-5.257 1.314v3.942h2.628v-3.942zm0 3.942c0-.174.069-.341.192-.464l1.859 1.858c.37-.369.577-.871.577-1.394zm.192-.464c.124-.123.291-.193.465-.193v2.629c.523 0 1.024-.208 1.394-.578zm.465-.193c.174 0 .341.07.465.193l-1.859 1.858c.37.37.871.578 1.394.578zm.465.193c.123.123.192.29.192.464h-2.628c0 .523.207 1.025.577 1.394zm.192.464v-3.942h-2.628v3.942zm-1.314-5.256h-3.943v2.628h3.943zm-3.943 0c.175 0 .342.069.465.192l-1.859 1.859c.37.369.871.577 1.394.577zm.465.192c.123.123.192.291.192.465h-2.628c0 .523.208 1.024.577 1.394zm.192.465c0 .174-.069.341-.192.464l-1.859-1.858c-.369.37-.577.871-.577 1.394zm-.192.464c-.123.124-.29.193-.465.193v-2.628c-.523 0-1.024.207-1.394.577zm-.465.193h3.943v-2.628h-3.943zm5.257-1.314v-3.943h-2.628v3.943zm0-3.943c0 .174-.069.342-.192.465l-1.859-1.859c-.37.37-.577.871-.577 1.394zm-.192.465c-.124.123-.291.192-.465.192v-2.628c-.523 0-1.024.208-1.394.577z" mask="url(#d)"/></g><path d="m181.483 197.276h132.731" stroke="#8b3dff" stroke-linecap="round" stroke-width="5.2567"/><path d="m181.483 249.843h132.731" stroke="#cbd5e1" stroke-linecap="round" stroke-width="5.2567"/><path d="m181.483 280.069h132.731" stroke="#cbd5e1" stroke-linecap="round" stroke-width="5.2567"/><path d="m181.483 310.295h132.731" stroke="#cbd5e1" stroke-linecap="round" stroke-width="5.2567"/><path d="m181.628 213.372h193.744" stroke="#e2e8f0" stroke-linecap="round" stroke-width="5.2567"/><path d="m181.628 225.372h159.744" stroke="#e2e8f0" stroke-linecap="round" stroke-width="5.2567"/><path d="m188.451 86.864h15.744l-.016 3.904h-11.024v5.808h9.552v3.824h-9.552v9.6h-4.704zm19.033 23.136v-16.544h4.496v3.92c.267-.8427.64-1.5787 1.12-2.208.491-.64 1.083-1.136 1.776-1.488.694-.3627 1.478-.544 2.352-.544.15 0 .288.0107.416.032.139.0107.24.032.304.064v4.448c-.096-.0427-.213-.0693-.352-.08-.128-.0107-.245-.0213-.352-.032-.917-.0747-1.701-.048-2.352.08-.65.128-1.178.3467-1.584.656-.405.3093-.698.688-.88 1.136-.181.448-.272.949-.272 1.504v9.056zm16.778-7.2c-.011.843.123 1.579.4 2.208.277.619.677 1.099 1.2 1.44.533.331 1.173.496 1.92.496.8 0 1.499-.171 2.096-.512.608-.341 1.029-.901 1.264-1.68h4.208c-.181 1.173-.651 2.176-1.408 3.008-.747.832-1.653 1.467-2.72 1.904s-2.176.656-3.328.656c-1.632 0-3.072-.341-4.32-1.024-1.237-.693-2.203-1.669-2.896-2.928s-1.04-2.741-1.04-4.448c0-1.653.315-3.1413.944-4.464.629-1.3333 1.541-2.384 2.736-3.152 1.205-.7787 2.651-1.168 4.336-1.168s3.099.3573 4.24 1.072c1.152.704 2.016 1.6907 2.592 2.96.587 1.2587.88 2.7147.88 4.368v1.264zm-.016-2.784h6.752c0-.6613-.123-1.2693-.368-1.824s-.619-.992-1.12-1.312c-.491-.32-1.109-.48-1.856-.48-.725 0-1.344.176-1.856.528-.501.3413-.885.7893-1.152 1.344s-.4 1.136-.4 1.744zm29.675 15.136h-4.672v-7.632c-.224.395-.496.763-.816 1.104-.32.331-.682.624-1.088.88-.394.256-.826.453-1.296.592-.469.149-.97.224-1.504.224-1.237 0-2.378-.293-3.424-.88-1.034-.587-1.861-1.52-2.48-2.8-.618-1.291-.928-2.971-.928-5.04 0-1.8667.262-3.424.784-4.672.523-1.2587 1.264-2.2027 2.224-2.832.96-.64 2.086-.96 3.376-.96.555 0 1.088.0693 1.6.208.512.128.987.3147 1.424.56.438.2453.832.5333 1.184.864.363.32.667.6773.912 1.072l.032-2.384h4.672zm-8.24-8.256c.8 0 1.467-.245 2-.736.534-.491.928-1.136 1.184-1.936.267-.8.4-1.664.4-2.592 0-1.451-.293-2.6613-.88-3.632-.586-.9813-1.488-1.472-2.704-1.472-1.002 0-1.85.432-2.544 1.296-.693.8533-1.04 2.1227-1.04 3.808 0 1.739.326 3.051.976 3.936.662.885 1.531 1.328 2.608 1.328zm18.337 3.424c-.768 0-1.525-.117-2.272-.352-.736-.235-1.408-.581-2.016-1.04s-1.099-1.024-1.472-1.696c-.363-.672-.544-1.451-.544-2.336v-11.44h4.672v10.848c0 .768.251 1.397.752 1.888s1.237.736 2.208.736c.917 0 1.643-.235 2.176-.704.544-.48.816-1.147.816-2v-10.768h4.624v16.544h-3.52l-.544-3.28c-.192.971-.555 1.717-1.088 2.24-.523.512-1.125.864-1.808 1.056-.672.203-1.333.304-1.984.304zm16.588-7.52c-.011.843.122 1.579.4 2.208.277.619.677 1.099 1.2 1.44.533.331 1.173.496 1.92.496.8 0 1.498-.171 2.096-.512.608-.341 1.029-.901 1.264-1.68h4.208c-.182 1.173-.651 2.176-1.408 3.008-.747.832-1.654 1.467-2.72 1.904-1.067.437-2.176.656-3.328.656-1.632 0-3.072-.341-4.32-1.024-1.238-.693-2.203-1.669-2.896-2.928-.694-1.259-1.04-2.741-1.04-4.448 0-1.653.314-3.1413.944-4.464.629-1.3333 1.541-2.384 2.736-3.152 1.205-.7787 2.65-1.168 4.336-1.168 1.685 0 3.098.3573 4.24 1.072 1.152.704 2.016 1.6907 2.592 2.96.586 1.2587.88 2.7147.88 4.368v1.264zm-.016-2.784h6.752c0-.6613-.123-1.2693-.368-1.824-.246-.5547-.619-.992-1.12-1.312-.491-.32-1.11-.48-1.856-.48-.726 0-1.344.176-1.856.528-.502.3413-.886.7893-1.152 1.344-.267.5547-.4 1.136-.4 1.744zm14.363 9.984v-16.544h4.592v2.336c.256-.4053.587-.7947.992-1.168.416-.384.939-.6987 1.568-.944s1.376-.368 2.24-.368c1.013 0 1.957.1973 2.832.592.885.3947 1.6 1.0187 2.144 1.872.544.8427.816 1.9467.816 3.312v10.912h-4.672v-10.336c0-.896-.267-1.568-.8-2.016s-1.184-.672-1.952-.672c-.512 0-1.008.0907-1.488.272-.469.1813-.853.4533-1.152.816s-.448.8107-.448 1.344v10.592zm28.33-13.296h-3.68l.032 8.816c0 .405.048.709.144.912.107.192.267.32.48.384.224.053.507.08.848.08h2.224v2.88c-.213.096-.549.187-1.008.272-.448.085-1.077.128-1.888.128-1.451 0-2.576-.187-3.376-.56-.789-.373-1.339-.896-1.648-1.568s-.464-1.451-.464-2.336v-9.008h-2.688v-3.248h2.848l1.168-4.992h3.328v4.976h3.68zm8.731 13.584c-1.216 0-2.181-.144-2.896-.432-.714-.288-1.242-.667-1.584-1.136-.341-.48-.56-1.008-.656-1.584-.096-.587-.144-1.179-.144-1.776v-19.136h4.576v18.56c0 .608.128 1.104.384 1.488.267.373.763.603 1.488.688l.784.048v2.88c-.32.107-.645.197-.976.272-.33.085-.656.128-.976.128zm6.89 4.992c-1.131 0-1.931-.096-2.4-.288-.459-.181-.688-.272-.688-.272v-2.976l1.632.064c.715.043 1.291.005 1.728-.112.437-.107.768-.251.992-.432.235-.181.4-.373.496-.576.096-.192.165-.347.208-.464l.304-.912-6.432-15.856h4.624l3.968 10.784 4.016-10.784h4.56l-6.704 16.64c-.576 1.408-1.184 2.485-1.824 3.232s-1.333 1.259-2.08 1.536c-.736.277-1.536.416-2.4.416zm26.787-4.96c-1.056 0-2.006-.197-2.848-.592-.843-.395-1.51-.965-2-1.712-.491-.757-.736-1.675-.736-2.752 0-1.813.677-3.189 2.032-4.128 1.354-.949 3.493-1.44 6.416-1.472l2.064-.032v-.992c0-.7573-.224-1.3387-.672-1.744-.438-.416-1.12-.6187-2.048-.608-.683.0107-1.334.1707-1.952.48-.608.3093-1.024.848-1.248 1.616h-3.888c.064-1.1947.41-2.176 1.04-2.944.629-.7787 1.482-1.3547 2.56-1.728 1.088-.384 2.32-.576 3.696-.576 1.696 0 3.056.2133 4.08.64 1.024.416 1.765 1.0187 2.224 1.808.458.7787.688 1.7067.688 2.784v11.632h-3.904l-.384-2.848c-.566 1.195-1.275 2.021-2.128 2.48-.843.459-1.84.688-2.992.688zm1.568-3.072c.426 0 .837-.075 1.232-.224.405-.16.762-.368 1.072-.624.32-.267.576-.565.768-.896s.288-.672.288-1.024v-2.448l-1.68.032c-.779.011-1.504.107-2.176.288-.672.171-1.216.453-1.632.848-.406.395-.608.928-.608 1.6 0 .768.266 1.371.8 1.808.533.427 1.178.64 1.936.64zm18.332 3.072c-1.152 0-2.261-.187-3.328-.56-1.067-.384-1.968-.981-2.704-1.792-.736-.821-1.205-1.883-1.408-3.184h4.048c.139.587.389 1.051.752 1.392.373.341.795.587 1.264.736.469.139.917.208 1.344.208.896 0 1.616-.139 2.16-.416.555-.288.832-.725.832-1.312 0-.448-.165-.805-.496-1.072-.32-.267-.853-.469-1.6-.608l-2.912-.608c-1.461-.309-2.635-.832-3.52-1.568-.885-.747-1.339-1.8027-1.36-3.168 0-.992.261-1.8827.784-2.672.533-.7893 1.317-1.4133 2.352-1.872s2.304-.688 3.808-.688c2.037 0 3.664.448 4.88 1.344 1.227.896 1.851 2.16 1.872 3.792h-3.904c-.117-.64-.437-1.1307-.96-1.472-.512-.352-1.157-.528-1.936-.528-.811 0-1.477.144-2 .432s-.784.7253-.784 1.312c0 .4373.213.784.64 1.04.427.2453 1.088.4587 1.984.64l2.688.608c.928.224 1.68.533 2.256.928.587.384 1.04.805 1.36 1.264s.539.923.656 1.392c.128.459.192.875.192 1.248 0 1.099-.293 2.037-.88 2.816-.587.768-1.403 1.355-2.448 1.76s-2.256.608-3.632.608zm26.221-.32h-4.656l-4.464-7.136-2.192 2.336v4.8h-4.672v-23.776h4.672v14.096l6.08-6.864h5.024l-6.016 6.592zm5.606-7.2c-.011.843.123 1.579.4 2.208.277.619.677 1.099 1.2 1.44.533.331 1.173.496 1.92.496.8 0 1.499-.171 2.096-.512.608-.341 1.029-.901 1.264-1.68h4.208c-.181 1.173-.651 2.176-1.408 3.008-.747.832-1.653 1.467-2.72 1.904s-2.176.656-3.328.656c-1.632 0-3.072-.341-4.32-1.024-1.237-.693-2.203-1.669-2.896-2.928s-1.04-2.741-1.04-4.448c0-1.653.315-3.1413.944-4.464.629-1.3333 1.541-2.384 2.736-3.152 1.205-.7787 2.651-1.168 4.336-1.168s3.099.3573 4.24 1.072c1.152.704 2.016 1.6907 2.592 2.96.587 1.2587.88 2.7147.88 4.368v1.264zm-.016-2.784h6.752c0-.6613-.123-1.2693-.368-1.824s-.619-.992-1.12-1.312c-.491-.32-1.109-.48-1.856-.48-.725 0-1.344.176-1.856.528-.501.3413-.885.7893-1.152 1.344s-.4 1.136-.4 1.744zm20.508 10.304c-2.219 0-3.947-.763-5.184-2.288-1.238-1.536-1.856-3.669-1.856-6.4 0-1.728.25-3.2267.752-4.496.501-1.2693 1.242-2.2507 2.224-2.944.981-.704 2.181-1.056 3.6-1.056.597 0 1.152.0693 1.664.208.522.128.997.3093 1.424.544.426.2347.8.5067 1.12.816s.581.64.784.992v-9.472h4.688v23.776h-3.392l-.528-3.392c-.15.459-.358.907-.624 1.344-.267.437-.608.837-1.024 1.2-.416.352-.928.635-1.536.848-.598.213-1.302.32-2.112.32zm1.024-3.36c1.173 0 2.048-.411 2.624-1.232.586-.821.88-2.208.88-4.16-.011-1.131-.144-2.0693-.4-2.816s-.64-1.3013-1.152-1.664c-.502-.3733-1.142-.56-1.92-.56-1.014 0-1.856.3893-2.528 1.168-.672.768-1.008 2.0587-1.008 3.872 0 1.845.314 3.205.944 4.08.629.875 1.482 1.312 2.56 1.312zm-178.7 46.192h-4.672v-7.632c-.224.395-.496.763-.816 1.104-.32.331-.683.624-1.088.88-.395.256-.827.453-1.296.592-.469.149-.971.224-1.504.224-1.237 0-2.379-.293-3.424-.88-1.035-.587-1.861-1.52-2.48-2.8-.619-1.291-.928-2.971-.928-5.04 0-1.867.261-3.424.784-4.672.523-1.259 1.264-2.203 2.224-2.832.96-.64 2.085-.96 3.376-.96.555 0 1.088.069 1.6.208.512.128.987.315 1.424.56s.832.533 1.184.864c.363.32.667.677.912 1.072l.032-2.384h4.672zm-8.24-8.256c.8 0 1.467-.245 2-.736s.928-1.136 1.184-1.936c.267-.8.4-1.664.4-2.592 0-1.451-.293-2.661-.88-3.632-.587-.981-1.488-1.472-2.704-1.472-1.003 0-1.851.432-2.544 1.296-.693.853-1.04 2.123-1.04 3.808 0 1.739.325 3.051.976 3.936.661.885 1.531 1.328 2.608 1.328zm18.336 3.424c-.768 0-1.525-.117-2.272-.352-.736-.235-1.408-.581-2.016-1.04s-1.098-1.024-1.472-1.696c-.362-.672-.544-1.451-.544-2.336v-11.44h4.672v10.848c0 .768.251 1.397.752 1.888.502.491 1.238.736 2.208.736.918 0 1.643-.235 2.176-.704.544-.48.816-1.147.816-2v-10.768h4.624v16.544h-3.52l-.544-3.28c-.192.971-.554 1.717-1.088 2.24-.522.512-1.125.864-1.808 1.056-.672.203-1.333.304-1.984.304zm16.588-7.52c-.011.843.123 1.579.4 2.208.277.619.677 1.099 1.2 1.44.533.331 1.173.496 1.92.496.8 0 1.499-.171 2.096-.512.608-.341 1.029-.901 1.264-1.68h4.208c-.181 1.173-.651 2.176-1.408 3.008-.747.832-1.653 1.467-2.72 1.904s-2.176.656-3.328.656c-1.632 0-3.072-.341-4.32-1.024-1.237-.693-2.203-1.669-2.896-2.928s-1.04-2.741-1.04-4.448c0-1.653.315-3.141.944-4.464.629-1.333 1.541-2.384 2.736-3.152 1.205-.779 2.651-1.168 4.336-1.168s3.099.357 4.24 1.072c1.152.704 2.016 1.691 2.592 2.96.587 1.259.88 2.715.88 4.368v1.264zm-.016-2.784h6.752c0-.661-.123-1.269-.368-1.824s-.619-.992-1.12-1.312c-.491-.32-1.109-.48-1.856-.48-.725 0-1.344.176-1.856.528-.501.341-.885.789-1.152 1.344s-.4 1.136-.4 1.744zm20.876 10.304c-1.152 0-2.261-.187-3.328-.56-1.066-.384-1.968-.981-2.704-1.792-.736-.821-1.205-1.883-1.408-3.184h4.048c.139.587.39 1.051.752 1.392.374.341.795.587 1.264.736.47.139.918.208 1.344.208.896 0 1.616-.139 2.16-.416.555-.288.832-.725.832-1.312 0-.448-.165-.805-.496-1.072-.32-.267-.853-.469-1.6-.608l-2.912-.608c-1.461-.309-2.634-.832-3.52-1.568-.885-.747-1.338-1.803-1.36-3.168 0-.992.262-1.883.784-2.672.534-.789 1.318-1.413 2.352-1.872 1.035-.459 2.304-.688 3.808-.688 2.038 0 3.664.448 4.88 1.344 1.227.896 1.851 2.16 1.872 3.792h-3.904c-.117-.64-.437-1.131-.96-1.472-.512-.352-1.157-.528-1.936-.528-.81 0-1.477.144-2 .432-.522.288-.784.725-.784 1.312 0 .437.214.784.64 1.04.427.245 1.088.459 1.984.64l2.688.608c.928.224 1.68.533 2.256.928.587.384 1.04.805 1.36 1.264s.539.923.656 1.392c.128.459.192.875.192 1.248 0 1.099-.293 2.037-.88 2.816-.586.768-1.402 1.355-2.448 1.76-1.045.405-2.256.608-3.632.608zm20.13-13.616h-3.68l.032 8.816c0 .405.048.709.144.912.107.192.267.32.48.384.224.053.507.08.848.08h2.224v2.88c-.213.096-.549.187-1.008.272-.448.085-1.077.128-1.888.128-1.451 0-2.576-.187-3.376-.56-.789-.373-1.339-.896-1.648-1.568s-.464-1.451-.464-2.336v-9.008h-2.688v-3.248h2.848l1.168-4.992h3.328v4.976h3.68zm8.155-3.248v16.544h-4.464v-16.544zm.048-6.576v4.208h-4.544v-4.208zm11.29 23.44c-1.621 0-3.035-.347-4.24-1.04-1.195-.693-2.123-1.675-2.784-2.944-.651-1.269-.976-2.773-.976-4.512s.325-3.259.976-4.56c.661-1.301 1.589-2.315 2.784-3.04 1.205-.725 2.624-1.088 4.256-1.088s3.045.357 4.24 1.072c1.195.704 2.117 1.707 2.768 3.008s.976 2.837.976 4.608c0 1.664-.32 3.136-.96 4.416-.629 1.269-1.541 2.267-2.736 2.992-1.184.725-2.619 1.088-4.304 1.088zm.016-3.472c.821 0 1.483-.24 1.984-.72s.864-1.109 1.088-1.888c.235-.789.352-1.648.352-2.576 0-.875-.107-1.701-.32-2.48-.203-.779-.555-1.408-1.056-1.888s-1.184-.72-2.048-.72c-.821 0-1.488.229-2 .688-.501.448-.869 1.061-1.104 1.84-.235.768-.352 1.621-.352 2.56 0 .864.107 1.696.32 2.496.213.789.571 1.435 1.072 1.936s1.189.752 2.064.752zm11.099 3.152v-16.544h4.592v2.336c.256-.405.586-.795.992-1.168.416-.384.938-.699 1.568-.944.629-.245 1.376-.368 2.24-.368 1.013 0 1.957.197 2.832.592.885.395 1.6 1.019 2.144 1.872.544.843.816 1.947.816 3.312v10.912h-4.672v-10.336c0-.896-.267-1.568-.8-2.016-.534-.448-1.184-.672-1.952-.672-.512 0-1.008.091-1.488.272-.47.181-.854.453-1.152.816-.299.363-.448.811-.448 1.344v10.592zm25.325.32c-1.152 0-2.261-.187-3.328-.56-1.067-.384-1.968-.981-2.704-1.792-.736-.821-1.205-1.883-1.408-3.184h4.048c.139.587.389 1.051.752 1.392.373.341.795.587 1.264.736.469.139.917.208 1.344.208.896 0 1.616-.139 2.16-.416.555-.288.832-.725.832-1.312 0-.448-.165-.805-.496-1.072-.32-.267-.853-.469-1.6-.608l-2.912-.608c-1.461-.309-2.635-.832-3.52-1.568-.885-.747-1.339-1.803-1.36-3.168 0-.992.261-1.883.784-2.672.533-.789 1.317-1.413 2.352-1.872s2.304-.688 3.808-.688c2.037 0 3.664.448 4.88 1.344 1.227.896 1.851 2.16 1.872 3.792h-3.904c-.117-.64-.437-1.131-.96-1.472-.512-.352-1.157-.528-1.936-.528-.811 0-1.477.144-2 .432s-.784.725-.784 1.312c0 .437.213.784.64 1.04.427.245 1.088.459 1.984.64l2.688.608c.928.224 1.68.533 2.256.928.587.384 1.04.805 1.36 1.264s.539.923.656 1.392c.128.459.192.875.192 1.248 0 1.099-.293 2.037-.88 2.816-.587.768-1.403 1.355-2.448 1.76s-2.256.608-3.632.608z" fill="#475569"/></svg>