<svg fill="none" height="400" viewBox="0 0 636 400" width="636" xmlns="http://www.w3.org/2000/svg" xmlns:xlink="http://www.w3.org/1999/xlink"><filter id="a" color-interpolation-filters="sRGB" filterUnits="userSpaceOnUse" height="332" width="568" x="34" y="37"><feFlood flood-opacity="0" result="BackgroundImageFix"/><feColorMatrix in="SourceAlpha" result="hardAlpha" type="matrix" values="0 0 0 0 0 0 0 0 0 0 0 0 0 0 0 0 0 0 127 0"/><feOffset dy="3"/><feGaussianBlur stdDeviation="3"/><feColorMatrix type="matrix" values="0 0 0 0 0.0117647 0 0 0 0 0 0 0 0 0 0.278431 0 0 0 0.1 0"/><feBlend in2="BackgroundImageFix" mode="normal" result="effect1_dropShadow_1852_2985"/><feBlend in="SourceGraphic" in2="effect1_dropShadow_1852_2985" mode="normal" result="shape"/></filter><mask id="b" fill="#fff"><path d="m40 192h556v152c0 8.837-7.163 16-16 16h-524c-8.8365 0-16-7.163-16-16z" fill="#fff"/></mask><path d="m0 0h636v400h-636z" fill="#e3e9f1" fill-opacity=".5"/><g filter="url(#a)"><rect fill="#f1f5f9" height="320" rx="16" width="556" x="40" y="40"/></g><path d="m40 192h556v152c0 8.837-7.163 16-16 16h-524c-8.8365 0-16-7.163-16-16z" fill="#fff"/><circle cx="84" cy="220" fill="#8b3dff" r="12"/><path d="m72 250h104" stroke="#cbd5e1" stroke-linecap="round" stroke-width="4"/><path d="m72 262h85" stroke="#e2e8f0" stroke-linecap="round" stroke-width="4"/><path d="m72 274h67" stroke="#e2e8f0" stroke-linecap="round" stroke-width="4"/><rect fill="#e2e8f0" height="12" rx="4" width="12" x="72" y="286"/><rect fill="#e2e8f0" height="12" rx="4" width="12" x="88" y="286"/><rect fill="#e2e8f0" height="12" rx="4" width="12" x="104" y="286"/><g stroke-linecap="round"><path d="m242.667 220.5h31" stroke="#94a3b8" stroke-width="5"/><path d="m242.667 233.5h47" stroke="#cbd5e1" stroke-width="4"/><path d="m242.667 246.5h33" stroke="#cbd5e1" stroke-width="4"/><path d="m242.667 259.5h45" stroke="#cbd5e1" stroke-width="4"/><path d="m242.667 272.5h36" stroke="#e2e8f0" stroke-width="4"/><path d="m242.667 285.5h31" stroke="#e2e8f0" stroke-width="4"/><path d="m356.333 220.5h31" stroke="#94a3b8" stroke-width="5"/><path d="m356.333 233.5h47" stroke="#cbd5e1" stroke-width="4"/><path d="m356.333 246.5h33" stroke="#cbd5e1" stroke-width="4"/><path d="m356.333 259.5h45" stroke="#cbd5e1" stroke-width="4"/><path d="m356.333 272.5h36" stroke="#e2e8f0" stroke-width="4"/><path d="m356.333 285.5h31" stroke="#e2e8f0" stroke-width="4"/><path d="m470 220h31" stroke="#94a3b8" stroke-width="5"/></g><rect fill="#8b3dff" height="16" rx="4" width="40" x="524" y="270"/><rect fill="#e2e8f0" height="16" rx="4" width="52" x="470" y="270"/><path d="m470 237h94" stroke="#cbd5e1" stroke-linecap="round" stroke-width="4"/><path d="m470 249h18" stroke="#cbd5e1" stroke-linecap="round" stroke-width="4"/><path d="m470 258h18" stroke="#cbd5e1" stroke-linecap="round" stroke-width="4"/><path d="m494 249h60" stroke="#e2e8f0" stroke-linecap="round" stroke-width="4"/><path d="m494 258h18" stroke="#e2e8f0" stroke-linecap="round" stroke-width="4"/><path d="m519 258h18" stroke="#e2e8f0" stroke-linecap="round" stroke-width="4"/><path d="m544 258h18" stroke="#e2e8f0" stroke-linecap="round" stroke-width="4"/><path d="m72 344h104" stroke="#e2e8f0" stroke-linecap="round" stroke-width="4"/><path d="m204 344h31" stroke="#e2e8f0" stroke-linecap="round" stroke-width="4"/><path d="m249 344h31" stroke="#e2e8f0" stroke-linecap="round" stroke-width="4"/><path d="m294 344h31" stroke="#e2e8f0" stroke-linecap="round" stroke-width="4"/><path d="m453 344h31" stroke="#e2e8f0" stroke-linecap="round" stroke-width="4"/><path d="m40 191h556v2h-556zm556 169h-556zm-556 0v-168zm556-168v168z" fill="#cbd5e1" mask="url(#b)"/></svg>