<svg fill="none" height="400" viewBox="0 0 636 400" width="636" xmlns="http://www.w3.org/2000/svg" xmlns:xlink="http://www.w3.org/1999/xlink"><filter id="a" color-interpolation-filters="sRGB" filterUnits="userSpaceOnUse" height="336" width="572" x="32" y="36"><feFlood flood-opacity="0" result="BackgroundImageFix"/><feColorMatrix in="SourceAlpha" result="hardAlpha" type="matrix" values="0 0 0 0 0 0 0 0 0 0 0 0 0 0 0 0 0 0 127 0"/><feOffset dy="4"/><feGaussianBlur stdDeviation="4"/><feColorMatrix type="matrix" values="0 0 0 0 0.559444 0 0 0 0 0.559444 0 0 0 0 0.633333 0 0 0 0.16 0"/><feBlend in2="BackgroundImageFix" mode="normal" result="effect1_dropShadow_1850_2714"/><feBlend in="SourceGraphic" in2="effect1_dropShadow_1850_2714" mode="normal" result="shape"/></filter><path d="m0 0h636v400h-636z" fill="#e3e9f1" fill-opacity=".5"/><g filter="url(#a)"><rect fill="#fff" height="320" rx="16" width="556" x="40" y="40"/></g><path d="m272.592 72.864h15.744l-.016 3.904h-11.024v5.808h9.552v3.824h-9.552v9.6h-4.704zm25.481 23.456c-1.622 0-3.035-.3467-4.24-1.04-1.195-.6933-2.123-1.6747-2.784-2.944-.651-1.2693-.976-2.7733-.976-4.512s.325-3.2587.976-4.56c.661-1.3013 1.589-2.3147 2.784-3.04 1.205-.7253 2.624-1.088 4.256-1.088s3.045.3573 4.24 1.072c1.194.704 2.117 1.7067 2.768 3.008.65 1.3013.976 2.8373.976 4.608 0 1.664-.32 3.136-.96 4.416-.63 1.2693-1.542 2.2667-2.736 2.992-1.184.7253-2.619 1.088-4.304 1.088zm.016-3.472c.821 0 1.482-.24 1.984-.72.501-.48.864-1.1093 1.088-1.888.234-.7893.352-1.648.352-2.576 0-.8747-.107-1.7013-.32-2.48-.203-.7787-.555-1.408-1.056-1.888-.502-.48-1.184-.72-2.048-.72-.822 0-1.488.2293-2 .688-.502.448-.87 1.0613-1.104 1.84-.235.768-.352 1.6213-.352 2.56 0 .864.106 1.696.32 2.496.213.7893.57 1.4347 1.072 1.936.501.5013 1.189.752 2.064.752zm11.099 3.152v-16.544h4.496v3.92c.266-.8427.64-1.5787 1.12-2.208.49-.64 1.082-1.136 1.776-1.488.693-.3627 1.477-.544 2.352-.544.149 0 .288.0107.416.032.138.0107.24.032.304.064v4.448c-.096-.0427-.214-.0693-.352-.08-.128-.0107-.246-.0213-.352-.032-.918-.0747-1.702-.048-2.353.08-.65.128-1.178.3467-1.583.656-.406.3093-.699.688-.88 1.136-.182.448-.272.9493-.272 1.504v9.056zm13 0v-16.544h4.576v2.336c.501-.7253 1.173-1.3493 2.016-1.872.853-.5227 1.925-.784 3.216-.784.565 0 1.141.1013 1.728.304.586.2027 1.136.5013 1.648.896.522.384.944.8693 1.263 1.456.534-.7573 1.233-1.3867 2.097-1.888.874-.512 1.845-.768 2.912-.768.618 0 1.242.1013 1.872.304.64.2027 1.226.5333 1.76.992.533.4587.96 1.072 1.28 1.84.33.7573.496 1.696.496 2.816v10.912h-4.672v-10.336c0-.6613-.134-1.1893-.4-1.584-.256-.4053-.587-.6933-.992-.864-.395-.1813-.816-.272-1.264-.272-.416 0-.838.0853-1.264.256-.427.16-.79.4213-1.088.784-.299.3627-.448.8373-.448 1.424v10.592h-4.656v-10.752c0-.5013-.134-.9227-.4-1.264-.267-.3413-.603-.5973-1.008-.768-.395-.1813-.8-.272-1.216-.272-.427 0-.854.0907-1.28.272-.427.1707-.784.4427-1.072.816-.288.3627-.432.8213-.432 1.376v10.592zm35.012.32c-1.152 0-2.261-.1867-3.328-.56-1.066-.384-1.968-.9813-2.704-1.792-.736-.8213-1.205-1.8827-1.408-3.184h4.048c.139.5867.39 1.0507.752 1.392.374.3413.795.5867 1.264.736.47.1387.918.208 1.344.208.896 0 1.616-.1387 2.16-.416.555-.288.832-.7253.832-1.312 0-.448-.165-.8053-.496-1.072-.32-.2667-.853-.4693-1.6-.608l-2.912-.608c-1.461-.3093-2.634-.832-3.52-1.568-.885-.7467-1.338-1.8027-1.36-3.168 0-.992.262-1.8827.784-2.672.534-.7893 1.318-1.4133 2.352-1.872 1.035-.4587 2.304-.688 3.808-.688 2.038 0 3.664.448 4.88 1.344 1.227.896 1.851 2.16 1.872 3.792h-3.904c-.117-.64-.437-1.1307-.96-1.472-.512-.352-1.157-.528-1.936-.528-.81 0-1.477.144-2 .432-.522.288-.784.7253-.784 1.312 0 .4373.214.784.64 1.04.427.2453 1.088.4587 1.984.64l2.688.608c.928.224 1.68.5333 2.256.928.587.384 1.04.8053 1.36 1.264s.539.9227.656 1.392c.128.4587.192.8747.192 1.248 0 1.0987-.293 2.0373-.88 2.816-.586.768-1.402 1.3547-2.448 1.76-1.045.4053-2.256.608-3.632.608z" fill="#475569"/><rect fill="#f1f5f9" height="220" rx="11.5" width="245" x="195.5" y="115.5"/><rect fill="#8b3dff" height="4" rx="2" transform="matrix(-1 0 0 1 249 131)" width="38"/><rect fill="#fff" height="20" rx="4.51299" stroke="#eed8ff" transform="matrix(-1 0 0 1 424 139)" width="213" x="-.5" y=".5"/><rect fill="#cbd5e1" height="4" rx="2" transform="matrix(-1 0 0 1 266 173)" width="55"/><rect fill="#fff" height="20" rx="4.51299" stroke="#e2e8f0" transform="matrix(-1 0 0 1 310.5 181)" width="99.5" x="-.5" y=".5"/><rect fill="#cbd5e1" height="4" rx="2" transform="matrix(-1 0 0 1 379.5 173)" width="55"/><rect fill="#fff" height="20" rx="4.51299" stroke="#e2e8f0" transform="matrix(-1 0 0 1 424 181)" width="99.5" x="-.5" y=".5"/><rect fill="#cbd5e1" height="4" rx="2" transform="matrix(-1 0 0 1 266 215)" width="55"/><rect fill="#fff" height="20" rx="4.51299" stroke="#e2e8f0" transform="matrix(-1 0 0 1 424 223)" width="213" x="-.5" y=".5"/><rect fill="#cbd5e1" height="4" rx="2" transform="matrix(-1 0 0 1 266 257)" width="55"/><rect fill="#fff" height="20" rx="4.51299" stroke="#e2e8f0" transform="matrix(-1 0 0 1 424 265)" width="213" x="-.5" y=".5"/><rect fill="#8b3dff" height="20" rx="4.51299" stroke="#8b3dff" transform="matrix(-1 0 0 1 424 299)" width="213" x="-.5" y=".5"/><rect height="220" rx="11.5" stroke="#e2e8f0" width="245" x="195.5" y="115.5"/></svg>