<svg fill="none" height="400" viewBox="0 0 636 400" width="636" xmlns="http://www.w3.org/2000/svg" xmlns:xlink="http://www.w3.org/1999/xlink"><filter id="a" color-interpolation-filters="sRGB" filterUnits="userSpaceOnUse" height="332" width="568" x="34" y="37"><feFlood flood-opacity="0" result="BackgroundImageFix"/><feColorMatrix in="SourceAlpha" result="hardAlpha" type="matrix" values="0 0 0 0 0 0 0 0 0 0 0 0 0 0 0 0 0 0 127 0"/><feOffset dy="3"/><feGaussianBlur stdDeviation="3"/><feColorMatrix type="matrix" values="0 0 0 0 0.0117647 0 0 0 0 0 0 0 0 0 0.278431 0 0 0 0.1 0"/><feBlend in2="BackgroundImageFix" mode="normal" result="effect1_dropShadow_1852_2961"/><feBlend in="SourceGraphic" in2="effect1_dropShadow_1852_2961" mode="normal" result="shape"/></filter><mask id="b" fill="#fff"><path d="m40 56c0-8.8366 7.1634-16 16-16h524c8.837 0 16 7.1634 16 16v40h-556z" fill="#fff"/></mask><path d="m0 0h636v400h-636z" fill="#e3e9f1" fill-opacity=".5"/><g filter="url(#a)"><rect fill="#f1f5f9" height="320" rx="16" width="556" x="40" y="40"/></g><path d="m40 56c0-8.8366 7.1634-16 16-16h524c8.837 0 16 7.1634 16 16v40h-556z" fill="#fff"/><circle cx="68" cy="68" fill="#8b3dff" r="12"/><g stroke-linecap="round" stroke-width="5"><path d="m97 68h31" stroke="#cbd5e1"/><path d="m145 68h31" stroke="#cbd5e1"/><path d="m193 68h31" stroke="#8b3dff"/><path d="m241 68h31" stroke="#cbd5e1"/><path d="m289 68h31" stroke="#cbd5e1"/></g><rect fill="#e2e8f0" height="16" rx="4" width="40" x="496" y="60"/><rect fill="#8b3dff" height="16" rx="4" width="40" x="540" y="60"/><path d="m40 40h556zm556 57h-556v-2h556zm-556-1v-56zm556-56v56z" fill="#cbd5e1" mask="url(#b)"/></svg>