<svg width="636" height="400" viewBox="0 0 636 400" fill="none" xmlns="http://www.w3.org/2000/svg">
<rect width="636" height="400" fill="#E3E9F1" fill-opacity="0.5"/>
<g filter="url(#filter0_d_2112_3236)">
<rect x="40" y="40" width="556" height="320" rx="16" fill="white"/>
</g>
<path d="M256.592 87.864H261.248V111H256.592V87.864ZM265.844 111V94.456H270.436V96.792C270.692 96.3867 271.022 95.9973 271.428 95.624C271.844 95.24 272.366 94.9253 272.996 94.68C273.625 94.4347 274.372 94.312 275.236 94.312C276.249 94.312 277.193 94.5093 278.068 94.904C278.953 95.2987 279.668 95.9227 280.212 96.776C280.756 97.6187 281.028 98.7227 281.028 100.088V111H276.356V100.664C276.356 99.768 276.089 99.096 275.556 98.648C275.022 98.2 274.372 97.976 273.604 97.976C273.092 97.976 272.596 98.0667 272.116 98.248C271.646 98.4293 271.262 98.7013 270.964 99.064C270.665 99.4267 270.516 99.8747 270.516 100.408V111H265.844ZM290.957 111.32C288.738 111.32 287.01 110.557 285.773 109.032C284.535 107.496 283.917 105.363 283.917 102.632C283.917 100.904 284.167 99.4053 284.669 98.136C285.17 96.8667 285.911 95.8853 286.893 95.192C287.874 94.488 289.074 94.136 290.493 94.136C291.09 94.136 291.645 94.2053 292.157 94.344C292.679 94.472 293.154 94.6533 293.581 94.888C294.007 95.1227 294.381 95.3947 294.701 95.704C295.021 96.0133 295.282 96.344 295.485 96.696V87.224H300.173V111H296.781L296.253 107.608C296.103 108.067 295.895 108.515 295.629 108.952C295.362 109.389 295.021 109.789 294.605 110.152C294.189 110.504 293.677 110.787 293.069 111C292.471 111.213 291.767 111.32 290.957 111.32ZM291.981 107.96C293.154 107.96 294.029 107.549 294.605 106.728C295.191 105.907 295.485 104.52 295.485 102.568C295.474 101.437 295.341 100.499 295.085 99.752C294.829 99.0053 294.445 98.4507 293.933 98.088C293.431 97.7147 292.791 97.528 292.013 97.528C290.999 97.528 290.157 97.9173 289.485 98.696C288.813 99.464 288.477 100.755 288.477 102.568C288.477 104.413 288.791 105.773 289.421 106.648C290.05 107.523 290.903 107.96 291.981 107.96ZM310.284 111.32C309.516 111.32 308.758 111.203 308.012 110.968C307.276 110.733 306.604 110.387 305.996 109.928C305.388 109.469 304.897 108.904 304.524 108.232C304.161 107.56 303.98 106.781 303.98 105.896V94.456H308.652V105.304C308.652 106.072 308.902 106.701 309.404 107.192C309.905 107.683 310.641 107.928 311.612 107.928C312.529 107.928 313.254 107.693 313.788 107.224C314.332 106.744 314.604 106.077 314.604 105.224V94.456H319.228V111H315.708L315.164 107.72C314.972 108.691 314.609 109.437 314.076 109.96C313.553 110.472 312.95 110.824 312.268 111.016C311.596 111.219 310.934 111.32 310.284 111.32ZM329.575 111.32C328.423 111.32 327.314 111.133 326.247 110.76C325.181 110.376 324.279 109.779 323.543 108.968C322.807 108.147 322.338 107.085 322.135 105.784H326.183C326.322 106.371 326.573 106.835 326.935 107.176C327.309 107.517 327.73 107.763 328.199 107.912C328.669 108.051 329.117 108.12 329.543 108.12C330.439 108.12 331.159 107.981 331.703 107.704C332.258 107.416 332.535 106.979 332.535 106.392C332.535 105.944 332.37 105.587 332.039 105.32C331.719 105.053 331.186 104.851 330.439 104.712L327.527 104.104C326.066 103.795 324.893 103.272 324.007 102.536C323.122 101.789 322.669 100.733 322.647 99.368C322.647 98.376 322.909 97.4853 323.431 96.696C323.965 95.9067 324.749 95.2827 325.783 94.824C326.818 94.3653 328.087 94.136 329.591 94.136C331.629 94.136 333.255 94.584 334.471 95.48C335.698 96.376 336.322 97.64 336.343 99.272H332.439C332.322 98.632 332.002 98.1413 331.479 97.8C330.967 97.448 330.322 97.272 329.543 97.272C328.733 97.272 328.066 97.416 327.543 97.704C327.021 97.992 326.759 98.4293 326.759 99.016C326.759 99.4533 326.973 99.8 327.399 100.056C327.826 100.301 328.487 100.515 329.383 100.696L332.071 101.304C332.999 101.528 333.751 101.837 334.327 102.232C334.914 102.616 335.367 103.037 335.687 103.496C336.007 103.955 336.226 104.419 336.343 104.888C336.471 105.347 336.535 105.763 336.535 106.136C336.535 107.235 336.242 108.173 335.655 108.952C335.069 109.72 334.253 110.307 333.207 110.712C332.162 111.117 330.951 111.32 329.575 111.32ZM349.705 97.704H346.025L346.057 106.52C346.057 106.925 346.105 107.229 346.201 107.432C346.308 107.624 346.468 107.752 346.681 107.816C346.905 107.869 347.188 107.896 347.529 107.896H349.753V110.776C349.54 110.872 349.204 110.963 348.745 111.048C348.297 111.133 347.668 111.176 346.857 111.176C345.406 111.176 344.281 110.989 343.481 110.616C342.692 110.243 342.142 109.72 341.833 109.048C341.524 108.376 341.369 107.597 341.369 106.712V97.704H338.681V94.456H341.529L342.697 89.464H346.025V94.44H349.705V97.704ZM353.156 111V94.456H357.652V98.376C357.919 97.5333 358.292 96.7973 358.772 96.168C359.263 95.528 359.855 95.032 360.548 94.68C361.242 94.3173 362.026 94.136 362.9 94.136C363.05 94.136 363.188 94.1467 363.316 94.168C363.455 94.1787 363.556 94.2 363.62 94.232V98.68C363.524 98.6373 363.407 98.6107 363.268 98.6C363.14 98.5893 363.023 98.5787 362.916 98.568C361.999 98.4933 361.215 98.52 360.564 98.648C359.914 98.776 359.386 98.9947 358.98 99.304C358.575 99.6133 358.282 99.992 358.1 100.44C357.919 100.888 357.828 101.389 357.828 101.944V111H353.156ZM369.42 116.28C368.289 116.28 367.489 116.184 367.02 115.992C366.561 115.811 366.332 115.72 366.332 115.72V112.744L367.964 112.808C368.678 112.851 369.254 112.813 369.692 112.696C370.129 112.589 370.46 112.445 370.684 112.264C370.918 112.083 371.084 111.891 371.18 111.688C371.276 111.496 371.345 111.341 371.388 111.224L371.692 110.312L365.26 94.456H369.884L373.852 105.24L377.868 94.456H382.428L375.724 111.096C375.148 112.504 374.54 113.581 373.9 114.328C373.26 115.075 372.566 115.587 371.82 115.864C371.084 116.141 370.284 116.28 369.42 116.28Z" fill="#475569"/>
<rect x="77.6125" y="166.613" width="79.625" height="96.775" rx="4.2875" fill="white"/>
<rect x="77.6125" y="166.613" width="79.625" height="96.775" rx="4.2875" stroke="#E2E8F0" stroke-width="1.225"/>
<circle cx="117.425" cy="205.2" r="18.9875" fill="#F8FAFC" stroke="#E2E8F0" stroke-width="1.225"/>
<line x1="100.888" y1="240.112" x2="133.963" y2="240.112" stroke="#CBD5E1" stroke-width="8.575" stroke-linecap="round"/>
<rect x="178.063" y="166.613" width="79.625" height="96.775" rx="4.2875" fill="white"/>
<rect x="178.063" y="166.613" width="79.625" height="96.775" rx="4.2875" stroke="#8B3DFF" stroke-width="1.225"/>
<circle cx="217.874" cy="205.2" r="18.9875" fill="#F8FAFC" stroke="#8B3DFF" stroke-width="1.225"/>
<line x1="201.337" y1="240.112" x2="234.412" y2="240.112" stroke="#8B3DFF" stroke-width="8.575" stroke-linecap="round"/>
<rect x="278.513" y="166.613" width="79.625" height="96.775" rx="4.2875" fill="white"/>
<rect x="278.513" y="166.613" width="79.625" height="96.775" rx="4.2875" stroke="#E2E8F0" stroke-width="1.225"/>
<circle cx="318.325" cy="205.2" r="18.9875" fill="#F8FAFC" stroke="#E2E8F0" stroke-width="1.225"/>
<line x1="301.787" y1="240.112" x2="334.862" y2="240.112" stroke="#CBD5E1" stroke-width="8.575" stroke-linecap="round"/>
<rect x="378.963" y="166.613" width="79.625" height="96.775" rx="4.2875" fill="white"/>
<rect x="378.963" y="166.613" width="79.625" height="96.775" rx="4.2875" stroke="#E2E8F0" stroke-width="1.225"/>
<circle cx="418.775" cy="205.2" r="18.9875" fill="#F8FAFC" stroke="#E2E8F0" stroke-width="1.225"/>
<line x1="402.238" y1="240.112" x2="435.313" y2="240.112" stroke="#CBD5E1" stroke-width="8.575" stroke-linecap="round"/>
<rect x="479.412" y="166.613" width="79.625" height="96.775" rx="4.2875" fill="white"/>
<rect x="479.412" y="166.613" width="79.625" height="96.775" rx="4.2875" stroke="#E2E8F0" stroke-width="1.225"/>
<circle cx="519.224" cy="205.2" r="18.9875" fill="#F8FAFC" stroke="#E2E8F0" stroke-width="1.225"/>
<line x1="502.687" y1="240.112" x2="535.762" y2="240.112" stroke="#CBD5E1" stroke-width="8.575" stroke-linecap="round"/>
<defs>
<filter id="filter0_d_2112_3236" x="32" y="36" width="572" height="336" filterUnits="userSpaceOnUse" color-interpolation-filters="sRGB">
<feFlood flood-opacity="0" result="BackgroundImageFix"/>
<feColorMatrix in="SourceAlpha" type="matrix" values="0 0 0 0 0 0 0 0 0 0 0 0 0 0 0 0 0 0 127 0" result="hardAlpha"/>
<feOffset dy="4"/>
<feGaussianBlur stdDeviation="4"/>
<feColorMatrix type="matrix" values="0 0 0 0 0.559444 0 0 0 0 0.559444 0 0 0 0 0.633333 0 0 0 0.16 0"/>
<feBlend mode="normal" in2="BackgroundImageFix" result="effect1_dropShadow_2112_3236"/>
<feBlend mode="normal" in="SourceGraphic" in2="effect1_dropShadow_2112_3236" result="shape"/>
</filter>
</defs>
</svg>
