<svg fill="none" height="400" viewBox="0 0 636 400" width="636" xmlns="http://www.w3.org/2000/svg" xmlns:xlink="http://www.w3.org/1999/xlink"><filter id="a" color-interpolation-filters="sRGB" filterUnits="userSpaceOnUse" height="336" width="572" x="32" y="36"><feFlood flood-opacity="0" result="BackgroundImageFix"/><feColorMatrix in="SourceAlpha" result="hardAlpha" type="matrix" values="0 0 0 0 0 0 0 0 0 0 0 0 0 0 0 0 0 0 127 0"/><feOffset dy="4"/><feGaussianBlur stdDeviation="4"/><feColorMatrix type="matrix" values="0 0 0 0 0.559444 0 0 0 0 0.559444 0 0 0 0 0.633333 0 0 0 0.16 0"/><feBlend in2="BackgroundImageFix" mode="normal" result="effect1_dropShadow_1850_2406"/><feBlend in="SourceGraphic" in2="effect1_dropShadow_1850_2406" mode="normal" result="shape"/></filter><path d="m0 0h636v400h-636z" fill="#e3e9f1" fill-opacity=".5"/><g filter="url(#a)"><rect fill="#fff" height="320" rx="16" width="556" x="40" y="40"/></g><path d="m207.545 115.864h4.656v23.136h-4.656zm9.252 23.136v-16.544h4.592v2.336c.256-.405.587-.795.992-1.168.416-.384.939-.699 1.568-.944s1.376-.368 2.24-.368c1.013 0 1.957.197 2.832.592.885.395 1.6 1.019 2.144 1.872.544.843.816 1.947.816 3.312v10.912h-4.672v-10.336c0-.896-.267-1.568-.8-2.016s-1.184-.672-1.952-.672c-.512 0-1.008.091-1.488.272-.469.181-.853.453-1.152.816s-.448.811-.448 1.344v10.592zm28.33-13.296h-3.68l.032 8.816c0 .405.048.709.144.912.107.192.267.32.48.384.224.053.507.08.848.08h2.224v2.88c-.213.096-.549.187-1.008.272-.448.085-1.077.128-1.888.128-1.451 0-2.576-.187-3.376-.56-.789-.373-1.339-.896-1.648-1.568s-.464-1.451-.464-2.336v-9.008h-2.688v-3.248h2.848l1.168-4.992h3.328v4.976h3.68zm6.76 6.096c-.011.843.123 1.579.4 2.208.277.619.677 1.099 1.2 1.44.533.331 1.173.496 1.92.496.8 0 1.499-.171 2.096-.512.608-.341 1.029-.901 1.264-1.68h4.208c-.181 1.173-.651 2.176-1.408 3.008-.747.832-1.653 1.467-2.72 1.904s-2.176.656-3.328.656c-1.632 0-3.072-.341-4.32-1.024-1.237-.693-2.203-1.669-2.896-2.928s-1.04-2.741-1.04-4.448c0-1.653.315-3.141.944-4.464.629-1.333 1.541-2.384 2.736-3.152 1.205-.779 2.651-1.168 4.336-1.168s3.099.357 4.24 1.072c1.152.704 2.016 1.691 2.592 2.96.587 1.259.88 2.715.88 4.368v1.264zm-.016-2.784h6.752c0-.661-.123-1.269-.368-1.824s-.619-.992-1.12-1.312c-.491-.32-1.109-.48-1.856-.48-.725 0-1.344.176-1.856.528-.501.341-.885.789-1.152 1.344s-.4 1.136-.4 1.744zm21.809 15.456c-2.944 0-5.184-.373-6.72-1.12-1.526-.747-2.288-1.728-2.288-2.944 0-.565.149-1.04.448-1.424.298-.384.645-.688 1.04-.912.405-.235.773-.411 1.104-.528.341-.128.549-.213.624-.256-.171-.096-.416-.235-.736-.416-.32-.192-.619-.448-.896-.768-.267-.331-.4-.757-.4-1.28 0-.587.277-1.131.832-1.632.565-.501 1.418-.848 2.56-1.04-1.088-.512-1.915-1.205-2.48-2.08-.566-.875-.848-1.771-.848-2.688 0-1.088.341-2.021 1.024-2.8.682-.779 1.61-1.371 2.784-1.776 1.184-.405 2.522-.608 4.016-.608 1.141 0 2.074.123 2.8.368.725.235 1.397.544 2.016.928.245-.096.57-.219.976-.368.405-.16.842-.331 1.312-.512.469-.192.928-.379 1.376-.56.448-.192.848-.363 1.2-.512l-.016 3.616-2.864.464c.117.288.208.597.272.928s.096.603.096.816c0 .96-.283 1.856-.848 2.688-.555.832-1.392 1.504-2.512 2.016-1.11.512-2.486.768-4.128.768-.203 0-.475-.005-.816-.016-.331-.011-.603-.027-.816-.048-.63.032-1.062.112-1.296.24-.235.128-.352.277-.352.448 0 .256.24.427.72.512.48.075 1.205.144 2.176.208.341.021.816.048 1.424.08s1.28.075 2.016.128c2.026.139 3.536.64 4.528 1.504 1.002.853 1.504 1.931 1.504 3.232 0 1.547-.736 2.821-2.208 3.824-1.462 1.013-3.67 1.52-6.624 1.52zm.752-2.608c1.301 0 2.229-.16 2.784-.48.554-.32.832-.779.832-1.376 0-.501-.214-.907-.64-1.216-.427-.32-1.051-.507-1.872-.56l-3.792-.256c-.491-.021-.928.053-1.312.224-.374.171-.667.405-.88.704-.203.299-.304.619-.304.96 0 .693.421 1.2 1.264 1.52.842.32 2.149.48 3.92.48zm-.88-11.632c.885 0 1.594-.24 2.128-.72.544-.491.816-1.152.816-1.984 0-.864-.272-1.557-.816-2.08-.534-.523-1.243-.784-2.128-.784-.875 0-1.59.261-2.144.784-.544.523-.816 1.216-.816 2.08 0 .821.261 1.477.784 1.968.533.491 1.258.736 2.176.736zm12.557 8.768v-16.544h4.496v3.92c.267-.843.64-1.579 1.12-2.208.491-.64 1.083-1.136 1.776-1.488.694-.363 1.478-.544 2.352-.544.15 0 .288.011.416.032.139.011.24.032.304.064v4.448c-.096-.043-.213-.069-.352-.08-.128-.011-.245-.021-.352-.032-.917-.075-1.701-.048-2.352.08-.65.128-1.178.347-1.584.656-.405.309-.698.688-.88 1.136-.181.448-.272.949-.272 1.504v9.056zm17.613.32c-1.056 0-2.005-.197-2.848-.592s-1.509-.965-2-1.712c-.491-.757-.736-1.675-.736-2.752 0-1.813.677-3.189 2.032-4.128 1.355-.949 3.493-1.44 6.416-1.472l2.064-.032v-.992c0-.757-.224-1.339-.672-1.744-.437-.416-1.12-.619-2.048-.608-.683.011-1.333.171-1.952.48-.608.309-1.024.848-1.248 1.616h-3.888c.064-1.195.411-2.176 1.04-2.944.629-.779 1.483-1.355 2.56-1.728 1.088-.384 2.32-.576 3.696-.576 1.696 0 3.056.213 4.08.64 1.024.416 1.765 1.019 2.224 1.808.459.779.688 1.707.688 2.784v11.632h-3.904l-.384-2.848c-.565 1.195-1.275 2.021-2.128 2.48-.843.459-1.84.688-2.992.688zm1.568-3.072c.427 0 .837-.075 1.232-.224.405-.16.763-.368 1.072-.624.32-.267.576-.565.768-.896s.288-.672.288-1.024v-2.448l-1.68.032c-.779.011-1.504.107-2.176.288-.672.171-1.216.453-1.632.848-.405.395-.608.928-.608 1.6 0 .768.267 1.371.8 1.808.533.427 1.179.64 1.936.64zm21.337-10.544h-3.68l.032 8.816c0 .405.048.709.144.912.107.192.267.32.48.384.224.053.507.08.848.08h2.224v2.88c-.213.096-.549.187-1.008.272-.448.085-1.077.128-1.888.128-1.451 0-2.576-.187-3.376-.56-.789-.373-1.339-.896-1.648-1.568s-.464-1.451-.464-2.336v-9.008h-2.688v-3.248h2.848l1.168-4.992h3.328v4.976h3.68zm6.76 6.096c-.011.843.123 1.579.4 2.208.277.619.677 1.099 1.2 1.44.533.331 1.173.496 1.92.496.8 0 1.499-.171 2.096-.512.608-.341 1.029-.901 1.264-1.68h4.208c-.181 1.173-.651 2.176-1.408 3.008-.747.832-1.653 1.467-2.72 1.904s-2.176.656-3.328.656c-1.632 0-3.072-.341-4.32-1.024-1.237-.693-2.203-1.669-2.896-2.928s-1.04-2.741-1.04-4.448c0-1.653.315-3.141.944-4.464.629-1.333 1.541-2.384 2.736-3.152 1.205-.779 2.651-1.168 4.336-1.168s3.099.357 4.24 1.072c1.152.704 2.016 1.691 2.592 2.96.587 1.259.88 2.715.88 4.368v1.264zm-.016-2.784h6.752c0-.661-.123-1.269-.368-1.824s-.619-.992-1.12-1.312c-.491-.32-1.109-.48-1.856-.48-.725 0-1.344.176-1.856.528-.501.341-.885.789-1.152 1.344s-.4 1.136-.4 1.744zm19.931 9.984 8.288-23.136h4.928l8.272 23.136h-4.656l-1.888-5.36h-8.32l-1.936 5.36zm7.664-9.44h6.16l-3.056-9.184zm16.706 14.592v-21.696h4.688l.016 2.384c.245-.395.544-.752.896-1.072.363-.331.763-.619 1.2-.864s.912-.432 1.424-.56c.512-.139 1.051-.208 1.616-.208 1.227 0 2.32.304 3.28.912.96.597 1.712 1.525 2.256 2.784.555 1.248.832 2.837.832 4.768 0 2.005-.299 3.653-.896 4.944-.587 1.28-1.397 2.229-2.432 2.848s-2.203.928-3.504.928c-.533 0-1.035-.075-1.504-.224-.469-.139-.907-.336-1.312-.592-.395-.256-.752-.549-1.072-.88-.309-.341-.581-.709-.816-1.104v7.632zm8.256-8.256c1.013 0 1.861-.421 2.544-1.264.693-.843 1.04-2.176 1.04-4 0-1.6-.331-2.848-.992-3.744-.651-.907-1.515-1.36-2.592-1.36-1.205 0-2.107.491-2.704 1.472-.587.971-.88 2.181-.88 3.632 0 .928.128 1.792.384 2.592.267.8.661 1.445 1.184 1.936.533.491 1.205.736 2.016.736zm11.056 8.256v-21.696h4.688l.016 2.384c.246-.395.544-.752.896-1.072.363-.331.763-.619 1.2-.864.438-.245.912-.432 1.424-.56.512-.139 1.051-.208 1.616-.208 1.227 0 2.32.304 3.28.912.96.597 1.712 1.525 2.256 2.784.555 1.248.832 2.837.832 4.768 0 2.005-.298 3.653-.896 4.944-.586 1.28-1.397 2.229-2.432 2.848-1.034.619-2.202.928-3.504.928-.533 0-1.034-.075-1.504-.224-.469-.139-.906-.336-1.312-.592-.394-.256-.752-.549-1.072-.88-.309-.341-.581-.709-.816-1.104v7.632zm8.256-8.256c1.014 0 1.862-.421 2.544-1.264.694-.843 1.04-2.176 1.04-4 0-1.6-.33-2.848-.992-3.744-.65-.907-1.514-1.36-2.592-1.36-1.205 0-2.106.491-2.704 1.472-.586.971-.88 2.181-.88 3.632 0 .928.128 1.792.384 2.592.267.8.662 1.445 1.184 1.936.534.491 1.206.736 2.016.736zm17.57 3.424c-1.152 0-2.262-.187-3.328-.56-1.067-.384-1.968-.981-2.704-1.792-.736-.821-1.206-1.883-1.408-3.184h4.048c.138.587.389 1.051.752 1.392.373.341.794.587 1.264.736.469.139.917.208 1.344.208.896 0 1.616-.139 2.16-.416.554-.288.832-.725.832-1.312 0-.448-.166-.805-.496-1.072-.32-.267-.854-.469-1.6-.608l-2.912-.608c-1.462-.309-2.635-.832-3.52-1.568-.886-.747-1.339-1.803-1.36-3.168 0-.992.261-1.883.784-2.672.533-.789 1.317-1.413 2.352-1.872 1.034-.459 2.304-.688 3.808-.688 2.037 0 3.664.448 4.88 1.344 1.226.896 1.85 2.16 1.872 3.792h-3.904c-.118-.64-.438-1.131-.96-1.472-.512-.352-1.158-.528-1.936-.528-.811 0-1.478.144-2 .432-.523.288-.784.725-.784 1.312 0 .437.213.784.64 1.04.426.245 1.088.459 1.984.64l2.688.608c.928.224 1.68.533 2.256.928.586.384 1.04.805 1.36 1.264s.538.923.656 1.392c.128.459.192.875.192 1.248 0 1.099-.294 2.037-.88 2.816-.587.768-1.403 1.355-2.448 1.76-1.046.405-2.256.608-3.632.608z" fill="#475569"/><path d="m255.847 156h124.306" stroke="#cbd5e1" stroke-linecap="round" stroke-width="4"/><path d="m267.021 166h101.958" stroke="#e2e8f0" stroke-linecap="round" stroke-width="4"/><g fill="#e2e8f0"><rect height="56" rx="4" width="48" x="143" y="190"/><rect height="56" rx="4" width="48" x="204" y="190"/><rect height="56" rx="4" width="48" x="265" y="190"/><rect height="56" rx="4" width="48" x="326" y="190"/><rect height="56" rx="4" width="48" x="387" y="190"/><rect height="56" rx="4" width="48" x="448" y="190"/></g><rect fill="#8b3dff" height="16" rx="4" width="56" x="290" y="277"/></svg>