<svg fill="none" height="400" viewBox="0 0 636 400" width="636" xmlns="http://www.w3.org/2000/svg" xmlns:xlink="http://www.w3.org/1999/xlink"><filter id="a" color-interpolation-filters="sRGB" filterUnits="userSpaceOnUse" height="336" width="572" x="32" y="36"><feFlood flood-opacity="0" result="BackgroundImageFix"/><feColorMatrix in="SourceAlpha" result="hardAlpha" type="matrix" values="0 0 0 0 0 0 0 0 0 0 0 0 0 0 0 0 0 0 127 0"/><feOffset dy="4"/><feGaussianBlur stdDeviation="4"/><feColorMatrix type="matrix" values="0 0 0 0 0.559444 0 0 0 0 0.559444 0 0 0 0 0.633333 0 0 0 0.16 0"/><feBlend in2="BackgroundImageFix" mode="normal" result="effect1_dropShadow_1850_2649"/><feBlend in="SourceGraphic" in2="effect1_dropShadow_1850_2649" mode="normal" result="shape"/></filter><linearGradient id="b"><stop offset="0" stop-color="#b4bed8"/><stop offset="1" stop-color="#c1c6d2" stop-opacity="0"/></linearGradient><linearGradient id="c" gradientUnits="userSpaceOnUse" x1="404" x2="404" xlink:href="#b" y1="172.931" y2="265"/><linearGradient id="d" gradientUnits="userSpaceOnUse" x1="232" x2="232" xlink:href="#b" y1="172.931" y2="265"/><clipPath id="e"><path d="m158 305h16v16h-16z"/></clipPath><path d="m0 0h636v400h-636z" fill="#e3e9f1" fill-opacity=".5"/><g filter="url(#a)"><rect fill="#fff" height="320" rx="16" width="556" x="40" y="40"/></g><path d="m253.592 102v-23.136h8.512c1.685 0 3.195.2933 4.528.88 1.333.576 2.384 1.4293 3.152 2.56.779 1.1307 1.168 2.512 1.168 4.144 0 1.536-.341 2.848-1.024 3.936s-1.643 1.92-2.88 2.496c-1.227.576-2.672.864-4.336.864h-4.416v8.256zm4.656-11.872h4.336c1.173 0 2.133-.3733 2.88-1.12.747-.7573 1.12-1.6907 1.12-2.8 0-1.152-.395-2.064-1.184-2.736-.789-.6827-1.749-1.024-2.88-1.024h-4.272zm22.044 12.192c-1.622 0-3.035-.347-4.24-1.04-1.195-.693-2.123-1.6747-2.784-2.944-.651-1.2693-.976-2.7733-.976-4.512s.325-3.2587.976-4.56c.661-1.3013 1.589-2.3147 2.784-3.04 1.205-.7253 2.624-1.088 4.256-1.088s3.045.3573 4.24 1.072c1.194.704 2.117 1.7067 2.768 3.008.65 1.3013.976 2.8373.976 4.608 0 1.664-.32 3.136-.96 4.416-.63 1.2693-1.542 2.267-2.736 2.992-1.184.725-2.619 1.088-4.304 1.088zm.016-3.472c.821 0 1.482-.24 1.984-.72.501-.48.864-1.1093 1.088-1.888.234-.7893.352-1.648.352-2.576 0-.8747-.107-1.7013-.32-2.48-.203-.7787-.555-1.408-1.056-1.888-.502-.48-1.184-.72-2.048-.72-.822 0-1.488.2293-2 .688-.502.448-.87 1.0613-1.104 1.84-.235.768-.352 1.6213-.352 2.56 0 .864.106 1.696.32 2.496.213.7893.57 1.4347 1.072 1.936.501.5013 1.189.752 2.064.752zm11.098 3.152v-16.544h4.496v3.92c.267-.8427.64-1.5787 1.12-2.208.491-.64 1.083-1.136 1.776-1.488.694-.3627 1.478-.544 2.352-.544.15 0 .288.0107.416.032.139.0107.24.032.304.064v4.448c-.096-.0427-.213-.0693-.352-.08-.128-.0107-.245-.0213-.352-.032-.917-.0747-1.701-.048-2.352.08-.65.128-1.178.3467-1.584.656-.405.3093-.698.688-.88 1.136-.181.448-.272.9493-.272 1.504v9.056zm23.424-13.296h-3.68l.032 8.816c0 .4053.048.7093.144.912.107.192.267.32.48.384.224.0533.507.08.848.08h2.224v2.88c-.213.096-.549.187-1.008.272-.448.085-1.077.128-1.888.128-1.451 0-2.576-.187-3.376-.56-.789-.373-1.339-.896-1.648-1.568s-.464-1.4507-.464-2.336v-9.008h-2.688v-3.248h2.848l1.168-4.992h3.328v4.976h3.68zm13.672-3.248v3.248h-3.488v13.296h-4.672v-13.296h-3.056v-3.248h3.056v-2.384c0-1.3333.39-2.368 1.168-3.104.79-.736 1.904-1.104 3.344-1.104h3.792l.016 3.104h-2.176c-.597 0-1.008.1493-1.232.448-.213.288-.32.768-.32 1.44v1.6zm9.758 16.864c-1.621 0-3.034-.347-4.24-1.04-1.194-.693-2.122-1.6747-2.784-2.944-.65-1.2693-.976-2.7733-.976-4.512s.326-3.2587.976-4.56c.662-1.3013 1.59-2.3147 2.784-3.04 1.206-.7253 2.624-1.088 4.256-1.088s3.046.3573 4.24 1.072c1.195.704 2.118 1.7067 2.768 3.008.651 1.3013.976 2.8373.976 4.608 0 1.664-.32 3.136-.96 4.416-.629 1.2693-1.541 2.267-2.736 2.992-1.184.725-2.618 1.088-4.304 1.088zm.016-3.472c.822 0 1.483-.24 1.984-.72.502-.48.864-1.1093 1.088-1.888.235-.7893.352-1.648.352-2.576 0-.8747-.106-1.7013-.32-2.48-.202-.7787-.554-1.408-1.056-1.888-.501-.48-1.184-.72-2.048-.72-.821 0-1.488.2293-2 .688-.501.448-.869 1.0613-1.104 1.84-.234.768-.352 1.6213-.352 2.56 0 .864.107 1.696.32 2.496.214.7893.571 1.4347 1.072 1.936.502.5013 1.19.752 2.064.752zm16.379 3.44c-1.216 0-2.181-.144-2.896-.432s-1.243-.667-1.584-1.136c-.341-.48-.56-1.008-.656-1.584-.096-.5867-.144-1.1787-.144-1.776v-19.136h4.576v18.56c0 .608.128 1.104.384 1.488.267.3733.763.6027 1.488.688l.784.048v2.88c-.32.107-.645.197-.976.272-.331.085-.656.128-.976.128zm9.705-16.832v16.544h-4.464v-16.544zm.048-6.576v4.208h-4.544v-4.208zm11.29 23.44c-1.622 0-3.035-.347-4.24-1.04-1.195-.693-2.123-1.6747-2.784-2.944-.651-1.2693-.976-2.7733-.976-4.512s.325-3.2587.976-4.56c.661-1.3013 1.589-2.3147 2.784-3.04 1.205-.7253 2.624-1.088 4.256-1.088s3.045.3573 4.24 1.072c1.194.704 2.117 1.7067 2.768 3.008.65 1.3013.976 2.8373.976 4.608 0 1.664-.32 3.136-.96 4.416-.63 1.2693-1.542 2.267-2.736 2.992-1.184.725-2.619 1.088-4.304 1.088zm.016-3.472c.821 0 1.482-.24 1.984-.72.501-.48.864-1.1093 1.088-1.888.234-.7893.352-1.648.352-2.576 0-.8747-.107-1.7013-.32-2.48-.203-.7787-.555-1.408-1.056-1.888-.502-.48-1.184-.72-2.048-.72-.822 0-1.488.2293-2 .688-.502.448-.87 1.0613-1.104 1.84-.235.768-.352 1.6213-.352 2.56 0 .864.106 1.696.32 2.496.213.7893.57 1.4347 1.072 1.936.501.5013 1.189.752 2.064.752z" fill="#475569"/><path d="m330 285h141" stroke="#cbd5e1" stroke-linecap="round" stroke-width="4"/><path d="m330 295h91" stroke="#e2e8f0" stroke-linecap="round" stroke-width="4"/><rect fill="#e2e8f0" height="137" rx="4" transform="matrix(-1 0 0 1 478 136)" width="148"/><path d="m388.859 206.115-58.859 58.885h148v-16.8l-25.206-23.162c-.52-.478-1.316-.492-1.853-.033l-26.003 22.247c-.604.517-1.517.426-2.007-.2l-31.985-40.811c-.517-.66-1.494-.719-2.087-.126z" fill="url(#c)"/><circle cx="435.5" cy="173.5" fill="#cbd5e1" r="11.5"/><path d="m158 285h141" stroke="#cbd5e1" stroke-linecap="round" stroke-width="4"/><path d="m158 295h91" stroke="#e2e8f0" stroke-linecap="round" stroke-width="4"/><rect fill="#e2e8f0" height="137" rx="4" transform="matrix(-1 0 0 1 306 136)" width="148"/><path d="m216.859 206.115-58.859 58.885h148v-16.8l-25.206-23.162c-.52-.478-1.316-.492-1.853-.033l-26.003 22.247c-.604.517-1.517.426-2.007-.2l-31.985-40.811c-.517-.66-1.494-.719-2.087-.126z" fill="url(#d)"/><circle cx="263.5" cy="173.5" fill="#cbd5e1" r="11.5"/><g clip-path="url(#e)"><path d="m158 313c0 2.122.843 4.157 2.343 5.657s3.535 2.343 5.657 2.343 4.157-.843 5.657-2.343 2.343-3.535 2.343-5.657-.843-4.157-2.343-5.657-3.535-2.343-5.657-2.343-4.157.843-5.657 2.343-2.343 3.535-2.343 5.657zm5.904 2.803c-.046.048-.101.086-.162.112s-.127.04-.193.041c-.067 0-.133-.012-.194-.038-.061-.025-.117-.062-.164-.109s-.084-.103-.109-.164c-.026-.061-.038-.127-.038-.194.001-.066.015-.132.041-.193s.064-.116.112-.162l4.096-4.096h-2.768c-.133 0-.26-.053-.354-.146-.093-.094-.146-.221-.146-.354s.053-.26.146-.354c.094-.093.221-.146.354-.146h3.975c.133 0 .26.053.354.146.093.094.146.221.146.354v3.975c0 .133-.053.26-.146.354-.094.093-.221.146-.354.146s-.26-.053-.354-.146c-.093-.094-.146-.221-.146-.354v-2.768z" fill="#8b3dff"/></g></svg>