<svg fill="none" height="400" viewBox="0 0 636 400" width="636" xmlns="http://www.w3.org/2000/svg" xmlns:xlink="http://www.w3.org/1999/xlink"><filter id="a" color-interpolation-filters="sRGB" filterUnits="userSpaceOnUse" height="336" width="572" x="32" y="36"><feFlood flood-opacity="0" result="BackgroundImageFix"/><feColorMatrix in="SourceAlpha" result="hardAlpha" type="matrix" values="0 0 0 0 0 0 0 0 0 0 0 0 0 0 0 0 0 0 127 0"/><feOffset dy="4"/><feGaussianBlur stdDeviation="4"/><feColorMatrix type="matrix" values="0 0 0 0 0.559444 0 0 0 0 0.559444 0 0 0 0 0.633333 0 0 0 0.16 0"/><feBlend in2="BackgroundImageFix" mode="normal" result="effect1_dropShadow_1850_2572"/><feBlend in="SourceGraphic" in2="effect1_dropShadow_1850_2572" mode="normal" result="shape"/></filter><path d="m0 0h636v400h-636z" fill="#e3e9f1" fill-opacity=".5"/><g filter="url(#a)"><rect fill="#fff" height="320" rx="16" width="556" x="40" y="40"/></g><path d="m78.28 145.32c-1.1413 0-2.2613-.144-3.36-.432s-2.1013-.72-3.008-1.296-1.6587-1.296-2.256-2.16c-.5867-.864-.9387-1.877-1.056-3.04h4.784c.16.704.464 1.296.912 1.776s1.0133.848 1.696 1.104 1.44.384 2.272.384c.8533 0 1.632-.107 2.336-.32s1.2693-.533 1.696-.96c.4267-.437.64-.981.64-1.632 0-.587-.176-1.067-.528-1.44-.3413-.373-.8053-.677-1.392-.912s-1.2533-.427-2-.576l-4-.816c-1.7493-.331-3.136-1.024-4.16-2.08-1.024-1.067-1.552-2.485-1.584-4.256-.0107-1.451.3733-2.704 1.152-3.76.7893-1.067 1.856-1.888 3.2-2.464 1.3547-.576 2.8693-.864 4.544-.864 1.9947 0 3.6693.315 5.024.944 1.3653.619 2.4 1.461 3.104 2.528.7147 1.056 1.0827 2.235 1.104 3.536h-4.688c-.0853-.811-.3307-1.456-.736-1.936s-.928-.827-1.568-1.04c-.6293-.213-1.3493-.32-2.16-.32-.6187 0-1.184.069-1.696.208-.5013.139-.928.336-1.28.592-.352.245-.624.539-.816.88s-.288.725-.288 1.152c0 .672.224 1.216.672 1.632s1.2853.757 2.512 1.024l3.968.816c1.4187.277 2.544.688 3.376 1.232.8427.544 1.472 1.157 1.888 1.84.4267.683.704 1.381.832 2.096.1387.704.208 1.355.208 1.952 0 1.248-.3947 2.373-1.184 3.376-.7787.992-1.8667 1.781-3.264 2.368-1.3973.576-3.0293.864-4.896.864zm22.519-13.616h-3.6802l.032 8.816c0 .405.048.709.144.912.1066.192.2666.32.48.384.224.053.5066.08.848.08h2.2242v2.88c-.214.096-.55.187-1.0082.272-.448.085-1.0774.128-1.888.128-1.4507 0-2.576-.187-3.376-.56-.7894-.373-1.3387-.896-1.648-1.568-.3094-.672-.464-1.451-.464-2.336v-9.008h-2.6881v-3.248h2.8481l1.168-4.992h3.328v4.976h3.6802zm8.22 13.616c-1.056 0-2.006-.197-2.848-.592-.843-.395-1.51-.965-2-1.712-.491-.757-.736-1.675-.736-2.752 0-1.813.677-3.189 2.032-4.128 1.354-.949 3.493-1.44 6.416-1.472l2.064-.032v-.992c0-.757-.224-1.339-.672-1.744-.438-.416-1.12-.619-2.048-.608-.683.011-1.334.171-1.952.48-.608.309-1.024.848-1.248 1.616h-3.888c.064-1.195.41-2.176 1.04-2.944.629-.779 1.482-1.355 2.56-1.728 1.088-.384 2.32-.576 3.696-.576 1.696 0 3.056.213 4.08.64 1.024.416 1.765 1.019 2.224 1.808.458.779.688 1.707.688 2.784v11.632h-3.904l-.384-2.848c-.566 1.195-1.275 2.021-2.128 2.48-.843.459-1.84.688-2.992.688zm1.568-3.072c.426 0 .837-.075 1.232-.224.405-.16.762-.368 1.072-.624.32-.267.576-.565.768-.896s.288-.672.288-1.024v-2.448l-1.68.032c-.779.011-1.504.107-2.176.288-.672.171-1.216.453-1.632.848-.406.395-.608.928-.608 1.6 0 .768.266 1.371.8 1.808.533.427 1.178.64 1.936.64zm21.337-10.544h-3.68l.032 8.816c0 .405.048.709.144.912.106.192.266.32.48.384.224.053.506.08.848.08h2.224v2.88c-.214.096-.55.187-1.008.272-.448.085-1.078.128-1.888.128-1.451 0-2.576-.187-3.376-.56-.79-.373-1.339-.896-1.648-1.568-.31-.672-.464-1.451-.464-2.336v-9.008h-2.688v-3.248h2.848l1.168-4.992h3.328v4.976h3.68zm9.87 13.616c-1.152 0-2.261-.187-3.328-.56-1.067-.384-1.968-.981-2.704-1.792-.736-.821-1.205-1.883-1.408-3.184h4.048c.139.587.389 1.051.752 1.392.373.341.795.587 1.264.736.469.139.917.208 1.344.208.896 0 1.616-.139 2.16-.416.555-.288.832-.725.832-1.312 0-.448-.165-.805-.496-1.072-.32-.267-.853-.469-1.6-.608l-2.912-.608c-1.461-.309-2.635-.832-3.52-1.568-.885-.747-1.339-1.803-1.36-3.168 0-.992.261-1.883.784-2.672.533-.789 1.317-1.413 2.352-1.872s2.304-.688 3.808-.688c2.037 0 3.664.448 4.88 1.344 1.227.896 1.851 2.16 1.872 3.792h-3.904c-.117-.64-.437-1.131-.96-1.472-.512-.352-1.157-.528-1.936-.528-.811 0-1.477.144-2 .432s-.784.725-.784 1.312c0 .437.213.784.64 1.04.427.245 1.088.459 1.984.64l2.688.608c.928.224 1.68.533 2.256.928.587.384 1.04.805 1.36 1.264s.539.923.656 1.392c.128.459.192.875.192 1.248 0 1.099-.293 2.037-.88 2.816-.587.768-1.403 1.355-2.448 1.76s-2.256.608-3.632.608z" fill="#475569"/><path d="m68.3148 272.858v-3.099l6.5043-5.695c.4876-.441.9027-.845 1.2452-1.21.3425-.372.6037-.743.7836-1.115.18-.377.27-.786.27-1.228 0-.493-.1074-.914-.3222-1.262-.2148-.354-.5108-.627-.8882-.819-.3773-.191-.8097-.287-1.2973-.287-.4935 0-.9259.102-1.2974.305-.3715.197-.6618.485-.8708.862-.2031.377-.3047.836-.3047 1.376h-4.0837c0-1.214.2728-2.261.8185-3.144.5456-.882 1.3119-1.561 2.2987-2.037.9926-.482 2.1449-.723 3.4568-.723 1.3525 0 2.528.226 3.5264.679.9985.453 1.7705 1.086 2.3162 1.898.5514.807.8271 1.745.8271 2.813 0 .679-.1364 1.352-.4092 2.02s-.7633 1.405-1.4715 2.212c-.7024.807-1.7008 1.773-2.9953 2.899l-2.1333 1.968v.113h7.227v3.474zm23.0111.436c-1.5557 0-2.8966-.369-4.0227-1.106-1.1262-.743-1.994-1.808-2.6035-3.196-.6095-1.393-.9113-3.067-.9055-5.024.0058-1.956.3105-3.616.9142-4.98.6095-1.37 1.4745-2.412 2.5948-3.126 1.1261-.72 2.467-1.08 4.0227-1.08s2.8967.36 4.0228 1.08c1.132.714 2.0027 1.756 2.6122 3.126s.9114 3.03.9055 4.98c0 1.962-.3047 3.64-.9142 5.033s-1.4774 2.458-2.6035 3.196c-1.1203.731-2.4612 1.097-4.0228 1.097zm0-3.527c.9288 0 1.6806-.473 2.2552-1.419.5747-.952.8591-2.412.8533-4.38 0-1.288-.1306-2.351-.3918-3.187-.2612-.841-.624-1.468-1.0884-1.88-.4644-.413-1.0071-.619-1.6283-.619-.9229 0-1.6688.468-2.2377 1.402-.5689.929-.8562 2.357-.862 4.284-.0058 1.306.119 2.389.3744 3.248.2612.859.6269 1.501 1.0971 1.924.4702.418 1.0129.627 1.6282.627zm10.0441-14.741h5.337l4.528 11.041h.209l4.528-11.041h5.337v17.832h-4.196v-10.953h-.148l-4.284 10.84h-2.682l-4.284-10.901h-.148v11.014h-4.197z" fill="#8b3dff"/><path d="m205.913 273.102c-1.3 0-2.455-.235-3.466-.705-1.01-.47-1.808-1.118-2.394-1.942-.581-.824-.882-1.77-.906-2.838h4.18c.035.656.302 1.184.801 1.584.499.395 1.094.592 1.785.592.54 0 1.019-.119 1.437-.357s.746-.571.984-1.001c.238-.435.354-.934.348-1.498.006-.574-.113-1.076-.357-1.506-.238-.429-.569-.763-.993-1.001-.418-.244-.899-.366-1.445-.366-.517-.006-1.007.107-1.472.34-.458.232-.807.548-1.045.949l-3.805-.714.775-9.613h11.442v3.474h-7.898l-.409 4.206h.104c.296-.494.772-.9 1.428-1.219.662-.325 1.414-.488 2.256-.488 1.068 0 2.02.25 2.856.749.841.493 1.503 1.178 1.985 2.055.487.876.731 1.881.731 3.013 0 1.224-.29 2.31-.87 3.256-.575.946-1.382 1.689-2.421 2.229-1.033.534-2.244.801-3.631.801zm10.046-.244 7.192-14.245v-.113h-8.411v-3.474h12.869v3.5l-7.218 14.332zm14.051 0v-17.832h4.31v7.54h.236l5.894-7.54h5.077l-6.322 7.958 6.435 9.874h-5.155l-4.441-7.009-1.724 2.177v4.832z" fill="#8b3dff"/><path d="m329.858 272.858v-3.099l6.504-5.695c.488-.441.903-.845 1.246-1.21.342-.372.603-.743.783-1.115.18-.377.27-.786.27-1.228 0-.493-.107-.914-.322-1.262-.215-.354-.511-.627-.888-.819-.377-.191-.81-.287-1.298-.287-.493 0-.925.102-1.297.305-.371.197-.662.485-.871.862-.203.377-.304.836-.304 1.376h-4.084c0-1.214.273-2.261.818-3.144.546-.882 1.312-1.561 2.299-2.037.993-.482 2.145-.723 3.457-.723 1.352 0 2.528.226 3.526.679.999.453 1.771 1.086 2.316 1.898.552.807.828 1.745.828 2.813 0 .679-.137 1.352-.41 2.02-.272.668-.763 1.405-1.471 2.212-.703.807-1.701 1.773-2.995 2.899l-2.134 1.968v.113h7.227v3.474zm23.882-17.832v17.832h-4.301v-13.809h-.105l-3.988 2.438v-3.727l4.397-2.734zm3.977 17.832v-17.832h4.31v7.54h.235l5.895-7.54h5.076l-6.321 7.958 6.435 9.874h-5.155l-4.441-7.009-1.724 2.177v4.832z" fill="#8b3dff"/><path d="m467.413 273.102c-1.359 0-2.563-.232-3.614-.696-1.045-.471-1.869-1.118-2.473-1.942-.603-.824-.911-1.773-.923-2.847h4.337c.017.389.142.734.374 1.036.232.296.549.528.949.696.401.169.856.253 1.367.253s.961-.09 1.35-.27c.395-.186.702-.438.923-.758.22-.325.328-.696.322-1.114.006-.418-.113-.79-.357-1.115s-.589-.577-1.036-.757c-.441-.18-.964-.27-1.568-.27h-1.732v-3.065h1.732c.529 0 .993-.087 1.394-.261.406-.174.722-.418.949-.732.226-.319.336-.685.331-1.097.005-.4-.09-.752-.288-1.053-.191-.308-.461-.546-.81-.714-.342-.169-.74-.253-1.192-.253-.476 0-.909.084-1.298.253-.383.168-.688.406-.914.714-.226.307-.345.664-.357 1.071h-4.119c.012-1.063.308-1.997.889-2.804.58-.813 1.369-1.448 2.368-1.907 1.004-.459 2.148-.688 3.431-.688 1.277 0 2.4.224 3.369.671.97.447 1.724 1.056 2.264 1.828.54.766.81 1.634.81 2.604.006 1.004-.322 1.831-.984 2.481-.656.65-1.501 1.051-2.534 1.202v.139c1.382.163 2.424.61 3.126 1.341.708.731 1.06 1.646 1.054 2.743 0 1.033-.305 1.95-.915 2.751-.603.796-1.445 1.422-2.525 1.881-1.074.453-2.307.679-3.7.679zm16.537 0c-1.387 0-2.627-.22-3.718-.662-1.085-.447-1.939-1.05-2.56-1.811-.615-.766-.923-1.631-.923-2.594 0-.738.177-1.414.531-2.029.354-.616.833-1.126 1.437-1.533.609-.412 1.289-.676 2.037-.792v-.139c-.981-.18-1.785-.636-2.411-1.367-.622-.732-.932-1.588-.932-2.569 0-.929.281-1.756.844-2.482.569-.725 1.344-1.297 2.325-1.715.987-.418 2.11-.627 3.37-.627s2.38.209 3.361.627c.987.418 1.762.99 2.325 1.715.569.726.853 1.553.853 2.482 0 .987-.316 1.846-.949 2.577-.627.726-1.425 1.179-2.394 1.359v.139c.743.116 1.416.38 2.02.792.609.407 1.091.917 1.445 1.533.36.615.54 1.291.54 2.029 0 .963-.311 1.828-.932 2.594-.621.761-1.474 1.364-2.56 1.811-1.079.442-2.316.662-3.709.662zm0-3.056c.528 0 .993-.099 1.393-.296.401-.203.714-.485.941-.845.232-.36.348-.766.348-1.219 0-.464-.116-.876-.348-1.236-.233-.36-.552-.642-.958-.845-.401-.209-.859-.313-1.376-.313-.511 0-.969.104-1.376.313-.406.203-.725.485-.958.845-.232.36-.348.772-.348 1.236 0 .453.113.859.34 1.219.232.354.548.633.949.836.406.203.871.305 1.393.305zm0-7.793c.453 0 .853-.093 1.202-.279.354-.185.629-.444.827-.775.203-.331.305-.705.305-1.123s-.102-.786-.305-1.106c-.198-.319-.47-.569-.819-.749-.348-.185-.751-.278-1.21-.278-.453 0-.856.093-1.21.278-.354.18-.63.43-.827.749-.198.32-.297.688-.297 1.106s.099.792.297 1.123c.203.325.481.584.835.775.355.186.755.279 1.202.279zm16.979 11.041c-1.555 0-2.896-.369-4.023-1.106-1.126-.743-1.994-1.808-2.603-3.196-.61-1.393-.911-3.067-.906-5.024.006-1.956.311-3.616.915-4.98.609-1.37 1.474-2.412 2.594-3.126 1.127-.72 2.468-1.08 4.023-1.08 1.556 0 2.897.36 4.023 1.08 1.132.714 2.003 1.756 2.612 3.126.61 1.37.912 3.03.906 4.98 0 1.962-.305 3.64-.915 5.033-.609 1.393-1.477 2.458-2.603 3.196-1.12.731-2.461 1.097-4.023 1.097zm0-3.527c.929 0 1.681-.473 2.255-1.419.575-.952.86-2.412.854-4.38 0-1.288-.131-2.351-.392-3.187-.261-.841-.624-1.468-1.089-1.88-.464-.413-1.007-.619-1.628-.619-.923 0-1.669.468-2.238 1.402-.568.929-.856 2.357-.862 4.284-.005 1.306.119 2.389.375 3.248.261.859.627 1.501 1.097 1.924.47.418 1.013.627 1.628.627zm10.044-14.741h5.338l4.527 11.041h.209l4.528-11.041h5.338v17.832h-4.197v-10.953h-.148l-4.284 10.84h-2.682l-4.284-10.901h-.148v11.014h-4.197z" fill="#8b3dff"/><g stroke-linecap="round"><path d="m67 165.764h192.071" stroke="#cbd5e1" stroke-width="5.44882"/><path d="m67 179.386h123.961" stroke="#e2e8f0" stroke-width="5.44882"/><path d="m67 225.701h108.976" stroke="#e2e8f0" stroke-width="1.3622"/><path d="m197.772 225.701h108.976" stroke="#e2e8f0" stroke-width="1.3622"/><path d="m328.543 225.701h108.977" stroke="#e2e8f0" stroke-width="1.3622"/><path d="m459.315 225.701h108.976" stroke="#e2e8f0" stroke-width="1.3622"/><path d="m67 287h44.953" stroke="#e2e8f0" stroke-width="5.44882"/><path d="m197.772 287h44.952" stroke="#e2e8f0" stroke-width="5.44882"/><path d="m328.543 287h68.111" stroke="#e2e8f0" stroke-width="5.44882"/><path d="m459.315 287h88.543" stroke="#e2e8f0" stroke-width="5.44882"/></g></svg>