<svg fill="none" height="400" viewBox="0 0 636 400" width="636" xmlns="http://www.w3.org/2000/svg" xmlns:xlink="http://www.w3.org/1999/xlink"><filter id="a" color-interpolation-filters="sRGB" filterUnits="userSpaceOnUse" height="336" width="572" x="32" y="36"><feFlood flood-opacity="0" result="BackgroundImageFix"/><feColorMatrix in="SourceAlpha" result="hardAlpha" type="matrix" values="0 0 0 0 0 0 0 0 0 0 0 0 0 0 0 0 0 0 127 0"/><feOffset dy="4"/><feGaussianBlur stdDeviation="4"/><feColorMatrix type="matrix" values="0 0 0 0 0.559444 0 0 0 0 0.559444 0 0 0 0 0.633333 0 0 0 0.16 0"/><feBlend in2="BackgroundImageFix" mode="normal" result="effect1_dropShadow_1850_2508"/><feBlend in="SourceGraphic" in2="effect1_dropShadow_1850_2508" mode="normal" result="shape"/></filter><clipPath id="b"><path d="m135.635 284.778h7.84364v7.84364h-7.84364z"/></clipPath><clipPath id="c"><path d="m146.094 284.778h7.84364v7.84364h-7.84364z"/></clipPath><clipPath id="d"><path d="m156.552 284.778h7.84364v7.84364h-7.84364z"/></clipPath><clipPath id="e"><path d="m167.01 284.778h7.84364v7.84364h-7.84364z"/></clipPath><clipPath id="f"><path d="m177.468 284.778h7.84364v7.84364h-7.84364z"/></clipPath><clipPath id="g"><path d="m296.43 284.778h7.84364v7.84364h-7.84364z"/></clipPath><clipPath id="h"><path d="m306.888 284.778h7.84364v7.84364h-7.84364z"/></clipPath><clipPath id="i"><path d="m317.346 284.778h7.84364v7.84364h-7.84364z"/></clipPath><clipPath id="j"><path d="m327.805 284.778h7.84364v7.84364h-7.84364z"/></clipPath><clipPath id="k"><path d="m338.263 284.778h7.84364v7.84364h-7.84364z"/></clipPath><clipPath id="l"><path d="m457.225 284.778h7.84364v7.84364h-7.84364z"/></clipPath><clipPath id="m"><path d="m467.683 284.778h7.84364v7.84364h-7.84364z"/></clipPath><clipPath id="n"><path d="m478.141 284.778h7.84364v7.84364h-7.84364z"/></clipPath><clipPath id="o"><path d="m488.599 284.778h7.84364v7.84364h-7.84364z"/></clipPath><clipPath id="p"><path d="m499.057 284.778h7.84364v7.84364h-7.84364z"/></clipPath><path d="m0 0h636v400h-636z" fill="#e3e9f1" fill-opacity=".5"/><g filter="url(#a)"><rect fill="#fff" height="320" rx="16" width="556" x="40" y="40"/></g><path d="m80.0306 96.7896v-4.16h18.512v4.16h-6.832v18.9764h-4.688v-18.9764zm22.5134 11.7764c-.011.842.123 1.578.4 2.208.277.618.677 1.098 1.2 1.44.533.33 1.173.496 1.92.496.8 0 1.499-.171 2.096-.512.608-.342 1.029-.902 1.264-1.68h4.208c-.181 1.173-.651 2.176-1.408 3.008-.747.832-1.653 1.466-2.72 1.904-1.067.437-2.176.656-3.328.656-1.632 0-3.072-.342-4.32-1.024-1.237-.694-2.2028-1.67-2.8961-2.928-.6934-1.259-1.04-2.742-1.04-4.448 0-1.654.3146-3.142.944-4.464.6293-1.334 1.5411-2.384 2.7361-3.152 1.205-.779 2.651-1.1684 4.336-1.1684s3.099.3574 4.24 1.072c1.152.7044 2.016 1.6904 2.592 2.9604.587 1.258.88 2.714.88 4.368v1.264zm-.016-2.784h6.752c0-.662-.123-1.27-.368-1.824-.245-.555-.619-.992-1.12-1.312-.491-.32-1.109-.48-1.856-.48-.725 0-1.344.176-1.856.528-.501.341-.885.789-1.152 1.344-.267.554-.4 1.136-.4 1.744zm20.876 10.304c-1.152 0-2.261-.187-3.328-.56-1.067-.384-1.968-.982-2.704-1.792-.736-.822-1.205-1.883-1.408-3.184h4.048c.139.586.389 1.05.752 1.392.373.341.795.586 1.264.736.469.138.917.208 1.344.208.896 0 1.616-.139 2.16-.416.555-.288.832-.726.832-1.312 0-.448-.165-.806-.496-1.072-.32-.267-.853-.47-1.6-.608l-2.912-.608c-1.461-.31-2.635-.832-3.52-1.568-.885-.747-1.339-1.803-1.36-3.168 0-.992.261-1.883.784-2.672.533-.79 1.317-1.414 2.352-1.8724 1.035-.4586 2.304-.688 3.808-.688 2.037 0 3.664.448 4.88 1.3444 1.227.896 1.851 2.16 1.872 3.792h-3.904c-.117-.64-.437-1.131-.96-1.472-.512-.352-1.157-.528-1.936-.528-.811 0-1.477.144-2 .432s-.784.725-.784 1.312c0 .437.213.784.64 1.04.427.245 1.088.458 1.984.64l2.688.608c.928.224 1.68.533 2.256.928.587.384 1.04.805 1.36 1.264.32.458.539.922.656 1.392.128.458.192.874.192 1.248 0 1.098-.293 2.037-.88 2.816-.587.768-1.403 1.354-2.448 1.76-1.045.405-2.256.608-3.632.608zm20.13-13.616h-3.68l.032 8.816c0 .405.048.709.144.912.107.192.267.32.48.384.224.053.507.08.848.08h2.224v2.88c-.213.096-.549.186-1.008.272-.448.085-1.077.128-1.888.128-1.451 0-2.576-.187-3.376-.56-.789-.374-1.339-.896-1.648-1.568s-.464-1.451-.464-2.336v-9.008h-2.688v-3.2484h2.848l1.168-4.992h3.328v4.976h3.68zm8.155-3.2484v16.5444h-4.464v-16.5444zm.048-6.576v4.208h-4.544v-4.208zm4.279 23.1204v-16.5444h4.576v2.3364c.502-.726 1.174-1.35 2.016-1.8724.854-.5226 1.926-.784 3.216-.784.566 0 1.142.1014 1.728.304.587.2027 1.136.5014 1.648.8964.523.384.944.869 1.264 1.456.534-.758 1.232-1.387 2.096-1.8884.875-.512 1.846-.768 2.912-.768.619 0 1.243.1014 1.872.304.64.2027 1.227.5334 1.76.9924.534.458.96 1.072 1.28 1.84.331.757.496 1.696.496 2.816v10.912h-4.672v-10.336c0-.662-.133-1.19-.4-1.584-.256-.406-.586-.694-.992-.864-.394-.182-.816-.272-1.264-.272-.416 0-.837.085-1.264.256-.426.16-.789.421-1.088.784-.298.362-.448.837-.448 1.424v10.592h-4.656v-10.752c0-.502-.133-.923-.4-1.264-.266-.342-.602-.598-1.008-.768-.394-.182-.8-.272-1.216-.272-.426 0-.853.09-1.28.272-.426.17-.784.442-1.072.816-.288.362-.432.821-.432 1.376v10.592zm35.761.32c-1.622 0-3.035-.347-4.24-1.04-1.195-.694-2.123-1.675-2.784-2.944-.651-1.27-.976-2.774-.976-4.512 0-1.739.325-3.259.976-4.56.661-1.302 1.589-2.315 2.784-3.0404 1.205-.7253 2.624-1.088 4.256-1.088s3.045.3574 4.24 1.072c1.194.7044 2.117 1.7064 2.768 3.0084.65 1.301.976 2.837.976 4.608 0 1.664-.32 3.136-.96 4.416-.63 1.269-1.542 2.266-2.736 2.992-1.184.725-2.619 1.088-4.304 1.088zm.016-3.472c.821 0 1.482-.24 1.984-.72.501-.48.864-1.11 1.088-1.888.234-.79.352-1.648.352-2.576 0-.875-.107-1.702-.32-2.48-.203-.779-.555-1.408-1.056-1.888-.502-.48-1.184-.72-2.048-.72-.822 0-1.488.229-2 .688-.502.448-.87 1.061-1.104 1.84-.235.768-.352 1.621-.352 2.56 0 .864.106 1.696.32 2.496.213.789.57 1.434 1.072 1.936.501.501 1.189.752 2.064.752zm11.098 3.152v-16.5444h4.592v2.3364c.256-.406.587-.795.992-1.168.416-.384.939-.699 1.568-.9444.63-.2453 1.376-.368 2.24-.368 1.014 0 1.958.1974 2.832.592.886.3944 1.6 1.0184 2.144 1.8724.544.842.816 1.946.816 3.312v10.912h-4.672v-10.336c0-.896-.266-1.568-.8-2.016-.533-.448-1.184-.672-1.952-.672-.512 0-1.008.09-1.488.272-.469.181-.853.453-1.152.816-.298.362-.448.81-.448 1.344v10.592zm23.673-16.5444v16.5444h-4.464v-16.5444zm.048-6.576v4.208h-4.544v-4.208zm8.986 23.4404c-1.056 0-2.006-.198-2.848-.592-.843-.395-1.51-.966-2-1.712-.491-.758-.736-1.675-.736-2.752 0-1.814.677-3.19 2.032-4.128 1.354-.95 3.493-1.44 6.416-1.472l2.064-.032v-.992c0-.758-.224-1.339-.672-1.744-.438-.416-1.12-.619-2.048-.608-.683.01-1.334.17-1.952.48-.608.309-1.024.848-1.248 1.616h-3.888c.064-1.195.41-2.176 1.04-2.944.629-.779 1.482-1.355 2.56-1.7284 1.088-.384 2.32-.576 3.696-.576 1.696 0 3.056.2134 4.08.64 1.024.416 1.765 1.0184 2.224 1.8084.458.778.688 1.706.688 2.784v11.632h-3.904l-.384-2.848c-.566 1.194-1.275 2.021-2.128 2.48-.843.458-1.84.688-2.992.688zm1.568-3.072c.426 0 .837-.075 1.232-.224.405-.16.762-.368 1.072-.624.32-.267.576-.566.768-.896.192-.331.288-.672.288-1.024v-2.448l-1.68.032c-.779.01-1.504.106-2.176.288-.672.17-1.216.453-1.632.848-.406.394-.608.928-.608 1.6 0 .768.266 1.37.8 1.808.533.426 1.178.64 1.936.64zm17.255 3.04c-1.216 0-2.181-.144-2.896-.432-.714-.288-1.242-.667-1.584-1.136-.341-.48-.56-1.008-.656-1.584-.096-.587-.144-1.179-.144-1.776v-19.1364h4.576v18.5604c0 .608.128 1.104.384 1.488.267.373.763.602 1.488.688l.784.048v2.88c-.32.106-.645.197-.976.272-.33.085-.656.128-.976.128z" fill="#475569"/><path d="m84.6517 133.135h184.3253" stroke="#cbd5e1" stroke-linecap="round" stroke-width="5.22909"/><path d="m84.6517 146.207h118.9623" stroke="#e2e8f0" stroke-linecap="round" stroke-width="5.22909"/><path d="m84.6517 73h22.2233" stroke="#e2e8f0" stroke-linecap="round" stroke-width="5.22909"/><rect fill="#f1f5f9" height="145.107" rx="10.4582" width="150.336" x="84.6517" y="181.503"/><rect fill="#f1f5f9" height="145.107" rx="10.4582" width="150.336" x="245.446" y="181.503"/><rect fill="#f1f5f9" height="145.107" rx="10.4582" width="150.336" x="406.241" y="181.503"/><rect fill="#cbd5e1" height="26.1455" rx="13.0727" width="26.1455" x="147.401" y="202.42"/><rect fill="#cbd5e1" height="26.1455" rx="13.0727" width="26.1455" x="308.195" y="202.42"/><rect fill="#cbd5e1" height="26.1455" rx="13.0727" width="26.1455" x="468.99" y="202.42"/><g stroke-linecap="round"><path d="m109.49 253.404h101.967" stroke="#e2e8f0" stroke-width="3.92182"/><path d="m270.285 253.404h101.967" stroke="#e2e8f0" stroke-width="3.92182"/><path d="m431.079 253.404h101.967" stroke="#e2e8f0" stroke-width="3.92182"/><path d="m122.563 261.247h74.514" stroke="#e2e8f0" stroke-width="3.92182"/><path d="m283.357 261.247h74.515" stroke="#e2e8f0" stroke-width="3.92182"/><path d="m444.152 261.247h74.514" stroke="#e2e8f0" stroke-width="3.92182"/><path d="m144.786 316.153h31.375" stroke="#e2e8f0" stroke-width="2.61455"/><path d="m305.581 316.153h31.374" stroke="#e2e8f0" stroke-width="2.61455"/><path d="m466.375 316.153h31.375" stroke="#e2e8f0" stroke-width="2.61455"/><path d="m134.328 269.091h50.984" stroke="#e2e8f0" stroke-width="3.92182"/><path d="m295.123 269.091h50.983" stroke="#e2e8f0" stroke-width="3.92182"/><path d="m455.917 269.091h50.984" stroke="#e2e8f0" stroke-width="3.92182"/><path d="m114.719 245.561h91.509" stroke="#cbd5e1" stroke-width="3.92182"/><path d="m275.514 245.561h91.509" stroke="#cbd5e1" stroke-width="3.92182"/><path d="m436.308 245.561h91.509" stroke="#cbd5e1" stroke-width="3.92182"/><path d="m138.25 308.309h43.14" stroke="#cbd5e1" stroke-width="5.22909"/><path d="m299.045 308.309h43.14" stroke="#cbd5e1" stroke-width="5.22909"/><path d="m459.839 308.309h43.14" stroke="#cbd5e1" stroke-width="5.22909"/></g><g clip-path="url(#b)"><path d="m137.406 292.349c-.189.097-.404-.073-.366-.29l.407-2.319-1.727-1.645c-.161-.154-.077-.435.139-.466l2.401-.341 1.071-2.121c.096-.191.358-.191.454 0l1.071 2.121 2.401.341c.216.031.3.312.138.466l-1.726 1.645.406 2.319c.039.217-.176.387-.365.29l-2.153-1.106z" fill="#8b3dff"/></g><g clip-path="url(#c)"><path d="m147.864 292.349c-.189.097-.404-.073-.365-.29l.406-2.319-1.727-1.645c-.161-.154-.077-.435.139-.466l2.401-.341 1.071-2.121c.096-.191.358-.191.454 0l1.071 2.121 2.401.341c.216.031.3.312.138.466l-1.726 1.645.407 2.319c.038.217-.177.387-.366.29l-2.153-1.106z" fill="#8b3dff"/></g><g clip-path="url(#d)"><path d="m158.322 292.349c-.189.097-.404-.073-.365-.29l.407-2.319-1.727-1.645c-.162-.154-.078-.435.138-.466l2.401-.341 1.071-2.121c.097-.191.358-.191.454 0l1.071 2.121 2.401.341c.216.031.3.312.139.466l-1.727 1.645.407 2.319c.038.217-.177.387-.366.29l-2.152-1.106z" fill="#8b3dff"/></g><g clip-path="url(#e)"><path d="m168.781 292.349c-.19.097-.404-.073-.366-.29l.407-2.319-1.727-1.645c-.162-.154-.078-.435.139-.466l2.401-.341 1.07-2.121c.097-.191.358-.191.455 0l1.07 2.121 2.402.341c.216.031.3.312.138.466l-1.727 1.645.407 2.319c.038.217-.176.387-.366.29l-2.152-1.106-2.152 1.106z" fill="#8b3dff"/></g><g clip-path="url(#f)"><path d="m179.239 292.349c-.189.097-.404-.073-.366-.29l.407-2.319-1.727-1.645c-.161-.154-.078-.435.139-.466l2.401-.341 1.07-2.121c.097-.191.358-.191.455 0l1.071 2.121 2.401.341c.216.031.3.312.138.466l-1.727 1.645.407 2.319c.038.217-.176.387-.366.29l-2.152-1.106-2.152 1.106z" fill="#8b3dff"/></g><g clip-path="url(#g)"><path d="m298.201 292.349c-.19.097-.404-.073-.366-.29l.407-2.319-1.727-1.645c-.161-.154-.078-.435.139-.466l2.401-.341 1.07-2.121c.097-.191.358-.191.455 0l1.07 2.121 2.402.341c.216.031.3.312.138.466l-1.727 1.645.407 2.319c.038.217-.176.387-.366.29l-2.152-1.106-2.152 1.106z" fill="#8b3dff"/></g><g clip-path="url(#h)"><path d="m308.659 292.349c-.189.097-.404-.073-.366-.29l.407-2.319-1.727-1.645c-.161-.154-.078-.435.139-.466l2.401-.341 1.07-2.121c.097-.191.358-.191.455 0l1.071 2.121 2.401.341c.216.031.3.312.138.466l-1.727 1.645.407 2.319c.038.217-.176.387-.365.29l-2.153-1.106-2.152 1.106z" fill="#8b3dff"/></g><g clip-path="url(#i)"><path d="m319.117 292.349c-.189.097-.404-.073-.366-.29l.407-2.319-1.727-1.645c-.161-.154-.077-.435.139-.466l2.401-.341 1.071-2.121c.096-.191.358-.191.454 0l1.071 2.121 2.401.341c.216.031.3.312.138.466l-1.726 1.645.407 2.319c.038.217-.177.387-.366.29l-2.153-1.106z" fill="#8b3dff"/></g><g clip-path="url(#j)"><path d="m329.575 292.349c-.189.097-.404-.073-.365-.29l.406-2.319-1.727-1.645c-.161-.154-.077-.435.139-.466l2.401-.341 1.071-2.121c.096-.191.358-.191.454 0l1.071 2.121 2.401.341c.216.031.3.312.138.466l-1.726 1.645.407 2.319c.038.217-.177.387-.366.29l-2.153-1.106z" fill="#8b3dff"/></g><g clip-path="url(#k)"><path d="m340.033 292.349c-.189.097-.404-.073-.365-.29l.407-2.319-1.727-1.645c-.162-.154-.078-.435.138-.466l2.401-.341 1.071-2.121c.097-.191.358-.191.454 0l1.071 2.121 2.401.341c.216.031.3.312.139.466l-1.727 1.645.407 2.319c.038.217-.177.387-.366.29l-2.152-1.106z" fill="#8b3dff"/></g><g clip-path="url(#l)"><path d="m458.995 292.349c-.189.097-.404-.073-.365-.29l.406-2.319-1.727-1.645c-.161-.154-.077-.435.139-.466l2.401-.341 1.071-2.121c.096-.191.358-.191.454 0l1.071 2.121 2.401.341c.216.031.3.312.138.466l-1.726 1.645.407 2.319c.038.217-.177.387-.366.29l-2.153-1.106z" fill="#8b3dff"/></g><g clip-path="url(#m)"><path d="m469.453 292.349c-.189.097-.403-.073-.365-.29l.407-2.319-1.727-1.645c-.162-.154-.078-.435.138-.466l2.401-.341 1.071-2.121c.097-.191.358-.191.455 0l1.07 2.121 2.401.341c.217.031.3.312.139.466l-1.727 1.645.407 2.319c.038.217-.177.387-.366.29l-2.152-1.106z" fill="#8b3dff"/></g><g clip-path="url(#n)"><path d="m479.912 292.349c-.19.097-.404-.073-.366-.29l.407-2.319-1.727-1.645c-.162-.154-.078-.435.138-.466l2.402-.341 1.07-2.121c.097-.191.358-.191.455 0l1.07 2.121 2.402.341c.216.031.3.312.138.466l-1.727 1.645.407 2.319c.038.217-.176.387-.366.29l-2.152-1.106-2.152 1.106z" fill="#8b3dff"/></g><g clip-path="url(#o)"><path d="m490.37 292.349c-.189.097-.404-.073-.366-.29l.407-2.319-1.727-1.645c-.161-.154-.078-.435.139-.466l2.401-.341 1.07-2.121c.097-.191.358-.191.455 0l1.071 2.121 2.401.341c.216.031.3.312.138.466l-1.727 1.645.407 2.319c.038.217-.176.387-.365.29l-2.153-1.106-2.152 1.106z" fill="#8b3dff"/></g><g clip-path="url(#p)"><path d="m500.828 292.349c-.189.097-.404-.073-.366-.29l.407-2.319-1.727-1.645c-.161-.154-.077-.435.139-.466l2.401-.341 1.071-2.121c.096-.191.358-.191.454 0l1.071 2.121 2.401.341c.216.031.3.312.138.466l-1.726 1.645.406 2.319c.039.217-.176.387-.365.29l-2.153-1.106z" fill="#8b3dff"/></g></svg>