<svg width="636" height="400" viewBox="0 0 636 400" fill="none" xmlns="http://www.w3.org/2000/svg">
<g clip-path="url(#clip0_1806_610)">
<rect width="636" height="400" fill="#E2E8F0"/>
<g filter="url(#filter0_d_1806_610)">
<rect width="636" height="44" fill="white"/>
<circle cx="22" cy="22" r="10" fill="#E2E8F0"/>
<path d="M232 22H263" stroke="#CBD5E1" stroke-width="5" stroke-linecap="round"/>
<path d="M279 22H310" stroke="#8B3DFF" stroke-width="5" stroke-linecap="round"/>
<path d="M326 22H357" stroke="#CBD5E1" stroke-width="5" stroke-linecap="round"/>
<path d="M373 22H404" stroke="#CBD5E1" stroke-width="5" stroke-linecap="round"/>
<rect x="540" y="14" width="40" height="16" rx="4" fill="#E2E8F0"/>
<rect x="584" y="14" width="40" height="16" rx="4" fill="#8B3DFF"/>
</g>
<g filter="url(#filter1_d_1806_610)">
<rect x="102" y="45" width="432" height="264" rx="6" fill="white"/>
<rect x="114" y="57" width="36" height="4" rx="2" fill="#94A3B8"/>
<rect x="114" y="69" width="80" height="4" rx="2" fill="#E2E8F0"/>
<rect x="114" y="97" width="36" height="4" rx="2" fill="#94A3B8"/>
<rect x="114" y="113" width="20" height="20" rx="4" fill="#E2E8F0"/>
<rect x="138" y="117" width="80" height="4" rx="2" fill="#E2E8F0"/>
<rect x="138" y="124" width="52" height="4" rx="2" fill="#F1F5F9"/>
<rect x="114" y="145" width="20" height="20" rx="4" fill="#E2E8F0"/>
<rect x="138" y="149" width="80" height="4" rx="2" fill="#E2E8F0"/>
<rect x="138" y="156" width="52" height="4" rx="2" fill="#F1F5F9"/>
<rect x="114" y="177" width="20" height="20" rx="4" fill="#E2E8F0"/>
<rect x="138" y="181" width="80" height="4" rx="2" fill="#E2E8F0"/>
<rect x="138" y="188" width="52" height="4" rx="2" fill="#F1F5F9"/>
<rect x="114" y="209" width="20" height="20" rx="4" fill="#E2E8F0"/>
<rect x="138" y="213" width="80" height="4" rx="2" fill="#E2E8F0"/>
<rect x="138" y="220" width="52" height="4" rx="2" fill="#F1F5F9"/>
<path d="M122.848 256V250.216H124.836C125.57 250.216 126.118 250.347 126.48 250.608C126.846 250.867 127.028 251.24 127.028 251.728C127.028 252.024 126.952 252.28 126.8 252.496C126.648 252.712 126.38 252.895 125.996 253.044C126.231 253.1 126.424 253.177 126.576 253.276C126.731 253.372 126.851 253.483 126.936 253.608C127.022 253.731 127.082 253.863 127.116 254.004C127.151 254.145 127.168 254.291 127.168 254.44C127.168 254.968 126.984 255.36 126.616 255.616C126.251 255.872 125.684 256 124.916 256H122.848ZM123.82 255.224H124.928C125.339 255.224 125.65 255.151 125.86 255.004C126.074 254.855 126.18 254.64 126.18 254.36C126.18 254.157 126.128 253.991 126.024 253.86C125.92 253.727 125.779 253.628 125.6 253.564C125.422 253.5 125.222 253.468 125 253.468H123.82V255.224ZM123.82 252.68H125C125.136 252.68 125.268 252.665 125.396 252.636C125.524 252.607 125.64 252.56 125.744 252.496C125.848 252.432 125.931 252.347 125.992 252.24C126.056 252.133 126.088 252.004 126.088 251.852C126.088 251.561 125.978 251.345 125.756 251.204C125.538 251.06 125.256 250.988 124.912 250.988H123.82V252.68ZM129.642 256.08C129.44 256.08 129.244 256.051 129.054 255.992C128.868 255.931 128.7 255.843 128.55 255.728C128.401 255.611 128.282 255.467 128.194 255.296C128.106 255.125 128.062 254.927 128.062 254.7V251.864H129.038V254.588C129.038 254.812 129.109 254.996 129.25 255.14C129.394 255.284 129.61 255.356 129.898 255.356C130.16 255.356 130.369 255.288 130.526 255.152C130.684 255.013 130.762 254.815 130.762 254.556V251.864H131.73V256H130.982L130.874 255.192C130.824 255.419 130.734 255.597 130.606 255.728C130.481 255.856 130.333 255.947 130.162 256C129.994 256.053 129.821 256.08 129.642 256.08ZM135.123 252.552H134.199L134.203 254.924C134.203 255.047 134.216 255.137 134.243 255.196C134.272 255.252 134.317 255.289 134.379 255.308C134.443 255.324 134.528 255.332 134.635 255.332H135.143V255.948C135.089 255.969 135.008 255.988 134.899 256.004C134.792 256.023 134.648 256.032 134.467 256.032C134.139 256.032 133.884 255.989 133.703 255.904C133.524 255.816 133.4 255.692 133.331 255.532C133.261 255.372 133.227 255.181 133.227 254.96V252.552H132.555V251.864H133.255L133.499 250.636H134.199V251.86H135.123V252.552ZM138.357 252.552H137.433L137.437 254.924C137.437 255.047 137.45 255.137 137.477 255.196C137.506 255.252 137.552 255.289 137.613 255.308C137.677 255.324 137.762 255.332 137.869 255.332H138.377V255.948C138.324 255.969 138.242 255.988 138.133 256.004C138.026 256.023 137.882 256.032 137.701 256.032C137.373 256.032 137.118 255.989 136.937 255.904C136.758 255.816 136.634 255.692 136.565 255.532C136.496 255.372 136.461 255.181 136.461 254.96V252.552H135.789V251.864H136.489L136.733 250.636H137.433V251.86H138.357V252.552ZM140.909 256.08C140.514 256.08 140.17 255.996 139.877 255.828C139.583 255.657 139.355 255.413 139.193 255.096C139.033 254.779 138.953 254.397 138.953 253.952C138.953 253.52 139.03 253.141 139.185 252.816C139.342 252.491 139.567 252.237 139.861 252.056C140.154 251.875 140.505 251.784 140.913 251.784C141.307 251.784 141.65 251.871 141.941 252.044C142.231 252.217 142.455 252.465 142.613 252.788C142.773 253.111 142.853 253.499 142.853 253.952C142.853 254.371 142.777 254.74 142.625 255.06C142.475 255.377 142.255 255.627 141.965 255.808C141.677 255.989 141.325 256.08 140.909 256.08ZM140.913 255.34C141.137 255.34 141.321 255.279 141.465 255.156C141.611 255.033 141.719 254.865 141.789 254.652C141.861 254.439 141.897 254.196 141.897 253.924C141.897 253.671 141.865 253.437 141.801 253.224C141.739 253.011 141.635 252.84 141.489 252.712C141.345 252.581 141.153 252.516 140.913 252.516C140.686 252.516 140.498 252.576 140.349 252.696C140.202 252.813 140.091 252.979 140.017 253.192C139.945 253.403 139.909 253.647 139.909 253.924C139.909 254.175 139.941 254.408 140.005 254.624C140.071 254.837 140.178 255.011 140.325 255.144C140.471 255.275 140.667 255.34 140.913 255.34ZM143.716 256V251.864H144.668V252.456C144.732 252.349 144.819 252.247 144.928 252.148C145.04 252.049 145.177 251.969 145.34 251.908C145.503 251.847 145.693 251.816 145.912 251.816C146.168 251.816 146.405 251.867 146.624 251.968C146.845 252.069 147.023 252.228 147.156 252.444C147.292 252.66 147.36 252.939 147.36 253.28V256H146.384V253.396C146.384 253.124 146.309 252.923 146.16 252.792C146.011 252.659 145.823 252.592 145.596 252.592C145.441 252.592 145.295 252.619 145.156 252.672C145.017 252.723 144.904 252.801 144.816 252.908C144.731 253.012 144.688 253.143 144.688 253.3V256H143.716Z" fill="#8B3DFF"/>
<rect x="114.5" y="241.5" width="41" height="23" rx="3.5" stroke="#8B3DFF"/>
<rect x="266" y="97" width="36" height="4" rx="2" fill="#94A3B8"/>
<rect x="266" y="113" width="20" height="20" rx="4" fill="#E2E8F0"/>
<rect x="290" y="117" width="80" height="4" rx="2" fill="#E2E8F0"/>
<rect x="290" y="124" width="52" height="4" rx="2" fill="#F1F5F9"/>
<rect x="266" y="145" width="20" height="20" rx="4" fill="#E2E8F0"/>
<rect x="290" y="149" width="80" height="4" rx="2" fill="#E2E8F0"/>
<rect x="290" y="156" width="52" height="4" rx="2" fill="#F1F5F9"/>
<rect x="266" y="177" width="20" height="20" rx="4" fill="#E2E8F0"/>
<rect x="290" y="181" width="80" height="4" rx="2" fill="#E2E8F0"/>
<rect x="290" y="188" width="52" height="4" rx="2" fill="#F1F5F9"/>
<rect x="266" y="209" width="20" height="20" rx="4" fill="#E2E8F0"/>
<rect x="290" y="213" width="80" height="4" rx="2" fill="#E2E8F0"/>
<rect x="290" y="220" width="52" height="4" rx="2" fill="#F1F5F9"/>
<rect x="266" y="241" width="20" height="20" rx="4" fill="#E2E8F0"/>
<rect x="290" y="245" width="80" height="4" rx="2" fill="#E2E8F0"/>
<rect x="290" y="252" width="52" height="4" rx="2" fill="#F1F5F9"/>
<path d="M274.848 288V282.216H276.836C277.57 282.216 278.118 282.347 278.48 282.608C278.846 282.867 279.028 283.24 279.028 283.728C279.028 284.024 278.952 284.28 278.8 284.496C278.648 284.712 278.38 284.895 277.996 285.044C278.231 285.1 278.424 285.177 278.576 285.276C278.731 285.372 278.851 285.483 278.936 285.608C279.022 285.731 279.082 285.863 279.116 286.004C279.151 286.145 279.168 286.291 279.168 286.44C279.168 286.968 278.984 287.36 278.616 287.616C278.251 287.872 277.684 288 276.916 288H274.848ZM275.82 287.224H276.928C277.339 287.224 277.65 287.151 277.86 287.004C278.074 286.855 278.18 286.64 278.18 286.36C278.18 286.157 278.128 285.991 278.024 285.86C277.92 285.727 277.779 285.628 277.6 285.564C277.422 285.5 277.222 285.468 277 285.468H275.82V287.224ZM275.82 284.68H277C277.136 284.68 277.268 284.665 277.396 284.636C277.524 284.607 277.64 284.56 277.744 284.496C277.848 284.432 277.931 284.347 277.992 284.24C278.056 284.133 278.088 284.004 278.088 283.852C278.088 283.561 277.978 283.345 277.756 283.204C277.538 283.06 277.256 282.988 276.912 282.988H275.82V284.68ZM281.642 288.08C281.44 288.08 281.244 288.051 281.054 287.992C280.868 287.931 280.7 287.843 280.55 287.728C280.401 287.611 280.282 287.467 280.194 287.296C280.106 287.125 280.062 286.927 280.062 286.7V283.864H281.038V286.588C281.038 286.812 281.109 286.996 281.25 287.14C281.394 287.284 281.61 287.356 281.898 287.356C282.16 287.356 282.369 287.288 282.526 287.152C282.684 287.013 282.762 286.815 282.762 286.556V283.864H283.73V288H282.982L282.874 287.192C282.824 287.419 282.734 287.597 282.606 287.728C282.481 287.856 282.333 287.947 282.162 288C281.994 288.053 281.821 288.08 281.642 288.08ZM287.123 284.552H286.199L286.203 286.924C286.203 287.047 286.216 287.137 286.243 287.196C286.272 287.252 286.317 287.289 286.379 287.308C286.443 287.324 286.528 287.332 286.635 287.332H287.143V287.948C287.089 287.969 287.008 287.988 286.899 288.004C286.792 288.023 286.648 288.032 286.467 288.032C286.139 288.032 285.884 287.989 285.703 287.904C285.524 287.816 285.4 287.692 285.331 287.532C285.261 287.372 285.227 287.181 285.227 286.96V284.552H284.555V283.864H285.255L285.499 282.636H286.199V283.86H287.123V284.552ZM290.357 284.552H289.433L289.437 286.924C289.437 287.047 289.45 287.137 289.477 287.196C289.506 287.252 289.552 287.289 289.613 287.308C289.677 287.324 289.762 287.332 289.869 287.332H290.377V287.948C290.324 287.969 290.242 287.988 290.133 288.004C290.026 288.023 289.882 288.032 289.701 288.032C289.373 288.032 289.118 287.989 288.937 287.904C288.758 287.816 288.634 287.692 288.565 287.532C288.496 287.372 288.461 287.181 288.461 286.96V284.552H287.789V283.864H288.489L288.733 282.636H289.433V283.86H290.357V284.552ZM292.909 288.08C292.514 288.08 292.17 287.996 291.877 287.828C291.583 287.657 291.355 287.413 291.193 287.096C291.033 286.779 290.953 286.397 290.953 285.952C290.953 285.52 291.03 285.141 291.185 284.816C291.342 284.491 291.567 284.237 291.861 284.056C292.154 283.875 292.505 283.784 292.913 283.784C293.307 283.784 293.65 283.871 293.941 284.044C294.231 284.217 294.455 284.465 294.613 284.788C294.773 285.111 294.853 285.499 294.853 285.952C294.853 286.371 294.777 286.74 294.625 287.06C294.475 287.377 294.255 287.627 293.965 287.808C293.677 287.989 293.325 288.08 292.909 288.08ZM292.913 287.34C293.137 287.34 293.321 287.279 293.465 287.156C293.611 287.033 293.719 286.865 293.789 286.652C293.861 286.439 293.897 286.196 293.897 285.924C293.897 285.671 293.865 285.437 293.801 285.224C293.739 285.011 293.635 284.84 293.489 284.712C293.345 284.581 293.153 284.516 292.913 284.516C292.686 284.516 292.498 284.576 292.349 284.696C292.202 284.813 292.091 284.979 292.017 285.192C291.945 285.403 291.909 285.647 291.909 285.924C291.909 286.175 291.941 286.408 292.005 286.624C292.071 286.837 292.178 287.011 292.325 287.144C292.471 287.275 292.667 287.34 292.913 287.34ZM295.716 288V283.864H296.668V284.456C296.732 284.349 296.819 284.247 296.928 284.148C297.04 284.049 297.177 283.969 297.34 283.908C297.503 283.847 297.693 283.816 297.912 283.816C298.168 283.816 298.405 283.867 298.624 283.968C298.845 284.069 299.023 284.228 299.156 284.444C299.292 284.66 299.36 284.939 299.36 285.28V288H298.384V285.396C298.384 285.124 298.309 284.923 298.16 284.792C298.011 284.659 297.823 284.592 297.596 284.592C297.441 284.592 297.295 284.619 297.156 284.672C297.017 284.723 296.904 284.801 296.816 284.908C296.731 285.012 296.688 285.143 296.688 285.3V288H295.716Z" fill="#8B3DFF"/>
<rect x="266.5" y="273.5" width="41" height="23" rx="3.5" stroke="#8B3DFF"/>
<rect x="418" y="97" width="36" height="4" rx="2" fill="#94A3B8"/>
<rect x="418" y="113" width="20" height="20" rx="4" fill="#E2E8F0"/>
<rect x="442" y="117" width="80" height="4" rx="2" fill="#E2E8F0"/>
<rect x="442" y="124" width="52" height="4" rx="2" fill="#F1F5F9"/>
<rect x="418" y="145" width="20" height="20" rx="4" fill="#E2E8F0"/>
<rect x="442" y="149" width="80" height="4" rx="2" fill="#E2E8F0"/>
<rect x="442" y="156" width="52" height="4" rx="2" fill="#F1F5F9"/>
<rect x="418" y="177" width="20" height="20" rx="4" fill="#E2E8F0"/>
<rect x="442" y="181" width="80" height="4" rx="2" fill="#E2E8F0"/>
<rect x="442" y="188" width="52" height="4" rx="2" fill="#F1F5F9"/>
<rect x="418" y="209" width="20" height="20" rx="4" fill="#E2E8F0"/>
<rect x="442" y="213" width="80" height="4" rx="2" fill="#E2E8F0"/>
<rect x="442" y="220" width="52" height="4" rx="2" fill="#F1F5F9"/>
<path d="M426.848 256V250.216H428.836C429.57 250.216 430.118 250.347 430.48 250.608C430.846 250.867 431.028 251.24 431.028 251.728C431.028 252.024 430.952 252.28 430.8 252.496C430.648 252.712 430.38 252.895 429.996 253.044C430.231 253.1 430.424 253.177 430.576 253.276C430.731 253.372 430.851 253.483 430.936 253.608C431.022 253.731 431.082 253.863 431.116 254.004C431.151 254.145 431.168 254.291 431.168 254.44C431.168 254.968 430.984 255.36 430.616 255.616C430.251 255.872 429.684 256 428.916 256H426.848ZM427.82 255.224H428.928C429.339 255.224 429.65 255.151 429.86 255.004C430.074 254.855 430.18 254.64 430.18 254.36C430.18 254.157 430.128 253.991 430.024 253.86C429.92 253.727 429.779 253.628 429.6 253.564C429.422 253.5 429.222 253.468 429 253.468H427.82V255.224ZM427.82 252.68H429C429.136 252.68 429.268 252.665 429.396 252.636C429.524 252.607 429.64 252.56 429.744 252.496C429.848 252.432 429.931 252.347 429.992 252.24C430.056 252.133 430.088 252.004 430.088 251.852C430.088 251.561 429.978 251.345 429.756 251.204C429.538 251.06 429.256 250.988 428.912 250.988H427.82V252.68ZM433.642 256.08C433.44 256.08 433.244 256.051 433.054 255.992C432.868 255.931 432.7 255.843 432.55 255.728C432.401 255.611 432.282 255.467 432.194 255.296C432.106 255.125 432.062 254.927 432.062 254.7V251.864H433.038V254.588C433.038 254.812 433.109 254.996 433.25 255.14C433.394 255.284 433.61 255.356 433.898 255.356C434.16 255.356 434.369 255.288 434.526 255.152C434.684 255.013 434.762 254.815 434.762 254.556V251.864H435.73V256H434.982L434.874 255.192C434.824 255.419 434.734 255.597 434.606 255.728C434.481 255.856 434.333 255.947 434.162 256C433.994 256.053 433.821 256.08 433.642 256.08ZM439.123 252.552H438.199L438.203 254.924C438.203 255.047 438.216 255.137 438.243 255.196C438.272 255.252 438.317 255.289 438.379 255.308C438.443 255.324 438.528 255.332 438.635 255.332H439.143V255.948C439.089 255.969 439.008 255.988 438.899 256.004C438.792 256.023 438.648 256.032 438.467 256.032C438.139 256.032 437.884 255.989 437.703 255.904C437.524 255.816 437.4 255.692 437.331 255.532C437.261 255.372 437.227 255.181 437.227 254.96V252.552H436.555V251.864H437.255L437.499 250.636H438.199V251.86H439.123V252.552ZM442.357 252.552H441.433L441.437 254.924C441.437 255.047 441.45 255.137 441.477 255.196C441.506 255.252 441.552 255.289 441.613 255.308C441.677 255.324 441.762 255.332 441.869 255.332H442.377V255.948C442.324 255.969 442.242 255.988 442.133 256.004C442.026 256.023 441.882 256.032 441.701 256.032C441.373 256.032 441.118 255.989 440.937 255.904C440.758 255.816 440.634 255.692 440.565 255.532C440.496 255.372 440.461 255.181 440.461 254.96V252.552H439.789V251.864H440.489L440.733 250.636H441.433V251.86H442.357V252.552ZM444.909 256.08C444.514 256.08 444.17 255.996 443.877 255.828C443.583 255.657 443.355 255.413 443.193 255.096C443.033 254.779 442.953 254.397 442.953 253.952C442.953 253.52 443.03 253.141 443.185 252.816C443.342 252.491 443.567 252.237 443.861 252.056C444.154 251.875 444.505 251.784 444.913 251.784C445.307 251.784 445.65 251.871 445.941 252.044C446.231 252.217 446.455 252.465 446.613 252.788C446.773 253.111 446.853 253.499 446.853 253.952C446.853 254.371 446.777 254.74 446.625 255.06C446.475 255.377 446.255 255.627 445.965 255.808C445.677 255.989 445.325 256.08 444.909 256.08ZM444.913 255.34C445.137 255.34 445.321 255.279 445.465 255.156C445.611 255.033 445.719 254.865 445.789 254.652C445.861 254.439 445.897 254.196 445.897 253.924C445.897 253.671 445.865 253.437 445.801 253.224C445.739 253.011 445.635 252.84 445.489 252.712C445.345 252.581 445.153 252.516 444.913 252.516C444.686 252.516 444.498 252.576 444.349 252.696C444.202 252.813 444.091 252.979 444.017 253.192C443.945 253.403 443.909 253.647 443.909 253.924C443.909 254.175 443.941 254.408 444.005 254.624C444.071 254.837 444.178 255.011 444.325 255.144C444.471 255.275 444.667 255.34 444.913 255.34ZM447.716 256V251.864H448.668V252.456C448.732 252.349 448.819 252.247 448.928 252.148C449.04 252.049 449.177 251.969 449.34 251.908C449.503 251.847 449.693 251.816 449.912 251.816C450.168 251.816 450.405 251.867 450.624 251.968C450.845 252.069 451.023 252.228 451.156 252.444C451.292 252.66 451.36 252.939 451.36 253.28V256H450.384V253.396C450.384 253.124 450.309 252.923 450.16 252.792C450.011 252.659 449.823 252.592 449.596 252.592C449.441 252.592 449.295 252.619 449.156 252.672C449.017 252.723 448.904 252.801 448.816 252.908C448.731 253.012 448.688 253.143 448.688 253.3V256H447.716Z" fill="#8B3DFF"/>
<rect x="418.5" y="241.5" width="41" height="23" rx="3.5" stroke="#8B3DFF"/>
</g>
</g>
<defs>
<filter id="filter0_d_1806_610" x="-4" y="-3" width="644" height="52" filterUnits="userSpaceOnUse" color-interpolation-filters="sRGB">
<feFlood flood-opacity="0" result="BackgroundImageFix"/>
<feColorMatrix in="SourceAlpha" type="matrix" values="0 0 0 0 0 0 0 0 0 0 0 0 0 0 0 0 0 0 127 0" result="hardAlpha"/>
<feOffset dy="1"/>
<feGaussianBlur stdDeviation="2"/>
<feColorMatrix type="matrix" values="0 0 0 0 0.559444 0 0 0 0 0.559444 0 0 0 0 0.633333 0 0 0 0.24 0"/>
<feBlend mode="normal" in2="BackgroundImageFix" result="effect1_dropShadow_1806_610"/>
<feBlend mode="normal" in="SourceGraphic" in2="effect1_dropShadow_1806_610" result="shape"/>
</filter>
<filter id="filter1_d_1806_610" x="65.3746" y="32.7915" width="505.251" height="337.251" filterUnits="userSpaceOnUse" color-interpolation-filters="sRGB">
<feFlood flood-opacity="0" result="BackgroundImageFix"/>
<feColorMatrix in="SourceAlpha" type="matrix" values="0 0 0 0 0 0 0 0 0 0 0 0 0 0 0 0 0 0 127 0" result="hardAlpha"/>
<feOffset dy="24.4169"/>
<feGaussianBlur stdDeviation="18.3127"/>
<feColorMatrix type="matrix" values="0 0 0 0 0.117647 0 0 0 0 0.160784 0 0 0 0 0.231373 0 0 0 0.17 0"/>
<feBlend mode="normal" in2="BackgroundImageFix" result="effect1_dropShadow_1806_610"/>
<feBlend mode="normal" in="SourceGraphic" in2="effect1_dropShadow_1806_610" result="shape"/>
</filter>
<clipPath id="clip0_1806_610">
<rect width="636" height="400" fill="white"/>
</clipPath>
</defs>
</svg>
