<svg width="40" height="40" viewBox="0 0 40 40" fill="none" xmlns="http://www.w3.org/2000/svg">
<path opacity="0.2" d="M14.8141 29.9999L10.2125 33.4749C10.0468 33.6076 9.84999 33.6959 9.64066 33.7315C9.43134 33.7671 9.2164 33.7487 9.01613 33.6782C8.81585 33.6077 8.63684 33.4873 8.49597 33.3285C8.3551 33.1696 8.25702 32.9775 8.21098 32.7702L6.27973 24.078C6.23811 23.8914 6.23985 23.6978 6.28482 23.5119C6.32979 23.3261 6.41678 23.1531 6.5391 23.0062L11.275 17.3296C11.0938 20.9765 11.9844 25.2233 14.8141 29.9999ZM33.461 23.0062L28.725 17.3296C28.9141 20.9765 28.0157 25.2233 25.186 29.9999L29.7875 33.4749C29.9533 33.6076 30.1501 33.6959 30.3594 33.7315C30.5687 33.7671 30.7837 33.7487 30.984 33.6782C31.1842 33.6077 31.3632 33.4873 31.5041 33.3285C31.645 33.1696 31.7431 32.9775 31.7891 32.7702L33.7204 24.078C33.762 23.8914 33.7602 23.6978 33.7153 23.5119C33.6703 23.3261 33.5833 23.1531 33.461 23.0062Z" fill="#198754"/>
<path d="M23.7501 35C23.7501 35.3315 23.6184 35.6495 23.384 35.8839C23.1496 36.1183 22.8316 36.25 22.5001 36.25H17.5001C17.1686 36.25 16.8507 36.1183 16.6162 35.8839C16.3818 35.6495 16.2501 35.3315 16.2501 35C16.2501 34.6685 16.3818 34.3505 16.6162 34.1161C16.8507 33.8817 17.1686 33.75 17.5001 33.75H22.5001C22.8316 33.75 23.1496 33.8817 23.384 34.1161C23.6184 34.3505 23.7501 34.6685 23.7501 35ZM20.0001 17.5C20.371 17.5 20.7335 17.39 21.0418 17.184C21.3502 16.978 21.5905 16.6851 21.7324 16.3425C21.8743 15.9999 21.9114 15.6229 21.8391 15.2592C21.7667 14.8955 21.5882 14.5614 21.3259 14.2992C21.0637 14.0369 20.7296 13.8584 20.3659 13.786C20.0022 13.7137 19.6252 13.7508 19.2826 13.8927C18.94 14.0346 18.6471 14.275 18.4411 14.5833C18.2351 14.8916 18.1251 15.2542 18.1251 15.625C18.1251 16.1223 18.3227 16.5992 18.6743 16.9508C19.0259 17.3025 19.5028 17.5 20.0001 17.5ZM34.9407 24.3484L33.0095 33.0406C32.9179 33.4534 32.7231 33.8362 32.4433 34.1532C32.1635 34.4702 31.8079 34.7111 31.4097 34.8533C31.0115 34.9955 30.5837 35.0343 30.1664 34.9663C29.7491 34.8982 29.3559 34.7254 29.0236 34.4641L24.7673 31.25H15.2361L10.9767 34.4641C10.6443 34.7254 10.2511 34.8982 9.8338 34.9663C9.41649 35.0343 8.98875 34.9955 8.59056 34.8533C8.19237 34.7111 7.83676 34.4702 7.55697 34.1532C7.27718 33.8362 7.08237 33.4534 6.99075 33.0406L5.0595 24.3484C4.97758 23.9754 4.98171 23.5886 5.0716 23.2175C5.16148 22.8463 5.33475 22.5005 5.57825 22.2062L10.0407 16.8531C10.1905 14.8858 10.6422 12.9533 11.3798 11.1234C13.3954 6.07031 17.0048 2.9 18.4689 1.77187C18.9071 1.43231 19.4457 1.24805 20.0001 1.24805C20.5545 1.24805 21.0932 1.43231 21.5314 1.77187C22.9907 2.9 26.6048 6.07031 28.6204 11.1234C29.3581 12.9533 29.8097 14.8858 29.9595 16.8531L34.422 22.2062C34.6655 22.5005 34.8388 22.8463 34.9286 23.2175C35.0185 23.5886 35.0227 23.9754 34.9407 24.3484ZM15.5361 28.75H24.4642C27.7642 22.8844 28.3814 17.2687 26.2986 12.05C24.4611 7.44375 21.0142 4.53125 20.0001 3.75C18.9829 4.53125 15.5361 7.44375 13.6986 12.05C11.6189 17.2687 12.2361 22.8844 15.5361 28.75ZM13.1923 29.6641C11.51 26.6068 10.4892 23.6021 10.1298 20.65L7.50012 23.8062L9.43137 32.5L9.4595 32.4797L13.1923 29.6641ZM32.5001 23.8062L29.8704 20.65C29.5142 23.5958 28.4954 26.6005 26.8142 29.6641L30.5407 32.4766L30.5689 32.4969L32.5001 23.8062Z" fill="#198754"/>
</svg>
