<svg fill="none" height="42" viewBox="0 0 172 42" width="172" xmlns="http://www.w3.org/2000/svg" xmlns:xlink="http://www.w3.org/1999/xlink"><clipPath id="a"><path d="m10 2h153v37.3393h-153z"/></clipPath><g clip-path="url(#a)"><g fill="#3c2b1f"><path d="m54.8777 28.3674h10.8848v-3.2786h-7.0161v-12.3493h-3.8687z"/><path d="m72.2116 26.1816c-1.5518 0-2.3605-1.3551-2.3605-3.3878s.8087-3.4097 2.3605-3.4097c1.5519 0 2.3825 1.377 2.3825 3.4097s-.8306 3.3878-2.3825 3.3878zm.0219 2.5355c3.6064 0 5.967-2.5573 5.967-5.9233s-2.3606-5.9233-5.967-5.9233c-3.5846 0-5.9889 2.5573-5.9889 5.9233s2.4043 5.9233 5.9889 5.9233z"/><path d="m84.4428 32.2361c1.6611 0 3.1255-.3716 4.1091-1.2459.8961-.8087 1.4863-2.0327 1.4863-3.7157v-10.098h-3.4097v1.2021h-.0437c-.6558-.9398-1.6612-1.53-3.1475-1.53-2.7758 0-4.6993 2.3169-4.6993 5.5955 0 3.4315 2.3388 5.3112 4.8523 5.3112 1.3552 0 2.2076-.5464 2.8633-1.2895h.0874v1.1147c0 1.3551-.6338 2.142-2.142 2.142-1.1802 0-1.7704-.5027-1.9671-1.0929h-3.4534c.3497 2.3387 2.3824 3.6065 5.4643 3.6065zm-.0219-7.1255c-1.3333 0-2.2076-1.0928-2.2076-2.7758 0-1.7049.8743-2.7977 2.2076-2.7977 1.4863 0 2.2731 1.2677 2.2731 2.7758 0 1.5737-.7212 2.7977-2.2731 2.7977z"/><path d="m97.0493 26.1816c-1.5519 0-2.3606-1.3551-2.3606-3.3878s.8087-3.4097 2.3606-3.4097c1.5518 0 2.3824 1.377 2.3824 3.4097s-.8306 3.3878-2.3824 3.3878zm.0218 2.5355c3.6069 0 5.9669-2.5573 5.9669-5.9233s-2.36-5.9233-5.9669-5.9233c-3.5845 0-5.9888 2.5573-5.9888 5.9233s2.4043 5.9233 5.9888 5.9233z"/><path d="m104.079 28.3674h3.562v-11.1909h-3.562zm0-12.7428h3.562v-2.8851h-3.562z"/><path d="m109.187 32.0612h3.562v-4.8523h.044c.7.9399 1.727 1.5082 3.169 1.5082 2.929 0 4.875-2.3169 4.875-5.9452 0-3.366-1.815-5.9233-4.787-5.9233-1.53 0-2.623.6776-3.388 1.683h-.066v-1.3551h-3.409zm5.857-6.0981c-1.53 0-2.404-1.2459-2.404-3.06 0-1.8142.787-3.1912 2.339-3.1912 1.53 0 2.251 1.2677 2.251 3.1912 0 1.9015-.83 3.06-2.186 3.06z"/><path d="m126.637 28.7171c2.929 0 5.093-1.2678 5.093-3.7158 0-2.8632-2.317-3.366-4.284-3.6938-1.421-.2623-2.689-.3716-2.689-1.1584 0-.6995.678-1.0273 1.552-1.0273.984 0 1.661.306 1.792 1.3114h3.279c-.175-2.2076-1.88-3.5846-5.049-3.5846-2.645 0-4.83 1.224-4.83 3.5846 0 2.6229 2.076 3.1474 4.021 3.4753 1.487.2623 2.842.3716 2.842 1.377 0 .7213-.678 1.1147-1.749 1.1147-1.18 0-1.923-.5464-2.054-1.6611h-3.366c.109 2.4698 2.163 3.978 5.442 3.978z"/><path d="m136.569 28.6952c1.552 0 2.536-.612 3.344-1.7048h.066v1.377h3.41v-11.1909h-3.563v6.2512c0 1.3332-.743 2.2512-1.967 2.2512-1.137 0-1.683-.6775-1.683-1.9015v-6.6009h-3.541v7.344c0 2.4917 1.355 4.1747 3.934 4.1747z"/><path d="m144.939 28.3673h3.562v-6.273c0-1.3332.656-2.2731 1.771-2.2731 1.071 0 1.574.6994 1.574 1.9016v6.6445h3.562v-6.273c0-1.3332.634-2.2731 1.771-2.2731 1.071 0 1.573.6994 1.573 1.9016v6.6445h3.563v-7.2784c0-2.5136-1.268-4.2403-3.803-4.2403-1.443 0-2.645.612-3.519 1.9672h-.044c-.568-1.2022-1.683-1.9672-3.147-1.9672-1.618 0-2.689.765-3.388 1.9235h-.066v-1.5956h-3.409z"/></g><path d="m33.1412 3.80034-3.5819-.95976-3.0184 11.26512-2.7252-10.17023-3.5819.95977 2.9443 10.98816-7.3336-7.33358-2.6221 2.62208 8.0441 8.0442-10.0177-2.6842-.9597 3.5818 10.9455 2.9329c-.1253-.5406-.1916-1.1037-.1916-1.6824 0-4.096 3.3204-7.4165 7.4165-7.4165 4.096 0 7.4165 3.3205 7.4165 7.4165 0 .5749-.0655 1.1347-.1893 1.672l9.9475 2.6654.9597-3.5819-10.9891-2.9445 10.0184-2.6844-.9598-3.5819-10.9886 2.9444 7.3336-7.33359-2.6221-2.62211-7.9325 7.9325z" fill="#f97316"/><path d="m35.677 23.0779c-.307 1.2983-.9554 2.4646-1.845 3.3991l7.2065 7.2066 2.6221-2.6221z" fill="#f97316"/><path d="m33.7591 26.5525c-.9004.9195-2.0381 1.6058-3.314 1.9594l2.6223 9.7865 3.5818-.9598z" fill="#f97316"/><path d="m30.3114 28.5476c-.592.1522-1.2125.2331-1.8519.2331-.685 0-1.3484-.0929-1.9781-.2668l-2.6247 9.7955 3.5818.9597z" fill="#f97316"/><path d="m26.3546 28.4779c-1.2564-.3712-2.3739-1.0662-3.2559-1.9884l-7.2242 7.2242 2.6221 2.6222z" fill="#f97316"/><path d="m23.0385 26.4257c-.8669-.928-1.4983-2.0788-1.7988-3.3571l-9.9799 2.6741.9597 3.5819z" fill="#f97316"/></g></svg>