<svg width="211" height="217" viewBox="0 0 211 217" fill="none" xmlns="http://www.w3.org/2000/svg">
<g filter="url(#filter0_d_1406_1397)">
<rect x="20" y="10" width="170.034" height="177" rx="8" fill="white" shape-rendering="crispEdges"/>
<path d="M38.8285 40H36.3569L40.1229 29.0909H43.0952L46.8558 40H44.3842L41.6516 31.5838H41.5664L38.8285 40ZM38.674 35.712H44.5121V37.5124H38.674V35.712ZM49.7954 35.2699V40H47.5262V31.8182H49.6889V33.2617H49.7848C49.9659 32.7859 50.2695 32.4094 50.6956 32.1325C51.1218 31.8519 51.6385 31.7116 52.2457 31.7116C52.8139 31.7116 53.3093 31.8359 53.7319 32.0845C54.1544 32.3331 54.4829 32.6882 54.7173 33.1499C54.9517 33.608 55.0689 34.1548 55.0689 34.7905V40H52.7997V35.1953C52.8032 34.6946 52.6754 34.304 52.4162 34.0234C52.1569 33.7393 51.8 33.5973 51.3455 33.5973C51.0401 33.5973 50.7702 33.663 50.5358 33.7944C50.305 33.9258 50.1239 34.1175 49.9925 34.3697C49.8647 34.6183 49.799 34.9183 49.7954 35.2699ZM58.5265 35.2699V40H56.2573V31.8182H58.4199V33.2617H58.5158C58.6969 32.7859 59.0005 32.4094 59.4267 32.1325C59.8528 31.8519 60.3695 31.7116 60.9768 31.7116C61.5449 31.7116 62.0403 31.8359 62.4629 32.0845C62.8855 32.3331 63.214 32.6882 63.4483 33.1499C63.6827 33.608 63.7999 34.1548 63.7999 34.7905V40H61.5307V35.1953C61.5343 34.6946 61.4064 34.304 61.1472 34.0234C60.888 33.7393 60.5311 33.5973 60.0765 33.5973C59.7711 33.5973 59.5013 33.663 59.2669 33.7944C59.0361 33.9258 58.855 34.1175 58.7236 34.3697C58.5957 34.6183 58.53 34.9183 58.5265 35.2699ZM70.2352 36.5163V31.8182H72.5043V40H70.3257V38.5138H70.2405C70.0558 38.9933 69.7487 39.3786 69.319 39.6697C68.8928 39.9609 68.3726 40.1065 67.7582 40.1065C67.2114 40.1065 66.7302 39.9822 66.3147 39.7337C65.8992 39.4851 65.5743 39.1317 65.3399 38.6737C65.1091 38.2156 64.9919 37.6669 64.9884 37.0277V31.8182H67.2575V36.6229C67.2611 37.1058 67.3907 37.4876 67.6464 37.7681C67.9021 38.0487 68.2447 38.1889 68.6744 38.1889C68.9479 38.1889 69.2036 38.1268 69.4415 38.0025C69.6794 37.8746 69.8712 37.6864 70.0168 37.4379C70.1659 37.1893 70.2387 36.8821 70.2352 36.5163ZM76.0525 40.1545C75.5305 40.1545 75.0653 40.0639 74.6569 39.8828C74.2485 39.6982 73.9254 39.4265 73.6874 39.0678C73.4531 38.7056 73.3359 38.2546 73.3359 37.7148C73.3359 37.2603 73.4193 36.8786 73.5862 36.5696C73.7531 36.2607 73.9804 36.0121 74.2681 35.8239C74.5557 35.6357 74.8824 35.4936 75.2482 35.3977C75.6175 35.3018 76.0046 35.2344 76.4094 35.1953C76.8852 35.1456 77.2688 35.0994 77.56 35.0568C77.8512 35.0107 78.0624 34.9432 78.1938 34.8544C78.3252 34.7656 78.3909 34.6342 78.3909 34.4602V34.4283C78.3909 34.0909 78.2844 33.8299 78.0713 33.6452C77.8618 33.4606 77.5635 33.3683 77.1764 33.3683C76.7681 33.3683 76.4431 33.4588 76.2016 33.6399C75.9602 33.8175 75.8004 34.0412 75.7222 34.3111L73.6235 34.1406C73.7301 33.6435 73.9396 33.2138 74.2521 32.8516C74.5646 32.4858 74.9676 32.2053 75.4612 32.0099C75.9584 31.8111 76.5337 31.7116 77.1871 31.7116C77.6416 31.7116 78.0766 31.7649 78.4921 31.8714C78.9112 31.978 79.2823 32.1431 79.6054 32.3668C79.9321 32.5906 80.1896 32.8782 80.3778 33.2298C80.566 33.5778 80.6601 33.995 80.6601 34.4815V40H78.5081V38.8654H78.4442C78.3128 39.1211 78.137 39.3466 77.9168 39.5419C77.6967 39.7337 77.4321 39.8846 77.1232 39.9947C76.8142 40.1012 76.4573 40.1545 76.0525 40.1545ZM76.7024 38.5884C77.0362 38.5884 77.3309 38.5227 77.5866 38.3913C77.8423 38.2564 78.0429 38.0753 78.1885 37.848C78.3341 37.6207 78.4069 37.3633 78.4069 37.0756V36.2074C78.3359 36.2536 78.2382 36.2962 78.1139 36.3352C77.9932 36.3707 77.8565 36.4045 77.7038 36.4364C77.5511 36.4648 77.3984 36.4915 77.2457 36.5163C77.093 36.5376 76.9545 36.5572 76.8302 36.5749C76.5639 36.614 76.3313 36.6761 76.1324 36.7614C75.9335 36.8466 75.7791 36.962 75.669 37.1076C75.5589 37.2496 75.5039 37.4272 75.5039 37.6403C75.5039 37.9492 75.6157 38.1854 75.8394 38.3487C76.0667 38.5085 76.3543 38.5884 76.7024 38.5884ZM84.0898 29.0909V40H81.8206V29.0909H84.0898ZM88.2218 40V29.0909H92.5258C93.3496 29.0909 94.0528 29.2383 94.6351 29.533C95.2211 29.8242 95.6667 30.2379 95.9721 30.7741C96.2811 31.3068 96.4356 31.9336 96.4356 32.6545C96.4356 33.3789 96.2793 34.0021 95.9668 34.5241C95.6543 35.0426 95.2015 35.4403 94.6085 35.7173C94.019 35.9943 93.3052 36.1328 92.4672 36.1328H89.5854V34.2791H92.0943C92.5346 34.2791 92.9004 34.2187 93.1916 34.098C93.4828 33.9773 93.6994 33.7962 93.8415 33.5547C93.9871 33.3132 94.0599 33.0131 94.0599 32.6545C94.0599 32.2923 93.9871 31.9869 93.8415 31.7383C93.6994 31.4897 93.481 31.3015 93.1863 31.1737C92.8951 31.0423 92.5275 30.9766 92.0836 30.9766H90.5282V40H88.2218ZM94.1131 35.0355L96.8244 40H94.2782L91.6255 35.0355H94.1131ZM101.02 40.1598C100.178 40.1598 99.4537 39.9893 98.8465 39.6484C98.2428 39.304 97.7776 38.8175 97.4509 38.1889C97.1242 37.5568 96.9608 36.8093 96.9608 35.9464C96.9608 35.1048 97.1242 34.3661 97.4509 33.7305C97.7776 33.0948 98.2375 32.5994 98.8305 32.2443C99.4271 31.8892 100.127 31.7116 100.929 31.7116C101.469 31.7116 101.971 31.7987 102.437 31.9727C102.905 32.1431 103.314 32.4006 103.662 32.745C104.013 33.0895 104.287 33.5227 104.482 34.0447C104.677 34.5632 104.775 35.1705 104.775 35.8665V36.4897H97.8664V35.0835H102.639C102.639 34.7567 102.568 34.4673 102.426 34.2152C102.284 33.9631 102.087 33.766 101.835 33.6239C101.586 33.4783 101.297 33.4055 100.967 33.4055C100.622 33.4055 100.317 33.4854 100.05 33.6452C99.7875 33.8015 99.5816 34.0128 99.4324 34.2791C99.2833 34.5419 99.2069 34.8349 99.2034 35.158V36.495C99.2034 36.8999 99.2779 37.2496 99.4271 37.5444C99.5798 37.8391 99.7946 38.0664 100.072 38.2262C100.349 38.386 100.677 38.4659 101.057 38.4659C101.309 38.4659 101.54 38.4304 101.75 38.3594C101.959 38.2884 102.138 38.1818 102.288 38.0398C102.437 37.8977 102.55 37.7237 102.628 37.5178L104.727 37.6562C104.621 38.1605 104.402 38.6009 104.072 38.9773C103.745 39.3501 103.323 39.6413 102.804 39.8509C102.289 40.0568 101.694 40.1598 101.02 40.1598ZM105.656 43.0682V31.8182H107.893V33.1925H107.994C108.094 32.9723 108.238 32.7486 108.426 32.5213C108.618 32.2905 108.866 32.0987 109.172 31.946C109.481 31.7898 109.864 31.7116 110.322 31.7116C110.919 31.7116 111.469 31.8679 111.973 32.1804C112.478 32.4893 112.881 32.9563 113.183 33.5813C113.484 34.2028 113.635 34.9822 113.635 35.9197C113.635 36.8324 113.488 37.603 113.193 38.2315C112.902 38.8565 112.504 39.3306 112 39.6538C111.499 39.9734 110.938 40.1332 110.317 40.1332C109.876 40.1332 109.502 40.0604 109.193 39.9148C108.887 39.7692 108.637 39.5863 108.442 39.3661C108.246 39.1424 108.097 38.9169 107.994 38.6896H107.925V43.0682H105.656ZM107.877 35.9091C107.877 36.3956 107.945 36.82 108.08 37.1822C108.215 37.5444 108.41 37.8267 108.666 38.0291C108.921 38.228 109.232 38.3274 109.598 38.3274C109.967 38.3274 110.28 38.2262 110.535 38.0238C110.791 37.8178 110.984 37.5337 111.116 37.1715C111.251 36.8058 111.318 36.3849 111.318 35.9091C111.318 35.4368 111.253 35.0213 111.121 34.6626C110.99 34.304 110.796 34.0234 110.541 33.821C110.285 33.6186 109.971 33.5174 109.598 33.5174C109.228 33.5174 108.916 33.6151 108.66 33.8104C108.408 34.0057 108.215 34.2827 108.08 34.6413C107.945 35 107.877 35.4226 107.877 35.9091ZM118.245 40.1598C117.417 40.1598 116.702 39.984 116.098 39.6325C115.498 39.2773 115.035 38.7837 114.708 38.1516C114.381 37.516 114.218 36.7791 114.218 35.9411C114.218 35.0959 114.381 34.3572 114.708 33.7251C115.035 33.0895 115.498 32.5959 116.098 32.2443C116.702 31.8892 117.417 31.7116 118.245 31.7116C119.072 31.7116 119.786 31.8892 120.386 32.2443C120.99 32.5959 121.455 33.0895 121.782 33.7251C122.108 34.3572 122.272 35.0959 122.272 35.9411C122.272 36.7791 122.108 37.516 121.782 38.1516C121.455 38.7837 120.99 39.2773 120.386 39.6325C119.786 39.984 119.072 40.1598 118.245 40.1598ZM118.256 38.402C118.632 38.402 118.946 38.2955 119.198 38.0824C119.45 37.8658 119.64 37.571 119.768 37.1982C119.9 36.8253 119.965 36.4009 119.965 35.9251C119.965 35.4492 119.9 35.0249 119.768 34.652C119.64 34.2791 119.45 33.9844 119.198 33.7678C118.946 33.5511 118.632 33.4428 118.256 33.4428C117.876 33.4428 117.556 33.5511 117.297 33.7678C117.041 33.9844 116.847 34.2791 116.716 34.652C116.588 35.0249 116.524 35.4492 116.524 35.9251C116.524 36.4009 116.588 36.8253 116.716 37.1982C116.847 37.571 117.041 37.8658 117.297 38.0824C117.556 38.2955 117.876 38.402 118.256 38.402ZM123.147 40V31.8182H125.347V33.2457H125.432C125.582 32.7379 125.832 32.3544 126.184 32.0952C126.535 31.8324 126.94 31.701 127.398 31.701C127.512 31.701 127.634 31.7081 127.766 31.7223C127.897 31.7365 128.012 31.756 128.112 31.7809V33.7944C128.005 33.7624 127.858 33.734 127.67 33.7092C127.482 33.6843 127.309 33.6719 127.153 33.6719C126.819 33.6719 126.521 33.7447 126.258 33.8903C125.999 34.0323 125.793 34.2312 125.64 34.4869C125.491 34.7425 125.417 35.0373 125.417 35.3711V40H123.147ZM133.447 31.8182V33.5227H128.52V31.8182H133.447ZM129.639 29.858H131.908V37.4858C131.908 37.6953 131.94 37.8587 132.004 37.9759C132.067 38.0895 132.156 38.1694 132.27 38.2156C132.387 38.2617 132.522 38.2848 132.675 38.2848C132.781 38.2848 132.888 38.2759 132.994 38.2582C133.101 38.2369 133.183 38.2209 133.239 38.2102L133.596 39.8988C133.483 39.9343 133.323 39.9751 133.117 40.0213C132.911 40.071 132.661 40.1012 132.366 40.1119C131.819 40.1332 131.34 40.0604 130.928 39.8935C130.519 39.7266 130.201 39.4673 129.974 39.1158C129.747 38.7642 129.635 38.3203 129.639 37.7841V29.858Z" fill="#8B3DFF"/>
<rect x="36" y="46" width="95" height="2" rx="1" fill="#CBD5E1"/>
<rect x="36" y="51" width="72" height="2" rx="1" fill="#E2E8F0"/>
<rect x="36" y="69" width="48" height="2" rx="1" fill="#CBD5E1"/>
<rect x="36" y="73" width="38" height="2" rx="1" fill="#E2E8F0"/>
<rect x="36" y="77" width="31" height="2" rx="1" fill="#E2E8F0"/>
<rect x="115" y="69" width="46" height="2" rx="1" fill="#CBD5E1"/>
<rect x="115" y="73" width="38" height="2" rx="1" fill="#E2E8F0"/>
<rect x="115" y="77" width="31" height="2" rx="1" fill="#E2E8F0"/>
<circle cx="56" cy="107" r="20" fill="#8B3DFF"/>
<path d="M76 107C76 103.67 75.1684 100.392 73.5808 97.465C71.9931 94.5376 69.6996 92.053 66.9083 90.2367C64.1171 88.4203 60.9164 87.3297 57.5969 87.0639C54.2773 86.798 50.9439 87.3652 47.8991 88.7141L56 107H76Z" fill="#EED8FF"/>
<path d="M47.9877 88.6751C44.9364 90.0092 42.2666 92.0841 40.2204 94.7116C38.1743 97.339 36.8166 100.436 36.2706 103.721C35.7246 107.006 36.0076 110.376 37.0938 113.524C38.1801 116.672 40.0352 119.499 42.4909 121.748L56 107L47.9877 88.6751Z" fill="#B299FF"/>
<rect x="36" y="131" width="31" height="2" rx="1" fill="#CBD5E1"/>
<rect x="36" y="135" width="23" height="2" rx="1" fill="#E2E8F0"/>
<path d="M158 107C158 118.046 149.046 127 138 127C126.954 127 118 118.046 118 107C118 95.9543 126.954 87 138 87C149.046 87 158 95.9543 158 107ZM124.196 107C124.196 114.624 130.376 120.804 138 120.804C145.624 120.804 151.804 114.624 151.804 107C151.804 99.3761 145.624 93.1958 138 93.1958C130.376 93.1958 124.196 99.3761 124.196 107Z" fill="#6CF8FA"/>
<path d="M158 107C158 103.67 157.168 100.392 155.581 97.465C153.993 94.5376 151.7 92.053 148.908 90.2367C146.117 88.4203 142.916 87.3297 139.597 87.0639C136.277 86.798 132.944 87.3652 129.899 88.7141L132.409 94.3788C134.51 93.4478 136.811 93.0563 139.102 93.2399C141.393 93.4234 143.602 94.1761 145.529 95.4298C147.456 96.6834 149.039 98.3983 150.134 100.419C151.23 102.439 151.804 104.701 151.804 107H158Z" fill="#0DCAF0"/>
<path d="M129.988 88.6751C126.936 90.0092 124.267 92.0841 122.22 94.7116C120.174 97.339 118.817 100.436 118.271 103.721C117.725 107.006 118.008 110.376 119.094 113.524C120.18 116.672 122.035 119.499 124.491 121.748L128.676 117.179C126.981 115.627 125.701 113.675 124.951 111.503C124.201 109.33 124.006 107.004 124.383 104.737C124.759 102.469 125.697 100.332 127.109 98.5184C128.521 96.7049 130.364 95.2728 132.47 94.3519L129.988 88.6751Z" fill="#CEFEF7"/>
<rect x="118" y="131" width="31" height="2" rx="1" fill="#CBD5E1"/>
<rect x="118" y="135" width="23" height="2" rx="1" fill="#E2E8F0"/>
<rect x="36" y="153" width="62" height="18" rx="9" fill="#8B3DFF"/>
<path d="M47.6619 160.855C47.6392 160.626 47.5417 160.448 47.3693 160.321C47.197 160.194 46.9631 160.131 46.6676 160.131C46.4669 160.131 46.2973 160.159 46.1591 160.216C46.0208 160.271 45.9148 160.348 45.8409 160.446C45.7689 160.545 45.733 160.656 45.733 160.781C45.7292 160.885 45.7509 160.976 45.7983 161.054C45.8475 161.132 45.9148 161.199 46 161.256C46.0852 161.311 46.1837 161.359 46.2955 161.401C46.4072 161.44 46.5265 161.474 46.6534 161.503L47.1761 161.628C47.4299 161.685 47.6629 161.76 47.875 161.855C48.0871 161.95 48.2708 162.066 48.4261 162.205C48.5814 162.343 48.7017 162.506 48.7869 162.693C48.8741 162.881 48.9186 163.096 48.9205 163.338C48.9186 163.694 48.8277 164.003 48.6477 164.264C48.4697 164.524 48.2121 164.725 47.875 164.869C47.5398 165.011 47.1354 165.082 46.6619 165.082C46.1922 165.082 45.7831 165.01 45.4347 164.866C45.0881 164.723 44.8172 164.509 44.6222 164.227C44.429 163.943 44.3277 163.592 44.3182 163.173H45.5085C45.5218 163.368 45.5777 163.531 45.6761 163.662C45.7765 163.791 45.91 163.888 46.0767 163.955C46.2453 164.019 46.4356 164.051 46.6477 164.051C46.8561 164.051 47.0369 164.021 47.1903 163.96C47.3456 163.9 47.4659 163.815 47.5511 163.707C47.6364 163.599 47.679 163.475 47.679 163.335C47.679 163.205 47.6402 163.095 47.5625 163.006C47.4867 162.917 47.375 162.841 47.2273 162.778C47.0814 162.716 46.9025 162.659 46.6903 162.608L46.0568 162.449C45.5663 162.33 45.179 162.143 44.8949 161.889C44.6108 161.635 44.4697 161.294 44.4716 160.864C44.4697 160.511 44.5634 160.204 44.7528 159.94C44.9441 159.677 45.2064 159.472 45.5398 159.324C45.8731 159.176 46.2519 159.102 46.6761 159.102C47.108 159.102 47.4848 159.176 47.8068 159.324C48.1307 159.472 48.3826 159.677 48.5625 159.94C48.7424 160.204 48.8352 160.509 48.8409 160.855H47.6619ZM51.3938 165.085C50.9449 165.085 50.5586 164.994 50.2347 164.812C49.9127 164.629 49.6646 164.369 49.4904 164.034C49.3161 163.697 49.229 163.298 49.229 162.838C49.229 162.389 49.3161 161.995 49.4904 161.656C49.6646 161.317 49.9099 161.053 50.2262 160.864C50.5443 160.674 50.9175 160.58 51.3455 160.58C51.6334 160.58 51.9014 160.626 52.1495 160.719C52.3995 160.81 52.6173 160.947 52.8029 161.131C52.9904 161.314 53.1362 161.545 53.2404 161.824C53.3445 162.1 53.3966 162.424 53.3966 162.795V163.128H49.712V162.378H52.2574C52.2574 162.204 52.2195 162.049 52.1438 161.915C52.068 161.78 51.9629 161.675 51.8284 161.599C51.6959 161.522 51.5415 161.483 51.3654 161.483C51.1817 161.483 51.0188 161.526 50.8767 161.611C50.7366 161.694 50.6267 161.807 50.5472 161.949C50.4676 162.089 50.4269 162.245 50.425 162.418V163.131C50.425 163.347 50.4648 163.533 50.5443 163.69C50.6258 163.848 50.7404 163.969 50.8881 164.054C51.0358 164.139 51.211 164.182 51.4137 164.182C51.5481 164.182 51.6712 164.163 51.783 164.125C51.8947 164.087 51.9904 164.03 52.0699 163.955C52.1495 163.879 52.2101 163.786 52.2517 163.676L53.3711 163.75C53.3142 164.019 53.1978 164.254 53.0216 164.455C52.8474 164.653 52.622 164.809 52.3455 164.92C52.0709 165.03 51.7536 165.085 51.3938 165.085ZM55.0766 162.477V165H53.8664V160.636H55.0198V161.406H55.0709C55.1675 161.152 55.3295 160.952 55.5567 160.804C55.784 160.654 56.0596 160.58 56.3834 160.58C56.6865 160.58 56.9507 160.646 57.1761 160.778C57.4014 160.911 57.5766 161.1 57.7016 161.347C57.8266 161.591 57.8891 161.883 57.8891 162.222V165H56.6789V162.438C56.6808 162.17 56.6126 161.962 56.4743 161.812C56.3361 161.661 56.1457 161.585 55.9033 161.585C55.7404 161.585 55.5965 161.62 55.4715 161.69C55.3484 161.76 55.2518 161.863 55.1817 161.997C55.1136 162.13 55.0785 162.29 55.0766 162.477ZM60.1309 165.071C59.7995 165.071 59.4993 164.986 59.2303 164.815C58.9633 164.643 58.7512 164.39 58.594 164.057C58.4387 163.722 58.361 163.311 58.361 162.824C58.361 162.324 58.4415 161.908 58.6025 161.577C58.7635 161.243 58.9775 160.994 59.2445 160.83C59.5135 160.663 59.808 160.58 60.1281 160.58C60.3724 160.58 60.576 160.621 60.7389 160.705C60.9036 160.786 61.0362 160.888 61.1366 161.011C61.2389 161.133 61.3165 161.252 61.3695 161.369H61.4065V159.182H62.6139V165H61.4207V164.301H61.3695C61.3127 164.422 61.2322 164.543 61.1281 164.662C61.0258 164.779 60.8923 164.877 60.7275 164.955C60.5646 165.032 60.3658 165.071 60.1309 165.071ZM60.5144 164.108C60.7095 164.108 60.8743 164.055 61.0087 163.949C61.1451 163.841 61.2493 163.69 61.3212 163.497C61.3951 163.304 61.432 163.078 61.432 162.818C61.432 162.559 61.3961 162.333 61.3241 162.142C61.2521 161.951 61.148 161.803 61.0116 161.699C60.8752 161.595 60.7095 161.543 60.5144 161.543C60.3156 161.543 60.148 161.597 60.0116 161.705C59.8752 161.812 59.772 161.962 59.7019 162.153C59.6319 162.345 59.5968 162.566 59.5968 162.818C59.5968 163.072 59.6319 163.296 59.7019 163.491C59.7739 163.685 59.8771 163.836 60.0116 163.946C60.148 164.054 60.3156 164.108 60.5144 164.108ZM64.8432 165V159.182H67.1386C67.578 159.182 67.953 159.26 68.2636 159.418C68.5761 159.573 68.8138 159.794 68.9767 160.08C69.1415 160.364 69.2239 160.698 69.2239 161.082C69.2239 161.469 69.1405 161.801 68.9739 162.08C68.8072 162.356 68.5657 162.568 68.2494 162.716C67.935 162.864 67.5544 162.938 67.1074 162.938H65.5705V161.949H66.9085C67.1434 161.949 67.3384 161.917 67.4937 161.852C67.6491 161.788 67.7646 161.691 67.8403 161.562C67.918 161.434 67.9568 161.274 67.9568 161.082C67.9568 160.889 67.918 160.726 67.8403 160.594C67.7646 160.461 67.6481 160.361 67.4909 160.293C67.3356 160.223 67.1396 160.188 66.9028 160.188H66.0733V165H64.8432ZM67.9852 162.352L69.4312 165H68.0733L66.6585 162.352H67.9852ZM71.6688 165.085C71.2199 165.085 70.8336 164.994 70.5097 164.812C70.1877 164.629 69.9396 164.369 69.7654 164.034C69.5911 163.697 69.504 163.298 69.504 162.838C69.504 162.389 69.5911 161.995 69.7654 161.656C69.9396 161.317 70.1849 161.053 70.5012 160.864C70.8193 160.674 71.1925 160.58 71.6205 160.58C71.9084 160.58 72.1764 160.626 72.4245 160.719C72.6745 160.81 72.8923 160.947 73.0779 161.131C73.2654 161.314 73.4112 161.545 73.5154 161.824C73.6195 162.1 73.6716 162.424 73.6716 162.795V163.128H69.987V162.378H72.5324C72.5324 162.204 72.4945 162.049 72.4188 161.915C72.343 161.78 72.2379 161.675 72.1034 161.599C71.9709 161.522 71.8165 161.483 71.6404 161.483C71.4567 161.483 71.2938 161.526 71.1517 161.611C71.0116 161.694 70.9017 161.807 70.8222 161.949C70.7426 162.089 70.7019 162.245 70.7 162.418V163.131C70.7 163.347 70.7398 163.533 70.8193 163.69C70.9008 163.848 71.0154 163.969 71.1631 164.054C71.3108 164.139 71.486 164.182 71.6887 164.182C71.8231 164.182 71.9462 164.163 72.058 164.125C72.1697 164.087 72.2654 164.03 72.3449 163.955C72.4245 163.879 72.4851 163.786 72.5267 163.676L73.6461 163.75C73.5892 164.019 73.4728 164.254 73.2966 164.455C73.1224 164.653 72.897 164.809 72.6205 164.92C72.3459 165.03 72.0286 165.085 71.6688 165.085ZM74.1414 166.636V160.636H75.3346V161.369H75.3886C75.4416 161.252 75.5183 161.133 75.6187 161.011C75.7209 160.888 75.8535 160.786 76.0164 160.705C76.1812 160.621 76.3857 160.58 76.63 160.58C76.9482 160.58 77.2418 160.663 77.5107 160.83C77.7796 160.994 77.9946 161.243 78.1556 161.577C78.3166 161.908 78.3971 162.324 78.3971 162.824C78.3971 163.311 78.3185 163.722 78.1613 164.057C78.006 164.39 77.7939 164.643 77.5249 164.815C77.2579 164.986 76.9586 165.071 76.6272 165.071C76.3923 165.071 76.1925 165.032 76.0278 164.955C75.8649 164.877 75.7314 164.779 75.6272 164.662C75.523 164.543 75.4435 164.422 75.3886 164.301H75.3516V166.636H74.1414ZM75.3261 162.818C75.3261 163.078 75.362 163.304 75.434 163.497C75.506 163.69 75.6101 163.841 75.7465 163.949C75.8829 164.055 76.0486 164.108 76.2437 164.108C76.4406 164.108 76.6073 164.054 76.7437 163.946C76.88 163.836 76.9832 163.685 77.0533 163.491C77.1253 163.296 77.1613 163.072 77.1613 162.818C77.1613 162.566 77.1262 162.345 77.0562 162.153C76.9861 161.962 76.8829 161.812 76.7465 161.705C76.6101 161.597 76.4425 161.543 76.2437 161.543C76.0467 161.543 75.88 161.595 75.7437 161.699C75.6092 161.803 75.506 161.951 75.434 162.142C75.362 162.333 75.3261 162.559 75.3261 162.818ZM80.8555 165.085C80.4142 165.085 80.0326 164.991 79.7106 164.804C79.3905 164.615 79.1434 164.351 78.9691 164.014C78.7949 163.675 78.7078 163.282 78.7078 162.835C78.7078 162.384 78.7949 161.991 78.9691 161.653C79.1434 161.314 79.3905 161.051 79.7106 160.864C80.0326 160.674 80.4142 160.58 80.8555 160.58C81.2968 160.58 81.6775 160.674 81.9975 160.864C82.3195 161.051 82.5676 161.314 82.7418 161.653C82.9161 161.991 83.0032 162.384 83.0032 162.835C83.0032 163.282 82.9161 163.675 82.7418 164.014C82.5676 164.351 82.3195 164.615 81.9975 164.804C81.6775 164.991 81.2968 165.085 80.8555 165.085ZM80.8612 164.148C81.0619 164.148 81.2295 164.091 81.364 163.977C81.4985 163.862 81.5998 163.705 81.668 163.506C81.7381 163.307 81.7731 163.08 81.7731 162.827C81.7731 162.573 81.7381 162.347 81.668 162.148C81.5998 161.949 81.4985 161.792 81.364 161.676C81.2295 161.561 81.0619 161.503 80.8612 161.503C80.6585 161.503 80.4881 161.561 80.3498 161.676C80.2134 161.792 80.1102 161.949 80.0401 162.148C79.972 162.347 79.9379 162.573 79.9379 162.827C79.9379 163.08 79.972 163.307 80.0401 163.506C80.1102 163.705 80.2134 163.862 80.3498 163.977C80.4881 164.091 80.6585 164.148 80.8612 164.148ZM83.4701 165V160.636H84.6434V161.398H84.6889C84.7684 161.127 84.902 160.922 85.0895 160.784C85.277 160.644 85.4929 160.574 85.7372 160.574C85.7978 160.574 85.8631 160.578 85.9332 160.585C86.0033 160.593 86.0648 160.603 86.1179 160.616V161.69C86.0611 161.673 85.9825 161.658 85.8821 161.645C85.7817 161.632 85.6898 161.625 85.6065 161.625C85.4285 161.625 85.2694 161.664 85.1292 161.741C84.991 161.817 84.8811 161.923 84.7997 162.06C84.7201 162.196 84.6804 162.353 84.6804 162.531V165H83.4701ZM88.9634 160.636V161.545H86.3355V160.636H88.9634ZM86.9321 159.591H88.1423V163.659C88.1423 163.771 88.1594 163.858 88.1935 163.92C88.2276 163.981 88.2749 164.024 88.3355 164.048C88.398 164.073 88.47 164.085 88.5514 164.085C88.6082 164.085 88.6651 164.08 88.7219 164.071C88.7787 164.06 88.8223 164.051 88.8526 164.045L89.0429 164.946C88.9823 164.965 88.8971 164.987 88.7872 165.011C88.6774 165.038 88.5438 165.054 88.3866 165.06C88.095 165.071 87.8393 165.032 87.6196 164.943C87.4018 164.854 87.2323 164.716 87.1111 164.528C86.9899 164.341 86.9302 164.104 86.9321 163.818V159.591Z" fill="white"/>
</g>
<defs>
<filter id="filter0_d_1406_1397" x="0" y="0" width="210.034" height="217" filterUnits="userSpaceOnUse" color-interpolation-filters="sRGB">
<feFlood flood-opacity="0" result="BackgroundImageFix"/>
<feColorMatrix in="SourceAlpha" type="matrix" values="0 0 0 0 0 0 0 0 0 0 0 0 0 0 0 0 0 0 127 0" result="hardAlpha"/>
<feOffset dy="10"/>
<feGaussianBlur stdDeviation="10"/>
<feComposite in2="hardAlpha" operator="out"/>
<feColorMatrix type="matrix" values="0 0 0 0 0.247059 0 0 0 0 0.247059 0 0 0 0 0.305882 0 0 0 0.35 0"/>
<feBlend mode="normal" in2="BackgroundImageFix" result="effect1_dropShadow_1406_1397"/>
<feBlend mode="normal" in="SourceGraphic" in2="effect1_dropShadow_1406_1397" result="shape"/>
</filter>
</defs>
</svg>
