<svg width="185" height="231" viewBox="0 0 185 231" fill="none" xmlns="http://www.w3.org/2000/svg">
<g filter="url(#filter0_d_1406_1508)">
<path d="M29 7.71366C29 3.45353 32.4535 0 36.7136 0H148.286C152.546 0 156 3.45352 156 7.71365V166.492C156 170.752 152.546 174.206 148.286 174.206H36.7136C32.4535 174.206 29 170.752 29 166.492V7.71366Z" fill="white" shape-rendering="crispEdges"/>
<path d="M59.9142 29.4277V18.9091H64.0641C64.8619 18.9091 65.5416 19.0615 66.1031 19.3662C66.6647 19.6675 67.0927 20.087 67.3872 20.6246C67.685 21.1587 67.834 21.775 67.834 22.4735C67.834 23.172 67.6833 23.7884 67.382 24.3225C67.0807 24.8567 66.6441 25.2727 66.0723 25.5706C65.5039 25.8685 64.8157 26.0174 64.0076 26.0174H61.3626V24.2352H63.6481C64.0761 24.2352 64.4288 24.1616 64.7061 24.0143C64.9869 23.8637 65.1958 23.6565 65.3327 23.3929C65.4731 23.1258 65.5433 22.8194 65.5433 22.4735C65.5433 22.1243 65.4731 21.8195 65.3327 21.5593C65.1958 21.2957 64.9869 21.0919 64.7061 20.9481C64.4254 20.8009 64.0693 20.7273 63.6378 20.7273H62.1381V29.4277H59.9142ZM70.6966 29.5767C70.1933 29.5767 69.7447 29.4894 69.351 29.3147C68.9572 29.1367 68.6456 28.8748 68.4162 28.5289C68.1902 28.1797 68.0772 27.7448 68.0772 27.2244C68.0772 26.7861 68.1577 26.418 68.3186 26.1201C68.4796 25.8222 68.6987 25.5826 68.976 25.4011C69.2534 25.2196 69.5684 25.0826 69.9211 24.9902C70.2772 24.8977 70.6504 24.8327 71.0407 24.795C71.4996 24.7471 71.8693 24.7026 72.1501 24.6615C72.4309 24.617 72.6346 24.5519 72.7613 24.4663C72.888 24.3807 72.9513 24.254 72.9513 24.0863V24.0554C72.9513 23.7302 72.8486 23.4785 72.6432 23.3004C72.4412 23.1224 72.1535 23.0334 71.7803 23.0334C71.3866 23.0334 71.0733 23.1207 70.8404 23.2953C70.6076 23.4665 70.4535 23.6822 70.3782 23.9424L68.3546 23.7781C68.4573 23.2987 68.6593 22.8844 68.9606 22.5352C69.2619 22.1825 69.6506 21.912 70.1265 21.7237C70.6059 21.5319 71.1606 21.4361 71.7906 21.4361C72.2289 21.4361 72.6483 21.4874 73.0489 21.5901C73.453 21.6929 73.8108 21.8521 74.1224 22.0678C74.4374 22.2835 74.6856 22.5608 74.8671 22.8998C75.0486 23.2354 75.1393 23.6377 75.1393 24.1068V29.4277H73.0643V28.3338H73.0027C72.876 28.5803 72.7065 28.7977 72.4942 28.986C72.2819 29.1709 72.0269 29.3165 71.729 29.4226C71.4311 29.5253 71.087 29.5767 70.6966 29.5767ZM71.3232 28.0667C71.6451 28.0667 71.9293 28.0033 72.1758 27.8766C72.4223 27.7465 72.6158 27.5719 72.7562 27.3528C72.8966 27.1336 72.9667 26.8854 72.9667 26.608V25.7709C72.8983 25.8154 72.8041 25.8565 72.6843 25.8941C72.5678 25.9284 72.436 25.9609 72.2888 25.9917C72.1416 26.0191 71.9943 26.0448 71.8471 26.0688C71.6999 26.0893 71.5663 26.1081 71.4465 26.1253C71.1897 26.1629 70.9654 26.2228 70.7737 26.305C70.5819 26.3872 70.433 26.4985 70.3268 26.6389C70.2207 26.7758 70.1676 26.947 70.1676 27.1525C70.1676 27.4504 70.2755 27.6781 70.4912 27.8356C70.7103 27.9896 70.9877 28.0667 71.3232 28.0667ZM77.3265 32.3861C77.0492 32.3861 76.789 32.3638 76.5458 32.3193C76.3062 32.2782 76.1076 32.2252 75.9501 32.1601L76.4431 30.5268C76.6999 30.6056 76.9311 30.6484 77.1365 30.6552C77.3454 30.6621 77.5251 30.6142 77.6758 30.5114C77.8299 30.4087 77.9548 30.2341 78.0507 29.9876L78.1791 29.6537L75.3492 21.5388H77.6501L79.2834 27.3322H79.3655L81.0142 21.5388H83.3306L80.2643 30.2803C80.1171 30.7049 79.9168 31.0747 79.6634 31.3897C79.4135 31.7081 79.0967 31.953 78.7133 32.1242C78.3298 32.2988 77.8675 32.3861 77.3265 32.3861ZM83.8717 29.4277V21.5388H85.9569V22.9306H86.0494C86.2137 22.4684 86.4877 22.1037 86.8711 21.8367C87.2546 21.5696 87.7135 21.4361 88.2476 21.4361C88.7886 21.4361 89.2491 21.5713 89.6292 21.8418C90.0093 22.1089 90.2626 22.4718 90.3893 22.9306H90.4715C90.6324 22.4787 90.9235 22.1174 91.3446 21.8469C91.7692 21.573 92.2708 21.4361 92.8495 21.4361C93.5857 21.4361 94.1832 21.6706 94.642 22.1397C95.1042 22.6054 95.3353 23.2662 95.3353 24.1222V29.4277H93.1525V24.5536C93.1525 24.1154 93.0361 23.7866 92.8033 23.5675C92.5704 23.3484 92.2794 23.2388 91.9301 23.2388C91.533 23.2388 91.2231 23.3655 91.0005 23.6189C90.778 23.8688 90.6667 24.1992 90.6667 24.6101V29.4277H88.5455V24.5074C88.5455 24.1205 88.4342 23.8123 88.2116 23.5829C87.9925 23.3535 87.7032 23.2388 87.3437 23.2388C87.1006 23.2388 86.8814 23.3004 86.6862 23.4237C86.4945 23.5435 86.3421 23.713 86.2291 23.9322C86.1161 24.1479 86.0596 24.4013 86.0596 24.6923V29.4277H83.8717ZM100.08 29.5818C99.2688 29.5818 98.5703 29.4175 97.9848 29.0888C97.4027 28.7566 96.9542 28.2875 96.6392 27.6815C96.3242 27.072 96.1667 26.3512 96.1667 25.5192C96.1667 24.7077 96.3242 23.9955 96.6392 23.3826C96.9542 22.7697 97.3976 22.2921 97.9694 21.9497C98.5446 21.6073 99.2192 21.4361 99.993 21.4361C100.513 21.4361 100.998 21.5199 101.447 21.6877C101.898 21.8521 102.292 22.1003 102.628 22.4324C102.967 22.7646 103.23 23.1823 103.419 23.6856C103.607 24.1855 103.701 24.7711 103.701 25.4422V26.0431H97.0398V24.6872H101.642C101.642 24.3722 101.573 24.0931 101.436 23.85C101.299 23.6069 101.109 23.4169 100.866 23.2799C100.626 23.1395 100.347 23.0693 100.029 23.0693C99.6968 23.0693 99.4024 23.1464 99.1456 23.3004C98.8922 23.4511 98.6936 23.6548 98.5498 23.9116C98.406 24.165 98.3324 24.4475 98.3289 24.7591V26.0482C98.3289 26.4386 98.4008 26.7758 98.5446 27.06C98.6919 27.3442 98.899 27.5634 99.1661 27.7174C99.4332 27.8715 99.7499 27.9486 100.116 27.9486C100.359 27.9486 100.582 27.9143 100.784 27.8458C100.986 27.7774 101.159 27.6746 101.303 27.5377C101.447 27.4007 101.556 27.2329 101.631 27.0343L103.655 27.1679C103.552 27.6541 103.342 28.0787 103.023 28.4416C102.708 28.8011 102.301 29.0819 101.801 29.2839C101.304 29.4825 100.731 29.5818 100.08 29.5818ZM106.738 24.8669V29.4277H104.551V21.5388H106.636V22.9306H106.728C106.903 22.4718 107.196 22.1089 107.606 21.8418C108.017 21.5713 108.516 21.4361 109.101 21.4361C109.649 21.4361 110.127 21.5559 110.534 21.7956C110.941 22.0353 111.258 22.3777 111.484 22.8228C111.71 23.2645 111.823 23.7918 111.823 24.4047V29.4277H109.635V24.795C109.639 24.3122 109.515 23.9356 109.265 23.6651C109.015 23.3912 108.671 23.2542 108.233 23.2542C107.939 23.2542 107.678 23.3176 107.452 23.4442C107.23 23.5709 107.055 23.7558 106.929 23.9989C106.805 24.2386 106.742 24.528 106.738 24.8669ZM117.165 21.5388V23.1823H112.414V21.5388H117.165ZM113.493 19.6487H115.681V27.0035C115.681 27.2055 115.712 27.363 115.773 27.476C115.835 27.5856 115.921 27.6626 116.03 27.7072C116.143 27.7517 116.273 27.7739 116.42 27.7739C116.523 27.7739 116.626 27.7654 116.729 27.7482C116.831 27.7277 116.91 27.7123 116.965 27.702L117.309 29.3301C117.199 29.3644 117.045 29.4038 116.847 29.4483C116.648 29.4962 116.407 29.5253 116.123 29.5356C115.595 29.5561 115.133 29.4859 114.736 29.325C114.342 29.1641 114.036 28.9141 113.817 28.5752C113.597 28.2362 113.49 27.8082 113.493 27.2911V19.6487ZM124.477 23.7884L122.474 23.9116C122.44 23.7404 122.366 23.5863 122.253 23.4494C122.14 23.309 121.991 23.1977 121.806 23.1155C121.625 23.0299 121.407 22.9871 121.154 22.9871C120.815 22.9871 120.529 23.059 120.296 23.2029C120.063 23.3432 119.947 23.5316 119.947 23.7678C119.947 23.9561 120.022 24.1154 120.173 24.2455C120.324 24.3756 120.582 24.48 120.948 24.5588L122.376 24.8464C123.143 25.0039 123.715 25.2573 124.092 25.6065C124.468 25.9558 124.657 26.4146 124.657 26.983C124.657 27.5 124.504 27.9537 124.2 28.344C123.898 28.7344 123.484 29.0391 122.957 29.2582C122.433 29.474 121.828 29.5818 121.144 29.5818C120.099 29.5818 119.267 29.3644 118.648 28.9295C118.031 28.4913 117.67 27.8955 117.564 27.1422L119.716 27.0292C119.781 27.3476 119.938 27.5907 120.188 27.7585C120.438 27.9229 120.758 28.0051 121.149 28.0051C121.532 28.0051 121.84 27.9314 122.073 27.7842C122.31 27.6335 122.429 27.4401 122.433 27.2038C122.429 27.0052 122.345 26.8426 122.181 26.7159C122.017 26.5858 121.763 26.4865 121.421 26.418L120.055 26.1458C119.284 25.9917 118.711 25.7246 118.334 25.3446C117.961 24.9645 117.774 24.48 117.774 23.8911C117.774 23.3843 117.911 22.9478 118.185 22.5814C118.463 22.215 118.851 21.9325 119.351 21.7339C119.854 21.5354 120.443 21.4361 121.118 21.4361C122.114 21.4361 122.898 21.6466 123.47 22.0678C124.046 22.4889 124.381 23.0625 124.477 23.7884Z" fill="#8B3DFF"/>
<rect x="46.7002" y="37.2842" width="91.5996" height="1.92841" rx="0.964206" fill="#CBD5E1"/>
<rect x="57.7883" y="42.1055" width="69.4228" height="1.92841" rx="0.964206" fill="#E2E8F0"/>
<path d="M92.4999 151.724C119.05 151.724 140.573 130.207 140.573 103.664C140.573 77.1216 119.05 55.6045 92.4999 55.6045C65.9501 55.6045 44.4272 77.1216 44.4272 103.664C44.4272 130.207 65.9501 151.724 92.4999 151.724Z" fill="#EED8FF"/>
<path d="M92.5002 121.345C102.268 121.345 110.186 113.429 110.186 103.664C110.186 93.8993 102.268 85.9834 92.5002 85.9834C82.7327 85.9834 74.8147 93.8993 74.8147 103.664C74.8147 113.429 82.7327 121.345 92.5002 121.345Z" fill="#8B3DFF" fill-opacity="0.1"/>
<path d="M125.6 103.663C125.6 94.5365 121.939 86.2473 115.985 80.2288V74.9378H114.883V79.1706C108.929 73.6591 100.968 70.2861 92.2134 70.2861C83.084 70.2861 74.7926 73.9457 68.7725 79.8981H63.4801V81.0004H67.714C62.2011 86.9528 58.8271 94.9113 58.8271 103.663C58.8271 112.79 62.4877 121.08 68.4417 127.098V132.389H69.5443V128.156C75.4982 133.668 83.4589 137.041 92.2134 137.041C101.343 137.041 109.634 133.381 115.654 127.429H120.947V126.327H116.713C122.226 120.374 125.6 112.416 125.6 103.663ZM70.3602 127.429H74.5059V126.327H69.2135C63.458 120.506 59.9077 112.504 59.9077 103.663C59.9077 95.242 63.1272 87.57 68.4196 81.8161V85.9607H69.5222V80.6697C75.3439 74.9158 83.3486 71.3664 92.1914 71.3664C100.615 71.3664 108.289 74.5851 114.045 79.8761H109.899V80.9783H115.191C120.947 86.7984 124.497 94.8011 124.497 103.641C124.497 112.063 121.278 119.735 115.985 125.489V121.344H114.883V126.635C109.061 132.389 101.056 135.939 92.2134 135.939C83.7676 135.939 76.1157 132.72 70.3602 127.429Z" fill="white"/>
<path d="M97.8588 80.9773H86.5463C84.5616 80.9773 82.9739 79.368 82.9739 77.4059V66.0743C82.9739 64.0902 84.5837 62.5029 86.5463 62.5029H97.8588C99.8434 62.5029 101.431 64.1123 101.431 66.0743V77.3838C101.431 79.368 99.8434 80.9773 97.8588 80.9773Z" fill="#B299FF"/>
<path d="M98.9826 65.9639C98.8062 65.7875 98.5416 65.6553 98.2549 65.6553C97.9682 65.6553 97.7036 65.7655 97.5272 65.9639C97.3508 66.1403 97.2185 66.4048 97.2185 66.6914C97.2185 66.8678 97.2626 67.0221 97.3287 67.1764L96.5569 67.948H84.6931L87.648 74.7602H96.3805V75.642H87.9127V76.2593H97.02V74.7602V74.4515V68.389L97.7918 67.6173C97.9462 67.6835 98.1005 67.7276 98.277 67.7276C98.5636 67.7276 98.8283 67.6173 99.0047 67.4189C99.1811 67.2426 99.3134 66.978 99.3134 66.6914C99.2913 66.4269 99.159 66.1623 98.9826 65.9639ZM87.1409 72.0045L86.5896 70.7479H87.3393V72.0045H87.1409ZM87.9788 70.7699H89.1696V72.0265H87.9788V70.7699ZM93.3815 70.7699H94.5723V72.0265H93.3815V70.7699ZM92.764 72.0045H91.5732V70.7479H92.764V72.0045ZM93.3815 70.1306V68.5653H94.5723V70.1306H93.3815ZM92.764 70.1306H91.5732V68.5653H92.764V70.1306ZM90.9558 70.1306H89.765V68.5653H90.9558V70.1306ZM89.1476 70.1306H87.9568V68.5653H89.1476V70.1306ZM89.7871 70.7699H90.9778V72.0265H89.7871V70.7699ZM90.9558 72.6217V74.1209H89.765V72.6217H90.9558ZM91.5732 72.6217H92.764V74.1209H91.5732V72.6217ZM93.3815 72.6217H94.5723V74.1209H93.3815V72.6217ZM95.1897 72.6217H96.3805V74.1209H95.1897V72.6217ZM96.3805 72.0045H95.1897V70.7479H96.3805V72.0045ZM96.3805 70.1306H95.1897V68.5653H96.3805V70.1306ZM87.3393 68.5653V70.1306H86.3249L85.6413 68.5653H87.3393ZM87.9788 73.9445V72.6438H89.1696V74.1209H88.067L87.9788 73.9445ZM98.5416 67.0001C98.4754 67.0662 98.3652 67.1323 98.2549 67.1323C98.1447 67.1323 98.0344 67.0883 97.9682 67.0001C97.9021 66.9339 97.8359 66.8237 97.8359 66.7135C97.8359 66.6032 97.88 66.493 97.9682 66.4269C98.0344 66.3607 98.1447 66.2946 98.2549 66.2946C98.3652 66.2946 98.4754 66.3387 98.5416 66.4269C98.6077 66.493 98.6739 66.6032 98.6739 66.7135C98.6518 66.8237 98.6077 66.9339 98.5416 67.0001Z" fill="#4F1EB7"/>
<path d="M88.376 76.4355C88.0894 76.4355 87.8247 76.5458 87.6483 76.7442C87.4719 76.9206 87.3396 77.1851 87.3396 77.4717C87.3396 77.7583 87.4499 78.0228 87.6483 78.1992C87.8247 78.3756 88.0894 78.5079 88.376 78.5079C88.6627 78.5079 88.9273 78.3976 89.1037 78.1992C89.2801 78.0228 89.4125 77.7583 89.4125 77.4717C89.4125 77.1851 89.3022 76.9206 89.1037 76.7442C88.9273 76.5458 88.6627 76.4355 88.376 76.4355ZM88.6848 77.7583C88.6186 77.8244 88.5083 77.8906 88.3981 77.8906C88.2878 77.8906 88.1776 77.8465 88.1114 77.7583C88.0453 77.6922 87.9791 77.5819 87.9791 77.4717C87.9791 77.3615 88.0232 77.2512 88.1114 77.1851C88.1776 77.119 88.2878 77.0528 88.3981 77.0528C88.5083 77.0528 88.6186 77.0969 88.6848 77.1851C88.7509 77.2512 88.8171 77.3615 88.8171 77.4717C88.795 77.5819 88.7509 77.6922 88.6848 77.7583Z" fill="#4F1EB7"/>
<path d="M96.6893 76.4355C96.4026 76.4355 96.138 76.5458 95.9616 76.7442C95.7851 76.9206 95.6528 77.1851 95.6528 77.4717C95.6528 77.7583 95.7631 78.0228 95.9616 78.1992C96.138 78.3756 96.4026 78.5079 96.6893 78.5079C96.9759 78.5079 97.2406 78.3976 97.417 78.1992C97.5934 78.0228 97.7257 77.7583 97.7257 77.4717C97.7257 77.1851 97.6154 76.9206 97.417 76.7442C97.2406 76.5458 96.9759 76.4355 96.6893 76.4355ZM96.998 77.7583C96.9318 77.8244 96.8216 77.8906 96.7113 77.8906C96.6011 77.8906 96.4908 77.8465 96.4246 77.7583C96.3585 77.6922 96.2923 77.5819 96.2923 77.4717C96.2923 77.3615 96.3364 77.2512 96.4246 77.1851C96.4908 77.119 96.6011 77.0528 96.7113 77.0528C96.8216 77.0528 96.9318 77.0969 96.998 77.1851C97.0641 77.2512 97.1303 77.3615 97.1303 77.4717C97.1082 77.5819 97.0641 77.6922 96.998 77.7583Z" fill="#4F1EB7"/>
<path d="M128.136 107.651V109.239C128.136 112.523 125.468 115.191 122.182 115.191C118.896 115.191 116.228 112.523 116.228 109.239V107.651C116.228 110.936 118.896 113.604 122.182 113.604C125.468 113.604 128.136 110.936 128.136 107.651Z" fill="#7A4F01"/>
<path d="M122.182 114.221C125.47 114.221 128.136 111.556 128.136 108.269C128.136 104.981 125.47 102.316 122.182 102.316C118.894 102.316 116.228 104.981 116.228 108.269C116.228 111.556 118.894 114.221 122.182 114.221Z" fill="#FFC107"/>
<path d="M126.746 108.269C126.746 108.357 126.746 108.445 126.746 108.512C126.746 108.556 126.746 108.6 126.746 108.644C126.548 111.003 124.585 112.833 122.182 112.833C119.778 112.833 117.815 110.981 117.617 108.644C117.617 108.6 117.617 108.556 117.617 108.512C117.617 108.423 117.617 108.357 117.617 108.269C117.617 105.734 119.668 103.684 122.204 103.684C124.718 103.684 126.746 105.734 126.746 108.269Z" fill="#7A4F01"/>
<path d="M126.746 108.512C126.746 108.556 126.746 108.6 126.746 108.644C126.548 111.003 124.585 112.833 122.182 112.833C119.778 112.833 117.815 110.981 117.617 108.644C117.617 108.6 117.617 108.556 117.617 108.512C117.749 106.109 119.756 104.213 122.182 104.213C124.607 104.213 126.614 106.109 126.746 108.512Z" fill="#FFE16A"/>
<path d="M123.152 109.967C123.152 109.769 123.085 109.592 122.931 109.46C122.777 109.328 122.534 109.195 122.203 109.107C121.873 108.997 121.608 108.909 121.41 108.799C120.792 108.49 120.461 108.049 120.461 107.454C120.461 107.057 120.594 106.726 120.88 106.462C121.145 106.197 121.52 106.043 121.983 105.999V105.205H122.622V105.999C123.085 106.065 123.46 106.241 123.703 106.528C123.968 106.814 124.078 107.211 124.078 107.674H123.108C123.108 107.366 123.041 107.123 122.887 106.947C122.733 106.77 122.534 106.682 122.27 106.682C122.005 106.682 121.806 106.748 121.652 106.881C121.498 107.013 121.432 107.189 121.432 107.41C121.432 107.63 121.498 107.784 121.652 107.917C121.806 108.049 122.049 108.159 122.38 108.269C122.733 108.38 122.997 108.49 123.196 108.578C123.394 108.666 123.549 108.776 123.703 108.909C123.835 109.041 123.945 109.173 124.012 109.328C124.078 109.482 124.122 109.68 124.122 109.901C124.122 110.298 123.99 110.628 123.703 110.893C123.416 111.135 123.041 111.29 122.534 111.334V112.039H121.895V111.334C121.365 111.29 120.946 111.113 120.66 110.827C120.373 110.54 120.219 110.165 120.219 109.68H121.211C121.211 109.989 121.299 110.209 121.476 110.386C121.652 110.562 121.895 110.628 122.203 110.628C122.512 110.628 122.755 110.562 122.909 110.43C123.063 110.364 123.152 110.187 123.152 109.967Z" fill="#7A4F01"/>
<path d="M123.152 109.57C123.152 109.371 123.086 109.195 122.932 109.062C122.777 108.93 122.535 108.798 122.204 108.71C121.873 108.599 121.608 108.511 121.41 108.401C120.793 108.092 120.462 107.652 120.462 107.056C120.462 106.659 120.594 106.329 120.881 106.064C121.145 105.8 121.52 105.645 121.983 105.601V104.808H122.623V105.601C123.086 105.667 123.461 105.844 123.703 106.13C123.968 106.417 124.078 106.814 124.078 107.277H123.108C123.108 106.968 123.042 106.726 122.887 106.549C122.733 106.373 122.535 106.285 122.27 106.285C122.005 106.285 121.807 106.351 121.653 106.483C121.498 106.615 121.432 106.792 121.432 107.012C121.432 107.233 121.498 107.387 121.653 107.519C121.807 107.652 122.05 107.762 122.38 107.872C122.733 107.982 122.998 108.092 123.196 108.181C123.395 108.269 123.549 108.379 123.703 108.511C123.836 108.644 123.946 108.776 124.012 108.93C124.078 109.085 124.122 109.283 124.122 109.503C124.122 109.9 123.99 110.231 123.703 110.495C123.417 110.738 123.042 110.892 122.535 110.936V111.642H121.895V110.936C121.366 110.892 120.947 110.716 120.66 110.429C120.374 110.143 120.219 109.768 120.219 109.283H121.212C121.212 109.592 121.3 109.812 121.476 109.988C121.653 110.165 121.895 110.231 122.204 110.231C122.513 110.231 122.755 110.165 122.91 110.032C123.064 109.966 123.152 109.79 123.152 109.57Z" fill="white"/>
<path d="M131.642 101.985V103.573C131.642 106.857 128.974 109.525 125.688 109.525C122.402 109.525 119.734 106.857 119.734 103.573V101.985C119.734 105.27 122.402 107.938 125.688 107.938C128.974 107.938 131.642 105.27 131.642 101.985Z" fill="#7A4F01"/>
<path d="M131.444 104.078C132.269 100.896 130.357 97.648 127.174 96.8236C123.991 95.9991 120.742 97.9104 119.917 101.093C119.092 104.275 121.004 107.523 124.187 108.347C127.37 109.172 130.619 107.261 131.444 104.078Z" fill="#FFC107"/>
<path d="M130.275 102.582C130.275 102.67 130.275 102.758 130.275 102.824C130.275 102.868 130.275 102.912 130.275 102.956C130.076 105.315 128.114 107.145 125.71 107.145C123.306 107.145 121.344 105.293 121.145 102.956C121.145 102.912 121.145 102.868 121.145 102.824C121.145 102.736 121.145 102.67 121.145 102.582C121.145 100.046 123.196 97.9961 125.732 97.9961C128.224 98.0181 130.275 100.068 130.275 102.582Z" fill="#7A4F01"/>
<path d="M130.252 102.824C130.252 102.868 130.252 102.913 130.252 102.957C130.054 105.315 128.091 107.145 125.688 107.145C123.284 107.145 121.321 105.293 121.123 102.957C121.123 102.913 121.123 102.868 121.123 102.824C121.255 100.421 123.262 98.5254 125.688 98.5254C128.113 98.5254 130.12 100.443 130.252 102.824Z" fill="#FFE16A"/>
<path d="M126.658 104.278C126.658 104.08 126.592 103.904 126.438 103.771C126.284 103.639 126.041 103.507 125.71 103.419C125.379 103.308 125.115 103.22 124.916 103.11C124.299 102.801 123.968 102.361 123.968 101.765C123.968 101.368 124.1 101.038 124.387 100.773C124.652 100.509 125.027 100.354 125.49 100.31V99.5166H126.129V100.31C126.592 100.376 126.967 100.553 127.21 100.839C127.474 101.126 127.585 101.523 127.585 101.986H126.614C126.614 101.677 126.548 101.435 126.394 101.258C126.239 101.082 126.041 100.994 125.776 100.994C125.512 100.994 125.313 101.06 125.159 101.192C125.005 101.324 124.938 101.501 124.938 101.721C124.938 101.942 125.005 102.096 125.159 102.228C125.313 102.361 125.556 102.471 125.887 102.581C126.239 102.691 126.504 102.801 126.703 102.89C126.901 102.978 127.055 103.088 127.21 103.22C127.342 103.353 127.452 103.485 127.518 103.639C127.585 103.793 127.629 103.992 127.629 104.212C127.629 104.609 127.496 104.94 127.21 105.204C126.923 105.447 126.548 105.601 126.041 105.645V106.351H125.402V105.645C124.872 105.601 124.453 105.425 124.167 105.138C123.88 104.852 123.726 104.477 123.726 103.992H124.718C124.718 104.301 124.806 104.521 124.983 104.697C125.159 104.874 125.402 104.94 125.71 104.94C126.019 104.94 126.262 104.874 126.416 104.741C126.57 104.675 126.658 104.499 126.658 104.278Z" fill="#7A4F01"/>
<path d="M126.658 103.881C126.658 103.683 126.592 103.506 126.438 103.374C126.284 103.242 126.041 103.109 125.71 103.021C125.379 102.911 125.115 102.823 124.916 102.713C124.299 102.404 123.968 101.963 123.968 101.368C123.968 100.971 124.1 100.64 124.387 100.376C124.652 100.111 125.027 99.9569 125.49 99.9128V99.1191H126.129V99.9128C126.592 99.9789 126.967 100.155 127.21 100.442C127.474 100.728 127.585 101.125 127.585 101.588H126.614C126.614 101.28 126.548 101.037 126.394 100.861C126.239 100.684 126.041 100.596 125.776 100.596C125.512 100.596 125.313 100.662 125.159 100.795C125.005 100.927 124.938 101.103 124.938 101.324C124.938 101.544 125.005 101.698 125.159 101.831C125.313 101.963 125.556 102.073 125.887 102.184C126.239 102.294 126.504 102.404 126.703 102.492C126.901 102.58 127.055 102.691 127.21 102.823C127.342 102.955 127.452 103.087 127.518 103.242C127.585 103.396 127.629 103.594 127.629 103.815C127.629 104.212 127.496 104.542 127.21 104.807C126.923 105.049 126.548 105.204 126.041 105.248V105.953H125.402V105.248C124.872 105.204 124.453 105.027 124.167 104.741C123.88 104.454 123.726 104.079 123.726 103.594H124.718C124.718 103.903 124.806 104.124 124.983 104.3C125.159 104.476 125.402 104.542 125.71 104.542C126.019 104.542 126.262 104.476 126.416 104.344C126.57 104.278 126.658 104.101 126.658 103.881Z" fill="white"/>
<path d="M126.195 97.5117V99.099C126.195 102.384 123.526 105.051 120.241 105.051C116.955 105.051 114.287 102.384 114.287 99.099V97.5117C114.287 100.797 116.955 103.464 120.241 103.464C123.526 103.464 126.195 100.797 126.195 97.5117Z" fill="#7A4F01"/>
<path d="M120.241 104.058C123.529 104.058 126.195 101.393 126.195 98.1057C126.195 94.8183 123.529 92.1533 120.241 92.1533C116.952 92.1533 114.287 94.8183 114.287 98.1057C114.287 101.393 116.952 104.058 120.241 104.058Z" fill="#FFC107"/>
<path d="M124.805 98.106C124.805 98.1942 124.805 98.2824 124.805 98.3485C124.805 98.3926 124.805 98.4367 124.805 98.4808C124.606 100.84 122.644 102.67 120.24 102.67C117.837 102.67 115.874 100.818 115.676 98.4808C115.676 98.4367 115.676 98.3926 115.676 98.3485C115.676 98.2604 115.676 98.1942 115.676 98.106C115.676 95.5708 117.726 93.5205 120.262 93.5205C122.754 93.5426 124.805 95.5928 124.805 98.106Z" fill="#7A4F01"/>
<path d="M124.805 98.3694C124.805 98.4135 124.805 98.4576 124.805 98.5017C124.606 100.861 122.644 102.69 120.24 102.69C117.837 102.69 115.874 100.839 115.676 98.5017C115.676 98.4576 115.676 98.4135 115.676 98.3694C115.808 95.9664 117.815 94.0705 120.24 94.0705C122.666 94.0485 124.673 95.9664 124.805 98.3694Z" fill="#FFE16A"/>
<path d="M121.189 99.8033C121.189 99.6049 121.123 99.4285 120.968 99.2963C120.814 99.164 120.571 99.0317 120.24 98.9435C119.91 98.8333 119.645 98.7451 119.447 98.6349C118.829 98.3263 118.498 97.8853 118.498 97.2901C118.498 96.8933 118.631 96.5626 118.917 96.298C119.182 96.0335 119.557 95.8792 120.02 95.8351V95.0635H120.659V95.8571C121.123 95.9233 121.497 96.0996 121.74 96.3862C122.005 96.6728 122.115 97.0696 122.115 97.5326H121.167C121.167 97.224 121.1 96.9815 120.946 96.8051C120.792 96.6287 120.593 96.5405 120.329 96.5405C120.064 96.5405 119.866 96.6067 119.711 96.739C119.557 96.8712 119.491 97.0476 119.491 97.2681C119.491 97.4885 119.557 97.6428 119.711 97.7751C119.866 97.9074 120.108 98.0176 120.439 98.1278C120.792 98.2381 121.056 98.3483 121.255 98.4365C121.453 98.5247 121.608 98.6349 121.762 98.7672C121.894 98.8994 122.005 99.0317 122.071 99.186C122.137 99.3404 122.181 99.5388 122.181 99.7592C122.181 100.156 122.049 100.487 121.762 100.751C121.475 100.994 121.1 101.148 120.593 101.192V101.898H119.954V101.236C119.425 101.192 119.006 101.016 118.719 100.729C118.432 100.443 118.278 100.068 118.278 99.5829H119.27C119.27 99.8915 119.358 100.112 119.535 100.288C119.711 100.465 119.954 100.531 120.262 100.531C120.571 100.531 120.814 100.465 120.968 100.332C121.123 100.2 121.189 100.024 121.189 99.8033Z" fill="#7A4F01"/>
<path d="M121.189 99.4064C121.189 99.208 121.123 99.0316 120.968 98.8994C120.814 98.7671 120.571 98.6348 120.241 98.5466C119.91 98.4364 119.645 98.3482 119.447 98.238C118.829 97.9294 118.499 97.4884 118.499 96.8932C118.499 96.4964 118.631 96.1657 118.918 95.9011C119.182 95.6366 119.557 95.4823 120.02 95.4382V94.6445H120.66V95.4382C121.123 95.5043 121.498 95.6807 121.74 95.9673C122.005 96.2539 122.115 96.6507 122.115 97.1137H121.167C121.167 96.805 121.101 96.5625 120.946 96.3861C120.792 96.2098 120.594 96.1216 120.329 96.1216C120.064 96.1216 119.866 96.1877 119.711 96.32C119.557 96.4523 119.491 96.6287 119.491 96.8491C119.491 97.0696 119.557 97.2239 119.711 97.3562C119.866 97.4884 120.108 97.5987 120.439 97.7089C120.792 97.8191 121.057 97.9294 121.255 98.0175C121.454 98.1057 121.608 98.2159 121.762 98.3482C121.895 98.4805 122.005 98.6128 122.071 98.7671C122.137 98.9214 122.181 99.1198 122.181 99.3403C122.181 99.7371 122.049 100.068 121.762 100.332C121.476 100.575 121.101 100.729 120.594 100.773V101.479H119.954V100.773C119.425 100.729 119.006 100.553 118.719 100.266C118.432 99.9796 118.278 99.6048 118.278 99.1198H119.27C119.27 99.4285 119.359 99.6489 119.535 99.8253C119.711 100.002 119.954 100.068 120.263 100.068C120.571 100.068 120.814 100.002 120.968 99.8694C121.123 99.8032 121.189 99.6269 121.189 99.4064Z" fill="white"/>
<path d="M67.736 89.4434H52.6968V117.927H67.736V89.4434Z" fill="#4F1EB7"/>
<path d="M64.538 116.317H55.9158C55.9158 115.369 55.1439 114.62 54.2178 114.62V92.7503C55.166 92.7503 55.9158 91.9787 55.9158 91.0527H64.538C64.538 92.0007 65.3098 92.7503 66.2359 92.7503V114.62C65.2877 114.62 64.538 115.391 64.538 116.317Z" fill="#B299FF"/>
<path d="M60.2161 109.946C63.6748 109.946 66.4787 107.143 66.4787 103.685C66.4787 100.227 63.6748 97.4238 60.2161 97.4238C56.7573 97.4238 53.9534 100.227 53.9534 103.685C53.9534 107.143 56.7573 109.946 60.2161 109.946Z" fill="#4F1EB7"/>
<path d="M60.8341 95.8939C61.6549 95.5522 62.0432 94.6101 61.7014 93.7895C61.3597 92.9689 60.4173 92.5807 59.5965 92.9224C58.7757 93.264 58.3874 94.2062 58.7291 95.0268C59.0709 95.8473 60.0133 96.2355 60.8341 95.8939Z" fill="#4F1EB7"/>
<path d="M60.2167 114.974C61.1058 114.974 61.8265 114.253 61.8265 113.364C61.8265 112.475 61.1058 111.755 60.2167 111.755C59.3277 111.755 58.6069 112.475 58.6069 113.364C58.6069 114.253 59.3277 114.974 60.2167 114.974Z" fill="#4F1EB7"/>
<path d="M61.4956 102.516C61.2971 102.516 61.1207 102.582 60.9884 102.736C60.8561 102.869 60.7458 103.111 60.6356 103.442C60.5253 103.773 60.4371 104.037 60.3489 104.213C60.0622 104.831 59.6212 105.139 59.0479 105.139C58.6509 105.139 58.3422 105.007 58.0776 104.743C57.835 104.478 57.6807 104.125 57.6366 103.662H56.8647V103.023H57.6366C57.7027 102.56 57.8791 102.207 58.1658 101.965C58.4525 101.722 58.8273 101.59 59.2904 101.59V102.538C59.0038 102.538 58.7612 102.604 58.5848 102.758C58.4084 102.913 58.3202 103.111 58.3202 103.376C58.3202 103.618 58.3863 103.817 58.4966 103.971C58.6289 104.103 58.8053 104.191 59.0258 104.191C59.2243 104.191 59.4007 104.125 59.5109 103.971C59.6433 103.839 59.7535 103.596 59.8638 103.243C59.974 102.913 60.0843 102.648 60.1725 102.45C60.2607 102.251 60.371 102.097 60.5033 101.965C60.6356 101.832 60.7679 101.722 60.9223 101.656C61.0766 101.59 61.2751 101.546 61.4736 101.546C61.8705 101.546 62.2013 101.678 62.4438 101.965C62.6864 102.229 62.8408 102.626 62.8849 103.111H63.5685V103.75H62.8849C62.8408 104.28 62.6643 104.676 62.3777 104.963C62.091 105.25 61.7161 105.382 61.253 105.382V104.412C61.5397 104.412 61.7823 104.324 61.9366 104.169C62.091 103.993 62.1792 103.773 62.1792 103.464C62.1792 103.155 62.113 102.935 61.9807 102.78C61.8705 102.604 61.7161 102.516 61.4956 102.516Z" fill="#6FDB93"/>
<mask id="mask0_1406_1508" style="mask-type:luminance" maskUnits="userSpaceOnUse" x="69" y="107" width="47" height="52">
<path d="M115.037 107.652H69.3684V158.777H115.037V107.652Z" fill="white"/>
</mask>
<g mask="url(#mask0_1406_1508)">
<path d="M108.201 146.608L117.485 167.067L102.026 169.294L95.9402 155.824L108.201 146.608Z" fill="#F6B1C5"/>
<path d="M88.5969 145.683C88.7954 146.389 92.1693 154.788 97.3074 157.566C102.467 160.344 107.628 161.292 109.524 159.219C111.42 157.169 111.95 154.59 111.884 153.002C111.817 151.415 107.164 139.819 106.768 139.158C106.371 138.474 102.004 128.509 101.365 128.024C100.725 127.539 93.9996 130.626 93.6909 130.472C93.3601 130.317 86.4579 138.077 88.5969 145.683Z" fill="#F18BA9"/>
<path d="M101.211 108.889H82.7534C81.6728 108.889 80.7908 109.771 80.7908 110.851V150.18C80.7908 151.261 81.6728 152.143 82.7534 152.143H101.211C102.291 152.143 103.173 151.261 103.173 150.18V110.851C103.195 109.771 102.313 108.889 101.211 108.889Z" fill="#4F1EB7"/>
<path d="M91.4863 110.917C91.4863 110.631 91.7068 110.41 91.9935 110.41C92.2802 110.41 92.5007 110.631 92.5007 110.917C92.5007 111.204 92.2802 111.424 91.9935 111.424C91.7068 111.424 91.4863 111.204 91.4863 110.917Z" fill="#093644"/>
<path d="M91.9929 111.181C92.139 111.181 92.2575 111.063 92.2575 110.917C92.2575 110.771 92.139 110.652 91.9929 110.652C91.8467 110.652 91.7283 110.771 91.7283 110.917C91.7283 111.063 91.8467 111.181 91.9929 111.181Z" fill="#00273B"/>
<path d="M102.424 111.512V149.431C102.424 149.761 102.292 150.048 102.071 150.268C101.851 150.489 101.564 150.621 101.233 150.621H82.776C82.4452 150.621 82.1586 150.489 81.938 150.268C81.7175 150.048 81.5852 149.761 81.5852 149.431V111.512C81.5852 111.181 81.7175 110.894 81.938 110.674C82.1586 110.454 82.4452 110.321 82.776 110.321H90.4941C90.8028 110.321 91.0233 110.564 91.0233 110.872V110.917C91.0233 111.181 91.1336 111.424 91.31 111.6C91.4864 111.776 91.729 111.887 91.9716 111.887C92.5228 111.909 92.9859 111.424 92.9859 110.872C92.9859 110.564 93.2285 110.321 93.5152 110.321H101.233C101.564 110.321 101.851 110.454 102.071 110.674C102.292 110.894 102.424 111.181 102.424 111.512Z" fill="#B299FF"/>
<path d="M98.1016 135.541H85.8629C84.8044 135.541 83.9224 134.681 83.9224 133.601C83.9224 132.543 84.7824 131.661 85.8629 131.661H98.1016C99.1601 131.661 100.042 132.521 100.042 133.601C100.042 134.659 99.1821 135.541 98.1016 135.541Z" fill="#4F1EB7"/>
<path d="M98.5644 129.523H85.6862C84.7159 129.523 83.9441 128.729 83.9441 127.781V115.259C83.9441 114.289 84.738 113.518 85.6862 113.518H98.5644C99.5346 113.518 100.306 114.311 100.306 115.259V127.781C100.306 128.751 99.5346 129.523 98.5644 129.523Z" fill="#D0F9D5"/>
<path d="M92.0154 124.386C94.0127 124.386 95.6319 122.768 95.6319 120.771C95.6319 118.774 94.0127 117.155 92.0154 117.155C90.0181 117.155 88.3989 118.774 88.3989 120.771C88.3989 122.768 90.0181 124.386 92.0154 124.386Z" fill="#4F1EB7"/>
<path d="M95.9407 117.861C95.7202 117.64 95.3674 117.64 95.1469 117.861L92.236 120.771L90.7586 119.294C90.538 119.073 90.1852 119.073 89.9647 119.294C89.7442 119.514 89.7442 119.867 89.9647 120.087L91.8391 121.961C92.0596 122.182 92.4124 122.182 92.633 121.961L95.9187 118.676C96.1612 118.434 96.1612 118.081 95.9407 117.861Z" fill="white"/>
<path d="M96.3814 146.853H88.134V147.999H96.3814V146.853Z" fill="#D0F9D5"/>
<path d="M98.3876 144.756H86.1489V145.902H98.3876V144.756Z" fill="#D0F9D5"/>
<path d="M110.626 147.489C110.163 146.497 107.054 139.42 106.348 138.472C105.643 137.525 99.6888 132.145 98.1892 131.815C96.6897 131.506 90.9122 131.175 89.3906 130.867C87.8911 130.558 87.8029 132.366 89.3906 134.107C90.9783 135.849 93.6686 136.841 96.4472 136.995C98.5862 140.236 99.4241 141.559 99.4241 141.559C99.4241 141.559 97.9467 148.283 102.137 153.111C106.326 157.939 108.906 156.616 110.141 156.065C112.457 155.029 112.324 151.127 110.626 147.489Z" fill="#F6B1C5"/>
</g>
</g>
<defs>
<filter id="filter0_d_1406_1508" x="0.870867" y="0" width="183.258" height="230.464" filterUnits="userSpaceOnUse" color-interpolation-filters="sRGB">
<feFlood flood-opacity="0" result="BackgroundImageFix"/>
<feColorMatrix in="SourceAlpha" type="matrix" values="0 0 0 0 0 0 0 0 0 0 0 0 0 0 0 0 0 0 127 0" result="hardAlpha"/>
<feOffset dy="28.1291"/>
<feGaussianBlur stdDeviation="14.0646"/>
<feComposite in2="hardAlpha" operator="out"/>
<feColorMatrix type="matrix" values="0 0 0 0 0.247059 0 0 0 0 0.247059 0 0 0 0 0.305882 0 0 0 0.55 0"/>
<feBlend mode="normal" in2="BackgroundImageFix" result="effect1_dropShadow_1406_1508"/>
<feBlend mode="normal" in="SourceGraphic" in2="effect1_dropShadow_1406_1508" result="shape"/>
</filter>
</defs>
</svg>
