<svg width="208" height="235" viewBox="0 0 208 235" fill="none" xmlns="http://www.w3.org/2000/svg">
<g filter="url(#filter0_d_1400_1287)">
<rect x="20" y="10" width="168" height="195" rx="8" fill="white"/>
<path d="M39.2546 29.0909V40H36.9482V29.0909H39.2546ZM42.7788 35.2699V40H40.5096V31.8182H42.6723V33.2617H42.7682C42.9493 32.7859 43.2529 32.4094 43.679 32.1325C44.1052 31.8519 44.6219 31.7116 45.2291 31.7116C45.7973 31.7116 46.2927 31.8359 46.7153 32.0845C47.1378 32.3331 47.4663 32.6882 47.7007 33.1499C47.9351 33.608 48.0523 34.1548 48.0523 34.7905V40H45.7831V35.1953C45.7866 34.6946 45.6588 34.304 45.3996 34.0234C45.1403 33.7393 44.7834 33.5973 44.3289 33.5973C44.0235 33.5973 43.7536 33.663 43.5192 33.7944C43.2884 33.9258 43.1073 34.1175 42.9759 34.3697C42.8481 34.6183 42.7824 34.9183 42.7788 35.2699ZM56.5756 31.8182L53.7151 40H51.1583L48.2979 31.8182H50.6949L52.3941 37.6722H52.4793L54.1732 31.8182H56.5756ZM60.5699 40.1598C59.7424 40.1598 59.0269 39.984 58.4232 39.6325C57.823 39.2773 57.3596 38.7837 57.0329 38.1516C56.7062 37.516 56.5429 36.7791 56.5429 35.9411C56.5429 35.0959 56.7062 34.3572 57.0329 33.7251C57.3596 33.0895 57.823 32.5959 58.4232 32.2443C59.0269 31.8892 59.7424 31.7116 60.5699 31.7116C61.3973 31.7116 62.111 31.8892 62.7112 32.2443C63.3149 32.5959 63.7801 33.0895 64.1068 33.7251C64.4335 34.3572 64.5968 35.0959 64.5968 35.9411C64.5968 36.7791 64.4335 37.516 64.1068 38.1516C63.7801 38.7837 63.3149 39.2773 62.7112 39.6325C62.111 39.984 61.3973 40.1598 60.5699 40.1598ZM60.5805 38.402C60.9569 38.402 61.2712 38.2955 61.5233 38.0824C61.7755 37.8658 61.9654 37.571 62.0933 37.1982C62.2247 36.8253 62.2904 36.4009 62.2904 35.9251C62.2904 35.4492 62.2247 35.0249 62.0933 34.652C61.9654 34.2791 61.7755 33.9844 61.5233 33.7678C61.2712 33.5511 60.9569 33.4428 60.5805 33.4428C60.2005 33.4428 59.8809 33.5511 59.6217 33.7678C59.366 33.9844 59.1725 34.2791 59.0411 34.652C58.9132 35.0249 58.8493 35.4492 58.8493 35.9251C58.8493 36.4009 58.9132 36.8253 59.0411 37.1982C59.1725 37.571 59.366 37.8658 59.6217 38.0824C59.8809 38.2955 60.2005 38.402 60.5805 38.402ZM65.4723 40V31.8182H67.7415V40H65.4723ZM66.6123 30.7635C66.2749 30.7635 65.9855 30.6516 65.744 30.4279C65.5061 30.2006 65.3871 29.929 65.3871 29.6129C65.3871 29.3004 65.5061 29.0323 65.744 28.8086C65.9855 28.5813 66.2749 28.4677 66.6123 28.4677C66.9496 28.4677 67.2373 28.5813 67.4752 28.8086C67.7167 29.0323 67.8374 29.3004 67.8374 29.6129C67.8374 29.929 67.7167 30.2006 67.4752 30.4279C67.2373 30.6516 66.9496 30.7635 66.6123 30.7635ZM72.656 40.1598C71.8179 40.1598 71.097 39.9822 70.4933 39.6271C69.8932 39.2685 69.4316 38.7713 69.1084 38.1357C68.7888 37.5 68.629 36.7685 68.629 35.9411C68.629 35.103 68.7906 34.3679 69.1137 33.7358C69.4404 33.1001 69.9039 32.6048 70.504 32.2496C71.1041 31.891 71.8179 31.7116 72.6453 31.7116C73.3591 31.7116 73.9841 31.8413 74.5203 32.1005C75.0566 32.3597 75.4809 32.7237 75.7934 33.1925C76.1059 33.6612 76.2781 34.2116 76.3101 34.8438H74.1688C74.1084 34.4354 73.9486 34.1069 73.6894 33.8583C73.4337 33.6062 73.0981 33.4801 72.6826 33.4801C72.3311 33.4801 72.0239 33.576 71.7611 33.7678C71.5019 33.956 71.2994 34.2312 71.1539 34.5934C71.0083 34.9556 70.9355 35.3942 70.9355 35.9091C70.9355 36.4311 71.0065 36.875 71.1485 37.2408C71.2941 37.6065 71.4983 37.8853 71.7611 38.0771C72.0239 38.2688 72.3311 38.3647 72.6826 38.3647C72.9419 38.3647 73.1744 38.3114 73.3804 38.2049C73.5899 38.0984 73.7622 37.9439 73.8971 37.7415C74.0356 37.5355 74.1262 37.2887 74.1688 37.0011H76.3101C76.2746 37.6261 76.1041 38.1765 75.7987 38.6523C75.4969 39.1246 75.0796 39.494 74.547 39.7603C74.0143 40.0266 73.384 40.1598 72.656 40.1598ZM80.8917 40.1598C80.05 40.1598 79.3256 39.9893 78.7184 39.6484C78.1147 39.304 77.6495 38.8175 77.3228 38.1889C76.9961 37.5568 76.8327 36.8093 76.8327 35.9464C76.8327 35.1048 76.9961 34.3661 77.3228 33.7305C77.6495 33.0948 78.1093 32.5994 78.7024 32.2443C79.299 31.8892 79.9985 31.7116 80.8011 31.7116C81.3409 31.7116 81.8434 31.7987 82.3086 31.9727C82.7773 32.1431 83.1857 32.4006 83.5337 32.745C83.8853 33.0895 84.1587 33.5227 84.354 34.0447C84.5493 34.5632 84.647 35.1705 84.647 35.8665V36.4897H77.7382V35.0835H82.511C82.511 34.7567 82.44 34.4673 82.2979 34.2152C82.1559 33.9631 81.9588 33.766 81.7066 33.6239C81.4581 33.4783 81.1686 33.4055 80.8384 33.4055C80.4939 33.4055 80.1885 33.4854 79.9222 33.6452C79.6594 33.8015 79.4534 34.0128 79.3043 34.2791C79.1552 34.5419 79.0788 34.8349 79.0753 35.158V36.495C79.0753 36.8999 79.1498 37.2496 79.299 37.5444C79.4517 37.8391 79.6665 38.0664 79.9435 38.2262C80.2205 38.386 80.549 38.4659 80.9289 38.4659C81.1811 38.4659 81.4119 38.4304 81.6214 38.3594C81.8309 38.2884 82.0103 38.1818 82.1594 38.0398C82.3086 37.8977 82.4222 37.7237 82.5003 37.5178L84.599 37.6562C84.4925 38.1605 84.2741 38.6009 83.9439 38.9773C83.6172 39.3501 83.1946 39.6413 82.6761 39.8509C82.1612 40.0568 81.5664 40.1598 80.8917 40.1598Z" fill="#8B3DFF"/>
<rect x="36" y="48" width="50" height="2" rx="1" fill="#E2E8F0"/>
<rect x="36" y="52" width="38" height="2" rx="1" fill="#E2E8F0"/>
<rect x="36" y="56" width="31" height="2" rx="1" fill="#E2E8F0"/>
<rect x="36" y="60" width="23" height="2" rx="1" fill="#E2E8F0"/>
<rect x="117" y="48" width="50" height="2" rx="1" fill="#E2E8F0"/>
<rect x="117" y="52" width="38" height="2" rx="1" fill="#E2E8F0"/>
<rect x="117" y="56" width="31" height="2" rx="1" fill="#E2E8F0"/>
<rect x="117" y="60" width="23" height="2" rx="1" fill="#E2E8F0"/>
<rect x="36" y="78" width="131" height="12" rx="2" fill="#64748B"/>
<rect x="41" y="82" width="25" height="4" rx="2" fill="#94A3B8"/>
<rect x="106" y="82" width="14" height="4" rx="2" fill="#94A3B8"/>
<rect x="126" y="82" width="14" height="4" rx="2" fill="#94A3B8"/>
<rect x="147" y="82" width="14" height="4" rx="2" fill="#94A3B8"/>
<rect x="42.5" y="94" width="34" height="2" rx="1" fill="#CBD5E1"/>
<rect x="97.5" y="94" width="7" height="2" rx="1" fill="#CBD5E1"/>
<rect x="125.5" y="94" width="5" height="2" rx="1" fill="#CBD5E1"/>
<rect x="151.5" y="94" width="9" height="2" rx="1" fill="#CBD5E1"/>
<rect x="36" y="100" width="131" height="1" rx="0.5" fill="#CBD5E1"/>
<rect x="42.5" y="107" width="34" height="2" rx="1" fill="#CBD5E1"/>
<rect x="97.5" y="107" width="7" height="2" rx="1" fill="#CBD5E1"/>
<rect x="125.5" y="107" width="5" height="2" rx="1" fill="#CBD5E1"/>
<rect x="151.5" y="107" width="9" height="2" rx="1" fill="#CBD5E1"/>
<rect x="36" y="113" width="131" height="1" rx="0.5" fill="#CBD5E1"/>
<rect x="42.5" y="120" width="34" height="2" rx="1" fill="#CBD5E1"/>
<rect x="97.5" y="120" width="7" height="2" rx="1" fill="#CBD5E1"/>
<rect x="125.5" y="120" width="5" height="2" rx="1" fill="#CBD5E1"/>
<rect x="151.5" y="120" width="9" height="2" rx="1" fill="#CBD5E1"/>
<rect x="36" y="126" width="131" height="1" rx="0.5" fill="#CBD5E1"/>
<rect x="42.5" y="133" width="34" height="2" rx="1" fill="#CBD5E1"/>
<rect x="97.5" y="133" width="7" height="2" rx="1" fill="#CBD5E1"/>
<rect x="125.5" y="133" width="5" height="2" rx="1" fill="#CBD5E1"/>
<rect x="151.5" y="133" width="9" height="2" rx="1" fill="#CBD5E1"/>
<rect x="36" y="139" width="131" height="1" rx="0.5" fill="#CBD5E1"/>
<rect x="101" y="144" width="66" height="9" rx="2" fill="#8B3DFF"/>
<path d="M109.142 147.598V147.091H111.531V147.598H110.641V150H110.033V147.598H109.142ZM112.423 150.043C112.202 150.043 112.011 149.996 111.85 149.902C111.69 149.807 111.567 149.676 111.48 149.507C111.392 149.338 111.349 149.141 111.349 148.918C111.349 148.692 111.392 148.495 111.48 148.327C111.567 148.157 111.69 148.026 111.85 147.932C112.011 147.837 112.202 147.79 112.423 147.79C112.643 147.79 112.834 147.837 112.994 147.932C113.155 148.026 113.279 148.157 113.366 148.327C113.453 148.495 113.497 148.692 113.497 148.918C113.497 149.141 113.453 149.338 113.366 149.507C113.279 149.676 113.155 149.807 112.994 149.902C112.834 149.996 112.643 150.043 112.423 150.043ZM112.426 149.574C112.526 149.574 112.61 149.545 112.677 149.489C112.744 149.431 112.795 149.352 112.829 149.253C112.864 149.153 112.882 149.04 112.882 148.913C112.882 148.786 112.864 148.673 112.829 148.574C112.795 148.474 112.744 148.396 112.677 148.338C112.61 148.28 112.526 148.251 112.426 148.251C112.324 148.251 112.239 148.28 112.17 148.338C112.102 148.396 112.05 148.474 112.015 148.574C111.981 148.673 111.964 148.786 111.964 148.913C111.964 149.04 111.981 149.153 112.015 149.253C112.05 149.352 112.102 149.431 112.17 149.489C112.239 149.545 112.324 149.574 112.426 149.574ZM114.891 147.818V148.273H113.577V147.818H114.891ZM113.875 147.295H114.48V149.33C114.48 149.385 114.489 149.429 114.506 149.46C114.523 149.491 114.546 149.512 114.577 149.524C114.608 149.536 114.644 149.543 114.685 149.543C114.713 149.543 114.741 149.54 114.77 149.536C114.798 149.53 114.82 149.526 114.835 149.523L114.93 149.973C114.9 149.982 114.857 149.993 114.803 150.006C114.748 150.019 114.681 150.027 114.602 150.03C114.456 150.036 114.329 150.016 114.219 149.972C114.11 149.927 114.025 149.858 113.964 149.764C113.904 149.67 113.874 149.552 113.875 149.409V147.295ZM115.747 150.041C115.608 150.041 115.484 150.017 115.375 149.969C115.266 149.92 115.18 149.847 115.116 149.751C115.054 149.655 115.022 149.535 115.022 149.391C115.022 149.269 115.045 149.168 115.089 149.085C115.134 149.003 115.194 148.937 115.271 148.886C115.348 148.836 115.435 148.798 115.532 148.773C115.631 148.747 115.734 148.729 115.842 148.719C115.969 148.705 116.071 148.693 116.149 148.682C116.227 148.67 116.283 148.652 116.318 148.628C116.353 148.604 116.37 148.569 116.37 148.523V148.514C116.37 148.424 116.342 148.355 116.285 148.305C116.229 148.256 116.15 148.232 116.047 148.232C115.938 148.232 115.851 148.256 115.787 148.304C115.722 148.351 115.68 148.411 115.659 148.483L115.099 148.438C115.128 148.305 115.183 148.19 115.267 148.094C115.35 147.996 115.458 147.921 115.589 147.869C115.722 147.816 115.875 147.79 116.049 147.79C116.171 147.79 116.287 147.804 116.397 147.832C116.509 147.861 116.608 147.905 116.694 147.964C116.781 148.024 116.85 148.101 116.9 148.195C116.951 148.287 116.976 148.399 116.976 148.528V150H116.402V149.697H116.385C116.35 149.766 116.303 149.826 116.244 149.878C116.185 149.929 116.115 149.969 116.032 149.999C115.95 150.027 115.855 150.041 115.747 150.041ZM115.92 149.624C116.009 149.624 116.088 149.606 116.156 149.571C116.224 149.535 116.278 149.487 116.317 149.426C116.355 149.366 116.375 149.297 116.375 149.22V148.989C116.356 149.001 116.33 149.012 116.297 149.023C116.264 149.032 116.228 149.041 116.187 149.05C116.147 149.057 116.106 149.064 116.065 149.071C116.024 149.077 115.987 149.082 115.954 149.087C115.883 149.097 115.821 149.114 115.768 149.136C115.715 149.159 115.674 149.19 115.645 149.229C115.615 149.267 115.601 149.314 115.601 149.371C115.601 149.453 115.63 149.516 115.69 149.56C115.751 149.602 115.827 149.624 115.92 149.624ZM117.89 147.091V150H117.285V147.091H117.89Z" fill="white"/>
<path d="M152.213 150.364V146.727H152.446V150.364H152.213ZM152.831 147.928C152.82 147.813 152.771 147.724 152.685 147.661C152.598 147.597 152.482 147.565 152.334 147.565C152.233 147.565 152.149 147.58 152.08 147.608C152.01 147.635 151.957 147.674 151.92 147.723C151.884 147.772 151.866 147.828 151.866 147.891C151.865 147.943 151.875 147.988 151.899 148.027C151.924 148.066 151.957 148.099 152 148.128C152.043 148.155 152.092 148.179 152.148 148.2C152.204 148.22 152.263 148.237 152.327 148.251L152.588 148.314C152.715 148.342 152.831 148.38 152.938 148.428C153.044 148.475 153.135 148.533 153.213 148.602C153.291 148.671 153.351 148.753 153.393 148.847C153.437 148.94 153.459 149.048 153.46 149.169C153.459 149.347 153.414 149.501 153.324 149.632C153.235 149.762 153.106 149.863 152.938 149.935C152.77 150.006 152.568 150.041 152.331 150.041C152.096 150.041 151.892 150.005 151.717 149.933C151.544 149.861 151.409 149.755 151.311 149.614C151.214 149.472 151.164 149.296 151.159 149.087H151.754C151.761 149.184 151.789 149.266 151.838 149.331C151.888 149.395 151.955 149.444 152.038 149.477C152.123 149.509 152.218 149.526 152.324 149.526C152.428 149.526 152.518 149.51 152.595 149.48C152.673 149.45 152.733 149.408 152.776 149.354C152.818 149.3 152.839 149.238 152.839 149.168C152.839 149.102 152.82 149.047 152.781 149.003C152.743 148.958 152.688 148.92 152.614 148.889C152.541 148.858 152.451 148.83 152.345 148.804L152.028 148.724C151.783 148.665 151.589 148.571 151.447 148.445C151.305 148.318 151.235 148.147 151.236 147.932C151.235 147.756 151.282 147.602 151.376 147.47C151.472 147.339 151.603 147.236 151.77 147.162C151.937 147.088 152.126 147.051 152.338 147.051C152.554 147.051 152.742 147.088 152.903 147.162C153.065 147.236 153.191 147.339 153.281 147.47C153.371 147.602 153.418 147.754 153.42 147.928H152.831ZM154.674 150.364V146.727H154.907V150.364H154.674ZM155.292 147.928C155.281 147.813 155.232 147.724 155.146 147.661C155.06 147.597 154.943 147.565 154.795 147.565C154.695 147.565 154.61 147.58 154.541 147.608C154.472 147.635 154.418 147.674 154.382 147.723C154.346 147.772 154.328 147.828 154.328 147.891C154.326 147.943 154.337 147.988 154.36 148.027C154.385 148.066 154.418 148.099 154.461 148.128C154.504 148.155 154.553 148.179 154.609 148.2C154.665 148.22 154.724 148.237 154.788 148.251L155.049 148.314C155.176 148.342 155.293 148.38 155.399 148.428C155.505 148.475 155.597 148.533 155.674 148.602C155.752 148.671 155.812 148.753 155.855 148.847C155.898 148.94 155.92 149.048 155.921 149.169C155.92 149.347 155.875 149.501 155.785 149.632C155.696 149.762 155.567 149.863 155.399 149.935C155.231 150.006 155.029 150.041 154.792 150.041C154.557 150.041 154.353 150.005 154.178 149.933C154.005 149.861 153.87 149.755 153.772 149.614C153.676 149.472 153.625 149.296 153.62 149.087H154.215C154.222 149.184 154.25 149.266 154.299 149.331C154.349 149.395 154.416 149.444 154.499 149.477C154.584 149.509 154.679 149.526 154.785 149.526C154.889 149.526 154.98 149.51 155.056 149.48C155.134 149.45 155.194 149.408 155.237 149.354C155.279 149.3 155.301 149.238 155.301 149.168C155.301 149.102 155.281 149.047 155.242 149.003C155.204 148.958 155.149 148.92 155.075 148.889C155.002 148.858 154.912 148.83 154.806 148.804L154.49 148.724C154.244 148.665 154.051 148.571 153.909 148.445C153.766 148.318 153.696 148.147 153.697 147.932C153.696 147.756 153.743 147.602 153.838 147.47C153.933 147.339 154.064 147.236 154.231 147.162C154.398 147.088 154.587 147.051 154.799 147.051C155.015 147.051 155.204 147.088 155.365 147.162C155.526 147.236 155.652 147.339 155.742 147.47C155.832 147.602 155.879 147.754 155.882 147.928H155.292ZM157.135 150.364V146.727H157.368V150.364H157.135ZM157.753 147.928C157.742 147.813 157.693 147.724 157.607 147.661C157.521 147.597 157.404 147.565 157.256 147.565C157.156 147.565 157.071 147.58 157.002 147.608C156.933 147.635 156.88 147.674 156.843 147.723C156.807 147.772 156.789 147.828 156.789 147.891C156.787 147.943 156.798 147.988 156.821 148.027C156.846 148.066 156.88 148.099 156.922 148.128C156.965 148.155 157.014 148.179 157.07 148.2C157.126 148.22 157.185 148.237 157.249 148.251L157.51 148.314C157.637 148.342 157.754 148.38 157.86 148.428C157.966 148.475 158.058 148.533 158.135 148.602C158.213 148.671 158.273 148.753 158.316 148.847C158.359 148.94 158.381 149.048 158.382 149.169C158.381 149.347 158.336 149.501 158.246 149.632C158.157 149.762 158.028 149.863 157.86 149.935C157.692 150.006 157.49 150.041 157.253 150.041C157.018 150.041 156.814 150.005 156.64 149.933C156.466 149.861 156.331 149.755 156.233 149.614C156.137 149.472 156.086 149.296 156.081 149.087H156.676C156.683 149.184 156.711 149.266 156.76 149.331C156.81 149.395 156.877 149.444 156.961 149.477C157.045 149.509 157.14 149.526 157.246 149.526C157.35 149.526 157.441 149.51 157.517 149.48C157.595 149.45 157.655 149.408 157.698 149.354C157.74 149.3 157.762 149.238 157.762 149.168C157.762 149.102 157.742 149.047 157.703 149.003C157.666 148.958 157.61 148.92 157.536 148.889C157.463 148.858 157.373 148.83 157.267 148.804L156.951 148.724C156.705 148.665 156.512 148.571 156.37 148.445C156.228 148.318 156.157 148.147 156.158 147.932C156.157 147.756 156.204 147.602 156.299 147.47C156.394 147.339 156.525 147.236 156.692 147.162C156.859 147.088 157.048 147.051 157.26 147.051C157.476 147.051 157.665 147.088 157.826 147.162C157.988 147.236 158.113 147.339 158.203 147.47C158.293 147.602 158.34 147.754 158.343 147.928H157.753Z" fill="white"/>
<rect x="36" y="169" width="50" height="2" rx="1" fill="#E2E8F0"/>
<rect x="36" y="173" width="38" height="2" rx="1" fill="#E2E8F0"/>
<rect x="36" y="177" width="31" height="2" rx="1" fill="#E2E8F0"/>
<rect x="36" y="181" width="23" height="2" rx="1" fill="#E2E8F0"/>
</g>
<defs>
<filter id="filter0_d_1400_1287" x="0" y="0" width="208" height="235" filterUnits="userSpaceOnUse" color-interpolation-filters="sRGB">
<feFlood flood-opacity="0" result="BackgroundImageFix"/>
<feColorMatrix in="SourceAlpha" type="matrix" values="0 0 0 0 0 0 0 0 0 0 0 0 0 0 0 0 0 0 127 0" result="hardAlpha"/>
<feOffset dy="10"/>
<feGaussianBlur stdDeviation="10"/>
<feColorMatrix type="matrix" values="0 0 0 0 0.247135 0 0 0 0 0.247135 0 0 0 0 0.304167 0 0 0 0.35 0"/>
<feBlend mode="normal" in2="BackgroundImageFix" result="effect1_dropShadow_1400_1287"/>
<feBlend mode="normal" in="SourceGraphic" in2="effect1_dropShadow_1400_1287" result="shape"/>
</filter>
</defs>
</svg>
