<svg width="40" height="40" viewBox="0 0 40 40" fill="none" xmlns="http://www.w3.org/2000/svg">
<g clip-path="url(#clip0_1556_1117)">
<path d="M18.807 5.3935C19.5724 4.95543 20.5692 4.95346 21.3339 5.3935C25.1808 7.56724 29.029 9.73757 32.8753 11.9126C33.5988 12.3201 34.0827 13.1253 34.0753 13.9588V27.0369C34.0807 27.905 33.549 28.7294 32.7857 29.1276C28.9514 31.2894 25.1191 33.4538 21.2854 35.6155C20.5042 36.0622 19.4874 36.0278 18.7306 35.5445C17.5811 34.8781 16.4296 34.215 15.28 33.5493C15.045 33.4093 14.7802 33.2978 14.6143 33.07C14.761 32.8724 15.0232 32.8477 15.2362 32.7614C15.7161 32.6089 16.1568 32.3639 16.5976 32.1263C16.709 32.05 16.8451 32.0792 16.952 32.1475C17.935 32.7111 18.9093 33.2911 19.8956 33.8493C20.106 33.9708 20.319 33.8095 20.4988 33.7093C24.2615 31.5827 28.0288 29.4641 31.7908 27.3369C31.9302 27.2698 32.0072 27.1219 31.9959 26.9692C31.9985 22.655 31.9966 18.3401 31.9972 14.0259C32.0131 13.8527 31.9129 13.6934 31.7562 13.6225C27.9352 11.4706 24.1162 9.31544 20.2958 7.16303C20.2296 7.11753 20.1512 7.09311 20.0709 7.09299C19.9906 7.09287 19.9121 7.11706 19.8458 7.16237C16.0254 9.31544 12.207 11.4726 8.38664 13.6243C8.23054 13.6953 8.12578 13.852 8.14436 14.0259C8.14502 18.3401 8.14436 22.655 8.14436 26.9698C8.13773 27.0443 8.15409 27.1191 8.19124 27.184C8.22839 27.2489 8.28454 27.3009 8.35212 27.3329C9.3716 27.911 10.3924 28.4851 11.4125 29.0612C11.9873 29.3706 12.6929 29.5544 13.3261 29.3174C13.8849 29.117 14.2765 28.5468 14.2659 27.9535C14.2711 23.6645 14.2632 19.3748 14.2698 15.0865C14.2559 14.8961 14.4365 14.7388 14.6216 14.7567C15.1114 14.7534 15.6019 14.7501 16.0918 14.758C16.2963 14.7534 16.437 14.9584 16.4117 15.1503C16.4097 19.4664 16.417 23.7827 16.4084 28.0988C16.4097 29.2491 15.9371 30.5008 14.8731 31.0636C13.5623 31.7426 11.9422 31.5986 10.6472 30.9475C9.52616 30.388 8.45634 29.7276 7.35518 29.1282C6.58996 28.7321 6.06087 27.9044 6.06626 27.037V13.9588C6.05823 13.108 6.56138 12.2883 7.30736 11.8867C11.141 9.72317 14.974 7.55801 18.807 5.3935Z" fill="#8CC84B"/>
<path d="M22.1515 14.4528C23.8235 14.3452 25.6135 14.389 27.1181 15.2127C28.283 15.8439 28.9288 17.1687 28.9494 18.4629C28.9168 18.6375 28.7344 18.7338 28.5677 18.7218C28.0826 18.7211 27.5974 18.7284 27.1123 18.7185C26.9065 18.7264 26.7869 18.5367 26.761 18.3547C26.6216 17.7355 26.2839 17.1222 25.7011 16.8235C24.8064 16.3756 23.769 16.3981 22.7934 16.4074C22.0811 16.4452 21.3153 16.5069 20.7119 16.9257C20.2486 17.243 20.1079 17.8835 20.2732 18.3992C20.4291 18.7696 20.8566 18.8891 21.2064 18.9992C23.2214 19.5262 25.3567 19.4738 27.3332 20.1673C28.1515 20.4501 28.952 20.9997 29.2321 21.8565C29.5985 23.0048 29.4379 24.3774 28.6209 25.2993C27.9584 26.0579 26.9934 26.4708 26.031 26.695C24.7506 26.9805 23.4219 26.9878 22.1217 26.861C20.8991 26.7216 19.6267 26.4004 18.6829 25.5674C17.8758 24.8666 17.4816 23.7747 17.5207 22.7208C17.5301 22.5428 17.7073 22.4187 17.8778 22.4333C18.3663 22.4293 18.8548 22.428 19.3433 22.434C19.5385 22.42 19.6831 22.5886 19.6931 22.7725C19.7833 23.3625 20.005 23.9818 20.5195 24.3316C21.5124 24.9721 22.7582 24.9283 23.8951 24.9462C24.8369 24.9044 25.8942 24.8918 26.6629 24.2692C27.0684 23.9142 27.1885 23.3201 27.0789 22.809C26.9602 22.3776 26.5088 22.1765 26.1212 22.045C24.1321 21.4158 21.973 21.6441 20.003 20.9326C19.2033 20.6499 18.4299 20.1156 18.1227 19.294C17.694 18.1311 17.8904 16.6928 18.793 15.8021C19.6731 14.916 20.9436 14.5749 22.1515 14.4528Z" fill="#8CC84B"/>
</g>
<defs>
<clipPath id="clip0_1556_1117">
<rect width="28.148" height="31" fill="white" transform="translate(6 5)"/>
</clipPath>
</defs>
</svg>
