<svg width="152" height="56" viewBox="0 0 152 56" fill="none" xmlns="http://www.w3.org/2000/svg">
<g clip-path="url(#clip0_2035_878)">
<path d="M50.3653 29.7633L49.65 31.79H49.5904C49.4712 31.333 49.2526 30.6376 48.8949 29.8031L45.0601 20.1662H41.3047V35.5255H43.7884V26.0477C43.7884 25.4516 43.7884 24.776 43.7685 23.9415C43.7487 23.5242 43.7089 23.2063 43.6891 22.9679H43.7487C43.8679 23.5639 44.007 24.0011 44.1063 24.2793L48.7161 35.4858H50.4646L55.0347 24.1799C55.134 23.9216 55.2334 23.405 55.3327 22.9679H55.3924C55.3327 24.1004 55.293 25.1138 55.2731 25.7297V35.4659H57.9158V20.1265H54.2995L50.3653 29.7633ZM60.4194 24.4581H63.0025V35.4659H60.4194V24.4581ZM61.7308 19.8086C61.2937 19.8086 60.936 19.9675 60.638 20.2457C60.3399 20.5239 60.181 20.8815 60.181 21.3187C60.181 21.7359 60.3399 22.0936 60.638 22.3718C60.936 22.6499 61.2937 22.789 61.7308 22.789C62.1679 22.789 62.5455 22.6301 62.8236 22.3718C63.1217 22.0936 63.2807 21.7359 63.2807 21.3187C63.2807 20.9014 63.1217 20.5437 62.8236 20.2457C62.5653 19.9675 62.1878 19.8086 61.7308 19.8086ZM72.1624 24.3587C71.6856 24.2594 71.1888 24.1998 70.7119 24.1998C69.5396 24.1998 68.4667 24.4581 67.5725 24.9747C66.6784 25.4913 65.9631 26.2066 65.5061 27.1008C65.0292 28.0148 64.7908 29.0679 64.7908 30.2799C64.7908 31.333 65.0292 32.2669 65.4862 33.1213C65.9432 33.9558 66.579 34.6314 67.4334 35.0884C68.2481 35.5454 69.2018 35.7839 70.2748 35.7839C71.5067 35.7839 72.5598 35.5255 73.3944 35.0487L73.4142 35.0288V32.6444L73.3149 32.7239C72.9374 33.0021 72.5002 33.2405 72.0631 33.3796C71.6061 33.5386 71.1888 33.618 70.8312 33.618C69.7979 33.618 68.9833 33.32 68.4071 32.6643C67.811 32.0285 67.5129 31.1542 67.5129 30.0614C67.5129 28.9288 67.811 28.0346 68.4269 27.3789C69.0429 26.7232 69.8575 26.3855 70.851 26.3855C71.6856 26.3855 72.54 26.6636 73.3149 27.22L73.4142 27.2995V24.776L73.3944 24.7561C73.0566 24.617 72.6791 24.4581 72.1624 24.3587ZM80.6866 24.2793C80.0507 24.2793 79.4546 24.478 78.938 24.8952C78.5009 25.2529 78.2028 25.7695 77.9445 26.3855H77.9247V24.4581H75.3416V35.4659H77.9247V29.8428C77.9247 28.889 78.1234 28.0943 78.5605 27.518C78.9976 26.9219 79.554 26.6239 80.2296 26.6239C80.468 26.6239 80.7064 26.6835 81.0045 26.7232C81.2827 26.8027 81.4814 26.8822 81.6204 26.9815L81.7198 27.061V24.478L81.6602 24.4581C81.4814 24.3389 81.1237 24.2793 80.6866 24.2793ZM87.7205 24.2196C85.9123 24.2196 84.4618 24.7561 83.4485 25.8092C82.4152 26.8623 81.9185 28.3128 81.9185 30.1408C81.9185 31.8496 82.4351 33.2405 83.4286 34.2539C84.4221 35.2474 85.7732 35.764 87.4622 35.764C89.2306 35.764 90.6413 35.2275 91.6547 34.1545C92.6879 33.0816 93.1847 31.6509 93.1847 29.8825C93.1847 28.134 92.7078 26.7431 91.7342 25.7297C90.8003 24.7164 89.4293 24.2196 87.7205 24.2196ZM89.7869 32.6842C89.31 33.3001 88.555 33.5982 87.6211 33.5982C86.6872 33.5982 85.9322 33.3001 85.3957 32.6444C84.8592 32.0285 84.6009 31.1343 84.6009 30.0017C84.6009 28.8294 84.8791 27.9353 85.3957 27.2995C85.9322 26.6636 86.6674 26.3457 87.6012 26.3457C88.5153 26.3457 89.2306 26.6438 89.7472 27.2597C90.2638 27.8757 90.542 28.7698 90.542 29.9421C90.5022 31.1343 90.2837 32.0682 89.7869 32.6842ZM98.9469 29.0281C98.1322 28.6903 97.6156 28.432 97.3772 28.2135C97.1785 28.0148 97.0791 27.7366 97.0791 27.3789C97.0791 27.0809 97.1983 26.7828 97.4964 26.5841C97.7944 26.3855 98.1322 26.2861 98.629 26.2861C99.0661 26.2861 99.5231 26.3656 99.9602 26.4848C100.397 26.604 100.795 26.7828 101.113 27.0213L101.212 27.1008V24.6767L101.152 24.6568C100.854 24.5376 100.457 24.4183 99.9801 24.319C99.5032 24.2395 99.0661 24.1998 98.7084 24.1998C97.4765 24.1998 96.4632 24.4978 95.6684 25.1535C94.8736 25.7695 94.4961 26.604 94.4961 27.5776C94.4961 28.0943 94.5755 28.5513 94.7544 28.9288C94.9332 29.3063 95.1915 29.664 95.5492 29.962C95.9068 30.2402 96.4234 30.5581 97.1387 30.8561C97.7348 31.1145 98.1918 31.3132 98.47 31.4721C98.7482 31.6311 98.927 31.8099 99.0661 31.949C99.1655 32.1079 99.2251 32.3066 99.2251 32.5649C99.2251 33.3001 98.6687 33.6578 97.5361 33.6578C97.099 33.6578 96.642 33.5783 96.1055 33.3995C95.569 33.2207 95.0723 32.9623 94.655 32.6643L94.5557 32.5848V35.1083L94.6153 35.1282C94.9928 35.307 95.4498 35.4262 96.0062 35.5653C96.5625 35.6646 97.0593 35.7441 97.4964 35.7441C98.8277 35.7441 99.9205 35.4461 100.695 34.7904C101.49 34.1545 101.907 33.3399 101.907 32.2868C101.907 31.5516 101.709 30.8959 101.272 30.3991C100.695 29.9223 99.9801 29.4255 98.9469 29.0281ZM108.723 24.2196C106.915 24.2196 105.464 24.7561 104.451 25.8092C103.437 26.8623 102.921 28.3128 102.921 30.1408C102.921 31.8496 103.437 33.2405 104.431 34.2539C105.424 35.2474 106.776 35.764 108.465 35.764C110.233 35.764 111.644 35.2275 112.657 34.1545C113.69 33.0816 114.187 31.6509 114.187 29.8825C114.187 28.134 113.71 26.7431 112.736 25.7297C111.803 24.7164 110.432 24.2196 108.723 24.2196ZM110.769 32.6842C110.293 33.3001 109.537 33.5982 108.604 33.5982C107.65 33.5982 106.915 33.3001 106.378 32.6444C105.842 32.0285 105.583 31.1343 105.583 30.0017C105.583 28.8294 105.862 27.9353 106.378 27.2995C106.915 26.6636 107.65 26.3457 108.584 26.3457C109.478 26.3457 110.213 26.6438 110.73 27.2597C111.246 27.8757 111.524 28.7698 111.524 29.9421C111.524 31.1343 111.266 32.0682 110.769 32.6842ZM127.996 26.5841V24.4581H125.394V21.1994L125.314 21.2193L122.85 21.9545L122.791 21.9744V24.4581H118.896V23.0672C118.896 22.4314 119.055 21.9346 119.333 21.6167C119.611 21.2988 120.029 21.1398 120.545 21.1398C120.903 21.1398 121.281 21.2193 121.698 21.3981L121.797 21.4577V19.2125L121.738 19.1926C121.38 19.0734 120.903 18.9939 120.287 18.9939C119.512 18.9939 118.837 19.1727 118.221 19.4708C117.605 19.8086 117.148 20.2656 116.81 20.8815C116.472 21.4776 116.293 22.1532 116.293 22.9281V24.4581H114.485V26.5643H116.293V35.4659H118.896V26.5841H122.791V32.247C122.791 34.5718 123.883 35.7441 126.069 35.7441C126.427 35.7441 126.804 35.6845 127.162 35.6249C127.539 35.5454 127.818 35.4461 127.977 35.3666L127.996 35.3467V33.2207L127.897 33.3001C127.738 33.3995 127.599 33.479 127.361 33.5386C127.162 33.5982 126.983 33.618 126.844 33.618C126.327 33.618 125.97 33.4988 125.711 33.2008C125.473 32.9226 125.354 32.4656 125.354 31.79V26.5841H127.996Z" fill="#737373"/>
<path d="M8.00391 15H20.1841V27.1802H8.00391V15Z" fill="#F25022"/>
<path d="M21.4551 15H33.6352V27.1802H21.4551V15Z" fill="#7FBA00"/>
<path d="M8.00391 28.4519H20.1841V40.6321H8.00391V28.4519Z" fill="#00A4EF"/>
<path d="M21.4551 28.4519H33.6352V40.6321H21.4551V28.4519Z" fill="#FFB900"/>
</g>
<defs>
<clipPath id="clip0_2035_878">
<rect width="120" height="25.632" fill="white" transform="translate(8 15)"/>
</clipPath>
</defs>
</svg>
