<svg width="152" height="56" viewBox="0 0 152 56" fill="none" xmlns="http://www.w3.org/2000/svg">
<g clip-path="url(#clip0_2035_879)">
<path d="M21.8019 23.3029V21.0957C22.0199 21.082 22.2379 21.0684 22.4559 21.0684C28.5053 20.8777 32.4701 26.2731 32.4701 26.2731C32.4701 26.2731 28.1919 32.2135 23.6004 32.2135C22.9873 32.2135 22.3878 32.1181 21.8155 31.9274V25.224C24.1726 25.5101 24.6495 26.5456 26.0528 28.9027L29.2002 26.2595C29.2002 26.2595 26.8976 23.2484 23.0281 23.2484C22.6194 23.2348 22.2106 23.262 21.8019 23.3029ZM21.8019 16V19.2972L22.4559 19.2563C30.8624 18.9702 36.3532 26.1505 36.3532 26.1505C36.3532 26.1505 30.0585 33.8076 23.505 33.8076C22.9328 33.8076 22.3741 33.7531 21.8155 33.6577V35.7014C22.2788 35.7559 22.7556 35.7968 23.2189 35.7968C29.3228 35.7968 33.7372 32.6767 38.0154 28.998C38.7239 29.5703 41.626 30.9464 42.2254 31.5459C38.1653 34.9521 28.696 37.6906 23.3279 37.6906C22.8101 37.6906 22.3196 37.6634 21.8292 37.6089V40.4837H45.0185V16H21.8019ZM21.8019 31.9274V33.6713C16.1612 32.6631 14.5944 26.7908 14.5944 26.7908C14.5944 26.7908 17.3057 23.7934 21.8019 23.3029V25.2104H21.7883C19.4312 24.9242 17.5782 27.1314 17.5782 27.1314C17.5782 27.1314 18.6273 30.851 21.8019 31.9274ZM11.7877 26.5456C11.7877 26.5456 15.1258 21.6134 21.8155 21.0957V19.2972C14.4036 19.8967 8 26.1641 8 26.1641C8 26.1641 11.6242 36.6552 21.8019 37.6089V35.7014C14.3355 34.7749 11.7877 26.5456 11.7877 26.5456Z" fill="#76B900"/>
<path d="M86.5172 20.2169V36.2942H91.0543V20.2169H86.5172ZM50.8203 20.1897V36.2806H55.3982V23.7866L58.9679 23.8003C60.1397 23.8003 60.9571 24.0864 61.5158 24.6859C62.2379 25.4489 62.524 26.6887 62.524 28.9368V36.2806H66.9657V27.3972C66.9657 21.0481 62.9191 20.1897 58.9679 20.1897H50.8203ZM93.8337 20.2169V36.2942H101.191C105.115 36.2942 106.396 35.6402 107.772 34.1823C108.753 33.1605 109.38 30.8988 109.38 28.4327C109.38 26.171 108.848 24.1545 107.908 22.901C106.246 20.6529 103.821 20.2169 100.197 20.2169H93.8337ZM98.3299 23.7049H100.278C103.112 23.7049 104.938 24.972 104.938 28.2692C104.938 31.5664 103.112 32.8471 100.278 32.8471H98.3299V23.7049ZM79.9773 20.2169L76.1896 32.9561L72.5655 20.2169H67.6605L72.838 36.2942H79.3778L84.6098 20.2169H79.9773ZM111.505 36.2942H116.042V20.2169H111.505V36.2942ZM124.231 20.2169L117.895 36.2806H122.364L123.372 33.433H130.866L131.82 36.2669H136.684L130.294 20.2169H124.231ZM127.174 23.1463L129.926 30.6672H124.34L127.174 23.1463Z" fill="black"/>
</g>
<defs>
<clipPath id="clip0_2035_879">
<rect width="139" height="24.4837" fill="white" transform="translate(8 16)"/>
</clipPath>
</defs>
</svg>
