<svg width="152" height="56" viewBox="0 0 152 56" fill="none" xmlns="http://www.w3.org/2000/svg">
<g clip-path="url(#clip0_2109_839)">
<path d="M121.581 27.4695L128 44.4642C126.108 44.194 124.217 43.8555 122.292 43.5506L118.676 34.1605L114.96 42.7755C113.136 42.4706 111.345 42.3691 109.521 42.1323L116.041 27.2675L110.128 12.0317H115.601L118.911 20.5442L122.459 12.0317H127.999L121.581 27.4695ZM105.805 12.0317H100.839V41.4912C102.461 41.5929 104.149 41.6598 105.805 41.862V12.0317ZM96.5482 41.1529C92.0218 40.849 87.4941 40.5799 82.866 40.4772V12.0319H87.9331V35.6804C90.839 35.7474 93.7438 35.9832 96.5482 36.1182V41.1529ZM77.4595 23.5528V28.6198H70.5342V40.1398H65.5353V12.0317H79.7244V17.0987H70.5352V23.5529H77.4605L77.4595 23.5528ZM57.0206 17.0987V40.4101C55.3309 40.4101 53.6088 40.4101 51.9525 40.4772V17.0987H46.7159V12.0317H62.2897V17.0987H57.0206ZM41.2435 28.8891C39.0142 28.8891 36.3785 28.8891 34.4866 28.9918V36.5247C37.4596 36.3215 40.4325 36.0857 43.4389 35.9842V40.849L29.4196 41.9647V12.0317H43.438V17.0987H34.4865V23.9236C36.4465 23.9236 39.453 23.822 41.2432 23.822V28.8901L41.2435 28.8891ZM13.1676 26.0512V43.7539C11.3449 43.9571 9.7222 44.1938 8 44.4642V12.0317H12.8314L19.4186 30.4448V12.0317H24.4866V42.3691C22.6963 42.674 20.8715 42.7755 18.9461 43.0448L13.1676 26.0512Z" fill="#E50914"/>
</g>
<defs>
<clipPath id="clip0_2109_839">
<rect width="120" height="32.496" fill="white" transform="translate(8 12)"/>
</clipPath>
</defs>
</svg>
