<svg width="32" height="32" viewBox="0 0 32 32" fill="none" xmlns="http://www.w3.org/2000/svg">
<path d="M18.9993 28.0001C18.9993 28.2653 18.894 28.5197 18.7064 28.7072C18.5189 28.8947 18.2645 29.0001 17.9993 29.0001H13.9993C13.7341 29.0001 13.4797 28.8947 13.2922 28.7072C13.1047 28.5197 12.9993 28.2653 12.9993 28.0001C12.9993 27.7349 13.1047 27.4805 13.2922 27.293C13.4797 27.1054 13.7341 27.0001 13.9993 27.0001H17.9993C18.2645 27.0001 18.5189 27.1054 18.7064 27.293C18.894 27.4805 18.9993 27.7349 18.9993 28.0001ZM15.9993 14.0001C16.296 14.0001 16.586 13.9121 16.8327 13.7473C17.0793 13.5825 17.2716 13.3482 17.3851 13.0741C17.4987 12.8 17.5284 12.4984 17.4705 12.2075C17.4126 11.9165 17.2698 11.6492 17.06 11.4394C16.8502 11.2297 16.5829 11.0868 16.292 11.0289C16.001 10.971 15.6994 11.0007 15.4253 11.1143C15.1512 11.2278 14.9169 11.4201 14.7521 11.6667C14.5873 11.9134 14.4993 12.2034 14.4993 12.5001C14.4993 12.8979 14.6574 13.2795 14.9387 13.5608C15.22 13.8421 15.6015 14.0001 15.9993 14.0001ZM27.9518 19.4788L26.4068 26.4326C26.3335 26.7628 26.1777 27.069 25.9538 27.3226C25.73 27.5763 25.4455 27.7689 25.127 27.8827C24.8084 27.9965 24.4662 28.0276 24.1324 27.9731C23.7985 27.9187 23.484 27.7804 23.2181 27.5713L19.8131 25.0001H12.1881L8.78056 27.5713C8.51467 27.7804 8.2001 27.9187 7.86626 27.9731C7.53241 28.0276 7.19022 27.9965 6.87167 27.8827C6.55312 27.7689 6.26862 27.5763 6.04479 27.3226C5.82096 27.069 5.66511 26.7628 5.59181 26.4326L4.04681 19.4788C3.98128 19.1804 3.98459 18.871 4.0565 18.5741C4.1284 18.2771 4.26702 18.0005 4.46181 17.7651L8.03182 13.4826C8.15164 11.9088 8.51295 10.3628 9.10307 8.89884C10.7156 4.85634 13.6031 2.32009 14.7743 1.41759C15.1249 1.14595 15.5558 0.998535 15.9993 0.998535C16.4428 0.998535 16.8737 1.14595 17.2243 1.41759C18.3918 2.32009 21.2831 4.85634 22.8956 8.89884C23.4857 10.3628 23.847 11.9088 23.9668 13.4826L27.5368 17.7651C27.7316 18.0005 27.8702 18.2771 27.9421 18.5741C28.014 18.871 28.0174 19.1804 27.9518 19.4788ZM12.4281 23.0001H19.5706C22.2106 18.3076 22.7043 13.8151 21.0381 9.64009C19.5681 5.95509 16.8106 3.62509 15.9993 3.00009C15.1856 3.62509 12.4281 5.95509 10.9581 9.64009C9.29431 13.8151 9.78807 18.3076 12.4281 23.0001ZM10.5531 23.7313C9.20723 21.2855 8.39057 18.8818 8.10307 16.5201L5.99931 19.0451L7.54431 26.0001L7.56681 25.9838L10.5531 23.7313ZM25.9993 19.0451L23.8956 16.5201C23.6106 18.8768 22.7956 21.2805 21.4506 23.7313L24.4318 25.9813L24.4543 25.9976L25.9993 19.0451Z" fill="#8B3DFF"/>
</svg>
