<svg width="152" height="56" viewBox="0 0 152 56" fill="none" xmlns="http://www.w3.org/2000/svg">
<g clip-path="url(#clip0_2109_829)">
<path d="M125.994 38.3105C125.47 38.3155 124.969 38.5278 124.602 38.901C124.234 39.2741 124.029 39.7778 124.031 40.3017C124.034 40.8257 124.244 41.3273 124.615 41.6969C124.986 42.0665 125.489 42.274 126.013 42.274C126.537 42.274 127.04 42.0665 127.411 41.6969C127.782 41.3273 127.992 40.8257 127.995 40.3017C127.997 39.7778 127.792 39.2741 127.424 38.901C127.057 38.5278 126.556 38.3155 126.032 38.3105H125.994ZM125.994 42.0471C125.65 42.0528 125.313 41.9565 125.024 41.7703C124.735 41.5842 124.508 41.3165 124.371 41.0012C124.234 40.6859 124.194 40.3371 124.255 39.999C124.317 39.6608 124.477 39.3484 124.716 39.1014C124.955 38.8544 125.262 38.6837 125.598 38.6111C125.934 38.5384 126.283 38.567 126.603 38.6932C126.923 38.8194 127.198 39.0376 127.394 39.3202C127.589 39.6027 127.697 39.937 127.703 40.2806V40.3098C127.712 40.7606 127.542 41.1968 127.23 41.5224C126.918 41.848 126.49 42.0364 126.039 42.0462H125.994M118.387 37.7691H114.08V31.0252C114.08 29.4171 114.052 27.3469 111.841 27.3469C109.598 27.3469 109.255 29.099 109.255 30.9081V37.7686H104.948V23.9005H109.082V25.7957H109.14C109.554 25.0884 110.152 24.5064 110.87 24.112C111.588 23.7175 112.4 23.5252 113.219 23.5556C117.584 23.5556 118.388 26.4264 118.388 30.1613L118.387 37.7691ZM100.089 22.0049C99.595 22.005 99.1118 21.8585 98.7008 21.584C98.2898 21.3094 97.9695 20.9192 97.7802 20.4626C97.591 20.006 97.5414 19.5035 97.6378 19.0188C97.7341 18.534 97.972 18.0887 98.3215 17.7391C98.6709 17.3896 99.1161 17.1515 99.6009 17.055C100.086 16.9585 100.588 17.0079 101.045 17.1969C101.501 17.386 101.892 17.7062 102.166 18.1171C102.441 18.528 102.588 19.0112 102.588 19.5054C102.588 19.8336 102.523 20.1586 102.398 20.4618C102.272 20.765 102.088 21.0405 101.856 21.2726C101.624 21.5047 101.349 21.6888 101.046 21.8145C100.742 21.9401 100.417 22.0048 100.089 22.0049ZM102.242 37.7691H97.9316V23.9005H102.242V37.7691ZM120.533 13.0078H95.7677C95.2056 13.0015 94.664 13.2186 94.2618 13.6114C93.8597 14.0042 93.63 14.5406 93.6231 15.1027V39.9711C93.6297 40.5335 93.8593 41.0702 94.2615 41.4634C94.6636 41.8567 95.2053 42.0742 95.7677 42.0682H120.533C121.097 42.0752 121.64 41.8584 122.044 41.4652C122.448 41.072 122.679 40.5346 122.687 39.9711V15.1009C122.679 14.5377 122.447 14.0007 122.044 13.6079C121.64 13.2151 121.097 12.9986 120.533 13.006M81.9024 27.2478C79.7492 27.2478 78.4573 28.6855 78.4573 30.7803C78.4573 32.8751 79.7488 34.3141 81.9024 34.3141C84.0559 34.3141 85.3505 32.8787 85.3505 30.7803C85.3505 28.6819 84.0582 27.2478 81.9024 27.2478ZM89.315 37.761H85.3505V35.9218H85.2918C84.7944 36.5908 84.1493 37.1359 83.4067 37.5147C82.6641 37.8934 81.8441 38.0956 81.0106 38.1055C76.873 38.1055 74.1474 35.1193 74.1474 30.8965C74.1474 27.0181 76.5594 23.4569 80.5243 23.4569C82.3065 23.4569 83.9712 23.9445 84.9477 25.296H85.0042V17.302H89.3146L89.315 37.761ZM68.6183 29.2166C68.6266 28.8672 68.5638 28.5198 68.4338 28.1954C68.3038 27.871 68.1094 27.5764 67.8622 27.3293C67.615 27.0823 67.3202 26.888 66.9957 26.7583C66.6712 26.6285 66.3238 26.566 65.9744 26.5745C65.222 26.5277 64.4813 26.7784 63.9121 27.2726C63.3428 27.7669 62.9906 28.465 62.9313 29.2166H68.6183ZM72.2661 35.362C71.5505 36.2298 70.6509 36.9275 69.6324 37.4047C68.6139 37.8819 67.502 38.1267 66.3773 38.1212C62.071 38.1212 58.6232 35.2467 58.6232 30.7955C58.6232 26.3444 62.0705 23.4712 66.3773 23.4712C70.4023 23.4712 72.9264 26.3421 72.9264 30.7955V32.1457H62.9313C63.0558 32.9115 63.4527 33.6065 64.0491 34.1026C64.6455 34.5988 65.4011 34.8627 66.1767 34.8457C66.7897 34.8419 67.3919 34.6849 67.9287 34.3889C68.4654 34.0929 68.9196 33.6673 69.2499 33.151L72.2661 35.362ZM29.457 23.8969H33.5924V25.7922H33.6512C34.0642 25.0845 34.6617 24.5023 35.3799 24.1077C36.0981 23.7132 36.9099 23.5211 37.7287 23.552C42.0956 23.552 42.8994 26.4251 42.8994 30.1577V37.7628H38.5931V31.0203C38.5931 29.4108 38.5635 27.342 36.3502 27.342C34.1119 27.342 33.7665 29.0946 33.7665 30.9032V37.761H29.4602L29.457 23.8969ZM45.0831 17.3034H49.3894V29.5337L54.2698 23.8893H59.5495L53.8975 30.3097L59.4307 37.7695H54.0182L49.4468 30.9144H49.3903V37.7686H45.084L45.0831 17.3034ZM22.763 23.8956H27.0693V37.7637H22.763V23.8956ZM24.9161 17.001C25.4102 17.0011 25.8931 17.1477 26.3039 17.4223C26.7146 17.6968 27.0347 18.087 27.2238 18.5435C27.4128 18.9999 27.4622 19.5022 27.3657 19.9868C27.2693 20.4713 27.0313 20.9164 26.6819 21.2657C26.3326 21.615 25.8874 21.8529 25.4029 21.9493C24.9183 22.0456 24.416 21.9961 23.9596 21.807C23.5031 21.6179 23.113 21.2978 22.8385 20.887C22.5641 20.4762 22.4176 19.9932 22.4176 19.4991C22.4176 19.171 22.4822 18.8462 22.6078 18.543C22.7333 18.2399 22.9174 17.9645 23.1494 17.7326C23.3814 17.5006 23.6569 17.3166 23.96 17.1911C24.2631 17.0655 24.588 17.001 24.9161 17.001ZM8 17.3065H12.4826V33.6346H20.7812V37.7713H8V17.3065ZM126.308 40.4179C126.382 40.4186 126.455 40.4042 126.523 40.3755C126.591 40.3468 126.652 40.3045 126.703 40.2511C126.754 40.1977 126.794 40.1344 126.819 40.0652C126.844 39.996 126.855 39.9223 126.851 39.8486C126.851 39.4449 126.608 39.252 126.108 39.252H125.3V41.3657H125.604V40.4443H125.977L125.986 40.4556L126.565 41.3657H126.89L126.267 40.4237L126.308 40.4179ZM125.957 40.2061H125.605V39.4916H126.051C126.282 39.4916 126.545 39.5292 126.545 39.8311C126.545 40.1783 126.279 40.2061 125.955 40.2061" fill="#0A66C2"/>
</g>
<defs>
<clipPath id="clip0_2109_829">
<rect width="120" height="29.28" fill="white" transform="translate(8 13)"/>
</clipPath>
</defs>
</svg>
