<svg width="152" height="56" viewBox="0 0 152 56" fill="none" xmlns="http://www.w3.org/2000/svg">
<path d="M34.9395 18.8546V30.0245C34.9395 30.2055 34.8676 30.3792 34.7395 30.5072C34.6115 30.6352 34.4379 30.7071 34.2568 30.7071H30.7308C30.5498 30.7071 30.3762 30.6351 30.2481 30.5071C30.1201 30.3791 30.0482 30.2055 30.0481 30.0245V11.8562C30.0481 11.6751 30.12 11.5015 30.2481 11.3735C30.3761 11.2454 30.5497 11.1735 30.7308 11.1735H33.9937C34.1748 11.1735 34.3484 11.2454 34.4765 11.3735C34.6045 11.5015 34.6764 11.6751 34.6764 11.8562V14.4148C34.6764 14.4148 35.8428 10.7651 39.3044 10.7651C39.3044 10.7651 42.7284 10.3512 44.1205 14.1514C44.1205 14.1514 45.2869 10.7651 48.8238 10.7651C48.8238 10.7651 54.0836 10.4523 54.0836 15.8948L54.1236 18.8923V30.0621C54.1236 30.2431 54.0517 30.4168 53.9237 30.5448C53.7957 30.6728 53.622 30.7448 53.441 30.7448H49.9146C49.7336 30.7447 49.56 30.6727 49.432 30.5447C49.304 30.4167 49.232 30.2431 49.232 30.0621L49.1997 17.8764C49.3 15.117 47.0677 15.3178 47.0677 15.3178C44.2584 15.3681 44.5287 18.8923 44.5287 18.8923V30.0621C44.5287 30.2431 44.4568 30.4168 44.3288 30.5448C44.2007 30.6728 44.0271 30.7448 43.846 30.7448H40.32C40.139 30.7447 39.9654 30.6727 39.8374 30.5447C39.7094 30.4167 39.6374 30.2431 39.6373 30.0621V18.1521C39.6373 18.1521 39.8435 15.2925 37.3349 15.2925C37.3352 15.2925 34.8519 14.9665 34.9395 18.8546ZM125.83 18.8212V29.9907C125.83 30.1718 125.758 30.3454 125.63 30.4734C125.502 30.6014 125.329 30.6734 125.148 30.6734L121.481 30.7445C121.3 30.7444 121.126 30.6724 120.998 30.5444C120.87 30.4164 120.798 30.2428 120.798 30.0618V18.1521C120.798 18.1521 121.004 15.2925 118.496 15.2925C118.496 15.2925 116.1 15.1745 116.1 19.658V30.0242C116.1 30.2052 116.028 30.3788 115.9 30.5068C115.772 30.6348 115.598 30.7068 115.417 30.7068H111.891C111.71 30.7068 111.536 30.6348 111.408 30.5068C111.28 30.3788 111.208 30.2052 111.208 30.0242V11.8562C111.208 11.6752 111.28 11.5016 111.408 11.3736C111.536 11.2455 111.71 11.1736 111.891 11.1735H115.154C115.335 11.1735 115.509 11.2454 115.637 11.3735C115.765 11.5015 115.837 11.6751 115.837 11.8562V14.4148C115.837 14.4148 117.003 10.7651 120.465 10.7651C120.465 10.7651 124.173 10.2025 125.422 14.0807C125.422 14.0804 125.83 14.8804 125.83 18.8212ZM100.371 10.6898C95.862 10.6898 92.2063 14.49 92.2063 20.8865C92.2063 26.518 95.0283 31.0831 100.371 31.0831C105.413 31.0831 108.536 26.518 108.536 20.8865C108.536 14.6029 104.881 10.6898 100.371 10.6898ZM103.217 21.1122C103.217 23.5203 102.916 24.7996 102.916 24.7996C102.488 27.3452 100.64 27.3488 100.368 27.3352C100.073 27.347 98.2099 27.3205 97.8243 24.7996C97.8243 24.7996 97.5233 23.5203 97.5233 21.1122V20.711C97.5233 18.3029 97.8243 17.0236 97.8243 17.0236C98.2099 14.5027 100.074 14.4762 100.368 14.4876C100.64 14.4741 102.488 14.4774 102.916 17.0236C102.916 17.0236 103.217 18.3029 103.217 20.711V21.1122ZM90.1597 14.3895V11.7828C90.1597 11.6017 90.0877 11.4281 89.9597 11.3001C89.8317 11.1721 89.6581 11.1002 89.4771 11.1001H77.822C77.641 11.1001 77.4673 11.172 77.3393 11.3C77.2113 11.4281 77.1393 11.6017 77.1393 11.7828V14.3693C77.1394 14.5504 77.2114 14.724 77.3394 14.852C77.4674 14.98 77.641 15.0519 77.822 15.052H83.9015L76.7056 25.491C76.7056 25.491 76.422 25.9142 76.4314 26.3817V29.557C76.4314 29.557 76.3844 30.6457 77.6191 30.0139C77.6191 30.0139 79.8123 28.6889 83.4897 28.6889C83.4897 28.6889 87.1214 28.6437 89.5427 30.128C89.5427 30.128 90.5477 30.5849 90.5477 29.5802V26.8163C90.5477 26.8163 90.639 26.0849 89.6796 25.6282C89.6796 25.6282 86.8929 24.0979 83.2384 24.3489L90.1597 14.3895ZM27.3267 27.4581L26.2229 25.7778C25.8716 25.1505 25.8969 24.448 25.8969 24.448V16.6973C26.0474 9.99989 18.6224 10.5769 18.6224 10.5769C12.0219 10.5769 11.047 15.7136 11.047 15.7136C10.7718 16.7464 11.5719 16.7714 11.5719 16.7714L14.7972 17.0986C14.7972 17.0986 15.3472 17.2244 15.5473 16.5697C15.5473 16.5697 15.9721 14.3287 18.3473 14.3287C20.9318 14.3287 20.905 16.5468 20.905 16.5468V18.4037C15.7457 18.5762 13.3548 20.0084 13.3548 20.0084C10.1692 21.8145 10.3697 25.4016 10.3697 25.4016C10.3697 31.2459 15.9383 30.9949 15.9383 30.9949C19.5002 30.9949 21.6072 28.3864 21.6072 28.3864C22.2342 29.4905 23.3883 30.5434 23.3883 30.5434C23.9656 31.1695 24.5673 30.6439 24.5673 30.6439L27.1762 28.4117C27.7529 27.9848 27.3267 27.4581 27.3267 27.4581ZM17.6767 27.3858C16.0013 27.3858 15.3785 25.7209 15.6566 24.0847C15.935 22.4484 17.3811 21.1625 20.9053 21.2001V22.1949C21.0302 26.5409 19.0712 27.3858 17.6767 27.3858ZM74.1834 27.4581L73.0799 25.7778C72.7287 25.1505 72.7536 24.448 72.7536 24.448V16.6973C72.9041 9.99989 65.4792 10.5769 65.4792 10.5769C58.8787 10.5769 57.9037 15.7136 57.9037 15.7136C57.6286 16.7464 58.4287 16.7714 58.4287 16.7714L61.654 17.0986C61.654 17.0986 62.2039 17.2244 62.4041 16.5697C62.4041 16.5697 62.8288 14.3287 65.2041 14.3287C67.7885 14.3287 67.7617 16.5468 67.7617 16.5468V18.4037C62.6027 18.5762 60.2115 20.0084 60.2115 20.0084C57.026 21.8145 57.2264 25.4016 57.2264 25.4016C57.2264 31.2459 62.7951 30.9949 62.7951 30.9949C66.3569 30.9949 68.464 28.3864 68.464 28.3864C69.0913 29.4905 70.2447 30.5434 70.2447 30.5434C70.8221 31.1695 71.4241 30.6439 71.4241 30.6439L74.0326 28.4117C74.6097 27.9848 74.1834 27.4581 74.1834 27.4581ZM64.5334 27.3858C62.858 27.3858 62.2352 25.7209 62.5133 24.0847C62.7918 22.4484 64.2378 21.1625 67.7617 21.2001V22.1949C67.8869 26.5409 65.9283 27.3858 64.5334 27.3858Z" fill="black"/>
<path d="M83.0619 42.1286C83.0619 42.1286 82.7669 42.6419 83.1294 42.7565C83.1294 42.7565 83.5387 42.9164 84.0492 42.4426C84.0492 42.4426 87.7724 39.1902 87.8621 33.2688C87.8621 33.2688 87.8895 32.5292 87.5927 32.3269C87.5927 32.3269 86.4263 31.2951 82.2321 31.609C82.2321 31.609 78.576 31.8558 76.58 33.6279C76.58 33.6279 76.4006 33.7847 76.4006 33.9864C76.4006 33.9864 76.3576 34.4219 77.4548 34.2332C77.4548 34.2332 81.1105 33.717 83.2862 33.9864C83.2862 33.9864 84.408 34.1209 84.722 34.5026C84.722 34.5026 85.2379 34.9288 84.9685 36.3415C84.9685 36.3421 84.228 39.9307 83.0619 42.1286Z" fill="#F3971B"/>
<path d="M82.3254 36.4477C82.3254 36.4477 82.8714 37.1551 81.9904 37.7652C81.9904 37.7652 72.5788 45.2934 56.7758 45.2934C56.7758 45.2934 40.5088 46.0959 26.9258 33.7546C26.9258 33.7546 26.4496 33.3365 26.7452 32.9479C26.7452 32.9479 27.0094 32.5903 27.6936 32.9792C27.6936 32.9792 40.4711 40.9412 57.2523 40.9412C57.2523 40.9412 68.9164 41.3927 80.8815 36.2755C80.8815 36.2755 81.8348 35.7816 82.3254 36.4477Z" fill="#F3971B"/>
</svg>
