<svg width="152" height="56" viewBox="0 0 152 56" fill="none" xmlns="http://www.w3.org/2000/svg">
<g clip-path="url(#clip0_2035_886)">
<path d="M55.4086 29.7671L53.352 24.2231C53.268 23.9963 52.9473 23.9963 52.8632 24.2231L50.8069 29.7674C50.7923 29.8068 50.7874 29.8492 50.7927 29.8909C50.798 29.9326 50.8134 29.9724 50.8374 30.0069C50.8614 30.0413 50.8934 30.0695 50.9306 30.089C50.9679 30.1084 51.0093 30.1186 51.0513 30.1186H55.1642C55.2062 30.1186 55.2476 30.1084 55.2849 30.0889C55.3221 30.0694 55.3541 30.0412 55.3781 30.0067C55.4021 29.9722 55.4174 29.9324 55.4227 29.8907C55.428 29.849 55.4231 29.8067 55.4085 29.7672M56.3587 32.8833H49.857C49.8038 32.8833 49.7519 32.8996 49.7082 32.93C49.6645 32.9603 49.6312 33.0033 49.6127 33.0532L48.3327 36.5028C48.3142 36.5527 48.2808 36.5957 48.2372 36.6261C48.1935 36.6565 48.1416 36.6728 48.0884 36.6728H45.2703C45.2277 36.6728 45.1858 36.6623 45.1482 36.6423C45.1105 36.6223 45.0784 36.5934 45.0545 36.5582C45.0306 36.5229 45.0158 36.4823 45.0112 36.4399C45.0067 36.3976 45.0126 36.3547 45.0285 36.3152L51.5165 20.1526C51.5359 20.1043 51.5693 20.063 51.6125 20.0339C51.6556 20.0048 51.7065 19.9892 51.7585 19.9893H54.4568C54.5632 19.9893 54.6589 20.0539 54.6987 20.1526L61.1865 36.315C61.2024 36.3546 61.2084 36.3974 61.2039 36.4398C61.1994 36.4823 61.1846 36.5229 61.1607 36.5582C61.1368 36.5936 61.1046 36.6225 61.067 36.6425C61.0293 36.6625 60.9873 36.673 60.9447 36.6729H58.1271C58.0739 36.6729 58.022 36.6566 57.9783 36.6262C57.9346 36.5958 57.9013 36.5527 57.8828 36.5028L56.6027 33.0532C56.5841 33.0033 56.5508 32.9603 56.5071 32.93C56.4635 32.8996 56.4116 32.8833 56.3584 32.8833M62.5069 25.6615H64.9171C64.9862 25.6615 65.0525 25.689 65.1014 25.7379C65.1503 25.7867 65.1777 25.853 65.1777 25.9222V36.4121C65.1777 36.4813 65.1503 36.5476 65.1014 36.5964C65.0525 36.6453 64.9862 36.6728 64.9171 36.6728H62.5069C62.4377 36.6728 62.3714 36.6453 62.3226 36.5964C62.2737 36.5476 62.2462 36.4813 62.2462 36.4121V25.922C62.2462 25.8529 62.2737 25.7866 62.3226 25.7377C62.3714 25.6888 62.4377 25.6615 62.5069 25.6615ZM73.9681 28.2132C73.9681 28.2823 73.9406 28.3486 73.8918 28.3975C73.8429 28.4464 73.7766 28.4739 73.7075 28.4739H73.6345C72.4427 28.4739 71.5686 28.7598 71.0126 29.3318C70.4563 29.9038 70.1786 30.8494 70.1786 32.1681V36.4121C70.1786 36.4813 70.1512 36.5476 70.1023 36.5964C70.0534 36.6453 69.9871 36.6728 69.918 36.6728H67.5314C67.4622 36.6728 67.3959 36.6453 67.3471 36.5964C67.2982 36.5476 67.2707 36.4813 67.2707 36.4121V25.922C67.2707 25.8529 67.2982 25.7866 67.3471 25.7377C67.3959 25.6888 67.4622 25.6614 67.5314 25.6614H69.894C69.9631 25.6614 70.0294 25.6888 70.0783 25.7377C70.1272 25.7866 70.1546 25.8529 70.1546 25.922V27.9969H70.2024C70.4884 27.1389 70.9412 26.4799 71.5611 26.0188C72.1806 25.5582 72.9433 25.3276 73.8489 25.3276H73.9681V28.2132ZM80.5584 28.1163C80.4893 28.1163 80.423 28.1437 80.3741 28.1926C80.3253 28.2415 80.2978 28.3078 80.2978 28.3769V32.7401C80.2978 33.1851 80.3847 33.5029 80.5598 33.6935C80.7344 33.8841 81.0364 33.9795 81.4654 33.9795H81.7054C81.7745 33.9795 81.8408 34.0069 81.8897 34.0558C81.9385 34.1047 81.966 34.171 81.966 34.2401V36.4358C81.966 36.5049 81.9385 36.5712 81.8897 36.6201C81.8408 36.6689 81.7745 36.6964 81.7054 36.6964H80.6788C79.6143 36.6964 78.7961 36.4224 78.2241 35.8742C77.6519 35.326 77.366 34.512 77.366 33.4313V28.3769C77.366 28.3078 77.3385 28.2415 77.2896 28.1926C77.2407 28.1437 77.1744 28.1163 77.1053 28.1163H75.6008C75.5317 28.1163 75.4654 28.0888 75.4165 28.0399C75.3677 27.9911 75.3402 27.9248 75.3402 27.8556V25.922C75.3402 25.8529 75.3677 25.7866 75.4165 25.7377C75.4654 25.6888 75.5317 25.6614 75.6008 25.6614H77.1055C77.1746 25.6614 77.2409 25.6339 77.2898 25.585C77.3387 25.5361 77.3661 25.4699 77.3661 25.4007V21.5127C77.3661 21.4436 77.3936 21.3773 77.4425 21.3284C77.4913 21.2796 77.5576 21.2521 77.6268 21.2521H80.037C80.1061 21.2521 80.1724 21.2796 80.2213 21.3284C80.2702 21.3773 80.2976 21.4436 80.2976 21.5127V25.4007C80.2976 25.4699 80.3251 25.5361 80.374 25.585C80.4228 25.6339 80.4891 25.6614 80.5583 25.6614H82.3012C82.3703 25.6614 82.4366 25.6888 82.4854 25.7377C82.5343 25.7866 82.5618 25.8529 82.5618 25.922V27.8558C82.5618 27.9249 82.5343 27.9912 82.4854 28.0401C82.4366 28.089 82.3703 28.1164 82.3012 28.1164L80.5584 28.1163ZM91.5952 33.4075C92.1434 32.8355 92.4174 32.0887 92.4174 31.167C92.4174 30.2458 92.1434 29.4986 91.5952 28.9266C91.047 28.3547 90.3279 28.0687 89.4381 28.0687C88.5482 28.0687 87.8295 28.3547 87.2812 28.9266C86.7332 29.4986 86.459 30.2458 86.459 31.167C86.459 32.0887 86.7332 32.8355 87.2812 33.4075C87.8295 33.9795 88.5482 34.2655 89.4381 34.2655C90.3279 34.2655 91.047 33.9795 91.5952 33.4075ZM86.03 36.339C85.2196 35.8784 84.5799 35.2068 84.1115 34.3251C83.6425 33.4433 83.4083 32.3907 83.4083 31.167C83.4083 29.9438 83.6425 28.8909 84.1115 28.0091C84.5799 27.1273 85.2196 26.4563 86.03 25.9951C86.8404 25.5343 87.73 25.304 88.6993 25.304C89.5573 25.304 90.2921 25.4708 90.9042 25.8044C91.5155 26.138 92.004 26.6069 92.3698 27.2107H92.4174V25.922C92.4174 25.8529 92.4449 25.7866 92.4937 25.7377C92.5426 25.6888 92.6089 25.6614 92.678 25.6614H95.0645C95.1336 25.6614 95.1999 25.6888 95.2488 25.7377C95.2976 25.7866 95.3251 25.8529 95.3251 25.922V36.412C95.3251 36.4811 95.2976 36.5474 95.2488 36.5963C95.1999 36.6451 95.1336 36.6726 95.0645 36.6726H92.678C92.6089 36.6726 92.5426 36.6451 92.4937 36.5963C92.4449 36.5474 92.4174 36.4811 92.4174 36.412V35.1234H92.3698C92.004 35.7276 91.5155 36.196 90.904 36.5296C90.2921 36.8632 89.5575 37.03 88.6993 37.03C87.73 37.03 86.8404 36.7996 86.03 36.339ZM105.25 33.4075C105.798 32.8355 106.072 32.0887 106.072 31.167C106.072 30.2458 105.798 29.4986 105.25 28.9266C104.702 28.3547 103.983 28.0687 103.093 28.0687C102.203 28.0687 101.485 28.3547 100.936 28.9266C100.388 29.4986 100.114 30.2458 100.114 31.167C100.114 32.0887 100.388 32.8355 100.936 33.4075C101.485 33.9795 102.203 34.2655 103.093 34.2655C103.983 34.2655 104.702 33.9795 105.25 33.4075ZM101.628 36.5296C101.016 36.196 100.527 35.7276 100.162 35.1234H100.114V36.412C100.114 36.4811 100.087 36.5474 100.038 36.5963C99.9888 36.6451 99.9225 36.6726 99.8534 36.6726H97.4431C97.374 36.6726 97.3077 36.6451 97.2588 36.5963C97.2099 36.5474 97.1825 36.4811 97.1825 36.412V20.2494C97.1825 20.1803 97.2099 20.114 97.2588 20.0651C97.3077 20.0162 97.374 19.9888 97.4431 19.9888H99.8534C99.9225 19.9888 99.9888 20.0162 100.038 20.0651C100.087 20.114 100.114 20.1803 100.114 20.2494V27.2105H100.162C100.527 26.6067 101.016 26.138 101.628 25.8044C102.239 25.4706 102.974 25.3038 103.832 25.3038C104.801 25.3038 105.691 25.5342 106.502 25.995C107.312 26.4561 107.951 27.1271 108.42 28.0087C108.889 28.891 109.123 29.944 109.123 31.1672C109.123 32.3909 108.889 33.4433 108.42 34.3252C107.952 35.207 107.312 35.8786 106.502 36.339C105.691 36.7998 104.801 37.0303 103.832 37.0303C102.974 37.0303 102.239 36.8635 101.628 36.5298M113.184 36.6728H110.774C110.705 36.6728 110.639 36.6453 110.59 36.5964C110.541 36.5476 110.513 36.4813 110.513 36.4121V20.2499C110.513 20.1808 110.541 20.1145 110.59 20.0656C110.639 20.0167 110.705 19.9893 110.774 19.9893H113.184C113.253 19.9893 113.32 20.0167 113.369 20.0656C113.418 20.1145 113.445 20.1808 113.445 20.2499V36.4121C113.445 36.4813 113.418 36.5476 113.369 36.5964C113.32 36.6453 113.253 36.6728 113.184 36.6728ZM118.87 28.2118C118.47 28.5235 118.2 28.9736 118.061 29.5622C118.022 29.7245 118.149 29.8802 118.316 29.8802H122.903C123.062 29.8802 123.187 29.7377 123.161 29.5806C123.07 29.0238 122.831 28.5798 122.445 28.2476C121.992 27.8584 121.4 27.6638 120.669 27.6638C119.938 27.6638 119.338 27.8464 118.87 28.2118ZM124.745 26.8413C125.682 27.8664 126.151 29.3164 126.151 31.191V31.5023C126.151 31.5714 126.124 31.6377 126.075 31.6866C126.026 31.7355 125.959 31.7629 125.89 31.7629H118.227C118.189 31.763 118.151 31.7714 118.117 31.7876C118.082 31.8037 118.052 31.8272 118.027 31.8564C118.002 31.8857 117.985 31.9199 117.975 31.9567C117.965 31.9936 117.963 32.0322 117.969 32.0698C118.092 32.7662 118.4 33.3194 118.894 33.7293C119.457 34.1984 120.169 34.4324 121.027 34.4324C122.134 34.4324 123.16 34.0001 124.102 33.1354C124.218 33.0298 124.4 33.0522 124.49 33.1806L125.661 34.8625C125.698 34.9148 125.714 34.9788 125.707 35.0423C125.7 35.1058 125.669 35.1643 125.621 35.2068C125.046 35.7103 124.407 36.1351 123.72 36.4702C122.957 36.8434 122.059 37.0303 121.027 37.0303C119.835 37.0303 118.794 36.7878 117.904 36.3034C117.014 35.819 116.323 35.1358 115.831 34.2536C115.338 33.3719 115.092 32.3511 115.092 31.191C115.092 30.0313 115.33 29.0066 115.807 28.1164C116.284 27.2268 116.951 26.5357 117.809 26.0429C118.667 25.5507 119.668 25.3041 120.812 25.3041C122.496 25.3041 123.807 25.8167 124.745 26.8413ZM65.4926 21.7834C65.4926 22.7665 64.6956 23.5635 63.7123 23.5635C62.7289 23.5635 61.9319 22.7665 61.9319 21.7833C61.9319 20.8 62.7291 20.003 63.7123 20.003C64.6956 20.003 65.4926 20.8002 65.4926 21.7834Z" fill="#333333"/>
<path d="M21.7258 15.2883L10.2652 20.0304C9.62791 20.2942 9.63451 21.1996 10.2758 21.4538L21.7842 26.0175C22.7953 26.4185 23.9214 26.4185 24.9325 26.0175L36.441 21.4536C37.0821 21.1996 37.0891 20.2944 36.4514 20.0306L24.9912 15.2881C23.9457 14.8555 22.7712 14.8555 21.7256 15.2881" fill="#FCB400"/>
<path d="M24.3809 28.5094V39.9104C24.3809 40.4525 24.9277 40.8239 25.4317 40.6241L38.2555 35.6465C38.3985 35.5898 38.5212 35.4915 38.6076 35.3642C38.6941 35.2369 38.7403 35.0866 38.7403 34.9328V23.532C38.7403 22.9897 38.1935 22.6184 37.6894 22.8182L24.8656 27.7958C24.7226 27.8525 24.6 27.9509 24.5135 28.0782C24.4271 28.2054 24.3809 28.3556 24.3809 28.5094Z" fill="#18BFFF"/>
<path d="M21.3854 29.0978L17.5795 30.9354L17.1931 31.1222L9.15926 34.9716C8.65017 35.2173 8 34.8462 8 34.2804V23.5799C8 23.3752 8.10495 23.1985 8.24568 23.0656C8.30342 23.0081 8.36892 22.959 8.44028 22.9196C8.6321 22.8044 8.90593 22.7737 9.13876 22.8658L21.3214 27.6929C21.9407 27.9386 21.9893 28.8061 21.3854 29.0978Z" fill="#F82B60"/>
<path d="M21.3858 29.0978L17.5799 30.9354L8.24609 23.0654C8.30384 23.008 8.36934 22.9589 8.44069 22.9196C8.63251 22.8044 8.90634 22.7737 9.13917 22.8658L21.3218 27.6929C21.9411 27.9386 21.9897 28.8061 21.3858 29.0978Z" fill="black" fill-opacity="0.25"/>
</g>
<defs>
<clipPath id="clip0_2035_886">
<rect width="120" height="26.112" fill="white" transform="translate(8 15)"/>
</clipPath>
</defs>
</svg>
