<svg width="32" height="32" viewBox="0 0 32 32" fill="none" xmlns="http://www.w3.org/2000/svg">
<path d="M26.294 16.1699C26.1927 16.1112 26.0815 16.0549 25.9665 15.9999C26.0815 15.9449 26.1927 15.8887 26.294 15.8299C26.8672 15.504 27.3703 15.0679 27.7743 14.5468C28.1783 14.0256 28.4752 13.4297 28.648 12.7934C28.8208 12.157 28.866 11.4927 28.781 10.8388C28.696 10.1849 28.4825 9.55432 28.1528 8.98326C27.8231 8.41221 27.3837 7.91201 26.8599 7.51147C26.336 7.11093 25.7382 6.81795 25.1007 6.64941C24.4632 6.48086 23.7987 6.44008 23.1453 6.52941C22.492 6.61874 21.8628 6.83641 21.294 7.1699C21.1927 7.22865 21.0877 7.2949 20.984 7.36865C20.994 7.24365 21.0002 7.11865 21.0002 6.99365C21.0002 5.66757 20.4734 4.3958 19.5357 3.45812C18.5981 2.52044 17.3263 1.99365 16.0002 1.99365C14.6741 1.99365 13.4024 2.52044 12.4647 3.45812C11.527 4.3958 11.0002 5.66757 11.0002 6.99365C11.0002 7.11115 11.0002 7.23615 11.0165 7.36865C10.9127 7.2974 10.8077 7.22865 10.7065 7.1699C10.1376 6.83641 9.5084 6.61874 8.85508 6.52941C8.20176 6.44008 7.53722 6.48086 6.89973 6.64941C6.26223 6.81795 5.66437 7.11093 5.14056 7.51147C4.61675 7.91201 4.17735 8.41221 3.84764 8.98326C3.51793 9.55432 3.30444 10.1849 3.21944 10.8388C3.13445 11.4927 3.17964 12.157 3.35241 12.7934C3.52518 13.4297 3.82211 14.0256 4.22612 14.5468C4.63013 15.0679 5.13323 15.504 5.70646 15.8299C5.80771 15.8887 5.91896 15.9449 6.03396 15.9999C5.91896 16.0549 5.80771 16.1112 5.70646 16.1699C5.13323 16.4958 4.63013 16.9319 4.22612 17.453C3.82211 17.9742 3.52518 18.5701 3.35241 19.2064C3.17964 19.8428 3.13445 20.5071 3.21944 21.161C3.30444 21.8149 3.51793 22.4455 3.84764 23.0165C4.17735 23.5876 4.61675 24.0878 5.14056 24.4883C5.66437 24.8889 6.26223 25.1819 6.89973 25.3504C7.53722 25.5189 8.20176 25.5597 8.85508 25.4704C9.5084 25.3811 10.1376 25.1634 10.7065 24.8299C10.8077 24.7712 10.9127 24.7049 11.0165 24.6312C11.0065 24.7562 11.0002 24.8812 11.0002 24.9999C11.0002 26.326 11.527 27.5978 12.4647 28.5354C13.4024 29.4731 14.6741 29.9999 16.0002 29.9999C17.3263 29.9999 18.5981 29.4731 19.5357 28.5354C20.4734 27.5978 21.0002 26.326 21.0002 24.9999C21.0002 24.8824 20.994 24.7574 20.984 24.6312C21.0877 24.7024 21.1927 24.7712 21.294 24.8299C22.0514 25.2687 22.9111 25.4998 23.7865 25.4999C24.2263 25.4993 24.6641 25.4413 25.089 25.3274C26.0442 25.0714 26.902 24.5378 27.554 23.7943C28.206 23.0507 28.6228 22.1305 28.7518 21.15C28.8808 20.1695 28.7161 19.1728 28.2786 18.2859C27.8411 17.399 27.1505 16.6618 26.294 16.1674V16.1699ZM13.0002 15.9999C13.0002 15.4066 13.1762 14.8265 13.5058 14.3332C13.8354 13.8398 14.304 13.4553 14.8522 13.2283C15.4003 13.0012 16.0035 12.9418 16.5855 13.0575C17.1674 13.1733 17.702 13.459 18.1215 13.8786C18.5411 14.2981 18.8268 14.8327 18.9426 15.4146C19.0583 15.9966 18.9989 16.5998 18.7718 17.148C18.5448 17.6961 18.1603 18.1647 17.6669 18.4943C17.1736 18.824 16.5936 18.9999 16.0002 18.9999C15.2046 18.9999 14.4415 18.6838 13.8789 18.1212C13.3163 17.5586 13.0002 16.7956 13.0002 15.9999ZM22.294 8.90115C22.6351 8.70417 23.0118 8.57632 23.4024 8.5249C23.793 8.47348 24.1899 8.4995 24.5704 8.60147C24.951 8.70344 25.3077 8.87936 25.6203 9.1192C25.9328 9.35904 26.1951 9.65809 26.3921 9.99928C26.5891 10.3405 26.7169 10.7171 26.7683 11.1077C26.8198 11.4983 26.7937 11.8952 26.6918 12.2758C26.5898 12.6563 26.4139 13.0131 26.174 13.3256C25.9342 13.6382 25.6351 13.9004 25.294 14.0974C24.5102 14.5512 22.9677 14.8637 20.899 14.9962C20.6807 13.9378 20.1255 12.9787 19.3165 12.2624C20.4665 10.5349 21.5102 9.3549 22.294 8.90115ZM16.0002 3.9999C16.7959 3.9999 17.5589 4.31597 18.1215 4.87858C18.6841 5.44119 19.0002 6.20425 19.0002 6.9999C19.0002 7.9049 18.5002 9.39865 17.5802 11.2574C16.5548 10.9141 15.4456 10.9141 14.4202 11.2574C13.5002 9.39865 13.0002 7.9049 13.0002 6.9999C13.0002 6.20425 13.3163 5.44119 13.8789 4.87858C14.4415 4.31597 15.2046 3.9999 16.0002 3.9999ZM5.60771 9.9999C5.80463 9.65857 6.06688 9.35938 6.37946 9.11943C6.69204 8.87947 7.04884 8.70345 7.42946 8.60142C7.81009 8.49938 8.20708 8.47333 8.59778 8.52476C8.98847 8.57619 9.3652 8.70409 9.70646 8.90115C10.4902 9.3549 11.534 10.5349 12.684 12.2624C11.8742 12.9797 11.3189 13.9402 11.1015 14.9999C9.03271 14.8674 7.49021 14.5549 6.70646 14.1024C6.36463 13.9055 6.065 13.6431 5.82472 13.3302C5.58444 13.0173 5.40822 12.6601 5.30617 12.279C5.20411 11.898 5.17821 11.5005 5.22995 11.1094C5.28169 10.7184 5.41006 10.3413 5.60771 9.9999ZM9.70646 23.0987C9.01739 23.4965 8.19851 23.6043 7.42997 23.3983C6.66142 23.1924 6.00616 22.6896 5.60833 22.0005C5.21051 21.3115 5.10271 20.4926 5.30865 19.724C5.51458 18.9555 6.01739 18.3002 6.70646 17.9024C7.49021 17.4487 9.03271 17.1362 11.1015 17.0037C11.3197 18.062 11.8749 19.0211 12.684 19.7374C11.534 21.4649 10.4902 22.6449 9.70646 23.0987ZM16.0002 27.9999C15.2046 27.9999 14.4415 27.6838 13.8789 27.1212C13.3163 26.5586 13.0002 25.7956 13.0002 24.9999C13.0002 24.0949 13.5002 22.6012 14.4202 20.7424C15.4456 21.0857 16.5548 21.0857 17.5802 20.7424C18.5002 22.6012 19.0002 24.0949 19.0002 24.9999C19.0002 25.7956 18.6841 26.5586 18.1215 27.1212C17.5589 27.6838 16.7959 27.9999 16.0002 27.9999ZM26.3927 21.9999C26.1958 22.3412 25.9335 22.6404 25.621 22.8804C25.3084 23.1203 24.9516 23.2964 24.571 23.3984C24.1903 23.5004 23.7933 23.5265 23.4026 23.475C23.0119 23.4236 22.6352 23.2957 22.294 23.0987C21.5102 22.6449 20.4665 21.4649 19.3165 19.7374C20.1262 19.0201 20.6815 18.0596 20.899 16.9999C22.9677 17.1324 24.5102 17.4449 25.294 17.8974C25.6358 18.0943 25.9354 18.3567 26.1757 18.6696C26.416 18.9825 26.5922 19.3397 26.6942 19.7208C26.7963 20.1018 26.8222 20.4993 26.7705 20.8904C26.7187 21.2814 26.5904 21.6585 26.3927 21.9999Z" fill="#8B3DFF"/>
</svg>
