<svg fill="none" height="42" viewBox="0 0 172 42" width="172" xmlns="http://www.w3.org/2000/svg"><g fill="#1a1414"><path d="m56.0449 28.5742h10.8205v-3.2592h-6.9747v-12.2762h-3.8458z"/><path d="m73.2762 26.4014c-1.5427 0-2.3466-1.3471-2.3466-3.3678s.8039-3.3895 2.3466-3.3895 2.3683 1.3688 2.3683 3.3895-.8256 3.3678-2.3683 3.3678zm.0217 2.5205c3.5851 0 5.9317-2.5422 5.9317-5.8883s-2.3466-5.8882-5.9317-5.8882c-3.5634 0-5.9534 2.5421-5.9534 5.8882s2.39 5.8883 5.9534 5.8883z"/><path d="m85.4351 32.42c1.6513 0 3.1071-.3693 4.0848-1.2384.8909-.804 1.4775-2.0207 1.4775-3.6938v-10.0382h-3.3895v1.195h-.0435c-.6518-.9343-1.6513-1.5209-3.1288-1.5209-2.7594 0-4.6714 2.3031-4.6714 5.5623 0 3.4112 2.3248 5.2798 4.8235 5.2798 1.3472 0 2.1945-.5432 2.8464-1.2819h.0869v1.1081c0 1.3471-.6301 2.1293-2.1293 2.1293-1.1733 0-1.76-.4997-1.9555-1.0864h-3.433c.3476 2.3249 2.3683 3.5851 5.4319 3.5851zm-.0217-7.0832c-1.3254 0-2.1945-1.0864-2.1945-2.7595 0-1.6947.8691-2.7811 2.1945-2.7811 1.4775 0 2.2597 1.2602 2.2597 2.7594 0 1.5644-.717 2.7812-2.2597 2.7812z"/><path d="m97.9669 26.4014c-1.5427 0-2.3467-1.3471-2.3467-3.3678s.804-3.3895 2.3467-3.3895c1.5426 0 2.3681 1.3688 2.3681 3.3895s-.8255 3.3678-2.3681 3.3678zm.0217 2.5205c3.5854 0 5.9314-2.5422 5.9314-5.8883s-2.346-5.8882-5.9314-5.8882c-3.5634 0-5.9534 2.5421-5.9534 5.8882s2.39 5.8883 5.9534 5.8883z"/><path d="m104.954 28.5742h3.542v-11.1246h-3.542zm0-12.6673h3.542v-2.8681h-3.542z"/><path d="m110.033 32.2462h3.542v-4.8236h.043c.695.9343 1.717 1.4993 3.151 1.4993 2.911 0 4.845-2.3032 4.845-5.91 0-3.3461-1.804-5.8882-4.759-5.8882-1.52 0-2.607.6735-3.367 1.673h-.066v-1.3471h-3.389zm5.823-6.062c-1.521 0-2.39-1.2385-2.39-3.0419s.782-3.1723 2.325-3.1723c1.521 0 2.238 1.2602 2.238 3.1723 0 1.8903-.826 3.0419-2.173 3.0419z"/><path d="m127.38 28.9219c2.911 0 5.063-1.2603 5.063-3.6938 0-2.8463-2.304-3.3461-4.259-3.672-1.412-.2607-2.673-.3693-2.673-1.1515 0-.6953.674-1.0213 1.543-1.0213.978 0 1.651.3042 1.782 1.3037h3.259c-.174-2.1945-1.869-3.5633-5.019-3.5633-2.629 0-4.802 1.2167-4.802 3.5633 0 2.6074 2.064 3.1288 3.998 3.4547 1.477.2608 2.824.3694 2.824 1.3689 0 .717-.673 1.1081-1.738 1.1081-1.173 0-1.912-.5432-2.042-1.6513h-3.346c.108 2.4552 2.151 3.9545 5.41 3.9545z"/><path d="m137.254 28.9001c1.542 0 2.52-.6083 3.324-1.6947h.065v1.3688h3.39v-11.1246h-3.542v6.2141c0 1.3254-.739 2.238-1.956 2.238-1.129 0-1.673-.6736-1.673-1.8903v-6.5618h-3.519v7.3005c0 2.477 1.347 4.15 3.911 4.15z"/><path d="m145.573 28.5742h3.541v-6.2359c0-1.3254.652-2.2597 1.76-2.2597 1.065 0 1.564.6953 1.564 1.8904v6.6052h3.542v-6.2359c0-1.3254.63-2.2597 1.76-2.2597 1.065 0 1.564.6953 1.564 1.8904v6.6052h3.542v-7.2353c0-2.4987-1.26-4.2152-3.781-4.2152-1.434 0-2.629.6083-3.498 1.9555h-.043c-.565-1.1951-1.673-1.9555-3.129-1.9555-1.608 0-2.672.7604-3.368 1.912h-.065v-1.5861h-3.389z"/><path clip-rule="evenodd" d="m28.726 2.87085c10.1955 0 18.4607 8.26515 18.4607 18.46075 0 10.1957-8.2652 18.4608-18.4607 18.4608-10.1957 0-18.4609-8.2651-18.4609-18.4608 0-10.1956 8.2652-18.46075 18.4609-18.46075zm17.7521 18.46075c0-9.8042-7.9479-17.75222-17.7521-17.75222-.7909 0-1.5696.05171-2.3332.15194.4933-.04313.9925-.06515 1.497-.06515 9.3685 0 16.9632 7.59463 16.9632 16.96313 0 9.3684-7.5947 16.9631-16.9632 16.9631-8.8694 0-16.149-6.807-16.8993-15.482.4076 9.4429 8.1921 16.9734 17.7355 16.9734 9.8042 0 17.7521-7.9479 17.7521-17.7522zm-2.3337-.7023c0-8.9772-7.2774-16.2546-16.2546-16.2546-.7289 0-1.4466.04799-2.1502.14095.4332-.03644.8715-.05504 1.3141-.05504 8.5414 0 15.4655 6.92419 15.4655 15.46549s-6.9241 15.4655-15.4655 15.4655c-8.076 0-14.7063-6.1904-15.4046-14.085.355 8.6631 7.4904 15.5773 16.2407 15.5773 8.9772 0 16.2546-7.2775 16.2546-16.2546zm-17.0907-15.46015c8.15 0 14.757 6.60695 14.757 14.75695s-6.607 14.7569-14.757 14.7569c-7.9611 0-14.45-6.3044-14.7463-14.1931.6398 7.1204 6.6234 12.7007 13.9103 12.7007 7.7137 0 13.967-6.2532 13.967-13.9669s-6.2533-13.96688-13.967-13.96688c-.399 0-.7942.01674-1.1848.04954.6608-.09047 1.3353-.13721 2.0208-.13721zm12.4224 14.05455c0-7.3223-5.936-13.25835-13.2584-13.25835-.6187 0-1.2275.04237-1.8236.12438.3255-.02548.6545-.03845.9866-.03845 6.8866 0 12.4693 5.58262 12.4693 12.46922s-5.5827 12.4693-12.4693 12.4693c-6.4818 0-11.8085-4.9457-12.4123-11.2693.2613 7.0922 6.0932 12.7616 13.2493 12.7616 7.3224 0 13.2584-5.9359 13.2584-13.2584zm-14.0954-12.4639c6.4952 0 11.7607 5.2655 11.7607 11.7607 0 6.4953-5.2655 11.7608-11.7607 11.7608-6.3673 0-11.5528-5.0601-11.7546-11.3783.5451 5.5498 5.2254 9.8859 10.9185 9.8859 6.0595 0 10.9717-4.9122 10.9717-10.9716s-4.9122-10.97159-10.9717-10.97159c-.2778 0-.5533.01033-.826.03063.543-.07681 1.0979-.11654 1.6621-.11654zm9.427 11.0575c0-5.6682-4.5949-10.26306-10.2631-10.26306-.5174 0-1.0258.03829-1.5227.11218.2268-.01624.4558-.0245.6867-.0245 5.2318 0 9.4731 4.24128 9.4731 9.47298 0 5.2319-4.2413 9.4731-9.4731 9.4731-4.9025 0-8.9352-3.7241-9.4235-8.4977.1448 5.542 4.6827 9.9901 10.2595 9.9901 5.6682 0 10.2631-4.595 10.2631-10.2631zm-11.0991-9.46685c4.8405 0 8.7645 3.92395 8.7645 8.76445 0 4.8406-3.924 8.7646-8.7645 8.7646-4.7789 0-8.6645-3.8247-8.7626-8.5801.4414 3.9869 3.8219 7.0877 7.9266 7.0877 4.4046 0 7.9753-3.5706 7.9753-7.9753s-3.5707-7.97544-7.9753-7.97544c-.1685 0-.3357.00522-.5016.01551.4361-.06678.8828-.10142 1.3376-.10142zm6.4308 8.06135c0-4.0134-3.2534-7.26691-7.2668-7.26691-.4031 0-.7984.03281-1.1837.0959.1148-.00605.2304-.00911.3467-.00911 3.5775 0 6.4777 2.90012 6.4777 6.47772s-2.9002 6.4778-6.4777 6.4778c-3.308 0-6.0369-2.4797-6.4293-5.6816.0502 3.9702 3.2842 7.173 7.2663 7.173 4.0134 0 7.2668-3.2534 7.2668-7.2668zm-8.1038-6.47159c3.1862 0 5.7692 2.58289 5.7692 5.76919s-2.583 5.7692-5.7692 5.7692c-3.1863 0-5.7693-2.5829-5.7693-5.7692 0-.0076.0001-.0153.0001-.0229.3317 2.4281 2.4139 4.299 4.9331 4.299 2.75 0 4.9792-2.2293 4.9792-4.9792 0-2.7501-2.2292-4.9793-4.9792-4.9793-.0622 0-.1241.0012-.1857.0034.3316-.05925.6731-.09019 1.0218-.09019zm3.4345 5.06609c0-2.3587-1.9119-4.2708-4.2706-4.2708-2.3586 0-4.2707 1.9121-4.2707 4.2708 0 2.3585 1.9121 4.2706 4.2707 4.2706 2.3587 0 4.2706-1.9121 4.2706-4.2706z" fill-rule="evenodd"/></g></svg>