<svg fill="none" height="42" viewBox="0 0 172 42" width="172" xmlns="http://www.w3.org/2000/svg" xmlns:xlink="http://www.w3.org/1999/xlink"><clipPath id="a"><path d="m10 3h153v36.9h-153z"/></clipPath><g clip-path="url(#a)"><g fill="#2f234f"><path d="m56.1498 29.3909h10.7568v-3.24h-6.9336v-12.204h-3.8232z"/><path d="m73.2795 27.2309c-1.5336 0-2.3328-1.3392-2.3328-3.348s.7992-3.3696 2.3328-3.3696 2.3544 1.3608 2.3544 3.3696-.8208 3.348-2.3544 3.348zm.0216 2.5056c3.564 0 5.8968-2.5272 5.8968-5.8536s-2.3328-5.8536-5.8968-5.8536c-3.5424 0-5.9184 2.5272-5.9184 5.8536s2.376 5.8536 5.9184 5.8536z"/><path d="m85.3668 33.2141c1.6416 0 3.0888-.3672 4.0608-1.2312.8856-.7992 1.4689-2.0088 1.4689-3.672v-9.9792h-3.3697v1.188h-.0431c-.648-.9288-1.6416-1.512-3.1104-1.512-2.7432 0-4.6441 2.2896-4.6441 5.5296 0 3.3912 2.3113 5.2488 4.7953 5.2488 1.3392 0 2.1815-.54 2.8295-1.2744h.0864v1.1016c0 1.3392-.6263 2.1168-2.1167 2.1168-1.1664 0-1.7497-.4968-1.9441-1.08h-3.4128c.3456 2.3112 2.3544 3.564 5.4 3.564zm-.0215-7.0416c-1.3176 0-2.1817-1.08-2.1817-2.7432 0-1.6848.8641-2.7648 2.1817-2.7648 1.4688 0 2.2463 1.2528 2.2463 2.7432 0 1.5552-.7127 2.7648-2.2463 2.7648z"/><path d="m97.825 27.2309c-1.5336 0-2.3328-1.3392-2.3328-3.348s.7992-3.3696 2.3328-3.3696 2.354 1.3608 2.354 3.3696-.8204 3.348-2.354 3.348zm.0216 2.5056c3.5634 0 5.8964-2.5272 5.8964-5.8536s-2.333-5.8536-5.8964-5.8536c-3.5424 0-5.9184 2.5272-5.9184 5.8536s2.376 5.8536 5.9184 5.8536z"/><path d="m104.772 29.3909h3.521v-11.0592h-3.521zm0-12.5928h3.521v-2.8512h-3.521z"/><path d="m109.82 33.0413h3.521v-4.7952h.043c.691.9288 1.706 1.4904 3.132 1.4904 2.894 0 4.817-2.2896 4.817-5.8752 0-3.3264-1.793-5.8536-4.731-5.8536-1.512 0-2.592.6696-3.348 1.6632h-.064v-1.3392h-3.37zm5.789-6.0264c-1.512 0-2.376-1.2312-2.376-3.024s.777-3.1536 2.311-3.1536c1.512 0 2.225 1.2528 2.225 3.1536 0 1.8792-.821 3.024-2.16 3.024z"/><path d="m127.065 29.7365c2.894 0 5.033-1.2528 5.033-3.672 0-2.8296-2.29-3.3264-4.234-3.6504-1.404-.2592-2.657-.3672-2.657-1.1448 0-.6912.67-1.0152 1.534-1.0152.972 0 1.641.3024 1.771 1.296h3.24c-.173-2.1816-1.858-3.5424-4.99-3.5424-2.613 0-4.773 1.2096-4.773 3.5424 0 2.592 2.052 3.1104 3.974 3.4344 1.469.2592 2.808.3672 2.808 1.3608 0 .7128-.669 1.1016-1.728 1.1016-1.166 0-1.901-.54-2.03-1.6416h-3.327c.108 2.4408 2.139 3.9312 5.379 3.9312z"/><path d="m136.88 29.7149c1.534 0 2.506-.6048 3.305-1.6848h.065v1.3608h3.369v-11.0592h-3.52v6.1776c0 1.3176-.735 2.2248-1.944 2.2248-1.124 0-1.664-.6696-1.664-1.8792v-6.5232h-3.499v7.2576c0 2.4624 1.339 4.1256 3.888 4.1256z"/><path d="m145.151 29.3909h3.521v-6.1992c0-1.3176.648-2.2464 1.75-2.2464 1.058 0 1.555.6912 1.555 1.8792v6.5664h3.521v-6.1992c0-1.3176.626-2.2464 1.749-2.2464 1.059 0 1.555.6912 1.555 1.8792v6.5664h3.521v-7.1928c0-2.484-1.253-4.1904-3.758-4.1904-1.426 0-2.614.6048-3.478 1.944h-.043c-.562-1.188-1.663-1.944-3.11-1.944-1.599 0-2.657.756-3.348 1.9008h-.065v-1.5768h-3.37z"/></g><path clip-rule="evenodd" d="m28.0913 39.2909c9.9412 0 18-8.0589 18-18s-8.0588-18.00001-18-18.00001c-9.9411 0-18 8.05891-18 18.00001s8.0589 18 18 18zm2.7783-22.0927c1.5343-1.5344 1.5343-4.0221 0-5.5565-1.5344-1.5344-4.0221-1.5344-5.5565 0s-1.5344 4.0221 0 5.5565l2.7782 2.7782zm1.3144 6.871c1.5344 1.5344 4.0221 1.5344 5.5565 0 1.5344-1.5345 1.5344-4.0221 0-5.5566-1.5344-1.5343-4.0221-1.5343-5.5565 0l-2.7782 2.7783zm-1.3144 6.8709c1.5343-1.5344 1.5343-4.0221 0-5.5565l-2.7783-2.7782-2.7782 2.7782c-1.5344 1.5344-1.5344 4.0221 0 5.5565s4.0221 1.5344 5.5565 0zm-12.4275-6.8709c-1.5344-1.5345-1.5344-4.0221 0-5.5566 1.5344-1.5343 4.0221-1.5343 5.5565 0l2.7782 2.7783-2.7782 2.7783c-1.5344 1.5344-4.0221 1.5344-5.5565 0z" fill="#7f57f1" fill-rule="evenodd"/></g></svg>