<svg width="309" height="174" viewBox="0 0 309 174" fill="none" xmlns="http://www.w3.org/2000/svg">
<g filter="url(#filter0_d_1406_1591)">
<rect x="20" y="10" width="268.604" height="134" rx="8" fill="white" shape-rendering="crispEdges"/>
<path d="M36.9482 40V29.0909H41.2521C42.0795 29.0909 42.7844 29.2489 43.3668 29.565C43.9492 29.8775 44.3931 30.3125 44.6985 30.87C45.0075 31.424 45.1619 32.0632 45.1619 32.7876C45.1619 33.5121 45.0057 34.1513 44.6932 34.7053C44.3807 35.2592 43.9279 35.6907 43.3349 35.9996C42.7454 36.3086 42.0316 36.4631 41.1935 36.4631H38.4503V34.6147H40.8207C41.2646 34.6147 41.6303 34.5384 41.918 34.3857C42.2092 34.2294 42.4258 34.0146 42.5678 33.7411C42.7134 33.4641 42.7862 33.1463 42.7862 32.7876C42.7862 32.4254 42.7134 32.1094 42.5678 31.8395C42.4258 31.5661 42.2092 31.3548 41.918 31.2056C41.6268 31.0529 41.2575 30.9766 40.81 30.9766H39.2546V40H36.9482ZM46.0175 40V31.8182H48.2174V33.2457H48.3026C48.4518 32.7379 48.7021 32.3544 49.0537 32.0952C49.4052 31.8324 49.8101 31.701 50.2682 31.701C50.3818 31.701 50.5043 31.7081 50.6357 31.7223C50.7671 31.7365 50.8825 31.756 50.9819 31.7809V33.7944C50.8754 33.7624 50.728 33.734 50.5398 33.7092C50.3516 33.6843 50.1794 33.6719 50.0231 33.6719C49.6893 33.6719 49.391 33.7447 49.1282 33.8903C48.869 34.0323 48.6631 34.2312 48.5104 34.4869C48.3612 34.7425 48.2866 35.0373 48.2866 35.3711V40H46.0175ZM54.871 40.1598C54.0436 40.1598 53.3281 39.984 52.7244 39.6325C52.1242 39.2773 51.6608 38.7837 51.3341 38.1516C51.0074 37.516 50.844 36.7791 50.844 35.9411C50.844 35.0959 51.0074 34.3572 51.3341 33.7251C51.6608 33.0895 52.1242 32.5959 52.7244 32.2443C53.3281 31.8892 54.0436 31.7116 54.871 31.7116C55.6984 31.7116 56.4122 31.8892 57.0124 32.2443C57.6161 32.5959 58.0813 33.0895 58.408 33.7251C58.7347 34.3572 58.898 35.0959 58.898 35.9411C58.898 36.7791 58.7347 37.516 58.408 38.1516C58.0813 38.7837 57.6161 39.2773 57.0124 39.6325C56.4122 39.984 55.6984 40.1598 54.871 40.1598ZM54.8817 38.402C55.2581 38.402 55.5724 38.2955 55.8245 38.0824C56.0766 37.8658 56.2666 37.571 56.3945 37.1982C56.5259 36.8253 56.5915 36.4009 56.5915 35.9251C56.5915 35.4492 56.5259 35.0249 56.3945 34.652C56.2666 34.2791 56.0766 33.9844 55.8245 33.7678C55.5724 33.5511 55.2581 33.4428 54.8817 33.4428C54.5017 33.4428 54.1821 33.5511 53.9229 33.7678C53.6672 33.9844 53.4737 34.2791 53.3423 34.652C53.2144 35.0249 53.1505 35.4492 53.1505 35.9251C53.1505 36.4009 53.2144 36.8253 53.3423 37.1982C53.4737 37.571 53.6672 37.8658 53.9229 38.0824C54.1821 38.2955 54.5017 38.402 54.8817 38.402ZM59.7735 31.8182H62.0427V40.4048C62.0427 41.0369 61.9184 41.5483 61.6698 41.9389C61.4212 42.3295 61.0643 42.6154 60.5991 42.7965C60.1375 42.9776 59.5853 43.0682 58.9425 43.0682C58.8644 43.0682 58.7898 43.0664 58.7188 43.0629C58.6442 43.0629 58.5661 43.0611 58.4844 43.0575V41.2837C58.5448 41.2873 58.5981 41.2891 58.6442 41.2891C58.6869 41.2926 58.733 41.2944 58.7827 41.2944C59.1485 41.2944 59.4042 41.2163 59.5498 41.06C59.6989 40.9073 59.7735 40.6765 59.7735 40.3675V31.8182ZM60.9028 30.7635C60.569 30.7635 60.2813 30.6516 60.0398 30.4279C59.7984 30.2006 59.6776 29.929 59.6776 29.6129C59.6776 29.3004 59.7984 29.0323 60.0398 28.8086C60.2813 28.5813 60.569 28.4677 60.9028 28.4677C61.2437 28.4677 61.5331 28.5813 61.771 28.8086C62.0125 29.0323 62.1332 29.3004 62.1332 29.6129C62.1332 29.929 62.0125 30.2006 61.771 30.4279C61.5331 30.6516 61.2437 30.7635 60.9028 30.7635ZM66.9891 40.1598C66.1475 40.1598 65.4231 39.9893 64.8158 39.6484C64.2121 39.304 63.7469 38.8175 63.4202 38.1889C63.0935 37.5568 62.9302 36.8093 62.9302 35.9464C62.9302 35.1048 63.0935 34.3661 63.4202 33.7305C63.7469 33.0948 64.2068 32.5994 64.7998 32.2443C65.3964 31.8892 66.096 31.7116 66.8986 31.7116C67.4383 31.7116 67.9408 31.7987 68.406 31.9727C68.8748 32.1431 69.2832 32.4006 69.6312 32.745C69.9827 33.0895 70.2562 33.5227 70.4515 34.0447C70.6468 34.5632 70.7444 35.1705 70.7444 35.8665V36.4897H63.8357V35.0835H68.6084C68.6084 34.7567 68.5374 34.4673 68.3954 34.2152C68.2533 33.9631 68.0562 33.766 67.8041 33.6239C67.5555 33.4783 67.2661 33.4055 66.9358 33.4055C66.5914 33.4055 66.286 33.4854 66.0197 33.6452C65.7569 33.8015 65.5509 34.0128 65.4018 34.2791C65.2526 34.5419 65.1763 34.8349 65.1727 35.158V36.495C65.1727 36.8999 65.2473 37.2496 65.3964 37.5444C65.5491 37.8391 65.764 38.0664 66.041 38.2262C66.318 38.386 66.6464 38.4659 67.0264 38.4659C67.2785 38.4659 67.5094 38.4304 67.7189 38.3594C67.9284 38.2884 68.1077 38.1818 68.2569 38.0398C68.406 37.8977 68.5197 37.7237 68.5978 37.5178L70.6965 37.6562C70.59 38.1605 70.3716 38.6009 70.0413 38.9773C69.7146 39.3501 69.292 39.6413 68.7736 39.8509C68.2586 40.0568 67.6638 40.1598 66.9891 40.1598ZM75.322 40.1598C74.4839 40.1598 73.7631 39.9822 73.1594 39.6271C72.5592 39.2685 72.0976 38.7713 71.7744 38.1357C71.4548 37.5 71.295 36.7685 71.295 35.9411C71.295 35.103 71.4566 34.3679 71.7797 33.7358C72.1064 33.1001 72.5699 32.6048 73.17 32.2496C73.7702 31.891 74.4839 31.7116 75.3113 31.7116C76.0251 31.7116 76.6501 31.8413 77.1863 32.1005C77.7226 32.3597 78.1469 32.7237 78.4594 33.1925C78.7719 33.6612 78.9442 34.2116 78.9761 34.8438H76.8348C76.7744 34.4354 76.6146 34.1069 76.3554 33.8583C76.0997 33.6062 75.7641 33.4801 75.3486 33.4801C74.9971 33.4801 74.6899 33.576 74.4271 33.7678C74.1679 33.956 73.9655 34.2312 73.8199 34.5934C73.6743 34.9556 73.6015 35.3942 73.6015 35.9091C73.6015 36.4311 73.6725 36.875 73.8145 37.2408C73.9601 37.6065 74.1643 37.8853 74.4271 38.0771C74.6899 38.2688 74.9971 38.3647 75.3486 38.3647C75.6079 38.3647 75.8405 38.3114 76.0464 38.2049C76.2559 38.0984 76.4282 37.9439 76.5631 37.7415C76.7016 37.5355 76.7922 37.2887 76.8348 37.0011H78.9761C78.9406 37.6261 78.7702 38.1765 78.4648 38.6523C78.1629 39.1246 77.7457 39.494 77.213 39.7603C76.6803 40.0266 76.05 40.1598 75.322 40.1598ZM84.1809 31.8182V33.5227H79.2537V31.8182H84.1809ZM80.3723 29.858H82.6415V37.4858C82.6415 37.6953 82.6734 37.8587 82.7374 37.9759C82.8013 38.0895 82.8901 38.1694 83.0037 38.2156C83.1209 38.2617 83.2558 38.2848 83.4085 38.2848C83.5151 38.2848 83.6216 38.2759 83.7281 38.2582C83.8347 38.2369 83.9163 38.2209 83.9732 38.2102L84.33 39.8988C84.2164 39.9343 84.0566 39.9751 83.8506 40.0213C83.6447 40.071 83.3943 40.1012 83.0996 40.1119C82.5527 40.1332 82.0733 40.0604 81.6614 39.8935C81.253 39.7266 80.9352 39.4673 80.7079 39.1158C80.4806 38.7642 80.3688 38.3203 80.3723 37.7841V29.858Z" fill="#8B3DFF"/>
<rect x="36" y="48" width="49" height="2" rx="1" fill="#CBD5E1"/>
<rect x="36" y="52" width="36" height="2" rx="1" fill="#E2E8F0"/>
<g clip-path="url(#clip0_1406_1591)">
<path d="M109 39C109 40.0609 108.579 41.0783 107.828 41.8284C107.078 42.5786 106.061 43 105 43C103.939 43 102.922 42.5786 102.172 41.8284C101.421 41.0783 101 40.0609 101 39C101 37.9391 101.421 36.9217 102.172 36.1716C102.922 35.4214 103.939 35 105 35C106.061 35 107.078 35.4214 107.828 36.1716C108.579 36.9217 109 37.9391 109 39V39ZM107.015 37.485C106.979 37.4494 106.937 37.4214 106.89 37.4026C106.843 37.3838 106.793 37.3747 106.743 37.3757C106.692 37.3767 106.643 37.3879 106.597 37.4086C106.551 37.4293 106.509 37.459 106.475 37.496L104.739 39.7085L103.692 38.6615C103.621 38.5953 103.527 38.5592 103.43 38.5609C103.333 38.5626 103.24 38.602 103.171 38.6707C103.102 38.7394 103.063 38.8321 103.061 38.9292C103.06 39.0264 103.096 39.1204 103.162 39.1915L104.485 40.515C104.521 40.5506 104.563 40.5786 104.61 40.5974C104.657 40.6162 104.707 40.6255 104.757 40.6245C104.807 40.6236 104.857 40.6125 104.903 40.592C104.949 40.5715 104.99 40.5419 105.024 40.505L107.021 38.01C107.089 37.9392 107.126 37.8446 107.125 37.7465C107.124 37.6483 107.085 37.5544 107.016 37.485H107.015Z" fill="#8B3DFF"/>
</g>
<rect x="113" y="35" width="48" height="2" rx="1" fill="#CBD5E1"/>
<rect x="113" y="39" width="38" height="2" rx="1" fill="#E2E8F0"/>
<rect x="113" y="43" width="31" height="2" rx="1" fill="#E2E8F0"/>
<g clip-path="url(#clip1_1406_1591)">
<path d="M220.604 39C220.604 40.0609 220.183 41.0783 219.433 41.8284C218.683 42.5786 217.665 43 216.604 43C215.544 43 214.526 42.5786 213.776 41.8284C213.026 41.0783 212.604 40.0609 212.604 39C212.604 37.9391 213.026 36.9217 213.776 36.1716C214.526 35.4214 215.544 35 216.604 35C217.665 35 218.683 35.4214 219.433 36.1716C220.183 36.9217 220.604 37.9391 220.604 39V39ZM215.281 37.323C215.235 37.2761 215.171 37.2497 215.104 37.2497C215.038 37.2497 214.974 37.2761 214.927 37.323C214.881 37.3699 214.854 37.4336 214.854 37.5C214.854 37.5664 214.881 37.6301 214.927 37.677L216.251 39L214.927 40.323C214.904 40.3462 214.886 40.3738 214.873 40.4042C214.861 40.4346 214.854 40.4671 214.854 40.5C214.854 40.5329 214.861 40.5654 214.873 40.5958C214.886 40.6262 214.904 40.6538 214.927 40.677C214.974 40.7239 215.038 40.7503 215.104 40.7503C215.137 40.7503 215.17 40.7438 215.2 40.7313C215.231 40.7187 215.258 40.7002 215.281 40.677L216.604 39.3535L217.927 40.677C217.951 40.7002 217.978 40.7187 218.009 40.7313C218.039 40.7438 218.072 40.7503 218.104 40.7503C218.137 40.7503 218.17 40.7438 218.2 40.7313C218.231 40.7187 218.258 40.7002 218.281 40.677C218.305 40.6538 218.323 40.6262 218.336 40.5958C218.348 40.5654 218.355 40.5329 218.355 40.5C218.355 40.4671 218.348 40.4346 218.336 40.4042C218.323 40.3738 218.305 40.3462 218.281 40.323L216.958 39L218.281 37.677C218.305 37.6538 218.323 37.6262 218.336 37.5958C218.348 37.5654 218.355 37.5329 218.355 37.5C218.355 37.4671 218.348 37.4346 218.336 37.4042C218.323 37.3738 218.305 37.3462 218.281 37.323C218.258 37.2998 218.231 37.2813 218.2 37.2687C218.17 37.2562 218.137 37.2497 218.104 37.2497C218.072 37.2497 218.039 37.2562 218.009 37.2687C217.978 37.2813 217.951 37.2998 217.927 37.323L216.604 38.6465L215.281 37.323Z" fill="#1E293B"/>
</g>
<rect x="224.604" y="35" width="48" height="2" rx="1" fill="#CBD5E1"/>
<rect x="224.604" y="39" width="38" height="2" rx="1" fill="#E2E8F0"/>
<rect x="224.604" y="43" width="31" height="2" rx="1" fill="#E2E8F0"/>
<path d="M76 90C76 101.046 67.0457 110 56 110C44.9543 110 36 101.046 36 90C36 78.9543 44.9543 70 56 70C67.0457 70 76 78.9543 76 90ZM42.1958 90C42.1958 97.6239 48.3761 103.804 56 103.804C63.6239 103.804 69.8042 97.6239 69.8042 90C69.8042 82.3761 63.6239 76.1958 56 76.1958C48.3761 76.1958 42.1958 82.3761 42.1958 90Z" fill="#E2E8F0"/>
<path d="M76 90C76 86.1731 74.902 82.4265 72.8364 79.2049C70.7708 75.9833 67.8243 73.4219 64.3465 71.8249L61.7608 77.4553C64.1612 78.5576 66.195 80.3255 67.6207 82.5491C69.0464 84.7727 69.8042 87.3586 69.8042 90H76Z" fill="#8B3DFF"/>
<path d="M51.0028 87.1818V93H49.7727V88.3494H49.7386L48.4062 89.1847V88.0938L49.8466 87.1818H51.0028ZM52.0657 93V92.1136L54.1367 90.196C54.3128 90.0256 54.4605 89.8722 54.5799 89.7358C54.7011 89.5994 54.7929 89.4659 54.8554 89.3352C54.9179 89.2027 54.9492 89.0597 54.9492 88.9062C54.9492 88.7358 54.9104 88.589 54.8327 88.4659C54.755 88.3409 54.649 88.2453 54.5145 88.179C54.38 88.1108 54.2276 88.0767 54.0571 88.0767C53.8791 88.0767 53.7238 88.1127 53.5912 88.1847C53.4586 88.2566 53.3564 88.3598 53.2844 88.4943C53.2124 88.6288 53.1764 88.7888 53.1764 88.9744H52.0088C52.0088 88.5937 52.095 88.2633 52.2674 87.983C52.4397 87.7027 52.6812 87.4858 52.9918 87.3324C53.3024 87.179 53.6604 87.1023 54.0657 87.1023C54.4823 87.1023 54.845 87.1761 55.1537 87.3239C55.4643 87.4697 55.7058 87.6723 55.8782 87.9318C56.0505 88.1913 56.1367 88.4886 56.1367 88.8239C56.1367 89.0436 56.0931 89.2604 56.006 89.4744C55.9208 89.6884 55.7683 89.9261 55.5486 90.1875C55.3289 90.447 55.0193 90.7585 54.6196 91.1222L53.7702 91.9545V91.9943H56.2134V93H52.0657ZM59.9694 91.9091V91.6023C59.9694 91.3693 60.0186 91.1553 60.1171 90.9602C60.2175 90.7633 60.3624 90.6061 60.5518 90.4886C60.743 90.3693 60.976 90.3097 61.2506 90.3097C61.529 90.3097 61.7629 90.3684 61.9523 90.4858C62.1436 90.6032 62.2876 90.7604 62.3841 90.9574C62.4826 91.1525 62.5319 91.3674 62.5319 91.6023V91.9091C62.5319 92.142 62.4826 92.357 62.3841 92.554C62.2857 92.7491 62.1408 92.9053 61.9495 93.0227C61.7582 93.142 61.5252 93.2017 61.2506 93.2017C60.9722 93.2017 60.7383 93.142 60.5489 93.0227C60.3595 92.9053 60.2156 92.7491 60.1171 92.554C60.0186 92.357 59.9694 92.142 59.9694 91.9091ZM60.7961 91.6023V91.9091C60.7961 92.0436 60.8283 92.1705 60.8927 92.2898C60.959 92.4091 61.0783 92.4688 61.2506 92.4688C61.423 92.4688 61.5404 92.41 61.6029 92.2926C61.6673 92.1752 61.6995 92.0473 61.6995 91.9091V91.6023C61.6995 91.464 61.6692 91.3352 61.6086 91.2159C61.548 91.0966 61.4287 91.0369 61.2506 91.0369C61.0802 91.0369 60.9618 91.0966 60.8955 91.2159C60.8292 91.3352 60.7961 91.464 60.7961 91.6023ZM56.9836 88.5795V88.2727C56.9836 88.0379 57.0338 87.8229 57.1341 87.6278C57.2345 87.4309 57.3794 87.2737 57.5688 87.1562C57.7601 87.0388 57.9912 86.9801 58.262 86.9801C58.5423 86.9801 58.7771 87.0388 58.9665 87.1562C59.1559 87.2737 59.2999 87.4309 59.3984 87.6278C59.4968 87.8229 59.5461 88.0379 59.5461 88.2727V88.5795C59.5461 88.8144 59.4959 89.0294 59.3955 89.2244C59.297 89.4195 59.1521 89.5758 58.9609 89.6932C58.7715 89.8087 58.5385 89.8665 58.262 89.8665C57.9855 89.8665 57.7516 89.8078 57.5603 89.6903C57.3709 89.571 57.227 89.4148 57.1285 89.2216C57.0319 89.0265 56.9836 88.8125 56.9836 88.5795ZM57.816 88.2727V88.5795C57.816 88.7178 57.8482 88.8456 57.9126 88.9631C57.9788 89.0805 58.0953 89.1392 58.262 89.1392C58.4362 89.1392 58.5546 89.0805 58.6171 88.9631C58.6815 88.8456 58.7137 88.7178 58.7137 88.5795V88.2727C58.7137 88.1345 58.6834 88.0057 58.6228 87.8864C58.5622 87.767 58.4419 87.7074 58.262 87.7074C58.0934 87.7074 57.977 87.768 57.9126 87.8892C57.8482 88.0104 57.816 88.1383 57.816 88.2727ZM57.3586 93L61.3586 87.1818H62.1029L58.1029 93H57.3586Z" fill="#64748B"/>
<path d="M133 90C133 101.046 124.046 110 113 110C101.954 110 93 101.046 93 90C93 78.9543 101.954 70 113 70C124.046 70 133 78.9543 133 90ZM99.1958 90C99.1958 97.6239 105.376 103.804 113 103.804C120.624 103.804 126.804 97.6239 126.804 90C126.804 82.3761 120.624 76.1958 113 76.1958C105.376 76.1958 99.1958 82.3761 99.1958 90Z" fill="#E2E8F0"/>
<path d="M133 90C133 87.0401 132.343 84.117 131.076 81.4418C129.81 78.7666 127.965 76.4058 125.676 74.5298C123.386 72.6539 120.709 71.3095 117.837 70.5937C114.965 69.8778 111.97 69.8084 109.067 70.3904L110.286 76.4653C112.289 76.0636 114.356 76.1115 116.338 76.6055C118.321 77.0996 120.169 78.0275 121.749 79.3223C123.329 80.6171 124.602 82.2466 125.477 84.093C126.351 85.9395 126.804 87.957 126.804 90H133Z" fill="#8B3DFF"/>
<path d="M105.472 93V92.1136L107.543 90.196C107.719 90.0256 107.866 89.8722 107.986 89.7358C108.107 89.5994 108.199 89.4659 108.261 89.3352C108.324 89.2027 108.355 89.0597 108.355 88.9062C108.355 88.7358 108.316 88.589 108.239 88.4659C108.161 88.3409 108.055 88.2453 107.92 88.179C107.786 88.1108 107.634 88.0767 107.463 88.0767C107.285 88.0767 107.13 88.1127 106.997 88.1847C106.865 88.2566 106.762 88.3598 106.69 88.4943C106.618 88.6288 106.582 88.7888 106.582 88.9744H105.415C105.415 88.5937 105.501 88.2633 105.673 87.983C105.846 87.7027 106.087 87.4858 106.398 87.3324C106.708 87.179 107.066 87.1023 107.472 87.1023C107.888 87.1023 108.251 87.1761 108.56 87.3239C108.87 87.4697 109.112 87.6723 109.284 87.9318C109.456 88.1913 109.543 88.4886 109.543 88.8239C109.543 89.0436 109.499 89.2604 109.412 89.4744C109.327 89.6884 109.174 89.9261 108.955 90.1875C108.735 90.447 108.425 90.7585 108.026 91.1222L107.176 91.9545V91.9943H109.619V93H105.472ZM110.191 93V92.1136L112.262 90.196C112.438 90.0256 112.586 89.8722 112.705 89.7358C112.826 89.5994 112.918 89.4659 112.98 89.3352C113.043 89.2027 113.074 89.0597 113.074 88.9062C113.074 88.7358 113.035 88.589 112.958 88.4659C112.88 88.3409 112.774 88.2453 112.64 88.179C112.505 88.1108 112.353 88.0767 112.182 88.0767C112.004 88.0767 111.849 88.1127 111.716 88.1847C111.584 88.2566 111.481 88.3598 111.409 88.4943C111.337 88.6288 111.301 88.7888 111.301 88.9744H110.134C110.134 88.5937 110.22 88.2633 110.392 87.983C110.565 87.7027 110.806 87.4858 111.117 87.3324C111.427 87.179 111.785 87.1023 112.191 87.1023C112.607 87.1023 112.97 87.1761 113.279 87.3239C113.589 87.4697 113.831 87.6723 114.003 87.9318C114.176 88.1913 114.262 88.4886 114.262 88.8239C114.262 89.0436 114.218 89.2604 114.131 89.4744C114.046 89.6884 113.893 89.9261 113.674 90.1875C113.454 90.447 113.144 90.7585 112.745 91.1222L111.895 91.9545V91.9943H114.338V93H110.191ZM118.094 91.9091V91.6023C118.094 91.3693 118.144 91.1553 118.242 90.9602C118.342 90.7633 118.487 90.6061 118.677 90.4886C118.868 90.3693 119.101 90.3097 119.376 90.3097C119.654 90.3097 119.888 90.3684 120.077 90.4858C120.269 90.6032 120.413 90.7604 120.509 90.9574C120.608 91.1525 120.657 91.3674 120.657 91.6023V91.9091C120.657 92.142 120.608 92.357 120.509 92.554C120.411 92.7491 120.266 92.9053 120.074 93.0227C119.883 93.142 119.65 93.2017 119.376 93.2017C119.097 93.2017 118.863 93.142 118.674 93.0227C118.485 92.9053 118.341 92.7491 118.242 92.554C118.144 92.357 118.094 92.142 118.094 91.9091ZM118.921 91.6023V91.9091C118.921 92.0436 118.953 92.1705 119.018 92.2898C119.084 92.4091 119.203 92.4688 119.376 92.4688C119.548 92.4688 119.665 92.41 119.728 92.2926C119.792 92.1752 119.824 92.0473 119.824 91.9091V91.6023C119.824 91.464 119.794 91.3352 119.734 91.2159C119.673 91.0966 119.554 91.0369 119.376 91.0369C119.205 91.0369 119.087 91.0966 119.021 91.2159C118.954 91.3352 118.921 91.464 118.921 91.6023ZM115.109 88.5795V88.2727C115.109 88.0379 115.159 87.8229 115.259 87.6278C115.36 87.4309 115.504 87.2737 115.694 87.1562C115.885 87.0388 116.116 86.9801 116.387 86.9801C116.667 86.9801 116.902 87.0388 117.092 87.1562C117.281 87.2737 117.425 87.4309 117.523 87.6278C117.622 87.8229 117.671 88.0379 117.671 88.2727V88.5795C117.671 88.8144 117.621 89.0294 117.521 89.2244C117.422 89.4195 117.277 89.5758 117.086 89.6932C116.896 89.8087 116.664 89.8665 116.387 89.8665C116.11 89.8665 115.877 89.8078 115.685 89.6903C115.496 89.571 115.352 89.4148 115.253 89.2216C115.157 89.0265 115.109 88.8125 115.109 88.5795ZM115.941 88.2727V88.5795C115.941 88.7178 115.973 88.8456 116.038 88.9631C116.104 89.0805 116.22 89.1392 116.387 89.1392C116.561 89.1392 116.68 89.0805 116.742 88.9631C116.806 88.8456 116.839 88.7178 116.839 88.5795V88.2727C116.839 88.1345 116.808 88.0057 116.748 87.8864C116.687 87.767 116.567 87.7074 116.387 87.7074C116.218 87.7074 116.102 87.768 116.038 87.8892C115.973 88.0104 115.941 88.1383 115.941 88.2727ZM115.484 93L119.484 87.1818H120.228L116.228 93H115.484Z" fill="#64748B"/>
<path d="M190 90C190 101.046 181.046 110 170 110C158.954 110 150 101.046 150 90C150 78.9543 158.954 70 170 70C181.046 70 190 78.9543 190 90ZM156.196 90C156.196 97.6239 162.376 103.804 170 103.804C177.624 103.804 183.804 97.6239 183.804 90C183.804 82.3761 177.624 76.1958 170 76.1958C162.376 76.1958 156.196 82.3761 156.196 90Z" fill="#E2E8F0"/>
<path d="M190 90C190 85.9748 188.785 82.0432 186.515 78.7194C184.245 75.3955 181.024 72.8341 177.275 71.37C173.525 69.9059 169.421 69.6072 165.499 70.513C161.577 71.4188 158.02 73.487 155.292 76.4471L159.849 80.6456C161.731 78.6025 164.187 77.1751 166.894 76.5499C169.601 75.9247 172.433 76.1308 175.021 77.1414C177.609 78.1519 179.832 79.9199 181.399 82.214C182.966 84.5082 183.804 87.2218 183.804 90H190Z" fill="#8B3DFF"/>
<path d="M164.622 93.0795C164.198 93.0795 163.82 93.0066 163.489 92.8608C163.159 92.7131 162.899 92.5104 162.707 92.2528C162.518 91.9934 162.42 91.6941 162.415 91.3551H163.653C163.661 91.4972 163.707 91.6222 163.793 91.7301C163.88 91.8362 163.995 91.9186 164.139 91.9773C164.283 92.036 164.445 92.0653 164.625 92.0653C164.812 92.0653 164.978 92.0322 165.122 91.9659C165.266 91.8996 165.379 91.8078 165.46 91.6903C165.542 91.5729 165.582 91.4375 165.582 91.2841C165.582 91.1288 165.539 90.9915 165.452 90.8722C165.366 90.7509 165.243 90.6562 165.082 90.5881C164.923 90.5199 164.734 90.4858 164.514 90.4858H163.972V89.5824H164.514C164.7 89.5824 164.864 89.5502 165.006 89.4858C165.15 89.4214 165.261 89.3324 165.341 89.2188C165.42 89.1032 165.46 88.9688 165.46 88.8153C165.46 88.6695 165.425 88.5417 165.355 88.4318C165.287 88.3201 165.19 88.233 165.065 88.1705C164.942 88.108 164.798 88.0767 164.634 88.0767C164.467 88.0767 164.314 88.107 164.176 88.1676C164.038 88.2263 163.927 88.3106 163.844 88.4205C163.76 88.5303 163.716 88.6591 163.71 88.8068H162.531C162.537 88.4716 162.633 88.1761 162.818 87.9205C163.004 87.6648 163.254 87.465 163.568 87.321C163.884 87.1752 164.241 87.1023 164.639 87.1023C165.041 87.1023 165.392 87.1752 165.693 87.321C165.994 87.4669 166.228 87.6638 166.395 87.9119C166.563 88.1581 166.647 88.4347 166.645 88.7415C166.647 89.0672 166.545 89.339 166.341 89.5568C166.138 89.7746 165.874 89.9129 165.548 89.9716V90.017C165.976 90.072 166.302 90.2206 166.526 90.4631C166.751 90.7036 166.863 91.0047 166.861 91.3665C166.863 91.6979 166.767 91.9924 166.574 92.25C166.383 92.5076 166.118 92.7102 165.781 92.858C165.444 93.0057 165.058 93.0795 164.622 93.0795ZM167.425 93V92.1136L169.496 90.196C169.672 90.0256 169.82 89.8722 169.939 89.7358C170.06 89.5994 170.152 89.4659 170.215 89.3352C170.277 89.2027 170.309 89.0597 170.309 88.9062C170.309 88.7358 170.27 88.589 170.192 88.4659C170.114 88.3409 170.008 88.2453 169.874 88.179C169.739 88.1108 169.587 88.0767 169.417 88.0767C169.238 88.0767 169.083 88.1127 168.951 88.1847C168.818 88.2566 168.716 88.3598 168.644 88.4943C168.572 88.6288 168.536 88.7888 168.536 88.9744H167.368C167.368 88.5937 167.454 88.2633 167.627 87.983C167.799 87.7027 168.041 87.4858 168.351 87.3324C168.662 87.179 169.02 87.1023 169.425 87.1023C169.842 87.1023 170.204 87.1761 170.513 87.3239C170.824 87.4697 171.065 87.6723 171.238 87.9318C171.41 88.1913 171.496 88.4886 171.496 88.8239C171.496 89.0436 171.452 89.2604 171.365 89.4744C171.28 89.6884 171.128 89.9261 170.908 90.1875C170.688 90.447 170.379 90.7585 169.979 91.1222L169.13 91.9545V91.9943H171.573V93H167.425ZM175.329 91.9091V91.6023C175.329 91.3693 175.378 91.1553 175.476 90.9602C175.577 90.7633 175.722 90.6061 175.911 90.4886C176.102 90.3693 176.335 90.3097 176.61 90.3097C176.888 90.3097 177.122 90.3684 177.312 90.4858C177.503 90.6032 177.647 90.7604 177.744 90.9574C177.842 91.1525 177.891 91.3674 177.891 91.6023V91.9091C177.891 92.142 177.842 92.357 177.744 92.554C177.645 92.7491 177.5 92.9053 177.309 93.0227C177.118 93.142 176.885 93.2017 176.61 93.2017C176.332 93.2017 176.098 93.142 175.908 93.0227C175.719 92.9053 175.575 92.7491 175.476 92.554C175.378 92.357 175.329 92.142 175.329 91.9091ZM176.155 91.6023V91.9091C176.155 92.0436 176.188 92.1705 176.252 92.2898C176.318 92.4091 176.438 92.4688 176.61 92.4688C176.782 92.4688 176.9 92.41 176.962 92.2926C177.027 92.1752 177.059 92.0473 177.059 91.9091V91.6023C177.059 91.464 177.029 91.3352 176.968 91.2159C176.907 91.0966 176.788 91.0369 176.61 91.0369C176.44 91.0369 176.321 91.0966 176.255 91.2159C176.189 91.3352 176.155 91.464 176.155 91.6023ZM172.343 88.5795V88.2727C172.343 88.0379 172.393 87.8229 172.494 87.6278C172.594 87.4309 172.739 87.2737 172.928 87.1562C173.119 87.0388 173.351 86.9801 173.621 86.9801C173.902 86.9801 174.137 87.0388 174.326 87.1562C174.515 87.2737 174.659 87.4309 174.758 87.6278C174.856 87.8229 174.905 88.0379 174.905 88.2727V88.5795C174.905 88.8144 174.855 89.0294 174.755 89.2244C174.656 89.4195 174.512 89.5758 174.32 89.6932C174.131 89.8087 173.898 89.8665 173.621 89.8665C173.345 89.8665 173.111 89.8078 172.92 89.6903C172.73 89.571 172.586 89.4148 172.488 89.2216C172.391 89.0265 172.343 88.8125 172.343 88.5795ZM173.175 88.2727V88.5795C173.175 88.7178 173.208 88.8456 173.272 88.9631C173.338 89.0805 173.455 89.1392 173.621 89.1392C173.796 89.1392 173.914 89.0805 173.976 88.9631C174.041 88.8456 174.073 88.7178 174.073 88.5795V88.2727C174.073 88.1345 174.043 88.0057 173.982 87.8864C173.922 87.767 173.801 87.7074 173.621 87.7074C173.453 87.7074 173.336 87.768 173.272 87.8892C173.208 88.0104 173.175 88.1383 173.175 88.2727ZM172.718 93L176.718 87.1818H177.462L173.462 93H172.718Z" fill="#64748B"/>
<path d="M247 90C247 101.046 238.046 110 227 110C215.954 110 207 101.046 207 90C207 78.9543 215.954 70 227 70C238.046 70 247 78.9543 247 90ZM213.196 90C213.196 97.6239 219.376 103.804 227 103.804C234.624 103.804 240.804 97.6239 240.804 90C240.804 82.3761 234.624 76.1958 227 76.1958C219.376 76.1958 213.196 82.3761 213.196 90Z" fill="#E2E8F0"/>
<path d="M247 90C247 84.8968 245.049 79.9866 241.547 76.2747C238.045 72.5629 233.256 70.3302 228.162 70.0338C223.067 69.7373 218.052 71.3996 214.143 74.6802C210.234 77.9609 207.727 82.6117 207.135 87.6805L213.289 88.399C213.697 84.9005 215.428 81.6905 218.126 79.4261C220.824 77.1618 224.285 76.0145 227.802 76.2191C231.318 76.4237 234.623 77.9647 237.041 80.5267C239.458 83.0886 240.804 86.4777 240.804 90H247Z" fill="#8B3DFF"/>
<path d="M219.384 91.9773V91.0085L221.812 87.1818H222.648V88.5227H222.153L220.622 90.946V90.9915H224.074V91.9773H219.384ZM222.176 93V91.6818L222.199 91.2528V87.1818H223.352V93H222.176ZM224.573 93V92.1136L226.644 90.196C226.821 90.0256 226.968 89.8722 227.088 89.7358C227.209 89.5994 227.301 89.4659 227.363 89.3352C227.426 89.2027 227.457 89.0597 227.457 88.9062C227.457 88.7358 227.418 88.589 227.341 88.4659C227.263 88.3409 227.157 88.2453 227.022 88.179C226.888 88.1108 226.735 88.0767 226.565 88.0767C226.387 88.0767 226.232 88.1127 226.099 88.1847C225.966 88.2566 225.864 88.3598 225.792 88.4943C225.72 88.6288 225.684 88.7888 225.684 88.9744H224.517C224.517 88.5937 224.603 88.2633 224.775 87.983C224.948 87.7027 225.189 87.4858 225.5 87.3324C225.81 87.179 226.168 87.1023 226.573 87.1023C226.99 87.1023 227.353 87.1761 227.662 87.3239C227.972 87.4697 228.214 87.6723 228.386 87.9318C228.558 88.1913 228.644 88.4886 228.644 88.8239C228.644 89.0436 228.601 89.2604 228.514 89.4744C228.429 89.6884 228.276 89.9261 228.056 90.1875C227.837 90.447 227.527 90.7585 227.127 91.1222L226.278 91.9545V91.9943H228.721V93H224.573ZM232.477 91.9091V91.6023C232.477 91.3693 232.526 91.1553 232.625 90.9602C232.725 90.7633 232.87 90.6061 233.06 90.4886C233.251 90.3693 233.484 90.3097 233.758 90.3097C234.037 90.3097 234.271 90.3684 234.46 90.4858C234.651 90.6032 234.795 90.7604 234.892 90.9574C234.99 91.1525 235.04 91.3674 235.04 91.6023V91.9091C235.04 92.142 234.99 92.357 234.892 92.554C234.793 92.7491 234.649 92.9053 234.457 93.0227C234.266 93.142 234.033 93.2017 233.758 93.2017C233.48 93.2017 233.246 93.142 233.057 93.0227C232.867 92.9053 232.723 92.7491 232.625 92.554C232.526 92.357 232.477 92.142 232.477 91.9091ZM233.304 91.6023V91.9091C233.304 92.0436 233.336 92.1705 233.4 92.2898C233.467 92.4091 233.586 92.4688 233.758 92.4688C233.931 92.4688 234.048 92.41 234.111 92.2926C234.175 92.1752 234.207 92.0473 234.207 91.9091V91.6023C234.207 91.464 234.177 91.3352 234.116 91.2159C234.056 91.0966 233.936 91.0369 233.758 91.0369C233.588 91.0369 233.47 91.0966 233.403 91.2159C233.337 91.3352 233.304 91.464 233.304 91.6023ZM229.491 88.5795V88.2727C229.491 88.0379 229.542 87.8229 229.642 87.6278C229.742 87.4309 229.887 87.2737 230.077 87.1562C230.268 87.0388 230.499 86.9801 230.77 86.9801C231.05 86.9801 231.285 87.0388 231.474 87.1562C231.664 87.2737 231.808 87.4309 231.906 87.6278C232.005 87.8229 232.054 88.0379 232.054 88.2727V88.5795C232.054 88.8144 232.004 89.0294 231.903 89.2244C231.805 89.4195 231.66 89.5758 231.469 89.6932C231.279 89.8087 231.046 89.8665 230.77 89.8665C230.493 89.8665 230.259 89.8078 230.068 89.6903C229.879 89.571 229.735 89.4148 229.636 89.2216C229.54 89.0265 229.491 88.8125 229.491 88.5795ZM230.324 88.2727V88.5795C230.324 88.7178 230.356 88.8456 230.42 88.9631C230.487 89.0805 230.603 89.1392 230.77 89.1392C230.944 89.1392 231.062 89.0805 231.125 88.9631C231.189 88.8456 231.222 88.7178 231.222 88.5795V88.2727C231.222 88.1345 231.191 88.0057 231.131 87.8864C231.07 87.767 230.95 87.7074 230.77 87.7074C230.601 87.7074 230.485 87.768 230.42 87.8892C230.356 88.0104 230.324 88.1383 230.324 88.2727ZM229.866 93L233.866 87.1818H234.611L230.611 93H229.866Z" fill="#64748B"/>
<rect x="36" y="118" width="48" height="2" rx="1" fill="#CBD5E1"/>
<rect x="36" y="122" width="38" height="2" rx="1" fill="#E2E8F0"/>
<rect x="36" y="126" width="31" height="2" rx="1" fill="#E2E8F0"/>
<rect x="87.5" y="118" width="46" height="2" rx="1" fill="#CBD5E1"/>
<rect x="87.5" y="122" width="38" height="2" rx="1" fill="#E2E8F0"/>
<rect x="87.5" y="126" width="31" height="2" rx="1" fill="#E2E8F0"/>
<rect x="149.5" y="118" width="48" height="2" rx="1" fill="#CBD5E1"/>
<rect x="149.5" y="122" width="38" height="2" rx="1" fill="#E2E8F0"/>
<rect x="149.5" y="126" width="31" height="2" rx="1" fill="#E2E8F0"/>
<rect x="201" y="118" width="46" height="2" rx="1" fill="#CBD5E1"/>
<rect x="201" y="122" width="38" height="2" rx="1" fill="#E2E8F0"/>
<rect x="201" y="126" width="31" height="2" rx="1" fill="#E2E8F0"/>
</g>
<defs>
<filter id="filter0_d_1406_1591" x="0" y="0" width="308.604" height="174" filterUnits="userSpaceOnUse" color-interpolation-filters="sRGB">
<feFlood flood-opacity="0" result="BackgroundImageFix"/>
<feColorMatrix in="SourceAlpha" type="matrix" values="0 0 0 0 0 0 0 0 0 0 0 0 0 0 0 0 0 0 127 0" result="hardAlpha"/>
<feOffset dy="10"/>
<feGaussianBlur stdDeviation="10"/>
<feComposite in2="hardAlpha" operator="out"/>
<feColorMatrix type="matrix" values="0 0 0 0 0.247059 0 0 0 0 0.247059 0 0 0 0 0.305882 0 0 0 0.35 0"/>
<feBlend mode="normal" in2="BackgroundImageFix" result="effect1_dropShadow_1406_1591"/>
<feBlend mode="normal" in="SourceGraphic" in2="effect1_dropShadow_1406_1591" result="shape"/>
</filter>
<clipPath id="clip0_1406_1591">
<rect width="8" height="8" fill="white" transform="translate(101 35)"/>
</clipPath>
<clipPath id="clip1_1406_1591">
<rect width="8" height="8" fill="white" transform="translate(212.604 35)"/>
</clipPath>
</defs>
</svg>
