<svg width="229" height="265" viewBox="0 0 229 265" fill="none" xmlns="http://www.w3.org/2000/svg">
<g filter="url(#filter0_d_1406_1443)">
<path d="M37 21C37 16.5817 40.5817 13 45 13H184C188.418 13 192 16.5817 192 21V195C192 199.418 188.418 203 184 203H45C40.5817 203 37 199.418 37 195V21Z" fill="white"/>
<path d="M53.9482 43V32.0909H61.299V33.9925H56.2546V36.592H60.9208V38.4936H56.2546V41.0984H61.3203V43H53.9482ZM64.3864 34.8182L65.8885 37.6786L67.428 34.8182H69.7557L67.3854 38.9091L69.8197 43H67.5025L65.8885 40.1715L64.3012 43H61.9574L64.3864 38.9091L62.0427 34.8182H64.3864ZM70.5034 46.0682V34.8182H72.7406V36.1925H72.8418C72.9412 35.9723 73.0851 35.7486 73.2733 35.5213C73.465 35.2905 73.7136 35.0987 74.019 34.946C74.328 34.7898 74.7115 34.7116 75.1696 34.7116C75.7662 34.7116 76.3166 34.8679 76.8209 35.1804C77.3251 35.4893 77.7282 35.9563 78.03 36.5813C78.3319 37.2028 78.4828 37.9822 78.4828 38.9197C78.4828 39.8324 78.3354 40.603 78.0407 41.2315C77.7495 41.8565 77.3518 42.3306 76.8475 42.6538C76.3468 42.9734 75.7857 43.1332 75.1643 43.1332C74.7239 43.1332 74.3493 43.0604 74.0403 42.9148C73.7349 42.7692 73.4846 42.5863 73.2893 42.3661C73.0939 42.1424 72.9448 41.9169 72.8418 41.6896H72.7726V46.0682H70.5034ZM72.7246 38.9091C72.7246 39.3956 72.7921 39.82 72.927 40.1822C73.062 40.5444 73.2573 40.8267 73.513 41.0291C73.7687 41.228 74.0794 41.3274 74.4452 41.3274C74.8145 41.3274 75.127 41.2262 75.3827 41.0238C75.6383 40.8178 75.8319 40.5337 75.9633 40.1715C76.0982 39.8058 76.1657 39.3849 76.1657 38.9091C76.1657 38.4368 76.1 38.0213 75.9686 37.6626C75.8372 37.304 75.6437 37.0234 75.388 36.821C75.1323 36.6186 74.818 36.5174 74.4452 36.5174C74.0758 36.5174 73.7633 36.6151 73.5077 36.8104C73.2555 37.0057 73.062 37.2827 72.927 37.6413C72.7921 38 72.7246 38.4226 72.7246 38.9091ZM83.1243 43.1598C82.2827 43.1598 81.5582 42.9893 80.951 42.6484C80.3473 42.304 79.8821 41.8175 79.5554 41.1889C79.2287 40.5568 79.0653 39.8093 79.0653 38.9464C79.0653 38.1048 79.2287 37.3661 79.5554 36.7305C79.8821 36.0948 80.342 35.5994 80.935 35.2443C81.5316 34.8892 82.2312 34.7116 83.0337 34.7116C83.5735 34.7116 84.076 34.7987 84.5412 34.9727C85.0099 35.1431 85.4183 35.4006 85.7663 35.745C86.1179 36.0895 86.3913 36.5227 86.5866 37.0447C86.7819 37.5632 86.8796 38.1705 86.8796 38.8665V39.4897H79.9709V38.0835H84.7436C84.7436 37.7567 84.6726 37.4673 84.5305 37.2152C84.3885 36.9631 84.1914 36.766 83.9393 36.6239C83.6907 36.4783 83.4013 36.4055 83.071 36.4055C82.7265 36.4055 82.4211 36.4854 82.1548 36.6452C81.892 36.8015 81.6861 37.0128 81.5369 37.2791C81.3878 37.5419 81.3114 37.8349 81.3079 38.158V39.495C81.3079 39.8999 81.3824 40.2496 81.5316 40.5444C81.6843 40.8391 81.8991 41.0664 82.1761 41.2262C82.4531 41.386 82.7816 41.4659 83.1616 41.4659C83.4137 41.4659 83.6445 41.4304 83.854 41.3594C84.0635 41.2884 84.2429 41.1818 84.392 41.0398C84.5412 40.8977 84.6548 40.7237 84.7329 40.5178L86.8317 40.6562C86.7251 41.1605 86.5067 41.6009 86.1765 41.9773C85.8498 42.3501 85.4272 42.6413 84.9087 42.8509C84.3938 43.0568 83.799 43.1598 83.1243 43.1598ZM90.0296 38.2699V43H87.7604V34.8182H89.9231V36.2617H90.0189C90.2001 35.7859 90.5037 35.4094 90.9298 35.1325C91.3559 34.8519 91.8726 34.7116 92.4799 34.7116C93.0481 34.7116 93.5434 34.8359 93.966 35.0845C94.3886 35.3331 94.7171 35.6882 94.9515 36.1499C95.1858 36.608 95.303 37.1548 95.303 37.7905V43H93.0339V38.1953C93.0374 37.6946 92.9096 37.304 92.6503 37.0234C92.3911 36.7393 92.0342 36.5973 91.5797 36.5973C91.2743 36.5973 91.0044 36.663 90.77 36.7944C90.5392 36.9258 90.3581 37.1175 90.2267 37.3697C90.0988 37.6183 90.0331 37.9183 90.0296 38.2699ZM103.299 37.1513L101.222 37.2791C101.186 37.1016 101.11 36.9418 100.993 36.7997C100.875 36.6541 100.721 36.5387 100.529 36.4535C100.341 36.3647 100.115 36.3203 99.8526 36.3203C99.5011 36.3203 99.2045 36.3949 98.9631 36.544C98.7216 36.6896 98.6009 36.8849 98.6009 37.13C98.6009 37.3253 98.679 37.4904 98.8352 37.6254C98.9915 37.7603 99.2596 37.8686 99.6396 37.9503L101.12 38.2486C101.916 38.4119 102.509 38.6747 102.9 39.0369C103.29 39.3991 103.485 39.875 103.485 40.4645C103.485 41.0007 103.327 41.4712 103.011 41.8761C102.699 42.2809 102.269 42.5969 101.722 42.8242C101.179 43.0479 100.552 43.1598 99.842 43.1598C98.7589 43.1598 97.896 42.9343 97.2532 42.4833C96.614 42.0288 96.2393 41.4109 96.1293 40.6296L98.3612 40.5124C98.4286 40.8427 98.592 41.0948 98.8512 41.2688C99.1104 41.4393 99.4425 41.5245 99.8473 41.5245C100.245 41.5245 100.565 41.4482 100.806 41.2955C101.051 41.1392 101.175 40.9386 101.179 40.6935C101.175 40.4876 101.088 40.3189 100.918 40.1875C100.748 40.0526 100.485 39.9496 100.13 39.8786L98.7127 39.5962C97.9137 39.4364 97.3189 39.1594 96.9283 38.7653C96.5412 38.3711 96.3477 37.8686 96.3477 37.2578C96.3477 36.7322 96.4897 36.2795 96.7738 35.8995C97.0614 35.5195 97.4645 35.2266 97.983 35.0206C98.505 34.8146 99.1158 34.7116 99.8153 34.7116C100.849 34.7116 101.662 34.93 102.255 35.3668C102.852 35.8036 103.2 36.3984 103.299 37.1513ZM108.043 43.1598C107.201 43.1598 106.477 42.9893 105.87 42.6484C105.266 42.304 104.801 41.8175 104.474 41.1889C104.147 40.5568 103.984 39.8093 103.984 38.9464C103.984 38.1048 104.147 37.3661 104.474 36.7305C104.801 36.0948 105.261 35.5994 105.854 35.2443C106.45 34.8892 107.15 34.7116 107.952 34.7116C108.492 34.7116 108.995 34.7987 109.46 34.9727C109.929 35.1431 110.337 35.4006 110.685 35.745C111.037 36.0895 111.31 36.5227 111.505 37.0447C111.701 37.5632 111.798 38.1705 111.798 38.8665V39.4897H104.89V38.0835H109.662C109.662 37.7567 109.591 37.4673 109.449 37.2152C109.307 36.9631 109.11 36.766 108.858 36.6239C108.609 36.4783 108.32 36.4055 107.99 36.4055C107.645 36.4055 107.34 36.4854 107.074 36.6452C106.811 36.8015 106.605 37.0128 106.456 37.2791C106.307 37.5419 106.23 37.8349 106.227 38.158V39.495C106.227 39.8999 106.301 40.2496 106.45 40.5444C106.603 40.8391 106.818 41.0664 107.095 41.2262C107.372 41.386 107.7 41.4659 108.08 41.4659C108.332 41.4659 108.563 41.4304 108.773 41.3594C108.982 41.2884 109.162 41.1818 109.311 41.0398C109.46 40.8977 109.574 40.7237 109.652 40.5178L111.75 40.6562C111.644 41.1605 111.425 41.6009 111.095 41.9773C110.769 42.3501 110.346 42.6413 109.827 42.8509C109.313 43.0568 108.718 43.1598 108.043 43.1598ZM119.487 37.1513L117.409 37.2791C117.374 37.1016 117.297 36.9418 117.18 36.7997C117.063 36.6541 116.909 36.5387 116.717 36.4535C116.529 36.3647 116.303 36.3203 116.04 36.3203C115.689 36.3203 115.392 36.3949 115.151 36.544C114.909 36.6896 114.789 36.8849 114.789 37.13C114.789 37.3253 114.867 37.4904 115.023 37.6254C115.179 37.7603 115.447 37.8686 115.827 37.9503L117.308 38.2486C118.104 38.4119 118.697 38.6747 119.087 39.0369C119.478 39.3991 119.673 39.875 119.673 40.4645C119.673 41.0007 119.515 41.4712 119.199 41.8761C118.887 42.2809 118.457 42.5969 117.91 42.8242C117.367 43.0479 116.74 43.1598 116.03 43.1598C114.947 43.1598 114.084 42.9343 113.441 42.4833C112.802 42.0288 112.427 41.4109 112.317 40.6296L114.549 40.5124C114.616 40.8427 114.78 41.0948 115.039 41.2688C115.298 41.4393 115.63 41.5245 116.035 41.5245C116.433 41.5245 116.752 41.4482 116.994 41.2955C117.239 41.1392 117.363 40.9386 117.367 40.6935C117.363 40.4876 117.276 40.3189 117.106 40.1875C116.935 40.0526 116.672 39.9496 116.317 39.8786L114.9 39.5962C114.101 39.4364 113.507 39.1594 113.116 38.7653C112.729 38.3711 112.535 37.8686 112.535 37.2578C112.535 36.7322 112.677 36.2795 112.961 35.8995C113.249 35.5195 113.652 35.2266 114.171 35.0206C114.693 34.8146 115.303 34.7116 116.003 34.7116C117.036 34.7116 117.85 34.93 118.443 35.3668C119.039 35.8036 119.387 36.3984 119.487 37.1513Z" fill="#8B3DFF"/>
<rect x="53" y="51" width="95" height="2" rx="1" fill="#CBD5E1"/>
<rect x="53" y="56" width="72" height="2" rx="1" fill="#E2E8F0"/>
<rect x="53.2" y="70.2" width="23.6" height="7.6" fill="#E2E8F0" stroke="#CBD5E1" stroke-width="0.4"/>
<rect x="76.2" y="70.2" width="23.6" height="7.6" fill="#E2E8F0" stroke="#CBD5E1" stroke-width="0.4"/>
<rect x="99.2" y="70.2" width="23.6" height="7.6" fill="#E2E8F0" stroke="#CBD5E1" stroke-width="0.4"/>
<rect x="122.2" y="70.2" width="23.6" height="7.6" fill="#E2E8F0" stroke="#CBD5E1" stroke-width="0.4"/>
<rect x="145.2" y="70.2" width="23.6" height="7.6" fill="#E2E8F0" stroke="#CBD5E1" stroke-width="0.4"/>
<rect x="53.2" y="77.2" width="23.6" height="7.6" fill="white" stroke="#CBD5E1" stroke-width="0.4"/>
<rect x="76.2" y="77.2" width="23.6" height="7.6" fill="white" stroke="#CBD5E1" stroke-width="0.4"/>
<rect x="99.2" y="77.2" width="23.6" height="7.6" fill="white" stroke="#CBD5E1" stroke-width="0.4"/>
<rect x="122.2" y="77.2" width="23.6" height="7.6" fill="white" stroke="#CBD5E1" stroke-width="0.4"/>
<rect x="145.2" y="77.2" width="23.6" height="7.6" fill="white" stroke="#CBD5E1" stroke-width="0.4"/>
<rect x="53.2" y="84.2" width="23.6" height="7.6" fill="white" stroke="#CBD5E1" stroke-width="0.4"/>
<rect x="76.2" y="84.2" width="23.6" height="7.6" fill="white" stroke="#CBD5E1" stroke-width="0.4"/>
<rect x="99.2" y="84.2" width="23.6" height="7.6" fill="white" stroke="#CBD5E1" stroke-width="0.4"/>
<rect x="122.2" y="84.2" width="23.6" height="7.6" fill="white" stroke="#CBD5E1" stroke-width="0.4"/>
<rect x="145.2" y="84.2" width="23.6" height="7.6" fill="white" stroke="#CBD5E1" stroke-width="0.4"/>
<rect x="53.2" y="91.2" width="23.6" height="7.6" fill="white" stroke="#CBD5E1" stroke-width="0.4"/>
<rect x="76.2" y="91.2" width="23.6" height="7.6" fill="#FFC107" stroke="#CBD5E1" stroke-width="0.4"/>
<rect x="99.2" y="91.2" width="23.6" height="7.6" fill="#FFC107" stroke="#CBD5E1" stroke-width="0.4"/>
<rect x="122.2" y="91.2" width="23.6" height="7.6" fill="#FFC107" stroke="#CBD5E1" stroke-width="0.4"/>
<rect x="145.2" y="91.2" width="23.6" height="7.6" fill="white" stroke="#CBD5E1" stroke-width="0.4"/>
<rect x="53.2" y="98.2" width="23.6" height="7.6" fill="white" stroke="#CBD5E1" stroke-width="0.4"/>
<rect x="76.2" y="98.2" width="23.6" height="7.6" fill="white" stroke="#CBD5E1" stroke-width="0.4"/>
<rect x="99.2" y="98.2" width="23.6" height="7.6" fill="white" stroke="#CBD5E1" stroke-width="0.4"/>
<rect x="122.2" y="98.2" width="23.6" height="7.6" fill="white" stroke="#CBD5E1" stroke-width="0.4"/>
<rect x="145.2" y="98.2" width="23.6" height="7.6" fill="white" stroke="#CBD5E1" stroke-width="0.4"/>
<rect x="53.2" y="105.2" width="23.6" height="7.6" fill="white" stroke="#CBD5E1" stroke-width="0.4"/>
<rect x="76.2" y="105.2" width="23.6" height="7.6" fill="#6FDB93" stroke="#CBD5E1" stroke-width="0.4"/>
<rect x="99.2" y="105.2" width="23.6" height="7.6" fill="#6FDB93" stroke="#CBD5E1" stroke-width="0.4"/>
<rect x="122.2" y="105.2" width="23.6" height="7.6" fill="#6FDB93" stroke="#CBD5E1" stroke-width="0.4"/>
<rect x="145.2" y="105.2" width="23.6" height="7.6" fill="white" stroke="#CBD5E1" stroke-width="0.4"/>
<rect x="53.2" y="112.2" width="23.6" height="7.6" fill="white" stroke="#CBD5E1" stroke-width="0.4"/>
<rect x="76.2" y="112.2" width="23.6" height="7.6" fill="white" stroke="#CBD5E1" stroke-width="0.4"/>
<rect x="99.2" y="112.2" width="23.6" height="7.6" fill="white" stroke="#CBD5E1" stroke-width="0.4"/>
<rect x="122.2" y="112.2" width="23.6" height="7.6" fill="white" stroke="#CBD5E1" stroke-width="0.4"/>
<rect x="145.2" y="112.2" width="23.6" height="7.6" fill="white" stroke="#CBD5E1" stroke-width="0.4"/>
<rect x="53.25" y="128.25" width="115.5" height="56.5" rx="2.75" fill="#F1F5F9" stroke="#E2E8F0" stroke-width="0.5"/>
<path d="M67 175.314L84.413 154.031L97.1273 165.363L117.857 144.91L141.904 165.363L156 138" stroke="#B299FF"/>
<circle cx="155.5" cy="138.5" r="1.5" fill="#8B3DFF"/>
<circle cx="141.5" cy="165.5" r="1.5" fill="#8B3DFF"/>
<circle cx="117.5" cy="145.5" r="1.5" fill="#8B3DFF"/>
<circle cx="97.5" cy="165.5" r="1.5" fill="#8B3DFF"/>
<circle cx="84.5" cy="154.5" r="1.5" fill="#8B3DFF"/>
<circle cx="66.5" cy="175.5" r="1.5" fill="#8B3DFF"/>
</g>
<defs>
<filter id="filter0_d_1406_1443" x="0.374592" y="0.791531" width="228.251" height="263.251" filterUnits="userSpaceOnUse" color-interpolation-filters="sRGB">
<feFlood flood-opacity="0" result="BackgroundImageFix"/>
<feColorMatrix in="SourceAlpha" type="matrix" values="0 0 0 0 0 0 0 0 0 0 0 0 0 0 0 0 0 0 127 0" result="hardAlpha"/>
<feOffset dy="24.4169"/>
<feGaussianBlur stdDeviation="18.3127"/>
<feColorMatrix type="matrix" values="0 0 0 0 0.117647 0 0 0 0 0.160784 0 0 0 0 0.231373 0 0 0 0.17 0"/>
<feBlend mode="normal" in2="BackgroundImageFix" result="effect1_dropShadow_1406_1443"/>
<feBlend mode="normal" in="SourceGraphic" in2="effect1_dropShadow_1406_1443" result="shape"/>
</filter>
</defs>
</svg>
