<svg width="185" height="47" viewBox="0 0 185 47" fill="none" xmlns="http://www.w3.org/2000/svg">
<g clip-path="url(#clip0_1171_20560)">
<path d="M3.39809 17.5126C3.06034 17.6858 2.67709 17.3822 2.74534 16.9946L3.47159 12.8558L0.388966 9.91932C0.101091 9.64457 0.250716 9.14232 0.636591 9.08807L4.92234 8.47907L6.83334 4.69295C7.00572 4.3517 7.47209 4.3517 7.64447 4.69295L9.55547 8.47907L13.8412 9.08807C14.2271 9.14232 14.3767 9.64457 14.088 9.91932L11.0062 12.8558L11.7325 16.9946C11.8007 17.3822 11.4175 17.6858 11.0797 17.5126L7.23759 15.5386L3.39722 17.5126H3.39809Z" fill="#FF492C"/>
</g>
<g clip-path="url(#clip1_1171_20560)">
<path d="M19.3981 17.5126C19.0603 17.6858 18.6771 17.3822 18.7453 16.9946L19.4716 12.8558L16.389 9.91932C16.1011 9.64457 16.2507 9.14232 16.6366 9.08807L20.9223 8.47907L22.8333 4.69295C23.0057 4.3517 23.4721 4.3517 23.6445 4.69295L25.5555 8.47907L29.8412 9.08807C30.2271 9.14232 30.3767 9.64457 30.088 9.91932L27.0062 12.8558L27.7325 16.9946C27.8007 17.3822 27.4175 17.6858 27.0797 17.5126L23.2376 15.5386L19.3972 17.5126H19.3981Z" fill="#FF492C"/>
</g>
<g clip-path="url(#clip2_1171_20560)">
<path d="M35.3981 17.5126C35.0603 17.6858 34.6771 17.3822 34.7453 16.9946L35.4716 12.8558L32.389 9.91932C32.1011 9.64457 32.2507 9.14232 32.6366 9.08807L36.9223 8.47907L38.8333 4.69295C39.0057 4.3517 39.4721 4.3517 39.6445 4.69295L41.5555 8.47907L45.8412 9.08807C46.2271 9.14232 46.3767 9.64457 46.088 9.91932L43.0062 12.8558L43.7325 16.9946C43.8007 17.3822 43.4175 17.6858 43.0797 17.5126L39.2376 15.5386L35.3972 17.5126H35.3981Z" fill="#FF492C"/>
</g>
<g clip-path="url(#clip3_1171_20560)">
<path d="M51.3981 17.5126C51.0603 17.6858 50.6771 17.3822 50.7453 16.9946L51.4716 12.8558L48.389 9.91932C48.1011 9.64457 48.2507 9.14232 48.6366 9.08807L52.9223 8.47907L54.8333 4.69295C55.0057 4.3517 55.4721 4.3517 55.6445 4.69295L57.5555 8.47907L61.8412 9.08807C62.2271 9.14232 62.3767 9.64457 62.088 9.91932L59.0062 12.8558L59.7325 16.9946C59.8007 17.3822 59.4175 17.6858 59.0797 17.5126L55.2376 15.5386L51.3972 17.5126H51.3981Z" fill="#FF492C"/>
</g>
<g clip-path="url(#clip4_1171_20560)">
<path d="M67.3981 17.5126C67.0603 17.6858 66.6771 17.3822 66.7453 16.9946L67.4716 12.8558L64.389 9.91932C64.1011 9.64457 64.2507 9.14232 64.6366 9.08807L68.9223 8.47907L70.8333 4.69295C71.0057 4.3517 71.4721 4.3517 71.6445 4.69295L73.5555 8.47907L77.8412 9.08807C78.2271 9.14232 78.3767 9.64457 78.088 9.91932L75.0062 12.8558L75.7325 16.9946C75.8007 17.3822 75.4175 17.6858 75.0797 17.5126L71.2376 15.5386L67.3972 17.5126H67.3981Z" fill="#FF492C"/>
</g>
<path d="M2.78579 41H1.41379V30.878H5.23579C7.40579 30.878 8.69379 32.026 8.69379 33.916C8.69379 35.316 7.99379 36.324 6.73379 36.73L8.79179 41H7.26579L5.37579 36.996H2.78579V41ZM2.78579 32.11V35.778H5.24979C6.52379 35.778 7.25179 35.092 7.25179 33.93C7.25179 32.754 6.49579 32.11 5.23579 32.11H2.78579ZM16.7479 41H10.5739V30.878H16.7479V32.138H11.9459V35.302H16.2719V36.52H11.9459V39.726H16.7479V41ZM19.1561 41H17.7281L21.4241 30.878H22.9501L26.6601 41H25.2181L24.3081 38.48H20.0521L19.1561 41ZM22.0121 33.062L20.4721 37.29H23.9021L22.3481 33.062C22.2781 32.866 22.2081 32.628 22.1801 32.474C22.1521 32.614 22.0821 32.852 22.0121 33.062ZM31.3516 41H28.0056V30.878H31.2956C34.3196 30.878 36.3636 32.922 36.3636 35.946C36.3636 38.956 34.3476 41 31.3516 41ZM31.1976 32.138H29.3776V39.726H31.2536C33.5076 39.726 34.9356 38.27 34.9356 35.946C34.9356 33.594 33.5076 32.138 31.1976 32.138ZM43.3092 41H41.9372V30.878H45.7592C47.9292 30.878 49.2172 32.026 49.2172 33.916C49.2172 35.316 48.5172 36.324 47.2572 36.73L49.3152 41H47.7892L45.8992 36.996H43.3092V41ZM43.3092 32.11V35.778H45.7732C47.0472 35.778 47.7752 35.092 47.7752 33.93C47.7752 32.754 47.0192 32.11 45.7592 32.11H43.3092ZM57.2714 41H51.0974V30.878H57.2714V32.138H52.4694V35.302H56.7954V36.52H52.4694V39.726H57.2714V41ZM62.0735 41L58.2235 30.878H59.6935L62.1575 37.346C62.3815 37.92 62.5775 38.494 62.7875 39.25C63.0255 38.452 63.2635 37.78 63.4315 37.332L65.8815 30.878H67.3095L63.5015 41H62.0735ZM69.9967 30.878V41H68.6247V30.878H69.9967ZM78.5312 41H72.3572V30.878H78.5312V32.138H73.7292V35.302H78.0552V36.52H73.7292V39.726H78.5312V41ZM82.5633 41L79.5533 30.878H80.9813L82.8293 37.066C82.9693 37.598 83.1093 38.13 83.2493 38.9C83.4173 38.088 83.5713 37.598 83.7253 37.066L85.6433 30.878H87.1273L89.0313 37.066C89.1993 37.612 89.3393 38.144 89.4933 38.9C89.6613 38.046 89.8013 37.528 89.9413 37.08L91.8033 30.878H93.2033L90.1513 41H88.8353L86.3853 32.992L83.9073 41H82.5633ZM93.9449 33.608C93.9449 31.872 95.3449 30.696 97.4309 30.696C99.3629 30.696 100.609 31.774 100.721 33.524H99.3349C99.2649 32.516 98.5509 31.928 97.4169 31.928C96.1429 31.928 95.3169 32.572 95.3169 33.566C95.3169 34.378 95.7789 34.868 96.7309 35.092L98.3969 35.484C100.049 35.862 100.889 36.758 100.889 38.186C100.889 40.006 99.4749 41.168 97.3189 41.168C95.2609 41.168 93.8889 40.09 93.8049 38.354H95.2049C95.2329 39.32 96.0449 39.936 97.3189 39.936C98.6629 39.936 99.5169 39.306 99.5169 38.298C99.5169 37.5 99.0829 36.996 98.1169 36.772L96.4509 36.394C94.7989 36.016 93.9449 35.064 93.9449 33.608ZM115.569 35.932C115.569 39.012 113.553 41.168 110.683 41.168C107.827 41.168 105.839 39.012 105.839 35.932C105.839 32.866 107.841 30.696 110.697 30.696C113.567 30.696 115.569 32.852 115.569 35.932ZM114.127 35.932C114.127 33.58 112.755 32.026 110.697 32.026C108.639 32.026 107.281 33.58 107.281 35.932C107.281 38.284 108.639 39.852 110.697 39.852C112.755 39.852 114.127 38.27 114.127 35.932ZM118.696 41H117.324V30.878H118.696L123.876 38.704V30.878H125.248V41H123.876L118.696 33.174V41Z" fill="#64748B"/>
<path d="M171.075 33.0585C172.73 35.9305 174.367 38.7699 176.002 41.6062C168.761 47.1502 157.494 47.8202 149.154 41.4358C139.556 34.0829 137.979 21.5367 143.117 12.5054C149.027 2.11756 160.087 -0.17979 167.208 1.50477C167.015 1.92314 162.751 10.7711 162.751 10.7711C162.751 10.7711 162.413 10.7932 162.223 10.7969C160.118 10.8861 158.55 11.3758 156.87 12.2446C155.026 13.2065 153.447 14.6053 152.269 16.3188C151.091 18.0322 150.35 20.0081 150.112 22.0738C149.864 24.1687 150.153 26.2924 150.954 28.2442C151.63 29.8943 152.588 31.3598 153.871 32.5971C155.84 34.497 158.183 35.6733 160.899 36.0628C163.47 36.4319 165.944 36.0665 168.261 34.9018C169.131 34.4656 169.87 33.9838 170.735 33.3231C170.845 33.2517 170.943 33.1612 171.075 33.0585Z" fill="#FF492C"/>
<path d="M171.091 7.87071C170.671 7.45726 170.282 7.0758 169.894 6.69189C169.663 6.46301 169.44 6.22491 169.203 6.00157C169.118 5.92098 169.019 5.81085 169.019 5.81085C169.019 5.81085 169.099 5.63981 169.134 5.56967C169.587 4.65971 170.298 3.99463 171.141 3.46551C172.073 2.87597 173.159 2.57601 174.261 2.60355C175.672 2.63123 176.984 2.98254 178.091 3.9288C178.908 4.6271 179.327 5.51307 179.4 6.57068C179.523 8.35491 178.785 9.72138 177.319 10.675C176.458 11.2361 175.529 11.6699 174.597 12.1836C174.083 12.4672 173.644 12.7164 173.142 13.2295C172.7 13.7445 172.679 14.2299 172.679 14.2299L179.352 14.2213V17.1936H169.051V16.9063C169.012 15.4457 169.182 14.0712 169.851 12.7447C170.466 11.5278 171.422 10.6369 172.571 9.95087C173.456 9.42237 174.387 8.97262 175.274 8.44658C175.821 8.12234 176.207 7.64675 176.204 6.95706C176.204 6.36519 175.773 5.83915 175.158 5.67488C173.707 5.28358 172.231 5.90806 171.463 7.23577C171.351 7.42957 171.237 7.62214 171.091 7.87071ZM184 29.8991L178.376 20.1868H167.247L161.586 29.9994H172.798L178.33 39.6656L184 29.8991Z" fill="#FF492C"/>
<defs>
<clipPath id="clip0_1171_20560">
<rect width="14" height="14" fill="white" transform="translate(0.237793 4)"/>
</clipPath>
<clipPath id="clip1_1171_20560">
<rect width="14" height="14" fill="white" transform="translate(16.2378 4)"/>
</clipPath>
<clipPath id="clip2_1171_20560">
<rect width="14" height="14" fill="white" transform="translate(32.2378 4)"/>
</clipPath>
<clipPath id="clip3_1171_20560">
<rect width="14" height="14" fill="white" transform="translate(48.2378 4)"/>
</clipPath>
<clipPath id="clip4_1171_20560">
<rect width="14" height="14" fill="white" transform="translate(64.2378 4)"/>
</clipPath>
</defs>
</svg>
