<svg width="91" height="49" viewBox="0 0 91 49" fill="none" xmlns="http://www.w3.org/2000/svg">
<path d="M24.5183 8.74194H33.7126V10.5101H30.1763V20.058H28.0546V10.5101H24.5183V8.74194ZM33.1822 11.7478H34.9503V13.3391C34.9503 13.1623 35.1271 12.9855 35.3039 12.6318C35.4807 12.2782 35.6576 12.2782 35.8344 12.1014C36.0112 11.9246 36.3648 11.7478 36.5416 11.7478C36.7184 11.571 37.0721 11.571 37.4257 11.571C37.6025 11.571 37.7793 11.571 37.7793 11.571H37.9561V13.3391C37.7793 13.3391 37.7793 13.3391 37.6025 13.3391C37.4257 13.3391 37.4257 13.3391 37.2489 13.3391C36.8952 13.3391 36.7184 13.3391 36.3648 13.5159C36.0112 13.6927 35.8344 13.8695 35.6575 14.0463C35.4807 14.2232 35.3039 14.5768 35.1271 14.9304C34.9503 15.284 34.9503 15.6377 34.9503 16.1681V20.058H33.1822V11.7478ZM46.2664 20.058H44.4982V18.9971C44.3214 19.3507 43.9678 19.7044 43.4373 20.058C43.0837 20.2348 42.5533 20.4116 42.0228 20.4116C40.962 20.4116 40.2547 20.2348 39.7243 19.5276C39.1938 18.8203 39.017 18.113 39.017 17.0522V11.9246H40.7851V16.8754C40.7851 17.5826 40.962 18.1131 41.1388 18.4667C41.4924 18.8203 41.846 18.9971 42.3765 18.9971C42.7301 18.9971 43.0837 18.9971 43.2605 18.8203C43.4373 18.6435 43.791 18.4667 43.791 18.2899C43.9678 18.113 44.1446 17.9362 44.1446 17.5826C44.1446 17.229 44.3214 17.0522 44.3214 16.6985V11.9246H46.0895V20.058H46.2664ZM49.2722 17.4058C49.2722 17.9362 49.449 18.2899 49.8026 18.4667C50.1562 18.6435 50.5099 18.8203 51.0403 18.8203C51.2171 18.8203 51.3939 18.8203 51.5708 18.8203C51.7476 18.8203 51.9244 18.8203 52.1012 18.6435C52.278 18.6435 52.4548 18.4667 52.6316 18.2899C52.8084 18.113 52.8084 17.9362 52.8084 17.7594C52.8084 17.5826 52.6316 17.4058 52.6316 17.229C52.4548 17.0522 52.278 17.0522 52.1012 16.8754C51.9244 16.8754 51.5707 16.6985 51.2171 16.6985C50.8635 16.6985 50.5099 16.5217 50.3331 16.5217C49.9794 16.5217 49.6258 16.3449 49.449 16.1681C49.2722 15.9913 48.9185 15.9913 48.5649 15.8145C48.3881 15.6377 48.0345 15.4609 48.0345 15.1072C47.8577 14.7536 47.8577 14.4 47.8577 14.0463C47.8577 13.5159 48.0345 13.1623 48.2113 12.9855C48.3881 12.8086 48.7417 12.455 49.0954 12.2782C49.449 12.1014 49.8026 11.9246 50.1562 11.9246C50.5099 11.9246 51.0403 11.7478 51.3939 11.7478C51.7476 11.7478 52.278 11.7478 52.6316 11.9246C52.9853 11.9246 53.3389 12.1014 53.6925 12.2782C54.0461 12.455 54.223 12.8086 54.3998 12.9855C54.5766 13.3391 54.7534 13.6927 54.7534 14.2232H52.8084C52.8084 13.8695 52.4548 13.5159 52.278 13.3391C51.7476 13.1623 51.3939 12.9855 51.0403 12.9855C50.8635 12.9855 50.6867 12.9855 50.5099 12.9855C50.3331 12.9855 50.1562 12.9855 49.9794 13.1623C49.8026 13.1623 49.6258 13.3391 49.6258 13.3391C49.449 13.5159 49.449 13.5159 49.449 13.6927C49.449 13.8695 49.449 14.0463 49.6258 14.2232C49.8026 14.4 49.9794 14.4 50.1562 14.5768C50.3331 14.5768 50.6867 14.7536 51.0403 14.7536C51.3939 14.7536 51.7476 14.9304 52.1012 14.9304C52.4548 14.9304 52.8084 15.1072 52.9853 15.284C53.3389 15.4608 53.5157 15.4608 53.8693 15.6377C54.2229 15.8145 54.3998 15.9913 54.3998 16.3449C54.5766 16.6985 54.5766 16.8754 54.5766 17.4058C54.5766 17.9362 54.3998 18.2899 54.223 18.6435C54.0461 18.9971 53.6925 19.1739 53.3389 19.5276C53.1621 19.8812 52.8084 20.058 52.4548 20.058C52.1012 20.058 51.5707 20.2348 51.2171 20.2348C50.6867 20.2348 50.1562 20.2348 49.8026 20.058C49.449 19.8812 48.9186 19.7044 48.7417 19.5276C48.3881 19.3507 48.2113 18.9971 48.0345 18.6435C47.6809 18.2899 47.504 17.9362 47.504 17.4058H49.2722ZM55.2838 11.7478H56.6983V9.4492H58.4665V11.9246H60.0578V13.3391H58.4665V17.7594C58.4665 17.9362 58.4665 18.113 58.4665 18.2899C58.4665 18.4667 58.4665 18.4667 58.6433 18.6435C58.8201 18.8203 58.8201 18.8203 58.8201 18.8203C58.9969 18.8203 59.1737 18.8203 59.3505 18.8203C59.5274 18.8203 59.5274 18.8203 59.7042 18.8203C59.881 18.8203 59.881 18.8203 60.0578 18.8203V20.058C59.881 20.058 59.7042 20.058 59.5274 20.058C59.3505 20.058 59.1737 20.058 58.9969 20.058C58.4665 20.058 58.1128 20.058 57.936 19.8812C57.5824 19.8812 57.4056 19.7044 57.2288 19.5276C57.052 19.3507 56.8752 19.1739 56.8752 18.8203C56.8752 18.6435 56.6983 18.2899 56.6983 17.9362V13.1623H55.2838V11.7478ZM61.2955 11.7478H63.0636V12.9855C63.2404 12.455 63.5941 12.1014 64.1245 11.9246C64.6549 11.7478 65.0086 11.571 65.539 11.571C66.2463 11.571 66.7767 11.7478 67.3071 11.9246C67.8376 12.1014 68.1912 12.455 68.5448 12.8086C68.8985 13.1623 69.0753 13.6927 69.2521 14.2232C69.4289 14.7536 69.4289 15.284 69.4289 15.9913C69.4289 16.5217 69.4289 17.0522 69.2521 17.5826C69.0753 18.1131 68.8985 18.4667 68.5448 18.9971C68.1912 19.3507 67.8376 19.7044 67.484 19.8812C66.9535 20.058 66.5999 20.2348 65.8926 20.2348C65.7158 20.2348 65.3622 20.2348 65.1854 20.2348C65.0086 20.2348 64.6549 20.058 64.4781 20.058C64.3013 19.8812 63.9477 19.8812 63.7709 19.7044C63.5941 19.5276 63.4172 19.3507 63.2404 19.1739V23.2406H61.4723V11.7478H61.2955ZM67.6608 15.9913C67.6608 15.6377 67.6608 15.284 67.484 14.9304C67.3071 14.5768 67.3071 14.2232 67.1303 14.0463C66.9535 13.8695 66.7767 13.5159 66.4231 13.3391C66.0694 13.1623 65.8926 13.1623 65.3622 13.1623C64.6549 13.1623 63.9477 13.3391 63.5941 13.8695C63.2404 14.4 63.0636 15.1072 63.0636 15.9913C63.0636 16.3449 63.0636 16.8754 63.2404 17.0522C63.4172 17.4058 63.4172 17.7594 63.7709 17.9362C63.9477 18.113 64.1245 18.4667 64.4781 18.4667C64.8317 18.6435 65.0086 18.6435 65.3622 18.6435C65.7158 18.6435 66.0694 18.6435 66.4231 18.4667C66.7767 18.2899 66.9535 18.1131 67.1303 17.7594C67.3071 17.4058 67.484 17.229 67.484 16.8754C67.484 16.6985 67.6608 16.3449 67.6608 15.9913ZM70.8434 8.74194H72.6115V10.5101H70.8434V8.74194ZM70.8434 11.7478H72.6115V20.058H70.8434V11.7478ZM74.2029 8.74194H75.971V20.058H74.2029V8.74194ZM81.4522 20.2348C80.745 20.2348 80.2145 20.058 79.6841 19.8812C79.1536 19.7044 78.8 19.3507 78.4464 18.9971C78.0928 18.6435 77.7391 18.1131 77.5623 17.5826C77.3855 17.0522 77.2087 16.5217 77.2087 15.8145C77.2087 15.1072 77.3855 14.5768 77.5623 14.0463C77.7391 13.5159 78.0928 12.9855 78.4464 12.6318C78.8 12.2782 79.1536 11.9246 79.6841 11.7478C80.2145 11.571 80.745 11.3941 81.4522 11.3941C82.1595 11.3941 82.6899 11.571 83.2203 11.7478C83.7508 11.9246 84.1044 12.2782 84.458 12.6318C84.8117 12.9855 85.1653 13.5159 85.3421 14.0463C85.5189 14.5768 85.6957 15.1072 85.6957 15.8145C85.6957 16.5217 85.5189 17.0522 85.3421 17.5826C85.1653 18.1131 84.8117 18.6435 84.458 18.9971C84.1044 19.3507 83.7508 19.7044 83.2203 19.8812C82.6899 20.058 82.1595 20.2348 81.4522 20.2348ZM81.4522 18.8203C81.8058 18.8203 82.1595 18.8203 82.5131 18.6435C82.8667 18.4667 83.0435 18.2899 83.2203 17.9362C83.3972 17.5826 83.574 17.4058 83.574 17.0522C83.574 16.6985 83.7508 16.3449 83.7508 15.9913C83.7508 15.6377 83.7508 15.284 83.574 14.9304C83.574 14.5768 83.3972 14.2232 83.2203 14.0463C83.0435 13.8695 82.8667 13.5159 82.5131 13.3391C82.1595 13.1623 81.8058 13.1623 81.4522 13.1623C81.0986 13.1623 80.745 13.1623 80.3913 13.3391C80.0377 13.5159 79.8609 13.6927 79.6841 14.0463C79.5073 14.4 79.3304 14.5768 79.3304 14.9304C79.3304 15.284 79.1536 15.6377 79.1536 15.9913C79.1536 16.3449 79.1536 16.6985 79.3304 17.0522C79.3304 17.4058 79.5073 17.7594 79.6841 17.9362C79.8609 18.2899 80.0377 18.4667 80.3913 18.6435C80.745 18.6435 81.0986 18.8203 81.4522 18.8203ZM86.2262 11.7478H87.6407V9.4492H89.4088V11.9246H91.0001V13.3391H89.4088V17.7594C89.4088 17.9362 89.4088 18.113 89.4088 18.2899C89.4088 18.4667 89.4088 18.4667 89.5856 18.6435C89.7624 18.8203 89.7624 18.8203 89.7624 18.8203C89.9392 18.8203 90.1161 18.8203 90.2929 18.8203C90.4697 18.8203 90.4697 18.8203 90.6465 18.8203C90.8233 18.8203 90.8233 18.8203 91.0001 18.8203V20.058C90.8233 20.058 90.6465 20.058 90.4697 20.058C90.2929 20.058 90.1161 20.058 89.9392 20.058C89.4088 20.058 89.0552 20.058 88.8784 19.8812C88.5247 19.8812 88.3479 19.7044 88.1711 19.5276C87.9943 19.3507 87.8175 19.1739 87.8175 18.8203C87.8175 18.6435 87.6407 18.2899 87.6407 17.9362V13.1623H86.2262V11.7478Z" fill="#191919"/>
<path d="M22.3964 8.742H14.0862L11.6108 0.7854L8.95861 8.742H0.825195L7.36729 13.516L4.8919 21.4726L11.6108 16.5218L18.1529 21.4726L15.6775 13.516L22.3964 8.742Z" fill="#00B67A"/>
<path d="M16.208 15.284L15.6775 13.5159L11.6108 16.5217L16.208 15.284Z" fill="#005128"/>
<path d="M17.7993 31.2407H0.825195V48.2148H17.7993V31.2407Z" fill="#00B67A"/>
<path d="M36.0109 31.2407H19.0369V48.2148H36.0109V31.2407Z" fill="#00B67A"/>
<path d="M54.3996 31.2407H37.4255V48.2148H54.3996V31.2407Z" fill="#00B67A"/>
<path d="M72.6115 31.2407H55.6375V48.2148H72.6115V31.2407Z" fill="#00B67A"/>
<path d="M91 31.2407H74.0259V48.2148H91V31.2407Z" fill="#DCDCE6"/>
<path d="M74.0259 31.2407H82.5129V48.038H74.0259V31.2407Z" fill="#00B67A"/>
<path d="M9.13538 42.5566L11.7876 41.8494L12.8485 45.2088L9.13538 42.5566ZM15.147 38.3131H10.5499L9.13538 34.0696L7.72087 38.3131H3.30054L7.01362 40.9653L5.59911 45.2088L9.31219 42.5566L11.6108 40.9653L15.147 38.3131Z" fill="white"/>
<path d="M27.5242 42.5566L30.1764 41.8494L31.2372 45.2088L27.5242 42.5566ZM33.359 38.3131H28.7619L27.3473 34.0696L25.9328 38.3131H21.3357L25.0488 40.9653L23.6343 45.2088L27.3473 42.5566L29.6459 40.9653L33.359 38.3131Z" fill="white"/>
<path d="M45.9126 42.5566L48.5648 41.8494L49.6257 45.2088L45.9126 42.5566ZM51.7474 38.3131H47.1503L45.7358 34.0696L44.3213 38.3131H39.7241L43.4372 40.9653L42.1995 45.2088L45.9126 42.5566L48.2112 40.9653L51.7474 38.3131Z" fill="white"/>
<path d="M64.1242 42.5566L66.7764 41.8494L67.8373 45.2088L64.1242 42.5566ZM70.1359 38.3131H65.5387L64.1242 34.0696L62.7097 38.3131H58.1125L61.8256 40.9653L60.4111 45.2088L64.1242 42.5566L66.4228 40.9653L70.1359 38.3131Z" fill="white"/>
<path d="M82.5129 42.5566L85.1651 41.8494L86.226 45.2088L82.5129 42.5566ZM88.3477 38.3131H83.7506L82.3361 34.0696L81.0984 38.3131H76.5012L80.2143 40.9653L78.7998 45.2088L82.5129 42.5566L84.8114 40.9653L88.3477 38.3131Z" fill="white"/>
</svg>
