<svg width="160" height="80" viewBox="0 0 160 80" fill="none" xmlns="http://www.w3.org/2000/svg">
<path d="M26.7845 50.5005C25.3263 49.171 24.9006 46.3773 25.5082 44.3533C26.5616 45.6293 28.0211 46.0336 29.5329 46.2617C31.8669 46.6139 34.1591 46.4822 36.3271 45.418C36.5751 45.2962 36.8043 45.1342 37.0754 44.9702C37.2788 45.5588 37.3319 46.1533 37.2608 46.7582C37.088 48.2314 36.3529 49.3696 35.1839 50.2322C34.7165 50.5773 34.2217 50.8857 33.7389 51.2111C32.2557 52.2111 31.8543 53.3837 32.4117 55.0894C32.4249 55.131 32.4368 55.1725 32.4668 55.2739C31.7096 54.9359 31.1563 54.4436 30.7348 53.7963C30.2896 53.1133 30.0779 52.3576 30.0666 51.54C30.0611 51.1422 30.0611 50.7407 30.0074 50.3485C29.8765 49.392 29.4265 48.9639 28.5785 48.9393C27.7083 48.9139 27.02 49.4505 26.8376 50.2956C26.8236 50.3604 26.8048 50.4251 26.7845 50.5005Z" fill="#94A3B8"/>
<path d="M18.4614 44.0161C18.4614 44.0161 22.7793 41.9178 27.1093 41.9178L30.374 31.8395C30.4962 31.3521 30.8531 31.0209 31.256 31.0209C31.6588 31.0209 32.0157 31.3521 32.138 31.8395L35.4027 41.9178C40.5308 41.9178 44.0505 44.0161 44.0505 44.0161C44.0505 44.0161 36.7162 24.0857 36.7019 24.0457C36.4913 23.4564 36.136 23.0769 35.6568 23.0769H26.8557C26.3767 23.0769 26.0357 23.4564 25.8108 24.0457C25.795 24.0849 18.4614 44.0161 18.4614 44.0161Z" fill="#94A3B8"/>
<path d="M63.9861 41.1138C63.9861 42.88 61.7838 43.9347 58.7347 43.9347C56.7503 43.9347 56.0484 43.4441 56.0484 42.4138C56.0484 41.3346 56.9197 40.8195 58.9041 40.8195C60.695 40.8195 62.2195 40.844 63.9861 41.0647V41.1138ZM64.0103 38.9307C62.9215 38.6855 61.276 38.5383 59.3155 38.5383C53.6043 38.5383 50.918 39.8873 50.918 43.027C50.918 46.2895 52.7572 47.5404 57.0164 47.5404C60.6224 47.5404 63.0667 46.6329 63.962 44.4007H64.1072C64.0829 44.9403 64.0587 45.48 64.0587 45.8969C64.0587 47.0498 64.2524 47.148 65.1964 47.148H69.6494C69.4072 46.4612 69.262 44.5233 69.262 42.8553C69.262 41.0647 69.3346 39.7156 69.3346 37.9006C69.3346 34.1966 67.1081 31.8418 60.1383 31.8418C57.1375 31.8418 53.7978 32.3569 51.2567 33.1173C51.4987 34.123 51.8375 36.1589 52.0069 37.4835C54.2092 36.4533 57.331 36.0118 59.751 36.0118C63.0909 36.0118 64.0103 36.7721 64.0103 38.3175V38.9307Z" fill="#94A3B8"/>
<path d="M76.2288 42.1441C75.6236 42.2177 74.8011 42.2177 73.9539 42.2177C73.0583 42.2177 72.2357 42.1932 71.6789 42.1195C71.6789 42.3158 71.6548 42.5366 71.6548 42.7329C71.6548 45.7989 73.6634 47.5895 80.73 47.5895C87.3853 47.5895 89.5391 45.8235 89.5391 42.7083C89.5391 39.7649 88.1114 38.3177 81.7946 37.9988C76.8823 37.778 76.4466 37.2383 76.4466 36.6251C76.4466 35.9138 77.0759 35.5458 80.3669 35.5458C83.7796 35.5458 84.6988 36.0118 84.6988 36.9931V37.2138C85.1829 37.1894 86.0543 37.1648 86.9496 37.1648C87.7968 37.1648 88.7162 37.1894 89.2486 37.2383C89.2486 37.0175 89.2728 36.8214 89.2728 36.6497C89.2728 33.0438 86.2717 31.8665 80.4637 31.8665C73.9297 31.8665 71.7274 33.4609 71.7274 36.576C71.7274 39.3723 73.494 41.114 79.7619 41.3838C84.3842 41.5309 84.8925 42.046 84.8925 42.7574C84.8925 43.5177 84.1422 43.8612 80.8994 43.8612C77.1726 43.8612 76.2288 43.346 76.2288 42.2914V42.1441Z" fill="#94A3B8"/>
<path d="M97.5263 29.2173C95.7597 30.8608 92.5892 32.5042 90.8228 32.9457C90.8469 33.8533 90.8469 35.5213 90.8469 36.4288L92.4683 36.4534C92.444 38.195 92.4198 40.3044 92.4198 41.7025C92.4198 44.965 94.138 47.4179 99.4864 47.4179C101.737 47.4179 103.238 47.1725 105.101 46.7801C104.907 45.5782 104.69 43.7385 104.617 42.3404C103.504 42.7082 102.1 42.9045 100.551 42.9045C98.3972 42.9045 97.5263 42.3159 97.5263 40.6233C97.5263 39.1516 97.5263 37.7779 97.5504 36.5025C100.31 36.527 103.068 36.5761 104.69 36.6251C104.666 35.3496 104.714 33.5099 104.787 32.2834C102.439 32.3325 99.8012 32.357 97.6231 32.357C97.6474 31.2777 97.6715 30.2476 97.6957 29.2173H97.5263Z" fill="#94A3B8"/>
<path d="M111.981 35.6926C112.005 34.417 112.029 33.3376 112.053 32.283H107.189C107.262 34.3924 107.262 36.551 107.262 39.7153C107.262 42.8795 107.237 45.0626 107.189 47.1475H112.755C112.658 45.6758 112.634 43.1984 112.634 41.0889C112.634 37.7529 113.989 36.7962 117.063 36.7962C118.491 36.7962 119.507 36.9679 120.402 37.2869C120.427 36.0359 120.669 33.6075 120.814 32.5282C119.894 32.2584 118.878 32.0867 117.643 32.0867C115.006 32.0622 113.07 33.1415 112.174 35.717L111.981 35.6926Z" fill="#94A3B8"/>
<path d="M136.212 39.6174C136.212 42.2911 134.276 43.542 131.227 43.542C128.201 43.542 126.265 42.3646 126.265 39.6174C126.265 36.8701 128.226 35.8398 131.227 35.8398C134.252 35.8398 136.212 36.9437 136.212 39.6174ZM141.27 39.4948C141.27 34.172 137.107 31.7926 131.227 31.7926C125.322 31.7926 121.304 34.172 121.304 39.4948C121.304 44.7929 125.056 47.6383 131.202 47.6383C137.398 47.6383 141.27 44.7929 141.27 39.4948Z" fill="#94A3B8"/>
</svg>
