<svg width="160" height="80" viewBox="0 0 160 80" fill="none" xmlns="http://www.w3.org/2000/svg">
<mask id="mask0_1838_1151" style="mask-type:luminance" maskUnits="userSpaceOnUse" x="18" y="27" width="124" height="26">
<path d="M141.538 27.6923H18.4614V52.6923H141.538V27.6923Z" fill="white"/>
</mask>
<g mask="url(#mask0_1838_1151)">
<path d="M110.159 36.5832V52.1683H105.138V34.1426L110.159 36.5832Z" fill="#94A3B8"/>
<path d="M39.1021 49.2743L42.8676 52.5517L58.7316 44.2885L57.0928 40.3486L39.1021 49.2743ZM105.138 39.2329L117.899 32.6085L115.738 28.8777L105.138 34.1425V39.2329Z" fill="#94A3B8"/>
<path d="M69.2264 35.3629V52.1683H64.4148V28.2154L69.2264 35.3629ZM39.1021 49.2743L42.8676 52.5517L50.1197 34.4215L47.7837 28.2154L39.1021 49.2743Z" fill="#94A3B8"/>
<path d="M47.7837 28.2154H52.7346L61.9043 52.1683H56.814L47.7837 28.2154ZM69.9585 28.2154L80.5228 44.5675V52.1683L64.4146 28.2154H69.9585ZM89.588 28.2154H94.5738V52.1683H89.588V28.2154ZM105.138 32.6085H97.4675V28.2154H115.354L117.899 32.6085H110.159H105.138Z" fill="#94A3B8"/>
<path d="M132.648 43.0683V52.1683H127.697V43.0683" fill="#94A3B8"/>
<path d="M136.065 28.2154L127.697 43.0683H132.648L141.33 28.2154H136.065Z" fill="#94A3B8"/>
<path d="M127.696 43.0683L119.05 28.2154H124.489L130.311 38.3962L127.696 43.0683Z" fill="#94A3B8"/>
<path d="M20.5186 31.0046C20.5186 34.3168 22.5757 36.3042 26.6899 37.3502L31.0482 38.3612C34.9531 39.2678 37.324 41.4992 37.324 45.1252C37.3589 46.6943 36.8359 48.2283 35.8945 49.4835C35.8945 45.8574 34.0117 43.9049 29.514 42.7195L25.2256 41.7432C21.7737 40.9762 19.124 39.1283 19.124 35.1885C19.124 33.6892 19.612 32.19 20.5186 31.0046Z" fill="#94A3B8"/>
<path d="M80.5225 43.3472V28.2154H85.3338V52.1683H80.5225V43.3472Z" fill="#94A3B8"/>
<path d="M33.2099 44.2188C35.0577 45.4043 35.8945 47.0778 35.8945 49.4835C34.3256 51.4709 31.6409 52.5517 28.468 52.5517C23.1336 52.5517 19.3333 49.902 18.5312 45.3345H23.6566C24.3191 47.4265 26.0623 48.4028 28.4333 48.4028C31.2574 48.4375 33.1749 46.9035 33.2099 44.2188ZM20.5186 30.9697C22.0179 29.0172 24.5979 27.8318 27.7359 27.8318C33.2099 27.8318 36.3479 30.7257 37.1497 34.7702H32.1988C31.6409 33.1663 30.2811 31.9111 27.8056 31.9111C25.1209 31.946 23.3079 33.4802 23.2033 35.9208C21.4066 34.9298 20.4489 32.992 20.5186 30.9697Z" fill="#94A3B8"/>
</g>
</svg>
