<svg width="123" height="50" viewBox="0 0 93 30" fill="none" xmlns="http://www.w3.org/2000/svg">
<path d="M62.9092 13.7482C62.9092 12.3174 62.015 11.2891 60.3607 11.2891H54.9059V18.7112H56.6943V16.1626H58.7958L60.8525 18.7112H62.8645V18.5323L60.8525 16.1179C62.1492 15.8496 62.9092 14.9107 62.9092 13.7482ZM60.1371 14.6424H56.6943V12.8093H60.1371C60.7631 12.8093 61.1655 13.1669 61.1655 13.7482C61.2102 14.3294 60.8078 14.6424 60.1371 14.6424Z" fill="black"/>
<path d="M89.915 11.2441H88.2606V14.061H83.7448V11.2441H81.9563V18.6663H83.7448V15.76H88.2606V18.6663H89.915V11.2441Z" fill="black"/>
<path d="M50.1217 11.2441L48.1544 17.459H48.065L46.0529 11.2441H42.8784V18.6663H44.5775V12.5855H44.6669L46.6342 18.6663H49.3616L51.3736 12.5855H51.463V18.6663H53.2068V11.2441H50.1217Z" fill="black"/>
<path d="M30.6723 14.2847C30.0463 14.2399 28.8838 14.1058 28.2131 14.0611C27.5872 14.0164 27.2295 13.7928 27.2295 13.3904C27.2295 12.988 27.6319 12.675 29.1521 12.675C30.4934 12.675 31.7453 12.988 32.8631 13.4799V11.8255C31.79 11.289 30.5828 11.0654 29.0626 11.0654C26.9612 11.0654 25.4857 11.9597 25.4857 13.4351C25.4857 14.6871 26.3352 15.4025 28.079 15.5813C28.7049 15.6707 29.778 15.7601 30.4934 15.8049C31.2982 15.8496 31.5218 16.1178 31.5218 16.4755C31.5218 16.9674 30.9405 17.2803 29.5545 17.2803C28.1237 17.2803 26.6482 16.7885 25.5751 16.1625V17.8616C26.4247 18.4428 27.8554 18.8899 29.5098 18.8899C31.79 18.8899 33.2655 17.9957 33.2655 16.4308C33.2655 15.2236 32.5054 14.4635 30.6723 14.2847Z" fill="black"/>
<path d="M34.4728 11.2441V18.6663H41.3584V17.1461H36.1718V15.6259H41.2689V14.1057H36.1718V12.7643H41.3584V11.2441H34.4728Z" fill="black"/>
<path d="M78.2454 14.2847C77.6194 14.2399 76.4569 14.1058 75.7862 14.0611C75.1603 14.0164 74.8026 13.7928 74.8026 13.3904C74.8026 12.988 75.205 12.675 76.7252 12.675C78.0665 12.675 79.3185 12.9433 80.4362 13.4799V11.8255C79.3632 11.289 78.156 11.0654 76.6358 11.0654C74.5343 11.0654 73.0588 11.9597 73.0588 13.4351C73.0588 14.6871 73.9084 15.4025 75.6521 15.5813C76.2781 15.6707 77.3512 15.7601 78.0665 15.8049C78.8713 15.8496 79.0949 16.1178 79.0949 16.4755C79.0949 16.9674 78.5136 17.2803 77.1276 17.2803C75.6968 17.2803 74.2213 16.7885 73.1483 16.1625V17.8616C73.9978 18.4428 75.4285 18.8899 77.0829 18.8899C79.3632 18.8899 80.8386 17.9957 80.8386 16.4308C80.8386 15.2236 80.0338 14.4635 78.2454 14.2847Z" fill="black"/>
<path d="M70.063 11.2441V15.0446C70.063 16.4754 69.1688 17.2802 67.8722 17.2802C66.5308 17.2802 65.6813 16.5201 65.6813 15.0446V11.2889H63.8928V14.9105C63.8928 17.5932 65.5919 18.9345 67.8722 18.9345C70.1077 18.9345 71.8068 17.6379 71.8068 14.9999V11.3336H70.063V11.2441Z" fill="black"/>
<path d="M19.4049 14.9106C19.4049 15.2683 19.226 15.313 18.7789 15.313C18.2871 15.313 18.1976 15.2236 18.1529 14.8659C18.0635 13.9269 17.4375 13.1221 16.3645 13.0774C16.0515 13.0327 15.9621 12.9433 15.9621 12.4962C15.9621 12.0938 16.0068 11.9149 16.3198 11.9149C18.1082 11.9596 19.4049 13.4351 19.4049 14.9106ZM22.0428 14.9106C22.0428 12.1385 20.165 9.1875 15.7832 9.1875H7.15389C6.97505 9.1875 6.88562 9.27692 6.88562 9.45577C6.88562 9.54519 6.93034 9.63461 7.01976 9.67933C7.33274 9.9476 7.77985 10.2159 8.40582 10.5288C8.98707 10.8418 9.47889 11.0207 9.92601 11.1995C10.1049 11.2889 10.1943 11.3784 10.1943 11.4678C10.1943 11.6019 10.1049 11.7361 9.8813 11.7361H2.99572C2.77216 11.7361 2.68274 11.8702 2.68274 12.0043C2.68274 12.1385 2.72745 12.2279 2.81687 12.3173C3.35341 12.8986 4.24764 13.6139 5.54428 14.4187C6.66207 15.1341 8.09283 15.8942 9.21062 16.4308C9.38947 16.5202 9.47889 16.6096 9.47889 16.7438C9.47889 16.8779 9.38947 16.9673 9.16591 16.9673H5.99139C5.81255 16.9673 5.72312 17.0567 5.72312 17.1909C5.72312 17.2803 5.76784 17.3697 5.85726 17.4591C6.57264 18.1298 7.73514 18.8005 9.25534 19.4712C11.3121 20.3207 13.3688 20.8572 15.6938 20.8572C20.1202 20.8125 22.0428 17.5038 22.0428 14.9106ZM16.275 18.8899C14.1289 18.8899 12.2957 17.1462 12.2957 14.9106C12.2957 12.7644 14.0842 11.0207 16.275 11.0207C18.5106 11.0207 20.2544 12.7644 20.2544 14.9106C20.2544 17.1014 18.5106 18.8899 16.275 18.8899Z" fill="#FF642D"/>
</svg>
