<svg width="160" height="80" viewBox="0 0 160 80" fill="none" xmlns="http://www.w3.org/2000/svg">
<mask id="mask0_1838_1061" style="mask-type:luminance" maskUnits="userSpaceOnUse" x="10" y="27" width="141" height="30">
<path d="M150.769 27.6923H10.769V56.5847H150.769V27.6923Z" fill="white"/>
</mask>
<g mask="url(#mask0_1838_1061)">
<mask id="mask1_1838_1061" style="mask-type:luminance" maskUnits="userSpaceOnUse" x="10" y="27" width="141" height="30">
<path d="M150.769 27.6923H10.769V56.5847H150.769V27.6923Z" fill="white"/>
</mask>
<g mask="url(#mask1_1838_1061)">
<path d="M19.3796 47.9048C17.9447 46.4523 17.0347 44.4397 17.0696 42.2348C17.0696 40.0123 17.9796 38.0172 19.4322 36.5823C20.6572 35.3572 20.6747 33.3797 19.4496 32.1372C18.2247 30.9123 16.2472 30.8948 14.9872 32.1197C12.3972 34.6923 10.7872 38.2623 10.7697 42.2172C10.7522 46.1723 12.3447 49.7423 14.9172 52.3497C16.1422 53.5748 18.1196 53.5923 19.3796 52.3672C20.5872 51.1248 20.6047 49.1297 19.3796 47.9048Z" fill="#FFDA00"/>
</g>
<mask id="mask2_1838_1061" style="mask-type:luminance" maskUnits="userSpaceOnUse" x="10" y="27" width="141" height="30">
<path d="M150.769 27.6923H10.769V56.5847H150.769V27.6923Z" fill="white"/>
</mask>
<g mask="url(#mask2_1838_1061)">
<path d="M19.4142 36.5827C20.8667 35.1477 22.8793 34.2377 25.0842 34.2552C27.3067 34.2552 29.3017 35.1652 30.7367 36.6177C31.9617 37.8427 33.9393 37.8603 35.1817 36.6352C36.4067 35.4103 36.4242 33.4327 35.1993 32.1727C32.6093 29.5827 29.0393 27.9727 25.1017 27.9552C21.1642 27.9552 17.5767 29.5303 15.0042 32.1027C13.7792 33.3277 13.7617 35.3052 14.9867 36.5652C16.1942 37.8077 18.1893 37.8077 19.4142 36.5827Z" fill="#67B3FF"/>
</g>
<mask id="mask3_1838_1061" style="mask-type:luminance" maskUnits="userSpaceOnUse" x="10" y="27" width="141" height="30">
<path d="M150.769 27.6923H10.769V56.5847H150.769V27.6923Z" fill="white"/>
</mask>
<g mask="url(#mask3_1838_1061)">
<path d="M30.7185 47.94C29.2659 49.3749 27.2535 50.2849 25.0485 50.2674C22.8259 50.2674 20.831 49.3574 19.3959 47.9049C18.171 46.68 16.1935 46.6625 14.951 47.8874C13.726 49.1125 13.7085 51.09 14.9335 52.35C17.5235 54.9574 21.0935 56.5674 25.0135 56.5849C28.9686 56.6025 32.5385 55.01 35.1459 52.4374C36.371 51.2125 36.3886 49.2349 35.1635 47.9749C33.921 46.7325 31.9435 46.7149 30.7185 47.94Z" fill="#EB5A68"/>
</g>
<mask id="mask4_1838_1061" style="mask-type:luminance" maskUnits="userSpaceOnUse" x="10" y="27" width="141" height="30">
<path d="M150.769 27.6923H10.769V56.5847H150.769V27.6923Z" fill="white"/>
</mask>
<g mask="url(#mask4_1838_1061)">
<path d="M19.414 36.5823C18.1891 37.8072 16.194 37.7897 14.9515 36.5648C13.7265 35.3397 13.7441 33.3448 14.9691 32.1197C16.194 30.8948 18.1891 30.9123 19.4316 32.1372C20.674 33.3623 20.6565 35.3572 19.414 36.5823Z" fill="#47A1FF"/>
</g>
<mask id="mask5_1838_1061" style="mask-type:luminance" maskUnits="userSpaceOnUse" x="10" y="27" width="141" height="30">
<path d="M150.769 27.6923H10.769V56.5847H150.769V27.6923Z" fill="white"/>
</mask>
<g mask="url(#mask5_1838_1061)">
<path d="M19.3618 52.35C18.1368 53.5749 16.1418 53.5574 14.8993 52.3325C13.6743 51.1074 13.6918 49.1125 14.9168 47.8874C16.1418 46.6625 18.1368 46.68 19.3792 47.9049C20.6043 49.13 20.5868 51.1249 19.3618 52.35Z" fill="#D5465F"/>
</g>
<mask id="mask6_1838_1061" style="mask-type:luminance" maskUnits="userSpaceOnUse" x="10" y="27" width="141" height="30">
<path d="M150.769 27.6923H10.769V56.5847H150.769V27.6923Z" fill="white"/>
</mask>
<g mask="url(#mask6_1838_1061)">
<path fill-rule="evenodd" clip-rule="evenodd" d="M49.2162 45.3147C50.1262 44.6322 50.2487 45.0171 51.0187 45.7871C51.4037 46.1722 52.4537 46.8371 51.7711 47.3971C50.3362 48.5698 49.0411 49.0947 47.2211 49.0947C43.0911 49.0771 40.1687 45.9971 40.3962 41.9022C40.5011 40.0647 41.2187 38.3322 42.6537 37.1422C43.9662 36.0398 45.5937 35.5498 47.3087 35.5847C48.1837 35.6022 48.9362 35.7247 49.7411 36.0747C50.2662 36.2847 50.7737 36.5122 51.2111 36.8622C52.1211 37.5622 51.7011 37.9647 50.9837 38.6822C50.8262 38.8398 50.6687 38.9971 50.5287 39.1722C50.1611 39.5398 49.9162 39.8022 49.4437 39.4522C48.5162 38.8047 47.3437 38.4722 46.2411 38.7522C42.6711 39.6622 42.8287 46.0147 47.2037 46.0322C47.8862 46.0322 48.6562 45.7522 49.2162 45.3147ZM148.441 49.1822C147.829 49.1822 147.356 48.6922 147.356 48.0971L147.409 34.0271C147.409 33.4147 147.899 32.9422 148.494 32.9422H149.666C150.279 32.9422 150.751 33.4322 150.751 34.0271L150.699 48.0971C150.699 48.7098 150.209 49.1822 149.614 49.1822H148.441ZM142.316 47.5371C141.039 48.7271 139.831 49.3571 138.046 49.3571C134.424 49.3398 132.674 46.3298 132.674 42.9698L132.691 37.2471C132.691 36.6347 133.181 36.1622 133.776 36.1622H134.949C135.561 36.1622 136.034 36.6522 136.034 37.2471L136.016 42.9698C136.016 44.8422 137.031 46.3122 139.009 46.3122C140.969 46.3122 142.194 44.6498 142.211 42.7947V40.7647C142.194 40.6771 142.194 40.6071 142.194 40.5198L142.211 37.2647C142.211 36.6522 142.701 36.1798 143.296 36.1798H144.469C145.081 36.1798 145.554 36.6698 145.554 37.2647L145.519 48.0798C145.519 48.6571 145.029 49.1471 144.434 49.1471H143.454C142.841 49.1471 142.421 48.6398 142.386 48.0798L142.316 47.5371ZM128.404 36.1798H130.661C131.274 36.1798 131.729 36.6871 131.729 37.2822V38.0347C131.729 38.6122 131.239 39.1198 130.644 39.1198H128.386L128.351 48.0098C128.351 48.6222 127.861 49.0947 127.266 49.0947H126.094C125.481 49.0947 125.009 48.6047 125.009 48.0098L125.044 35.7071C125.044 33.0298 126.584 30.9122 129.314 30.6671C129.401 30.6671 129.454 30.6498 129.541 30.6498C129.699 30.6322 129.856 30.6498 130.031 30.6498H131.081C131.694 30.6498 132.149 31.1571 132.149 31.7522V32.4347C132.149 33.0122 131.659 33.5198 131.064 33.5198H130.294H130.206C128.911 33.5198 128.369 34.4998 128.351 35.7247L128.404 36.1798ZM120.284 36.1447H122.769C123.346 36.1447 123.836 36.6347 123.836 37.2298V37.9822C123.836 38.5598 123.346 39.0498 122.751 39.0498H120.266L120.249 44.4922C120.249 45.5422 120.756 46.1547 121.806 46.1547H122.314C122.891 46.1547 123.381 46.6447 123.381 47.2398V47.9922C123.381 48.5698 122.891 49.0598 122.296 49.0598H121.351C121.176 49.0598 121.001 49.0598 120.826 49.0422C118.149 48.8671 116.959 47.1347 116.959 44.5098C116.976 40.9747 116.976 37.4747 116.994 33.9398C116.994 33.3622 117.484 32.8722 118.079 32.8722H119.234C119.811 32.8722 120.301 33.3622 120.301 33.9571V36.1447H120.284ZM84.4087 36.0047H86.8937C87.4711 36.0047 87.9611 36.4947 87.9611 37.0898V37.8422C87.9611 38.4198 87.4711 38.9098 86.8762 38.9098H84.3911V44.3522C84.3911 45.4022 84.8987 46.0147 85.9487 46.0147H86.4562C87.0338 46.0147 87.5237 46.5047 87.5237 47.0998V47.8522C87.5237 48.4298 87.0337 48.9198 86.4387 48.9198H85.6862C82.7637 48.9022 81.0662 47.6422 81.0662 44.3698C81.0837 40.8347 81.0838 37.3347 81.1011 33.7998C81.1011 33.2222 81.5911 32.7322 82.1862 32.7322H83.3411C83.9187 32.7322 84.4087 33.2222 84.4087 33.8171V36.0047ZM69.8487 37.5447C71.0387 36.4422 72.3337 35.7247 73.9962 35.7247C77.6187 35.7422 79.5087 38.7171 79.4737 42.1122L79.4562 47.8347C79.4562 48.4471 78.9662 48.9198 78.3711 48.9198H77.1987C76.5862 48.9198 76.1137 48.4298 76.1137 47.8347L76.1311 42.1471C76.1311 40.2747 75.1162 38.8047 73.1387 38.8047C71.1787 38.8047 69.9537 40.4322 69.9362 42.2871L69.9187 47.8347C69.9187 48.4122 69.4287 48.9022 68.8337 48.9022H67.6787C67.1011 48.9022 66.6111 48.4122 66.6111 47.8171C66.6287 44.3698 66.6287 40.9047 66.6462 37.4571V36.9847C66.6462 36.4071 67.1362 35.9171 67.7311 35.9171H68.7111C69.3237 35.9171 69.7437 36.4247 69.7787 36.9847L69.8487 37.5447ZM105.794 37.6847C106.984 36.5822 108.279 35.8647 109.941 35.8647C113.564 35.8822 115.454 38.8571 115.419 42.2522V47.9922C115.419 48.6047 114.929 49.0771 114.334 49.0771H113.144C112.531 49.0771 112.059 48.5871 112.059 47.9922L112.076 42.3047C112.076 40.4322 111.061 38.9622 109.084 38.9622C107.124 38.9622 105.899 40.5898 105.881 42.4447L105.864 47.9922C105.864 48.5698 105.374 49.0598 104.779 49.0598H103.624C103.046 49.0598 102.556 48.5698 102.556 47.9747L102.591 37.1422C102.591 36.5647 103.081 36.0747 103.676 36.0747H104.656C105.269 36.0747 105.689 36.5822 105.724 37.1422L105.794 37.6847ZM58.8762 35.6198C54.9387 35.6022 52.1562 38.4371 52.1387 42.3571C52.1211 46.3122 54.8687 49.1122 58.8411 49.1298C62.8137 49.1471 65.5962 46.3647 65.6137 42.3922C65.6311 38.5071 62.7787 35.6371 58.8762 35.6198ZM91.5311 43.7047C91.8111 45.5247 93.5437 46.2598 95.2411 46.2947C96.0462 46.2947 96.9737 46.0847 97.7087 45.7522C97.8311 45.6998 97.9537 45.6471 98.0762 45.5771C98.4787 45.3498 98.8462 45.2098 99.2137 45.5771C99.4237 45.7871 99.5987 45.9798 99.7911 46.1547C99.9662 46.3298 100.159 46.5222 100.316 46.7322C100.859 47.4147 100.474 47.5722 99.8437 48.0098C98.5137 48.9022 96.7811 49.3398 95.1887 49.3398C90.9187 49.3222 88.0838 46.7147 88.0838 42.4098C88.1011 38.3322 90.9362 35.6371 94.9962 35.6547C99.1437 35.6722 101.506 38.1222 101.576 42.2698C101.594 43.4071 101.629 43.7571 100.474 43.7571L91.5311 43.7047ZM58.8762 38.6647C60.9062 38.6647 62.2711 40.4322 62.2711 42.3922C62.2711 44.4222 60.9937 46.0671 58.8587 46.0671C56.7237 46.0671 55.4637 44.4047 55.4637 42.3747C55.4811 40.3622 56.7587 38.6647 58.8762 38.6647ZM91.6187 40.9047L98.3211 40.9222C98.0762 39.2422 96.6937 38.5771 95.1011 38.5771C93.4911 38.5947 92.1087 39.3298 91.6187 40.9047Z" fill="#94A3B8"/>
</g>
</g>
</svg>
