<svg width="160" height="80" viewBox="0 0 160 80" fill="none" xmlns="http://www.w3.org/2000/svg">
<path d="M61.6199 29.8009H75.2123V30.8814H62.8659V39.0123H74.4762V40.0926H62.8659V49.0198H75.354V50.1001H61.6199V29.8009ZM76.4302 29.8009H77.8743L84.274 38.728L90.8154 29.8008L99.7126 18.4615L85.0952 39.6663L92.6277 50.1001H91.1269L84.274 40.6045L77.3928 50.1001H75.9203L83.5094 39.6661L76.4302 29.8009ZM93.1657 30.8814V29.8008H108.656V30.8812H101.519V50.1H100.273V30.8814H93.1657ZM44.6152 29.8008H46.1726L67.6491 61.9385L58.7742 50.1L45.9179 31.3361L45.8612 50.1003H44.6152V29.8008ZM108.53 48.6935C108.275 48.6935 108.084 48.4965 108.084 48.2414C108.084 47.9866 108.275 47.7894 108.53 47.7894C108.788 47.7894 108.976 47.9865 108.976 48.2414C108.976 48.4963 108.788 48.6935 108.53 48.6935ZM109.754 47.5041H110.421C110.43 47.8652 110.694 48.108 111.082 48.108C111.515 48.108 111.76 47.8471 111.76 47.3585V44.2632H112.439V47.3614C112.439 48.2414 111.93 48.7483 111.088 48.7483C110.297 48.7483 109.754 48.2568 109.754 47.5041ZM113.327 47.4648H114C114.058 47.8803 114.464 48.1443 115.049 48.1443C115.594 48.1443 115.994 47.8621 115.994 47.4737C115.994 47.14 115.74 46.9397 115.161 46.8032L114.597 46.6666C113.806 46.4814 113.445 46.0991 113.445 45.4558C113.445 44.6761 114.082 44.1571 115.036 44.1571C115.924 44.1571 116.573 44.676 116.612 45.4134H115.952C115.888 45.0098 115.536 44.7578 115.027 44.7578C114.491 44.7578 114.133 45.0158 114.133 45.4103C114.133 45.7228 114.364 45.902 114.933 46.0354L115.415 46.1537C116.312 46.3632 116.682 46.7274 116.682 47.3858C116.682 48.2232 116.034 48.7483 114.997 48.7483C114.027 48.7483 113.376 48.2477 113.327 47.4648Z" fill="#94A3B8"/>
</svg>
