<svg width="160" height="80" viewBox="0 0 160 80" fill="none" xmlns="http://www.w3.org/2000/svg">
<mask id="mask0_1838_1106" style="mask-type:luminance" maskUnits="userSpaceOnUse" x="10" y="26" width="139" height="28">
<path d="M148.405 26.1538H10.769V53.8461H148.405V26.1538Z" fill="white"/>
</mask>
<g mask="url(#mask0_1838_1106)">
<path d="M55.3067 37.7254V39.0111C54.9111 38.6154 53.9221 37.5934 51.8122 37.5934C48.7793 37.5934 45.9111 39.8681 45.9111 43.9231C45.9111 47.4834 48.2517 50.2855 51.8782 50.2855C54.2847 50.2855 55.1419 49.0988 55.4714 48.6043V49.89H58.8671V34.066H55.3067V37.7254ZM54.6804 46.0658C54.1199 46.6263 53.3287 46.956 52.4716 46.956C50.7902 46.956 49.5045 45.7361 49.5045 43.9231V43.8901C49.5045 42.5055 50.4605 40.9231 52.5374 40.9231C53.3616 40.9231 54.1199 41.2198 54.6473 41.7472C55.1748 42.2748 55.5374 43 55.5374 43.8571C55.5374 44.7472 55.2077 45.5054 54.6804 46.0658Z" fill="#94A3B8"/>
<path d="M66.2516 41.1868V37.5934C64.2078 37.5934 63.5815 38.6814 63.2187 39.3406V38.022H59.8892V49.89H63.4495V43.5274C63.4495 41.8462 64.3067 41.1868 66.1198 41.1868H66.2516Z" fill="#94A3B8"/>
<path d="M72.1861 37.6264C67.8675 37.6264 65.7905 41.022 65.7905 43.9231V43.956C65.7905 46.8571 67.8675 50.2855 72.1861 50.2855C76.5047 50.2855 78.5816 46.89 78.5816 43.956C78.5816 41.022 76.5376 37.6264 72.1861 37.6264ZM72.1861 46.956C70.6367 46.956 69.351 45.7032 69.351 43.9889V43.956C69.351 42.2088 70.6696 40.956 72.1861 40.956C73.7355 40.956 75.0211 42.2088 75.0211 43.956C75.0542 45.6703 73.7355 46.956 72.1861 46.956Z" fill="#94A3B8"/>
<path d="M101.229 40.7252L103.174 38.022H92.0646V40.7252H97.4052L90.5811 49.89H101.691V47.1868H96.5811L101.229 40.7252Z" fill="#94A3B8"/>
<path d="M107.691 37.6264C103.372 37.6264 101.295 41.022 101.295 43.9231V43.956C101.295 46.8571 103.372 50.2855 107.691 50.2855C112.01 50.2855 114.086 46.89 114.086 43.956C114.086 41.022 112.043 37.6264 107.691 37.6264ZM107.691 46.956C106.142 46.956 104.856 45.7032 104.856 43.9889V43.956C104.856 42.2088 106.174 40.956 107.691 40.956C109.24 40.956 110.526 42.2088 110.526 43.956C110.526 45.7032 109.24 46.956 107.691 46.956Z" fill="#94A3B8"/>
<path d="M121.438 37.5934C119.328 37.5934 118.57 38.6814 118.174 39.2748V38.022H114.845V49.89H118.405V43.4285C118.405 42.2088 118.669 40.956 120.449 40.956C122.031 40.956 122.328 42.1098 122.328 43.4285V49.89H125.889V42.4725C125.855 40.8571 125.427 37.5934 121.438 37.5934Z" fill="#94A3B8"/>
<path d="M137.196 39.5055C136.075 38.3188 134.526 37.6264 132.713 37.6264C129.086 37.6264 126.482 40.6923 126.482 44.022C126.482 47.5494 129.383 50.3186 132.779 50.3186C133.998 50.3186 135.185 49.956 136.174 49.2637C137.196 48.5714 138.02 47.5494 138.581 46.2308H134.954C134.526 46.8571 133.932 47.3515 132.779 47.3515C131.394 47.3515 130.174 46.5274 130.042 45.2417H138.877C139.141 43 138.713 41.0878 137.196 39.5055ZM130.075 42.5055C130.174 41.9451 130.899 40.6263 132.746 40.6263C134.592 40.6263 135.317 41.9451 135.416 42.5055H130.075Z" fill="#94A3B8"/>
<path d="M86.4272 37.5934C84.614 37.5934 83.4272 38.4175 82.669 39.3077V37.9891H79.3394V53.8131H82.8998V48.8351C83.3283 49.2966 84.3503 50.3186 86.4601 50.3186C89.8557 50.3186 92.2294 47.5165 92.2294 44.0878C92.2294 41.3186 90.6469 37.5934 86.4272 37.5934ZM88.6689 43.956C88.6689 45.4395 87.5481 46.9889 85.702 46.9889C84.8778 46.9889 84.1195 46.6592 83.5921 46.0988C83.0646 45.5714 82.7349 44.8131 82.7349 43.9889C82.7349 43.1318 83.0646 42.3735 83.559 41.8132C84.0866 41.2528 84.8447 40.9231 85.702 40.9231C87.6469 40.9231 88.6689 42.5385 88.6689 43.956Z" fill="#94A3B8"/>
<path d="M22.6371 30.11C18.2525 30.11 14.7251 33.6374 14.7251 38.022V45.934H22.6371C27.0217 45.934 30.5491 42.4066 30.5491 38.022C30.5491 33.6374 27.0217 30.11 22.6371 30.11ZM22.6371 43.956H16.7031V38.022C16.7031 34.7583 19.3734 32.088 22.6371 32.088C25.9008 32.088 28.5711 34.7583 28.5711 38.022C28.5711 41.2857 25.9008 43.956 22.6371 43.956Z" fill="#028BF4"/>
<path d="M22.6372 34.066C20.4615 34.066 18.6812 35.8461 18.6812 38.022V41.978H22.6372C24.813 41.978 26.5932 40.1978 26.5932 38.022C26.5932 35.8461 24.813 34.066 22.6372 34.066ZM22.6372 40H20.6592V38.022C20.6592 36.9341 21.5493 36.044 22.6372 36.044C23.7252 36.044 24.6152 36.9341 24.6152 38.022C24.6152 39.1098 23.7252 40 22.6372 40Z" fill="#028BF4"/>
<path d="M22.637 26.154H10.769V49.89H22.637C29.1974 49.89 34.505 44.5823 34.505 38.022C34.505 31.4617 29.1974 26.154 22.637 26.154ZM22.637 47.912H12.747V38.022C12.747 32.5495 17.1646 28.132 22.637 28.132C28.1095 28.132 32.527 32.5495 32.527 38.022C32.527 43.4945 28.1095 47.912 22.637 47.912Z" fill="#028BF4"/>
<path d="M143.526 41.6154C143.526 42.3737 143.46 42.7363 143.328 43.0329C143.196 43.2968 142.932 43.5934 142.669 43.7252C142.306 43.956 141.877 44.0549 141.482 44.0549C141.35 44.0549 139.767 44.0549 139.504 42.4724C139.471 42.3406 139.471 42.1758 139.471 42.0111H141.086V42.1758C141.119 42.4066 141.218 42.7032 141.515 42.7032C141.745 42.7032 141.877 42.5714 141.91 42.4395C141.976 42.2748 141.976 42.1098 141.976 41.9451V38.022H143.493V41.6154H143.526Z" fill="#94A3B8"/>
<path d="M145.701 42.0109C145.701 42.7032 146.13 42.8351 146.328 42.8351C146.69 42.8351 146.921 42.5384 146.921 42.2748C146.921 41.9451 146.657 41.8791 145.767 41.4835C145.339 41.3186 144.317 40.8901 144.317 39.7692C144.317 38.5825 145.405 37.9231 146.394 37.9231C147.218 37.9231 148.372 38.3517 148.405 39.7692H146.888C146.855 39.5714 146.822 39.1758 146.328 39.1758C146.064 39.1758 145.8 39.3737 145.8 39.6374C145.8 39.9011 145.965 39.9671 147.02 40.4615C148.141 40.956 148.405 41.4835 148.405 42.1758C148.405 43.1318 147.91 44.0878 146.328 44.0878C144.778 44.0878 144.152 43.1648 144.185 42.0109H145.701Z" fill="#94A3B8"/>
</g>
</svg>
