<svg width="160" height="80" viewBox="0 0 160 80" fill="none" xmlns="http://www.w3.org/2000/svg">
<g clip-path="url(#clip0_1838_1098)">
<mask id="mask0_1838_1098" style="mask-type:luminance" maskUnits="userSpaceOnUse" x="0" y="9" width="247" height="124">
<path d="M246.154 9.23077H0V132.308H246.154V9.23077Z" fill="white"/>
</mask>
<g mask="url(#mask0_1838_1098)">
<path d="M34.6228 26.2554C31.249 21.4302 24.5847 20 19.767 23.0679L11.3058 28.4568C10.736 28.8148 10.2051 29.2305 9.722 29.6975C9.23852 30.1646 8.80506 30.6809 8.42866 31.238C8.05195 31.7946 7.73414 32.3889 7.48035 33.0114C7.22701 33.6339 7.03871 34.2811 6.91917 34.9426C6.81903 35.4974 6.76475 36.0594 6.75688 36.6231C6.74945 37.1874 6.78848 37.7505 6.87395 38.3079C6.95943 38.8654 7.09074 39.4148 7.26728 39.9506C7.44318 40.4863 7.66308 41.006 7.92509 41.506C7.74421 41.7791 7.57821 42.0615 7.42646 42.352C7.27409 42.6426 7.1372 42.9405 7.0158 43.2446C6.89377 43.5488 6.78785 43.8591 6.69741 44.1743C6.60698 44.4891 6.53265 44.8086 6.47443 45.1314C6.35426 45.8071 6.30161 46.494 6.31709 47.1803C6.3332 47.8672 6.41745 48.5505 6.56858 49.22C6.72034 49.8903 6.93775 50.5431 7.21895 51.17C7.50017 51.7968 7.84332 52.3939 8.24284 52.9526C11.6168 57.7779 18.281 59.2074 23.0988 56.1402L31.5605 50.7735C32.1292 50.4149 32.6593 49.9992 33.1419 49.5317C33.625 49.064 34.0587 48.548 34.4352 47.9911C34.8112 47.4343 35.129 46.8403 35.3836 46.2179C35.6375 45.5959 35.8258 44.9492 35.9465 44.2877C36.1467 43.1765 36.1615 42.0397 35.9899 40.9237C35.9038 40.3668 35.7725 39.818 35.5959 39.2823C35.4201 38.7471 35.1996 38.2268 34.9376 37.7282C35.1178 37.4543 35.2844 37.1719 35.4362 36.8814C35.5885 36.5909 35.7255 36.2929 35.8475 35.9888C35.9695 35.6848 36.0761 35.3743 36.1672 35.0591C36.2575 34.7445 36.3325 34.4248 36.3913 34.1028C36.5113 33.4266 36.5638 32.7402 36.5481 32.0537C36.5319 31.3668 36.4476 30.6835 36.2959 30.014C36.1447 29.344 35.927 28.6909 35.6462 28.0642C35.3652 27.4374 35.0224 26.8402 34.6228 26.2814" fill="#FF3E00"/>
<path d="M18.9395 53.4197C17.6075 53.7652 16.2015 53.6939 14.9114 53.2152C14.2699 52.9777 13.6686 52.6435 13.1281 52.2242C12.5876 51.8051 12.1141 51.3062 11.7239 50.7445C11.4836 50.408 11.2779 50.0494 11.1088 49.6728C10.9397 49.2955 10.809 48.9029 10.718 48.5003C10.6276 48.0977 10.5768 47.6871 10.5675 47.2739C10.5582 46.8614 10.5904 46.4488 10.6629 46.0425C10.6753 45.9762 10.6883 45.9099 10.7025 45.8443C10.7168 45.7786 10.7329 45.7129 10.7496 45.6479C10.7663 45.5829 10.7843 45.5179 10.8035 45.4534C10.8227 45.3889 10.8431 45.3246 10.8642 45.2608L11.0234 44.7745L11.4582 45.0985C11.7072 45.2806 11.9642 45.4515 12.2281 45.612C12.4914 45.7725 12.762 45.9211 13.0383 46.0586C13.3146 46.1962 13.5964 46.3219 13.8838 46.4352C14.1706 46.5491 14.4623 46.6508 14.7578 46.7392L15.0817 46.8334L15.0526 47.158C15.0452 47.2677 15.047 47.3785 15.0582 47.4882C15.0694 47.5979 15.0904 47.7068 15.1208 47.8128C15.1505 47.9192 15.1895 48.0228 15.2378 48.1219C15.2855 48.2215 15.3419 48.3163 15.4063 48.4062C15.524 48.5752 15.667 48.7251 15.83 48.8515C15.9929 48.9772 16.1738 49.0775 16.367 49.1494C16.5603 49.2206 16.7635 49.2622 16.969 49.2728C17.1747 49.2832 17.381 49.2622 17.5804 49.2102C17.6256 49.1983 17.6715 49.1842 17.7161 49.1686C17.7607 49.1525 17.8047 49.1352 17.848 49.1166C17.8913 49.0974 17.9341 49.0769 17.9763 49.0546C18.0184 49.0323 18.0592 49.0088 18.0995 48.9834L26.5476 43.594C26.7552 43.4637 26.933 43.2912 27.0698 43.0879C27.138 42.9863 27.1955 42.8785 27.2413 42.7652C27.2872 42.6519 27.3213 42.5342 27.3424 42.414C27.4078 42.0435 27.3598 41.6622 27.2049 41.3195C27.1535 41.2055 27.0909 41.0977 27.0184 40.9968C26.9007 40.8277 26.7576 40.6777 26.5947 40.5514C26.267 40.2977 25.8695 40.1506 25.4556 40.1302C25.25 40.1197 25.0436 40.1408 24.8443 40.1922C24.7984 40.2045 24.7532 40.2182 24.7086 40.2343C24.6633 40.2497 24.6195 40.2671 24.5761 40.2863C24.5327 40.3049 24.49 40.326 24.4478 40.3475C24.4064 40.3699 24.3655 40.394 24.3252 40.4195L21.0807 42.4783C20.8158 42.6465 20.5386 42.794 20.2513 42.92C20.1076 42.9826 19.9621 43.0402 19.8141 43.0922C19.666 43.1443 19.5161 43.1902 19.3644 43.2309C18.7035 43.4012 18.0203 43.4706 17.3383 43.4354C16.6563 43.4006 15.9843 43.262 15.3438 43.0248C14.7039 42.7871 14.1038 42.4535 13.5642 42.0355C13.0243 41.6175 12.5514 41.1195 12.1618 40.5588C11.6822 39.8846 11.3417 39.1214 11.1603 38.3142C11.0698 37.9115 11.0203 37.5008 11.011 37.0883C11.0023 36.6757 11.0345 36.2632 11.1076 35.8569C11.2507 35.0574 11.5594 34.2966 12.0138 33.6232C12.2402 33.2877 12.501 32.9765 12.7918 32.6948C13.0829 32.4129 13.4025 32.1622 13.745 31.946L22.2198 26.5571C22.3512 26.4728 22.4861 26.3942 22.6236 26.3211C22.7612 26.2474 22.9018 26.1792 23.0443 26.116C23.1873 26.0529 23.3323 25.9952 23.479 25.9439C23.6266 25.8919 23.7758 25.8454 23.9263 25.8045C24.5878 25.6329 25.2723 25.5629 25.9555 25.5975C26.6387 25.6323 27.312 25.7705 27.953 26.0083C28.5941 26.2462 29.1956 26.5806 29.7358 27C30.2758 27.4186 30.749 27.9179 31.1387 28.4797C31.6206 29.1529 31.9629 29.9157 32.1458 30.7232C32.2369 31.1259 32.2877 31.5371 32.297 31.9497C32.3069 32.3625 32.2753 32.7752 32.2029 33.1817C32.1898 33.2486 32.1763 33.3148 32.1613 33.3811C32.1472 33.4474 32.131 33.5131 32.1143 33.5788C32.0975 33.6443 32.0797 33.71 32.061 33.7751C32.0418 33.8402 32.022 33.9051 32.0015 33.9695L31.8393 34.4559L31.4075 34.1319C31.158 33.9485 30.9007 33.776 30.6364 33.6146C30.372 33.4529 30.1006 33.3031 29.8237 33.1643C29.5466 33.0259 29.2637 32.8992 28.9758 32.7846C28.6877 32.67 28.3947 32.5679 28.0986 32.478L27.7741 32.3839L27.8032 32.0599C27.8124 31.9491 27.8118 31.8382 27.802 31.7272C27.7921 31.6168 27.7721 31.5072 27.7424 31.4003C27.7133 31.2931 27.675 31.1891 27.6273 31.0886C27.5796 30.9883 27.5238 30.8923 27.4593 30.8012C27.3409 30.6354 27.198 30.4882 27.0358 30.3646C26.873 30.2414 26.6926 30.1434 26.5006 30.074C26.3089 30.0045 26.1078 29.9646 25.9041 29.9557C25.6996 29.9465 25.496 29.9682 25.2983 30.0202C25.2524 30.032 25.2072 30.0462 25.1626 30.0617C25.1181 30.0772 25.0735 30.0945 25.0301 30.1137C24.9867 30.1329 24.944 30.1534 24.9024 30.1757C24.8604 30.198 24.8195 30.2215 24.7792 30.2469L16.315 35.6265C16.1084 35.7574 15.9312 35.9294 15.7941 36.1319C15.726 36.2329 15.6683 36.3406 15.6218 36.4534C15.576 36.5668 15.542 36.6839 15.5203 36.804C15.4986 36.9266 15.49 37.0511 15.493 37.1763C15.4967 37.3008 15.5123 37.4246 15.5401 37.5466C15.568 37.6682 15.6076 37.7865 15.6584 37.9003C15.7098 38.0143 15.7718 38.1226 15.8443 38.2243C15.9613 38.3915 16.1032 38.5402 16.2649 38.6652C16.4264 38.7905 16.6061 38.8908 16.7981 38.962C16.9895 39.0332 17.1909 39.0754 17.3946 39.0865C17.599 39.0977 17.8035 39.0785 18.0023 39.0283C18.0475 39.0159 18.0927 39.0017 18.138 38.9862C18.1826 38.97 18.2264 38.9528 18.2698 38.9335C18.3132 38.9149 18.356 38.8945 18.3981 38.8722C18.4395 38.8499 18.481 38.8263 18.5213 38.8015L21.7652 36.7451C21.8978 36.6609 22.0333 36.5809 22.1721 36.5066C22.3103 36.4323 22.4515 36.3635 22.5958 36.3005C22.7395 36.2372 22.8856 36.1795 23.0344 36.1275C23.1824 36.0762 23.3329 36.0297 23.4847 35.99C24.1469 35.8179 24.8306 35.7472 25.5138 35.7814C26.1967 35.8159 26.8703 35.9542 27.5115 36.1914C28.1527 36.4289 28.754 36.7631 29.2941 37.1825C29.8349 37.6011 30.3075 38.1005 30.697 38.6615C30.9373 38.9979 31.1436 39.3566 31.3127 39.7332C31.4818 40.1103 31.6132 40.5025 31.7043 40.9057C31.7953 41.3083 31.8461 41.7189 31.8553 42.1315C31.8653 42.5446 31.8336 42.9572 31.7612 43.3635C31.69 43.7623 31.5773 44.1526 31.4249 44.528C31.2724 44.9032 31.0815 45.2614 30.855 45.5971C30.6289 45.9328 30.3681 46.2445 30.077 46.5262C29.786 46.808 29.4663 47.0589 29.1238 47.2745L20.6589 52.664C20.5264 52.7482 20.3907 52.8275 20.252 52.9012C20.1132 52.9749 19.972 53.0437 19.8283 53.1068C19.684 53.17 19.5378 53.2277 19.3898 53.2803C19.2416 53.3323 19.0912 53.3788 18.9395 53.4197Z" fill="white"/>
<path d="M54.7898 49.6091C54.3982 49.6189 54.0068 49.5998 53.6184 49.5509C53.2301 49.5025 52.8454 49.4245 52.4688 49.3186C52.0922 49.212 51.7236 49.0777 51.3674 48.9166C51.0107 48.7552 50.6667 48.5671 50.3381 48.3542C50.0321 48.1522 49.7441 47.9249 49.477 47.674C49.2101 47.4232 48.9648 47.15 48.7436 46.8577C48.5231 46.5646 48.3281 46.2543 48.1602 45.9286C47.9924 45.6028 47.853 45.2632 47.7427 44.914L50.4451 43.9186C50.5387 44.1335 50.6465 44.3415 50.7691 44.5417C50.8918 44.7417 51.0281 44.9331 51.1773 45.1134C51.3273 45.2943 51.4888 45.4646 51.6624 45.6226C51.8356 45.7806 52.0199 45.9263 52.2136 46.0586C52.4099 46.1906 52.6168 46.3071 52.8311 46.4074C53.0454 46.5077 53.2673 46.5914 53.4945 46.6582C53.7219 46.7251 53.9536 46.7746 54.1882 46.8057C54.423 46.8372 54.6596 46.8508 54.8962 46.8465C55.1236 46.8583 55.351 46.8508 55.5764 46.8235C55.8019 46.7963 56.0248 46.7492 56.2422 46.6835C56.4596 46.618 56.6708 46.5337 56.8741 46.4315C57.0771 46.3297 57.271 46.2103 57.4531 46.0748C57.6124 45.9409 57.7561 45.7886 57.8805 45.6214C58.1296 45.2857 58.2973 44.8968 58.3705 44.4854C58.4065 44.2797 58.4188 44.0709 58.4071 43.8634C58.4078 43.7668 58.4033 43.6695 58.3922 43.5735C58.3818 43.4775 58.3656 43.3822 58.3433 43.288C58.321 43.1938 58.2931 43.1009 58.2602 43.0105C58.2268 42.9194 58.1878 42.8309 58.1439 42.7448C58.0679 42.5897 57.9796 42.4411 57.8799 42.3C57.8304 42.2294 57.7778 42.1606 57.7227 42.0945C57.6681 42.0275 57.6105 41.9637 57.5504 41.9011C57.4742 41.8323 57.3956 41.7662 57.3145 41.7029C57.2333 41.6397 57.1498 41.5797 57.0642 41.5232C56.9782 41.4665 56.8902 41.4131 56.8004 41.3629C56.7105 41.3134 56.6188 41.2663 56.5253 41.2235C56.0645 40.9937 55.6848 40.8185 55.3801 40.6983C55.0747 40.578 54.6274 40.4165 54.0402 40.2151C53.3001 39.9555 52.7419 39.7549 52.379 39.6055C52.2539 39.5529 52.1307 39.4978 52.0073 39.4414C51.8847 39.3845 51.7627 39.3257 51.6419 39.2649C51.5205 39.2035 51.401 39.1411 51.2821 39.076C51.1631 39.0115 51.0454 38.9446 50.9284 38.876C50.8027 38.8094 50.6798 38.738 50.5598 38.6617C50.4398 38.5851 50.3228 38.5038 50.2091 38.4182C50.0958 38.3325 49.9859 38.2422 49.8796 38.1475C49.7733 38.0529 49.6708 37.9542 49.5724 37.8514C49.4876 37.7505 49.407 37.6471 49.3302 37.5398C49.2541 37.4328 49.1816 37.3231 49.1134 37.2103C49.0459 37.0975 48.9828 36.9825 48.9239 36.8648C48.8651 36.7471 48.8105 36.6275 48.7616 36.5054C48.4759 35.8114 48.3574 35.0597 48.4159 34.3114C48.4744 33.5629 48.7079 32.8388 49.0979 32.1974C49.357 31.7706 49.6814 31.3871 50.0593 31.0608C51.1668 30.0858 52.6688 29.5985 54.5654 29.5985C56.153 29.5985 57.4576 29.9477 58.4784 30.6458C58.7242 30.8094 58.9559 30.994 59.1696 31.1971C59.3839 31.4009 59.5796 31.6226 59.755 31.8605C59.9302 32.0977 60.0845 32.3505 60.2158 32.6149C60.3471 32.8794 60.4548 33.1545 60.5385 33.4382L57.8844 34.3232C57.8174 34.1746 57.7387 34.0309 57.649 33.8946C57.5591 33.7583 57.4588 33.6289 57.3491 33.5082C57.1287 33.2663 56.8713 33.0611 56.5867 32.8998C56.4164 32.8057 56.2391 32.7234 56.057 32.6534C55.875 32.5834 55.6885 32.5251 55.499 32.4805C55.3094 32.436 55.1168 32.4037 54.9222 32.3845C54.7284 32.366 54.5333 32.3603 54.3382 32.3678C54.1474 32.3566 53.9561 32.3615 53.7653 32.382C53.5751 32.4025 53.3868 32.4385 53.2028 32.4898C53.0182 32.5418 52.8385 32.6082 52.6651 32.6892C52.4918 32.7705 52.3258 32.8658 52.1678 32.9742C52.039 33.0746 51.9219 33.1903 51.8202 33.3186C51.7187 33.4468 51.6325 33.5868 51.5645 33.7354C51.4964 33.8842 51.4468 34.0408 51.4158 34.2018C51.3854 34.3623 51.3744 34.5265 51.383 34.6894C51.3854 34.9406 51.4405 35.1885 51.5447 35.4171C51.5973 35.5311 51.6611 35.6395 51.7354 35.7398C51.8102 35.8406 51.8953 35.9332 51.9894 36.0162C52.081 36.106 52.177 36.1914 52.2768 36.2726C52.3765 36.3537 52.4793 36.4305 52.5865 36.5023C52.7999 36.6458 53.0258 36.7697 53.2616 36.8722C53.7027 37.0568 54.3771 37.3032 55.2791 37.6178C55.831 37.8223 56.2528 37.9709 56.5091 38.0751C56.765 38.1785 57.1578 38.3438 57.6836 38.5842C57.787 38.63 57.8893 38.6777 57.9908 38.7278C58.0924 38.778 58.1928 38.8302 58.2919 38.884C58.391 38.9385 58.4894 38.9943 58.5867 39.0525C58.6833 39.1108 58.7793 39.1708 58.8741 39.2328C58.959 39.2934 59.0427 39.356 59.1256 39.4192C59.2918 39.5458 59.4541 39.6774 59.6125 39.8137C59.6918 39.8812 59.7704 39.9506 59.8471 40.0206C60.0967 40.2374 60.3194 40.4831 60.5107 40.7528C60.5744 40.8426 60.6345 40.9349 60.6908 41.0291C60.7447 41.1275 60.7956 41.2272 60.8433 41.3288C60.9388 41.5314 61.0218 41.7397 61.0916 41.9526C61.1267 42.0588 61.1587 42.166 61.1876 42.274C61.223 42.4011 61.2539 42.5292 61.2799 42.658C61.3065 42.7869 61.3282 42.9163 61.3456 43.0471C61.363 43.1771 61.3759 43.3085 61.3839 43.4397C61.3927 43.5711 61.3958 43.7023 61.3951 43.8343C61.3951 45.6411 60.7776 47.0552 59.5425 48.0754C58.3073 49.0955 56.723 49.6072 54.7898 49.6091ZM72.5104 49.2851L65.8753 29.936H68.9705L73.3665 43.4186C73.4271 43.6002 73.4854 43.7823 73.5411 43.9657C73.5968 44.1483 73.6508 44.3323 73.7016 44.5163C73.8031 44.8852 73.8948 45.2568 73.9765 45.6306C74.0168 45.4435 74.0596 45.2571 74.1054 45.0712C74.1507 44.8854 74.1984 44.7009 74.2491 44.5163C74.2999 44.3317 74.3531 44.1483 74.409 43.9651C74.4641 43.7823 74.5228 43.6002 74.5836 43.4186L78.9244 29.936H81.9936L75.3845 49.2783L72.5104 49.2851ZM87.8533 49.2851V29.936H99.8575V32.6434H90.7304V37.9486H96.6191V40.6562H90.7304V46.5578H100.464V49.2652L87.8533 49.2851ZM107.787 49.2851V29.936H110.664V46.5157H120.118V49.2783L107.787 49.2851ZM130.954 32.7048V49.2783H128.08V32.6986H122.607V29.936H136.421V32.6986L130.954 32.7048ZM142.375 49.2851V29.936H154.379V32.6434H145.249V37.9486H151.138V40.6562H145.249V46.5578H154.983V49.2652L142.375 49.2851Z" fill="#94A3B8"/>
</g>
</g>
<defs>
<clipPath id="clip0_1838_1098">
<rect width="160" height="80" fill="white"/>
</clipPath>
</defs>
</svg>
