<svg width="636" height="400" viewBox="0 0 636 400" fill="none" xmlns="http://www.w3.org/2000/svg">
<g clip-path="url(#clip0_1806_523)">
<rect width="636" height="400" fill="#E2E8F0"/>
<g filter="url(#filter0_d_1806_523)">
<rect width="636" height="44" fill="white"/>
<circle cx="22" cy="22" r="10" fill="#E2E8F0"/>
<path d="M232 22H263" stroke="#CBD5E1" stroke-width="5" stroke-linecap="round"/>
<path d="M279 22H310" stroke="#8B3DFF" stroke-width="5" stroke-linecap="round"/>
<path d="M326 22H357" stroke="#CBD5E1" stroke-width="5" stroke-linecap="round"/>
<path d="M373 22H404" stroke="#CBD5E1" stroke-width="5" stroke-linecap="round"/>
<rect x="540" y="14" width="40" height="16" rx="4" fill="#E2E8F0"/>
<rect x="584" y="14" width="40" height="16" rx="4" fill="#8B3DFF"/>
</g>
<g filter="url(#filter1_d_1806_523)">
<rect x="129" y="45" width="378" height="216" rx="6" fill="white"/>
<rect x="141" y="57" width="36" height="4" rx="2" fill="#94A3B8"/>
<rect x="141" y="73" width="80" height="4" rx="2" fill="#E2E8F0"/>
<rect x="141" y="89" width="35" height="4" rx="2" fill="#E2E8F0"/>
<rect x="141" y="105" width="42" height="4" rx="2" fill="#E2E8F0"/>
<rect x="141" y="121" width="33" height="4" rx="2" fill="#E2E8F0"/>
<rect x="141" y="137" width="42" height="4" rx="2" fill="#E2E8F0"/>
<rect x="141" y="153" width="54" height="4" rx="2" fill="#8B3DFF"/>
<rect x="141" y="169" width="46" height="4" rx="2" fill="#E2E8F0"/>
<rect x="141" y="185" width="46" height="4" rx="2" fill="#E2E8F0"/>
<rect x="141" y="201" width="33" height="4" rx="2" fill="#E2E8F0"/>
<rect x="245" y="57" width="36" height="4" rx="2" fill="#94A3B8"/>
<rect x="245" y="73" width="80" height="4" rx="2" fill="#E2E8F0"/>
<rect x="245" y="89" width="35" height="4" rx="2" fill="#E2E8F0"/>
<rect x="245" y="105" width="42" height="4" rx="2" fill="#E2E8F0"/>
<rect x="245" y="121" width="46" height="4" rx="2" fill="#E2E8F0"/>
<rect x="245" y="137" width="46" height="4" rx="2" fill="#E2E8F0"/>
<rect x="245" y="153" width="33" height="4" rx="2" fill="#E2E8F0"/>
<rect x="245" y="181" width="36" height="4" rx="2" fill="#94A3B8"/>
<rect x="245" y="197" width="42" height="4" rx="2" fill="#E2E8F0"/>
<rect x="245" y="213" width="46" height="4" rx="2" fill="#E2E8F0"/>
<rect x="245" y="229" width="46" height="4" rx="2" fill="#E2E8F0"/>
<rect x="245" y="245" width="33" height="4" rx="2" fill="#E2E8F0"/>
<rect x="349" y="57" width="36" height="4" rx="2" fill="#94A3B8"/>
<rect x="349" y="73" width="80" height="4" rx="2" fill="#E2E8F0"/>
<rect x="349" y="89" width="35" height="4" rx="2" fill="#E2E8F0"/>
<rect x="349" y="105" width="42" height="4" rx="2" fill="#E2E8F0"/>
<rect x="349" y="121" width="33" height="4" rx="2" fill="#E2E8F0"/>
<rect x="349" y="137" width="46" height="4" rx="2" fill="#E2E8F0"/>
<rect x="349" y="153" width="46" height="4" rx="2" fill="#E2E8F0"/>
<rect x="349" y="169" width="33" height="4" rx="2" fill="#E2E8F0"/>
<rect x="453" y="57" width="36" height="4" rx="2" fill="#94A3B8"/>
<rect x="453" y="73" width="35" height="4" rx="2" fill="#E2E8F0"/>
<rect x="453" y="89" width="42" height="4" rx="2" fill="#E2E8F0"/>
<rect x="453" y="105" width="33" height="4" rx="2" fill="#E2E8F0"/>
</g>
</g>
<defs>
<filter id="filter0_d_1806_523" x="-4" y="-3" width="644" height="52" filterUnits="userSpaceOnUse" color-interpolation-filters="sRGB">
<feFlood flood-opacity="0" result="BackgroundImageFix"/>
<feColorMatrix in="SourceAlpha" type="matrix" values="0 0 0 0 0 0 0 0 0 0 0 0 0 0 0 0 0 0 127 0" result="hardAlpha"/>
<feOffset dy="1"/>
<feGaussianBlur stdDeviation="2"/>
<feColorMatrix type="matrix" values="0 0 0 0 0.559444 0 0 0 0 0.559444 0 0 0 0 0.633333 0 0 0 0.24 0"/>
<feBlend mode="normal" in2="BackgroundImageFix" result="effect1_dropShadow_1806_523"/>
<feBlend mode="normal" in="SourceGraphic" in2="effect1_dropShadow_1806_523" result="shape"/>
</filter>
<filter id="filter1_d_1806_523" x="92.3746" y="32.7915" width="451.251" height="289.251" filterUnits="userSpaceOnUse" color-interpolation-filters="sRGB">
<feFlood flood-opacity="0" result="BackgroundImageFix"/>
<feColorMatrix in="SourceAlpha" type="matrix" values="0 0 0 0 0 0 0 0 0 0 0 0 0 0 0 0 0 0 127 0" result="hardAlpha"/>
<feOffset dy="24.4169"/>
<feGaussianBlur stdDeviation="18.3127"/>
<feColorMatrix type="matrix" values="0 0 0 0 0.117647 0 0 0 0 0.160784 0 0 0 0 0.231373 0 0 0 0.17 0"/>
<feBlend mode="normal" in2="BackgroundImageFix" result="effect1_dropShadow_1806_523"/>
<feBlend mode="normal" in="SourceGraphic" in2="effect1_dropShadow_1806_523" result="shape"/>
</filter>
<clipPath id="clip0_1806_523">
<rect width="636" height="400" fill="white"/>
</clipPath>
</defs>
</svg>
