<svg width="636" height="400" viewBox="0 0 636 400" fill="none" xmlns="http://www.w3.org/2000/svg">
<g clip-path="url(#clip0_1811_398)">
<rect width="636" height="400" fill="#E2E8F0"/>
<g filter="url(#filter0_d_1811_398)">
<rect width="636" height="44" fill="white"/>
<circle cx="22" cy="22" r="10" fill="#E2E8F0"/>
<path d="M232 22H263" stroke="#CBD5E1" stroke-width="5" stroke-linecap="round"/>
<path d="M279 22H310" stroke="#8B3DFF" stroke-width="5" stroke-linecap="round"/>
<path d="M326 22H357" stroke="#CBD5E1" stroke-width="5" stroke-linecap="round"/>
<path d="M373 22H404" stroke="#CBD5E1" stroke-width="5" stroke-linecap="round"/>
<rect x="540" y="14" width="40" height="16" rx="4" fill="#E2E8F0"/>
<rect x="584" y="14" width="40" height="16" rx="4" fill="#8B3DFF"/>
</g>
<g filter="url(#filter1_d_1811_398)">
<rect x="257" y="45" width="122" height="108" rx="6" fill="white"/>
<path d="M273.125 62.25C273.026 62.25 272.93 62.2895 272.86 62.3598C272.79 62.4302 272.75 62.5255 272.75 62.625C272.75 62.7245 272.79 62.8198 272.86 62.8902C272.93 62.9605 273.026 63 273.125 63H276.875C276.974 63 277.07 62.9605 277.14 62.8902C277.21 62.8198 277.25 62.7245 277.25 62.625C277.25 62.5255 277.21 62.4302 277.14 62.3598C277.07 62.2895 276.974 62.25 276.875 62.25H273.125ZM272.75 64.125C272.75 64.0255 272.79 63.9302 272.86 63.8598C272.93 63.7895 273.026 63.75 273.125 63.75H276.875C276.974 63.75 277.07 63.7895 277.14 63.8598C277.21 63.9302 277.25 64.0255 277.25 64.125C277.25 64.2245 277.21 64.3198 277.14 64.3902C277.07 64.4605 276.974 64.5 276.875 64.5H273.125C273.026 64.5 272.93 64.4605 272.86 64.3902C272.79 64.3198 272.75 64.2245 272.75 64.125ZM272.75 65.625C272.75 65.5255 272.79 65.4302 272.86 65.3598C272.93 65.2895 273.026 65.25 273.125 65.25H274.625C274.724 65.25 274.82 65.2895 274.89 65.3598C274.96 65.4302 275 65.5255 275 65.625C275 65.7245 274.96 65.8198 274.89 65.8902C274.82 65.9605 274.724 66 274.625 66H273.125C273.026 66 272.93 65.9605 272.86 65.8902C272.79 65.8198 272.75 65.7245 272.75 65.625Z" fill="#8B3DFF"/>
<path d="M276.125 57H272C271.602 57 271.221 57.158 270.939 57.4393C270.658 57.7206 270.5 58.1022 270.5 58.5V67.5C270.5 67.8978 270.658 68.2794 270.939 68.5607C271.221 68.842 271.602 69 272 69H278C278.398 69 278.779 68.842 279.061 68.5607C279.342 68.2794 279.5 67.8978 279.5 67.5V60.375L276.125 57ZM276.125 57.75V59.25C276.125 59.5484 276.244 59.8345 276.455 60.0455C276.665 60.2565 276.952 60.375 277.25 60.375H278.75V67.5C278.75 67.6989 278.671 67.8897 278.53 68.0303C278.39 68.171 278.199 68.25 278 68.25H272C271.801 68.25 271.61 68.171 271.47 68.0303C271.329 67.8897 271.25 67.6989 271.25 67.5V58.5C271.25 58.3011 271.329 58.1103 271.47 57.9697C271.61 57.829 271.801 57.75 272 57.75H276.125Z" fill="#8B3DFF"/>
<rect x="287" y="57" width="80" height="4" rx="2" fill="#CBD5E1"/>
<rect x="287" y="65" width="35" height="4" rx="2" fill="#E2E8F0"/>
<g clip-path="url(#clip1_1811_398)">
<path fill-rule="evenodd" clip-rule="evenodd" d="M272 82.5C272 82.1022 272.158 81.7206 272.439 81.4393C272.721 81.158 273.102 81 273.5 81H279.5C279.898 81 280.279 81.158 280.561 81.4393C280.842 81.7206 281 82.1022 281 82.5V88.5C281 88.8978 280.842 89.2794 280.561 89.5607C280.279 89.842 279.898 90 279.5 90H273.5C273.102 90 272.721 89.842 272.439 89.5607C272.158 89.2794 272 88.8978 272 88.5V82.5ZM273.5 81.75C273.301 81.75 273.11 81.829 272.97 81.9697C272.829 82.1103 272.75 82.3011 272.75 82.5V88.5C272.75 88.6989 272.829 88.8897 272.97 89.0303C273.11 89.171 273.301 89.25 273.5 89.25H279.5C279.699 89.25 279.89 89.171 280.03 89.0303C280.171 88.8897 280.25 88.6989 280.25 88.5V82.5C280.25 82.3011 280.171 82.1103 280.03 81.9697C279.89 81.829 279.699 81.75 279.5 81.75H273.5ZM270.5 84.75C270.301 84.75 270.11 84.829 269.97 84.9697C269.829 85.1103 269.75 85.3011 269.75 85.5V91.5C269.75 91.6989 269.829 91.8897 269.97 92.0303C270.11 92.171 270.301 92.25 270.5 92.25H276.5C276.699 92.25 276.89 92.171 277.03 92.0303C277.171 91.8897 277.25 91.6989 277.25 91.5V90.75H278V91.5C278 91.8978 277.842 92.2794 277.561 92.5607C277.279 92.842 276.898 93 276.5 93H270.5C270.102 93 269.721 92.842 269.439 92.5607C269.158 92.2794 269 91.8978 269 91.5V85.5C269 85.1022 269.158 84.7206 269.439 84.4393C269.721 84.158 270.102 84 270.5 84H271.25V84.75H270.5Z" fill="#8B3DFF"/>
</g>
<rect x="287" y="81" width="43" height="4" rx="2" fill="#CBD5E1"/>
<rect x="287" y="89" width="35" height="4" rx="2" fill="#E2E8F0"/>
<g clip-path="url(#clip2_1811_398)">
<path d="M272 106.125H271.25C270.852 106.125 270.471 106.283 270.189 106.564C269.908 106.846 269.75 107.227 269.75 107.625V115.5C269.75 115.898 269.908 116.279 270.189 116.561C270.471 116.842 270.852 117 271.25 117H278.75C279.148 117 279.529 116.842 279.811 116.561C280.092 116.279 280.25 115.898 280.25 115.5V107.625C280.25 107.227 280.092 106.846 279.811 106.564C279.529 106.283 279.148 106.125 278.75 106.125H278V106.875H278.75C278.949 106.875 279.14 106.954 279.28 107.095C279.421 107.235 279.5 107.426 279.5 107.625V115.5C279.5 115.699 279.421 115.89 279.28 116.03C279.14 116.171 278.949 116.25 278.75 116.25H271.25C271.051 116.25 270.86 116.171 270.72 116.03C270.579 115.89 270.5 115.699 270.5 115.5V107.625C270.5 107.426 270.579 107.235 270.72 107.095C270.86 106.954 271.051 106.875 271.25 106.875H272V106.125Z" fill="#8B3DFF"/>
<path d="M276.125 105.75C276.224 105.75 276.32 105.79 276.39 105.86C276.46 105.93 276.5 106.026 276.5 106.125V106.875C276.5 106.974 276.46 107.07 276.39 107.14C276.32 107.21 276.224 107.25 276.125 107.25H273.875C273.776 107.25 273.68 107.21 273.61 107.14C273.54 107.07 273.5 106.974 273.5 106.875V106.125C273.5 106.026 273.54 105.93 273.61 105.86C273.68 105.79 273.776 105.75 273.875 105.75H276.125ZM273.875 105C273.577 105 273.29 105.119 273.08 105.33C272.869 105.54 272.75 105.827 272.75 106.125V106.875C272.75 107.173 272.869 107.46 273.08 107.67C273.29 107.881 273.577 108 273.875 108H276.125C276.423 108 276.71 107.881 276.92 107.67C277.131 107.46 277.25 107.173 277.25 106.875V106.125C277.25 105.827 277.131 105.54 276.92 105.33C276.71 105.119 276.423 105 276.125 105H273.875Z" fill="#8B3DFF"/>
</g>
<rect x="287" y="105" width="61" height="4" rx="2" fill="#CBD5E1"/>
<rect x="287" y="113" width="35" height="4" rx="2" fill="#E2E8F0"/>
<g clip-path="url(#clip3_1811_398)">
<path d="M277.25 132C278.046 132 278.809 132.316 279.371 132.879C279.934 133.441 280.25 134.204 280.25 135C280.25 135.796 279.934 136.559 279.371 137.121C278.809 137.684 278.046 138 277.25 138H275C275.466 137.651 275.844 137.198 276.105 136.677C276.365 136.157 276.5 135.582 276.5 135C276.5 134.418 276.365 133.843 276.105 133.323C275.844 132.802 275.466 132.349 275 132H277.25ZM272.75 138C271.954 138 271.191 137.684 270.629 137.121C270.066 136.559 269.75 135.796 269.75 135C269.75 134.204 270.066 133.441 270.629 132.879C271.191 132.316 271.954 132 272.75 132C273.546 132 274.309 132.316 274.871 132.879C275.434 133.441 275.75 134.204 275.75 135C275.75 135.796 275.434 136.559 274.871 137.121C274.309 137.684 273.546 138 272.75 138ZM269 135C269 135.995 269.395 136.948 270.098 137.652C270.802 138.355 271.755 138.75 272.75 138.75H277.25C278.245 138.75 279.198 138.355 279.902 137.652C280.605 136.948 281 135.995 281 135C281 134.005 280.605 133.052 279.902 132.348C279.198 131.645 278.245 131.25 277.25 131.25H272.75C271.755 131.25 270.802 131.645 270.098 132.348C269.395 133.052 269 134.005 269 135Z" fill="#8B3DFF"/>
</g>
<rect x="287" y="129" width="58" height="4" rx="2" fill="#CBD5E1"/>
<rect x="287" y="137" width="35" height="4" rx="2" fill="#E2E8F0"/>
</g>
</g>
<defs>
<filter id="filter0_d_1811_398" x="-4" y="-3" width="644" height="52" filterUnits="userSpaceOnUse" color-interpolation-filters="sRGB">
<feFlood flood-opacity="0" result="BackgroundImageFix"/>
<feColorMatrix in="SourceAlpha" type="matrix" values="0 0 0 0 0 0 0 0 0 0 0 0 0 0 0 0 0 0 127 0" result="hardAlpha"/>
<feOffset dy="1"/>
<feGaussianBlur stdDeviation="2"/>
<feColorMatrix type="matrix" values="0 0 0 0 0.559444 0 0 0 0 0.559444 0 0 0 0 0.633333 0 0 0 0.24 0"/>
<feBlend mode="normal" in2="BackgroundImageFix" result="effect1_dropShadow_1811_398"/>
<feBlend mode="normal" in="SourceGraphic" in2="effect1_dropShadow_1811_398" result="shape"/>
</filter>
<filter id="filter1_d_1811_398" x="220.375" y="32.7915" width="195.251" height="181.251" filterUnits="userSpaceOnUse" color-interpolation-filters="sRGB">
<feFlood flood-opacity="0" result="BackgroundImageFix"/>
<feColorMatrix in="SourceAlpha" type="matrix" values="0 0 0 0 0 0 0 0 0 0 0 0 0 0 0 0 0 0 127 0" result="hardAlpha"/>
<feOffset dy="24.4169"/>
<feGaussianBlur stdDeviation="18.3127"/>
<feColorMatrix type="matrix" values="0 0 0 0 0.117647 0 0 0 0 0.160784 0 0 0 0 0.231373 0 0 0 0.17 0"/>
<feBlend mode="normal" in2="BackgroundImageFix" result="effect1_dropShadow_1811_398"/>
<feBlend mode="normal" in="SourceGraphic" in2="effect1_dropShadow_1811_398" result="shape"/>
</filter>
<clipPath id="clip0_1811_398">
<rect width="636" height="400" fill="white"/>
</clipPath>
<clipPath id="clip1_1811_398">
<rect width="12" height="12" fill="white" transform="translate(269 81)"/>
</clipPath>
<clipPath id="clip2_1811_398">
<rect width="12" height="12" fill="white" transform="translate(269 105)"/>
</clipPath>
<clipPath id="clip3_1811_398">
<rect width="12" height="12" fill="white" transform="translate(269 129)"/>
</clipPath>
</defs>
</svg>
