<svg width="636" height="400" viewBox="0 0 636 400" fill="none" xmlns="http://www.w3.org/2000/svg">
<g clip-path="url(#clip0_1806_379)">
<rect width="636" height="400" fill="#E2E8F0"/>
<g filter="url(#filter0_d_1806_379)">
<rect width="636" height="44" fill="white"/>
<circle cx="22" cy="22" r="10" fill="#E2E8F0"/>
<path d="M232 22H263" stroke="#CBD5E1" stroke-width="5" stroke-linecap="round"/>
<path d="M279 22H310" stroke="#8B3DFF" stroke-width="5" stroke-linecap="round"/>
<path d="M326 22H357" stroke="#CBD5E1" stroke-width="5" stroke-linecap="round"/>
<path d="M373 22H404" stroke="#CBD5E1" stroke-width="5" stroke-linecap="round"/>
<rect x="540" y="14" width="40" height="16" rx="4" fill="#E2E8F0"/>
<rect x="584" y="14" width="40" height="16" rx="4" fill="#8B3DFF"/>
</g>
<g filter="url(#filter1_d_1806_379)">
<rect x="82" y="45" width="472" height="222" rx="6" fill="white"/>
<rect x="94" y="57" width="80" height="48" rx="4" fill="#F1F5F9"/>
<rect x="94" y="111" width="35" height="4" rx="2" fill="#E2E8F0"/>
<rect x="186" y="57" width="80" height="48" rx="4" fill="#F1F5F9"/>
<rect x="186" y="111" width="35" height="4" rx="2" fill="#E2E8F0"/>
<rect x="278" y="57" width="80" height="48" rx="4" fill="#F1F5F9"/>
<rect x="278" y="111" width="35" height="4" rx="2" fill="#E2E8F0"/>
<rect x="370" y="57" width="80" height="48" rx="4" fill="#F1F5F9"/>
<rect x="370" y="111" width="35" height="4" rx="2" fill="#E2E8F0"/>
<rect x="462" y="57" width="80" height="48" rx="4" fill="#F1F5F9"/>
<rect x="462" y="111" width="35" height="4" rx="2" fill="#E2E8F0"/>
<rect x="94" y="127" width="80" height="48" rx="4" fill="#F1F5F9"/>
<rect x="94" y="181" width="35" height="4" rx="2" fill="#E2E8F0"/>
<rect x="186" y="127" width="80" height="48" rx="4" fill="#F1F5F9"/>
<rect x="186" y="181" width="35" height="4" rx="2" fill="#E2E8F0"/>
<rect x="278" y="127" width="80" height="48" rx="4" fill="#F1F5F9"/>
<rect x="278" y="181" width="35" height="4" rx="2" fill="#E2E8F0"/>
<rect x="370" y="127" width="80" height="48" rx="4" fill="#F1F5F9"/>
<rect x="370" y="181" width="35" height="4" rx="2" fill="#E2E8F0"/>
<rect x="462" y="127" width="80" height="48" rx="4" fill="#F1F5F9"/>
<rect x="462" y="181" width="35" height="4" rx="2" fill="#E2E8F0"/>
<rect x="94" y="197" width="80" height="48" rx="4" fill="#F1F5F9"/>
<rect x="94" y="251" width="35" height="4" rx="2" fill="#E2E8F0"/>
<rect x="186" y="197" width="80" height="48" rx="4" fill="#F1F5F9"/>
<rect x="186" y="251" width="35" height="4" rx="2" fill="#E2E8F0"/>
<rect x="278" y="197" width="80" height="48" rx="4" fill="#F1F5F9"/>
<rect x="278" y="251" width="35" height="4" rx="2" fill="#E2E8F0"/>
</g>
</g>
<defs>
<filter id="filter0_d_1806_379" x="-4" y="-3" width="644" height="52" filterUnits="userSpaceOnUse" color-interpolation-filters="sRGB">
<feFlood flood-opacity="0" result="BackgroundImageFix"/>
<feColorMatrix in="SourceAlpha" type="matrix" values="0 0 0 0 0 0 0 0 0 0 0 0 0 0 0 0 0 0 127 0" result="hardAlpha"/>
<feOffset dy="1"/>
<feGaussianBlur stdDeviation="2"/>
<feColorMatrix type="matrix" values="0 0 0 0 0.559444 0 0 0 0 0.559444 0 0 0 0 0.633333 0 0 0 0.24 0"/>
<feBlend mode="normal" in2="BackgroundImageFix" result="effect1_dropShadow_1806_379"/>
<feBlend mode="normal" in="SourceGraphic" in2="effect1_dropShadow_1806_379" result="shape"/>
</filter>
<filter id="filter1_d_1806_379" x="78" y="42" width="480" height="230" filterUnits="userSpaceOnUse" color-interpolation-filters="sRGB">
<feFlood flood-opacity="0" result="BackgroundImageFix"/>
<feColorMatrix in="SourceAlpha" type="matrix" values="0 0 0 0 0 0 0 0 0 0 0 0 0 0 0 0 0 0 127 0" result="hardAlpha"/>
<feOffset dy="1"/>
<feGaussianBlur stdDeviation="2"/>
<feColorMatrix type="matrix" values="0 0 0 0 0.559444 0 0 0 0 0.559444 0 0 0 0 0.633333 0 0 0 0.24 0"/>
<feBlend mode="normal" in2="BackgroundImageFix" result="effect1_dropShadow_1806_379"/>
<feBlend mode="normal" in="SourceGraphic" in2="effect1_dropShadow_1806_379" result="shape"/>
</filter>
<clipPath id="clip0_1806_379">
<rect width="636" height="400" fill="white"/>
</clipPath>
</defs>
</svg>
