<svg width="84" height="32" viewBox="0 0 84 32" fill="none" xmlns="http://www.w3.org/2000/svg">
<path d="M4.52905 4.28527L0.529054 6.42069C0.203389 6.59454 0 6.93368 0 7.30285V22.8515C0 23.205 0.186644 23.5323 0.490914 23.7122L8.04595 28.1808C8.37599 28.376 8.78858 28.3653 9.10805 28.1533L12.7165 25.7581C13.3198 25.3577 13.3108 24.4687 12.6994 24.0807L6.46409 20.1227C6.17509 19.9393 6 19.6207 6 19.2784V5.16743C6 4.41233 5.19517 3.92966 4.52905 4.28527Z" fill="#8B3DFF"/>
<path d="M15.53 13.2062L9.53 9.45625C8.86395 9.03997 8 9.51881 8 10.3042V14.6095C8 14.9703 8.19443 15.3032 8.50875 15.4805L10.3511 16.5195C10.6654 16.6968 10.8598 17.0297 10.8598 17.3905V19.4268C10.8598 19.7554 11.0213 20.0631 11.2917 20.2498L14.4319 22.4175C15.0952 22.8754 16 22.4006 16 21.5945V14.0542C16 13.7095 15.8224 13.389 15.53 13.2062Z" fill="#8B3DFF"/>
<path d="M22.776 25V7.648H29.388C31.74 7.648 33.468 8.04 34.572 8.824C35.676 9.608 36.228 10.74 36.228 12.22C36.228 13.044 36.016 13.772 35.592 14.404C35.176 15.028 34.42 15.592 33.324 16.096C34.06 16.296 34.648 16.56 35.088 16.888C35.536 17.216 35.868 17.572 36.084 17.956C36.308 18.34 36.456 18.732 36.528 19.132C36.6 19.532 36.636 19.916 36.636 20.284C36.636 21.892 36.096 23.08 35.016 23.848C33.936 24.616 32.172 25 29.724 25H22.776ZM26.868 21.892H29.856C30.72 21.892 31.372 21.696 31.812 21.304C32.26 20.904 32.484 20.412 32.484 19.828C32.484 19.412 32.376 19.056 32.16 18.76C31.952 18.456 31.66 18.224 31.284 18.064C30.916 17.896 30.488 17.812 30 17.812H26.868V21.892ZM26.868 14.62H30C30.328 14.62 30.628 14.58 30.9 14.5C31.172 14.42 31.412 14.3 31.62 14.14C31.828 13.98 31.992 13.784 32.112 13.552C32.232 13.312 32.292 13.04 32.292 12.736C32.292 12.104 32.056 11.616 31.584 11.272C31.112 10.928 30.52 10.756 29.808 10.756H26.868V14.62ZM42.5618 25.24C41.5298 25.24 40.7178 25.124 40.1258 24.892C39.5417 24.66 39.1137 24.36 38.8417 23.992C38.5697 23.616 38.3977 23.2 38.3257 22.744C38.2617 22.288 38.2297 21.836 38.2297 21.388V7.168H42.2257V20.86C42.2257 21.236 42.3137 21.564 42.4898 21.844C42.6657 22.116 43.0457 22.288 43.6298 22.36L44.1698 22.396V24.904C43.9138 24.992 43.6498 25.068 43.3778 25.132C43.1058 25.204 42.8338 25.24 42.5618 25.24ZM50.9631 25.24C49.7151 25.24 48.6311 24.976 47.7111 24.448C46.7911 23.912 46.0751 23.168 45.5631 22.216C45.0591 21.256 44.8071 20.14 44.8071 18.868C44.8071 17.572 45.0631 16.436 45.5751 15.46C46.0951 14.476 46.8191 13.712 47.7471 13.168C48.6751 12.624 49.7511 12.352 50.9751 12.352C52.2391 12.352 53.3271 12.628 54.2391 13.18C55.1591 13.724 55.8671 14.488 56.3631 15.472C56.8591 16.448 57.1071 17.58 57.1071 18.868C57.1071 20.108 56.8591 21.208 56.3631 22.168C55.8751 23.12 55.1711 23.872 54.2511 24.424C53.3311 24.968 52.2351 25.24 50.9631 25.24ZM50.9751 22.24C51.5351 22.24 51.9711 22.068 52.2831 21.724C52.5951 21.372 52.8151 20.928 52.9431 20.392C53.0711 19.848 53.1351 19.296 53.1351 18.736C53.1351 18.184 53.0751 17.644 52.9551 17.116C52.8351 16.588 52.6191 16.156 52.3071 15.82C51.9951 15.476 51.5511 15.304 50.9751 15.304C50.4151 15.304 49.9751 15.472 49.6551 15.808C49.3431 16.136 49.1191 16.564 48.9831 17.092C48.8551 17.612 48.7911 18.16 48.7911 18.736C48.7911 19.28 48.8511 19.824 48.9711 20.368C49.0991 20.904 49.3191 21.352 49.6311 21.712C49.9511 22.064 50.3991 22.24 50.9751 22.24ZM63.9534 12.352C65.0494 12.352 65.9894 12.584 66.7734 13.048C67.5574 13.504 68.1614 14.116 68.5854 14.884C69.0174 15.644 69.2534 16.476 69.2934 17.38H65.9334C65.8934 17.1 65.8014 16.808 65.6574 16.504C65.5214 16.2 65.3174 15.944 65.0454 15.736C64.7734 15.52 64.4174 15.412 63.9774 15.412C63.2654 15.412 62.6894 15.696 62.2494 16.264C61.8174 16.824 61.6014 17.672 61.6014 18.808C61.6014 19.928 61.8254 20.804 62.2734 21.436C62.7214 22.068 63.3174 22.384 64.0614 22.384C64.4934 22.384 64.8414 22.268 65.1054 22.036C65.3774 21.804 65.5814 21.536 65.7174 21.232C65.8534 20.928 65.9414 20.66 65.9814 20.428H69.2334C69.2094 21.3 68.9774 22.1 68.5374 22.828C68.1054 23.556 67.5014 24.14 66.7254 24.58C65.9494 25.02 65.0254 25.24 63.9534 25.24C62.7854 25.24 61.7374 24.98 60.8094 24.46C59.8894 23.932 59.1614 23.188 58.6254 22.228C58.0894 21.268 57.8214 20.144 57.8214 18.856C57.8214 17.568 58.0814 16.44 58.6014 15.472C59.1214 14.496 59.8414 13.732 60.7614 13.18C61.6894 12.628 62.7534 12.352 63.9534 12.352ZM83.1904 25H79.1824L76.0624 20.044L74.7904 21.448V25H70.7104V7.168H74.7904V17.248L78.7744 12.592H83.0944L78.5824 17.632L83.1904 25Z" fill="#0F172A"/>
</svg>
