<svg width="40" height="40" viewBox="0 0 40 40" fill="none" xmlns="http://www.w3.org/2000/svg">
<path d="M20.3254 20.5059C20.3254 17.6579 22.6343 15.3373 25.4941 15.3373C28.3421 15.3373 30.6627 17.6462 30.6627 20.5059C30.6627 23.3539 28.3538 25.6745 25.4941 25.6745C22.646 25.6745 20.3254 23.3539 20.3254 20.5059Z" fill="#1ABCFE"/>
<path d="M10 30.8313C10 27.9833 12.3089 25.6627 15.1686 25.6627H20.3372V30.8313C20.3372 33.6794 18.0284 36 15.1686 36C12.3089 36 10 33.6911 10 30.8313Z" fill="#0ACF83"/>
<path d="M20.3254 5.01172V15.3372H25.4941C28.3421 15.3372 30.6627 13.0284 30.6627 10.1686C30.6627 7.3206 28.3538 5 25.4941 5H20.3254V5.01172Z" fill="#FF7262"/>
<path d="M10 10.1803C10 13.0284 12.3089 15.349 15.1686 15.349H20.3372V5.01172H15.1686C12.3089 5.01172 10 7.3206 10 10.1803Z" fill="#F24E1E"/>
<path d="M10 20.5059C10 23.3539 12.3089 25.6745 15.1686 25.6745H20.3372V15.3373H15.1686C12.3089 15.3373 10 17.6579 10 20.5059Z" fill="#A259FF"/>
</svg>
