<svg width="40" height="40" viewBox="0 0 40 40" fill="none" xmlns="http://www.w3.org/2000/svg">
<path d="M37 19.8047C37 17.6186 34.2623 15.5469 30.065 14.2621C31.0336 9.9841 30.6031 6.58052 28.7063 5.49083C28.2691 5.23522 27.7578 5.11415 27.1996 5.11415V6.61415C27.509 6.61415 27.7578 6.67469 27.9664 6.78904C28.8812 7.3137 29.278 9.31146 28.9686 11.881C28.8946 12.5133 28.7735 13.1792 28.6256 13.8585C27.3072 13.5357 25.8677 13.2868 24.3543 13.1254C23.4462 11.881 22.5045 10.7509 21.5561 9.76213C23.7489 7.72401 25.8072 6.60742 27.2063 6.60742V5.10742C25.3565 5.10742 22.935 6.42581 20.4865 8.7128C18.0381 6.43926 15.6166 5.13433 13.7668 5.13433V6.63433C15.1592 6.63433 17.2242 7.74419 19.417 9.76886C18.4753 10.7576 17.5336 11.881 16.639 13.1254C15.1188 13.2868 13.6794 13.5357 12.361 13.8653C12.2063 13.1926 12.0919 12.5402 12.0112 11.9146C11.6951 9.34509 12.0852 7.34733 12.9933 6.81594C13.1951 6.69487 13.4574 6.64105 13.7668 6.64105V5.14105C13.2018 5.14105 12.6906 5.26213 12.2466 5.51774C10.3565 6.60742 9.93274 10.0043 10.9081 14.2689C6.72422 15.5603 4 17.6254 4 19.8047C4 21.9908 6.73767 24.0626 10.935 25.3473C9.96637 29.6254 10.3969 33.0289 12.2937 34.1186C12.7309 34.3742 13.2422 34.4953 13.8072 34.4953C15.657 34.4953 18.0785 33.1769 20.5269 30.8899C22.9753 33.1635 25.3969 34.4684 27.2466 34.4684C27.8117 34.4684 28.3229 34.3473 28.7668 34.0917C30.657 33.002 31.0807 29.6052 30.1054 25.3406C34.2758 24.0558 37 21.9841 37 19.8047ZM28.2422 15.3182C27.9933 16.1859 27.6839 17.0805 27.3341 17.9751C27.0583 17.437 26.7691 16.8989 26.4529 16.3608C26.1435 15.8227 25.8139 15.298 25.4843 14.7868C26.4395 14.928 27.361 15.1029 28.2422 15.3182ZM25.1614 22.4819C24.6368 23.3899 24.0987 24.2509 23.5404 25.0514C22.5381 25.1388 21.5224 25.1859 20.5 25.1859C19.4843 25.1859 18.4686 25.1388 17.4731 25.0581C16.9148 24.2576 16.37 23.4034 15.8453 22.502C15.3341 21.6209 14.87 20.7263 14.4462 19.8249C14.8632 18.9236 15.3341 18.0222 15.8386 17.1411C16.3632 16.233 16.9013 15.372 17.4596 14.5715C18.4619 14.4841 19.4776 14.437 20.5 14.437C21.5157 14.437 22.5314 14.4841 23.5269 14.5648C24.0852 15.3653 24.63 16.2195 25.1547 17.1209C25.6659 18.002 26.13 18.8967 26.5538 19.798C26.13 20.6993 25.6659 21.6007 25.1614 22.4819ZM27.3341 21.6074C27.6973 22.5088 28.0067 23.4101 28.2623 24.2845C27.3812 24.4998 26.4529 24.6814 25.491 24.8227C25.8206 24.3047 26.1502 23.7733 26.4596 23.2285C26.7691 22.6904 27.0583 22.1455 27.3341 21.6074ZM20.5135 28.7845C19.8879 28.1388 19.2623 27.4191 18.6435 26.6321C19.2489 26.659 19.8677 26.6792 20.4933 26.6792C21.1256 26.6792 21.7511 26.6657 22.3632 26.6321C21.7578 27.4191 21.1323 28.1388 20.5135 28.7845ZM15.509 24.8227C14.5538 24.6814 13.6323 24.5065 12.7511 24.2913C13 23.4236 13.3094 22.5289 13.6592 21.6343C13.935 22.1724 14.2242 22.7106 14.5404 23.2487C14.8565 23.7868 15.1794 24.3115 15.509 24.8227ZM20.4798 10.8249C21.1054 11.4706 21.7309 12.1904 22.3498 12.9774C21.7444 12.9505 21.1256 12.9303 20.5 12.9303C19.8677 12.9303 19.2422 12.9437 18.63 12.9774C19.2354 12.1904 19.861 11.4706 20.4798 10.8249ZM15.5022 14.7868C15.1726 15.3047 14.843 15.8361 14.5336 16.381C14.2242 16.9191 13.935 17.4572 13.6592 17.9953C13.296 17.094 12.9865 16.1926 12.7309 15.3182C13.6121 15.1097 14.5404 14.928 15.5022 14.7868ZM9.4148 23.2083C7.03363 22.1926 5.49327 20.8608 5.49327 19.8047C5.49327 18.7487 7.03363 17.4101 9.4148 16.4011C9.99328 16.1523 10.6256 15.9303 11.278 15.7218C11.6614 17.0402 12.1659 18.4124 12.7915 19.8182C12.1726 21.2173 11.6749 22.5828 11.2982 23.8944C10.6323 23.6859 10 23.4572 9.4148 23.2083ZM13.0336 32.8204C12.1188 32.2958 11.722 30.298 12.0314 27.7285C12.1054 27.0962 12.2265 26.4303 12.3744 25.7509C13.6928 26.0738 15.1323 26.3227 16.6457 26.4841C17.5538 27.7285 18.4955 28.8585 19.4439 29.8473C17.2511 31.8854 15.1928 33.002 13.7937 33.002C13.491 32.9953 13.2354 32.9348 13.0336 32.8204ZM28.9888 27.6949C29.3049 30.2644 28.9148 32.2621 28.0067 32.7935C27.8049 32.9146 27.5426 32.9684 27.2332 32.9684C25.8408 32.9684 23.7758 31.8585 21.583 29.8339C22.5247 28.8451 23.4664 27.7218 24.361 26.4774C25.8812 26.3159 27.3206 26.0671 28.639 25.7375C28.7937 26.4168 28.9148 27.0693 28.9888 27.6949ZM31.5785 23.2083C31 23.4572 30.3677 23.6792 29.7152 23.8877C29.3318 22.5693 28.8274 21.1971 28.2018 19.7913C28.8206 18.3922 29.3184 17.0267 29.6951 15.715C30.361 15.9236 30.9933 16.1523 31.5852 16.4011C33.9664 17.4168 35.5067 18.7487 35.5067 19.8047C35.5 20.8608 33.9596 22.1993 31.5785 23.2083Z" fill="#61DAFB"/>
<path d="M20.4934 22.8787C22.1911 22.8787 23.5674 21.5024 23.5674 19.8047C23.5674 18.107 22.1911 16.7307 20.4934 16.7307C18.7957 16.7307 17.4194 18.107 17.4194 19.8047C17.4194 21.5024 18.7957 22.8787 20.4934 22.8787Z" fill="#61DAFB"/>
</svg>
