<svg width="160" height="80" viewBox="0 0 160 80" fill="none" xmlns="http://www.w3.org/2000/svg">
<path d="M33.4876 39.542H28.3472V42.0134H33.3641C33.6607 42.0134 33.9326 41.8898 34.155 41.6922C34.3527 41.4945 34.4762 41.198 34.4762 40.8272C34.4835 40.5091 34.3881 40.1972 34.2044 39.9374C34.0067 39.6903 33.7842 39.542 33.4876 39.542ZM33.6607 36.5515C33.8832 36.4034 33.9819 36.082 33.9819 35.662C33.9819 35.2912 33.8832 35.0194 33.7101 34.8463C33.5372 34.698 33.3147 34.5992 33.0676 34.5992H28.3472V36.8235H32.9687C33.2158 36.8235 33.463 36.6998 33.6607 36.5515Z" fill="#94A3B8"/>
<path d="M41.1988 27.432H21.7982C21.1803 27.432 20.686 27.9263 20.686 28.5195V47.9449C20.686 48.538 21.1803 48.9088 21.7734 48.9088H24.6403V52.7889L28.1991 48.9334H41.1988C41.792 48.9334 42.1627 48.5628 42.1627 47.9449V28.5442C42.1627 27.9511 41.792 27.4568 41.1742 27.4568L41.1988 27.432ZM37.9367 43.1751C37.6894 43.6198 37.3188 43.9906 36.8739 44.2625C36.4043 44.5591 35.8853 44.8309 35.2922 44.9545C34.699 45.1028 34.0565 45.2263 33.3891 45.2263H24.6403V31.3863H34.5754C35.0697 31.3863 35.4899 31.4852 35.8853 31.7075C36.256 31.9054 36.602 32.1772 36.8739 32.4985C37.4276 33.1737 37.7251 34.0226 37.7142 34.8958C37.7142 35.5383 37.5411 36.1562 37.2199 36.7494C36.8868 37.346 36.3653 37.8152 35.737 38.0838C36.5279 38.3063 37.1457 38.7017 37.6153 39.2702C38.0602 39.8634 38.2827 40.6294 38.2827 41.5934C38.2827 42.2112 38.159 42.7302 37.9119 43.1751H37.9367Z" fill="#94A3B8"/>
<path d="M55.5578 45.1274C54.6927 45.1274 53.8524 45.0038 53.0121 44.732C52.2236 44.4765 51.4989 44.0551 50.8867 43.4963L51.9989 41.618C52.6167 42.0382 53.2098 42.3594 53.803 42.6065C54.3715 42.8537 54.9399 42.9525 55.4835 42.9525C55.879 42.9525 56.2003 42.8785 56.4227 42.7302C56.6452 42.6065 56.7439 42.3842 56.7439 42.1122C56.7439 41.8651 56.6204 41.618 56.3238 41.4697C55.8593 41.2471 55.3698 41.0811 54.8656 40.9754L53.1358 40.4069C52.6661 40.2092 52.2955 40.0115 51.9989 39.7891C51.7023 39.5914 51.4798 39.3195 51.3563 39.0477C51.2218 38.7357 51.1544 38.3988 51.1586 38.0591C51.1515 37.5788 51.2521 37.1031 51.4532 36.6668C51.6541 36.2305 51.9504 35.8449 52.3201 35.5383C52.6661 35.2417 53.111 35.0192 53.6053 34.8463C54.0996 34.6732 54.6433 34.5991 55.2118 34.5991C55.9778 34.5991 56.6946 34.698 57.362 34.8957C58.0292 35.1182 58.6718 35.4888 59.2896 36.0326L58.0786 37.8862C57.6003 37.5438 57.0866 37.2538 56.5463 37.0211C56.0767 36.8234 55.6566 36.7492 55.2118 36.7492C54.8904 36.7492 54.5938 36.7986 54.3715 36.9469C54.1243 37.0706 54.0255 37.2929 54.0255 37.5895C54.0255 37.8862 54.149 38.0838 54.3961 38.2322C54.6433 38.3805 55.1376 38.5288 55.8049 38.7017C56.4244 38.8577 57.0349 39.0475 57.6336 39.2702C58.1279 39.4678 58.5235 39.6902 58.8447 39.9126C59.1436 40.1328 59.382 40.4249 59.5375 40.762C59.6932 41.0991 59.7609 41.4702 59.7344 41.8403C59.7344 42.8537 59.3636 43.6445 58.5975 44.2377C57.8561 44.8308 56.8676 45.1274 55.5578 45.1274ZM67.7912 44.4106C67.3712 44.5837 66.8769 44.7566 66.3332 44.9049C65.7895 45.0532 65.2456 45.1522 64.6773 45.1522C64.2818 45.1522 63.9358 45.1026 63.5898 45.0038C63.2535 44.9057 62.9418 44.7372 62.6755 44.5095C62.4283 44.3118 62.2306 44.0152 62.0823 43.694C61.9339 43.348 61.8352 42.9278 61.8352 42.4335V37.12H60.5499V34.7969H61.8598V31.5592H64.9244V34.7722H67.0004V37.12H64.9244V41.3708C64.9244 41.6922 64.9986 41.9392 65.1716 42.1122C65.3446 42.2358 65.567 42.31 65.8141 42.31C66.0613 42.31 66.3084 42.2852 66.5309 42.1865C66.7779 42.1122 67.0004 42.0382 67.1733 41.9392L67.7666 44.4106H67.7912ZM73.5744 45.1274C72.7878 45.1411 72.0064 44.9983 71.2759 44.7072C70.6401 44.4557 70.0647 44.0725 69.5876 43.5826C69.1106 43.0926 68.7426 42.5074 68.508 41.8651C68.0224 40.5748 68.0224 39.1518 68.508 37.8614C68.7426 37.2191 69.1106 36.6338 69.5876 36.144C70.0647 35.6542 70.6401 35.2708 71.2759 35.0192C71.9433 34.7474 72.7096 34.5991 73.5744 34.5991C74.3181 34.5642 75.0604 34.6894 75.7512 34.9666C76.4421 35.2438 77.0649 35.6663 77.5781 36.2055C78.0479 36.6751 78.3936 37.2435 78.6409 37.8614C79.1466 39.1566 79.1466 40.5946 78.6409 41.8898C78.4049 42.5243 78.0389 43.1026 77.5664 43.5878C77.0938 44.0729 76.5255 44.4542 75.8973 44.7072C75.1593 45.0015 74.369 45.1445 73.5744 45.1274ZM71.3501 39.888C71.3501 40.6788 71.5478 41.3214 71.968 41.7909C72.4126 42.2852 72.9563 42.5325 73.599 42.5325C73.9056 42.5383 74.209 42.4746 74.4873 42.3462C74.7655 42.2178 75.0112 42.028 75.2053 41.7909C75.4033 41.5438 75.5516 41.2966 75.6752 40.9506C75.7989 40.6294 75.8481 40.2586 75.8481 39.888C75.8481 39.0723 75.6255 38.4298 75.2053 37.9603C74.7853 37.466 74.2416 37.2188 73.599 37.2188C73.2935 37.2182 72.9916 37.2842 72.7139 37.4122C72.4367 37.5403 72.1906 37.7272 71.9926 37.9603C71.795 38.2074 71.6219 38.4545 71.4984 38.8006C71.387 39.1518 71.3369 39.5197 71.3501 39.888ZM86.9941 37.4412C86.2529 37.4412 85.561 37.5649 84.9429 37.812C84.3992 37.9954 83.9358 38.3623 83.633 38.85V44.9543H80.5438V34.7969H83.3858V36.8234C83.732 36.1314 84.1766 35.5877 84.7455 35.2169C85.2892 34.8215 85.8575 34.6238 86.4755 34.5991H86.7966L86.9941 34.6238V37.4165V37.4412ZM88.3538 46.462C88.7835 46.6114 89.2335 46.6948 89.6884 46.7091C90.0587 46.7091 90.3556 46.5855 90.5776 46.3383C90.7756 46.0912 90.9486 45.5969 91.1213 44.9543L87.2659 34.7969H90.4541L92.8023 42.2852L94.8533 34.7969H97.745L93.8649 46.5855C93.5712 47.5514 92.9258 48.3717 92.0563 48.8843C91.1867 49.3969 90.1561 49.5643 89.1693 49.3535C88.9221 49.3042 88.6256 49.23 88.3538 49.1063V46.462ZM105.06 45.1274C104.294 45.1274 103.602 44.9791 103.034 44.6331C102.456 44.3158 101.977 43.8455 101.65 43.2738V44.9543H98.9561V30.8178H102.07V36.4526C102.402 35.8722 102.885 35.3929 103.469 35.0665C104.052 34.7398 104.713 34.5783 105.382 34.5991C106.024 34.5991 106.617 34.7226 107.161 35.0192C107.705 35.2665 108.15 35.6618 108.57 36.1314C109.169 36.9637 109.563 37.9265 109.718 38.9405C109.872 39.9545 109.784 40.9908 109.459 41.964C109.212 42.6065 108.866 43.1749 108.446 43.6445C108.017 44.1149 107.494 44.49 106.911 44.7455C106.327 45.0009 105.697 45.1311 105.06 45.1274ZM104.195 42.5325C104.684 42.5334 105.162 42.3815 105.561 42.098C105.96 41.8143 106.26 41.4132 106.42 40.9506C106.598 40.4609 106.648 39.9338 106.566 39.4192C106.484 38.9046 106.272 38.4195 105.95 38.0097C105.759 37.7588 105.513 37.5565 105.229 37.4191C104.946 37.2815 104.634 37.2131 104.319 37.2188C103.849 37.2188 103.404 37.3918 102.984 37.7131C102.589 38.0591 102.268 38.4792 102.045 38.9983V41.1237C102.241 41.5357 102.548 41.8842 102.933 42.1291C103.318 42.3738 103.764 42.5051 104.22 42.5077L104.195 42.5325ZM111.313 30.8178H114.402V41.3214C114.402 42.1122 114.724 42.4829 115.391 42.4829C115.744 42.484 116.091 42.3991 116.404 42.2358L116.824 44.5342C115.959 44.9134 115.026 45.1151 114.081 45.1274C113.191 45.1274 112.499 44.8802 112.03 44.4354C111.536 43.9411 111.288 43.2985 111.288 42.4088V30.8178H111.313ZM122.657 45.1274C121.87 45.1411 121.089 44.9983 120.359 44.7072C119.719 44.4572 119.14 44.0748 118.658 43.5849C118.177 43.0951 117.804 42.5091 117.566 41.8651C117.215 40.9114 117.126 39.8809 117.308 38.8812C117.491 37.8815 117.938 36.9489 118.604 36.1808C119.098 35.6865 119.641 35.3158 120.334 35.0192C121.001 34.7474 121.767 34.5991 122.632 34.5991C123.376 34.5642 124.118 34.6894 124.809 34.9666C125.499 35.2438 126.123 35.6663 126.636 36.2055C127.13 36.6751 127.451 37.2435 127.699 37.8614C128.063 38.8131 128.159 39.8465 127.976 40.8489C127.793 41.8514 127.338 42.7843 126.661 43.5457C126.191 44.04 125.623 44.4354 124.931 44.7072C124.2 44.9983 123.418 45.1411 122.632 45.1274H122.657ZM120.408 39.888C120.408 40.6788 120.606 41.3214 121.026 41.7909C121.471 42.2852 122.014 42.5325 122.657 42.5325C122.963 42.5365 123.266 42.4722 123.544 42.3437C123.822 42.2155 124.068 42.0266 124.263 41.7909C124.461 41.5438 124.609 41.2966 124.733 40.9506C124.856 40.6294 124.906 40.2586 124.906 39.888C124.906 39.0723 124.683 38.4298 124.263 37.9603C123.843 37.466 123.3 37.2188 122.657 37.2188C122.351 37.2182 122.049 37.2842 121.772 37.4122C121.495 37.5403 121.248 37.7272 121.051 37.9603C120.853 38.2074 120.68 38.4545 120.556 38.8006C120.432 39.1466 120.408 39.4926 120.408 39.888ZM136.447 44.9543L133.803 40.8518L132.715 41.9886V44.9543H129.626V30.8178H132.715V38.9983L136.151 34.7969H139.438L135.78 39.1712L139.735 44.9543H136.447Z" fill="#94A3B8"/>
</svg>
