<svg width="160" height="80" viewBox="0 0 160 80" fill="none" xmlns="http://www.w3.org/2000/svg">
<mask id="mask0_1838_1128" style="mask-type:luminance" maskUnits="userSpaceOnUse" x="18" y="24" width="124" height="33">
<path d="M141.538 24.6154H18.4614V56.7225H141.538V24.6154Z" fill="white"/>
</mask>
<g mask="url(#mask0_1838_1128)">
<mask id="mask1_1838_1128" style="mask-type:luminance" maskUnits="userSpaceOnUse" x="18" y="24" width="124" height="33">
<path d="M141.538 24.6154H18.4614V56.7225H141.538V24.6154Z" fill="white"/>
</mask>
<g mask="url(#mask1_1838_1128)">
<path fill-rule="evenodd" clip-rule="evenodd" d="M45.33 29.5112H27.5117V38.4577H36.2791C36.5916 38.4577 36.845 38.7115 36.845 39.0243V47.6828H45.8957V30.0788C45.8959 30.0043 45.8814 29.9306 45.853 29.8617C45.8246 29.7928 45.783 29.7303 45.7303 29.6775C45.6779 29.6248 45.6154 29.5831 45.5466 29.5545C45.478 29.526 45.4043 29.5112 45.33 29.5112Z" fill="#94A3B8"/>
<path opacity="0.405" fill-rule="evenodd" clip-rule="evenodd" d="M27.5109 29.5112V38.4577H19.152C19.0958 38.4577 19.0409 38.4408 18.9943 38.4094C18.9478 38.378 18.9115 38.3335 18.8903 38.2815C18.8689 38.2294 18.8637 38.1722 18.8749 38.1171C18.8861 38.062 18.9135 38.0115 18.9534 37.972L27.5109 29.5112ZM37.3271 56.1529C37.2872 56.192 37.2367 56.2185 37.182 56.2291C37.1272 56.2395 37.0704 56.2337 37.0191 56.2122C36.9675 56.1906 36.9237 56.1543 36.8927 56.1078C36.8618 56.0614 36.8452 56.0068 36.8451 55.9509V47.6828H45.8958L37.3271 56.1529Z" fill="#94A3B8"/>
<path opacity="0.405" d="M27.5107 38.4578H36.5626C36.7178 38.4578 36.8451 38.5842 36.8451 38.7406V47.6829H28.0775C27.9275 47.6829 27.7837 47.6232 27.6775 47.5171C27.5714 47.4108 27.5118 47.2666 27.5118 47.1165L27.5107 38.4578Z" fill="#94A3B8"/>
<path fill-rule="evenodd" clip-rule="evenodd" d="M137.164 28.9469C137.67 29.4483 138.267 29.6978 138.955 29.6978C139.666 29.6978 140.274 29.4483 140.78 28.9469C141.286 28.4457 141.538 27.8554 141.538 27.1728C141.538 26.4912 141.286 25.8948 140.78 25.3831C140.545 25.1363 140.262 24.9409 139.947 24.8088C139.634 24.6768 139.296 24.611 138.955 24.6155C138.267 24.6155 137.67 24.8714 137.164 25.382C136.658 25.8948 136.406 26.4903 136.406 27.1738C136.406 27.8554 136.658 28.4457 137.164 28.9469ZM82.2862 35.4843C82.2862 35.5362 82.2429 35.5797 82.1901 35.5797H78.6375V42.2289C78.6375 42.7829 78.7781 43.188 79.0573 43.4438C79.3366 43.6995 79.7461 43.8425 80.2839 43.8746C80.7762 43.9046 81.3761 43.9026 82.0845 43.8694L82.185 43.8643C82.1978 43.8635 82.2109 43.8655 82.2229 43.87C82.235 43.8745 82.2462 43.8814 82.2556 43.8903C82.2649 43.8992 82.2724 43.91 82.2775 43.9218C82.2825 43.9337 82.2853 43.9466 82.2853 43.9595V47.5131C82.2853 47.5368 82.2769 47.5595 82.261 47.5771C82.2455 47.5948 82.2238 47.6058 82.2004 47.6083L82.1353 47.6155C79.3532 47.9088 77.385 47.6363 76.2327 46.7995C75.0599 45.9471 74.4745 44.4235 74.4745 42.2289V35.5797H71.7607C71.7355 35.5797 71.7112 35.5695 71.6933 35.5517C71.6755 35.5338 71.6655 35.5095 71.6655 35.4843V31.7112C71.6655 31.6595 71.7079 31.616 71.7607 31.616H74.4735V28.978C74.4735 28.9014 74.519 28.8331 74.5882 28.802L78.5039 27.0962C78.5185 27.0895 78.5344 27.0868 78.5502 27.0878C78.5662 27.0891 78.5815 27.0942 78.5949 27.1029C78.6082 27.1115 78.6193 27.1234 78.6269 27.1374C78.6346 27.1515 78.6384 27.1672 78.6384 27.1831V31.616H82.1901C82.2418 31.616 82.2853 31.6585 82.2853 31.7112L82.2862 35.4843ZM89.8364 34.3658C90.2232 33.3425 90.8633 32.5751 91.7559 32.0634C92.6365 31.5614 93.6324 31.2972 94.6458 31.2969C94.6984 31.2969 94.7418 31.3394 94.7418 31.3932V35.7277C94.7418 35.7495 94.7372 35.7709 94.7284 35.7908C94.7196 35.8105 94.7067 35.8283 94.6907 35.8428C94.6745 35.8572 94.6556 35.8683 94.635 35.8751C94.6144 35.8818 94.5927 35.8842 94.5712 35.882C93.3704 35.7743 92.2916 36.0363 91.3359 36.6671C90.3358 37.3269 89.8364 38.4248 89.8364 39.9597V47.5037C89.8364 47.5165 89.8338 47.5288 89.829 47.5405C89.8242 47.5522 89.817 47.5626 89.8081 47.5715C89.7992 47.5805 89.7885 47.5874 89.7769 47.5922C89.7652 47.5969 89.7527 47.5992 89.7402 47.5991H85.7666C85.7412 47.5991 85.7172 47.5889 85.6993 47.5712C85.6813 47.5532 85.6715 47.5291 85.6715 47.5037V31.7102C85.6715 31.6585 85.7138 31.6149 85.7666 31.6149H89.7402C89.7919 31.6149 89.8353 31.6574 89.8353 31.7102V34.3637L89.8364 34.3658ZM109.524 31.616C109.512 31.6158 109.499 31.6182 109.488 31.6229C109.476 31.6277 109.465 31.6346 109.457 31.6435C109.448 31.6525 109.441 31.6629 109.436 31.6746C109.431 31.6862 109.428 31.6986 109.428 31.7112V33.5031C108.181 31.9463 106.427 31.1686 104.167 31.1686C102.016 31.1686 100.17 31.9837 98.6316 33.6138C97.0927 35.244 96.3232 37.242 96.3232 39.6075C96.3232 41.9731 97.0927 43.9709 98.6316 45.6012C100.17 47.2314 102.016 48.0465 104.167 48.0465C106.427 48.0465 108.18 47.2686 109.428 45.7131V47.5037C109.428 47.5555 109.472 47.5991 109.524 47.5991H113.497C113.55 47.5991 113.593 47.5566 113.593 47.5037V31.7102C113.593 31.6977 113.591 31.6852 113.586 31.6735C113.581 31.6618 113.574 31.6514 113.565 31.6425C113.556 31.6337 113.545 31.6266 113.534 31.6218C113.522 31.6172 113.51 31.6148 113.497 31.6149L109.524 31.616ZM101.747 42.8678C102.586 43.6995 103.65 44.1149 104.943 44.1149C106.233 44.1149 107.304 43.6934 108.154 42.8514C109.004 42.0103 109.428 40.9291 109.428 39.6075C109.428 38.286 109.004 37.2046 108.154 36.3626C107.304 35.5217 106.233 35.1002 104.942 35.1002C103.651 35.1002 102.586 35.5217 101.746 36.3637C100.908 37.2046 100.487 38.286 100.487 39.6075C100.487 40.9291 100.907 42.0155 101.747 42.8678ZM132.102 33.6138C130.563 31.9837 128.707 31.1686 126.534 31.1686C124.274 31.1686 122.531 31.9463 121.305 33.502V31.7112C121.305 31.686 121.295 31.6617 121.277 31.6438C121.259 31.626 121.235 31.616 121.21 31.616H117.236C117.211 31.616 117.186 31.626 117.169 31.6438C117.151 31.6617 117.141 31.686 117.141 31.7112V53.8962C117.141 53.9489 117.183 53.9925 117.236 53.9925H121.21C121.261 53.9925 121.305 53.9489 121.305 53.8962V45.7131C122.531 47.2686 124.274 48.0465 126.534 48.0465C128.707 48.0465 130.563 47.2314 132.102 45.6012C133.64 43.9709 134.41 41.9731 134.41 39.6075C134.41 37.242 133.64 35.244 132.102 33.6138ZM122.563 42.8678C123.403 43.6995 124.468 44.1149 125.759 44.1149C127.05 44.1149 128.121 43.6934 128.971 42.8514C129.821 42.0103 130.246 40.9291 130.246 39.6075C130.246 38.286 129.821 37.2046 128.971 36.3626C128.121 35.5217 127.05 35.1002 125.759 35.1002C124.468 35.1002 123.403 35.5217 122.563 36.3637C121.725 37.2046 121.305 38.286 121.305 39.6075C121.305 40.9291 121.725 42.0155 122.563 42.8678ZM136.985 47.5991C136.96 47.5991 136.936 47.5889 136.918 47.5712C136.9 47.5532 136.89 47.5291 136.89 47.5037V31.7102C136.89 31.6585 136.932 31.6149 136.985 31.6149H140.959C141.012 31.6149 141.054 31.6574 141.054 31.7102V47.5048C141.054 47.53 141.044 47.5543 141.026 47.5722C141.008 47.59 140.984 47.6002 140.959 47.6002L136.985 47.5991ZM62.7409 37.1943C62.1699 36.9282 61.8855 36.5812 61.8855 36.1555C61.8855 35.7505 62.0624 35.4305 62.4182 35.1965C62.7729 34.9623 63.2198 34.8443 63.7575 34.8443C64.7887 34.8443 65.5675 35.2431 66.095 36.0395C66.1125 36.0665 66.139 36.0865 66.1698 36.096C66.2007 36.1054 66.2338 36.1038 66.2635 36.0912L69.7779 34.5512C69.7901 34.5457 69.8009 34.5378 69.8098 34.5278C69.8187 34.5178 69.8255 34.5062 69.8296 34.4935C69.8336 34.4808 69.835 34.4674 69.8336 34.4542C69.8321 34.4409 69.8281 34.4282 69.8215 34.4166C69.7809 34.3491 69.7395 34.282 69.6973 34.2155C69.0964 33.2783 68.3175 32.5792 67.3401 32.0478C66.2645 31.4617 65.0701 31.1686 63.7575 31.1686C62.0138 31.1686 60.5566 31.6212 59.3826 32.5274C58.2109 33.4326 57.6244 34.6745 57.6244 36.2508C57.6244 37.2958 57.9098 38.1637 58.4798 38.8566C59.0304 39.5351 59.7479 40.0583 60.5616 40.3749C61.3787 40.694 62.1969 40.9612 63.015 41.1735C63.8319 41.3869 64.527 41.6271 65.0969 41.8934C65.6667 42.1595 65.9522 42.5054 65.9522 42.9322C65.9522 43.8488 65.2096 44.3065 63.7255 44.3065C62.3116 44.3065 61.3322 43.7886 60.7872 42.7551C60.7652 42.7115 60.7276 42.6778 60.6818 42.6612C60.6361 42.6445 60.5856 42.6457 60.541 42.6649L57.0369 44.2029C57.0252 44.2082 57.0147 44.2155 57.0059 44.2248C56.9972 44.2342 56.9904 44.2451 56.9859 44.2571C56.9815 44.2691 56.9795 44.2818 56.9801 44.2946C56.9807 44.3074 56.9838 44.3198 56.9893 44.3314L57.0287 44.4111C58.2532 46.8346 60.4852 48.0465 63.7255 48.0465C65.5758 48.0465 67.1199 47.6042 68.3569 46.7208C69.5949 45.8352 70.2133 44.5728 70.2133 42.9322C70.2133 41.8446 69.9278 40.9394 69.3579 40.2145C68.8207 39.5148 68.0999 38.9785 67.2761 38.6651C66.4741 38.3609 65.655 38.1046 64.8229 37.8975C64.0047 37.6946 63.3107 37.4615 62.7409 37.1943Z" fill="#94A3B8"/>
</g>
</g>
</svg>
