<svg width="160" height="80" viewBox="0 0 160 80" fill="none" xmlns="http://www.w3.org/2000/svg">
<mask id="mask0_1838_1141" style="mask-type:luminance" maskUnits="userSpaceOnUse" x="18" y="24" width="124" height="33">
<path d="M141.538 24.6154H18.4614V56.2637H141.538V24.6154Z" fill="white"/>
</mask>
<g mask="url(#mask0_1838_1141)">
<mask id="mask1_1838_1141" style="mask-type:luminance" maskUnits="userSpaceOnUse" x="18" y="24" width="124" height="33">
<path d="M141.538 24.6154H18.4614V56.2637H141.538V24.6154Z" fill="white"/>
</mask>
<g mask="url(#mask1_1838_1141)">
<path fill-rule="evenodd" clip-rule="evenodd" d="M49.7036 41.0902L47.3696 38.7517C47.1842 38.566 47.0802 38.3142 47.0804 38.0518V35.1894C47.0804 32.5442 46.8051 31.5851 46.2891 30.618C45.7848 29.6629 45.005 28.8817 44.0508 28.3754C43.0865 27.8575 42.1291 27.5825 39.49 27.5825H35.7142C35.6751 27.5822 35.6371 27.5705 35.6047 27.5486C35.5724 27.5269 35.5471 27.496 35.5323 27.4598C35.5174 27.4238 35.5136 27.3842 35.5213 27.3458C35.529 27.3075 35.5477 27.2725 35.5753 27.2448L37.9093 24.9055C38.0939 24.72 38.3454 24.6154 38.6074 24.6154H39.9199C43.439 24.6154 44.7154 24.9829 46.0025 25.6722C47.2745 26.3474 48.314 27.3894 48.9862 28.6629C49.6747 29.9525 50.0413 31.2317 50.0413 34.7578V40.9512C50.0413 40.9903 50.0296 41.0285 50.0077 41.0611C49.986 41.0935 49.9553 41.1189 49.9191 41.1338C49.883 41.1488 49.8433 41.1528 49.805 41.1451C49.7665 41.1374 49.7313 41.1177 49.7036 41.0902ZM33.6016 55.9271L35.9357 53.5877C36.1203 53.4022 36.3717 53.2975 36.6337 53.2975H39.49C42.1291 53.2975 43.0856 53.0225 44.0508 52.5046C45.005 51.9985 45.7848 51.2171 46.2891 50.262C46.8051 49.2949 47.0804 48.3358 47.0804 45.6906V41.9068C47.0805 41.8678 47.0922 41.8298 47.1139 41.7977C47.1356 41.7652 47.1663 41.7402 47.2022 41.7252C47.2382 41.7103 47.2777 41.7063 47.3159 41.7137C47.3542 41.7211 47.3893 41.7397 47.417 41.7671L49.752 44.1063C49.9367 44.2918 50.0413 44.5442 50.0413 44.8062V46.1222C50.0413 49.6483 49.6747 50.9275 48.9862 52.2171C48.314 53.4906 47.2745 54.5326 46.0025 55.2078C44.7154 55.8963 43.439 56.2637 39.9199 56.2637H33.7405C33.7016 56.2635 33.6634 56.2518 33.6311 56.23C33.5988 56.2082 33.5736 56.1774 33.5587 56.1412C33.5437 56.1051 33.54 56.0654 33.5477 56.0272C33.5553 55.9889 33.574 55.9546 33.6016 55.9271ZM18.7982 39.7882L21.1339 42.1275C21.3185 42.3129 21.4231 42.5652 21.4231 42.8272V45.6897C21.4231 48.3349 21.6974 49.294 22.2143 50.2611C22.7185 51.216 23.498 51.9974 24.4517 52.5037C25.417 53.0215 26.3743 53.2968 29.0136 53.2968H32.7885C32.8277 53.2965 32.866 53.308 32.8987 53.3297C32.9313 53.3514 32.9567 53.3823 32.9717 53.4185C32.9868 53.4546 32.9908 53.4945 32.9831 53.5328C32.9756 53.5712 32.9568 53.6066 32.9291 53.6343L30.5933 55.9737C30.4087 56.1591 30.1573 56.2637 29.8962 56.2637H28.5828C25.0636 56.2637 23.788 55.8963 22.501 55.2071C21.2287 54.532 20.1888 53.49 19.5163 52.2163C18.828 50.9266 18.4614 49.6475 18.4614 46.1214V39.9278C18.4616 39.8889 18.4733 39.8509 18.495 39.8188C18.5167 39.7863 18.5474 39.7612 18.5834 39.7463C18.6193 39.7314 18.6588 39.7274 18.6971 39.7348C18.7353 39.7423 18.7703 39.7608 18.7982 39.7882ZM32.567 27.2923C32.3814 27.4778 32.1308 27.5825 31.869 27.5825H29.0127C26.3736 27.5825 25.4162 27.8575 24.4508 28.3754C23.4968 28.8817 22.717 29.6629 22.2127 30.618C21.6967 31.5851 21.4214 32.5442 21.4214 35.1894V38.9732C21.4213 39.0122 21.4096 39.0502 21.3879 39.0823C21.3662 39.1148 21.3354 39.1398 21.2994 39.1548C21.2636 39.1697 21.224 39.1737 21.1857 39.1663C21.1476 39.1589 21.1125 39.1403 21.0847 39.1129L18.7516 36.7737C18.5659 36.588 18.4616 36.3363 18.4614 36.0738V34.7578C18.4614 31.2317 18.828 29.9525 19.5163 28.6629C20.1887 27.3894 21.2282 26.3474 22.5 25.6722C23.7871 24.9829 25.0636 24.6154 28.5819 24.6154H34.762C34.8011 24.6155 34.8391 24.6274 34.8716 24.6491C34.9039 24.6709 34.9291 24.7018 34.944 24.7378C34.9588 24.774 34.9627 24.8137 34.955 24.852C34.9473 24.8902 34.9287 24.9254 34.901 24.9529L32.567 27.2923ZM44.7727 36.1635L41.5902 33.1148C41.3793 32.9037 41.1331 32.7508 40.8702 32.6549C40.6471 32.5705 40.4107 32.5272 40.1722 32.5275H30.7779C30.7388 32.5274 30.7007 32.5158 30.668 32.4942C30.6356 32.4723 30.6102 32.4415 30.5953 32.4054C30.5803 32.3692 30.5763 32.3295 30.584 32.2911C30.5917 32.2528 30.6105 32.2175 30.6382 32.1898L32.9757 29.8497C33.1603 29.6651 33.4108 29.5605 33.6728 29.5605H41.1594C43.3397 29.5605 45.1067 31.3318 45.1067 33.5165V36.0211C45.1065 36.0597 45.095 36.0974 45.0736 36.1295C45.0523 36.1617 45.0219 36.1869 44.9865 36.2022C44.951 36.2172 44.9117 36.2217 44.8739 36.2148C44.8357 36.2078 44.8007 36.1902 44.7727 36.1635ZM38.5177 50.9863L41.5594 47.796C41.7705 47.5851 41.9234 47.3389 42.0193 47.0752C42.1033 46.8518 42.1462 46.6149 42.1459 46.3763V36.9609C42.1459 36.9217 42.1576 36.8835 42.1793 36.8511C42.201 36.8186 42.2317 36.7932 42.2679 36.7783C42.304 36.7634 42.3437 36.7594 42.3822 36.7671C42.4205 36.7746 42.4557 36.7935 42.4834 36.8211L44.8183 39.1631C45.003 39.3486 45.1067 39.6 45.1067 39.8629V47.3652C45.1067 49.5498 43.3397 51.3214 41.1594 51.3214H38.66C38.6216 51.3211 38.5837 51.3097 38.5516 51.2883C38.5194 51.2669 38.4942 51.2366 38.4791 51.2011C38.464 51.1655 38.4596 51.1265 38.4665 51.0885C38.4733 51.0503 38.4911 51.0143 38.5177 50.9863ZM23.7291 44.7155L26.9133 47.7645C27.1234 47.9754 27.3705 48.1283 27.6323 48.2242C27.8487 48.3068 28.0843 48.3517 28.3305 48.3517H37.7247C37.7637 48.3518 37.8019 48.3635 37.8342 48.3854C37.8665 48.4072 37.8917 48.438 37.9067 48.4742C37.9214 48.5103 37.9253 48.55 37.9176 48.5882C37.9099 48.6265 37.8913 48.6617 37.8636 48.6892L35.527 51.0294C35.3423 51.214 35.0908 51.3186 34.8297 51.3186H27.3431C26.8242 51.318 26.3105 51.2152 25.8313 51.0162C25.352 50.8171 24.9168 50.5255 24.5502 50.1582C24.1837 49.7908 23.8931 49.3549 23.6951 48.8752C23.497 48.3955 23.3954 47.8815 23.3959 47.3626V44.858C23.396 44.8194 23.4076 44.7817 23.429 44.7495C23.4503 44.7174 23.4807 44.6922 23.5162 44.6771C23.5517 44.6618 23.5908 44.6575 23.6288 44.6643C23.6668 44.6712 23.7011 44.6889 23.7291 44.7155ZM29.985 29.8945L26.9423 33.0857C26.7313 33.2968 26.5793 33.5429 26.4834 33.8066C26.3991 34.03 26.3559 34.2668 26.3559 34.5055V43.9209C26.3556 43.9597 26.3437 43.9977 26.322 44.0298C26.3002 44.062 26.2694 44.0871 26.2336 44.1018C26.1977 44.1166 26.1582 44.1205 26.12 44.1131C26.0819 44.1055 26.0468 44.0871 26.0193 44.0598L23.6843 41.7178C23.4994 41.5322 23.3957 41.2809 23.3959 41.0189V33.5165C23.3959 31.3318 25.163 29.5605 27.3431 29.5605H29.8425C29.8811 29.5606 29.9188 29.5722 29.951 29.5935C29.9831 29.6148 30.0083 29.6451 30.0236 29.6806C30.0387 29.7162 30.0431 29.7554 30.0362 29.7934C30.0293 29.8314 30.0116 29.8665 29.985 29.8945ZM59.0882 33.7442H59.8513C60.3727 33.7442 60.7954 34.1662 60.7954 34.6883V35.5815C60.7954 35.6097 60.8184 35.6317 60.8456 35.6317C61.2808 34.8625 61.8654 34.3042 62.602 33.9534C63.3468 33.602 64.1611 33.4229 64.9845 33.4294C65.905 33.4294 66.7331 33.6 67.469 33.9411C68.2047 34.2814 68.8316 34.7498 69.3502 35.3432C69.8791 35.9568 70.2796 36.67 70.5282 37.4409C70.7963 38.2452 70.93 39.1112 70.93 40.0369C70.9373 40.9203 70.793 41.7983 70.5036 42.6329C70.2404 43.4002 69.8365 44.1115 69.3124 44.7306C68.8042 45.3232 68.1757 45.8012 67.469 46.1328C66.731 46.4778 65.925 46.6528 65.1102 46.6445C64.5414 46.6445 64.0403 46.5829 63.6051 46.4606C63.2027 46.3515 62.8153 46.1929 62.4517 45.9886C62.145 45.8166 61.8588 45.6102 61.599 45.3732C61.3859 45.1783 61.1924 44.9632 61.0214 44.7306C61.0016 44.7306 60.9823 44.7383 60.9682 44.7523C60.954 44.7663 60.946 44.7854 60.9459 44.8052V51.156C60.9459 51.4614 60.8245 51.7543 60.6085 51.9703C60.3925 52.1863 60.0996 52.3077 59.7942 52.3077H59.0882C58.937 52.3077 58.7873 52.2778 58.6476 52.22C58.5077 52.1622 58.3808 52.0774 58.2739 51.9703C58.167 51.8635 58.082 51.7365 58.0242 51.5968C57.9664 51.4571 57.9367 51.3072 57.9367 51.156V34.8958C57.9367 34.2602 58.4517 33.7442 59.0882 33.7442ZM67.9199 40.0369C67.9199 39.5472 67.8408 39.0752 67.6825 38.6215C67.5294 38.1769 67.2905 37.7669 66.9793 37.4145C66.6671 37.0629 66.2874 36.7777 65.8628 36.5758C65.4285 36.3657 64.9353 36.2611 64.3831 36.2611C63.8311 36.2611 63.337 36.3666 62.9028 36.5758C62.4782 36.7777 62.0985 37.0629 61.7862 37.4145C61.4754 37.7666 61.2367 38.1765 61.0839 38.6206C60.9253 39.0755 60.845 39.5542 60.8465 40.036C60.8465 40.5266 60.9256 40.9978 61.0839 41.4523C61.243 41.9068 61.4768 42.3094 61.7871 42.6585C62.0993 43.0103 62.479 43.2958 62.9036 43.498C63.3379 43.7072 63.8311 43.8128 64.3831 43.8128C64.9353 43.8128 65.4285 43.7072 65.8628 43.498C66.2874 43.2958 66.6671 43.0103 66.9793 42.6585C67.2887 42.3094 67.5225 41.9068 67.6825 41.4523C67.8408 40.9978 67.9199 40.5266 67.9199 40.0369ZM75.2685 33.7442H76.13C76.6803 33.7442 77.127 34.1898 77.127 34.7402V35.6871C77.127 35.7143 77.149 35.7371 77.177 35.7371C77.5111 35.0022 77.9876 34.4343 78.6065 34.0325C79.2254 33.6308 79.9367 33.4294 80.7393 33.4294C80.923 33.4294 81.1031 33.4471 81.2782 33.4822C81.4302 33.5123 81.5671 33.5942 81.6656 33.714C81.7639 33.8337 81.8179 33.9838 81.8179 34.1389V35.8655C81.818 35.9575 81.7977 36.0485 81.7588 36.1318C81.7199 36.2152 81.6631 36.2891 81.5925 36.348C81.5219 36.4071 81.4391 36.4498 81.3503 36.4734C81.2613 36.4969 81.1682 36.5008 81.0777 36.4845C80.8419 36.4411 80.6027 36.4191 80.363 36.4185C79.6597 36.4185 79.0962 36.5538 78.6697 36.8246C78.2434 37.0963 77.9173 37.4057 77.6913 37.7565C77.4785 38.0755 77.3253 38.4306 77.2394 38.8045C77.1639 39.1543 77.127 39.4163 77.127 39.5912V45.178C77.127 45.4834 77.0056 45.7763 76.7896 45.9923C76.5736 46.2083 76.2807 46.3297 75.9753 46.3297H75.2685C74.9631 46.3297 74.6702 46.2083 74.4542 45.9923C74.2382 45.7763 74.1168 45.4834 74.1168 45.178V34.8958C74.1168 34.2602 74.632 33.7442 75.2685 33.7442ZM85.4531 33.7442H86.1599C86.7954 33.7442 87.3116 34.2602 87.3116 34.8958V45.178C87.3116 45.4834 87.1902 45.7763 86.9742 45.9923C86.7582 46.2083 86.4653 46.3297 86.1599 46.3297H85.4531C85.1477 46.3297 84.8548 46.2083 84.6388 45.9923C84.4228 45.7763 84.3014 45.4834 84.3014 45.178V34.8958C84.3014 34.2602 84.8167 33.7442 85.4531 33.7442ZM83.8751 29.4698C83.8751 28.9635 84.0543 28.5222 84.4139 28.146C84.7743 27.7706 85.2297 27.5825 85.781 27.5825C86.3331 27.5825 86.7973 27.7617 87.1736 28.1195C87.5497 28.4783 87.7379 28.9283 87.7379 29.4698C87.7379 30.0123 87.5497 30.4625 87.1736 30.8202C86.7973 31.1789 86.3331 31.3583 85.781 31.3583C85.2297 31.3583 84.7736 31.1702 84.4139 30.7948C84.2408 30.6206 84.104 30.4138 84.0116 30.1865C83.919 29.9589 83.8727 29.7154 83.8751 29.4698ZM96.8447 36.6198C96.2337 36.1714 95.6896 35.9463 95.2139 35.9463C94.8122 35.9463 94.4193 36.0518 94.0342 36.2611C93.65 36.4712 93.4574 36.8114 93.4574 37.2835C93.4574 37.6686 93.6157 37.9482 93.9339 38.1231C94.2522 38.2971 94.6531 38.4466 95.1384 38.5688C95.6236 38.6909 96.1459 38.8175 96.7059 38.9486C97.2667 39.0805 97.789 39.2809 98.2742 39.5517C98.7594 39.8225 99.1604 40.1934 99.4785 40.6663C99.7959 41.1385 99.9551 41.7846 99.9551 42.6066C99.9551 43.3583 99.8003 43.9912 99.4908 44.5072C99.1928 45.0114 98.7802 45.438 98.2865 45.7529C97.7743 46.0752 97.21 46.3057 96.6188 46.4343C96.0096 46.5732 95.3868 46.6435 94.762 46.6445C93.8259 46.6445 92.9644 46.5037 92.1774 46.2251C91.8697 46.1152 91.5005 45.8954 91.0697 45.5648C90.9388 45.4645 90.831 45.3371 90.7536 45.1912C90.676 45.0455 90.631 44.8848 90.621 44.7202C90.6111 44.5554 90.6367 44.3905 90.696 44.2365C90.7554 44.0826 90.8471 43.9431 90.9651 43.8277L91.2773 43.5217C91.485 43.318 91.7619 43.2005 92.0527 43.1928C92.3434 43.1849 92.6265 43.2874 92.8447 43.4795C93.0276 43.6405 93.1859 43.7645 93.3194 43.8514C93.7625 44.1406 94.3023 44.2848 94.937 44.2848C95.1551 44.2848 95.381 44.2585 95.6148 44.2057C95.8496 44.1529 96.0667 44.066 96.2671 43.9437C96.4676 43.8206 96.6311 43.6686 96.7568 43.4848C96.8816 43.3011 96.945 43.0875 96.945 42.8431C96.945 42.4052 96.7859 42.0817 96.4676 41.8725C96.1502 41.6625 95.7485 41.4918 95.2631 41.3609C94.7447 41.222 94.2219 41.0998 93.6957 40.9943C93.1499 40.8854 92.6222 40.6998 92.1282 40.4431C91.6464 40.1925 91.2328 39.8278 90.9239 39.3811C90.6065 38.9266 90.4474 38.2971 90.4474 37.4937C90.4474 36.7948 90.5854 36.1872 90.8605 35.6712C91.1239 35.1706 91.4973 34.7358 91.9524 34.4C92.4205 34.0598 92.9484 33.8105 93.5085 33.6651C94.089 33.5086 94.6874 33.4294 95.2887 33.4294C96.0913 33.4294 96.886 33.5737 97.672 33.862C97.9568 33.9666 98.2742 34.16 98.625 34.4422C98.7533 34.5455 98.8577 34.6751 98.9317 34.8223C99.0056 34.9695 99.047 35.1308 99.0533 35.2952C99.0594 35.4598 99.0304 35.6238 98.9679 35.7762C98.9054 35.9285 98.8108 36.0657 98.6908 36.1785L98.3164 36.5309C98.1202 36.7155 97.8654 36.8255 97.5967 36.8417C97.3277 36.858 97.0617 36.7794 96.8447 36.6198ZM103.691 33.7442H104.247C104.882 33.7442 105.399 34.2602 105.399 34.8958V35.7108C105.728 35.0925 106.186 34.5514 106.741 34.124C107.334 33.6606 108.133 33.4294 109.137 33.4294C111.027 33.4294 112.28 34.2075 112.899 35.7626C113.334 34.9591 113.878 34.3692 114.53 33.9929C115.182 33.6175 115.959 33.4294 116.863 33.4294C117.666 33.4294 118.343 33.5692 118.895 33.8488C119.432 34.1152 119.893 34.5117 120.237 35.0022C120.58 35.4918 120.826 36.0642 120.977 36.72C121.128 37.3758 121.203 38.0791 121.203 38.8298V45.1771C121.203 45.4826 121.081 45.7755 120.865 45.9915C120.65 46.2075 120.356 46.3288 120.051 46.3288H119.344C119.039 46.3288 118.745 46.2075 118.53 45.9915C118.314 45.7755 118.192 45.4826 118.192 45.1771V39.1974C118.192 38.8132 118.159 38.4414 118.092 38.0835C118.034 37.7497 117.915 37.4295 117.741 37.1394C117.574 36.87 117.341 36.6488 117.064 36.4975C116.779 36.3394 116.411 36.2611 115.959 36.2611C115.492 36.2611 115.094 36.3525 114.768 36.5363C114.447 36.7152 114.172 36.9665 113.966 37.2703C113.751 37.5888 113.598 37.9445 113.514 38.3191C113.422 38.7102 113.376 39.1105 113.376 39.5122V45.178C113.376 45.3292 113.346 45.4791 113.288 45.6188C113.23 45.7585 113.145 45.8854 113.038 45.9923C112.932 46.0994 112.804 46.1842 112.665 46.242C112.525 46.2998 112.375 46.3297 112.224 46.3297H111.517C111.212 46.3297 110.919 46.2083 110.703 45.9923C110.487 45.7763 110.366 45.4834 110.366 45.178V38.8308C110.366 38.044 110.207 37.4189 109.889 36.9555C109.571 36.4932 109.045 36.2611 108.308 36.2611C107.807 36.2611 107.385 36.3491 107.042 36.5231C106.699 36.6989 106.415 36.9345 106.189 37.2317C105.959 37.5365 105.793 37.884 105.699 38.254C105.598 38.6482 105.548 39.0534 105.55 39.4602V45.178C105.55 45.3294 105.52 45.4791 105.462 45.6189C105.404 45.7586 105.319 45.8857 105.212 45.9928C105.105 46.0995 104.978 46.1845 104.838 46.2423C104.699 46.3 104.549 46.3297 104.397 46.3297H103.691C103.385 46.3297 103.092 46.2083 102.876 45.9923C102.66 45.7763 102.539 45.4834 102.539 45.178V34.8958C102.539 34.2602 103.055 33.7442 103.691 33.7442ZM126.068 33.7442H126.774C127.41 33.7442 127.925 34.2602 127.925 34.8958V45.178C127.925 45.4834 127.804 45.7763 127.588 45.9923C127.372 46.2083 127.079 46.3297 126.774 46.3297H126.068C125.763 46.3297 125.469 46.2083 125.254 45.9923C125.037 45.7763 124.916 45.4834 124.916 45.178V34.8958C124.916 34.2602 125.431 33.7442 126.068 33.7442ZM124.489 29.4698C124.489 28.9635 124.669 28.5222 125.029 28.146C125.388 27.7706 125.843 27.5825 126.395 27.5825C126.948 27.5825 127.412 27.7617 127.788 28.1195C128.164 28.4783 128.352 28.9283 128.352 29.4698C128.352 30.0123 128.164 30.4625 127.788 30.8202C127.412 31.1789 126.948 31.3583 126.395 31.3583C125.843 31.3583 125.388 31.1702 125.029 30.7948C124.855 30.6206 124.718 30.414 124.626 30.1865C124.533 29.9591 124.486 29.7155 124.489 29.4698ZM139.215 36.8308C139.111 36.7478 139.002 36.6714 138.889 36.6022C138.534 36.3832 138.126 36.2654 137.709 36.2611C137.158 36.2611 136.664 36.3666 136.229 36.5758C135.805 36.7777 135.425 37.0629 135.113 37.4145C134.802 37.7666 134.563 38.1765 134.411 38.6206C134.251 39.0755 134.171 39.5542 134.172 40.036C134.172 40.5266 134.251 40.9978 134.411 41.4523C134.569 41.9068 134.803 42.3094 135.114 42.6585C135.426 43.0103 135.805 43.2957 136.229 43.498C136.664 43.7072 137.158 43.8128 137.709 43.8128C138.177 43.8128 138.613 43.7117 139.014 43.5112C139.095 43.4698 139.183 43.4145 139.277 43.3451C139.508 43.1749 139.795 43.0971 140.081 43.1272C140.367 43.1572 140.63 43.2931 140.821 43.5077L141.278 44.0211C141.386 44.1426 141.466 44.2869 141.512 44.4432C141.558 44.5995 141.567 44.764 141.542 44.9248C141.516 45.0855 141.455 45.2385 141.362 45.3726C141.27 45.5068 141.149 45.6186 141.008 45.7002C140.284 46.1223 139.489 46.4112 138.663 46.5529C138.294 46.6137 137.977 46.6445 137.709 46.6445C136.834 46.6495 135.967 46.4894 135.151 46.1723C134.373 45.8735 133.663 45.4186 133.068 44.8352C132.47 44.2397 131.997 43.5311 131.676 42.7508C131.334 41.9375 131.162 41.0329 131.162 40.0369C131.162 39.0409 131.334 38.1363 131.676 37.3231C131.997 36.5428 132.47 35.8342 133.068 35.2386C133.663 34.6552 134.373 34.2003 135.151 33.9015C135.967 33.5845 136.834 33.4243 137.709 33.4294C138.479 33.4294 139.252 33.5825 140.03 33.8883C140.326 34.0052 140.676 34.2137 141.079 34.5134C141.21 34.6109 141.319 34.7351 141.398 34.8778C141.477 35.0205 141.525 35.1785 141.538 35.3411C141.552 35.5038 141.531 35.6675 141.477 35.8214C141.422 35.9754 141.335 36.116 141.223 36.2338L140.757 36.72C140.559 36.9265 140.292 37.0522 140.007 37.0725C139.722 37.0931 139.44 37.0069 139.215 36.8308Z" fill="#94A3B8"/>
</g>
</g>
</svg>
