<svg width="160" height="80" viewBox="0 0 160 80" fill="none" xmlns="http://www.w3.org/2000/svg">
<mask id="mask0_1838_1043" style="mask-type:luminance" maskUnits="userSpaceOnUse" x="18" y="15" width="124" height="51">
<path d="M141.801 15.3846H18.4614V65.973H141.801V15.3846Z" fill="white"/>
</mask>
<g mask="url(#mask0_1838_1043)">
<path d="M46.6318 65.3781V52.6824L46.8949 52.4193H50.0689L50.332 52.6824V65.3781L50.0689 65.641H46.8949L46.6318 65.3781Z" fill="#94A3B8"/>
<path d="M46.6318 28.3436V15.6479L46.8949 15.3848H50.0689L50.332 15.6479V28.3436L50.0689 28.6068H46.8949L46.6318 28.3436Z" fill="#94A3B8"/>
<path d="M35.7071 56.4526H35.2715L33.0884 54.2695V53.8337L37.179 49.7388L39.4896 49.7429L39.7979 50.0472V52.3578L35.7071 56.4526Z" fill="#94A3B8"/>
<path d="M33.0884 27.3074V26.8676L35.2715 24.6885H35.7071L39.7979 28.7792V31.0857L39.4896 31.3982H37.179L33.0884 27.3074Z" fill="#94A3B8"/>
<path d="M18.7245 38.6591H36.7116L36.9747 38.9223V42.1003L36.7116 42.3634H18.7245L18.4614 42.1003V38.9223L18.7245 38.6591Z" fill="#94A3B8"/>
<path d="M124.606 38.663H141.532L141.795 38.926V42.1L141.532 42.3631H123.282L123.019 42.1L124.339 38.926L124.602 38.663H124.606Z" fill="#94A3B8"/>
<path d="M54.4349 47.1279H51.2611L50.998 46.8647V39.4356C50.998 38.1117 50.4798 37.088 48.8846 37.0551C48.0625 37.0345 47.1251 37.0551 46.1218 37.0962L45.9698 37.2483V40.2496V46.8607L45.7066 47.1237H42.5328L42.2695 46.8607V34.165L42.5328 33.9017H49.674C52.4492 33.9017 54.6981 36.1507 54.6981 38.9259V46.8607L54.4349 47.1237V47.1279Z" fill="#94A3B8"/>
<path d="M69.8075 41.5697L69.5444 41.8327H61.3381L61.0751 42.0958C61.0751 42.6263 61.6054 44.2132 63.7227 44.2132C64.5161 44.2132 65.3097 43.95 65.5769 43.4197L65.8401 43.1566H69.014L69.2771 43.4197C69.014 45.0066 67.69 47.3912 63.7186 47.3912C59.2209 47.3912 57.1035 44.2174 57.1035 40.5089C57.1035 36.8004 59.2209 33.6266 63.4555 33.6266C67.69 33.6266 69.8075 36.8004 69.8075 40.5089V41.5655V41.5697ZM65.836 38.9218C65.836 38.6587 65.5727 36.8046 63.4555 36.8046C61.3381 36.8046 61.0751 38.6587 61.0751 38.9218L61.3381 39.185H65.5727L65.836 38.9218Z" fill="#94A3B8"/>
<path d="M77.2148 43.1565C77.2148 43.6868 77.4779 43.95 78.0084 43.95H80.389L80.6521 44.2131V46.8608L80.389 47.1239H78.0084C75.6279 47.1239 73.5104 46.0632 73.5104 43.1523V37.3308L73.2473 37.0676H71.3934L71.1304 36.8045V34.1568L71.3934 33.8937H73.2473L73.5104 33.6306V31.2502L73.7734 30.9869H76.9474L77.2105 31.2502V33.6306L77.4736 33.8937H80.3847L80.6476 34.1568V36.8045L80.3847 37.0676H77.4736L77.2105 37.3308V43.1523L77.2148 43.1565Z" fill="#94A3B8"/>
<path d="M87.0084 47.1281H83.8344L83.5713 46.865V28.8656L83.8344 28.6025H87.0084L87.2714 28.8656V46.8608L87.0084 47.1239V47.1281Z" fill="#94A3B8"/>
<path d="M94.1539 31.7764H90.9799L90.7168 31.5133V28.8656L90.9799 28.6025H94.1539L94.417 28.8656V31.5133L94.1539 31.7764ZM94.1539 47.1281H90.9799L90.7168 46.865V34.161L90.9799 33.8979H94.1539L94.417 34.161V46.865L94.1539 47.1281Z" fill="#94A3B8"/>
<path d="M106.595 28.8654V31.5131L106.332 31.7763H103.952C103.421 31.7763 103.158 32.0394 103.158 32.5697V33.6305L103.421 33.8935H106.069L106.332 34.1568V36.8045L106.069 37.0675H103.421L103.158 37.3306V46.8566L102.895 47.1197H99.7212L99.4581 46.8566V37.3306L99.1952 37.0675H97.3407L97.0776 36.8045V34.1568L97.3407 33.8935H99.1952L99.4581 33.6305V32.5697C99.4581 29.6589 101.576 28.5981 103.956 28.5981H106.336L106.6 28.8614L106.595 28.8654Z" fill="#94A3B8"/>
<path d="M116.384 47.3908C115.323 50.0385 114.267 51.6256 110.563 51.6256H109.239L108.976 51.3624V48.7147L109.239 48.4516H110.563C111.886 48.4516 112.15 48.1885 112.417 47.395V47.1319L108.182 36.8084V34.1607L108.445 33.8976H110.826L111.089 34.1607L114.263 43.1604H114.526L117.7 34.1607L117.963 33.8976H120.344L120.607 34.1607V36.8084L116.372 47.395L116.384 47.3908Z" fill="#94A3B8"/>
</g>
</svg>
