<svg width="160" height="80" viewBox="0 0 160 80" fill="none" xmlns="http://www.w3.org/2000/svg">
<path d="M79.8605 33.1191C75.0545 33.1191 71.5893 36.2535 71.5893 40.9551C71.5893 45.6568 75.4899 48.7911 80.2959 48.7911C83.1996 48.7911 85.7593 47.6418 87.3439 45.7046L84.0136 43.7805C83.1343 44.7425 81.7977 45.3041 80.2959 45.3041C78.2107 45.3041 76.4388 44.2157 75.7816 42.4745H87.9796C88.0753 41.9869 88.1319 41.4818 88.1319 40.9508C88.1319 36.2535 84.6667 33.1191 79.8605 33.1191ZM75.7424 39.4314C76.2865 37.6945 77.7753 36.6018 79.8562 36.6018C81.9414 36.6018 83.4304 37.6945 83.97 39.4314H75.7424ZM126.737 33.1191C121.931 33.1191 118.466 36.2535 118.466 40.9551C118.466 45.6568 122.366 48.7911 127.172 48.7911C130.076 48.7911 132.636 47.6418 134.221 45.7046L130.89 43.7805C130.011 44.7425 128.674 45.3041 127.172 45.3041C125.087 45.3041 123.315 44.2157 122.658 42.4745H134.856C134.952 41.9869 135.008 41.4818 135.008 40.9508C135.008 36.2535 131.543 33.1191 126.737 33.1191ZM122.623 39.4314C123.167 37.6945 124.656 36.6018 126.737 36.6018C128.822 36.6018 130.311 37.6945 130.851 39.4314H122.623ZM105.632 40.9551C105.632 43.5671 107.339 45.3085 109.986 45.3085C111.779 45.3085 113.124 44.4943 113.816 43.1666L117.16 45.0951C115.775 47.4023 113.181 48.7911 109.986 48.7911C105.175 48.7911 101.714 45.6568 101.714 40.9551C101.714 36.2535 105.179 33.1191 109.986 33.1191C113.181 33.1191 115.771 34.5078 117.16 36.8151L113.816 38.7437C113.124 37.4158 111.779 36.6018 109.986 36.6018C107.343 36.6018 105.632 38.3431 105.632 40.9551ZM141.538 28.3305V48.3557H137.62V28.3305H141.538ZM34.547 26.1538L50.6323 54.0151H18.4614L34.547 26.1538ZM74.7628 28.3305L62.6999 49.2265L50.6368 28.3305H55.1599L62.6999 41.3905L70.2397 28.3305H74.7628ZM100.408 33.5545V37.7728C99.973 37.6466 99.5114 37.5595 99.0151 37.5595C96.4859 37.5595 94.6619 39.3009 94.6619 41.9129V48.3557H90.7439V33.5545H94.6619V37.5595C94.6619 35.348 97.2347 33.5545 100.408 33.5545Z" fill="#94A3B8"/>
</svg>
