<svg width="160" height="80" viewBox="0 0 160 80" fill="none" xmlns="http://www.w3.org/2000/svg">
<mask id="mask0_1838_1029" style="mask-type:luminance" maskUnits="userSpaceOnUse" x="18" y="23" width="125" height="34">
<path d="M142.293 23.077H18.4614V56.5611H142.293V23.077Z" fill="white"/>
</mask>
<g mask="url(#mask0_1838_1029)">
<path d="M42.3161 37.4088H31.9117C31.7827 37.4089 31.6591 37.4602 31.5678 37.5513C31.4768 37.6425 31.4255 37.7662 31.4254 37.8951V42.982C31.4255 43.1111 31.4768 43.2348 31.5678 43.3262C31.6591 43.4174 31.7826 43.4688 31.9117 43.4691H35.9704V49.7889C35.9704 49.7889 35.0591 50.0999 32.5394 50.0999C29.5668 50.0999 25.4141 49.0134 25.4141 39.882C25.4141 30.7488 29.7383 29.5469 33.7978 29.5469C37.3118 29.5469 38.8258 30.1659 39.7891 30.4637C40.0917 30.5565 40.3717 30.2554 40.3717 29.9865L41.5324 25.0717C41.5324 24.9462 41.4898 24.7945 41.3464 24.6917C40.9554 24.4127 38.5688 23.0772 32.5394 23.0772C25.5935 23.0772 18.4688 26.0326 18.4688 40.2382C18.4688 54.4446 26.6261 56.5614 33.5 56.5614C39.1917 56.5614 42.6443 54.1291 42.6443 54.1291C42.7868 54.0502 42.8021 53.8514 42.8021 53.7602V37.8948C42.8021 37.6266 42.5846 37.4088 42.3161 37.4088ZM95.9369 24.7793C95.9375 24.7154 95.9255 24.6522 95.9015 24.593C95.8774 24.5338 95.842 24.48 95.7971 24.4346C95.7523 24.3891 95.6989 24.353 95.64 24.3283C95.5811 24.3036 95.518 24.2907 95.4541 24.2905H89.5954C89.5315 24.2907 89.4681 24.3036 89.4092 24.3283C89.3501 24.353 89.2966 24.389 89.2515 24.4344C89.2064 24.4798 89.1709 24.5336 89.1466 24.5928C89.1223 24.652 89.11 24.7154 89.1101 24.7793L89.1118 36.1009H79.9801V24.7793C79.9806 24.7154 79.9684 24.6522 79.9443 24.5929C79.9203 24.5338 79.8847 24.4799 79.8398 24.4345C79.7949 24.3891 79.7415 24.353 79.6826 24.3283C79.6237 24.3036 79.5606 24.2907 79.4966 24.2905H73.6384C73.5095 24.2912 73.3861 24.3431 73.2954 24.4347C73.2046 24.5264 73.154 24.6503 73.1546 24.7793V55.4349C73.1546 55.7051 73.372 55.9251 73.6384 55.9251H79.4966C79.7646 55.9251 79.9801 55.7049 79.9801 55.4349V42.3223H89.1118L89.0958 55.4349C89.0958 55.7051 89.3134 55.9251 89.5812 55.9251H95.4535C95.722 55.9251 95.9364 55.7049 95.9369 55.4349V24.7793ZM53.3712 28.8023C53.3712 26.6926 51.6798 24.9879 49.5934 24.9879C47.5089 24.9879 45.8163 26.6926 45.8163 28.8023C45.8163 30.9094 47.5089 32.6185 49.5934 32.6185C51.6798 32.6185 53.3712 30.9094 53.3712 28.8023ZM52.9521 48.9683V34.8177C52.9526 34.6888 52.9017 34.5648 52.8109 34.4733C52.72 34.3817 52.5964 34.3299 52.4675 34.3291H46.6277C46.3598 34.3291 46.12 34.6056 46.12 34.8745V55.1477C46.12 55.7439 46.4912 55.9206 46.9718 55.9206H52.2334C52.8106 55.9206 52.9521 55.6371 52.9521 55.1385V48.9683ZM118.201 34.3753H112.388C112.121 34.3753 111.904 34.5949 111.904 34.8654V49.8968C111.904 49.8968 110.427 50.9776 108.331 50.9776C106.235 50.9776 105.679 50.0265 105.679 47.974V34.8654C105.679 34.5949 105.462 34.3753 105.195 34.3753H99.2948C99.0288 34.3753 98.8103 34.5949 98.8103 34.8654V48.9663C98.8103 55.0626 102.208 56.5542 106.883 56.5542C110.717 56.5542 113.809 54.4359 113.809 54.4359C113.809 54.4359 113.956 55.552 114.022 55.6845C114.089 55.8165 114.263 55.9499 114.45 55.9499L118.204 55.9333C118.47 55.9333 118.688 55.7131 118.688 55.444L118.686 34.8657C118.686 34.5949 118.469 34.3753 118.201 34.3753ZM131.797 50.9589C129.781 50.8976 128.413 49.9823 128.413 49.9823V40.2748C128.413 40.2748 129.762 39.4477 131.418 39.2997C133.511 39.1122 135.528 39.7446 135.528 44.7383C135.529 50.0045 134.618 51.0439 131.797 50.9589ZM134.09 33.6869C130.788 33.6869 128.542 35.1602 128.542 35.1602V24.7796C128.542 24.5089 128.326 24.2905 128.059 24.2905H122.184C122.12 24.2908 122.057 24.3037 121.998 24.3284C121.939 24.3532 121.886 24.3893 121.841 24.4347C121.796 24.4801 121.76 24.534 121.736 24.5931C121.712 24.6523 121.7 24.7157 121.7 24.7796V55.4349C121.7 55.7051 121.917 55.9251 122.185 55.9251H126.261C126.445 55.9251 126.584 55.8305 126.686 55.6649C126.788 55.5002 126.934 54.2516 126.934 54.2516C126.934 54.2516 129.336 56.5282 133.884 56.5282C139.223 56.5282 142.284 53.82 142.284 44.3709C142.284 34.9217 137.394 33.6869 134.09 33.6869ZM69.7895 34.3266H65.3951L65.3883 28.5208C65.3883 28.3011 65.2752 28.1913 65.0212 28.1913H59.0326C58.7998 28.1913 58.6748 28.2939 58.6748 28.5174V34.5171C58.6748 34.5171 55.6737 35.2414 55.4707 35.3002C55.3697 35.3294 55.2806 35.3909 55.2174 35.4751C55.1541 35.5594 55.1198 35.6619 55.12 35.7673V39.5374C55.12 39.8086 55.3364 40.0266 55.6044 40.0266H58.6748V49.0962C58.6748 55.8331 63.4 56.4948 66.5888 56.4948C68.0457 56.4948 69.7884 56.0271 70.0763 55.9205C70.2503 55.8565 70.3514 55.6763 70.3514 55.4808L70.3563 51.3336C70.3563 51.0629 70.1278 50.8445 69.8704 50.8445C69.6144 50.8445 68.9594 50.9486 68.2849 50.9486C66.1264 50.9486 65.3951 49.9449 65.3951 48.6459L65.3948 40.0265H69.7895C70.0574 40.0265 70.2743 39.808 70.2743 39.5371V34.8146C70.2746 34.7508 70.2623 34.6874 70.238 34.6283C70.2138 34.5691 70.1781 34.5154 70.1332 34.47C70.0881 34.4246 70.0346 34.3886 69.9757 34.364C69.9168 34.3394 69.8534 34.3268 69.7895 34.3266Z" fill="#94A3B8"/>
</g>
</svg>
