<svg width="32" height="32" viewBox="0 0 32 32" fill="none" xmlns="http://www.w3.org/2000/svg">
<g clip-path="url(#clip0_823_17700)">
<mask id="mask0_823_17700" style="mask-type:luminance" maskUnits="userSpaceOnUse" x="0" y="0" width="32" height="32">
<path d="M32 0H0V32H32V0Z" fill="white"/>
</mask>
<g mask="url(#mask0_823_17700)">
<path d="M31.3202 16.3598C31.3202 15.3064 31.2268 14.3064 31.0668 13.3331H16V19.3465H24.6267C24.2401 21.3198 23.1067 22.9865 21.4267 24.1199V28.1199H26.5734C29.5868 25.3332 31.3202 21.2265 31.3202 16.3598Z" fill="#4285F4"/>
<path d="M15.9992 32C20.3192 32 23.9326 30.56 26.5726 28.1199L21.4259 24.1199C19.9859 25.0799 18.1592 25.6666 15.9992 25.6666C11.8258 25.6666 8.29241 22.8532 7.02573 19.0532H1.71899V23.1732C4.34569 28.3999 9.74576 32 15.9992 32Z" fill="#34A853"/>
<path d="M7.02675 19.0537C6.69342 18.0937 6.52008 17.067 6.52008 16.0003C6.52008 14.9336 6.70675 13.907 7.02675 12.947V8.8269H1.72002C0.626673 10.9869 0 13.4136 0 16.0003C0 18.587 0.626673 21.0137 1.72002 23.1737L7.02675 19.0537Z" fill="#FBBC05"/>
<path d="M15.9992 6.33341C18.3592 6.33341 20.4659 7.14676 22.1326 8.73345L26.6926 4.17339C23.9326 1.58669 20.3192 0 15.9992 0C9.74576 0 4.34569 3.60005 1.71899 8.82678L7.02573 12.9468C8.29241 9.14678 11.8258 6.33341 15.9992 6.33341Z" fill="#EA4335"/>
</g>
</g>
<defs>
<clipPath id="clip0_823_17700">
<rect width="32" height="32" fill="white"/>
</clipPath>
</defs>
</svg>
