<svg width="120" height="48" viewBox="0 0 120 48" fill="none" xmlns="http://www.w3.org/2000/svg">
<g clip-path="url(#clip0_1125_20200)">
<path d="M21.3 11C21.5 11 21.6 11.1 21.8 11.2C20.6 11.7 19.4 13 18.8 15.8L16.6 16.4C17.3 14.4 18.7 11 21.3 11ZM22.4 12C22.6 12.6 22.8 13.3 22.8 14.4C22.8 14.5 22.8 14.5 22.8 14.6L19.9 15.4C20.5 13.3 21.5 12.4 22.4 12ZM25 13.8L23.7 14.2C23.7 14.1 23.7 14 23.7 13.9C23.7 13 23.6 12.3 23.4 11.7C24.1 11.9 24.7 12.8 25 13.8ZM31.5 15.4C31.5 15.3 31.4 15.2 31.3 15.2C31.1 15.2 29 15 29 15C29 15 27.5 13.5 27.3 13.4C27.1 13.2 26.8 13.3 26.7 13.3C26.7 13.3 26.4 13.4 25.9 13.6C25.4 12.2 24.5 10.9 23 10.9H22.9C22.5 10.3 21.9 10.1 21.4 10.1C17.8 10 16.1 14.5 15.5 16.8C14.7 17 13.9 17.3 13 17.6C12.2 17.8 12.2 17.9 12.1 18.6C12 19.1 10 34.9 10 34.9L25.9 37.9L34.5 36C34.5 36 31.5 15.6 31.5 15.4Z" fill="#8DB849"/>
<path d="M31.2 15.2C31.1 15.2 29 15 29 15C29 15 27.5 13.5 27.3 13.4C27.2 13.3 27.2 13.3 27.1 13.3L25.9 37.9L34.5 36C34.5 36 31.5 15.6 31.5 15.4C31.5 15.3 31.3 15.2 31.2 15.2Z" fill="#5A863E"/>
<path d="M23 20L21.9 23.2C21.9 23.2 21 22.7 19.8 22.7C18.1 22.7 18 23.7 18 24C18 25.4 21.8 26 21.8 29.4C21.8 32.1 20.1 33.8 17.8 33.8C15.1 33.8 13.7 32.1 13.7 32.1L14.4 29.7C14.4 29.7 15.8 30.9 17 30.9C17.8 30.9 18.1 30.3 18.1 29.8C18.1 27.9 15 27.8 15 24.7C15 22.1 16.9 19.6 20.6 19.6C22.3 19.5 23 20 23 20Z" fill="#FFFFFE"/>
<path d="M44.6 25.9C43.7 25.4 43.3 25 43.3 24.5C43.3 23.8 43.9 23.4 44.9 23.4C46 23.4 47 23.9 47 23.9L47.8 21.5C47.8 21.5 47.1 20.9 45 20.9C42 20.9 40 22.6 40 25C40 26.4 41 27.4 42.2 28.1C43.2 28.7 43.6 29.1 43.6 29.7C43.6 30.3 43.1 30.9 42.1 30.9C40.7 30.9 39.3 30.2 39.3 30.2L38.5 32.6C38.5 32.6 39.7 33.4 41.8 33.4C44.8 33.4 47 31.9 47 29.2C47 27.7 45.9 26.6 44.6 25.9ZM56.7 20.8C55.2 20.8 54 21.5 53.1 22.6L54.4 15.8H51L47.7 33.1H51.1L52.2 27.2C52.6 25 53.8 23.6 54.9 23.6C55.7 23.6 56 24.1 56 24.9C56 25.4 56 25.9 55.9 26.4L54.6 33.2H58L59.3 26.2C59.4 25.5 59.5 24.6 59.5 24C59.5 22 58.5 20.8 56.7 20.8ZM65.4 30.7C64.2 30.7 63.8 29.7 63.8 28.5C63.8 26.6 64.8 23.4 66.6 23.4C67.8 23.4 68.2 24.4 68.2 25.4C68.2 27.6 67.2 30.7 65.4 30.7ZM67.1 20.8C63 20.8 60.3 24.5 60.3 28.6C60.3 31.2 61.9 33.3 65 33.3C69 33.3 71.7 29.7 71.7 25.5C71.7 23.1 70.3 20.8 67.1 20.8ZM77.1 30.8C76.2 30.8 75.7 30.3 75.7 30.3L76.3 27.1C76.7 25 77.8 23.6 79 23.6C80 23.6 80.4 24.6 80.4 25.5C80.3 27.7 79 30.8 77.1 30.8ZM80.4 20.8C78.1 20.8 76.8 22.8 76.8 22.8L77 21H74C73.9 22.2 73.6 24.1 73.3 25.5L70.9 37.9H74.3L75.2 32.9H75.3C75.3 32.9 76 33.3 77.3 33.3C81.3 33.3 83.9 29.2 83.9 25.1C83.9 22.9 82.9 20.8 80.4 20.8ZM88.7 16C87.6 16 86.8 16.9 86.8 18C86.8 19 87.4 19.7 88.4 19.7C89.5 19.7 90.4 19 90.4 17.7C90.4 16.7 89.7 16 88.7 16ZM84 33.1H87.4L89.7 21.1H86.3L84 33.1ZM98.3 21.1H95.9L96 20.5C96.2 19.3 96.9 18.3 98 18.3C98.6 18.3 99.1 18.5 99.1 18.5L99.8 15.8C99.8 15.8 99.2 15.5 98 15.5C96.8 15.5 95.6 15.8 94.7 16.6C93.5 17.6 93 19 92.7 20.4L92.6 21H91L90.5 23.6H92.1L90.3 33.1H93.7L95.5 23.6H97.8L98.3 21.1ZM106.4 21.1C106.4 21.1 104.3 26.4 103.3 29.3C103.2 28.4 102.5 21.1 102.5 21.1H98.9L100.9 32.1C100.9 32.3 100.9 32.5 100.8 32.7C100.4 33.5 99.7 34.2 99 34.7C98.4 35.2 97.6 35.5 97.1 35.7L98 38.6C98.7 38.5 100.1 37.9 101.3 36.8C102.8 35.4 104.3 33.1 105.7 30.1L109.8 21.2L106.4 21.1Z" fill="#1A1919"/>
</g>
<defs>
<clipPath id="clip0_1125_20200">
<rect width="100" height="28.6" fill="white" transform="translate(10 10)"/>
</clipPath>
</defs>
</svg>
