<svg width="120" height="48" viewBox="0 0 120 48" fill="none" xmlns="http://www.w3.org/2000/svg">
<g clip-path="url(#clip0_1125_20201)">
<path d="M17.4703 13.5993C16.4915 12.438 15.6487 11.2586 15.4765 11.0136C15.4584 10.9955 15.4312 10.9955 15.4131 11.0136C15.2409 11.2586 14.398 12.438 13.4192 13.5993C5.01798 24.3141 14.7424 31.545 14.7424 31.545L14.824 31.5995C14.8965 32.7153 15.0777 34.3212 15.0777 34.3212H15.4402H15.8028C15.8028 34.3212 15.984 32.7244 16.0565 31.5995L16.1381 31.5359C16.1471 31.545 25.8716 24.3141 17.4703 13.5993ZM15.4402 31.3907C15.4402 31.3907 15.0052 31.0188 14.8874 30.8282V30.8102L15.4131 19.1427C15.4131 19.1064 15.4674 19.1064 15.4674 19.1427L15.9931 30.8102V30.8282C15.8753 31.0188 15.4402 31.3907 15.4402 31.3907Z" fill="#00684A"/>
<path d="M33.639 28.93L29.5867 19.1034L29.5776 19.0762H26.4248V19.7368H26.9336C27.0881 19.7368 27.2334 19.8001 27.3425 19.9087C27.4515 20.0173 27.506 20.1621 27.506 20.3159L27.4152 30.2057C27.4152 30.5133 27.1608 30.7667 26.8519 30.7758L26.334 30.7849V31.4363H29.405V30.7849L29.087 30.7758C28.7781 30.7667 28.5236 30.5133 28.5236 30.2057V20.8859L32.9394 31.4363C33.003 31.5901 33.1483 31.6897 33.3119 31.6897C33.4755 31.6897 33.6208 31.5901 33.6844 31.4363L38.0002 21.1212L38.0638 30.2057C38.0638 30.5224 37.8094 30.7758 37.4914 30.7849H37.1643V31.4363H40.7623V30.7849H40.2716C39.9627 30.7849 39.7083 30.5224 39.6992 30.2148L39.672 20.3249C39.672 20.0082 39.9264 19.7549 40.2353 19.7458L40.7623 19.7368V19.0762H37.6912L33.639 28.93Z" fill="#00684A"/>
<path d="M61.8936 30.6131C61.7934 30.5136 61.7387 30.378 61.7387 30.2154V25.371C61.7387 24.4492 61.4655 23.7261 60.9189 23.211C60.3815 22.6958 59.6345 22.4337 58.7053 22.4337C57.4026 22.4337 56.3733 22.958 55.6536 23.9883C55.6445 24.0063 55.6172 24.0154 55.5899 24.0154C55.5625 24.0154 55.5444 23.9973 55.5444 23.9702L55.2072 22.6778H54.6425L53.1941 23.5003V23.9521H53.5676C53.7406 23.9521 53.8864 23.9973 53.9867 24.0876C54.0868 24.178 54.1415 24.3136 54.1415 24.5034V30.2063C54.1415 30.369 54.0868 30.5046 53.9867 30.604C53.8864 30.7034 53.7498 30.7576 53.5858 30.7576H53.2214V31.4174H56.5554V30.7576H56.1911C56.0271 30.7576 55.8905 30.7034 55.7903 30.604C55.6901 30.5046 55.6354 30.369 55.6354 30.2063V26.4285C55.6354 25.9494 55.7447 25.4705 55.9452 25.0005C56.1546 24.5396 56.4643 24.151 56.8743 23.8527C57.2842 23.5544 57.7761 23.4099 58.3409 23.4099C58.9786 23.4099 59.4614 23.6087 59.762 24.0063C60.0626 24.404 60.2175 24.9191 60.2175 25.5337V30.1973C60.2175 30.36 60.1628 30.4955 60.0626 30.595C59.9624 30.6944 59.8258 30.7486 59.6618 30.7486H59.2974V31.4083H62.6315V30.7486H62.2671C62.1305 30.7667 62.0029 30.7124 61.8936 30.6131Z" fill="#00684A"/>
<path d="M92.3544 19.8214C91.4328 19.3307 90.4028 19.0762 89.2914 19.0762H84.9546V19.7396H85.3793C85.5419 19.7396 85.6864 19.8032 85.831 19.9487C85.9666 20.0849 86.0388 20.2395 86.0388 20.403V30.1814C86.0388 30.3449 85.9666 30.4995 85.831 30.6358C85.6955 30.7721 85.5419 30.8447 85.3793 30.8447H84.9546V31.5082H89.2914C90.4028 31.5082 91.4328 31.2537 92.3544 30.763C93.2759 30.2722 94.0259 29.5452 94.568 28.6183C95.1101 27.6914 95.3902 26.5736 95.3902 25.3013C95.3902 24.029 95.1101 22.9203 94.568 21.9843C94.0168 21.0392 93.2759 20.3122 92.3544 19.8214ZM93.6464 25.2831C93.6464 26.4464 93.4386 27.4278 93.032 28.2184C92.6255 29.0091 92.0833 29.5997 91.4147 29.9814C90.7462 30.3632 90.0052 30.554 89.2101 30.554H88.3337C88.1711 30.554 88.0266 30.4904 87.882 30.3449C87.7464 30.2086 87.6742 30.0542 87.6742 29.8906V20.6666C87.6742 20.503 87.7374 20.3576 87.882 20.2122C88.0175 20.0759 88.1711 20.0032 88.3337 20.0032H89.2101C90.0052 20.0032 90.7462 20.194 91.4147 20.5757C92.0833 20.9574 92.6255 21.5481 93.032 22.3388C93.4386 23.1293 93.6464 24.1199 93.6464 25.2831Z" fill="#00684A"/>
<path d="M105.642 25.9466C105.24 25.483 104.466 25.0923 103.556 24.8832C104.813 24.2562 105.459 23.3747 105.459 22.2388C105.459 21.6208 105.296 21.0664 104.967 20.5938C104.64 20.1213 104.175 19.7396 103.583 19.4761C102.991 19.2125 102.298 19.0762 101.515 19.0762H96.6063V19.7396H96.998C97.1618 19.7396 97.3076 19.8032 97.4533 19.9486C97.59 20.0849 97.6628 20.2395 97.6628 20.403V30.1814C97.6628 30.3449 97.59 30.4995 97.4533 30.6358C97.3167 30.7721 97.1618 30.8447 96.998 30.8447H96.5698V31.5082H101.898C102.709 31.5082 103.465 31.3719 104.148 31.0992C104.831 30.8266 105.377 30.4268 105.769 29.8996C106.17 29.3726 106.37 28.7273 106.37 27.9821C106.361 27.1824 106.124 26.5008 105.642 25.9466ZM99.53 30.354C99.3933 30.2177 99.3205 30.0633 99.3205 29.8996V25.5104H101.853C102.745 25.5104 103.428 25.7375 103.902 26.1918C104.376 26.6463 104.612 27.2369 104.612 27.964C104.612 28.4002 104.503 28.8273 104.303 29.2181C104.093 29.618 103.783 29.936 103.365 30.1814C102.955 30.4268 102.445 30.554 101.853 30.554H99.9853C99.8215 30.5631 99.6757 30.4904 99.53 30.354ZM99.3296 24.5742V20.6757C99.3296 20.5121 99.3933 20.3667 99.5391 20.2212C99.6757 20.0849 99.8305 20.0123 99.9945 20.0123H101.197C102.062 20.0123 102.7 20.2304 103.101 20.6484C103.501 21.0755 103.701 21.6208 103.701 22.2933C103.701 22.9839 103.51 23.5383 103.137 23.9564C102.763 24.3653 102.199 24.5742 101.452 24.5742H99.3296Z" fill="#00684A"/>
<path d="M49.2014 23.0133C48.5054 22.633 47.7281 22.4337 46.8875 22.4337C46.0469 22.4337 45.2606 22.6239 44.5736 23.0133C43.8776 23.3937 43.3263 23.9462 42.9195 24.6435C42.5128 25.3409 42.3049 26.1561 42.3049 27.0617C42.3049 27.9673 42.5128 28.7825 42.9195 29.4798C43.3263 30.1772 43.8776 30.7297 44.5736 31.1101C45.2696 31.4904 46.0469 31.6896 46.8875 31.6896C47.7281 31.6896 48.5145 31.4994 49.2014 31.1101C49.8974 30.7297 50.4488 30.1772 50.8555 29.4798C51.2622 28.7825 51.4701 27.9673 51.4701 27.0617C51.4701 26.1561 51.2622 25.3409 50.8555 24.6435C50.4488 23.9462 49.8974 23.4028 49.2014 23.0133ZM49.8703 27.0617C49.8703 28.1757 49.5991 29.0813 49.0567 29.7334C48.5235 30.3855 47.7914 30.7206 46.8875 30.7206C45.9837 30.7206 45.2515 30.3855 44.7183 29.7334C44.1759 29.0813 43.9048 28.1757 43.9048 27.0617C43.9048 25.9477 44.1759 25.0421 44.7183 24.39C45.2515 23.7379 45.9837 23.4028 46.8875 23.4028C47.7914 23.4028 48.5235 23.7379 49.0567 24.39C49.5991 25.0511 49.8703 25.9477 49.8703 27.0617Z" fill="#00684A"/>
<path d="M81.2341 23.0133C80.5381 22.633 79.7608 22.4337 78.9202 22.4337C78.0797 22.4337 77.2933 22.6239 76.6063 23.0133C75.9103 23.3937 75.359 23.9462 74.9523 24.6435C74.5455 25.3409 74.3376 26.1561 74.3376 27.0617C74.3376 27.9673 74.5455 28.7825 74.9523 29.4798C75.359 30.1772 75.9103 30.7297 76.6063 31.1101C77.3023 31.4904 78.0797 31.6896 78.9202 31.6896C79.7608 31.6896 80.5472 31.4994 81.2341 31.1101C81.9301 30.7297 82.4815 30.1772 82.8882 29.4798C83.2949 28.7825 83.5028 27.9673 83.5028 27.0617C83.5028 26.1561 83.2949 25.3409 82.8882 24.6435C82.4815 23.9462 81.921 23.4028 81.2341 23.0133ZM81.903 27.0617C81.903 28.1757 81.6318 29.0813 81.0895 29.7334C80.5562 30.3855 79.824 30.7206 78.9202 30.7206C78.0163 30.7206 77.2842 30.3855 76.751 29.7334C76.2086 29.0813 75.9375 28.1757 75.9375 27.0617C75.9375 25.9386 76.2086 25.0421 76.751 24.39C77.2842 23.7379 78.0163 23.4028 78.9202 23.4028C79.824 23.4028 80.5562 23.7379 81.0895 24.39C81.6228 25.0511 81.903 25.9477 81.903 27.0617Z" fill="#00684A"/>
<path d="M68.3157 22.4337C67.5874 22.4337 66.923 22.5884 66.3222 22.8977C65.7213 23.2071 65.248 23.6257 64.9112 24.1624C64.5744 24.6901 64.4015 25.2816 64.4015 25.9093C64.4015 26.4734 64.5289 26.992 64.7928 27.4561C65.0477 27.9019 65.3937 28.2749 65.8306 28.5842L64.5289 30.3494C64.365 30.5677 64.3468 30.8588 64.4652 31.0954C64.5926 31.341 64.8292 31.4867 65.1024 31.4867H65.4756C65.1114 31.7323 64.8202 32.0234 64.6199 32.3691C64.3832 32.7604 64.2649 33.1698 64.2649 33.5883C64.2649 34.3708 64.6108 35.0168 65.2935 35.499C65.9672 35.9812 66.9138 36.2268 68.1063 36.2268C68.9347 36.2268 69.7266 36.0904 70.4457 35.8265C71.174 35.5627 71.7656 35.1714 72.2026 34.662C72.6487 34.1524 72.8762 33.5337 72.8762 32.824C72.8762 32.078 72.6031 31.5503 71.9659 31.0408C71.4198 30.6131 70.5641 30.3857 69.499 30.3857H65.8579C65.8488 30.3857 65.8397 30.3766 65.8397 30.3766C65.8397 30.3766 65.8306 30.3584 65.8397 30.3494L66.7864 29.0756C67.0413 29.1938 67.278 29.2666 67.4873 29.3121C67.7057 29.3576 67.9516 29.3758 68.2246 29.3758C68.9893 29.3758 69.6811 29.2211 70.2819 28.9118C70.8827 28.6024 71.3652 28.1839 71.7111 27.6471C72.0569 27.1194 72.2299 26.528 72.2299 25.9003C72.2299 25.2269 71.9022 23.9986 71.0101 23.3709C71.0101 23.3618 71.0192 23.3618 71.0192 23.3618L72.9763 23.5801V22.6794H69.8449C69.3534 22.5156 68.8437 22.4337 68.3157 22.4337ZM69.408 28.1202C69.0621 28.3022 68.6889 28.4023 68.3157 28.4023C67.7058 28.4023 67.1687 28.1839 66.7135 27.7563C66.2585 27.3287 66.0309 26.7009 66.0309 25.9003C66.0309 25.0995 66.2585 24.4718 66.7135 24.0442C67.1687 23.6165 67.7058 23.3982 68.3157 23.3982C68.698 23.3982 69.0621 23.4892 69.408 23.6802C69.7539 23.8621 70.0361 24.1443 70.2637 24.5172C70.4821 24.8903 70.6005 25.3543 70.6005 25.9003C70.6005 26.4553 70.4912 26.9192 70.2637 27.2832C70.0452 27.6562 69.7539 27.9383 69.408 28.1202ZM66.9411 31.4775H69.408C70.0908 31.4775 70.5277 31.614 70.819 31.9052C71.1103 32.1963 71.2559 32.5875 71.2559 33.0425C71.2559 33.7066 70.9919 34.2525 70.464 34.662C69.9359 35.0714 69.226 35.2807 68.3521 35.2807C67.5874 35.2807 66.9502 35.1078 66.4859 34.7802C66.0217 34.4527 65.785 33.9523 65.785 33.3154C65.785 32.9151 65.8943 32.542 66.1128 32.2145C66.3312 31.8869 66.5952 31.6504 66.9411 31.4775Z" fill="#00684A"/>
<path d="M108.217 31.3564C108.037 31.2581 107.902 31.1152 107.794 30.9455C107.695 30.7669 107.641 30.5793 107.641 30.3739C107.641 30.1684 107.695 29.972 107.794 29.8023C107.893 29.6236 108.037 29.4897 108.217 29.3914C108.397 29.2932 108.595 29.2396 108.82 29.2396C109.045 29.2396 109.243 29.2932 109.424 29.3914C109.603 29.4897 109.739 29.6326 109.847 29.8023C109.946 29.9809 110 30.1684 110 30.3739C110 30.5793 109.946 30.7758 109.847 30.9455C109.748 31.1241 109.603 31.2581 109.424 31.3564C109.243 31.4545 109.045 31.5082 108.82 31.5082C108.604 31.5082 108.397 31.4545 108.217 31.3564ZM109.325 31.2223C109.477 31.142 109.586 31.017 109.676 30.874C109.757 30.7222 109.802 30.5524 109.802 30.365C109.802 30.1774 109.757 30.0077 109.676 29.8558C109.594 29.704 109.477 29.5879 109.325 29.5075C109.171 29.4271 109.009 29.3825 108.82 29.3825C108.632 29.3825 108.469 29.4271 108.316 29.5075C108.163 29.5879 108.054 29.713 107.965 29.8558C107.884 30.0077 107.838 30.1774 107.838 30.365C107.838 30.5524 107.884 30.7222 107.965 30.874C108.046 31.0259 108.163 31.142 108.316 31.2223C108.469 31.3027 108.632 31.3474 108.82 31.3474C109.009 31.3474 109.181 31.3027 109.325 31.2223ZM108.334 30.9098V30.8294L108.352 30.8204H108.406C108.424 30.8204 108.442 30.8115 108.451 30.8025C108.469 30.7848 108.469 30.7758 108.469 30.7579V29.9273C108.469 29.9094 108.46 29.8916 108.451 29.8827C108.433 29.8648 108.424 29.8648 108.406 29.8648H108.352L108.334 29.8558V29.7755L108.352 29.7665H108.82C108.956 29.7665 109.054 29.7933 109.135 29.8558C109.217 29.9183 109.252 29.9987 109.252 30.1059C109.252 30.1863 109.226 30.2667 109.162 30.3202C109.1 30.3828 109.027 30.4185 108.937 30.4275L109.045 30.4632L109.252 30.7936C109.27 30.8204 109.289 30.8294 109.316 30.8294H109.369L109.378 30.8383V30.9187L109.369 30.9276H109.091L109.073 30.9187L108.784 30.4364H108.712V30.7579C108.712 30.7758 108.721 30.7936 108.73 30.8025C108.749 30.8204 108.758 30.8204 108.775 30.8204H108.829L108.848 30.8294V30.9098L108.829 30.9187H108.352L108.334 30.9098ZM108.793 30.3292C108.866 30.3292 108.928 30.3113 108.965 30.2667C109 30.2309 109.027 30.1684 109.027 30.097C109.027 30.0255 109.009 29.972 108.974 29.9273C108.937 29.8827 108.883 29.8648 108.82 29.8648H108.784C108.766 29.8648 108.749 29.8737 108.74 29.8827C108.721 29.9005 108.721 29.9094 108.721 29.9273V30.3292H108.793Z" fill="#00684A"/>
</g>
<defs>
<clipPath id="clip0_1125_20201">
<rect width="100" height="25.2269" fill="white" transform="translate(10 11)"/>
</clipPath>
</defs>
</svg>
