<svg width="32" height="32" viewBox="0 0 32 32" fill="none" xmlns="http://www.w3.org/2000/svg">
<g clip-path="url(#clip0_823_17701)">
<mask id="mask0_823_17701" style="mask-type:luminance" maskUnits="userSpaceOnUse" x="0" y="0" width="32" height="32">
<path d="M32 0H0V32H32V0Z" fill="white"/>
</mask>
<g mask="url(#mask0_823_17701)">
<path d="M16 32C24.8366 32 32 24.8366 32 16C32 7.16344 24.8366 0 16 0C7.16344 0 0 7.16344 0 16C0 24.8366 7.16344 32 16 32Z" fill="#F7761E"/>
<path d="M22.3128 13.4962V10.8981C22.6561 10.7376 22.9468 10.4829 23.151 10.1637C23.3553 9.84443 23.4646 9.47375 23.4664 9.09478V9.03511C23.4664 7.93015 22.5706 7.0344 21.4656 7.0344H21.406C20.8754 7.0344 20.3665 7.24519 19.9913 7.6204C19.6161 7.9956 19.4053 8.50449 19.4053 9.03511V9.09478C19.407 9.47375 19.5164 9.84443 19.7206 10.1637C19.9248 10.4829 20.2155 10.7376 20.5589 10.8981V13.4962C19.5721 13.6473 18.6428 14.0564 17.865 14.6822L10.7395 9.13234C10.7903 8.94892 10.8168 8.76034 10.8198 8.57103C10.8207 8.12514 10.6893 7.68902 10.4422 7.31782C10.1952 6.94661 9.84362 6.65701 9.43199 6.48564C9.02035 6.31427 8.56713 6.26882 8.12967 6.35506C7.69221 6.4413 7.29014 6.65534 6.97434 6.97011C6.65854 7.28488 6.44319 7.68624 6.35552 8.12342C6.26785 8.5606 6.31182 9.01396 6.48184 9.42615C6.65187 9.83835 6.94032 10.1909 7.31071 10.4391C7.6811 10.6873 8.1168 10.8201 8.56268 10.8207C8.95277 10.8189 9.33555 10.7147 9.6728 10.5187L16.6893 15.9786C16.059 16.9309 15.7301 18.0509 15.7456 19.1927C15.7612 20.3346 16.1203 21.4453 16.7762 22.38L14.6422 24.5148C14.4697 24.4596 14.29 24.4303 14.1089 24.4279C13.7429 24.4282 13.3852 24.5369 13.081 24.7405C12.7768 24.944 12.5397 25.2331 12.3998 25.5713C12.2599 25.9095 12.2233 26.2816 12.2948 26.6405C12.3663 26.9995 12.5426 27.3292 12.8014 27.588C13.0602 27.8468 13.3899 28.0231 13.7488 28.0946C14.1078 28.166 14.4799 28.1295 14.8181 27.9896C15.1563 27.8496 15.4454 27.6126 15.6489 27.3084C15.8524 27.0042 15.9612 26.6465 15.9615 26.2805C15.9591 26.0994 15.9298 25.9197 15.8746 25.7472L17.9858 23.6352C18.6742 24.1653 19.4749 24.5307 20.3263 24.7035C21.1778 24.8762 22.0575 24.8518 22.8981 24.6321C23.7387 24.4124 24.5179 24.0032 25.1759 23.4358C25.8339 22.8685 26.3533 22.158 26.6944 21.3589C27.0354 20.5598 27.189 19.6933 27.1434 18.8256C27.0978 17.958 26.8542 17.1123 26.4312 16.3533C26.0083 15.5944 25.4173 14.9423 24.7034 14.4471C23.9895 13.9518 23.1718 13.6266 22.3128 13.4962ZM21.4377 22.0412C21.0475 22.0519 20.6591 21.9843 20.2955 21.8424C19.9319 21.7005 19.6004 21.4872 19.3206 21.215C19.0409 20.9428 18.8185 20.6173 18.6666 20.2578C18.5148 19.8982 18.4366 19.5118 18.4366 19.1215C18.4366 18.7312 18.5148 18.3448 18.6666 17.9852C18.8185 17.6257 19.0409 17.3002 19.3206 17.028C19.6004 16.7558 19.9319 16.5425 20.2955 16.4006C20.6591 16.2587 21.0475 16.1911 21.4377 16.2018C22.1939 16.2283 22.9103 16.5473 23.436 17.0915C23.9618 17.6357 24.2558 18.3627 24.2562 19.1193C24.2566 19.876 23.9633 20.6033 23.4381 21.1481C22.9129 21.6928 22.1968 22.0124 21.4406 22.0397" fill="white"/>
</g>
</g>
<defs>
<clipPath id="clip0_823_17701">
<rect width="32" height="32" fill="white"/>
</clipPath>
</defs>
</svg>
