<svg width="32" height="32" viewBox="0 0 32 32" fill="none" xmlns="http://www.w3.org/2000/svg">
<g clip-path="url(#clip0_823_17702)">
<mask id="mask0_823_17702" style="mask-type:luminance" maskUnits="userSpaceOnUse" x="0" y="0" width="32" height="32">
<path d="M32 0H0V32H32V0Z" fill="white"/>
</mask>
<g mask="url(#mask0_823_17702)">
<path d="M0.354728 15.1043L14.1543 1.33429L15.4915 0L25.8794 10.3657L30.6296 15.1043C30.8669 15.3423 31.0001 15.6643 31.0001 16C31.0001 16.3357 30.8669 16.6577 30.6296 16.8957L21.1393 26.3657L15.4915 32L5.10492 21.6343L4.94314 21.4743L0.354728 16.9029C0.235822 16.7851 0.141448 16.645 0.0770481 16.4906C0.0126476 16.3363 -0.0205078 16.1708 -0.0205078 16.0036C-0.0205078 15.8364 0.0126476 15.6709 0.0770481 15.5165C0.141448 15.3622 0.235822 15.2221 0.354728 15.1043ZM15.4915 20.7314L20.2331 16L15.4915 11.2686L10.7513 16L15.4915 20.7314Z" fill="#2684FF"/>
<path d="M15.4915 11.2685C16.9828 9.78077 17.8234 7.76467 17.8298 5.66052C17.8363 3.55638 17.008 1.5352 15.5259 0.0384521L25.901 10.387L20.2546 16.0213L15.4915 11.2685Z" fill="url(#paint0_linear_823_17702)"/>
<path d="M10.7389 15.9873L15.4919 20.7316C13.995 22.2257 13.1541 24.2518 13.1541 26.3645C13.1541 28.4771 13.995 30.5032 15.4919 31.9973L5.08813 21.6216L10.7389 15.9873Z" fill="url(#paint1_linear_823_17702)"/>
</g>
</g>
<defs>
<linearGradient id="paint0_linear_823_17702" x1="16.3405" y1="6.48131" x2="22.9476" y2="13.1012" gradientUnits="userSpaceOnUse">
<stop offset="0.18" stop-color="#0052CC"/>
<stop offset="1" stop-color="#2684FF"/>
</linearGradient>
<linearGradient id="paint1_linear_823_17702" x1="-1177.29" y1="1389.17" x2="-1852.54" y2="1827.86" gradientUnits="userSpaceOnUse">
<stop offset="0.18" stop-color="#0052CC"/>
<stop offset="1" stop-color="#2684FF"/>
</linearGradient>
<clipPath id="clip0_823_17702">
<rect width="32" height="32" fill="white"/>
</clipPath>
</defs>
</svg>
