<svg width="40" height="40" viewBox="0 0 40 40" fill="none" xmlns="http://www.w3.org/2000/svg">
<path opacity="0.2" d="M37.5 20C27.5 20 37.5 33.75 27.5 33.75H12.5C2.5 33.75 12.5 20 2.5 20C12.5 20 2.5 6.25 12.5 6.25H27.5C37.5 6.25 27.5 20 37.5 20Z" fill="#DC3545"/>
<path d="M6.74683 20C7.27656 20.4357 7.70341 20.9832 7.99683 21.6031C8.74683 23.15 8.74683 25.0406 8.74683 26.875C8.74683 30.6734 8.90308 32.5 12.4968 32.5C12.8283 32.5 13.1463 32.6317 13.3807 32.8661C13.6151 33.1005 13.7468 33.4185 13.7468 33.75C13.7468 34.0815 13.6151 34.3995 13.3807 34.6339C13.1463 34.8683 12.8283 35 12.4968 35C9.76558 35 7.91558 34.0406 6.99683 32.1469C6.24683 30.6 6.24683 28.7094 6.24683 26.875C6.24683 23.0766 6.09058 21.25 2.49683 21.25C2.16531 21.25 1.84736 21.1183 1.61294 20.8839C1.37852 20.6495 1.24683 20.3315 1.24683 20C1.24683 19.6685 1.37852 19.3505 1.61294 19.1161C1.84736 18.8817 2.16531 18.75 2.49683 18.75C6.09058 18.75 6.24683 16.9234 6.24683 13.125C6.24683 11.2937 6.24683 9.4 6.99683 7.85312C7.9187 5.95937 9.7687 5 12.5 5C12.8315 5 13.1494 5.1317 13.3838 5.36612C13.6183 5.60054 13.75 5.91848 13.75 6.25C13.75 6.58152 13.6183 6.89946 13.3838 7.13388C13.1494 7.3683 12.8315 7.5 12.5 7.5C8.9062 7.5 8.74995 9.32656 8.74995 13.125C8.74995 14.9563 8.74995 16.85 7.99995 18.3969C7.70563 19.0172 7.27769 19.5646 6.74683 20ZM37.5 18.75C33.9062 18.75 33.75 16.9234 33.75 13.125C33.75 11.2937 33.75 9.4 33 7.85312C32.0812 5.95937 30.2312 5 27.5 5C27.1684 5 26.8505 5.1317 26.6161 5.36612C26.3816 5.60054 26.25 5.91848 26.25 6.25C26.25 6.58152 26.3816 6.89946 26.6161 7.13388C26.8505 7.3683 27.1684 7.5 27.5 7.5C31.0937 7.5 31.25 9.32656 31.25 13.125C31.25 14.9563 31.25 16.85 32 18.3969C32.2934 19.0168 32.7202 19.5643 33.25 20C32.7202 20.4357 32.2934 20.9832 32 21.6031C31.25 23.15 31.25 25.0406 31.25 26.875C31.25 30.6734 31.0937 32.5 27.5 32.5C27.1684 32.5 26.8505 32.6317 26.6161 32.8661C26.3816 33.1005 26.25 33.4185 26.25 33.75C26.25 34.0815 26.3816 34.3995 26.6161 34.6339C26.8505 34.8683 27.1684 35 27.5 35C30.2312 35 32.0812 34.0406 33 32.1469C33.75 30.6 33.75 28.7094 33.75 26.875C33.75 23.0766 33.9062 21.25 37.5 21.25C37.8315 21.25 38.1494 21.1183 38.3838 20.8839C38.6183 20.6495 38.75 20.3315 38.75 20C38.75 19.6685 38.6183 19.3505 38.3838 19.1161C38.1494 18.8817 37.8315 18.75 37.5 18.75Z" fill="#DC3545"/>
</svg>
