<svg width="40" height="40" viewBox="0 0 40 40" fill="none" xmlns="http://www.w3.org/2000/svg">
<path opacity="0.2" d="M35 20.0001C34.9994 17.3671 34.3058 14.7808 32.9889 12.5009C31.672 10.221 29.7782 8.32784 27.4978 7.01177C25.2174 5.6957 22.6308 5.00305 19.9979 5.00342C17.365 5.00379 14.7786 5.69717 12.4985 7.01388C10.2185 8.33059 8.32525 10.2242 7.00899 12.5045C5.69273 14.7848 4.99985 17.3714 5 20.0043C5.00015 22.6372 5.69331 25.2237 7.00983 27.5038C8.32635 29.7839 10.2198 31.6773 12.5 32.9938V27.5001L20 11.25L27.5 27.5001V32.9938C29.7808 31.677 31.6747 29.7829 32.9912 27.502C34.3078 25.221 35.0006 22.6337 35 20.0001Z" fill="#0DCAF0"/>
<path d="M31.4906 8.50933C28.4431 5.46183 24.3098 3.74976 20 3.74976C15.6901 3.74976 11.5568 5.46183 8.50933 8.50933C5.46183 11.5568 3.74976 15.6901 3.74976 20C3.74976 24.3098 5.46183 28.4431 8.50933 31.4906C11.5568 34.5381 15.6901 36.2502 20 36.2502C24.3098 36.2502 28.4431 34.5381 31.4906 31.4906C34.5381 28.4431 36.2502 24.3098 36.2502 20C36.2502 15.6901 34.5381 11.5568 31.4906 8.50933ZM13.75 30C13.75 29.3369 14.0133 28.701 14.4822 28.2322C14.951 27.7633 15.5869 27.5 16.25 27.5C16.913 27.5 17.5489 27.7633 18.0177 28.2322C18.4866 28.701 18.75 29.3369 18.75 30V33.6859C17.0068 33.5283 15.3097 33.0393 13.75 32.2453V30ZM21.25 30C21.25 29.3369 21.5133 28.701 21.9822 28.2322C22.451 27.7633 23.0869 27.5 23.75 27.5C24.413 27.5 25.0489 27.7633 25.5177 28.2322C25.9866 28.701 26.25 29.3369 26.25 30V32.2453C24.6902 33.0393 22.9931 33.5283 21.25 33.6859V30ZM16.7609 21.25H23.239L25.0484 25.1718C24.1483 24.9292 23.1983 24.9436 22.306 25.2135C21.4137 25.4833 20.6148 25.9977 20 26.6984C19.3851 25.9977 18.5863 25.4833 17.6939 25.2135C16.8016 24.9436 15.8516 24.9292 14.9515 25.1718L16.7609 21.25ZM17.9156 18.75L20 14.2328L22.0843 18.75H17.9156ZM29.7218 29.7234C29.4093 30.0359 29.0843 30.3281 28.75 30.6046V27.5C28.7502 27.3191 28.7107 27.1404 28.6343 26.9765L21.1343 10.7265C21.0341 10.51 20.8741 10.3267 20.6731 10.1983C20.4721 10.0698 20.2385 10.0016 20 10.0016C19.7614 10.0016 19.5278 10.0698 19.3268 10.1983C19.1258 10.3267 18.9658 10.51 18.8656 10.7265L11.3656 26.9765C11.2892 27.1404 11.2497 27.3191 11.25 27.5V30.6046C10.9156 30.3281 10.5906 30.0359 10.2781 29.7234C8.35487 27.8005 7.04507 25.3505 6.51433 22.6832C5.98359 20.0159 6.25575 17.2511 7.29638 14.7385C8.33702 12.2259 10.0994 10.0783 12.3606 8.56729C14.6218 7.05631 17.2804 6.24983 20 6.24983C22.7195 6.24983 25.3781 7.05631 27.6393 8.56729C29.9005 10.0783 31.6629 12.2259 32.7035 14.7385C33.7442 17.2511 34.0163 20.0159 33.4856 22.6832C32.9548 25.3505 31.645 27.8005 29.7218 29.7234Z" fill="#0DCAF0"/>
</svg>
